<?xml version="1.0" encoding="utf-8"?>
<!-- Generator: Adobe Illustrator 27.0.1, SVG Export Plug-In . SVG Version: 6.00 Build 0)  -->
<svg version="1.1" id="nuage" xmlns="http://www.w3.org/2000/svg" xmlns:xlink="http://www.w3.org/1999/xlink" x="0px" y="0px"
	 viewBox="0 0 1920 1080" style="enable-background:new 0 0 1920 1080;" xml:space="preserve">
<style type="text/css">
	.st0{fill:#3E67A4;}
	.st1{fill:#5D7DAE;}
	.st2{fill:#4E77B2;}
	.st3{fill:#7E91B7;}
	.st4{fill:#6684B5;}
	.st5{fill:#9DA1B4;}
</style>
<g>
	<path class="st0" d="M1918.51,274.7c0.06-62,0.16-123.99,0.19-185.99c0.04-99.99,0.04-199.99,0.06-299.98c2.07,0.9,0.93,2.7,0.94,4
		c0.08,25,0.06,50,0.06,75.01c0,139.34,0,278.69,0,418.03c-0.28,0.04-0.56,0.07-0.84,0.08
		C1918.78,282.13,1918.64,278.42,1918.51,274.7z"/>
	<path class="st1" d="M1918.91,285.85c0.28-0.01,0.56-0.04,0.84-0.08c0,97.01,0,194.01,0,291.02l-0.33-0.16c0,0-0.37,0.03-0.37,0.03
		c-0.14-26.28-0.27-52.56-0.4-78.84c-0.01-16.97-0.03-33.93-0.04-50.9c-0.01-25.76-0.02-51.51-0.03-77.26
		c-0.01-8.97-0.02-17.95-0.04-26.92c-0.01-3.68-0.02-7.36-0.03-11.03c0.03-8.65,0.06-17.29,0.09-25.94
		C1918.71,299.12,1918.81,292.49,1918.91,285.85z"/>
	<path class="st1" d="M110.87,648.73c3.88-1.64,7.56-1.19,11.47,0.34c7.93,3.11,16.1,3.13,24.32,0.96c2.39-0.63,4.85-1.36,7.07,0.55
		c-8.37,6.04-17.48,9.73-28,10.11c-8.4,0.3-15.71,3.76-22.13,9.3c-4.41,3.8-9.43,6.79-14.51,9.7c-9.12,5.23-17.83,11.03-24.87,19.04
		c-5.44,6.19-4.24,11.21,3.53,14.05c3.15,1.15,6.45,1.58,9.76,2.03c22.32,3.02,44.82,1.81,67.23,2.91
		c10.96,0.54,21.99-0.26,32.95,0.32c21.29,1.13,42.58,0.64,63.87,0.64c2.79,0,5.62-0.66,8.37-1.27
		c11.18-2.45,14.18-6.95,11.89-18.22c-1.39-6.86-2.81-13.71-3.06-20.72c-0.24-6.81,1.1-7.89,7.82-8.75
		c19.32-2.45,38.61-5.11,57.9-7.73c1.27-0.17,2.95,0.05,3.51-1.41c0.63-1.61-1.04-2.24-1.98-3.07c-1.25-1.12-2.5-2.21-3.18-3.79
		c13.49,5.79,27.18,6.68,41.44,2.71c12.29-3.42,23.78-1.07,33.65,7.35c8.92,7.6,18.5,9.73,29.61,4.94
		c16.21-6.99,32.88-12.79,49.94-17.35c24.29-6.5,45.71,0.08,65.13,14.97c11.59,8.89,21.55,19.26,28.06,32.52
		c3.61,7.36,5.49,15.27,3.25,23.28c-2.65,9.47,0.32,16.61,7.35,22.69c2.14,1.85,4.41,3.56,6.42,5.55c3.83,3.81,3.21,6.83-1.92,8.42
		c-6.88,2.12-14.05,2.55-21.21,3.02c-24.12,1.58-48.27,0.78-72.41,0.98c-2.17,0.02-4.33,0.11-6.4,0.89
		c-1.1,0.03-2.19,0.06-3.29,0.08c-2.84-1.22-5.69-1.22-8.53-0.01c-0.82,0-1.64,0-2.46,0c-1.18-0.62-2.36-0.62-3.55,0
		c-1.81-0.05-3.62-0.11-5.43-0.16c-1.8-1.95-4.21-1.73-6.53-1.8c-6.35-0.2-12.64-0.87-18.8-2.41c-9.28-2.31-10.46-4.7-6.71-13.23
		c2.94-6.68,1.57-9.4-5.65-10.94c-10.62-2.26-21.23-1.75-31.75,0.54c-6.87,1.5-7.89,3.51-5.93,10.24c1.92,6.57,0.93,8.37-5.84,9.73
		c-11.18,2.24-22.2,0.86-33.2-1.56c-5.02-1.11-7.62-3.99-7.34-9.1c0.28-5.12-2.24-7.35-6.99-8.63c-13.12-3.54-26.51-4.92-40-5.65
		c-10.51-0.57-20.97,1.05-31.45,0.93c-26.48-0.3-52.97,0.77-79.46-0.79c-18.28-1.07-36.63-0.36-54.95-0.84
		c-21.3-0.56-42.62-1.31-63.94-1.42c-9.3-0.05-18.68-0.71-27.71-3.34c-8.41-2.45-10.41-7.63-5.98-15.22
		c2.45-4.2,5.82-7.67,9.33-11.02c6.49-6.21,13.93-11.47,19.48-18.62c5.99-7.73,3.88-13.95-5.56-16.18
		c-17.57-4.16-35.47-5.86-53.49-6.47c0.01-2.64,0.02-5.28,0.03-7.93c2.32,0.06,4.67-0.08,6.96,0.22c28.78,3.78,57.65,3.47,86.5,1.39
		C99.26,651.09,105.58,652.62,110.87,648.73z M494.65,654.71c-1,0-2,0.01-3,0.01c-2.77-1.19-5.57-0.85-8.33-0.08
		c-17.85,4.98-35.3,10.88-51.07,21.01c-14.88,9.56-21.99,8.79-35.21-2.89c-6.27-5.54-12.71-11.31-21.8-10.85
		c-12.49,0.63-24.82,2.68-36.84,6.23c-3.82,1.13-6.43,3.61-6.84,7.74c-0.88,8.88-4.84,16.29-9.66,23.69
		c-8.61,13.22-5.83,19.2,9.89,21.28c13.35,1.77,26.83,1.49,40.33,1.12c21.64-0.59,43.31-0.22,64.97-0.12
		c5.66,0.03,11.34,0.52,16.83,1.97c6.83,1.8,8.02,5.03,4.4,10.97c-1.21,1.99-2.64,3.86-3.78,5.88c-3.58,6.34-1.6,11.07,5.54,12.73
		c3.39,0.78,6.9,1.05,10.38,1.38c20.94,2,41.94,0.8,62.92,0.93c7.8,0.05,15.66-0.66,23.32-2.34c7.31-1.61,8.79-5.09,5.07-11.43
		c-1.09-1.86-2.38-3.62-3.77-5.27c-7.04-8.38-7.03-11.28,1.2-18.69c5.46-4.92,6.37-10.41,4.12-17.13
		c-2.54-7.58-8.45-12.67-12.96-18.79c-8.26-11.2-19.31-18.79-31.87-24.17c-5.87-2.52-12.04-5.15-18.81-3.16c-1,0-2-0.01-3-0.01
		C496.02,653.91,495.34,653.91,494.65,654.71z"/>
	<path class="st2" d="M462.47,763.63c-16.78,0.68-33.3-0.17-48.8-7.69c-3.71-1.8-7.56-0.97-11.23,0.23
		c-21.17,6.96-42.42,4.44-63.68,0.62c-6.31-1.13-11.15-3.94-13-10.75c-1.11-4.08-4.63-6.04-8.52-6.92
		c-7.8-1.76-15.6-3.39-23.69-3.36c-26.49,0.09-52.99,0.49-79.47-0.11c-24.31-0.55-48.63-0.39-72.92-1.02
		c-27.46-0.72-54.91-1.36-82.37-2c-11.27-0.26-22.66-0.77-33.65-3.99c-8.09-2.37-10.09-6.41-5.85-13.74
		c4.24-7.34,7.34-15.28,12.51-22.16c5.14-6.84,3.34-11.87-4.41-15.33C18.64,673.5,9.31,673.3,0,672.9c0-5.03,0.01-10.05,0.01-15.08
		c18.02,0.61,35.91,2.31,53.49,6.47c9.44,2.23,11.55,8.45,5.56,16.18c-5.55,7.16-12.99,12.41-19.48,18.62
		c-3.51,3.36-6.88,6.83-9.33,11.02c-4.44,7.59-2.44,12.77,5.98,15.22c9.03,2.63,18.41,3.29,27.71,3.34
		c21.32,0.11,42.64,0.86,63.94,1.42c18.33,0.48,36.68-0.23,54.95,0.84c26.49,1.56,52.98,0.49,79.46,0.79
		c10.48,0.12,20.94-1.5,31.45-0.93c13.49,0.73,26.88,2.11,40,5.65c4.74,1.28,7.27,3.5,6.99,8.63c-0.28,5.11,2.32,7.99,7.34,9.1
		c10.99,2.42,22.02,3.8,33.2,1.56c6.77-1.36,7.75-3.16,5.84-9.73c-1.96-6.73-0.94-8.74,5.93-10.24c10.52-2.3,21.14-2.81,31.75-0.54
		c7.22,1.54,8.59,4.26,5.65,10.94c-3.75,8.53-2.57,10.92,6.71,13.23c6.17,1.54,12.46,2.21,18.8,2.41
		C458.27,761.9,460.67,761.68,462.47,763.63z M408.83,741.09c-2.68,0.55-5.95,0.28-7.17,3.49c-1.04,2.72,0.73,4.8,2.75,6.43
		c2.59,2.09,5.33,1.8,7.78-0.2c2.21-1.8,6.24-3.03,5.08-6.54C416.09,740.71,411.85,741.94,408.83,741.09z"/>
	<path class="st3" d="M0.09,628.99c0-18.46,0.01-36.92,0.01-55.38c24.18,5.32,45.61,16.42,65.17,31.32
		c6.14,4.68,11.13,10.57,14.98,17.23c4.66,8.06,1.63,13.25-7.61,13.64c-7.86,0.34-15.62-0.77-23.4-1.56
		C32.85,632.57,16.48,630.75,0.09,628.99z"/>
	<path class="st4" d="M0.09,628.99c16.38,1.76,32.76,3.58,49.15,5.25c7.78,0.79,15.54,1.9,23.4,1.56
		c9.24-0.39,12.27-5.59,7.61-13.64c-3.86-6.67-8.84-12.55-14.98-17.23c-19.56-14.9-40.99-26-65.17-31.32
		c-0.02-4.27-0.05-8.54-0.07-12.8c24.12,4.52,45.12,15.62,63.95,30.95c14.77,12.03,27.05,26.47,38.09,41.92
		c3.36,4.71,5.88,10.02,8.79,15.05c-5.28,3.88-11.61,2.36-17.36,2.77c-28.85,2.08-57.72,2.39-86.5-1.39
		c-2.29-0.3-4.64-0.16-6.96-0.22C0.06,642.93,0.08,635.96,0.09,628.99z"/>
	<path class="st4" d="M1117.72,511.85c2.37-11.44,13.99-18.4,25.08-14.76c4.25,1.39,8.35,3.35,12.37,5.33
		c7.91,3.89,15.85,4.35,24.19,1.35c9.43-3.39,17.58-8.01,23.79-16.43c6.32-8.57,15.84-11.11,26.31-9.88
		c3.31,0.39,6.59,0.96,9.9,1.29c7.79,0.79,14.06-1.66,19.64-7.53c11.71-12.31,23.74-12.45,36.38-1.18
		c3.85,3.43,7.75,6.83,11.47,10.4c6.39,6.15,14,9.03,22.76,8.22c12.63-1.18,23.64,2.62,33.64,10.05c3.34,2.48,6.7,4.95,10.14,7.29
		c10.39,7.09,19.5,5.56,27.91-3.78c8.32-9.26,15.07-19.46,20.44-30.62c4.43-9.21,11.81-14.42,21.84-15.32
		c12.51-1.12,23.45-5.55,33.43-13.15c6.8-5.18,14.44-4.11,21.82-0.73c7.81,3.58,14.47,9.1,20.86,14.52
		c11.54,9.78,24.59,12.99,39.05,11.73c10.11-0.88,20.21-2.14,30.01-5.1c8.55-2.58,15.05-7.62,19.39-15.45
		c3.07-5.54,6.41-10.92,10.6-15.72c9.75-11.13,22.93-14.59,36.8-15.42c22.39-1.33,43.25-6.99,62.55-18.6
		c15.11-9.08,30.94-11.5,47.77-4.25c8.01,3.45,16.81,4.37,25.47,4.47c8.72,0.1,16.71-2.97,23.52-8.51
		c5.16-4.2,10.17-8.61,15.13-13.05c2.5-2.24,5.19-4.14,8.06-5.86c7.99-4.76,19.94-4.72,27.37,3.58
		c13.05,14.55,20.4,30.62,14.08,50.18c-3.39,10.48-11.32,18.42-18.76,26.21c-14.45,15.13-31.07,27.49-49.31,37.85
		c-22.83,12.97-46.55,23.82-71.68,31.4c-24.45,7.37-49.46,12.13-74.78,15.39c-15.03,1.94-30.04,4.02-45.16,5.24
		c-15.93,1.28-31.85,2.95-47.84,0.74c-15.9-2.19-31.57-0.5-47.14,2.75c-8.01,1.68-16.13,2.48-24.24,3.38
		c-2.33-2.7-4.98-5.04-7.87-7.12c8.08-2.2,15.73-5.24,22.49-10.4c2.54-1.94,5.95-2.25,9.1-2.36c17.82-0.61,35.62-0.13,53.3,2.3
		c7.93,1.09,15.88,2.65,23.83,2.2c12.45-0.71,24.85-2.38,37.28-3.66c28.3-2.92,55.75-9.44,82.3-19.68c2.01-0.78,4.04-1.6,5.88-2.7
		c2.18-1.3,4.17-3.07,3.95-5.92c-0.22-2.94-2.65-4.06-5.01-4.98c-4.95-1.93-10.05-1.95-15.26-1.26c-8.21,1.08-16.3,1.04-23.79-3.31
		c-5.79-3.36-6.75-6.96-3.42-12.76c1.77-3.07,3.87-5.83,6.73-7.95c9.41-6.96,15.63-16.75,22.74-25.72c1.87-2.35,2.58-5.37,2.81-8.43
		c0.63-8.58-2.27-11.58-10.96-11.24c-16.46,0.65-32.92,1.22-49.38,1.99c-12.26,0.57-23.25,4.09-31.24,14.23
		c-3.55,4.51-5.77,9.73-8.36,14.76c-6.02,11.68-15.72,17.76-28.65,18.84c-11.29,0.94-22.5,2.6-33.74,3.92
		c-10.27,1.21-17.29,5.93-22.38,15.21c-8.49,15.51-19.67,18.6-35.69,11.2c-0.3-0.14-0.6-0.28-0.9-0.44
		c-6.89-3.49-14.14-5.76-21.81-6.89c-9.53-1.41-19.32-1.19-28.58-4.36c-5.89-2.01-10.61,0.06-15.15,3.82
		c-6.59,5.46-10.69,12.67-14.87,19.86c-2.65,4.55-1.76,6.94,3.41,8.53c4.96,1.53,10.07,2.06,15.27,2.3
		c5.1,0.24,10.44,0.33,14.14,4.86c-18.12,5.45-36.16,11.29-55.31,11.92c-1.81,0.06-3.9,0.28-5.41-0.48
		c-11.72-5.89-23.73-2.82-35.7-1.49c-1.48,0.16-2.96,0.44-4.44,0.66c-2.67-1.8-5.72-1.55-8.71-1.55
		c-27.81-0.01-55.61,0.13-83.42-0.07c-13.3-0.09-26.6-0.82-39.9-1.27c-18.11-0.61-36.13-3.22-54.31-2.57
		c-5.17-4.7-10.41-9.32-15.5-14.1C1136.63,516.81,1128.66,511.08,1117.72,511.85z M1327.94,530.97c8.72-1.1,17.88-0.97,27.02-1.41
		c6.47-0.31,12.92-1.25,19.34-2.11c2.48-0.33,5.1-1.1,5.72-4.06c0.57-2.75-1.51-4.22-3.38-5.64c-5.3-4.03-10.41-8.29-15.41-12.7
		c-11.22-9.9-23.73-14.5-38.66-8.84c-7.92,3-14.44-0.02-19.62-6.02c-3.27-3.79-6.68-7.43-10.25-10.92
		c-10.76-10.49-19.68-10.02-29.02,1.6c-4.82,5.99-10.83,9.24-18.6,8.88c-5.98-0.27-11.96-0.72-17.94-0.94
		c-8.05-0.29-13.14,4-16.18,11.04c-2.72,6.28-5.07,12.74-11.5,16.43c-1.17,0.67-1.95,1.89-1.68,3.38c0.32,1.76,1.76,2.34,3.25,2.68
		c1.13,0.26,2.3,0.32,3.46,0.42c12.28,1.02,24.53,2.06,36.66,4.48c13.76,2.74,27.68,5.14,41.16-1.35c5.7-2.75,11.44-2.69,16.9-0.11
		C1308.27,530.06,1317.95,530.01,1327.94,530.97z M1764.51,443.02c0.57,4.83,0.93,9.83,1.81,14.73c0.95,5.24,2.16,10.45,3.68,15.55
		c1.82,6.09,5.9,8.11,11.96,6.39c3.56-1.01,6.71-2.89,9.93-4.65c10.04-5.46,18.32-13.28,27.14-20.34
		c12.13-9.7,21.55-21.78,28.3-35.71c3.86-7.97,5.88-16.65,5.86-25.62c-0.02-8.07-5.6-11.72-13.17-8.79
		c-4.27,1.66-7.74,4.57-11.09,7.56c-10.63,9.47-22.1,17.04-36.85,18.45c-4.41,0.42-8.87,1.62-12.95,3.6
		C1767.04,420.05,1765.67,431.35,1764.51,443.02z M1433.33,481.39c0.4,2.16,0.79,5.01,4.34,4.12c3.18-0.8,6.29-2.06,9.26-3.48
		c2.66-1.27,3.46-3.89,3.36-6.69c-0.07-2.05-1.39-3.24-3.26-3.93C1440.85,469.14,1433.27,474.45,1433.33,481.39z"/>
	<path class="st3" d="M1446.75,532.74c-3.7-4.54-9.04-4.62-14.14-4.86c-5.2-0.25-10.31-0.78-15.27-2.3
		c-5.17-1.6-6.06-3.99-3.41-8.53c4.19-7.19,8.29-14.4,14.87-19.86c4.54-3.76,9.27-5.84,15.15-3.82c9.26,3.17,19.05,2.95,28.58,4.36
		c7.67,1.13,14.92,3.4,21.81,6.89c0.3,0.15,0.6,0.3,0.9,0.44c16.01,7.4,27.2,4.3,35.69-11.2c5.08-9.28,12.11-14,22.38-15.21
		c11.24-1.33,22.45-2.98,33.74-3.92c12.94-1.08,22.63-7.16,28.65-18.84c2.59-5.02,4.8-10.25,8.36-14.76
		c7.99-10.14,18.98-13.66,31.24-14.23c16.45-0.77,32.92-1.34,49.38-1.99c8.69-0.34,11.59,2.66,10.96,11.24
		c-0.22,3.06-0.94,6.08-2.81,8.43c-7.12,8.97-13.34,18.77-22.74,25.72c-2.86,2.12-4.96,4.88-6.73,7.95
		c-3.33,5.8-2.38,9.4,3.42,12.76c7.49,4.34,15.58,4.39,23.79,3.31c5.21-0.69,10.31-0.67,15.26,1.26c2.36,0.92,4.79,2.04,5.01,4.98
		c0.22,2.85-1.77,4.61-3.95,5.92c-1.84,1.1-3.87,1.92-5.88,2.7c-26.55,10.24-53.99,16.76-82.3,19.68
		c-12.42,1.28-24.82,2.95-37.28,3.66c-7.94,0.45-15.9-1.11-23.83-2.2c-17.68-2.43-35.48-2.92-53.3-2.3
		c-3.15,0.11-6.56,0.41-9.1,2.36c-6.75,5.17-14.4,8.21-22.49,10.4c-13.08-5.81-26.96-7.82-41.08-8.64
		C1450.03,532.02,1448.38,532.52,1446.75,532.74z"/>
	<path class="st4" d="M322.82,653.75c0.68,1.58,1.93,2.67,3.18,3.79c0.93,0.84,2.6,1.46,1.98,3.07c-0.56,1.45-2.25,1.23-3.51,1.41
		c-19.3,2.61-38.59,5.27-57.9,7.73c-6.71,0.85-8.05,1.93-7.82,8.75c0.24,7.01,1.66,13.86,3.06,20.72
		c2.29,11.27-0.71,15.77-11.89,18.22c-2.76,0.6-5.58,1.27-8.37,1.27c-21.29,0-42.58,0.49-63.87-0.64
		c-10.96-0.58-21.99,0.21-32.95-0.32c-22.4-1.1-44.91,0.11-67.23-2.91c-3.31-0.45-6.61-0.88-9.76-2.03
		c-7.77-2.84-8.97-7.86-3.53-14.05c7.04-8.01,15.75-13.81,24.87-19.04c5.07-2.91,10.1-5.9,14.51-9.7c6.43-5.54,13.74-9,22.13-9.3
		c10.52-0.38,19.63-4.07,28-10.11c12.53-4.92,24.98-10.07,37.62-14.68c15.3-5.58,30.56-11.45,46.9-13.39
		c24.25-2.88,47.17,0.12,67.08,15.71C311.47,643.04,315.98,649.71,322.82,653.75z M276.01,652.84c3.95-0.22,9,0.63,13.91-0.58
		c5.57-1.36,6.84-4.95,3.58-9.67c-3.06-4.43-7.58-6.96-12.36-9c-16.35-6.98-33.32-6.5-50.02-2.42
		c-17.61,4.31-35.07,9.42-52.08,15.84c-9.64,3.64-19.04,7.93-28.79,11.23c-7.07,2.39-14.54,3.61-21.81,5.4
		c-6.23,1.54-11.82,4.3-16.83,8.4c-6.05,4.95-12.13,9.88-18.69,14.19c-3.87,2.55-7.82,5.15-10.78,8.84
		c-3.41,4.25-2.53,7.89,2.57,9.74c3.58,1.3,7.33,2.28,11.08,2.92c15.98,2.72,32.19,2.34,48.3,2.87c22.61,0.74,45.26-0.17,67.88,1.08
		c8.98,0.5,17.97,0.15,26.92-1.04c10.7-1.42,15.53-7.54,14.19-18.25c-0.62-4.96-1.28-9.91-2-14.86c-0.31-2.12-0.59-4.23-1.84-6.15
		c-5.25-8.08-2.47-14.92,6.85-17.31C262.32,652.49,268.66,652.93,276.01,652.84z"/>
	<path class="st3" d="M491.66,654.72c1,0,2-0.01,3-0.01c0.69,0,1.37,0,2.06,0c1,0,2,0.01,3,0.01c1.93,0.48,3.86,0.97,5.8,1.42
		c19.16,4.44,34.22,14.53,43.38,32.25c5.59,10.81,2.18,17.1-9.75,19.34c-10.99,2.07-22.11,3.05-33.26,3.02
		c-11.81-0.04-23.61-0.84-35.42-0.88c-16.17-0.05-32.26-0.92-48.24-3.47c-2.81-0.45-5.64-0.8-8.44-0.2
		c-18.88,4.08-38.03,3.78-57.18,3.62c-4.26-0.03-8.23-1.12-12.12-2.65c-5.33-2.09-7.95-5.92-7.53-11.62
		c0.37-4.97,1.04-9.93,2.45-14.76c1.39-4.76,4.28-8.14,8.81-10.24c7.56-3.51,15.59-4.46,23.78-5.05c5.25-0.38,9.81,0.89,14.21,3.62
		c6.12,3.79,9.98,9.72,14.49,15.01c9.29,10.88,18.89,11.56,28.79,1.28c9.09-9.44,19.79-16.06,31.86-20.95
		C471.21,660.46,481.17,656.82,491.66,654.72z"/>
	<path class="st4" d="M491.66,654.72c-10.48,2.1-20.44,5.74-30.34,9.75c-12.07,4.88-22.77,11.5-31.86,20.95
		c-9.89,10.28-19.5,9.6-28.79-1.28c-4.52-5.29-8.37-11.21-14.49-15.01c-4.4-2.72-8.96-3.99-14.21-3.62
		c-8.19,0.59-16.22,1.54-23.78,5.05c-4.53,2.1-7.42,5.48-8.81,10.24c-1.41,4.82-2.08,9.79-2.45,14.76c-0.42,5.7,2.2,9.53,7.53,11.62
		c3.89,1.53,7.87,2.61,12.12,2.65c19.15,0.15,38.3,0.45,57.18-3.62c2.8-0.61,5.63-0.25,8.44,0.2c15.98,2.56,32.07,3.42,48.24,3.47
		c11.81,0.04,23.61,0.85,35.42,0.88c11.16,0.03,22.27-0.95,33.26-3.02c11.93-2.25,15.34-8.54,9.75-19.34
		c-9.16-17.72-24.23-27.81-43.38-32.25c-1.94-0.45-3.86-0.95-5.8-1.42c6.77-1.99,12.93,0.64,18.81,3.16
		c12.56,5.38,23.61,12.97,31.87,24.17c4.52,6.13,10.43,11.22,12.96,18.79c2.25,6.73,1.35,12.22-4.12,17.13
		c-8.23,7.41-8.24,10.31-1.2,18.69c1.39,1.65,2.68,3.41,3.77,5.27c3.72,6.34,2.24,9.83-5.07,11.43c-7.66,1.68-15.52,2.39-23.32,2.34
		c-20.97-0.13-41.97,1.07-62.92-0.93c-3.47-0.33-6.99-0.6-10.38-1.38c-7.14-1.65-9.12-6.38-5.54-12.73
		c1.15-2.03,2.57-3.89,3.78-5.88c3.62-5.93,2.43-9.17-4.4-10.97c-5.48-1.45-11.17-1.94-16.83-1.97c-21.66-0.1-43.32-0.47-64.97,0.12
		c-13.5,0.37-26.98,0.65-40.33-1.12c-15.73-2.09-18.51-8.06-9.89-21.28c4.82-7.4,8.78-14.81,9.66-23.69
		c0.41-4.13,3.02-6.62,6.84-7.74c12.03-3.54,24.35-5.59,36.84-6.23c9.09-0.46,15.53,5.31,21.8,10.85
		c13.21,11.67,20.33,12.44,35.21,2.89c15.77-10.13,33.22-16.03,51.07-21.01C486.09,653.86,488.89,653.52,491.66,654.72z
		 M507.96,748.8c4.82,0,9.64,0.09,14.46-0.02c5.5-0.13,10.98-0.68,16.23-2.38c4.81-1.56,5.78-4.82,3-8.84
		c-10.76-15.55-33.09-22.05-50-14.51c-5.54,2.47-10.2,6.19-14.33,10.61c-2.4,2.56-5.28,5.08-3.91,9.05
		c1.29,3.72,4.99,4.04,8.22,4.71C490.32,749.22,499.15,748.84,507.96,748.8z"/>
	<path class="st2" d="M482.45,763.8c-2.85,1.25-5.69,1.25-8.54-0.01C476.76,762.58,479.61,762.58,482.45,763.8z"/>
	<path class="st2" d="M471.45,763.79c-1.18,0.65-2.37,0.65-3.55,0C469.09,763.17,470.27,763.17,471.45,763.79z"/>
	<path class="st4" d="M496.71,654.71c-0.69,0-1.37,0-2.06,0C495.34,653.91,496.02,653.91,496.71,654.71z"/>
	<path class="st0" d="M408.83,741.09c3.02,0.85,7.26-0.38,8.44,3.17c1.17,3.51-2.86,4.75-5.08,6.54c-2.46,1.99-5.19,2.29-7.78,0.2
		c-2.02-1.63-3.79-3.71-2.75-6.43C402.88,741.37,406.15,741.64,408.83,741.09z"/>
	<path class="st3" d="M1327.94,530.97c-10-0.96-19.68-0.91-28.73-5.19c-5.46-2.58-11.2-2.64-16.9,0.11
		c-13.48,6.5-27.41,4.1-41.16,1.35c-12.13-2.42-24.38-3.46-36.66-4.48c-1.16-0.1-2.34-0.16-3.46-0.42
		c-1.49-0.34-2.93-0.92-3.25-2.68c-0.27-1.5,0.51-2.72,1.68-3.38c6.43-3.69,8.79-10.15,11.5-16.43c3.04-7.04,8.14-11.32,16.18-11.04
		c5.98,0.21,11.96,0.66,17.94,0.94c7.76,0.35,13.78-2.89,18.6-8.88c9.34-11.62,18.27-12.09,29.02-1.6
		c3.58,3.49,6.98,7.12,10.25,10.92c5.19,6,11.7,9.02,19.62,6.02c14.93-5.65,27.44-1.06,38.66,8.84c5,4.41,10.11,8.67,15.41,12.7
		c1.86,1.42,3.95,2.89,3.38,5.64c-0.62,2.96-3.24,3.72-5.72,4.06c-6.43,0.86-12.88,1.8-19.34,2.11
		C1345.83,529.99,1336.66,529.87,1327.94,530.97z"/>
	<path class="st3" d="M1764.51,443.02c1.16-11.66,2.53-22.97,14.63-28.84c4.08-1.98,8.54-3.18,12.95-3.6
		c14.75-1.41,26.21-8.98,36.85-18.45c3.35-2.99,6.82-5.9,11.09-7.56c7.56-2.93,13.15,0.72,13.17,8.79c0.02,8.97-2,17.65-5.86,25.62
		c-6.75,13.93-16.18,26.01-28.3,35.71c-8.82,7.06-17.1,14.88-27.14,20.34c-3.22,1.75-6.37,3.64-9.93,4.65
		c-6.06,1.72-10.14-0.3-11.96-6.39c-1.52-5.1-2.74-10.31-3.68-15.55C1765.44,452.85,1765.08,447.85,1764.51,443.02z"/>
	<path class="st3" d="M1433.33,481.39c-0.06-6.95,7.52-12.25,13.7-9.98c1.87,0.69,3.19,1.87,3.26,3.93c0.1,2.8-0.7,5.42-3.36,6.69
		c-2.97,1.42-6.08,2.67-9.26,3.48C1434.12,486.4,1433.73,483.55,1433.33,481.39z"/>
	<path class="st3" d="M276.01,652.84c-7.35,0.09-13.69-0.35-19.92,1.25c-9.32,2.39-12.1,9.24-6.85,17.31
		c1.25,1.92,1.54,4.02,1.84,6.15c0.72,4.94,1.37,9.9,2,14.86c1.34,10.71-3.49,16.83-14.19,18.25c-8.95,1.19-17.95,1.53-26.92,1.04
		c-22.62-1.25-45.27-0.33-67.88-1.08c-16.11-0.53-32.32-0.15-48.3-2.87c-3.76-0.64-7.51-1.62-11.08-2.92
		c-5.1-1.86-5.97-5.5-2.57-9.74c2.96-3.69,6.91-6.29,10.78-8.84c6.56-4.32,12.64-9.24,18.69-14.19c5.01-4.1,10.6-6.86,16.83-8.4
		c7.28-1.79,14.74-3.01,21.81-5.4c9.75-3.3,19.15-7.59,28.79-11.23c17.01-6.42,34.46-11.54,52.08-15.84
		c16.7-4.08,33.67-4.57,50.02,2.42c4.78,2.04,9.3,4.57,12.36,9c3.26,4.72,1.99,8.31-3.58,9.67
		C285.01,653.47,279.96,652.62,276.01,652.84z M187.89,689.68c9.08,0.32,17.54,0.06,25.97-1.04c8.68-1.13,11.49-4.26,11.3-12.92
		c-0.04-1.76,0.09-3.4,1.61-4.47c3.41-2.38,2.59-5.08,0.53-7.69c-6.58-8.31-14.53-13.94-25.79-13.76
		c-10.64,0.17-20.76,2.48-30.57,6.4c-1.36,0.55-3.05,1.19-3.76,2.31c-2.86,4.55-7.6,6.26-11.99,8.56
		c-5.01,2.63-10.11,5.15-13.8,9.65c-2.98,3.62-2.45,6.75,1.66,8.99c3.72,2.03,7.89,2.86,12.04,2.87
		C166.25,688.62,177.32,690.53,187.89,689.68z"/>
	<path class="st3" d="M507.96,748.8c-8.81,0.04-17.64,0.43-26.34-1.38c-3.23-0.67-6.93-0.98-8.22-4.71
		c-1.37-3.97,1.51-6.49,3.91-9.05c4.13-4.42,8.79-8.14,14.33-10.61c16.91-7.55,39.25-1.04,50,14.51c2.78,4.02,1.81,7.28-3,8.84
		c-5.24,1.7-10.73,2.25-16.23,2.38C517.6,748.89,512.78,748.8,507.96,748.8z"/>
	<path class="st5" d="M187.89,689.68c-10.57,0.85-21.64-1.06-32.78-1.09c-4.14-0.01-8.31-0.85-12.04-2.87
		c-4.11-2.24-4.64-5.37-1.66-8.99c3.69-4.5,8.79-7.02,13.8-9.65c4.39-2.3,9.13-4.01,11.99-8.56c0.7-1.12,2.39-1.76,3.76-2.31
		c9.81-3.93,19.93-6.23,30.57-6.4c11.25-0.18,19.21,5.45,25.79,13.76c2.06,2.6,2.88,5.31-0.53,7.69c-1.52,1.06-1.65,2.71-1.61,4.47
		c0.19,8.66-2.61,11.79-11.3,12.92C205.44,689.74,196.97,690.01,187.89,689.68z"/>
</g>
</svg>
