<?xml version="1.0" encoding="utf-8"?>
<!-- Generator: Adobe Illustrator 27.0.1, SVG Export Plug-In . SVG Version: 6.00 Build 0)  -->
<svg version="1.1" xmlns="http://www.w3.org/2000/svg" xmlns:xlink="http://www.w3.org/1999/xlink" x="0px" y="0px"
	 viewBox="0 0 1920 1080" style="enable-background:new 0 0 1920 1080;" xml:space="preserve">
<style type="text/css">
	.st0{fill:#FFFFFF;}
</style>
<g id="fond">
	<rect x="-28" y="-30" width="1971" height="1125"/>
</g>
<g id="oeil_x5F_g">
	<g>
		<path class="st0" d="M501.94,690.58c-68.32,0.06-128.33-23.86-182.75-63.62c-32.08-23.44-59.64-51.51-83.5-83.25
			c-1.98-2.64-3.95-4.63-1.02-8.49c45.94-60.56,102.42-107.44,174.98-132.46c78.44-27.05,154.48-19.09,227.56,19.27
			c52.22,27.41,94.91,65.97,130.2,113c2.04,2.72,2.3,4.59,0.15,7.41c-51.33,67.52-115.15,117.29-198.26,139.63
			C547.26,687.99,524.75,690.45,501.94,690.58z M501.25,440.73c-54.74,0.17-98.29,43.78-98.22,98.36
			c0.07,54.19,43.92,97.98,98,97.87c55.01-0.11,98.35-43.78,98.22-98.97C599.13,484.38,554.97,440.56,501.25,440.73z M421.38,641.61
			c-31.9-26.98-49.3-60.95-49.39-102.66c-0.09-41.78,17.56-75.76,49.26-102.86c-59.83,19.46-108.2,54.85-148.17,102.85
			C313.6,587.03,361.85,622.44,421.38,641.61z M581.03,641.58c59.62-19.21,107.91-54.76,148.24-102.73
			c-40.42-47.96-88.54-83.46-148.18-102.68c31.6,27.04,49.2,60.91,49.21,102.58C630.31,580.51,612.85,614.46,581.03,641.58z"/>
		<path class="st0" d="M451.37,520.11c14.83,9.07,26.14,9.9,35.92,1.95c11.98-9.74,13.18-22.06,7.16-35.56
			c17.45-5.8,42.37,6.59,53.69,26.4c12.15,21.26,7.43,49.64-10.93,65.81c-20.05,17.66-47.89,18.62-69.28,2.4
			C449.46,567.1,441.94,539.41,451.37,520.11z"/>
	</g>
</g>
<g id="oeil_x5F_d">
	<g>
		<path class="st0" d="M1365.62,690.58c-68.32,0.06-128.33-23.86-182.75-63.62c-32.08-23.44-59.64-51.51-83.5-83.25
			c-1.98-2.64-3.95-4.63-1.02-8.49c45.94-60.56,102.42-107.44,174.98-132.46c78.44-27.05,154.48-19.09,227.56,19.27
			c52.22,27.41,94.91,65.97,130.2,113c2.04,2.72,2.3,4.59,0.15,7.41c-51.33,67.52-115.15,117.29-198.26,139.63
			C1410.94,687.99,1388.42,690.45,1365.62,690.58z M1364.93,440.73c-54.74,0.17-98.29,43.78-98.22,98.36
			c0.07,54.19,43.92,97.98,98,97.87c55.01-0.11,98.35-43.78,98.22-98.97C1462.81,484.38,1418.65,440.56,1364.93,440.73z
			 M1285.06,641.61c-31.9-26.98-49.3-60.95-49.39-102.66c-0.09-41.78,17.56-75.76,49.26-102.86
			c-59.83,19.46-108.2,54.85-148.17,102.85C1177.28,587.03,1225.53,622.44,1285.06,641.61z M1444.71,641.58
			c59.62-19.21,107.91-54.76,148.24-102.73c-40.42-47.96-88.54-83.46-148.18-102.68c31.6,27.04,49.2,60.91,49.21,102.58
			C1493.99,580.51,1476.53,614.46,1444.71,641.58z"/>
		<path class="st0" d="M1315.05,520.11c14.83,9.07,26.14,9.9,35.92,1.95c11.98-9.74,13.18-22.06,7.16-35.56
			c17.45-5.8,42.37,6.59,53.69,26.4c12.15,21.26,7.43,49.64-10.93,65.81c-20.05,17.66-47.89,18.62-69.28,2.4
			C1313.13,567.1,1305.62,539.41,1315.05,520.11z"/>
	</g>
</g>
</svg>
