<?xml version="1.0" encoding="utf-8"?>
<!-- Generator: Adobe Illustrator 27.0.1, SVG Export Plug-In . SVG Version: 6.00 Build 0)  -->
<svg version="1.1" id="Calque_1" xmlns="http://www.w3.org/2000/svg" xmlns:xlink="http://www.w3.org/1999/xlink" x="0px" y="0px"
	 viewBox="0 0 1920 2160" style="enable-background:new 0 0 1920 2160;" xml:space="preserve">
<style type="text/css">
	.st0{fill:#D0D1FF;}
	.st1{fill:#C8E7FF;}
	.st2{fill:#DEAAFF;}
	.st3{fill:#FFCBF2;}
	.st4{fill:#C0FDFF;}
	.st5{fill:#9A8DA4;}
	.st6{fill:#D63E7E;}
	.st7{fill:#0DBE9D;}
	.st8{fill:#BC3444;}
	.st9{fill:#C34B87;}
	.st10{fill:#46A9CA;}
	.st11{fill:#55BAA6;}
	.st12{fill:#4B568A;}
	.st13{fill:#CCC86F;}
</style>
<g>
	<path class="st0" d="M1597.58,1080.03c-127.32,0-254.64,0-381.96,0c0-80.99,0-161.99-0.01-242.98c0-2.32-0.15-4.65-0.23-6.97
		c0.05-16.95,0.16-33.91,0.15-50.86c-0.02-40.06-0.09-80.12-0.13-120.19c0.08-2.49,0.22-4.99,0.22-7.48
		c0.01-169.28,0.01-338.56,0.02-507.83c0-2.5,0.11-4.99,0.17-7.49c127.28-0.02,254.55-0.03,381.83-0.05c0,0,0.01-0.05,0.01-0.05
		c-0.01,147.99-0.02,295.99-0.03,443.98C1597.6,746.75,1597.59,913.39,1597.58,1080.03z"/>
	<path class="st0" d="M-0.26,543.13c0-179.47,0.01-358.94-0.09-538.4c0-3.75,0.84-4.6,4.59-4.59
		c163.48,0.11,326.97,0.09,490.45,0.09c0,89.99,0.01,179.98,0.01,269.97c0,1.67-0.01,3.33-0.01,5
		c-0.02,89.31-0.05,178.62-0.07,267.93c-0.31,0.06-0.63,0.1-0.94,0.13c-2.33-0.04-4.66-0.12-6.98-0.12
		c-65.71-0.01-131.42-0.01-197.13,0c-13.97,0-27.95,0.08-41.92,0.12c-0.35,0.02-0.7,0.03-1.05,0.05c-2.16-0.05-4.33-0.15-6.49-0.15
		C159.98,543.14,79.86,543.14-0.26,543.13z"/>
	<path class="st1" d="M986.64,1080.03c-163.65,0-327.3,0-490.95,0c-0.01-86.68-0.03-173.35-0.05-260.03c0-1.99-0.11-3.98-0.17-5.98
		c0.15-0.31,0.17-0.63,0.07-0.96c0.05-1.16,0.14-2.32,0.14-3.48c0.01-86.66,0.01-173.31,0-259.97c0-1.49-0.13-2.99-0.2-4.48
		c0-0.54,0.01-1.08,0.01-1.62c0.17-0.09,0.29-0.22,0.35-0.4c80.59,0.01,161.19,0.02,241.78,0.02c1,0,1.99-0.1,2.99-0.16
		c0.38,0,0.76,0,1.14,0.01c1.99,0.05,3.99,0.15,5.98,0.15c79.6,0.02,159.19,0.03,238.79,0.04c0.04,5.99,0.1,11.99,0.12,17.98
		c0.06,32.63,0.11,65.27,0.16,97.9c-0.05,41.38-0.13,82.77-0.15,124.15c-0.01,15.62,0.1,31.24,0.16,46.86
		c-0.06,1.99-0.16,3.98-0.16,5.98C986.64,917.37,986.64,998.7,986.64,1080.03z"/>
	<path class="st2" d="M1919.55,580.12c0,165.14-0.01,330.28,0.09,495.41c0,3.75-0.84,4.6-4.59,4.59
		c-105.49-0.12-210.98-0.09-316.47-0.09c0-166.54-0.01-333.09-0.01-499.63c0,0,0.09-0.29,0.09-0.29
		c48.69,0.02,97.39,0.04,146.08,0.04c4.65,0,9.3-0.13,13.94-0.2c0.35,0,0.71,0,1.06,0c1.66,0.05,3.32,0.16,4.99,0.16
		C1816.33,580.13,1867.94,580.12,1919.55,580.12z"/>
	<path class="st3" d="M986.8,659.05c-0.05-32.63-0.1-65.27-0.16-97.9c-0.01-5.99-0.08-11.99-0.12-17.98
		c0.04-2.33,0.11-4.66,0.11-6.99c0.01-86.27,0.01-172.53,0-258.8c0-2.5-0.09-4.99-0.14-7.49c0.05-2,0.14-3.99,0.14-5.99
		c0.01-87.89,0.01-175.79,0-263.68c75.99,0,151.99,0,227.98,0c0.01,2.33,0.04,4.66,0.04,7c-0.01,214.76-0.03,429.51-0.03,644.27
		c0,2.5,0.06,5,0.1,7.5c0,0-0.24,0.08-0.24,0.08C1138.58,659.06,1062.69,659.05,986.8,659.05z"/>
	<path class="st1" d="M986.64,0.22c0,87.89,0,175.79,0,263.68c0,2-0.09,3.99-0.14,5.99c-79.47,0.01-158.94,0.01-238.42,0.03
		c-2.16,0-4.32,0.16-6.47,0.25c-0.83-0.09-1.65-0.25-2.47-0.25c-81.1,0.01-162.21,0.04-243.31,0.06l-0.19-0.25
		c0.02-89.84,0.03-179.68,0.05-269.52C659.34,0.22,822.99,0.22,986.64,0.22z"/>
	<path class="st4" d="M495.47,814.03c0.06,1.99,0.17,3.98,0.17,5.98c0.02,86.68,0.03,173.35,0.05,260.03
		c-165.32,0-330.63,0-495.95,0c0-88.98,0-177.97,0-266.95c82.32,0.01,164.65,0.02,246.97,0.03c1.49,0.1,2.98,0.28,4.46,0.28
		c79.68,0.01,159.36,0.01,239.04,0c1.49,0,2.98-0.18,4.47-0.27l-0.23,0.13l0.12,0.23C494.87,813.66,495.17,813.84,495.47,814.03z"/>
	<path class="st4" d="M1598.58,0.22c105.66,0,211.31,0.02,316.97-0.1c3.42,0,4.1,0.67,4.1,4.09c-0.12,103.32-0.1,206.63-0.1,309.95
		c-30.49,0.01-60.97,0-91.46,0.03c-22.82,0.02-45.64,0.1-68.46,0.15c-0.35-0.01-0.69-0.02-1.04-0.04c-1.66-0.05-3.33-0.14-4.99-0.14
		c-51.62,0-103.24,0-154.86,0c-0.06-2.16-0.17-4.32-0.17-6.49c-0.01-55.31,0-110.62-0.05-165.92c0-1.88,0.87-4-0.88-5.65
		c0,0-0.01,0.05-0.01,0.05c-0.02-0.28-0.04-0.57-0.06-0.86l0.02-0.1c1.71-1.65,0.86-3.76,0.86-5.63
		C1598.54,86.47,1598.55,43.35,1598.58,0.22z"/>
	<path class="st3" d="M246.71,813.11c-82.32-0.01-164.65-0.02-246.97-0.03c0-89.65,0-179.3,0-268.95c82.26,0,164.52,0,246.78,0
		c0.07,2.49,0.19,4.99,0.19,7.48c0.01,84.22,0,168.44,0.03,252.65c0,2.28-0.57,4.68,0.81,6.82
		C247.27,811.76,246.99,812.43,246.71,813.11z"/>
	<path class="st3" d="M986.64,1080.03c0-81.33,0-162.66,0.01-244c0-1.99,0.1-3.98,0.16-5.98c75.87,0.01,151.74,0.02,227.61,0.03
		l0.27,0.06c-0.02,83.3-0.05,166.59-0.07,249.89C1138.63,1080.03,1062.63,1080.03,986.64,1080.03z"/>
	<path class="st2" d="M1215.62,0.22c127.32,0,254.64,0,381.96,0c0,45,0.01,90,0.01,135c0,0-0.02,0.1-0.02,0.1
		c-126.42-0.01-252.84-0.03-379.26-0.04c-0.83,0-1.66,0.08-2.49,0.12c-0.08-0.99-0.24-1.98-0.24-2.97
		C1215.58,88.37,1215.6,44.3,1215.62,0.22z"/>
	<path class="st1" d="M1759.64,314.35c22.82-0.05,45.64-0.13,68.46-0.15c30.49-0.03,60.97-0.02,91.46-0.03c0,88.65,0,177.3,0,265.95
		c-51.61,0-103.21,0.01-154.82,0c-1.66,0-3.32-0.1-4.99-0.16c-0.05-0.83-0.16-1.66-0.16-2.49
		C1759.6,489.77,1759.62,402.06,1759.64,314.35z"/>
	<path class="st5" d="M1215.62,0.22c-0.02,44.07-0.04,88.14-0.05,132.21c0,0.99,0.16,1.98,0.24,2.97c-0.07,0.27-0.08,0.54-0.01,0.82
		c-0.06,2.5-0.17,4.99-0.17,7.49c-0.01,169.28-0.01,338.56-0.02,507.83c0,2.49-0.14,4.99-0.22,7.48c-0.23,0.02-0.45,0-0.67-0.05
		c-0.03-2.5-0.1-5-0.1-7.49c0.01-214.76,0.02-429.51,0.03-644.27c0-2.33-0.03-4.66-0.04-7C1214.95,0.22,1215.28,0.22,1215.62,0.22z"
		/>
	<path class="st6" d="M1598.57,580.4c0,166.54,0.01,333.09,0.01,499.63c-0.33,0-0.67,0-1,0c0.01-166.64,0.02-333.29,0.02-499.93
		C1597.93,580.2,1598.25,580.3,1598.57,580.4z"/>
	<path class="st6" d="M495.69,0.22c-0.02,89.84-0.03,179.68-0.05,269.52c-0.31,0.15-0.63,0.3-0.94,0.45
		c0-89.99-0.01-179.98-0.01-269.97C495.02,0.22,495.36,0.22,495.69,0.22z"/>
	<path class="st5" d="M1214.62,1080.03c0.02-83.3,0.05-166.59,0.07-249.89c0.23-0.05,0.45-0.08,0.69-0.06
		c0.08,2.32,0.23,4.65,0.23,6.97c0.01,80.99,0.01,161.99,0.01,242.98C1215.28,1080.03,1214.95,1080.03,1214.62,1080.03z"/>
	<path class="st7" d="M246.52,544.13c-82.26,0-164.52,0-246.78,0c0-0.33,0-0.67,0-1c80.12,0.01,160.24,0.01,240.37,0.03
		c2.16,0,4.33,0.1,6.49,0.15C246.59,543.58,246.57,543.85,246.52,544.13z"/>
	<path class="st8" d="M1597.59,135.22c0-45-0.01-90-0.01-135c0.33,0,0.67,0,1,0c-0.03,43.12-0.04,86.24-0.13,129.37
		C1598.45,131.46,1599.3,133.57,1597.59,135.22z"/>
	<path class="st9" d="M1598.57,580.4c-0.32-0.1-0.64-0.2-0.96-0.3c0.01-147.99,0.02-295.99,0.03-443.98
		c1.75,1.65,0.88,3.77,0.88,5.65c0.06,55.31,0.04,110.62,0.05,165.92c0,2.16,0.11,4.32,0.17,6.49c-0.06,2.16-0.17,4.33-0.17,6.49
		c-0.01,74.98-0.01,149.97,0,224.95c0,11.16,0.08,22.33,0.12,33.49c-0.01,0.33-0.02,0.67-0.03,1
		C1598.66,580.12,1598.57,580.4,1598.57,580.4z"/>
	<path class="st6" d="M1215.8,136.23c-0.07-0.27-0.06-0.55,0.01-0.82c0.83-0.04,1.66-0.12,2.49-0.12
		c126.42,0.01,252.84,0.02,379.26,0.04c0.02,0.29,0.04,0.57,0.06,0.86C1470.35,136.2,1343.08,136.21,1215.8,136.23z"/>
	<path class="st10" d="M1215.37,830.08c-0.23-0.01-0.46,0.01-0.69,0.06c0,0-0.27-0.06-0.27-0.06c0.1-1.82,0.28-3.64,0.28-5.47
		c0.02-53.53,0.01-107.06,0-160.59c0-1.66-0.15-3.32-0.22-4.97c0,0,0.24-0.08,0.24-0.08c0.22,0.05,0.45,0.07,0.67,0.05
		c0.05,40.06,0.12,80.12,0.13,120.18C1215.53,796.17,1215.43,813.13,1215.37,830.08z"/>
	<path class="st2" d="M246.71,813.11c0.28-0.67,0.56-1.35,0.84-2.02c0.06-2.16,0.16-4.32,0.16-6.48
		c0.01-84.66,0.01-169.32,0.01-253.99c0-2.16,0.09-4.32,0.15-6.48c79.49-0.01,158.98-0.01,238.47-0.05c2.46,0,5.02,0.54,7.34-0.84
		c0.32-0.03,0.63-0.07,0.94-0.13c0.29,0.13,0.58,0.27,0.87,0.39c0,0.54-0.01,1.08-0.01,1.62c-1.28,2.34-0.77,4.89-0.77,7.35
		c-0.03,86.88-0.03,173.75-0.03,260.63c-1.49,0.09-2.98,0.27-4.47,0.27c-79.68,0.01-159.36,0.01-239.04,0
		C249.68,813.38,248.19,813.2,246.71,813.11z"/>
	<path class="st9" d="M495.49,543.51c-0.29-0.13-0.58-0.26-0.87-0.39c0.02-89.31,0.05-178.62,0.07-267.93c0-1.67,0.01-3.33,0.01-5
		c0.31-0.15,0.63-0.3,0.94-0.45c0,0,0.19,0.25,0.18,0.25c-0.05,1.33-0.13,2.66-0.13,3.99c-0.01,88.38-0.01,176.76,0,265.14
		c0,1.33,0.09,2.66,0.14,3.99C495.78,543.29,495.66,543.43,495.49,543.51z"/>
	<path class="st11" d="M247.87,544.14c-0.05,2.16-0.14,4.32-0.15,6.48c-0.01,84.66-0.01,169.32-0.01,253.99
		c0,2.16-0.1,4.32-0.16,6.48c-1.37-2.14-0.81-4.54-0.81-6.82c-0.03-84.22-0.02-168.44-0.03-252.65c0-2.49-0.12-4.99-0.19-7.48
		c0.05-0.27,0.07-0.55,0.08-0.83c0.35-0.02,0.7-0.03,1.05-0.05C247.66,543.56,247.74,543.86,247.87,544.14z"/>
	<path class="st8" d="M247.87,544.14c-0.13-0.28-0.2-0.58-0.22-0.89c13.97-0.04,27.95-0.12,41.92-0.12
		c65.71-0.01,131.42-0.01,197.13,0c2.33,0,4.66,0.08,6.98,0.12c-2.32,1.38-4.88,0.84-7.34,0.84
		C406.85,544.13,327.36,544.13,247.87,544.14z"/>
	<path class="st3" d="M495.84,543.11c-0.05-1.33-0.14-2.66-0.14-3.99c-0.01-88.38-0.01-176.76,0-265.14c0-1.33,0.08-2.66,0.13-3.99
		c81.1-0.02,162.21-0.05,243.31-0.06c0.82,0,1.65,0.16,2.48,0.25c-0.28,0.68-0.57,1.35-0.85,2.03c-0.03,2.66-0.09,5.33-0.09,7.99
		c-0.02,87.59-0.04,175.18-0.06,262.78c-1,0.05-1.99,0.16-2.99,0.16C657.03,543.13,576.43,543.12,495.84,543.11z"/>
	<path class="st4" d="M740.76,272.21c0.28-0.68,0.57-1.35,0.85-2.03c2.16-0.09,4.31-0.25,6.47-0.25
		c79.47-0.02,158.94-0.03,238.42-0.03c0.05,2.5,0.13,4.99,0.13,7.49c0.01,86.27,0.01,172.53,0,258.8c0,2.33-0.07,4.66-0.11,6.99
		c-79.6-0.01-159.2-0.02-238.79-0.04c-1.99,0-3.99-0.1-5.98-0.15c-0.03-2.49-0.08-4.99-0.08-7.48c0-85.5,0-171.01-0.03-256.51
		C741.64,276.72,742.27,274.31,740.76,272.21z"/>
	<path class="st4" d="M1214.48,659.06c0.08,1.66,0.22,3.32,0.22,4.97c0.01,53.53,0.01,107.06,0,160.59c0,1.82-0.18,3.64-0.28,5.47
		c-75.87-0.01-151.74-0.02-227.61-0.03c-0.06-15.62-0.17-31.24-0.16-46.86c0.02-41.38,0.1-82.77,0.15-124.15
		C1062.69,659.05,1138.58,659.06,1214.48,659.06z"/>
	<path class="st10" d="M740.76,272.21c1.51,2.1,0.88,4.51,0.88,6.78c0.03,85.5,0.03,171.01,0.03,256.51c0,2.49,0.05,4.99,0.08,7.48
		c-0.38,0-0.76,0-1.14-0.01c0.02-87.59,0.04-175.18,0.06-262.78C740.67,277.54,740.73,274.87,740.76,272.21z"/>
	<path class="st8" d="M494.68,813.12c0-86.88,0-173.75,0.03-260.63c0-2.46-0.51-5.01,0.77-7.35c0.07,1.49,0.2,2.99,0.2,4.48
		c0.01,86.66,0.01,173.31,0,259.97c0,1.16-0.09,2.32-0.14,3.49c-0.32,0.14-0.65,0.27-0.97,0.41l-0.12-0.23L494.68,813.12z"/>
	<path class="st12" d="M494.57,813.48c0.32-0.14,0.65-0.27,0.97-0.41c0.1,0.33,0.08,0.65-0.07,0.96
		C495.17,813.84,494.87,813.66,494.57,813.48z"/>
	<path class="st13" d="M1759.64,314.35c-0.02,87.71-0.04,175.41-0.05,263.12c0,0.83,0.1,1.66,0.16,2.49c-0.35,0-0.71,0-1.06,0
		c-0.01-0.3-0.08-0.59-0.21-0.87c0.03-2.16,0.09-4.33,0.1-6.49c0.02-86.09,0.03-172.19,0.04-258.28
		C1758.94,314.33,1759.29,314.34,1759.64,314.35z"/>
	<path class="st11" d="M1758.47,579.09c0.13,0.27,0.2,0.56,0.21,0.87c-4.65,0.07-9.3,0.2-13.94,0.2c-48.69,0-97.39-0.02-146.08-0.04
		c0.01-0.33,0.02-0.67,0.03-1c12.48,0.04,24.96,0.11,37.45,0.1C1676.91,579.19,1717.69,579.14,1758.47,579.09z"/>
	<path class="st3" d="M1758.47,579.09c-40.78,0.05-81.56,0.1-122.33,0.13c-12.48,0.01-24.96-0.07-37.45-0.1
		c-0.04-11.16-0.11-22.33-0.12-33.49c-0.01-74.98-0.01-149.97,0-224.95c0-2.16,0.11-4.33,0.17-6.49c51.62,0,103.24-0.01,154.86,0
		c1.66,0,3.33,0.09,4.99,0.14c-0.01,86.1-0.02,172.19-0.04,258.28C1758.56,574.77,1758.5,576.93,1758.47,579.09z"/>
</g>
<g>
	<path class="st0" d="M1597.58,2160.03c-127.32,0-254.64,0-381.96,0c0-80.99,0-161.99-0.01-242.98c0-2.32-0.15-4.65-0.23-6.97
		c0.05-16.95,0.16-33.91,0.15-50.86c-0.02-40.06-0.09-80.12-0.13-120.19c0.08-2.49,0.22-4.99,0.22-7.48
		c0.01-169.28,0.01-338.56,0.02-507.83c0-2.5,0.11-4.99,0.17-7.49c127.28-0.02,254.55-0.03,381.83-0.05c0,0,0.01-0.05,0.01-0.05
		c-0.01,147.99-0.02,295.99-0.03,443.98C1597.6,1826.75,1597.59,1993.39,1597.58,2160.03z"/>
	<path class="st0" d="M-0.26,1623.13c0-179.47,0.01-358.94-0.09-538.41c0-3.75,0.84-4.6,4.59-4.59
		c163.48,0.11,326.97,0.09,490.45,0.09c0,89.99,0.01,179.98,0.01,269.97c0,1.67-0.01,3.33-0.01,5
		c-0.02,89.31-0.05,178.62-0.07,267.93c-0.31,0.06-0.63,0.1-0.94,0.13c-2.33-0.04-4.66-0.12-6.98-0.12
		c-65.71-0.01-131.42-0.01-197.13,0c-13.97,0-27.95,0.08-41.92,0.12c-0.35,0.02-0.7,0.03-1.05,0.05c-2.16-0.05-4.33-0.15-6.49-0.15
		C159.98,1623.14,79.86,1623.14-0.26,1623.13z"/>
	<path class="st1" d="M986.64,2160.03c-163.65,0-327.3,0-490.95,0c-0.01-86.68-0.03-173.35-0.05-260.03c0-1.99-0.11-3.98-0.17-5.98
		c0.15-0.31,0.17-0.63,0.07-0.96c0.05-1.16,0.14-2.32,0.14-3.48c0.01-86.66,0.01-173.31,0-259.97c0-1.49-0.13-2.99-0.2-4.48
		c0-0.54,0.01-1.08,0.01-1.62c0.17-0.09,0.29-0.22,0.35-0.4c80.59,0.01,161.19,0.02,241.78,0.02c1,0,1.99-0.1,2.99-0.16
		c0.38,0,0.76,0,1.14,0.01c1.99,0.05,3.99,0.15,5.98,0.15c79.6,0.02,159.19,0.03,238.79,0.04c0.04,5.99,0.1,11.99,0.12,17.98
		c0.06,32.63,0.11,65.27,0.16,97.9c-0.05,41.38-0.13,82.77-0.15,124.15c-0.01,15.62,0.1,31.24,0.16,46.86
		c-0.06,1.99-0.16,3.98-0.16,5.98C986.64,1997.37,986.64,2078.7,986.64,2160.03z"/>
	<path class="st2" d="M1919.55,1660.12c0,165.14-0.01,330.28,0.09,495.41c0,3.75-0.84,4.6-4.59,4.59
		c-105.49-0.12-210.98-0.09-316.47-0.09c0-166.54-0.01-333.09-0.01-499.63c0,0,0.09-0.29,0.09-0.29
		c48.69,0.02,97.39,0.04,146.08,0.04c4.65,0,9.3-0.13,13.94-0.2c0.35,0,0.71,0,1.06,0c1.66,0.05,3.32,0.16,4.99,0.16
		C1816.33,1660.13,1867.94,1660.12,1919.55,1660.12z"/>
	<path class="st3" d="M986.8,1739.05c-0.05-32.63-0.1-65.27-0.16-97.9c-0.01-5.99-0.08-11.99-0.12-17.98
		c0.04-2.33,0.11-4.66,0.11-6.99c0.01-86.27,0.01-172.53,0-258.8c0-2.5-0.09-4.99-0.14-7.49c0.05-2,0.14-3.99,0.14-5.99
		c0.01-87.89,0.01-175.79,0-263.68c75.99,0,151.99,0,227.98,0c0.01,2.33,0.04,4.66,0.04,7c-0.01,214.76-0.03,429.51-0.03,644.27
		c0,2.5,0.06,5,0.1,7.5c0,0-0.24,0.08-0.24,0.08C1138.58,1739.06,1062.69,1739.05,986.8,1739.05z"/>
	<path class="st1" d="M986.64,1080.22c0,87.89,0,175.79,0,263.68c0,2-0.09,3.99-0.14,5.99c-79.47,0.01-158.94,0.01-238.42,0.03
		c-2.16,0-4.32,0.16-6.47,0.25c-0.83-0.09-1.65-0.25-2.47-0.25c-81.1,0.01-162.21,0.04-243.31,0.06l-0.19-0.25
		c0.02-89.84,0.03-179.68,0.05-269.52C659.34,1080.22,822.99,1080.22,986.64,1080.22z"/>
	<path class="st4" d="M495.47,1894.03c0.06,1.99,0.17,3.98,0.17,5.98c0.02,86.68,0.03,173.35,0.05,260.03
		c-165.32,0-330.63,0-495.95,0c0-88.98,0-177.97,0-266.95c82.32,0.01,164.65,0.02,246.97,0.03c1.49,0.1,2.98,0.28,4.46,0.28
		c79.68,0.01,159.36,0.01,239.04,0c1.49,0,2.98-0.18,4.47-0.27l-0.23,0.13l0.12,0.23C494.87,1893.66,495.17,1893.84,495.47,1894.03z
		"/>
	<path class="st4" d="M1598.58,1080.22c105.66,0,211.31,0.02,316.97-0.1c3.42,0,4.1,0.67,4.1,4.09
		c-0.12,103.32-0.1,206.63-0.1,309.95c-30.49,0.01-60.97,0-91.46,0.03c-22.82,0.02-45.64,0.1-68.46,0.15
		c-0.35-0.01-0.69-0.02-1.04-0.04c-1.66-0.05-3.33-0.14-4.99-0.14c-51.62,0-103.24,0-154.86,0c-0.06-2.16-0.17-4.32-0.17-6.49
		c-0.01-55.31,0-110.62-0.05-165.92c0-1.88,0.87-4-0.88-5.65c0,0-0.01,0.05-0.01,0.05c-0.02-0.28-0.04-0.57-0.06-0.86l0.02-0.1
		c1.71-1.65,0.86-3.76,0.86-5.63C1598.54,1166.47,1598.55,1123.35,1598.58,1080.22z"/>
	<path class="st3" d="M246.71,1893.11c-82.32-0.01-164.65-0.02-246.97-0.03c0-89.65,0-179.3,0-268.95c82.26,0,164.52,0,246.78,0
		c0.07,2.49,0.19,4.99,0.19,7.48c0.01,84.22,0,168.44,0.03,252.65c0,2.28-0.57,4.68,0.81,6.82
		C247.27,1891.76,246.99,1892.43,246.71,1893.11z"/>
	<path class="st3" d="M986.64,2160.03c0-81.33,0-162.66,0.01-244c0-1.99,0.1-3.98,0.16-5.98c75.87,0.01,151.74,0.02,227.61,0.03
		l0.27,0.06c-0.02,83.3-0.05,166.59-0.07,249.89C1138.63,2160.03,1062.63,2160.03,986.64,2160.03z"/>
	<path class="st2" d="M1215.62,1080.22c127.32,0,254.64,0,381.96,0c0,45,0.01,90,0.01,135c0,0-0.02,0.1-0.02,0.1
		c-126.42-0.01-252.84-0.03-379.26-0.04c-0.83,0-1.66,0.08-2.49,0.12c-0.08-0.99-0.24-1.98-0.24-2.97
		C1215.58,1168.37,1215.6,1124.3,1215.62,1080.22z"/>
	<path class="st1" d="M1759.64,1394.35c22.82-0.05,45.64-0.13,68.46-0.15c30.49-0.03,60.97-0.02,91.46-0.03
		c0,88.65,0,177.3,0,265.95c-51.61,0-103.21,0.01-154.82,0c-1.66,0-3.32-0.1-4.99-0.16c-0.05-0.83-0.16-1.66-0.16-2.49
		C1759.6,1569.77,1759.62,1482.06,1759.64,1394.35z"/>
	<path class="st5" d="M1215.62,1080.22c-0.02,44.07-0.04,88.14-0.05,132.21c0,0.99,0.16,1.98,0.24,2.97
		c-0.07,0.27-0.08,0.54-0.01,0.82c-0.06,2.5-0.17,4.99-0.17,7.49c-0.01,169.28-0.01,338.56-0.02,507.83c0,2.49-0.14,4.99-0.22,7.48
		c-0.23,0.02-0.45,0-0.67-0.05c-0.03-2.5-0.1-5-0.1-7.49c0.01-214.76,0.02-429.51,0.03-644.27c0-2.33-0.03-4.66-0.04-7
		C1214.95,1080.22,1215.28,1080.22,1215.62,1080.22z"/>
	<path class="st6" d="M1598.57,1660.4c0,166.54,0.01,333.09,0.01,499.63c-0.33,0-0.67,0-1,0c0.01-166.64,0.02-333.29,0.02-499.93
		C1597.93,1660.2,1598.25,1660.3,1598.57,1660.4z"/>
	<path class="st6" d="M495.69,1080.22c-0.02,89.84-0.03,179.68-0.05,269.52c-0.31,0.15-0.63,0.3-0.94,0.45
		c0-89.99-0.01-179.98-0.01-269.97C495.02,1080.22,495.36,1080.22,495.69,1080.22z"/>
	<path class="st5" d="M1214.62,2160.03c0.02-83.3,0.05-166.59,0.07-249.89c0.23-0.05,0.45-0.08,0.69-0.06
		c0.08,2.32,0.23,4.65,0.23,6.97c0.01,80.99,0.01,161.99,0.01,242.98C1215.28,2160.03,1214.95,2160.03,1214.62,2160.03z"/>
	<path class="st7" d="M246.52,1624.13c-82.26,0-164.52,0-246.78,0c0-0.33,0-0.67,0-1c80.12,0.01,160.24,0.01,240.37,0.03
		c2.16,0,4.33,0.1,6.49,0.15C246.59,1623.58,246.57,1623.85,246.52,1624.13z"/>
	<path class="st8" d="M1597.59,1215.22c0-45-0.01-90-0.01-135c0.33,0,0.67,0,1,0c-0.03,43.12-0.04,86.24-0.13,129.37
		C1598.45,1211.46,1599.3,1213.57,1597.59,1215.22z"/>
	<path class="st9" d="M1598.57,1660.4c-0.32-0.1-0.64-0.2-0.96-0.3c0.01-147.99,0.02-295.99,0.03-443.98
		c1.75,1.65,0.88,3.77,0.88,5.65c0.06,55.31,0.04,110.62,0.05,165.92c0,2.16,0.11,4.32,0.17,6.49c-0.06,2.16-0.17,4.33-0.17,6.49
		c-0.01,74.98-0.01,149.97,0,224.95c0,11.16,0.08,22.33,0.12,33.49c-0.01,0.33-0.02,0.67-0.03,1
		C1598.66,1660.12,1598.57,1660.4,1598.57,1660.4z"/>
	<path class="st6" d="M1215.8,1216.23c-0.07-0.27-0.06-0.55,0.01-0.82c0.83-0.04,1.66-0.12,2.49-0.12
		c126.42,0.01,252.84,0.02,379.26,0.04c0.02,0.29,0.04,0.57,0.06,0.86C1470.35,1216.2,1343.08,1216.21,1215.8,1216.23z"/>
	<path class="st10" d="M1215.37,1910.08c-0.23-0.01-0.46,0.01-0.69,0.06c0,0-0.27-0.06-0.27-0.06c0.1-1.82,0.28-3.64,0.28-5.47
		c0.02-53.53,0.01-107.06,0-160.59c0-1.66-0.15-3.32-0.22-4.97c0,0,0.24-0.08,0.24-0.08c0.22,0.05,0.45,0.07,0.67,0.05
		c0.05,40.06,0.12,80.12,0.13,120.18C1215.53,1876.17,1215.43,1893.13,1215.37,1910.08z"/>
	<path class="st2" d="M246.71,1893.11c0.28-0.67,0.56-1.35,0.84-2.02c0.06-2.16,0.16-4.32,0.16-6.48
		c0.01-84.66,0.01-169.32,0.01-253.99c0-2.16,0.09-4.32,0.15-6.48c79.49-0.01,158.98-0.01,238.47-0.05c2.46,0,5.02,0.54,7.34-0.84
		c0.32-0.03,0.63-0.07,0.94-0.13c0.29,0.13,0.58,0.27,0.87,0.39c0,0.54-0.01,1.08-0.01,1.62c-1.28,2.34-0.77,4.89-0.77,7.35
		c-0.03,86.88-0.03,173.75-0.03,260.63c-1.49,0.09-2.98,0.27-4.47,0.27c-79.68,0.01-159.36,0.01-239.04,0
		C249.68,1893.38,248.19,1893.2,246.71,1893.11z"/>
	<path class="st9" d="M495.49,1623.52c-0.29-0.13-0.58-0.26-0.87-0.39c0.02-89.31,0.05-178.62,0.07-267.93c0-1.67,0.01-3.33,0.01-5
		c0.31-0.15,0.63-0.3,0.94-0.45c0,0,0.19,0.25,0.18,0.25c-0.05,1.33-0.13,2.66-0.13,3.99c-0.01,88.38-0.01,176.76,0,265.14
		c0,1.33,0.09,2.66,0.14,3.99C495.78,1623.29,495.66,1623.43,495.49,1623.52z"/>
	<path class="st11" d="M247.87,1624.14c-0.05,2.16-0.14,4.32-0.15,6.48c-0.01,84.66-0.01,169.32-0.01,253.99
		c0,2.16-0.1,4.32-0.16,6.48c-1.37-2.14-0.81-4.54-0.81-6.82c-0.03-84.22-0.02-168.44-0.03-252.65c0-2.49-0.12-4.99-0.19-7.48
		c0.05-0.27,0.07-0.55,0.08-0.83c0.35-0.02,0.7-0.03,1.05-0.05C247.66,1623.56,247.74,1623.86,247.87,1624.14z"/>
	<path class="st8" d="M247.87,1624.14c-0.13-0.28-0.2-0.58-0.22-0.89c13.97-0.04,27.95-0.12,41.92-0.12
		c65.71-0.01,131.42-0.01,197.13,0c2.33,0,4.66,0.08,6.98,0.12c-2.32,1.38-4.88,0.84-7.34,0.84
		C406.85,1624.13,327.36,1624.13,247.87,1624.14z"/>
	<path class="st3" d="M495.84,1623.11c-0.05-1.33-0.14-2.66-0.14-3.99c-0.01-88.38-0.01-176.76,0-265.14c0-1.33,0.08-2.66,0.13-3.99
		c81.1-0.02,162.21-0.05,243.31-0.06c0.82,0,1.65,0.16,2.48,0.25c-0.28,0.68-0.57,1.35-0.85,2.03c-0.03,2.66-0.09,5.33-0.09,7.99
		c-0.02,87.59-0.04,175.18-0.06,262.78c-1,0.06-1.99,0.16-2.99,0.16C657.03,1623.13,576.43,1623.12,495.84,1623.11z"/>
	<path class="st4" d="M740.76,1352.21c0.28-0.68,0.57-1.35,0.85-2.03c2.16-0.09,4.31-0.25,6.47-0.25
		c79.47-0.02,158.94-0.03,238.42-0.03c0.05,2.5,0.13,4.99,0.13,7.49c0.01,86.27,0.01,172.53,0,258.8c0,2.33-0.07,4.66-0.11,6.99
		c-79.6-0.01-159.2-0.02-238.79-0.04c-1.99,0-3.99-0.1-5.98-0.15c-0.03-2.49-0.08-4.99-0.08-7.48c0-85.5,0-171.01-0.03-256.51
		C741.64,1356.72,742.27,1354.31,740.76,1352.21z"/>
	<path class="st4" d="M1214.48,1739.06c0.08,1.66,0.22,3.32,0.22,4.97c0.01,53.53,0.01,107.06,0,160.59c0,1.82-0.18,3.64-0.28,5.47
		c-75.87-0.01-151.74-0.02-227.61-0.03c-0.06-15.62-0.17-31.24-0.16-46.86c0.02-41.38,0.1-82.77,0.15-124.15
		C1062.69,1739.05,1138.58,1739.06,1214.48,1739.06z"/>
	<path class="st10" d="M740.76,1352.21c1.51,2.1,0.88,4.51,0.88,6.78c0.03,85.5,0.03,171.01,0.03,256.51c0,2.49,0.05,4.99,0.08,7.48
		c-0.38,0-0.76,0-1.14-0.01c0.02-87.59,0.04-175.18,0.06-262.78C740.67,1357.54,740.73,1354.87,740.76,1352.21z"/>
	<path class="st8" d="M494.68,1893.12c0-86.88,0-173.75,0.03-260.63c0-2.46-0.51-5.01,0.77-7.35c0.07,1.49,0.2,2.99,0.2,4.48
		c0.01,86.66,0.01,173.31,0,259.97c0,1.16-0.09,2.32-0.14,3.49c-0.32,0.14-0.65,0.27-0.97,0.41l-0.12-0.23L494.68,1893.12z"/>
	<path class="st12" d="M494.57,1893.48c0.32-0.14,0.65-0.27,0.97-0.41c0.1,0.33,0.08,0.65-0.07,0.96
		C495.17,1893.84,494.87,1893.66,494.57,1893.48z"/>
	<path class="st13" d="M1759.64,1394.35c-0.02,87.71-0.04,175.41-0.05,263.12c0,0.83,0.1,1.66,0.16,2.49c-0.35,0-0.71,0-1.06,0
		c-0.01-0.3-0.08-0.59-0.21-0.87c0.03-2.16,0.09-4.33,0.1-6.49c0.02-86.09,0.03-172.19,0.04-258.28
		C1758.94,1394.33,1759.29,1394.34,1759.64,1394.35z"/>
	<path class="st11" d="M1758.47,1659.09c0.13,0.27,0.2,0.56,0.21,0.87c-4.65,0.07-9.3,0.2-13.94,0.2
		c-48.69,0-97.39-0.02-146.08-0.04c0.01-0.33,0.02-0.67,0.03-1c12.48,0.04,24.96,0.11,37.45,0.1
		C1676.91,1659.19,1717.69,1659.14,1758.47,1659.09z"/>
	<path class="st3" d="M1758.47,1659.09c-40.78,0.05-81.56,0.1-122.33,0.13c-12.48,0.01-24.96-0.07-37.45-0.1
		c-0.04-11.16-0.11-22.33-0.12-33.49c-0.01-74.98-0.01-149.97,0-224.95c0-2.16,0.11-4.33,0.17-6.49c51.62,0,103.24-0.01,154.86,0
		c1.66,0,3.33,0.09,4.99,0.14c-0.01,86.1-0.02,172.19-0.04,258.28C1758.56,1654.77,1758.5,1656.93,1758.47,1659.09z"/>
</g>
</svg>
