<?xml version="1.0" encoding="utf-8"?>
<!-- Generator: Adobe Illustrator 27.0.1, SVG Export Plug-In . SVG Version: 6.00 Build 0)  -->
<svg version="1.1" id="ile" xmlns="http://www.w3.org/2000/svg" xmlns:xlink="http://www.w3.org/1999/xlink" x="0px" y="0px"
	 viewBox="0 0 1920 1080" style="enable-background:new 0 0 1920 1080;" xml:space="preserve">
<style type="text/css">
	.st0{fill:#C0FDFF;stroke:#3FA9F5;stroke-width:0.5616;stroke-miterlimit:10;}
	.st1{fill:#DEAAFF;}
	.st2{fill:#C8E7FF;}
	.st3{fill:#8D71AA;}
	.st4{fill:#006E02;}
	.st5{fill:#003301;}
</style>
<g>
	<path class="st0" d="M712.4,590.34c2.41-3.45,4.1-7.31,6.07-11c12.96-24.24,25.84-48.51,38.73-72.79c0.95-1.8,2.21-3.09,4.27-3.45
		c0.42,0.52,1.01,0.34,1.54,0.36c8.15,0.2,16.3-0.06,24.46,0.35c8.69,0.44,17.41,0.13,26.12,0.41c9.87,0.32,19.77,0.11,29.64,0.5
		c1.13,0.04,1.73,0.02,1.42,1.6c-0.76,3.91-1.23,7.88-1.8,11.82c-1.01,7.01-1.94,14.03-3.03,21.02c-1.6,10.26-3.3,20.5-4.96,30.75
		c-5.68,0.98-11.36,1.97-17.04,2.95c-10.68,1.84-21.37,3.66-32.05,5.53c-11.42,2-22.83,4.08-34.25,6.08
		c-10.48,1.83-20.96,3.65-31.46,5.37c-2.53,0.41-5.02,1.37-7.67,0.91C712.4,590.61,712.4,590.47,712.4,590.34z"/>
	<path class="st0" d="M712.4,590.75c2.64,0.46,5.13-0.49,7.67-0.91c10.5-1.71,20.98-3.53,31.46-5.37c11.42-2,22.83-4.08,34.25-6.08
		c10.68-1.87,21.37-3.69,32.05-5.53c5.68-0.98,11.36-1.97,17.04-2.95c0,0,0.16,0.04,0.16,0.04c1.58,14.39,3.16,28.79,4.74,43.18
		c-0.54,0.1-1.09,0.17-1.62,0.31c-20.53,5.18-41.07,10.38-61.6,15.56c-9.47,2.39-18.94,4.74-28.42,7.1
		c-1.7,0.42-2.86,1.23-3.67,2.94c-2.84,6-5.87,11.9-8.84,17.84c-2.91-7.11-5.25-14.43-7.84-21.65
		c-5.03-14.03-9.99-28.08-14.98-42.12c-0.09-0.24-0.26-0.46-0.39-0.69C712.4,591.86,712.4,591.31,712.4,590.75z"/>
	<path class="st0" d="M1195,1057c-0.49-0.88-1.37-0.15-1.99-0.48c2.07-3.45,4.13-6.9,6.2-10.35c0.28,0.12,0.56,0.24,0.83,0.36
		c0.39,3.34,1.27,6.61,1.18,10.01c-0.2,0.1-0.56,0.06-0.41,0.47C1198.88,1057,1196.94,1057,1195,1057z"/>
	<path class="st1" d="M769.31,290.75c-2.76-7.07-5.56-14.13-8.26-21.22c-13.52-35.49-27.01-70.99-40.54-106.48
		c-0.47-1.22-0.53-2.2,0.05-3.46c16.01-34.88,31.97-69.78,47.93-104.69c0.47-1.03,0.99-1.8,2.21-2.19
		c26.12-8.25,52.23-16.54,78.34-24.82c0.38-0.12,0.8-0.13,1.21-0.2c-0.68,4.34-1.38,8.68-2.04,13.02
		c-0.99,6.45-1.94,12.9-2.93,19.35c-0.66,4.27-1.4,8.54-2.04,12.81c-1.08,7.13-2.09,14.26-3.17,21.39
		c-0.85,5.63-1.79,11.26-2.64,16.89c-0.8,5.29-1.52,10.6-2.33,15.89c-0.65,4.28-1.46,8.53-1.84,12.84c-0.1,2.78,0.53,5.48,0.85,8.21
		c0.61,5.26,1.31,10.51,1.96,15.77c0.73,5.94,1.47,11.88,2.18,17.83c0.6,5.06,1.04,10.14,1.79,15.17
		c1.13,7.56,1.81,15.16,2.79,22.73c0.65,5.05,1.27,10.1,1.91,15.15c0.61,4.85,1.22,9.69,1.82,14.54c0.66,5.32,1.33,10.65,1.97,15.97
		c0.48,3.96,0.91,7.93,1.36,11.9c0.13,1.15-0.02,1.88-1.53,2.05c-3.34,0.38-6.64,1.06-9.97,1.54c-7.95,1.16-15.91,2.26-23.86,3.42
		c-8.15,1.19-16.3,2.43-24.45,3.66c-6.52,0.98-13.03,1.99-19.55,2.99C770.11,290.79,769.71,290.77,769.31,290.75z"/>
	<path class="st1" d="M833.26,139.88c0.38-4.31,1.19-8.57,1.84-12.84c0.8-5.29,1.52-10.6,2.33-15.89
		c0.85-5.63,1.79-11.26,2.64-16.89c1.08-7.13,2.09-14.26,3.17-21.39c0.65-4.28,1.38-8.54,2.04-12.81c0.99-6.45,1.94-12.9,2.93-19.35
		c0.66-4.34,1.36-8.68,2.04-13.02c0,0,0.06-0.01,0.06-0.01c3.06,0.41,6.11,0.86,9.17,1.23c5.11,0.61,10.22,1.15,15.33,1.75
		c5.45,0.64,10.89,1.32,16.33,2c4.01,0.5,8.02,1.02,12.04,1.51c5.04,0.62,10.08,1.23,15.12,1.81c4.09,0.47,8.19,0.87,12.27,1.37
		c6.19,0.76,12.36,1.69,18.57,2.28c1.33,0.13,2.77,1.09,4.15,0.08c0.27,0.03,0.55,0.06,0.82,0.08c0.33,0.44,0.81,0.32,1.26,0.35
		c2.02,0.03,3.88,0.79,5.8,1.3c0.9,2.89,1.8,5.79,2.71,8.68c6.53,20.71,13.07,41.41,19.6,62.12c3.65,11.57,7.29,23.14,10.93,34.71
		c0,0-0.03-0.02-0.03-0.02c-1.47,0.2-2.87-0.37-4.3-0.38c-6.2-0.05-12.38-0.53-18.57-0.79c-6.33-0.27-12.65-0.56-18.98-0.83
		c-6.26-0.27-12.52-0.56-18.77-0.83c-6.33-0.27-12.65-0.57-18.98-0.83c-6.12-0.26-12.24-0.56-18.36-0.83
		c-6.53-0.29-13.07-0.56-19.6-0.84c-6.05-0.26-12.1-0.52-18.15-0.84C850.2,140.31,841.73,140.16,833.26,139.88z"/>
	<path class="st0" d="M834.86,569.92c1.66-10.25,3.36-20.49,4.96-30.75c1.09-7,2.02-14.01,3.03-21.02c0.57-3.95,1.03-7.91,1.8-11.82
		c0.31-1.57-0.29-1.55-1.42-1.6c-9.88-0.38-19.77-0.17-29.64-0.5c-8.71-0.29-17.43,0.02-26.12-0.41
		c-8.16-0.41-16.31-0.15-24.46-0.35c-0.53-0.01-1.12,0.17-1.54-0.36c7.98-1.68,15.95-3.37,23.93-5.02
		c11.67-2.42,23.34-4.8,35.01-7.2c12.61-2.6,25.22-5.2,37.83-7.8c0.4-0.08,0.79-0.24,1.18-0.36c0.75-0.1,1.5-0.18,2.24-0.3
		c3.05-0.49,6.02-1.79,9.16-1.28c1.91,0.31,3.66,0.09,5.49-0.34c4.16-0.98,8.39-1.64,12.51-2.76c4.6-1.25,9.11-2.09,13.7-0.16
		c1.32,0.59,2.56-0.3,3.85-0.2c5.89,1.32,11.78,2.61,17.66,3.96c17.76,4.08,35.52,8.18,53.27,12.29c9.82,2.27,19.64,4.55,29.45,6.87
		c19.54,4.62,39.07,9.28,58.61,13.92c0.6,0.14,1.18,0.36,1.77,0.54c-0.57,0.4-1.19,0.23-1.81,0.18c-6.17-0.52-12.34-1.06-18.52-1.54
		c-6.04-0.47-12.09-0.86-18.14-1.34c-8.31-0.65-16.61-1.33-24.91-2.02c-4.39-0.36-8.78-0.79-13.17-1.14
		c-3.88-0.31-7.77-0.55-11.7-0.83c0.13,0.82,0.76,1.07,1.23,1.43c3.21,2.39,6.45,4.75,9.66,7.15c7.63,5.69,15.25,11.39,22.88,17.09
		c-4.21,0.07-8.41,0-12.62,0.35c-5.22,0.43-10.48-0.06-15.73,0.4c-5.35,0.48-10.76-0.05-16.15,0.42
		c-5.29,0.47-10.62,0.11-15.94,0.39c-9.31,0.48-18.65,0.39-27.98,0.53c-0.42,0.01-0.83,0.02-1.25,0c-1.26-0.07-1.73,0.55-1.7,1.76
		c0.04,2.07-0.23,4.13-0.34,6.19c-0.42,7.99-0.63,16-0.92,24c-3.65,0.12-7.29,0.17-10.94,0.35c-8.2,0.4-16.41,0.05-24.62,0.39
		c-9.44,0.39-18.9,0.08-28.35,0.49c-7.03,0.3-14.07-0.35-21.09,0.46L834.86,569.92z"/>
	<path class="st0" d="M1097.38,640.27c2.05,0.98,1.96,2.6,1.27,4.36c-3.41,8.69-6.84,17.38-10.25,26.07
		c-0.9,2.3-1.78,4.61-2.66,6.91c-1.91,3.64-3.51,7.41-4.46,11.42c-1.53,1.33-2.02,3.39-3.36,4.86c-3.11-0.1-6.21,0.18-9.3,0.24
		c-11.6,0.23-23.21,0.4-34.8,0.89c-5.59,0.24-11.18-0.04-16.78,0.37c-5.85,0.43-11.73-0.01-17.61,0.42
		c-5.57,0.41-11.18,0-16.78,0.41c-5.85,0.43-11.73-0.01-17.61,0.42c-5.64,0.42-11.32-0.01-16.99,0.41
		c-5.78,0.43-11.6,0.21-17.4,0.37c-8.15,0.22-16.3,0.53-24.46,0.56c-1.59,0.01-3.18,0.04-4.77,0.07c-4.68-1.42-8.91-3.88-13.41-5.73
		c-1.04-0.43-0.82-1.37-0.73-2.14c0.5-4.01,0.74-8.04,0.84-12.08c-0.22-1.46,0.38-2.83,0.47-4.26c0.08-1.45,0.72-2.27,2.27-2.71
		c28.83-8.22,57.64-16.51,86.46-24.78c1.77-0.4,3.33-1.16,4.73-2.35c2.2-1.87,4.4-3.76,6.74-5.44c3.13-2.24,5.38-5.05,6.39-8.79
		c2.47-5.84,4.94-11.68,7.41-17.52c9.78,2.9,19.58,5.76,29.35,8.71c20.01,6.03,39.99,12.14,60.01,18.12
		C1093.69,639.6,1095.36,640.83,1097.38,640.27z"/>
	<path class="st1" d="M1057.07,176.03c0.39,0.82-0.15,1.48-0.43,2.14c-16.48,39.65-32.98,79.29-49.44,118.95
		c-0.49,1.19-1.25,1.83-2.4,2.31c-32.59,13.57-65.18,27.16-97.76,40.75c-0.25,0.1-0.47,0.27-0.71,0.4c-2.1,0.49-2.23-1.71-3.39-2.49
		c-0.14-2.38-1.82-1.73-3.22-1.63c4.66-4.19,9.31-8.4,13.98-12.58c3.75-3.35,7.52-6.69,11.29-10.02
		c5.58-4.92,11.17-9.83,16.76-14.74c3.11-2.73,6.29-5.36,9.3-8.19c3.06-2.88,6.5-5.34,9.28-8.52c1.52-2.46,1.65-5.34,2.32-8.04
		c10.59-42.48,21.15-84.96,31.71-127.44c0,0,0.03,0.02,0.03,0.02c4.69,2.14,9.39,4.22,14.05,6.42c13.07,6.16,26.09,12.41,39.19,18.5
		C1050.76,173.32,1053.72,175.13,1057.07,176.03z"/>
	<path class="st0" d="M735.61,656.88c2.96-5.94,5.99-11.84,8.84-17.84c0.81-1.71,1.98-2.52,3.67-2.94
		c9.48-2.35,18.95-4.71,28.42-7.1c20.54-5.18,41.07-10.38,61.6-15.56c0.53-0.13,1.08-0.21,1.62-0.31c0.18,1.57,0.38,3.14,0.55,4.72
		c0.59,5.4,1.16,10.81,1.78,16.21c0.78,6.9,1.6,13.8,2.41,20.7c-9.02,7.29-18.02,14.61-27.07,21.85
		c-15.52,12.43-31.1,24.78-46.6,37.23c-3.92,3.15-8.09,6.01-11.7,9.54c-1.59-2.19-2.04-4.85-2.91-7.32
		c-6.88-19.44-13.67-38.91-20.48-58.37C735.64,657.44,735.65,657.15,735.61,656.88z"/>
	<path class="st0" d="M901.4,698.04c1.59-0.02,3.18-0.06,4.77-0.07c8.16-0.03,16.31-0.34,24.46-0.56c5.8-0.16,11.62,0.06,17.4-0.37
		c5.67-0.42,11.34,0.01,16.99-0.41c5.88-0.44,11.76,0.01,17.61-0.42c5.6-0.41,11.21,0.01,16.78-0.41c5.87-0.44,11.76,0,17.61-0.42
		c5.6-0.41,11.19-0.13,16.78-0.37c11.6-0.49,23.2-0.66,34.8-0.89c3.1-0.06,6.2-0.34,9.3-0.24c-1.23,1.38-2.96,1.99-4.49,2.89
		c-11.63,6.86-23.08,14.01-34.91,20.54c-2.99,1.65-6.22,2.96-8.8,5.3c-1.97,0.33-3.43,1.66-5.05,2.64
		c-2.91,1.78-6.11,3.09-8.65,5.46c-15.21,8.55-30.4,17.13-45.63,25.64c-4.66,2.61-9.19,5.47-14.04,7.73
		c-0.29-0.17-0.62-0.3-0.86-0.53c-8.27-7.7-16.48-15.48-24.83-23.09c-3.1-2.82-5.88-6.01-9.34-8.44l0.02,0.03
		c-0.15-0.14-0.29-0.28-0.44-0.42c-1.98-2.61-4.64-4.5-7.06-6.65c-2.92-3.62-6.7-6.34-9.92-9.66c-1.21-1.25-1.22-1.87-0.03-3.1
		c2.45-2.52,4.71-5.23,6.22-8.46c0.35-0.75,1.06-1.69-0.42-2.14c-0.43-0.48-1.05-0.57-1.59-0.84
		C905.93,699.7,903.38,699.57,901.4,698.04z"/>
	<path class="st2" d="M899.73,336.46c1.4-0.1,3.08-0.75,3.22,1.63c-0.62,0.8-0.32,1.74-0.33,2.61
		c-0.02,44.76-0.01,89.51-0.02,134.27c0,0.97-0.06,1.93-0.09,2.9c-4.59-1.93-9.1-1.09-13.7,0.16c-4.12,1.12-8.35,1.78-12.51,2.76
		c-1.83,0.43-3.58,0.66-5.49,0.34c-3.14-0.52-6.11,0.79-9.16,1.28c-0.74,0.12-1.5,0.2-2.24,0.3c0.01-10.66,0.03-21.32,0.03-31.98
		c0-37.11-0.01-74.21-0.02-111.32c1.51-0.04,3.02-0.07,4.53-0.1c1.99,0.76,3.71,0.29,5.27-1.1c2.46-2.18,5.22-3.15,8.44-1.81
		c7.21,0.14,14.4,0.71,21.62,0.42c0.14-0.12,0.29-0.25,0.43-0.37L899.73,336.46z"/>
	<path class="st3" d="M1057.07,176.03c-3.35-0.9-6.31-2.72-9.42-4.16c-13.1-6.1-26.12-12.35-39.19-18.5
		c-4.66-2.19-9.37-4.28-14.05-6.42c-3.64-11.57-7.28-23.14-10.93-34.71c-6.53-20.71-13.07-41.41-19.6-62.12
		c-0.91-2.89-1.81-5.79-2.71-8.68c5.72,2.1,11.17,4.83,16.76,7.25c9,3.9,17.94,7.92,26.93,11.85c1.06,0.46,1.81,1.07,2.3,2.17
		c16.61,37.64,33.25,75.27,49.88,112.91C1057.08,175.75,1057.06,175.9,1057.07,176.03z"/>
	<path class="st0" d="M1012.65,534.23c-7.63-5.7-15.25-11.4-22.88-17.09c-3.21-2.39-6.45-4.75-9.66-7.15
		c-0.47-0.35-1.1-0.6-1.23-1.43c3.94,0.28,7.82,0.52,11.7,0.83c4.39,0.35,8.78,0.78,13.17,1.14c8.3,0.69,16.61,1.37,24.91,2.02
		c6.04,0.47,12.09,0.86,18.14,1.34c6.18,0.48,12.35,1.03,18.52,1.54c0.61,0.05,1.24,0.22,1.81-0.18c4.37,1.03,4.39,1.03,4.09,5.14
		c-0.82,11.35-1.67,22.69-2.48,34.04c-0.6,8.53-1.15,17.06-1.72,25.59c-0.04,0.55,0.01,1.11-0.34,1.59c-0.28,0-0.56,0.04-0.83-0.02
		c-11.01-2.3-22.02-4.6-33.02-6.91c-8.12-1.71-16.26-3.34-24.35-5.18c-2.91-0.66-5.96-0.8-8.71-2.11c-0.02-0.63,0.1-1.21,0.35-1.8
		c3.52-8.43,7.08-16.84,10.49-25.31C1011.42,538.33,1012.78,536.52,1012.65,534.23z"/>
	<path class="st0" d="M759.12,723.38c3.62-3.53,7.78-6.39,11.7-9.54c15.5-12.45,31.08-24.8,46.6-37.23
		c9.05-7.25,18.05-14.57,27.07-21.85c6.39-0.41,12.77-0.91,19.16-1.22c6.26-0.3,12.5-0.76,18.75-1.25
		c8.3-0.65,16.61-1.21,24.93-1.67c7.63-0.43,15.24-1.15,22.86-1.59c8.93-0.53,17.87-1.07,26.79-1.75
		c5.56-0.42,11.11-0.85,16.67-1.19c1.2-0.07,2.47-0.41,3.64,0.25c-28.82,8.27-57.63,16.56-86.46,24.78
		c-1.54,0.44-2.18,1.26-2.27,2.71c-0.08,1.43-0.68,2.8-0.47,4.26c-4.49,0-8.98-0.04-13.46,0.02c-2.61,0.04-5.23-0.3-7.83,0.21
		c-0.48,0-0.96-0.05-1.43,0.01c-6.57,0.74-13.15,1.4-19.7,2.28c-6.13,0.82-12.06,2.58-17.96,4.42c-4.75,3.27-9.42,6.69-14.29,9.77
		c-2.63,1.66-4.09,3.68-4,6.78c-1.02,4.19-2.12,8.35-3,12.57c-0.3,1.46-0.98,2.32-2.24,2.87c-5.58,0.76-11.16,1.49-16.73,2.3
		c-8.02,1.16-16.03,2.39-24.05,3.57C761.99,723.08,760.55,723.22,759.12,723.38z"/>
	<path class="st0" d="M999.78,567.4c2.75,1.31,5.8,1.45,8.71,2.11c8.09,1.84,16.23,3.47,24.35,5.18
		c11.01,2.31,22.01,4.61,33.02,6.91c0.27,0.06,0.55,0.02,0.83,0.02c-1.23,5.64-3.22,11.06-4.79,16.61
		c-1.57,5.55-3.26,11.06-4.89,16.59c-0.44-0.18-0.92-0.29-1.33-0.53c-9.08-5.4-18.18-10.78-27.22-16.25
		c-1.46-0.88-2.6-1.21-4.04-0.01c-1.1,0.92-2.44,1.55-3.65,2.36c-6.03,4.01-12.32,7.64-18.21,11.86
		c-2.47,5.84-4.94,11.68-7.41,17.52c-0.74-1.96-0.09-3.9,0.02-5.87c0.55-9.55,1.34-19.09,2.1-28.62c0.53-6.66,0.71-13.35,1.37-19.99
		c0.26-2.6-0.05-5.25,0.71-7.8C999.5,567.45,999.64,567.43,999.78,567.4z"/>
	<path class="st0" d="M1159.27,892.86c0.7,1.35-0.01,2.7-0.01,4.05c-0.01,7.89,0.07,15.78-0.2,23.66
		c-0.31,9.12-0.05,18.25-0.37,27.37c-0.07,2.07-0.19,4.13-0.22,6.2c-0.01,0.7-0.21,1.28-0.84,1.51c-0.65,0.23-0.94-0.39-1.26-0.82
		c-0.19-0.28-0.34-0.62-0.59-0.83c-7.26-6.32-14.48-12.68-21.83-18.89c-2.19-1.85-4.07-4.12-6.72-5.39
		c0.41-4.44-0.57-8.78-0.92-13.16c-0.63-7.89-1.53-15.76-2.34-23.63c-0.39-3.76-0.82-7.52-1.24-11.28l0.11,0.04
		c3.02,0.9,6.06,1.76,9.07,2.69C1141.03,887.19,1150.15,890.03,1159.27,892.86z"/>
	<path class="st0" d="M913.83,724.98c2.42,2.15,5.08,4.04,7.06,6.65c0.15,0.14,0.29,0.28,0.44,0.42c0,0-0.02-0.03-0.02-0.03
		c0.31,3.2,1.73,6.08,2.7,9.09c3.77,11.68,7.89,23.25,11.4,35.02c-8.33-0.43-16.62-1.3-24.92-2.05c-7.21-0.65-14.42-1.17-21.63-1.74
		c-5.22-0.41-10.47-0.61-15.65-1.31c-2.98-0.4-4.92-2.83-6.76-5.09c3.18-2.1,6.64-3.68,10.12-5.16c8.79-3.75,16.37-9.39,23.98-15
		c0.35-0.04,0.63-0.17,0.84-0.5c1.74-2.79,3.38-5.65,5.26-8.34C909.32,733.11,911.04,728.72,913.83,724.98z"/>
	<path class="st0" d="M1122.73,881.64c0.41,3.76,0.85,7.52,1.24,11.28c0.81,7.87,1.71,15.74,2.34,23.63
		c0.35,4.38,1.33,8.73,0.92,13.16l0.05,0.07c-2.73,0.47-5.27,1.61-7.92,2.37c-5.23,1.51-10.3,3.56-15.61,4.79
		c-1.39-2.98-1.76-6.25-2.54-9.4c-2.69-10.86-5.2-21.76-7.8-32.64c-0.13-0.56-0.19-1.07-0.08-1.62c1.48-0.55,2.98-1.07,4.45-1.66
		C1106.09,888.31,1114.41,884.97,1122.73,881.64z"/>
	<path class="st0" d="M1081.29,833.76c0.32,2.12-0.88,3.9-1.44,5.79c-1.58,5.38-3.46,10.67-5.09,16.03
		c-0.58,1.91-1.61,3.43-2.82,4.95c-5.64,7.06-11.25,14.13-16.81,21.25c-0.95,1.22-1.42,1.49-2.43,0.01
		c-2.78-4.08-6.15-7.74-8.48-12.14c-0.01-0.4-0.05-0.78-0.59-0.78c0,0,0,0.03,0,0.03c0.32-0.84-0.29-1.38-0.62-2.03
		c-0.87-1.72-2.41-3.13-2.52-5.22c0.09-0.26,0.13-0.54,0.26-0.77c6.69-12.06,13.69-23.92,22.65-34.49c0.11-0.02,0.21-0.05,0.32-0.07
		C1069.46,829.07,1075.32,831.55,1081.29,833.76z"/>
	<path class="st0" d="M1002.57,612.25c5.89-4.23,12.18-7.85,18.21-11.86c1.21-0.8,2.55-1.43,3.65-2.36c1.44-1.2,2.58-0.87,4.04,0.01
		c9.04,5.47,18.14,10.85,27.22,16.25c0.41,0.24,0.88,0.36,1.33,0.53c6.8,4.31,13.59,8.64,20.4,12.94
		c6.64,4.19,13.31,8.35,19.97,12.52c-2.02,0.55-3.69-0.68-5.46-1.2c-20.02-5.98-40.01-12.08-60.01-18.12
		C1022.14,618.01,1012.35,615.15,1002.57,612.25z"/>
	<path class="st0" d="M804.19,717.01c1.27-0.55,1.94-1.41,2.24-2.87c0.88-4.21,1.98-8.38,3-12.57c0.04,0.9,0.12,1.79,0.12,2.69
		c0.01,7.12,0.05,14.25-0.03,21.37c-0.02,1.61,0.43,1.81,1.87,1.38c9.49-2.85,18.98-5.7,28.5-8.41c4.29-1.22,8.49-2.81,12.91-3.57
		c-0.18,0.44-0.3,0.92-0.54,1.33c-4.28,7.48-8.51,14.99-12.88,22.42c-2.34,3.97-4.34,8.15-7.05,11.9
		c-3.41,3.11-6.85,6.19-10.21,9.36c-0.96,0.91-2.31,1.57-2.59,3.07c-1.12-0.91-1.01-2.31-1.36-3.51
		c-2.91-10.04-5.78-20.1-8.67-30.14c-0.62-2.16-1.38-4.28-1.97-6.45C806.91,720.71,806.03,718.6,804.19,717.01z"/>
	<path class="st0" d="M1063.4,826.41c-8.96,10.57-15.96,22.43-22.65,34.49c-0.13,0.23-0.18,0.51-0.26,0.77
		c-0.97,0.3-1.42-0.58-2.1-0.94c-1.13-0.59-1.82-1.95-3.31-1.92c0,0,0.01,0.01,0.01,0.01c0-0.99-0.76-1.1-1.46-1.28
		c-2.22-1.26-3.92-3.18-5.93-4.71c-0.5-0.38-0.56-0.88-0.34-1.48c4.69-12.94,9.48-25.83,17.82-37.02c0.8,0.07,1.39,0.55,2.02,0.99
		C1052.58,819.02,1057.99,822.71,1063.4,826.41z"/>
	<path class="st0" d="M1029.71,722.61c2.59-2.34,5.81-3.65,8.8-5.3c11.83-6.52,23.28-13.68,34.91-20.54
		c1.53-0.9,3.26-1.51,4.49-2.89c1.34-1.47,1.83-3.52,3.36-4.86c5.08-0.61,10.17-1.22,15.25-1.83c-0.2,0.88-0.97,1.31-1.54,1.88
		c-12.99,12.88-26,25.74-38.98,38.63c-1.23,1.22-2.71,1.76-4.3,2.19c-0.06-0.47-0.35-0.64-0.81-0.77
		c-6.4-1.78-12.79-3.58-19.18-5.41C1030.99,723.51,1030.01,723.64,1029.71,722.61z"/>
	<path class="st0" d="M1122.73,881.64c-8.32,3.33-16.63,6.66-24.95,9.98c-1.47,0.59-2.97,1.11-4.45,1.66
		c-0.35-0.54-0.5-1.12-0.5-1.76c0.05-5.09-0.76-10.14-0.89-15.23c-0.12-4.58-0.73-9.15-1.16-13.71c-0.16-1.71-0.1-3.09,1.77-4.12
		c3.84-2.13,7.12-5.16,11.06-7.18c0.15,0.01,0.29,0.01,0.44,0.02l0,0c1.45,3.2,2.66,6.48,3.8,9.8c0.8,2.32,1.46,4.72,2.8,6.83
		c2.03,0.95,4.13,1.79,6.08,2.89c2.06,1.16,4,1.49,6.01,0.05c0.04,3.6,0.07,7.2,0.11,10.81L1122.73,881.64z"/>
	<path class="st0" d="M1122.83,881.68c-0.04-3.6-0.07-7.2-0.11-10.81c0.38-0.28,0.75-0.59,1.16-0.82c5.35-3.02,10.91-5.6,16.81-7.36
		c2.04-0.61,3.47-1.72,4.56-3.56c0.94-1.57,1.8-3.26,3.23-4.5c2.49,8.66,5.02,17.32,7.46,26c1.14,4.07,2.55,8.07,3.32,12.24
		c-9.12-2.83-18.24-5.68-27.37-8.49C1128.89,883.44,1125.86,882.57,1122.83,881.68z"/>
	<path class="st1" d="M863.96,339.31c-1.51,0.03-3.02,0.07-4.53,0.1c-9.44-3.67-18.9-7.32-28.33-11.02
		c-16.51-6.47-33.01-12.98-49.53-19.44c-1.28-0.5-2.17-1.23-2.89-2.44c-2.73-4.62-5.58-9.17-8.37-13.76c-0.39-0.63-0.95-1.2-1-2
		c0.4,0.02,0.8,0.04,1.2,0.06c0.48,1.11,1.54,1.5,2.51,1.99c14.09,7.19,28.17,14.4,42.27,21.57c11.33,5.76,22.7,11.46,34.02,17.24
		C854.23,334.11,859.08,336.74,863.96,339.31z"/>
	<path class="st0" d="M1107.46,833.5c0.13-2.7,1.76-4.14,4.05-5.28c2.86-1.42,5.58-3.12,8.36-4.69c5.07,6.09,10.18,12.15,15.18,18.3
		c1.5,1.84,3.45,3.37,4.3,5.72c-3.83,1.41-7.66,2.82-11.49,4.23c-2.76,0.4-5.54,0.69-8.27,1.21c-3.52,0.68-7.11,0.99-10.56,2.05
		c-0.13,0.01-0.27,0-0.4-0.03c-0.15-0.13-0.29-0.26-0.44-0.38c-0.03-0.12-0.05-0.23-0.06-0.35c-0.43-6.74-0.3-13.5-0.38-20.25
		C1107.74,833.86,1107.56,833.68,1107.46,833.5z"/>
	<path class="st0" d="M819.54,763.11c0.29-1.51,1.63-2.16,2.59-3.07c3.35-3.17,6.8-6.25,10.21-9.36c1.02,0.18,2.04,0.08,3.07,0.27
		c4.5,0.83,9.03,1.52,13.55,2.29c5.59,0.96,11.18,1.97,16.76,2.96c-0.15,0.3-0.23,0.68-0.46,0.89
		c-6.17,5.43-12.35,10.85-18.55,16.25c-0.34,0.29-0.54,0.6-0.54,1.05c-8.68-3.69-17.37-7.39-26.05-11.08
		C819.93,763.23,819.74,763.17,819.54,763.11z"/>
	<path class="st0" d="M935.41,776.13c-3.51-11.77-7.64-23.33-11.4-35.02c-0.97-3.01-2.39-5.88-2.7-9.09
		c3.45,2.44,6.23,5.62,9.34,8.44c8.36,7.61,16.56,15.39,24.83,23.09c0.24,0.22,0.57,0.35,0.86,0.53
		C949.46,768.27,942.62,772.51,935.41,776.13z"/>
	<path class="st2" d="M902.52,477.87c0.03-0.97,0.09-1.93,0.09-2.9c0-44.76,0-89.51,0.02-134.27c0-0.87-0.29-1.8,0.33-2.61
		c1.16,0.79,1.29,2.98,3.39,2.49c0.01,45,0.01,90.01,0.02,135.01c0,0.69,0.01,1.38,0.01,2.08
		C905.08,477.57,903.84,478.46,902.52,477.87z"/>
	<path class="st3" d="M953.3,39.71c-1.38,1.01-2.82,0.05-4.15-0.08c-6.21-0.59-12.38-1.52-18.57-2.28c-4.09-0.5-8.18-0.9-12.27-1.37
		c-5.04-0.59-10.08-1.2-15.12-1.81c-4.01-0.49-8.03-1.01-12.04-1.51c-5.44-0.67-10.88-1.35-16.33-2c-5.11-0.6-10.23-1.14-15.33-1.75
		c-3.06-0.37-6.11-0.82-9.17-1.23c3.59-0.55,7.17-1.13,10.76-1.64c6.66-0.95,13.36-1.72,19.99-2.84c3.18-0.54,6.1,0.12,9.07,0.84
		c18.69,4.54,37.37,9.09,56.04,13.67C948.57,38.29,950.93,39.04,953.3,39.71z"/>
	<path class="st0" d="M1127.85,851.78c3.83-1.41,7.66-2.82,11.49-4.23c3.16-0.55,6.31-1.16,9.49-1.61c1.7-0.24,3.35-1.13,5.13-0.46
		c-1.83,3.05-3.66,6.1-5.48,9.16c-1.43,1.24-2.29,2.92-3.23,4.5c-1.09,1.84-2.53,2.95-4.56,3.56c-5.9,1.76-11.46,4.34-16.81,7.36
		c-0.41,0.23-0.77,0.55-1.16,0.82c-2.02,1.44-3.95,1.11-6.01-0.05c-1.95-1.1-4.05-1.93-6.08-2.89c1.93-1.91,4.68-2.46,6.79-4.08
		C1121.28,860.16,1124.49,855.9,1127.85,851.78z"/>
	<path class="st0" d="M1153.97,845.47c-1.78-0.67-3.44,0.22-5.13,0.46c-3.17,0.45-6.33,1.07-9.49,1.61c-0.84-2.34-2.8-3.87-4.3-5.72
		c-5-6.14-10.11-12.21-15.18-18.3c4.76,0.47,9.54,1.41,14.29,1.29c5.23-0.14,6.83,3.89,9.38,6.85c3.59,4.17,6.94,8.55,10.4,12.83
		C1154.2,844.83,1154.52,845.13,1153.97,845.47z"/>
	<path class="st0" d="M846.18,774.39c0-0.44,0.21-0.76,0.54-1.05c6.19-5.41,12.38-10.82,18.55-16.25c0.23-0.21,0.31-0.59,0.46-0.89
		c9.29-2.86,18.56-5.77,27.87-8.56c2.3-0.69,4.51-1.74,6.96-1.87c-7.61,5.61-15.18,11.26-23.98,15c-3.48,1.48-6.94,3.06-10.12,5.16
		c-6.02,2.44-11.74,5.53-17.65,8.2C847.96,774.52,847.14,775.22,846.18,774.39z"/>
	<path class="st0" d="M1029.71,722.61c0.3,1.03,1.28,0.9,2.01,1.11c6.39,1.83,12.78,3.63,19.18,5.41c0.46,0.13,0.74,0.3,0.81,0.77
		c-5.75,2.04-11.49,4.09-17.24,6.14c-0.83,0.3-1.58,0.13-2.41-0.14c-5.34-1.76-10.69-3.46-16.05-5.18c2.53-2.37,5.74-3.68,8.65-5.46
		C1026.28,724.27,1027.74,722.94,1029.71,722.61z"/>
	<path class="st0" d="M1127.23,929.72c2.65,1.28,4.53,3.54,6.72,5.39c7.35,6.21,14.57,12.57,21.83,18.89
		c0.25,0.22,0.39,0.55,0.59,0.83c-1.52-0.45-3.04-0.9-4.56-1.35c-3.52-1.64-7.11-3.06-10.82-4.21c-0.76-0.7-1.78-0.79-2.68-1.17
		c-3.71-1.6-7.34-3.39-11.33-4.21c-0.65-0.34-1.3-0.68-1.95-1.02c0.17-0.2,0.47-0.38,0.51-0.61c0.6-4.15,1.17-8.31,1.74-12.47
		L1127.23,929.72z"/>
	<path class="st0" d="M1199.21,1046.16c-2.07,3.45-4.13,6.9-6.2,10.35c-3.43-2.59-6.23-5.74-8.46-9.41
		c-0.25-0.41-0.25-0.73,0.05-1.11c2.88-3.58,5.76-7.17,8.65-10.74c0.11-0.14,0.36-0.17,0.54-0.25
		C1195.8,1038.62,1197.91,1042.2,1199.21,1046.16z"/>
	<path class="st0" d="M1168.27,996.8c-3.22-2.48-6.17-5.21-8.19-8.81c-0.3-0.53-0.42-0.97-0.02-1.5c2.88-3.81,5.54-7.81,8.83-11.3
		c0.34,0.68,0.69,1.35,1.01,2.04c1.47,3.19,3.47,6.13,4.48,9.53C1172.37,990.13,1170.6,993.63,1168.27,996.8z"/>
	<path class="st0" d="M1127.28,929.79c-0.58,4.16-1.14,8.31-1.74,12.47c-0.03,0.22-0.33,0.41-0.51,0.61
		c-6.78-1.73-13.56-3.46-20.33-5.2c-0.4-0.1-0.78-0.28-0.95-0.71c5.32-1.23,10.38-3.28,15.61-4.79
		C1122.01,931.4,1124.54,930.26,1127.28,929.79z"/>
	<path class="st0" d="M1199.21,1046.16c-1.3-3.97-3.41-7.54-5.42-11.15c1.25,0.3,2.49,0.72,3.76,0.89c4.35,0.58,7.61,3.21,10.95,5.7
		c0.29,0.21,0.51,0.41,0.62,0.76c1.1,3.64,2.2,7.28,3.31,10.92c-0.71-0.06-1.25-0.51-1.85-0.83c-3.54-1.93-6.86-4.24-10.53-5.92
		C1199.77,1046.4,1199.49,1046.28,1199.21,1046.16z"/>
	<path class="st0" d="M1174.38,986.76c-1.01-3.41-3.01-6.35-4.48-9.53c-0.32-0.69-0.67-1.36-1.01-2.04
		c5.38,0.97,10.07,3.48,14.51,6.54c0.76,0.53,0.99,1.26,1.22,2.06c0.92,3.22,1.86,6.44,2.79,9.66c-1.18-0.56-2.39-1.07-3.54-1.68
		c-3.1-1.65-6.02-3.61-9.28-4.96C1174.52,986.79,1174.45,986.78,1174.38,986.76z"/>
	<path class="st0" d="M1063.4,826.41c-5.41-3.7-10.82-7.39-16.22-11.09c-0.63-0.43-1.22-0.92-2.02-0.99c1.3-0.87,2.62-0.05,3.86,0.1
		c7.7,0.99,15.38,2.16,23.07,3.27c-0.19,1.05-1.04,1.6-1.77,2.18c-2.42,1.93-4.52,4.17-6.6,6.44
		C1063.61,826.36,1063.5,826.38,1063.4,826.41z"/>
	<path class="st0" d="M1087.53,804.86c0.19-3.66,2.98-4.74,5.78-5.8c3.14,3.49,6.78,6.51,9.55,10.35c-2.09,0.81-4.18,1.62-6.28,2.43
		c-2.57,0.16-5.07,0.73-7.57,1.32c-1.15,0.02-1.22-0.71-1.26-1.62C1087.66,809.31,1088.08,807.07,1087.53,804.86z"/>
	<path class="st0" d="M1096.58,811.83c2.09-0.81,4.18-1.62,6.28-2.43c2.33-0.3,4.65-0.6,6.98-0.9c-1.13,2.73-2.91,5.09-4.29,7.69
		c-0.3,0.57-0.87,0.66-1.37,0.79c-2.53,0.67-4.87,1.79-7.09,3.12c-1.91,1.15-3.72,1.45-5.67,0.18c-0.61-0.39-1.45-0.36-1.96-0.98
		c0.86-0.64,1.73-1.28,2.59-1.92C1094.11,815.98,1095.14,813.74,1096.58,811.83z"/>
	<path class="st0" d="M1063.71,826.33c2.07-2.28,4.18-4.52,6.6-6.44c0.73-0.58,1.58-1.14,1.77-2.18c0.93,0.37,1.52,1.11,2.09,1.88
		c0.14,0.18,0.28,0.37,0.42,0.55c0,0-0.01-0.04-0.01-0.04c1.24,4.43,3.87,8.18,6.04,12.59c0.11-0.9,0.17-1.36,0.22-1.82
		c0.59,0.89,0.28,1.93,0.45,2.89C1075.32,831.55,1069.46,829.07,1063.71,826.33z"/>
	<path class="st0" d="M1096.53,687.2c-5.08,0.61-10.17,1.22-15.25,1.83c0.95-4.02,2.54-7.78,4.46-11.42
		c0.52,1.94,2.47,2.46,3.72,3.66C1091.68,683.4,1094.45,684.89,1096.53,687.2z"/>
	<path class="st0" d="M1109.84,808.5c-2.33,0.3-4.65,0.6-6.98,0.9c-2.77-3.84-6.41-6.86-9.55-10.35c2.81-0.08,5.62-0.37,8.4,0.31
		c0.39,0.09,0.82-0.02,1.12,0.37C1105.12,802.69,1107.91,805.25,1109.84,808.5z"/>
	<path class="st0" d="M1126.97,943.88c3.99,0.82,7.62,2.62,11.33,4.21c-1.43,2.72-2.87,5.45-4.71,7.93
		c-2.73-2.13-4.99-4.74-7.39-7.2c-0.74-0.75-0.69-1.57-0.25-2.47C1126.34,945.55,1126.91,944.82,1126.97,943.88z"/>
	<path class="st0" d="M1174.59,986.81c3.26,1.35,6.19,3.31,9.28,4.96c1.15,0.61,2.36,1.12,3.54,1.68c-2.3,1.89-5.15,2.48-7.91,3.2
		c-1.01,0.26-2.08,0.77-3.2,0.44C1176.07,993.61,1175.17,990.24,1174.59,986.81z"/>
	<path class="st0" d="M1200.04,1046.53c3.67,1.68,6.99,4,10.53,5.92c0.6,0.33,1.14,0.77,1.85,0.83c-0.05,0.19-0.07,0.52-0.17,0.55
		c-3.67,0.94-7.25,2.25-11.03,2.7C1201.31,1053.14,1200.44,1049.86,1200.04,1046.53z"/>
	<path class="st0" d="M1107.46,833.5c0.1,0.18,0.28,0.35,0.28,0.53c0.08,6.75-0.05,13.5,0.38,20.25c-0.79-0.14-1.18-0.84-1.74-1.29
		c-0.75-0.6-1.12-1.74-2.34-1.68c0,0,0,0,0,0c-0.01-0.17-0.01-0.35-0.02-0.52c-0.82-1.52-0.92-3.01-0.36-4.72
		C1105.03,841.91,1106.21,837.69,1107.46,833.5z"/>
	<path class="st0" d="M1174.59,986.81c0.58,3.43,1.48,6.8,1.71,10.29c-2.68-0.09-5.38,0.49-8.03-0.3c2.33-3.16,4.1-6.67,6.11-10.03
		C1174.45,986.78,1174.52,986.79,1174.59,986.81z"/>
	<path class="st0" d="M1140.98,949.27c3.71,1.15,7.3,2.57,10.82,4.21c-3.45,1.01-6.67,2.85-10.39,2.89
		C1141.27,954,1141.12,951.63,1140.98,949.27z"/>
	<path class="st0" d="M1140.98,949.27c0.14,2.37,0.29,4.73,0.43,7.1c-2.61-0.12-5.25,0.54-7.83-0.34c1.84-2.48,3.28-5.2,4.71-7.93
		C1139.2,948.48,1140.22,948.57,1140.98,949.27z"/>
	<path class="st0" d="M1080.84,830.87c-0.06,0.46-0.11,0.92-0.22,1.82c-2.17-4.41-4.8-8.16-6.04-12.59c1.9,1.98,3.89,3.89,5.66,5.98
		C1081.4,827.44,1080.54,829.28,1080.84,830.87z"/>
	<path class="st0" d="M1092.04,817.38c-0.86,0.64-1.73,1.28-2.59,1.92c-1.18-2.93-3.09-5.65-2.78-9c0.17-1.82,0.56-3.63,0.86-5.44
		c0.55,2.21,0.14,4.45,0.23,6.67c0.04,0.91,0.11,1.64,1.26,1.62C1089.23,815.13,1091.38,815.72,1092.04,817.38z"/>
	<path class="st0" d="M1035.07,858.81c1.49-0.03,2.18,1.33,3.31,1.92c0.68,0.36,1.13,1.23,2.1,0.94c0.12,2.09,1.65,3.49,2.52,5.22
		c0.33,0.65,0.94,1.19,0.62,2.03C1041.04,865.32,1038.32,861.84,1035.07,858.81z"/>
	<path class="st0" d="M1033.62,857.53c0.71,0.18,1.47,0.29,1.46,1.28C1034.43,858.57,1033.99,858.09,1033.62,857.53z"/>
	<path class="st4" d="M955.38,40.14c-0.44-0.03-0.93,0.09-1.26-0.35C954.59,39.73,955.05,39.71,955.38,40.14z"/>
	<path class="st0" d="M1043.63,868.88c0.54,0.01,0.58,0.38,0.59,0.78C1044.02,869.41,1043.83,869.14,1043.63,868.88z"/>
	<path class="st0" d="M1104.02,850.78c0.01,0.17,0.01,0.35,0.02,0.52c-0.15-0.01-0.29-0.01-0.44-0.02
		C1103.74,851.12,1103.88,850.95,1104.02,850.78z"/>
	<path class="st0" d="M1074.59,820.14c-0.14-0.18-0.28-0.37-0.42-0.55C1074.31,819.77,1074.45,819.95,1074.59,820.14z"/>
	<path class="st0" d="M999.36,567.48c-0.75,2.55-0.45,5.2-0.71,7.8c-0.66,6.64-0.84,13.33-1.37,19.99
		c-0.76,9.54-1.55,19.07-2.1,28.62c-0.11,1.97-0.76,3.91-0.02,5.87c-1.02,3.74-3.26,6.54-6.39,8.79c-2.34,1.68-4.54,3.57-6.74,5.44
		c-1.4,1.18-2.96,1.95-4.73,2.35c-1.17-0.66-2.44-0.33-3.64-0.25c-5.56,0.34-11.12,0.77-16.67,1.19
		c-8.92,0.68-17.86,1.23-26.79,1.75c-7.62,0.45-15.23,1.17-22.86,1.59c-8.31,0.46-16.62,1.03-24.93,1.67
		c-6.25,0.49-12.49,0.95-18.75,1.25c-6.39,0.31-12.78,0.8-19.16,1.22c-0.8-6.9-1.62-13.8-2.41-20.7c-0.61-5.4-1.18-10.81-1.78-16.21
		c-0.17-1.57-0.37-3.14-0.55-4.72c-1.58-14.39-3.16-28.79-4.74-43.18c7.02-0.8,14.07-0.15,21.09-0.46
		c9.45-0.41,18.91-0.09,28.35-0.49c8.21-0.34,16.42,0.01,24.62-0.39c3.65-0.18,7.3-0.23,10.94-0.35c7.73-0.13,15.45,0.08,23.19-0.28
		c12-0.55,24.02,0.18,36.04-0.44C985.93,567.2,992.66,567.48,999.36,567.48z"/>
	<path class="st3" d="M863.96,339.31c-4.88-2.57-9.73-5.2-14.65-7.7c-11.33-5.78-22.69-11.48-34.02-17.24
		c-14.1-7.17-28.18-14.37-42.27-21.57c-0.96-0.49-2.02-0.89-2.51-1.99c6.52-1,13.03-2,19.55-2.99c8.15-1.23,16.29-2.46,24.45-3.66
		c7.95-1.16,15.91-2.26,23.86-3.42c3.33-0.49,6.63-1.17,9.97-1.54c1.5-0.17,1.66-0.9,1.53-2.05c-0.45-3.97-0.89-7.93-1.36-11.9
		c-0.64-5.33-1.31-10.65-1.97-15.97c-0.6-4.85-1.21-9.69-1.82-14.54c-0.63-5.05-1.25-10.1-1.91-15.15
		c-0.98-7.57-1.66-15.18-2.79-22.73c-0.75-5.03-1.19-10.11-1.79-15.17c-0.71-5.94-1.44-11.89-2.18-17.83
		c-0.65-5.26-1.34-10.51-1.96-15.77c-0.32-2.73-0.94-5.44-0.85-8.21c8.47,0.28,16.95,0.43,25.41,0.88
		c6.05,0.32,12.1,0.58,18.15,0.84c6.53,0.28,13.07,0.55,19.6,0.84c6.12,0.27,12.24,0.57,18.36,0.83c6.33,0.27,12.65,0.56,18.98,0.83
		c6.26,0.27,12.51,0.56,18.77,0.83c6.33,0.27,12.65,0.56,18.98,0.83c6.19,0.26,12.37,0.74,18.57,0.79c1.43,0.01,2.84,0.58,4.3,0.38
		c-10.57,42.48-21.12,84.97-31.71,127.44c-0.67,2.71-0.8,5.58-2.32,8.04c-1.26,0.16-2.46-0.39-3.68-0.39
		c-9.73-0.04-19.45-0.34-29.16-0.85c-4.13-0.22-8.27-0.16-12.4-0.31c-9.79-0.35-19.58-0.68-29.37-0.87
		c-7.73-0.15-15.45-0.79-23.19-0.51c-0.41,0.01-0.83-0.05-1.23-0.12c-3.55-0.61-7.11-0.12-11.07-0.32
		c9.26,19.36,18.35,38.36,27.44,57.35c-3.23-1.34-5.98-0.37-8.44,1.81C867.67,339.59,865.95,340.07,863.96,339.31z"/>
	<path class="st0" d="M999.36,567.48c-6.71,0-13.43-0.28-20.12,0.07c-12.02,0.63-24.04-0.11-36.04,0.44
		c-7.74,0.36-15.46,0.15-23.19,0.28c0.29-8,0.5-16.01,0.92-24c0.11-2.06,0.38-4.12,0.34-6.19c-0.02-1.21,0.44-1.84,1.7-1.76
		c0.41,0.02,0.83,0.01,1.25,0c9.33-0.15,18.67-0.05,27.98-0.53c5.32-0.27,10.65,0.08,15.94-0.39c5.39-0.48,10.79,0.05,16.15-0.42
		c5.26-0.47,10.51,0.03,15.73-0.4c4.21-0.35,8.41-0.27,12.62-0.35c0.13,2.28-1.24,4.09-2.03,6.06c-3.42,8.47-6.97,16.89-10.49,25.31
		c-0.25,0.59-0.37,1.17-0.35,1.8C999.64,567.43,999.5,567.45,999.36,567.48z"/>
	<path class="st0" d="M866.81,678.32c2.6-0.51,5.22-0.17,7.83-0.21c4.49-0.07,8.97-0.02,13.46-0.02c-0.1,4.04-0.33,8.07-0.84,12.08
		c-0.1,0.77-0.32,1.71,0.73,2.14c4.5,1.84,8.73,4.3,13.41,5.73c1.98,1.53,4.52,1.66,6.68,2.74c0.54,0.27,1.16,0.36,1.59,0.84
		c-7.74,0.74-15.49,1.48-23.23,2.23c-0.11-0.32-0.15-0.7-0.34-0.95c-4.58-5.74-9.2-11.45-13.76-17.21
		C870.43,683.29,868.32,681.03,866.81,678.32z"/>
	<path class="st3" d="M877.68,336.4c-9.09-18.99-18.18-37.99-27.44-57.35c3.96,0.2,7.52-0.29,11.07,0.32
		c0.41,0.07,0.82,0.14,1.23,0.12c7.74-0.28,15.46,0.36,23.19,0.51c9.79,0.19,19.58,0.52,29.37,0.87c4.13,0.15,8.27,0.09,12.4,0.31
		c9.71,0.51,19.43,0.81,29.16,0.85c1.23,0,2.42,0.56,3.68,0.39c-2.78,3.18-6.22,5.64-9.28,8.52c-3.01,2.83-6.2,5.47-9.3,8.19
		c-5.59,4.91-11.18,9.82-16.76,14.74c-3.77,3.33-7.54,6.66-11.29,10.02c-4.67,4.18-9.32,8.38-13.98,12.58c0,0,0-0.02,0-0.02
		c-0.14,0.12-0.29,0.25-0.43,0.37C892.08,337.11,884.89,336.54,877.68,336.4z"/>
	<path class="st0" d="M886.44,703.85c7.74-0.74,15.49-1.48,23.23-2.23c1.48,0.44,0.77,1.39,0.42,2.14
		c-1.51,3.23-3.77,5.94-6.22,8.46c-1.19,1.23-1.18,1.85,0.03,3.1c3.22,3.31,7,6.04,9.92,9.66c-2.79,3.74-4.51,8.13-7.18,11.95
		c-1.88,2.69-3.52,5.55-5.26,8.34c-0.21,0.33-0.49,0.45-0.84,0.5c-2.45,0.13-4.66,1.18-6.96,1.87c-9.31,2.79-18.58,5.7-27.87,8.56
		c-5.59-0.99-11.17-1.99-16.76-2.96c-4.51-0.78-9.04-1.46-13.55-2.29c-1.03-0.19-2.06-0.09-3.07-0.27c2.72-3.75,4.72-7.93,7.05-11.9
		c4.37-7.43,8.6-14.93,12.88-22.42c0.23-0.41,0.36-0.88,0.54-1.33c0.05-0.07,0.07-0.16,0.06-0.25
		C864.06,711.14,875.25,707.5,886.44,703.85z"/>
	<path class="st0" d="M921.32,732.04c-0.15-0.14-0.29-0.28-0.44-0.42C921.03,731.77,921.18,731.91,921.32,732.04z"/>
	<path class="st5" d="M899.3,336.82c0.14-0.12,0.29-0.25,0.43-0.37C899.58,336.57,899.44,336.7,899.3,336.82z"/>
	<path class="st0" d="M886.44,703.85c-11.19,3.64-22.38,7.28-33.57,10.93c-2.41-2.92-4.8-5.84-7.22-8.75
		c-4.05-4.86-8.03-9.78-12.19-14.54c-1.89-2.16-3.5-4.6-5.73-6.46c5.9-1.84,11.83-3.59,17.96-4.42c6.55-0.88,13.13-1.54,19.7-2.28
		c0.47-0.05,0.95-0.01,1.43-0.01c1.5,2.71,3.62,4.97,5.53,7.38c4.56,5.76,9.18,11.46,13.76,17.21
		C886.3,703.16,886.33,703.54,886.44,703.85z"/>
	<path class="st0" d="M827.73,685.03c2.23,1.87,3.83,4.3,5.73,6.46c4.16,4.76,8.15,9.68,12.19,14.54c2.42,2.91,4.81,5.83,7.22,8.75
		c0.01,0.09-0.01,0.17-0.06,0.25c-4.42,0.77-8.62,2.35-12.91,3.57c-9.53,2.71-19.02,5.56-28.5,8.41c-1.44,0.43-1.89,0.23-1.87-1.38
		c0.08-7.12,0.04-14.25,0.03-21.37c0-0.9-0.08-1.79-0.12-2.69c-0.08-3.1,1.37-5.12,4-6.78C818.31,691.71,822.98,688.3,827.73,685.03
		z"/>
	<path class="st0" d="M1104.04,851.31c1.22-0.05,1.59,1.09,2.34,1.68c0.57,0.45,0.95,1.14,1.74,1.29c0.01,0.12,0.04,0.24,0.06,0.35
		c0.15,0.13,0.29,0.26,0.44,0.38c0.13,0.02,0.26,0.03,0.4,0.03c0.17,0.36,0.26,0.8,0.53,1.06c2.61,2.6,5.25,5.17,7.88,7.75
		c-2.11,1.61-4.86,2.16-6.79,4.08c-1.34-2.11-2-4.51-2.8-6.83C1106.69,857.79,1105.49,854.51,1104.04,851.31z"/>
	<path class="st0" d="M1117.43,863.86c-2.63-2.58-5.27-5.15-7.88-7.75c-0.27-0.27-0.36-0.71-0.53-1.06
		c3.44-1.06,7.04-1.37,10.56-2.05c2.73-0.53,5.51-0.82,8.27-1.21C1124.49,855.9,1121.28,860.16,1117.43,863.86z"/>
	<path class="st0" d="M1108.63,855.02c-0.15-0.13-0.29-0.26-0.44-0.38C1108.33,854.76,1108.48,854.89,1108.63,855.02z"/>
	<path class="st0" d="M1092.04,817.38c-0.67-1.66-2.81-2.25-3.03-4.22c2.5-0.6,5-1.17,7.57-1.32
		C1095.14,813.74,1094.11,815.98,1092.04,817.38z"/>
</g>
</svg>
