<?xml version="1.0" encoding="utf-8"?>
<!-- Generator: Adobe Illustrator 27.0.1, SVG Export Plug-In . SVG Version: 6.00 Build 0)  -->
<svg version="1.1" id="Calque_1" xmlns="http://www.w3.org/2000/svg" xmlns:xlink="http://www.w3.org/1999/xlink" x="0px" y="0px"
	 viewBox="0 0 1920 1080" style="enable-background:new 0 0 1920 1080;" xml:space="preserve">
<style type="text/css">
	.st0{fill:none;stroke:#000000;stroke-width:1.1232;stroke-miterlimit:10;}
	.st1{fill:#FFCBF2;}
	.st2{fill:#847E7A;}
	.st3{fill:#EAF3F0;}
	.st4{fill:#928581;}
	.st5{fill:#C0FDFF;}
	.st6{fill:#D0D1FF;}
	.st7{fill:#DEAAFF;}
	.st8{fill:#C8E7FF;}
	.st9{fill:#509980;}
	.st10{fill:#BE856A;}
	.st11{fill:#E3AD86;}
	.st12{fill:#AA6E5A;}
	.st13{fill:#FDE7CF;}
	.st14{fill:#7D95D6;}
	.st15{fill:#F5D7C0;}
	.st16{fill:#E16B79;}
	.st17{fill:#61AD8E;}
	.st18{fill:#A29793;}
	.st19{fill:#8D71AA;}
	.st20{fill:none;}
</style>
<g id="fond">
	<rect x="-33" y="-30" class="st0" width="2013" height="1152"/>
	<rect x="-33" y="-67" class="st1" width="2013" height="1194"/>
</g>
<g id="chambre">
	<path class="st1" d="M198.2,623.1c0-205,0.1-410-0.2-615c0-7.7,0.8-10.2,9.6-10.2c497.3,0.3,994.6,0.3,1491.8,0
		c8.9,0,9.5,2.6,9.5,10.2c-0.2,229.9-0.2,459.8-0.2,689.7c-4,0.1-8.1,0.1-12.1,0.2c0.2-14.4-9.5-25-14.7-37.3
		c-2.7-6.5-2.9-15.3-11.5-18.5c-0.2-6.4-0.5-12.8-0.5-19.3c0-132.1,0-264.3,0-396.5c0-6.4,0-12.2-5.2-17.7
		c-27.5-28.6-54.7-57.6-81.8-86.6c-4.8-5.2-8.1-6.1-13.4-0.3c-24,25.9-48.2,51.6-72.6,77.1c-10,10.5-15.4,21.4-15.3,37
		c0.7,92,0.1,183.9,0,275.9c-11.1,4.8-20.8,11.7-29.7,19.5c-5.3,4.7-8.8,4.5-12.7-0.7c-5.8-7.6-11.8-15-17.2-22.9
		c-21.4-31.6-48.2-57.2-82.5-74.8c-19.8-10.1-39.8-14.2-62.1-11.5c-13.5,1.6-24.1,10.6-37.5,11.3c-4.6-5.1-9.1-10.1-13.7-15.2
		l0.1,0.1c-0.9-2.4-2.4-4.1-4.9-4.9l0.1,0.1c-1-1.5-2.1-3.1-3.1-4.6c3-6.5,5.8-13.2,8.9-19.6c1.6-3.3,2.2-8.4,8.2-6.4
		c10.2,17.6,29.5,18.8,46.5,27.7c-2.3-12.2-13.8-14.5-18.2-23.2c8.1-1.9,14.5,2,24.4,4.1c-13-15.2-30.2-19.3-41.2-31.3
		c8.4-2.1,18.3,3.8,26.2-4.8c-5.2-3.2-12.5-1-15.2-8.1c4.6-2.8,12.3-0.6,12.8-7.8c-17.9-2.9-35.7-4.3-53.5-2.8
		c-9.4-2.9-5.1,4.9-5.1,7.6c-0.4,16.7-0.2,33.4-0.2,50.2c-0.8,0-1.6,0.1-2.4,0.1c-6.4-14.1-12.8-28.2-19.9-43.6
		c-3.7,3.8-6.4,6.6-9.1,9.4c-14.1,8.2-19,24.6-32.3,33.3c8.1,4,14.9-8.9,18.9-2.1c3.4,5.8-6.1,11.7-10.9,17
		c-0.4,0.4-0.2,1.3-0.3,2.4c9.4,0,15.8-5.5,21.2-12c5.6-6.8,10.4-14.2,15.6-21.3c10.6,7.7,10.8,21.3,17.5,31.2
		c-2.8,4.6-7.8,7.8-8.2,13.7c-4.5,3.2-6.1,8.3-8.1,12.9c-8.8,20-17.2,40.1-25.8,60.1c-3.3-0.1-6.5,0.5-8.7,3.2
		c-12.1,14.7-24.9,29-36.2,44.4c-16.7,22.9-32.6,46.4-47.4,70.6c-16.7,27.3-33.3,54.6-44.9,84.5c-31.1,0-62.2,0.1-93.2,0.1
		c-0.2-5.6-0.6-11.2-0.6-16.8c0-142.5,0-285,0-427.6c0-4.4,0.2-8.9-0.3-13.2c-1.9-18-13.8-29.3-31.1-29.9c-4.3-4.5-9.9-2.4-14.8-2.4
		c-114.6-0.1-229.1-0.1-343.7-0.1c-22.9,0-45.8,0.3-68.7,0.4c-20.4,2.8-32.7,16.1-33.4,36.6c-0.4,10.3-0.4,20.6-0.6,30.9
		c-47.8-0.1-95.6-0.1-143.4-0.2c-8,0-15,2.3-20.8,7.9c-3-3.4-1.9-7.6-1.9-11.5c-0.1-16.1-0.2-32.1,0-48.2
		c0.1-7.7-0.4-15.5-10.3-15.7c-10.6-0.2-11.4,7.8-11.4,16c0.1,30.9,0,61.8,0,92.8c-0.1,77.1-0.3,154.2-0.4,231.3
		c-5,0.3-8.2,3.7-10.4,7.4c-11.5,19.6-26.6,36.9-36.4,57.5C206.9,618,204.4,622.7,198.2,623.1z"/>
	<path class="st2" d="M198.2,623.1c6.2-0.5,8.7-5.2,11-9.9c9.9-20.6,24.9-37.9,36.4-57.5c2.2-3.7,5.4-7.1,10.4-7.4
		c0,49.9,0,99.8-0.1,149.7c-19.3,0-38.5-0.1-57.8-0.1C198.2,673,198.2,648.1,198.2,623.1z"/>
	<path class="st3" d="M198.2,697.9c19.3,0,38.5,0.1,57.8,0.1c0.1,8.2,0.1,16.4,0.2,24.7c-19.3,1.2-38.7-1.8-57.9,1.8
		C198.2,715.6,198.2,706.8,198.2,697.9z"/>
	<path class="st3" d="M1708.8,722c-12.9,0.1-25.7,0.2-38.6,0.3c0-7.3,0-14.7,0-22c0.8-0.7,1.6-1.5,2.4-2.2c8,0,16,0,24,0
		c4-0.1,8.1-0.1,12.1-0.2C1708.8,706,1708.8,714,1708.8,722z"/>
	<path class="st4" d="M198.2,724.5c19.2-3.5,38.6-0.5,57.9-1.8c0,8.6,0,17.3,0,25.9c-0.7-0.4-1.7-0.7-2-1.3
		c-12.5-23.6-34.2-21.9-55.9-20.5C198.2,726.1,198.2,725.3,198.2,724.5z"/>
	<path class="st2" d="M1239.9,433.1c13.3-0.7,23.9-9.6,37.5-11.3c22.4-2.7,42.4,1.4,62.1,11.5c34.4,17.5,61.1,43.1,82.5,74.8
		c5.3,7.9,11.4,15.3,17.2,22.9c3.9,5.2,7.4,5.3,12.7,0.7c8.9-7.8,18.7-14.8,29.7-19.5c-0.1,62-0.1,124.1-0.2,186.1
		c-26.6,0-53.1,0-79.7,0c-22.1-14.6-36.2-36.2-49.3-58.2C1312.4,572.4,1282.2,499.5,1239.9,433.1z"/>
	<path class="st1" d="M1428.9,735.9c-9.6,1.5-17.4,7.8-26.6,10.3c-25.8,1.2-50.9-2.9-75.7-9.5c-11.4-7.5-18-19.8-28.1-28.7
		c-0.4-1.5-0.4-3.3-1.2-4.6c-29.7-52.5-52.4-107.8-66.8-166.5c-0.6-2.5-1-5.6-5.6-6.6c-2.5,11.9-4.7,23.9-7.6,35.7
		c-10.9,43.9-25.2,86.8-42.3,128.7c-1.6,4-1.9,6.8,1.9,9.2c-2.3,1.5-5.9,2.6-6.6,4.6c-6,16.5-20.1,27.6-28.2,42.6
		c-2.8-0.1-5.6-0.1-7.6-2.5c1.3-10,7-19.6,2.8-32.2c-6.2,8.5-8.6,16.8-14.8,22.5c-3.6-2.5-7.2-5.4-12-4.7c-4,0.5-6.2-6.7-11.5-2.2
		c-10.7,9.1-24.2,13.1-36.7,18.9c-5.1-1.3-17.8,5.2-9.7-9.6c5,0.5,9.4-1.1,13.8-3.2c23.6-11.2,40-30,49.9-53.2
		c13-30.4,24.8-61.4,34.2-93.1c11.4-38.3,24.3-76.2,35.4-114.7c5.3-18.4,10.7-36.7,16-55c0.4-6,5.4-9.2,8.2-13.7
		c2.2,0.2,4.4,0.3,6.6,0.5c0.2,3,2.1,4.1,4.8,4.2l-0.1-0.1c0.1,3.2,1.7,4.9,4.9,4.9c0,0-0.1-0.1-0.1-0.1c0.2,2-0.2,4.3,0.8,5.9
		c18.1,30.7,30.6,63.9,45.3,96.2c22.9,50.3,46.5,100.3,73.2,148.7c16.9,30.8,42.3,51.8,76,62.5
		C1424.5,732.1,1428.2,731.7,1428.9,735.9z M1200.1,568.3c-1.1-0.1-2.2-0.3-3.2-0.4c-5.4,18-8.2,36.5-9.1,55.4
		C1191.9,605,1196,586.7,1200.1,568.3z"/>
	<path class="st5" d="M1481.5,698.2c0.1-62,0.1-124.1,0.2-186.1c0.1-92,0.7-184,0-275.9c-0.1-15.6,5.3-26.5,15.3-37
		c24.4-25.5,48.6-51.2,72.6-77.1c5.3-5.8,8.5-4.9,13.4,0.3c27.1,29,54.3,58,81.8,86.6c5.2,5.4,5.2,11.2,5.2,17.7
		c0,132.2,0,264.3,0,396.5c0,6.4,0.3,12.8,0.5,19.3c-0.1,18.5-0.2,37.1-0.2,55.6c-0.2,0.8-0.2,1.6-0.1,2.4c0,7.3,0,14.7,0,22
		c0.3,4.8-1,8.9-5,11.8c-60.9-0.1-121.8-0.2-182.8-0.3c-0.2-3.6-0.4-7.2-0.6-10.8C1481.7,714.9,1481.6,706.5,1481.5,698.2z
		 M1549.6,244.1c0-1.5,0-3,0-4.5c0.9,0.1,1.8,0.2,2.6,0.2c0,20,0,40,0,60c6.2,7.9,12.6,7.3,18.9,0.1c0.8-0.1,1.5-0.1,2.3-0.1
		c5.7,13.8,15.7,6.1,24.4,4.9c15.3,0,30.6-0.3,45.8,0.1c7.4,0.2,9.8-2.7,9.7-9.9c-0.3-21.3-0.2-42.6,0-63.9
		c0.1-5.3-1.8-9.1-5.5-12.7c-21.7-21.5-43.4-43-64.7-64.9c-5.8-5.9-9.3-5-14.6,0.4c-21.1,21.6-42.5,42.7-63.8,64.1
		c-2.8,2.8-5.9,5.6-5.9,10.1c0,24.5,0,49,0.1,73.5c0,3,0.6,6.2,4.9,3c0.8,0,1.5,0.1,2.3,0c6.4,0,12.8,0,19.2,0
		c2.6,3.2,6.2,2.2,9.6,2.5c11.1,1.4,17.2-2.1,14.6-14.5c0-14.4,0-28.8,0-43.1C1549.6,247.6,1549.6,245.9,1549.6,244.1z
		 M1609.3,541.3c5.8,4.2,11.6,1.6,17.4,0.2c3.4,2.9,7.7,1.4,11.5,2c12.4,2.1,15.8-3,15.3-15.2c-1-22.8-0.7-45.6-0.1-68.4
		c0.3-9.7-2.3-14.5-12.5-13.2c-1.3-3.9-1-7.8,0.2-11.6c11.4-1.8,13-9.4,12.2-19.4c-0.7-9.1-0.2-18.2-0.1-27.3
		c2.9-4.3,1.7-9.9,5-14.2c4.8-6.3,1.8-10-5-11.7c0-10.9-0.4-21.7,0.2-32.5c0.5-8.6-2.9-11-11.2-10.9c-44.2,0.3-88.4,0.3-132.6,0
		c-8.6-0.1-11.1,3-10.9,11.2c0.4,25.3,0.2,50.6,0.1,75.9c0,26.3,0,26.3,26.6,26.5c19,3,37.9-0.1,56.8-0.3
		c11.8,0.2,23.7,0.5,35.5,0.7c0.2,4.6,0.3,9.1,0.4,13.7c-35.8,0.1-71.6,0.4-107.4,0c-9.7-0.1-12.6,3-12.2,12.4
		c0.7,17.7,0.2,35.4,0.2,53.1c0,33.5,0,33.5,33.9,30.6c4.4,1.1,8.5,0.1,12.5-1.6C1566.7,544.6,1588,545.1,1609.3,541.3z
		 M1593.4,712.8c1.1-0.1,2.3-0.2,3.4-0.3c7.6,0.1,15.2,0.2,22.9,0.2c7.1,4.3,14.9,1.1,22.3,2.2c9.3,1.3,11.5-3,11.4-11.7
		c-0.3-45.3-0.4-90.7,0-136c0.1-9-2.7-11.8-11.7-11.7c-43.3,0.4-86.7,0.4-130.1,0c-10.2-0.1-13.1,3.8-13,13.5
		c0.4,45,0.4,89.9-0.1,134.8c-0.1,9.4,3.3,12.4,11.9,11c1.8,0.8,3.6,2.2,5.3,2.2c23.3,0.2,46.5,0.2,69.8,0.2
		C1589.2,717.1,1592.2,716.6,1593.4,712.8z"/>
	<path class="st6" d="M905.5,210.5c17.3,0.6,29.2,12,31.1,29.9c0.5,4.4,0.3,8.8,0.3,13.2c0,142.5,0,285,0,427.6
		c0,5.6,0.4,11.2,0.6,16.8c-0.2,6.5-0.5,13.1-0.8,19.7c-0.3,3.7-1.5,7-4.4,9.5c-2.5-4.6,3.3-12.2-5.2-14.7c-0.2-1.6-0.3-3.2-0.5-4.7
		c-1-5.4-4.2-8.6-9.5-9.7c-1.3-0.4-2.6-0.8-3.9-1.2c-0.2-2.1-0.4-4.1-0.7-6.2c4.3-5.3,2.2-11.6,2.2-17.4c-0.2-14.4,6-32.9-2.2-42
		c-8.9-9.9-28-3.2-42.5-3.3c-65.3-0.4-130.6-0.2-196-0.2c-5.5,0-11.5,1.4-15.3-4.4c80.7-0.1,161.3-0.2,242-0.4c4.7,0,9.7,1.5,13.9-2
		c0-5.9,0-11.8,0-17.8c0.2-62.6,0-125.3,0.8-187.9c0.1-11.9-3.5-14.5-14.9-14.5c-147.8,0.4-295.6,0.2-443.4,0.3c-4,0-8,0.4-12,0.6
		c0.5-1.1,1-2.2,1.5-3.2c152.7,0.1,305.5,0.2,458.2,0.2c0.4,0,0.8,0,1.2,0c6.9,0.7,9.1-2.7,9-9.2c-0.2-18.1-0.3-36.2,0-54.2
		c0.1-6-1.8-6.8-7.6-6.8c-153.5,0.3-307.1,0.3-460.6,0.3c-0.9-3.9-1.8-7.7-2.7-11.5c0-4.2,0.1-8.4,0.1-12.7c0-9.5,0-19.1,0.1-28.6
		c0.2-10.3,0.2-20.6,0.6-30.9c0.7-20.4,13-33.8,33.4-36.6c4.2,3.6,9.2,2.1,13.9,2.1c130.6,0.1,261.2,0.1,391.9,0.1
		C891.2,210.5,898.3,210.5,905.5,210.5z M643.8,321.7c3.6,2.6,7.7,1.9,11.6,1.9c81.9,0,163.7,0,245.6,0c3.9,0,8.1,1.2,11.5-2
		c4.3-2.8,2.5-7.2,2.6-11c0.2-17.2,0-34.5,0-51.8c0-25-6.3-31.3-31.1-31.3c-128,0-256.1,0-384.1,0c-4.8,0-9.7-0.2-14.4,0.5
		c-9.1,1.3-16.4,6.4-18.2,15.3c-2.2,10.8-3.5,22,0.9,32.9c-7.7,14.5-4.5,29.5-2.1,44.4c0,0.3,1.4,0.5,2.2,0.7
		c57.9,0,115.9,0,173.9,0.1C642.6,321.4,643.2,321.5,643.8,321.7z"/>
	<path class="st6" d="M256.1,748.7c0-8.7,0-17.3,0-25.9c0-8.2-0.1-16.4-0.1-24.7c0-49.9,0-99.8,0.1-149.7
		c0.1-77.1,0.3-154.2,0.4-231.3c0-30.9,0.1-61.9,0-92.8c0-8.2,0.8-16.3,11.4-16c9.9,0.2,10.4,8,10.3,15.7c-0.1,16.1-0.1,32.1,0,48.2
		c0,3.9-1.2,8.1,1.9,11.5c0,7,0.1,13.9,0.1,20.9c-0.3,5.1-1.5,10.5,3.8,14.1c-7.8,2-6.1,8.5-6.1,13.8c0,139.5,0,278.9,0.1,418.4
		C270.7,750.3,263,753.2,256.1,748.7z"/>
	<path class="st7" d="M1201.9,422.2c-5.3,18.3-10.7,36.6-16,55c-11,38.5-23.9,76.3-35.4,114.7c-9.4,31.6-21.2,62.7-34.2,93.1
		c-9.9,23.2-26.3,41.9-49.9,53.2c-4.4,2.1-8.8,3.7-13.8,3.2c-8.7-7.5-19.2-4-28.9-4.6c-8.7-0.5-15-3-14.4-13.3
		c14.6-9,32.2-12.3,45.5-23.6c10.6-6.2,18.2-15.5,25.4-25.1c40.5-54.3,62.8-117.5,87.8-179.5c8.6-20.1,17-40.2,25.8-60.1
		C1195.8,430.5,1197.4,425.4,1201.9,422.2z"/>
	<path class="st2" d="M1167.9,495.3c-25,61.9-47.3,125.1-87.8,179.5c-7.2,9.6-14.8,18.9-25.4,25.1c-7.8-3.7-16-1-24-1.9
		c11.7-29.9,28.2-57.2,44.9-84.5c14.8-24.2,30.7-47.7,47.4-70.6c11.2-15.4,24.1-29.7,36.2-44.4
		C1161.5,495.7,1164.6,495.1,1167.9,495.3z"/>
	<path class="st7" d="M1428.9,735.9c-0.8-4.3-4.5-3.8-7.4-4.7c-33.7-10.7-59-31.8-76-62.5c-26.7-48.4-50.2-98.4-73.2-148.7
		c-14.7-32.2-27.2-65.5-45.3-96.2c-0.9-1.6-0.5-3.9-0.8-5.9c4.6,5.1,9.1,10.1,13.7,15.2c42.3,66.4,72.5,139.3,112.6,206.9
		c13.1,22,27.2,43.7,49.3,58.2c12.6,13.7,30,18.8,46.4,25.7C1441.6,727.5,1434.3,730.2,1428.9,735.9z"/>
	<path class="st7" d="M280.2,304.5c0-7-0.1-13.9-0.1-20.9c5.8-5.7,12.8-8,20.8-7.9c47.8,0.1,95.6,0.2,143.4,0.2
		c0,9.5,0,19.1-0.1,28.6C389.5,304.6,334.9,304.6,280.2,304.5z"/>
	<path class="st3" d="M1030.7,697.9c8,0.9,16.2-1.8,24,1.9c-13.4,11.3-30.9,14.7-45.5,23.6c-18.9-1.3-37.8-1.7-56.7,0.1
		c-4.4-1.5-12,1.9-11.1-7.8c0.1-1.2-3,1.4-4.7,1.9c0.2-6.5,0.5-13.1,0.8-19.7C968.5,698,999.6,698,1030.7,697.9z"/>
	<path class="st8" d="M1246.9,359.9c11,12,28.2,16,41.2,31.3c-9.9-2.1-16.3-6-24.4-4.1c4.4,8.6,15.9,11,18.2,23.2
		c-16.9-9-36.3-10.1-46.5-27.8c-5.6-11.6,1.9-17.4,10.1-22.9C1246,359.7,1246.4,359.8,1246.9,359.9z"/>
	<path class="st8" d="M1246.9,359.9c-0.4-0.1-0.9-0.2-1.3-0.2c-4.6-8.7-8.2-4.1-11.8,0.9c-5.6,0.6-11.2,1.2-16.8,1.8
		c0.1-8.6,0.1-17.3,0.1-25.9c17.9-1.6,35.6-0.2,53.5,2.8c-0.5,7.2-8.2,5-12.8,7.8c2.7,7,10,4.9,15.2,8.1
		C1265.2,363.7,1255.2,357.8,1246.9,359.9z"/>
	<path class="st5" d="M1217.1,336.4c-0.1,8.6-0.1,17.3-0.1,25.9c0,11.2,0,22.3,0,33.5c7.1-11.4,13.5-22.7,16.8-35.3
		c3.6-5,7.2-9.6,11.8-0.9c-8.1,5.5-15.7,11.3-10.1,22.9c-5.9-1.9-6.5,3.1-8.2,6.4c-3.2,6.4-6,13.1-8.9,19.6
		c-0.6,0.1-1.2,0.2-1.7,0.4c-2.2-0.2-4.4-0.3-6.6-0.5c-6.8-9.9-6.9-23.5-17.5-31.2c2.9-10.6-7.2-12.1-12.2-17.2
		c2.7-2.8,5.4-5.6,9.1-9.4c7.1,15.5,13.5,29.5,19.9,43.6c0.8,0,1.6-0.1,2.4-0.1c0-16.7-0.2-33.5,0.2-50.2
		C1212,341.3,1207.7,333.6,1217.1,336.4z"/>
	<path class="st6" d="M905.5,210.5c-7.2,0-14.3,0.1-21.4,0.1c-130.6,0-261.2,0-391.9-0.1c-4.7,0-9.7,1.6-13.9-2.1
		c22.9-0.1,45.8-0.4,68.7-0.4c114.6,0,229.1-0.1,343.7,0.1C895.6,208.1,901.2,206,905.5,210.5z"/>
	<path class="st8" d="M1180.4,360.1c5,5.1,15.1,6.5,12.2,17.2c-5.2,7.1-10,14.5-15.6,21.3c-5.4,6.5-11.7,12-21.2,12
		c0.1-1.1-0.1-2,0.3-2.4c4.8-5.2,14.3-11.1,10.9-17c-3.9-6.7-10.8,6.1-18.9,2.1C1161.3,384.7,1166.3,368.3,1180.4,360.1z"/>
	<path class="st1" d="M1670.3,698c0.1-18.5,0.2-37.1,0.2-55.6c8.5,3.2,8.8,12,11.5,18.5c5.1,12.3,14.8,23,14.7,37.3c-8,0-16,0-24,0
		C1671.9,698,1671.1,698,1670.3,698z"/>
	<path class="st9" d="M1226.3,418c-3.2,0-4.8-1.7-4.9-4.9C1223.9,413.9,1225.4,415.6,1226.3,418z"/>
	<path class="st9" d="M1216.7,409c0.6-0.2,1.1-0.3,1.7-0.4c1,1.5,2.1,3.1,3.1,4.6C1218.8,413,1216.9,412,1216.7,409z"/>
	<path class="st5" d="M712.1,987.4c-13,15-29.5,14-46,8.8c-11.9-3.8-12.9-14.8-12.1-25.7c4.8-14.5,9.7-29.1,14.5-43.6
		c7.2-21.6,14.5-43.2,21.7-64.8c0.8-1.8,1.9-3.6,2.5-5.5c2.7-8.7,8.8-18.4,7-26c-1.7-7-14.7-4.9-22-8.7c-2.8-1.5-5.9-2.2-8.9-3.2
		c-3-3.5-2.6-7.8-2.8-12c1.1-18.4,3.2-20.4,22-24.6c50.3-11.1,101.5-13.2,152.7-14.6c4.7,1.1,4.7,4.8,4.3,8.3
		c-1.2,10.6,3.9,14.2,13.7,13.2c0.2,4,0.6,8,0.4,12c-0.3,6.2,0.2,11,8.7,10.6c7.3-0.3,13-2.1,13-10.5c0-7.1,1.8-14.5-2.2-21.2
		c-0.1-4.4-0.6-8.8,4-11.6c8.1-0.1,16.2-0.2,24.3-0.3c7,9.7,16.6,10,29.7,0.9c20.3,2,40.8,0.9,61.1,3.5c23.4,2.9,46.9,5.2,69.8,11.3
		c11.1,3,16.6,9.2,16.3,21.5c-0.3,12.2-7.7,15.6-17.1,18.1c-4.3,1.1-8.4,2.7-12.7,3.7c-5.7,1.3-6.9,3.9-4.7,9.5
		c4.3,10.8,7.9,21.8,11.8,32.7c7.7,23.2,15.3,46.5,22.9,69.7c3.6,14.7,12.2,28,11.9,43.7c-12.8,18.7-35.1,22.6-55.2,9.6
		c-8.4-12.6-6.2-27.4-8.4-41.2c-1.5-17.4-3.1-34.9-4.6-52.3c-2-19.4-4.2-38.9-6-58.3c-0.8-8.7-6.6-7.9-12.2-7
		c-8.2,1.3-3.1,6.7-2.2,10c5,18.5,14,35.9,16.5,55.2c-6.3,13.8-11.2,28.3-19.5,41.1c-18.8-1.7-22.8-5.6-24.8-24.5
		c-2.2-21.4-5.5-42.8-6.2-64.3c-0.4-12-4.9-13.9-15.1-13.2c-19.2,1.3-38.3,2.1-57.5,2.3c-34.4,0.3-68.9,1-103.2-2
		c-5.5-0.5-10.5-0.4-10.5,7.6c0,24-5.8,47.6-5.3,71.7c-6.3,20.7-7.3,21.4-31.2,22.2c-5.9-13.7-13.8-26.5-17.2-41.2
		c8.9-16.7,12.5-35.2,19.2-52.7c1.8-4.7,4.4-10.8-4.4-11.1c-7.5-0.2-18.5-7.3-20.9,5.4c-3.2,16.7-3.5,34-5.1,51.1
		c-1.1,12.7-2.2,25.4-3.4,38.2c-2.4,4.1-1.4,8.6-1.8,13C715.5,957.2,713.8,972.3,712.1,987.4z M811.5,789.7
		c-7.9-0.4-15.6-0.4-19.9,10.5c-2.4-6.3-3.4-12-10.2-10.5c-4.5,1.2-11.3-2.8-13.2,4.1c-3.8,13.7,7.3,9,13.5,10.2
		c9.9,1.5,19.8,3.1,29.7,4.6c4.5-1.3,12.8,3.1,12.6-4.2C823.9,798.6,822.6,788.7,811.5,789.7z M953.4,780.2
		c-5.6,0-11.3,0.5-16.8-0.2c-11.4-1.4-18,1.1-21.2,14.3c-2.5,10.4-1.7,13,8.6,12.2c37.5-3.1,75.2-2,112.8-2.6c1.4,0,2.8-0.7,4.4-1.2
		c-2.3-8.6-8.3-14-12.9-20.3c-2.4-2.9-5.8-2.4-8.9-2.3C997.4,780.1,975.4,780.2,953.4,780.2z"/>
	<path class="st2" d="M1032.3,951c2.3,13.8,0,28.6,8.4,41.2c-63.9,10.6-128.4,11-192.8,9.3c-42.7-1.1-85.3-4.9-127.3-13.3
		c-2.7-0.5-5.6-0.5-8.4-0.8c1.7-15.1,3.3-30.2,4.9-45.4c0.5-4.3-0.6-8.9,1.8-13c0.2,2,0.6,4,0.5,5.9c-0.9,10.6,4,16.8,14.3,18.4
		c10.6,1.6,15.3-4.5,17-14c23.9-0.8,24.9-1.5,31.2-22.2c31.1-2.1,62.2-1.9,93.3-4.3c34.8-2.7,69.6,2.7,104.4,2.3
		c2,18.8,6,22.8,24.8,24.5c-2.8,14.8,4.3,20.3,17.7,18.6C1027,957.6,1027.8,951.8,1032.3,951z"/>
	<path class="st1" d="M278,750.8c0-139.5-0.1-278.9-0.1-418.4c0-5.4-1.7-11.8,6.1-13.8c1.3,1,2.5,1.9,3.8,2.9
		c1.4,6.7,1.6,13.1,0.5,20c-1.6,9.3-1.4,19.1,0.5,28.7c1.2,6.5,3.7,9.5,11,9.4c41.7-0.3,83.5-0.3,125.2,0c7.2,0,10-2.3,9.9-9.7
		c-0.4-16-0.1-32.1-0.1-48.1c2.3-3.2,5.5-4.7,9.4-4.5c0.9,3.9,1.8,7.7,2.7,11.5c-2,23.2-3.5,46.5-0.2,69.8c-0.5,1.1-1,2.2-1.5,3.2
		c0.1,7,0.3,14,0.4,21c-0.2,49.8-0.4,99.5-0.5,149.3c0.1,1.8,0.1,3.5,0.2,5.2c-0.8,13-1.2,26,0.6,39c-0.3,3-0.5,6-0.8,8.9
		c0,24.3-0.1,48.6-0.2,73c-0.1,17.7-0.3,35.3-0.4,53c-3.2-0.1-6.4-0.3-9.6-0.4c-0.1-9.6-0.2-19.2-0.2-28.7c0-7.2,0-14.4,0-21.5
		c0-3.6,0.1-7.2,0-10.8c0-15.9,0-15.9-15.5-15.9c-33.3,0-66.6-0.2-99.9,0.1c-9.1,0.1-19.9-3.6-27,1.8c-6.6,5.1-0.8,16-3.4,24
		c-4.2,17,0,34.2-1.4,51.2C284.3,750.9,281.2,750.9,278,750.8z M290.5,451.3c1.3-0.2,2.6-0.4,3.9-0.6c19.4,0,38.7-0.1,58.1-0.1
		c17.9,0.2,35.8,0.5,53.7,0.5c30.1,0.1,30.1,0,27.9-30.7c0-5.6,0-11.2,0-16.8c0.4-0.7,0.5-1.4,0.4-2.2c1.3-8.4-3.1-10-10.5-10
		c-33.3,0.3-66.6-0.1-100,0.2c-11.5,0.1-26.3-5-33.8,2.2c-8,7.8-2.7,22.9-2.6,34.7C287.7,436.1,284.2,444.4,290.5,451.3z M434,620.7
		c-1.7-6.5,6.6-18.4-7-18.6c-43.2-0.8-86.4-0.2-129.6-0.3c-5.9,0-7.8,2.7-7.5,8.1c0.2,3.6,0.2,7.2,0.4,10.8
		c-0.1,2.4-0.2,4.9-0.4,7.3c0,7.2,0.4,14.4-0.2,21.6c-0.8,9.3,2.3,12.6,12.1,12.4c33.6-0.6,67.2-0.2,100.8-0.2
		c33.3,0,33.3,0,31.7-34C434.2,625.4,434.1,623,434,620.7z M434.4,574.5c0.1-11.6,0.1-23.2,0.5-34.9c0.2-5.4-1.2-8-7.3-8
		c-44.1,0.2-88.2,0.1-132.4,0.1c-3.4,0-6.8,0.2-6.6,4.8c0.5,13.5-2,27.1,1.5,40.5c-2.7,11.8,2.2,15.1,13.9,14.9
		c38.1-0.7,76.3-0.2,114.4-0.2C435.1,591.7,435.1,591.7,434.4,574.5z M361.9,461.4c0-0.1,0-0.1,0-0.2c-20.9,0-41.7,0.5-62.5-0.2
		c-9.4-0.3-11.6,2.9-11.2,11.6c0.7,12.8,0.5,25.7,0.1,38.5c-0.2,7.3,1.2,10.6,9.7,10.5c42.5-0.5,85-0.4,127.5,0
		c7.7,0.1,9.5-2.6,9.3-9.7c-0.4-13.6-0.6-27.3,0-40.9c0.4-8.4-3-9.9-10.5-9.8C403.6,461.7,382.7,461.4,361.9,461.4z"/>
	<path class="st2" d="M444.4,751.1c0.1-17.7,0.3-35.3,0.4-53c4.8-0.1,9.6-0.2,14.5-0.2c145.9-0.1,291.8-0.2,437.7-0.2
		c0.3,0.8,0.7,1.6,1,2.5c-146.7,0-293.4,0-440.1-0.3c-9.3,0-12.3,2.4-12.6,12c-0.3,11.4,5.9,10.8,13.6,10.8
		c145.9-0.1,291.8,0,437.6,0c2,3.7,1.1,10.3,8.5,9c-0.8,5.7,4.4,8.9,5.8,13.6c-3.4,0.9-7.4,0.9-8,5.7c-9.8,0-19.7,0.3-29.5-0.1
		c-7.4-0.3-10,3-9.5,9.8c-3.6-2.2-6.7-5.7-11.6-4.7c-10.7-1.4-21-5.1-32-5.1c-54.7,0.2-109.4,0.1-164,0.1c-1-3-2.1-6-2.8-9
		c-1.4-5.5-2.6-10.9-9.7-12c-6.7-1-10.6,2-13.4,7.6c-2.4,4.8-7.4,6.2-11.8,7.6c-14.2,4.5-27.8,12.2-43.6,8.6
		c-3.4-4.1-8.1-2.8-12.3-2.8c-30.9-0.1-61.8,0.3-92.7-0.3C461.4,750.6,452.9,757.3,444.4,751.1z"/>
	<path class="st5" d="M1084,939c-7.7-23.2-15.3-46.5-22.9-69.7c6.8-5.4,18.4-2.9,20.3-16.6c4.2-30.8,10.7-61.2,16.2-91.8
		c0.3-4.9,0.5-9.8,0.8-14.7l-0.1,0c0.7-0.8,1.4-1.5,2.2-2.3c1.3-5.3,6-7.2,10-9.8c4.9-0.7,8.4,2.2,12,4.7c1.9,5.8,5.9,9.2,12,9.8
		c2,2.4,4.8,2.4,7.6,2.5c5.4,2.1,10.8,4.1,16.2,6.2c2.8,1.8,5.5,2.2,9,1.8c13.9-1.7,16.6,1.3,15.2,16c-3,3.7-2.3,8.4-3.6,12.6
		c-7.4,27.3-13.5,55-22.6,81.8c-7.8,23-3.1,43.8,4.7,65c2.1,9.5,3.6,19.1,2.4,28.8c-0.8,0.2-1.5,0.4-2.3,0.6
		c-0.8,0.6-1.6,1.3-2.4,1.9c-4.6,2.4-9.5,2.5-14.5,2.3c-6.6-4.5-10.4-10.4-9.9-18.8c0.2-3.4,0.8-7.2-2.3-10
		c-0.2-9.6-0.2-19.3-0.6-28.9c-0.2-3.9-1.2-7.3-6.6-5.8c-4.2,1.2-7.8,2.1-5.2,7.9c2.1,4.7,3.5,9.7,5.3,14.6
		c0.3,8.5-0.1,16.4-11.7,17c-11.2,0.6-16.4-5.2-17.3-15.5c-0.5-6-1.7-10.8-8.3-12.2C1083.9,923.9,1089.4,932.2,1084,939z
		 M1150.8,820.7c1-4.5-0.5-7.6-5.1-9.3c-9.8-3.5-19.5-7.3-29.1-11.1c-5.7-2.2-7.7,0.3-9.1,5.6c-4.1,15.9-8.5,31.6-13,47.4
		c-1.6,5.5-0.5,8.6,5.8,8.4c12.1-0.4,23.9,1.6,35.6,4.2c4.3,0.9,6.9-0.8,7.7-5.2C1146,847.4,1148.4,834.1,1150.8,820.7z"/>
	<path class="st5" d="M575,753.9c15.8,3.6,29.4-4.1,43.6-8.6c4.5-1.4,9.4-2.8,11.8-7.6c2.8-5.6,6.6-8.7,13.4-7.6
		c7.1,1.1,8.3,6.4,9.7,12c0.8,3.1,1.9,6,2.8,9c1.6,18.8,6.2,37.2,9.7,55.7c0.2,4.2-0.2,8.5,2.8,12c1,7.9,2.5,15.7,3,23.7
		c0.8,11.9,5.9,19.2,18.5,19.8c-7.2,21.6-14.5,43.2-21.7,64.8c-0.8-1.5-1.5-3-2.3-4.6c0.6-1.9,1.4-3.7,1.6-5.7
		c0.4-3.8,0.1-7.8-5-7.6c-4.7,0.2-3.4,4.5-3.6,7.4c-0.4,4.3-0.4,8.7-0.5,13.1c-14.5,14.9-24.2,14.1-31.1-2.4
		c2.2-6.4,4.5-12.8,6.6-19.3c1.8-5.6-2.1-7-6.3-7.9c-5.3-1.2-4.7,2.7-5,5.8c-1.4,14.3-3.1,28.6-2.3,43.1c-2.5,5.3-5.2,10.6-10,14.3
		c-19.9,0.2-24.2-5.4-19.4-24.9c0.2-0.8,0.1-1.7,0.5-2.3c15.1-31.5,9.8-62.5-0.7-94c-7.8-23.5-13.2-47.8-20.1-71.6
		C569.1,763.7,570,758.4,575,753.9z M602.4,813.2c2.2,12.2,4.3,23.6,6.4,35c0.5,2.8,1.5,5.4,1.9,8.2c0.7,5.1,3.6,5,7.8,4.3
		c11.9-1.8,23.7-4.5,35.8-3.8c5.7,0.3,6.8-1.9,5.2-7.3c-3.2-10.8-5.7-21.7-8.7-32.5c-6.4-23.7-6.5-23.7-29.9-15.3
		c-4.5,1.6-9.1,3.2-13.5,5.1C604.5,808.3,601.3,809.7,602.4,813.2z"/>
	<path class="st7" d="M1182.4,775c1.4-14.6-1.3-17.7-15.2-16c-3.5,0.4-6.2,0-9-1.8c19.4-4.3,38.2-14.4,58.5-10.8
		c13.3,2.4,26.5,3.5,39.9,4.9c7,0.7,11.6-6.2,18.1-3.9c19.6,7,36-0.9,51.9-10.8c24.8,6.6,49.9,10.7,75.7,9.5
		c-0.8,1.6-1.5,3.2-2.3,4.8c-3.6,0-6.1,2.1-8.2,4.7l-0.7-0.1c0,0-0.7,0.2-0.7,0.2c-33.4,13.5-67.6,23.6-103.6,28
		c-30.7,3.8-61.3,3.8-91.9,0.2C1190,783.4,1181.7,784.7,1182.4,775z"/>
	<path class="st4" d="M434.5,722c0.1,9.6,0.2,19.2,0.2,28.7c-6.1,3.5-12.3,0-18.5,0c-42.2,0.4-84.3,0.2-126.5,0.2
		c0-9.4,0-18.8,0-28.1C338.1,722.5,386.3,722.3,434.5,722z"/>
	<path class="st2" d="M1132,939.3c3.1,2.8,2.5,6.5,2.3,10c-0.5,8.4,3.3,14.3,9.9,18.8c-15.9,5.4-33.3,5.8-48.2,14.5
		c0.3-15.7-8.3-29-11.9-43.7c5.3-6.7-0.2-15,3.5-22.5c6.7,1.4,7.8,6.2,8.3,12.2c0.9,10.3,6.1,16.1,17.3,15.5
		c11.6-0.6,12-8.5,11.7-17c3.5,4.1,2.8,9.7,5.1,14.3c0.6-0.3,1.2-0.5,1.7-0.9C1131.9,940.3,1131.9,939.7,1132,939.3z"/>
	<path class="st1" d="M1640.8,746c-3.2,5.5-8.4,5-13.7,5c-33.1-0.1-66.3-0.5-99.4,0.2c-11.7,0.3-16.3-3.2-14.4-14.7
		c38.8,0,77.6-0.1,116.4,0c3.9,0,8.1-1.1,11.3,2.4c-0.3,0.2-0.8,0.6-0.7,0.7c0.1,0.6,0.5,1.1,0.8,1.7l0.2,0
		C1641.1,742.9,1640.9,744.5,1640.8,746z"/>
	<path class="st3" d="M1448.2,723.9c-16.4-6.9-33.8-12-46.4-25.7c26.6,0,53.1,0,79.7,0c0.1,8.3,0.2,16.7,0.3,25
		c-5.7,0.3-11.3,0.7-17,1C1459.3,724.1,1453.8,724,1448.2,723.9z"/>
	<path class="st2" d="M610.7,963.1c4.9-3.7,7.5-9,10-14.3c3.3-3.7,1.8-8.2,2.1-12.4c0.3-3.8-0.8-8.3,4.8-9.2
		c6.9,16.5,16.6,17.2,31.1,2.4c3.2-1.6,2.5-7.4,7.5-7.2c0.8,1.5,1.5,3,2.3,4.6c-4.8,14.5-9.7,29.1-14.5,43.6
		C638.8,972.2,625.2,964.9,610.7,963.1z"/>
	<path class="st1" d="M1182.4,775c-0.7,9.6,7.6,8.4,12.6,9c30.6,3.6,61.2,3.6,91.9-0.2c36-4.4,70.2-14.5,103.6-28
		c-0.5,2.6-2,3.9-4.5,5.1c-29.7,14-59.4,27.2-93,28.9c-17.9,0.9-35.6,4.8-53.6,4.7c-20.5-0.1-40.3-5-60.6-6.9
		C1180.1,783.5,1179.4,778.7,1182.4,775z"/>
	<path class="st10" d="M1641,738.9c-3.2-3.5-7.4-2.4-11.3-2.4c-38.8,0-77.6,0-116.4,0c-1.9,1-2.3,2.8-2.4,4.7
		c-6.4,0-12.8,0.1-19.2,0.1c-1-6.1-5.8-4.6-9.7-4.9l0,0c0.1-0.8,0.3-1.7,0.4-2.5c60.9,0.1,121.8,0.2,182.8,0.3
		c-1.5,2.4-4.8,3.7-4.7,7.1c-6.4,0-12.9-0.1-19.3-0.1l-0.2,0C1641,740.5,1641,739.7,1641,738.9z"/>
	<path class="st4" d="M1163.3,963.2c1.2-9.8-0.2-19.3-2.4-28.8c2.8,1.6,5.7,3,8.3,4.7c4.9,3.2,12.1,6.4,9.6,13.3
		C1176.7,958.4,1171.5,963.9,1163.3,963.2z"/>
	<path class="st11" d="M1641.2,741.3c6.4,0,12.9,0.1,19.3,0.1c-0.3,3.7,1.3,9.1-4.5,9.2c-5.3,0.1-12.3,3.7-15.2-4.6
		C1640.9,744.5,1641.1,742.9,1641.2,741.3z"/>
	<path class="st11" d="M1491.7,741.3c6.4,0,12.8-0.1,19.2-0.1c0.5,17-12.6,7.2-19.4,9.8C1491.6,747.8,1491.6,744.5,1491.7,741.3z"/>
	<path class="st12" d="M289.8,722.8c0,9.4,0,18.8,0,28.1l-1.1,0l-1.1-0.1c1.5-17-2.8-34.3,1.4-51.2l0.9,0.6
		C288.6,707.8,288.6,715.3,289.8,722.8z"/>
	<path class="st1" d="M1482.4,734c-0.1,0.8-0.3,1.7-0.4,2.5c-7.1-2.2-10.5-9.5-17.2-12.3c5.7-0.3,11.3-0.7,17-1
		C1482,726.8,1482.2,730.4,1482.4,734z"/>
	<path class="st4" d="M1491.7,741.3c-0.1,3.2-0.1,6.4-0.2,9.6c-5.7-3.2-8.7-8.2-9.5-14.5C1485.9,736.8,1490.7,735.2,1491.7,741.3z"
		/>
	<path class="st4" d="M1391.8,755.7c2.1-2.6,4.6-4.7,8.2-4.7C1399.2,756,1395.6,755.9,1391.8,755.7z"/>
	<path class="st4" d="M1158.7,965.8c0.8-0.6,1.6-1.3,2.4-1.9C1160.2,964.5,1159.4,965.1,1158.7,965.8z"/>
	<path class="st13" d="M1670.3,698c0.8,0,1.6,0.1,2.3,0.2c-0.8,0.7-1.6,1.5-2.4,2.2C1670.1,699.6,1670.1,698.8,1670.3,698z"/>
	<path class="st7" d="M1176.9,704c-3.8-2.4-3.5-5.2-1.9-9.2c17.1-41.9,31.4-84.8,42.3-128.7c2.9-11.8,5.1-23.8,7.6-35.7
		c4.6,1,5,4,5.6,6.6c14.4,58.7,37.1,114,66.8,166.5c0.8,1.3,0.8,3,1.2,4.6c-26,1.1-51.8,8.2-78,2.3
		C1206.2,707.1,1192,702.5,1176.9,704z"/>
	<path class="st1" d="M1097.6,760.9c-5.5,30.6-12,61-16.2,91.8c-1.9,13.7-13.5,11.2-20.3,16.6c-3.9-10.9-7.5-21.9-11.8-32.7
		c-2.2-5.5-0.9-8.2,4.7-9.5c4.3-1,8.4-2.5,12.7-3.7c9.4-2.5,16.9-5.9,17.1-18.1c0.3-12.3-5.3-18.5-16.3-21.5
		c-22.9-6.2-46.3-8.4-69.8-11.3c-20.3-2.5-40.8-1.4-61.1-3.5c-1.4-7.7,2.4-15.9-2.7-23.1c-0.9-13.4,9.1-17.7,18.6-22.3
		c18.9-1.8,37.8-1.5,56.7-0.1c-0.7,10.3,5.7,12.8,14.4,13.3c9.8,0.6,20.2-3,28.9,4.6c-8.1,14.7,4.6,8.2,9.7,9.6
		c5.3,1.5,8.2,7.7,14.4,7.4C1083.1,763,1090.7,759.5,1097.6,760.9z"/>
	<path class="st1" d="M1176.9,704c15.1-1.4,29.3,3.1,43.8,6.3c26.2,5.9,52-1.2,78-2.3c10.1,8.9,16.7,21.1,28.1,28.7
		c-16,10-32.3,17.8-51.9,10.8c-6.4-2.3-11.1,4.6-18.1,3.9c-13.3-1.3-26.6-2.5-39.9-4.9c-20.3-3.7-39.1,6.5-58.5,10.8
		c-5.4-2.1-10.8-4.1-16.2-6.2c8.2-15,22.3-26,28.2-42.6C1171,706.5,1174.6,705.5,1176.9,704z"/>
	<path class="st7" d="M1076.6,758.2c-6.2,0.3-9.2-5.9-14.4-7.4c12.5-5.8,26-9.8,36.7-18.9c5.3-4.5,7.5,2.7,11.5,2.2
		c-3.9,2.6-8.7,4.5-10,9.8c-0.7,0.8-1.4,1.5-2.2,2.3l0.1,0C1089.9,748,1084.5,755.3,1076.6,758.2z"/>
	<path class="st7" d="M1134.4,748.6c-6.1-0.6-10.1-4-12-9.8c6.2-5.7,8.6-14,14.8-22.5C1141.5,729,1135.7,738.7,1134.4,748.6z"/>
	<path class="st7" d="M1200.1,568.3c-4.1,18.3-8.2,36.7-12.3,55c0.9-18.9,3.7-37.4,9.1-55.4C1198,568.1,1199,568.2,1200.1,568.3z"/>
	<path class="st8" d="M1510.6,714.7c-8.7,1.4-12-1.5-11.9-11c0.4-44.9,0.4-89.9,0.1-134.8c-0.1-9.7,2.8-13.6,13-13.5
		c43.3,0.4,86.7,0.4,130.1,0c9-0.1,11.7,2.7,11.7,11.7c-0.4,45.3-0.4,90.7,0,136c0.1,8.7-2.2,13-11.4,11.7c-7.4-1-15.2,2.1-22.3-2.2
		c24.6-12,34.7-34.6,26.2-58.8c0.8-6.5-3.4-10.2-7.5-13.9c-16.2-21.7-38.2-24.8-66.8-9.4c-3.2-3.6-7.3-5.2-12.1-5.2
		c3.5-7.6-1.8-13.8-6.7-15c-6.7-1.6-7.2,6.3-8.2,11.5c-0.2,1.1-0.1,2.3-0.1,3.5c-14.6,2.9-16.3,6.8-8.4,19.3
		c-11.2,1.8-10.8,8.7-7.6,16.9c-10.3,3.3-13.6,9.5-7.6,19.2c-11,4.2-7.8,10.4-2.3,16.8c-4.2,1.3-10.5-1.5-11.9,5.4
		c-0.8,3.8-1.8,8.3,4,9.6C1510.8,713.3,1510.7,714,1510.6,714.7z"/>
	<path class="st8" d="M1552.2,239.9c-0.9-0.1-1.8-0.2-2.7-0.2c-6.5,0-12.9,0.1-19.4,0.1c-0.9-0.1-1.8-0.1-2.7-0.2c-2,0-4,0.1-6,0.1
		c-18.4-0.1-18.4-0.1-17.4,18.1c0,0.4,0.1,0.8,0.2,1.2c0,8.8,0,17.7,0,26.5c-0.1,6.4-0.3,12.8-0.4,19.1c-4.2,3.2-4.8,0-4.9-3
		c-0.1-24.5-0.1-49-0.1-73.5c0-4.5,3.1-7.2,5.9-10.1c21.3-21.3,42.7-42.5,63.8-64.1c5.3-5.4,8.8-6.3,14.6-0.4
		c21.3,21.9,43,43.4,64.7,64.9c3.7,3.6,5.5,7.5,5.5,12.7c-0.2,21.3-0.3,42.6,0,63.9c0.1,7.2-2.3,10.1-9.7,9.9
		c-15.3-0.4-30.5-0.1-45.8-0.1c-0.2-3.3-0.3-6.7-0.4-10c-0.2-0.6-0.3-1.2-0.5-1.8c0.2-14.4,0.5-28.8,0.7-43.2c0-1.9-0.1-3.8-0.1-5.8
		c-6.9-8.5-15.8-3.3-24-3.6C1566.4,240.2,1559.3,240,1552.2,239.9z"/>
	<path class="st7" d="M1596.9,292.9c0.1,0.6,0.3,1.2,0.5,1.8c-6.4,8.9-16.1,2.9-24,5.2c-0.8,0-1.5,0-2.3,0.1
		c-6.3,0-12.6-0.1-18.9-0.1c0-20,0-40,0-60c7.1,0.2,14.2,0.3,21.3,0.5c0.1,1.1,0.2,2.3,0.2,3.5c0,2,0,4,0.1,6
		c-0.1,6.7-0.2,13.5-0.2,20.2C1573.6,292.9,1573.6,292.9,1596.9,292.9z"/>
	<path class="st7" d="M1645.9,653.9c8.4,24.2-1.7,46.8-26.2,58.8c-7.6-0.1-15.2-0.2-22.9-0.3c0.8-3.5,1.1-7-0.6-10.3
		C1614.6,688,1631,671.7,1645.9,653.9z"/>
	<path class="st5" d="M1596.2,702.1c1.7,3.3,1.4,6.8,0.6,10.3c-1.2,0.1-2.3,0.2-3.4,0.3c-27.6,0-55.1-0.1-82.7-0.1
		c-5.8-1.4-4.8-5.8-4-9.6c1.4-6.8,7.7-4.1,11.9-5.4c21.5,0,43.1,0,64.6,0C1588.2,697,1592.2,699.7,1596.2,702.1z"/>
	<path class="st7" d="M1549.6,249.4c0,14.4,0,28.8,0,43.1c-6.5-0.1-12.9-0.2-19.4-0.3c-0.1-13.5-0.2-27-0.4-40.6
		C1535.9,247,1542.9,250,1549.6,249.4z"/>
	<path class="st7" d="M1503.8,304.5c0.1-6.4,0.3-12.8,0.4-19.1c2.7,8.9,9.8,8,16.4,6.9c7.1-1.2,4.5-7.4,4.7-11.7
		c0.4-7.5-0.2-15.1,0.2-22.6c0.4-8-3.9-9.3-10.4-8.7c-6.2,0.5-8.6,4.8-10.8,9.6c-0.1-0.4-0.2-0.8-0.2-1.2c-1-18.2-1-18.2,17.4-18.1
		c2,0,4-0.1,6-0.1c0,4,0.1,8,0.1,12.1c-0.1,13.7-0.1,27.3-0.2,41c-1.2,6.8,0.2,12.2,7.5,14.5c-3.3-0.3-7,0.7-9.6-2.5
		c-6.4-7.5-12.8-7.6-19.2,0C1505.4,304.6,1504.6,304.6,1503.8,304.5z"/>
	<path class="st7" d="M1510.7,712.7c27.6,0,55.1,0.1,82.7,0.1c-1.2,3.8-4.2,4.4-7.6,4.4c-23.3,0-46.5,0-69.8-0.2
		c-1.8,0-3.6-1.5-5.4-2.2C1510.7,714,1510.8,713.3,1510.7,712.7z"/>
	<path class="st1" d="M1534.9,307c-7.3-2.4-8.7-7.8-7.5-14.5c0.9-0.1,1.8-0.2,2.7-0.2c6.5,0.1,12.9,0.2,19.4,0.3
		C1552.1,304.9,1546,308.5,1534.9,307z"/>
	<path class="st1" d="M1573.4,299.9c7.9-2.2,17.5,3.7,24-5.2c0.2,3.3,0.3,6.7,0.4,10C1589.1,306,1579.1,313.6,1573.4,299.9z"/>
	<path class="st1" d="M1527.6,251.5c0-4-0.1-8-0.1-12.1c0.9,0.1,1.8,0.1,2.7,0.2c4.7,9.1,12.9,2.9,19.4,4.4c0,1.8,0,3.6,0,5.3
		c-6.6,0.6-13.7-2.4-19.8,2.3C1529,251.6,1528.3,251.6,1527.6,251.5z"/>
	<path class="st7" d="M1549.6,244.1c-6.5-1.5-14.7,4.8-19.4-4.4c6.5,0,12.9-0.1,19.4-0.1C1549.6,241.1,1549.6,242.6,1549.6,244.1z"
		/>
	<path class="st1" d="M1506.2,304.6c6.4-7.7,12.8-7.5,19.2,0C1518.9,304.5,1512.6,304.6,1506.2,304.6z"/>
	<path class="st1" d="M1552.2,299.8c6.3,0,12.6,0.1,18.9,0.1C1564.8,307.2,1558.4,307.7,1552.2,299.8z"/>
	<path class="st1" d="M445.5,422.8c-0.1-7-0.3-14-0.4-21c4-0.2,8-0.6,12-0.6c147.8,0,295.6,0.1,443.4-0.3c11.4,0,15,2.6,14.9,14.5
		c-0.7,62.6-0.6,125.3-0.8,187.9c-4-2.9-2.7-8-5.8-12.1c-8.3-11.1-19-8.9-29.6-9c0.2-0.8,0.2-1.5-0.1-2.3c4.5-14.5,2-21-11-27.2
		c-5.1-2.4-10.3-4.5-16.1-4.5c-19.5-5.4-39-4.6-58.5-0.2c-17.5,2.4-34.9,4.8-48,18.5c-0.8,0.4-1.5,0.7-2.3,1.1
		c-2.1-0.3-3.5-1.3-4.9-3c-12.9-15.2-26.8-29.8-42.1-42.5c-12.8-10.6-27.2-18.5-44.3-22.5c-24.1-5.6-44,3.5-64.1,13.5
		c-21.5,10.6-20.8,10.5-35.3-8.2C524.2,468.1,492.7,435.2,445.5,422.8z"/>
	<path class="st6" d="M897,697.7c-145.9,0.1-291.8,0.2-437.7,0.2c-4.8,0-9.6,0.1-14.5,0.2c0.1-24.3,0.1-48.6,0.2-73
		c4.8,0.1,9.6,0.4,14.4,0.4c66.5-1.1,133,2.4,199.4-2.1c3.9,5.8,9.8,4.4,15.3,4.4c65.3,0,130.6-0.2,196,0.2
		c14.6,0.1,33.6-6.7,42.5,3.3c8.2,9.1,2,27.6,2.2,42c0.1,5.8,2.2,12-2.2,17.4c-0.7-6.7-4.2-6.5-9.9-5.3
		C894.1,687.1,896,692.3,897,697.7z"/>
	<path class="st6" d="M446.5,398.5c-3.2-23.3-1.7-46.5,0.2-69.8c153.5,0,307.1,0,460.7-0.3c5.8,0,7.7,0.9,7.6,6.8
		c-0.3,18.1-0.3,36.2,0,54.2c0.1,6.6-2.1,9.9-9,9.2c-0.4,0-0.8,0-1.2,0C752,398.7,599.3,398.6,446.5,398.5z"/>
	<path class="st1" d="M468.1,276.1c-4.4-10.8-3.1-22.1-0.9-32.9c1.8-8.9,9.1-14,18.2-15.3c4.7-0.6,9.6-0.5,14.4-0.5
		c128,0,256.1,0,384.1,0c24.8,0,31.1,6.4,31.1,31.3c0,17.3,0.1,34.5,0,51.8c0,3.7,1.8,8.2-2.6,11l-0.2-0.4
		c0.1-25.3,5.9-32.1-25.2-38.6c-3.7-0.8-3.4-3.9-3.5-6.7c-0.9-11-6.5-18.3-17-21.8c-3.5-3-7.8-3.9-12.2-4.8
		c-27.3-5.2-54.3-3.8-80.9,3.7c-11.4,3.2-23.3,6.4-30.2,17.8c-0.7,2.4-1.3,4.7-2,7.1c-0.6,3.2-2.5,5-5.8,5c-9.6,0-19.3,0.1-28.9-0.1
		c-1.8,0-5-1-5.2-2c-2.3-10-10.1-7.4-16.4-7.4c-67.8-0.1-135.6-0.1-203.5,0c-4.3,0-8.9-1.2-12.9,1.7L468.1,276.1z"/>
	<path class="st8" d="M879.2,582.2c10.7,0.1,21.3-2.1,29.6,9c3.1,4.1,1.8,9.3,5.8,12.1c0,5.9,0,11.8,0,17.7
		c-89.2-0.1-178.5-0.1-267.8-0.2c0.1-16.1,0.1-32.2,0.2-48.3c14.1,0,28.1-0.1,42.2,0c3.5,0,8.2-1.3,10,2.3
		c4.2,8.5,11.5,7.2,18.6,7.2c8.4,0,16.9,0,25.3-0.1c1,0.3,2.1,0.6,3.1,0.9c1.9,0.5,3.8,1.4,5.7,1.4c39.5,0.1,79.1,0.1,118.7,0.1
		c2.8,0,5.6,0.1,7.9-2L879.2,582.2z"/>
	<path class="st7" d="M468.2,321.2c-0.8-0.2-2.1-0.4-2.2-0.7c-2.4-14.9-5.6-30,2.1-44.4l0.6-1c52.5,0.2,104.9,0.4,157.4,0.6
		c16.2,0,16.1,0,16.4,16.5c0,1.9,1.3,3.7,2,5.6c-0.2,8-0.4,16-0.7,23.9c-0.6-0.1-1.1-0.3-1.7-0.4c0.1-18.8-0.1-19-18.4-19
		c-43.2,0-86.4,0-129.6,0c-4.8,0-9.5,0.7-14.2,1.2C467.9,304.6,465,310.6,468.2,321.2z"/>
	<path class="st7" d="M468.2,321.2c-3.2-10.5-0.4-16.6,11.6-17.7c4.7-0.5,9.5-1.2,14.2-1.2c43.2,0,86.4,0,129.6,0
		c18.4,0,18.5,0.2,18.4,19C584.1,321.2,526.2,321.2,468.2,321.2z"/>
	<path class="st7" d="M444,317.2c-3.9-0.1-7.1,1.3-9.4,4.5c-49-0.1-97.9-0.2-146.8-0.2c-1.3-1-2.5-1.9-3.8-2.9
		c-5.4-3.6-4.1-9-3.8-14.1c54.7,0,109.3,0,164,0C444.1,308.8,444.1,313,444,317.2z"/>
	<path class="st8" d="M643.8,321.7c0.2-8,0.4-16,0.7-23.9c14,0,28.2,0.6,42.2-0.3c10.6-0.7,15,2.7,13.4,13.4
		c-1.1,7.4,1.7,10.8,9.9,10.8c67.5-0.4,134.9-0.4,202.3-0.5l0.2,0.4c-3.3,3.3-7.6,2-11.5,2c-81.9,0.1-163.7,0.1-245.6,0
		C651.5,323.5,647.3,324.3,643.8,321.7z"/>
	<path class="st6" d="M646.9,620.9c89.2,0.1,178.5,0.1,267.8,0.2c-4.2,3.5-9.2,2-13.9,2c-80.7,0.2-161.3,0.3-242,0.4
		c-66.4,4.5-133,1-199.4,2.1c-4.8,0.1-9.6-0.2-14.4-0.4c0.3-3,0.5-6,0.8-8.9c3.7,1.3,6,4.7,10.7,4.6c59.1-0.2,118.2-0.2,177.3-0.1
		c6.2,0,8.6-2.5,8.5-8.6c-0.3-11.7-0.2-23.3-0.2-35c0.1-0.5,0.1-1,0.2-1.6c0.5,0,1.1,0,1.6,0c0,4.8-0.5,9.6,0.2,14.2
		C645.5,600.2,640.9,611,646.9,620.9z"/>
	<path class="st9" d="M952.5,723.6c-9.6,4.6-19.6,8.9-18.6,22.3c-5.5-0.9-11.1-1.8-16.6-2.8c0-2.3,0.2-4.7-1.8-6.4
		c-1.4-7.3-2.7-14.7-4.2-22.2c2.2,0.8,4.3,1.7,6.4,2.5c1.4,1.7,2.8,3.3,4.2,5c0.7,4.8-1.3,10,2.1,14.4c11.5,4.9,6.4-5.3,8.3-9.2
		c2.8-2.5,4-5.8,4.4-9.5c1.7-0.5,4.8-3.1,4.7-1.9C940.5,725.5,948.2,722.1,952.5,723.6z"/>
	<path class="st14" d="M917.7,717c-2.1-0.8-4.2-1.6-6.4-2.5c1.4,7.6,2.8,14.9,4.2,22.2c-6.2-4.1-1.8-15.6-11.9-16.9
		c-0.4-0.4-0.6-1-0.7-1.5c0-3.6-0.1-7.3-0.2-10.9c1.3-5.7,3.8-10.3,10.6-10.5c1.3,0.4,2.6,0.8,3.9,1.2
		C917.3,704.4,917.5,710.7,917.7,717z"/>
	<path class="st15" d="M913.3,696.9c-6.8,0.2-9.3,4.7-10.6,10.5c-1.6,0.1-3.3,0.2-4.9,0.3l-0.1,0.5c0.1-2.7,0.2-5.4,0.3-8
		c-0.3-0.8-0.7-1.6-1-2.5c-1-5.4-2.9-10.6,5.8-12.3c5.7-1.1,9.2-1.3,9.9,5.3C912.8,692.8,913,694.9,913.3,696.9z"/>
	<path class="st16" d="M932.3,727.2c-1.8,3.9,3.2,14-8.3,9.2c4-7.6,2.3-15.9,3.1-23.8C935.7,715,929.9,722.6,932.3,727.2z"/>
	<path class="st17" d="M927.2,712.5c-0.8,8,0.9,16.3-3.1,23.8c-3.4-4.4-1.4-9.6-2.1-14.4c1.8-4.7-3.9-11.8,4.8-14.2
		C926.8,709.3,927,710.9,927.2,712.5z"/>
	<path class="st18" d="M926.7,707.8c-8.7,2.3-3,9.5-4.8,14.2c-1.4-1.7-2.8-3.3-4.2-5c-0.2-6.3-0.4-12.6-0.6-18.9
		C922.5,699.2,925.7,702.4,926.7,707.8z"/>
	<path class="st15" d="M1233.8,360.6c-3.3,12.6-9.7,23.9-16.8,35.3c0-11.2,0-22.3,0-33.5C1222.6,361.8,1228.2,361.2,1233.8,360.6z"
		/>
	<path class="st1" d="M979.6,915.2c-34.8,0.4-69.6-5-104.4-2.3c-31.1,2.4-62.2,2.2-93.3,4.3c-0.5-24.1,5.3-47.7,5.3-71.7
		c0-8,5-8,10.5-7.6c34.4,3,68.8,2.3,103.2,2c19.2-0.2,38.4-1,57.5-2.3c10.2-0.7,14.7,1.3,15.1,13.2
		C974.1,872.4,977.4,893.8,979.6,915.2z"/>
	<path class="st1" d="M666,806.7c-3.5-18.5-8.1-36.8-9.7-55.7c54.7,0,109.4,0,164-0.1c11,0,21.3,3.7,32,5.1
		c-3.9,3.8-7.7,7.7-11.6,11.5C789.5,769,738.3,771,688,782.2C669.2,786.3,667.1,788.3,666,806.7z"/>
	<path class="st3" d="M1028.2,782.4c4.6,6.3,10.6,11.8,12.9,20.3c-1.5,0.4-2.9,1.1-4.4,1.2c-37.6,0.6-75.2-0.5-112.8,2.6
		c-10.3,0.8-11.2-1.8-8.6-12.2c3.2-13.1,9.7-15.7,21.2-14.3c5.5,0.7,11.2,0.2,16.8,0.2c0.9,4.6-6,3.6-5.7,7.8
		c12,3.2,23.4,19.5,35.6,1.5c-0.9-4.8-7.3,1.3-7.1-3.8c0.2-4.5,4.8-3.3,7.7-3.3C998.6,782.3,1013.4,782.4,1028.2,782.4z"/>
	<path class="st5" d="M750.6,939.4c-1.7,9.5-6.4,15.6-17,14c-10.3-1.6-15.2-7.8-14.3-18.4c0.2-2-0.3-4-0.5-5.9
		c1.1-12.7,2.2-25.4,3.4-38.2c2.1,0.2,1-9.9,5.7-1.8c1.8,3.1,3.7,6.1,5.5,9.1C736.8,912.9,744.8,925.8,750.6,939.4z"/>
	<path class="st1" d="M733.4,898.2c-1.8-3-3.7-6-5.5-9.1c-4.7-8.1-3.5,2-5.7,1.8c1.6-17,1.9-34.3,5.1-51.1
		c2.4-12.7,13.5-5.7,20.9-5.4c8.8,0.3,6.2,6.4,4.4,11.1C745.9,863,742.3,881.6,733.4,898.2z"/>
	<path class="st5" d="M1032.3,951c-4.5,0.8-5.2,6.7-10.2,7.3c-13.4,1.7-20.4-3.8-17.7-18.6c8.3-12.9,13.2-27.3,19.5-41.1
		c1.3,0,2.5,0.1,3.8,0.2C1029.2,916.1,1030.7,933.5,1032.3,951z"/>
	<path class="st14" d="M917.3,743.2c5.5,0.9,11.1,1.8,16.6,2.8c5.1,7.2,1.4,15.5,2.7,23.1c-13.1,9.1-22.7,8.8-29.7-0.9
		c-4.4-5-4-11.1-4-17.1c0.5-4.8,4.6-4.8,8-5.7C913.5,746.2,915.9,746.3,917.3,743.2z"/>
	<path class="st1" d="M690.2,862.1c-12.6-0.5-17.7-7.8-18.5-19.8c-0.5-7.9-2-15.8-3-23.7c3,1,6.2,1.8,8.9,3.2
		c7.3,3.8,20.3,1.7,22,8.7c1.9,7.7-4.2,17.3-7,26C692.1,858.6,691.1,860.3,690.2,862.1z"/>
	<path class="st18" d="M902.8,751c0,6-0.4,12.2,4,17.1c-8.1,0.1-16.2,0.2-24.3,0.3c-6.2-0.2-12.4-0.3-18.6-0.5c0-2.4,0-4.9-0.1-7.3
		c-0.5-6.8,2-10.1,9.5-9.8C883.2,751.4,893,751,902.8,751z"/>
	<path class="st14" d="M878.6,780c4,6.7,2.2,14.1,2.2,21.2c0,8.4-5.7,10.2-13,10.5c-8.4,0.4-8.9-4.4-8.7-10.6c0.2-4-0.3-8-0.4-12
		c0.4-3,0.8-6.1,1.2-9.1C866.2,779.9,872.4,780,878.6,780z"/>
	<path class="st1" d="M1027.7,898.7c-1.3,0-2.5-0.1-3.8-0.2c-2.6-19.3-11.5-36.6-16.5-55.2c-0.9-3.3-6-8.7,2.2-10
		c5.5-0.9,11.4-1.7,12.2,7C1023.4,859.8,1025.7,879.2,1027.7,898.7z"/>
	<path class="st13" d="M1028.2,782.4c-14.8,0-29.6-0.1-44.4,0.1c-2.9,0-7.5-1.2-7.7,3.3c-0.2,5.1,6.2-1,7.1,3.8
		c-12.1,18-23.6,1.7-35.6-1.5c-0.3-4.2,6.6-3.2,5.7-7.8c22-0.1,44-0.2,66-0.2C1022.5,780,1025.8,779.5,1028.2,782.4z"/>
	<path class="st16" d="M860,779.9c-0.4,3-0.8,6.1-1.2,9.1c-9.8,1-14.9-2.6-13.7-13.2c0.4-3.5,0.4-7.2-4.3-8.3
		c3.9-3.8,7.7-7.7,11.6-11.5c4.9-1.1,8,2.4,11.6,4.7c0,2.4,0,4.9,0.1,7.3C861.2,771.5,860.5,775.7,860,779.9z"/>
	<path class="st3" d="M811.5,808.7c-9.9-1.5-19.8-3.1-29.7-4.6c-0.1-4.8-0.2-9.6-0.3-14.3c6.8-1.6,7.8,4.2,10.2,10.5
		c4.3-10.9,12-10.9,19.9-10.5C811.5,796,811.5,802.3,811.5,808.7z"/>
	<path class="st18" d="M811.5,808.7c0-6.3,0-12.7,0.1-19c11.1-1,12.4,8.9,12.5,14.8C824.3,811.8,815.9,807.4,811.5,808.7z"/>
	<path class="st3" d="M860,779.9c0.6-4.2,1.2-8.5,4-11.9c6.2,0.2,12.4,0.3,18.6,0.5c-4.6,2.7-4.1,7.2-4,11.6
		C872.4,780,866.2,779.9,860,779.9z"/>
	<path class="st18" d="M781.5,789.7c0.1,4.8,0.2,9.6,0.3,14.3c-6.2-1.2-17.3,3.5-13.5-10.2C770.2,786.9,777,791,781.5,789.7z"/>
	<path class="st2" d="M643.8,575.6c-0.5,0-1.1,0-1.6,0c-4.8-0.3-9.5-1-14.3-1c-56.5,0-112.9,0.1-169.3,0c-4.7,0-9.7,1.3-13.7-2.7
		c0.2-49.8,0.4-99.5,0.5-149.3c47.2,12.4,78.8,45.4,107.2,82c14.5,18.8,13.8,18.9,35.3,8.2c20.1-9.9,40-19.1,64.1-13.5
		c17,4,31.5,11.9,44.3,22.5c15.3,12.7,29.2,27.2,42.1,42.5c1.4,1.7,2.9,2.7,4.9,3c-1.7,4.8-1.5,9.6-0.1,14.5
		c-8.4,0-16.9,0.1-25.3,0.1c-7.1,0-14.5,1.3-18.6-7.2c-1.8-3.7-6.5-2.3-10-2.3c-14.1-0.1-28.1,0-42.2,0
		C646,573.6,644.9,574.6,643.8,575.6z"/>
	<path class="st2" d="M361.9,461.4c20.9,0,41.7,0.3,62.5-0.1c7.5-0.2,10.9,1.4,10.5,9.8c-0.7,13.6-0.5,27.3,0,40.9
		c0.2,7.1-1.6,9.8-9.3,9.7c-42.5-0.4-85-0.4-127.5,0c-8.5,0.1-10-3.2-9.7-10.5c0.4-12.8,0.6-25.7-0.1-38.5
		c-0.5-8.7,1.7-12,11.2-11.6c20.8,0.8,41.7,0.2,62.5,0.2C361.9,461.3,361.9,461.4,361.9,461.4z"/>
	<path class="st5" d="M642,577.2c0,11.7-0.1,23.3,0.2,35c0.2,6.1-2.2,8.6-8.5,8.6c-59.1-0.1-118.2-0.1-177.3,0.1
		c-4.6,0-7-3.4-10.7-4.6c-1.8-13-1.4-26-0.6-38.9C510.8,577.3,576.4,577.3,642,577.2z"/>
	<path class="st6" d="M287.8,321.5c49,0.1,97.9,0.2,146.8,0.2c0,16-0.3,32.1,0.1,48.1c0.2,7.4-2.6,9.8-9.9,9.7
		c-41.7-0.2-83.5-0.3-125.2,0c-7.3,0.1-9.7-2.9-11-9.4c-1.9-9.6-2-19.4-0.5-28.7C289.5,334.6,289.2,328.2,287.8,321.5z"/>
	<path class="st2" d="M290,577.1c-3.5-13.4-0.9-27-1.5-40.5c-0.2-4.5,3.2-4.8,6.6-4.8c44.1,0,88.2,0.1,132.4-0.1
		c6.1,0,7.5,2.5,7.3,8c-0.4,11.6-0.3,23.2-0.5,34.9c-43.1,0.1-86.2,0.1-129.2,0.2C300,574.8,294.7,574,290,577.1z"/>
	<path class="st1" d="M434.2,403.6c0,5.6,0,11.2,0,16.8c-24.7-1.6-47.2,6.2-68.8,17c-5.3,2.6-14,3.5-12.9,13.2
		c-19.4,0-38.7,0.1-58.1,0.1c-1.4-0.4-2.9-0.9-4.3-1.3c-2.1-13.5-0.3-27.1-1-40.6c-0.3-6.7,3.2-7.9,8.9-7.8
		c44.8,0.3,89.5,0.4,134.2,0.5C432.9,402.1,433.5,402.9,434.2,403.6z"/>
	<path class="st6" d="M434.3,627.7c1.6,34,1.6,34-31.7,34c-33.6,0-67.2-0.3-100.8,0.2c-9.7,0.2-12.9-3.1-12.1-12.4
		c0.6-7.2,0.2-14.4,0.2-21.6C338,627.9,386.1,627.8,434.3,627.7z"/>
	<path class="st6" d="M289,699.7c2.6-8-3.3-19,3.4-24c7-5.4,17.8-1.8,27-1.8c33.3-0.2,66.6-0.1,99.9-0.1c15.4,0,15.5,0,15.5,15.9
		c0,3.6,0,7.2,0,10.8c-48.2-1.2-96.5-0.9-144.8-0.2L289,699.7z"/>
	<path class="st3" d="M289.8,700.3c48.3-0.7,96.5-1,144.8,0.2c0,7.2,0,14.4,0,21.5c-48.2,0.3-96.5,0.5-144.7,0.8
		C288.6,715.3,288.6,707.8,289.8,700.3z"/>
	<path class="st5" d="M290.2,620.7c-0.1-3.6-0.1-7.2-0.4-10.8c-0.3-5.4,1.6-8.1,7.5-8.1c43.2,0.1,86.4-0.5,129.6,0.3
		c13.6,0.2,5.3,12.1,7,18.6C386.1,620.7,338.2,620.7,290.2,620.7z"/>
	<path class="st5" d="M290,577.1c4.7-3.1,10-2.3,15.1-2.3c43.1-0.1,86.2-0.2,129.2-0.2c0.7,17.2,0.7,17.2-16.1,17.2
		c-38.1,0-76.3-0.4-114.4,0.2C292.2,592.2,287.3,588.9,290,577.1z"/>
	<path class="st2" d="M352.5,450.5c-1.1-9.6,7.7-10.5,12.9-13.2c21.5-10.8,44.1-18.5,68.8-17c2.1,30.7,2.1,30.8-27.9,30.7
		C388.3,451,370.4,450.7,352.5,450.5z"/>
	<path class="st6" d="M432.3,401.4c-44.8-0.1-89.5-0.2-134.2-0.5c-5.7,0-9.2,1.1-8.9,7.8c0.7,13.5-1.1,27.1,1,40.6
		c0,0.7,0.1,1.3,0.4,1.9c-6.3-6.8-2.8-15.2-2.8-22.7c0-11.9-5.4-26.9,2.6-34.7c7.4-7.2,22.2-2.1,33.8-2.2c33.3-0.3,66.6,0,100-0.2
		c7.4-0.1,11.8,1.5,10.5,10C433.8,401.1,433,401.1,432.3,401.4z"/>
	<path class="st5" d="M290.2,620.7c47.9,0,95.9,0,143.8,0c0.1,2.3,0.1,4.7,0.2,7c-48.1,0.1-96.3,0.2-144.4,0.2
		C290,625.5,290.1,623.1,290.2,620.7z"/>
	<path class="st5" d="M642,577.2c-65.6,0-131.3,0-196.9,0.1c-0.1-1.8-0.1-3.5-0.2-5.2c3.9,4,9,2.7,13.7,2.7
		c56.5,0,112.9-0.1,169.3,0c4.8,0,9.5,0.6,14.3,1C642.2,576.2,642.1,576.7,642,577.2z"/>
	<path class="st15" d="M290.5,451.3c-0.3-0.6-0.4-1.2-0.4-1.9c1.4,0.4,2.9,0.9,4.3,1.3C293.1,450.9,291.9,451.1,290.5,451.3z"/>
	<path class="st15" d="M432.3,401.4c0.8-0.3,1.5-0.3,2.3-0.1c0.1,0.8,0,1.5-0.4,2.2C433.5,402.9,432.9,402.1,432.3,401.4z"/>
	<path class="st3" d="M898,700.1c-0.1,2.7-0.2,5.4-0.3,8c-1.5-0.3-2.9-0.5-4.4-0.9c-0.3-0.1-0.6-0.5-0.9-0.8
		c-0.1,0.2-0.3,0.3-0.4,0.5c0,5.7,2.7,10.6,4.5,15.7c-145.9,0-291.8,0-437.7,0c-7.7,0-14,0.5-13.6-10.8c0.3-9.6,3.4-12,12.6-12
		C604.6,700.2,751.3,700.1,898,700.1z"/>
	<path class="st17" d="M917.3,743.2c-1.4,3.1-3.8,3-6.5,2.2c-1.4-4.8-6.6-7.9-5.8-13.6c-0.1-4-3.4-7.6-1.5-11.9
		c10.1,1.3,5.7,12.9,11.9,16.9C917.5,738.5,917.3,740.9,917.3,743.2z"/>
	<path class="st16" d="M903.5,719.8c-1.9,4.3,1.5,7.9,1.5,11.9c-7.3,1.2-6.4-5.3-8.5-9c-1.9-5.1-4.5-10-4.5-15.7
		c0.1-0.2,0.3-0.3,0.4-0.5c0.3,0.3,0.5,0.7,0.9,0.8c1.4,0.3,2.9,0.6,4.4,0.9l0.1-0.5c-1.3,5-0.4,8.8,5.1,10.6
		C902.9,718.9,903.1,719.4,903.5,719.8z"/>
	<path class="st1" d="M1150.8,820.7c-2.4,13.3-4.8,26.7-7.2,40c-0.8,4.5-3.3,6.2-7.7,5.2c-11.7-2.6-23.5-4.6-35.6-4.2
		c-6.3,0.2-7.4-3-5.8-8.4c4.5-15.8,8.9-31.5,13-47.4c1.4-5.3,3.3-7.9,9.1-5.6c9.7,3.8,19.4,7.5,29.1,11.1
		C1150.4,813.1,1151.8,816.2,1150.8,820.7z"/>
	<path class="st1" d="M1132,939.3c-0.1,0.4,0,0.9-0.2,1.1c-0.5,0.4-1.2,0.6-1.7,0.9c-2.3-4.5-1.6-10.2-5.1-14.3
		c-1.7-4.9-3.1-9.9-5.3-14.6c-2.6-5.8,1-6.8,5.2-7.9c5.4-1.5,6.4,2,6.6,5.8C1131.8,920.1,1131.8,929.7,1132,939.3z"/>
	<path class="st7" d="M1076.6,758.2c7.8-2.9,13.2-10.3,21.7-12c-0.3,4.9-0.5,9.8-0.8,14.7C1090.7,759.5,1083.1,763,1076.6,758.2z"/>
	<path class="st17" d="M1098.3,746.3c0.7-0.8,1.4-1.5,2.2-2.3C1099.7,744.8,1099,745.5,1098.3,746.3z"/>
	<path class="st1" d="M602.4,813.2c-1.1-3.6,2.1-5,5-6.2c4.4-1.9,9-3.5,13.5-5.1c23.4-8.4,23.5-8.4,29.9,15.3
		c2.9,10.8,5.5,21.8,8.7,32.5c1.6,5.3,0.4,7.6-5.2,7.3c-12.1-0.7-23.9,2-35.8,3.8c-4.2,0.7-7.1,0.8-7.8-4.3
		c-0.4-2.8-1.4-5.5-1.9-8.2C606.7,836.9,604.6,825.4,602.4,813.2z"/>
	<path class="st1" d="M627.7,927.2c-5.7,0.9-4.6,5.4-4.8,9.2c-0.3,4.2,1.2,8.8-2.1,12.4c-0.8-14.4,0.9-28.8,2.3-43.1
		c0.3-3.1-0.2-7,5-5.8c4.2,1,8.1,2.3,6.3,7.9C632.2,914.3,629.9,920.7,627.7,927.2z"/>
	<path class="st1" d="M666.3,922.3c-5-0.2-4.2,5.6-7.5,7.2c0.2-4.3,0.2-8.7,0.5-13.1c0.2-2.9-1-7.2,3.6-7.4c5-0.2,5.3,3.8,5,7.6
		C667.7,918.5,666.8,920.4,666.3,922.3z"/>
	<path class="st18" d="M1641,738.9c0,0.8,0,1.6,0,2.4c-0.3-0.6-0.6-1.1-0.8-1.7C1640.2,739.5,1640.7,739.2,1641,738.9z"/>
	<path class="st7" d="M1528.4,661.6c-3.2-8.2-3.6-15.2,7.6-16.9c9.5-0.4,19,1.2,28.4-1.8c6.4-2,9.6-5.4,7.1-12.3
		c28.6-15.4,50.5-12.3,66.8,9.4c-14.3,19.6-32.2,35.7-49.9,51.9c1-7.7-4.5-10.3-10.1-12.7c4.8-1.7,7.4-4.7,6.1-10
		c-1.5-5.7-6.3-5-10.7-5.3C1558.6,662.8,1543.3,666.3,1528.4,661.6z"/>
	<path class="st7" d="M1578.3,679.1c5.7,2.4,11.1,5,10.1,12.7c-0.1,3.4-3.3,4.1-5.3,5.8c-21.5,0-43.1,0-64.6,0
		c-5.5-6.5-8.7-12.6,2.3-16.8C1540.1,683.6,1559.1,676.9,1578.3,679.1z"/>
	<path class="st19" d="M1583.2,697.7c2-1.7,5.1-2.4,5.3-5.8c17.8-16.2,35.7-32.3,49.9-51.9c4.2,3.8,8.4,7.5,7.5,13.9
		c-14.9,17.8-31.3,34.1-49.7,48.3C1592.2,699.7,1588.2,697,1583.2,697.7z"/>
	<path class="st5" d="M1578.3,679.1c-19.2-2.2-38.2,4.5-57.4,1.7c-6.1-9.8-2.7-15.9,7.6-19.2c14.9,4.7,30.2,1.2,45.2,2.2
		c4.4,0.3,9.2-0.4,10.7,5.3C1585.7,674.4,1583.1,677.4,1578.3,679.1z"/>
	<path class="st5" d="M1571.6,630.5c2.4,6.9-0.8,10.2-7.1,12.3c-9.4,3-18.9,1.4-28.4,1.8c-7.8-12.5-6.2-16.3,8.4-19.3c5,0,10,0,15,0
		C1564.3,625.3,1568.4,626.9,1571.6,630.5z"/>
	<path class="st7" d="M1559.5,625.3c-5,0-10,0-15,0c0-1.2-0.2-2.4,0.1-3.5c1.1-5.2,1.5-13.1,8.2-11.5
		C1557.7,611.5,1563,617.7,1559.5,625.3z"/>
	<path class="st1" d="M1596.9,292.9c-23.3,0-23.3,0-23.3-22.9c0-6.7,0.1-13.5,0.2-20.2c7.9,0,15.8-0.1,23.8-0.1
		C1597.4,264.1,1597.1,278.5,1596.9,292.9z"/>
	<path class="st1" d="M1504.3,258.8c2.2-4.8,4.6-9.1,10.8-9.6c6.6-0.6,10.9,0.7,10.4,8.7c-0.4,7.5,0.2,15.1-0.2,22.6
		c-0.2,4.3,2.4,10.5-4.7,11.7c-6.6,1.1-13.7,2-16.4-6.9C1504.3,276.5,1504.3,267.7,1504.3,258.8z"/>
	<path class="st1" d="M1573.8,243.8c-0.1-1.2-0.2-2.3-0.2-3.5c8.1,0.2,17.1-5,24,3.6C1589.6,243.9,1581.7,243.8,1573.8,243.8z"/>
	<path class="st7" d="M1573.8,243.8c7.9,0,15.8,0.1,23.7,0.1c0,1.9,0.1,3.8,0.1,5.8c-7.9,0-15.9,0.1-23.8,0.1
		C1573.8,247.8,1573.8,245.8,1573.8,243.8z"/>
	<path class="st7" d="M1527.6,251.5c0.7,0.1,1.4,0.1,2.2,0.2c0.1,13.5,0.2,27,0.4,40.6c-0.9,0.1-1.8,0.2-2.7,0.2
		C1527.5,278.9,1527.5,265.2,1527.6,251.5z"/>
	<path class="st5" d="M852.1,548.2c5.8,0,11,2.2,16.1,4.5c13,6.1,15.5,12.7,10.9,27.2c-40-0.1-80-0.5-119.9,0.1
		c-10.6,0.2-14.9-3.1-13.6-13.5c13.1-13.6,30.6-16.1,48-18.5C813.1,548.2,832.6,548.2,852.1,548.2z"/>
	<path class="st5" d="M745.6,566.5c-1.3,10.4,3,13.6,13.6,13.5c40-0.6,79.9-0.1,119.9-0.1c0.3,0.8,0.3,1.5,0.1,2.3
		c0,0-0.6,0.2-0.6,0.2c-44.1,0.2-88.2,0.4-132.2,0.5c-1-0.3-2.1-0.6-3.1-0.9c-1.5-4.8-1.6-9.7,0.1-14.5
		C744.1,567.3,744.9,566.9,745.6,566.5z"/>
	<path class="st5" d="M852.1,548.2c-19.5,0-39-0.1-58.5-0.2C813.2,543.6,832.6,542.8,852.1,548.2z"/>
	<path class="st8" d="M912.2,321.1c-67.5,0.1-134.9,0.1-202.3,0.5c-8.2,0-11-3.3-9.9-10.8c1.6-10.7-2.7-14.1-13.4-13.4
		c-14,0.9-28.1,0.3-42.2,0.3c-0.7-1.9-1.9-3.7-2-5.6c-0.3-16.5-0.2-16.5-16.4-16.5c-52.5-0.2-105-0.4-157.4-0.6
		c4-2.8,8.5-1.7,12.9-1.7c67.8-0.1,135.6-0.1,203.5,0c6.4,0,14.2-2.5,16.4,7.4c0.2,1,3.4,2,5.2,2c9.6,0.2,19.3,0.1,28.9,0.1
		c3.3,0,5.2-1.8,5.8-5c1.8,6,6.4,6,11.5,6c39.3-0.1,78.6-0.2,117.9,0.1c6.7,0,10.7-2.1,12.8-8.1c0.2,2.8-0.1,5.9,3.5,6.7
		C918.1,289,912.3,295.8,912.2,321.1z"/>
	<path class="st7" d="M743.3,270.8c6.8-11.4,18.8-14.5,30.2-17.8c26.6-7.5,53.7-9,80.9-3.7c4.3,0.8,8.7,1.7,12.2,4.8
		c-2,8.3-3.9,16.6-14.9,16.8c-15.1,0.3-30,2.9-45.2,2.8C785.3,273.4,764.3,272.4,743.3,270.8z"/>
	<path class="st7" d="M743.3,270.8c21,1.6,42,2.6,63.2,2.8c15.2,0.1,30.1-2.5,45.2-2.8c11-0.2,12.9-8.5,14.9-16.8
		c10.5,3.5,16.1,10.8,17,21.8c-2.2,6-6.2,8.2-12.8,8.1c-39.3-0.3-78.6-0.2-117.9-0.1c-5,0-9.7,0-11.5-6
		C742,275.5,742.7,273.1,743.3,270.8z"/>
	<path class="st5" d="M746.4,583c44.1-0.2,88.2-0.4,132.2-0.5c-2.3,2.1-5.1,2-7.9,2c-39.5,0-79.1,0-118.7-0.1
		C750.2,584.4,748.3,583.5,746.4,583z"/>
	<path class="st8" d="M643.8,575.6c1.1-1,2.2-2,3.3-3c-0.1,16.1-0.1,32.2-0.2,48.3c-6-9.8-1.4-20.7-2.9-31
		C643.3,585.2,643.8,580.4,643.8,575.6z"/>
	<path class="st3" d="M902.8,718.3c-5.4-1.7-6.4-5.6-5.1-10.6c1.6-0.1,3.3-0.2,4.9-0.3C902.7,711,902.8,714.7,902.8,718.3z"/>
	<line class="st20" x1="289" y1="1018" x2="289" y2="972"/>
	<rect x="1615" y="433" class="st5" width="34" height="14"/>
	<rect x="1653" y="350" class="st5" width="17" height="47"/>
</g>
</svg>
