<?xml version="1.0" encoding="utf-8"?>
<!-- Generator: Adobe Illustrator 27.0.1, SVG Export Plug-In . SVG Version: 6.00 Build 0)  -->
<svg version="1.1" id="Calque_1" xmlns="http://www.w3.org/2000/svg" xmlns:xlink="http://www.w3.org/1999/xlink" x="0px" y="0px"
	 viewBox="0 0 595.28 841.89" style="enable-background:new 0 0 595.28 841.89;" xml:space="preserve">
<style type="text/css">
	.st0{fill:#FFE803;}
</style>
<path id="Character" class="st0" d="M200.37,511.88c-5.22,22.34-10.02,44.79-15.77,66.99c-9.69,37.39-12.1,75.56-13.53,113.89
	c-0.41,10.94-0.86,21.88-1.35,32.81c-0.47,10.66-5.29,19.38-12.33,27.03c-4.65,5.05-6.74,10.42-3.42,17.1
	c0.82,1.65,0.79,3.73,1.16,5.61c3.46,17.63,2.81,18.44-15.65,18.4c-7.11-0.01-14.19,0.17-21.14-2.18c-6.96-2.36-9.97-6.8-7.95-13.77
	c2.54-8.75,1.2-16.64-3.25-24.43c-6.89-12.08-6.08-25.38-5.16-38.52c1.15-16.35,1.77-32.66,1.87-49.09
	c0.18-30.39,4.23-60.57,9.69-90.5c0.59-3.22,1.51-6.49,1.39-9.71c-1.22-33.46-0.04-66.77,6.47-102.45
	c-8.61,6.7-14.82,4.45-20.79-0.97c-5.39-4.9-12.56-8.09-13.86-16.48c-0.68-4.39-3.81-5.75-7.9-5.09c-4.83,0.78-6.28-1.83-6.66-6.02
	c-4.4-49.07-9.25-98.1-6.06-147.52c0.7-10.81-1.98-21.79-2.24-32.71c-0.45-18.39-0.01-36.8-0.37-55.19
	c-0.14-6.91,2.38-11.1,8.52-14.34c12.82-6.77,25.06-14.65,37.97-21.24c11.72-5.98,19.01-16.35,27.32-25.65
	c3.61-4.04-1.12-8.29-3.15-11.67c-6.66-11.09-7.48-22.64-4.52-34.86c5.93-24.46,20.05-33.49,44.8-28.99
	c11.85,2.15,22.56,6.5,32.05,13.93c3.28,2.57,5.54,5.43,4.19,9.79c-2.28,7.37,0.95,13.66,4.7,19.25c2.44,3.62,3.18,6.55,2.02,10.55
	c-0.9,3.1-1.91,6.33-0.57,9.66c1.37,3.39,0.34,5.82-3.01,7.35c-1.57,0.72-2.96,1.9-2.3,3.79c0.84,2.37,3.15,2.21,4.9,1.64
	c4.42-1.44,8.64-3.47,13.07-4.85c11.59-3.61,13.5-1.57,22.28,6.24c12.13,10.78,26.88,16.7,43.72,12.84
	c11.8-2.7,23.77-2.8,35.72-3.84c16.87-1.48,33.66-3.83,50.63-4.06c22.93-0.31,45.81-3.72,68.78-1.38
	c5.94,0.61,10.77-1.85,15.32-4.87c8.86-5.89,17.27-6.28,25.53,0.97c0.81,0.71,1.79,1.28,2.76,1.77c6.25,3.1,12.92,5.68,9.55,15.11
	c-3.98,11.12-12.26,17.95-21.41,16.85c-3.8-0.46-7.68-0.83-11.33-1.91c-8.46-2.5-16.18-4.41-18.57,7.83
	c-0.62,3.17-4.33,3.84-7.32,4.52c-29.62,6.74-59.59,11.67-89.19,18.78c-21.63,5.19-44.49,5.24-66.81,7.53
	c-11.36,1.17-11.41,2.31-14.15,12.99c-6.66,25.86-2.83,51.67,2.69,76.48c5.6,25.18,9.92,50.9,19.1,75.29
	c2.78,7.39,3.77,15.43,6.17,22.99c2.13,6.7-0.19,10.41-6.4,12.62c-3.09,1.1-6.09,2.49-9.07,3.85c-8.04,3.68-13.13,11.2-11.04,19.64
	c8.27,33.32,4.12,67.03,4,100.6c-0.07,18.34,6.22,35.51,9.02,53.31c3.01,19.15,7.67,38.33,7.87,57.53
	c0.17,16.29-0.28,32.8-1.1,49.18c-0.38,7.56,1.38,13.98,6.3,19.69c6.48,7.52,9.89,16.31,10.31,26.26c0.21,5.01,2.81,8.79,6.45,11.94
	c4.76,4.12,9.47,8.31,14.42,12.21c3.77,2.97,6.04,6.18,4.48,11.24c-1.54,4.99-4.77,8.09-9.85,8.71c-13.13,1.6-25.48-1.83-37.57-6.45
	c-2.54-0.97-4.91-3.32-7.4-3.39c-13.37-0.35-16.44-8.83-20.56-20.06c-13.28-36.27-28.46-71.9-35.74-110.04
	c-8.21-43.02-18.63-85.64-23.98-129.19c-0.13-1.04-0.64-2.04-0.97-3.06C201.57,512.05,200.97,511.96,200.37,511.88z M122.1,443.37
	c0.59-8.32,1.47-16.43-1.76-24.36c-1.97-4.83-3.3-11.04-0.28-15.15c8.08-11,5.68-22.22,5.09-34.64c-0.92-19.1-2.64-38.13-4.3-57.14
	c-0.69-7.84-4.91-15.18-12.04-22.54c0.53,13.5-0.09,25.17-1.5,36.78c-1.85,15.29-0.95,30.51,1.8,45.55
	c2.21,12.05,4.45,23.77,4.17,36.35C113,420.05,116.63,432.24,122.1,443.37z M174.45,191.15c-7.37,0.92-7.19,0.95-6.6-3.17
	c0.88-6.14,6.53-12.5,3.75-17.77c-2.93-5.56-11.41-5.66-17.05-8.99c-0.47-0.28-0.96-0.58-1.48-0.7c-3.29-0.8-6.2-5.89-9.28-3.07
	c-2.79,2.55-0.61,7.26,0.17,10.94c0.93,4.36,2.97,8.18,6.27,11.32c2.98,2.83,5.84,5.78,8.66,8.76c1.04,1.1,3.1,3.38,1.3,3.94
	c-9.84,3.05-3.13,11.42-5.75,16.73c-1.58,3.21-0.25,5.06,3.5,6.6c2.78,1.14,8.78,1.44,7.83,5.22c-1.63,6.47,3.15,9.48,5.01,14.02
	c0.51,1.25,1.04,2.8,2.76,2.43c1.49-0.33,2.02-1.79,2.11-3.19c0.4-5.73,2.13-12.2-0.58-17.01
	C170.18,208.53,172.39,200.36,174.45,191.15z"/>
<rect id="GunPart4" x="480.81" y="114.3" class="st0" width="13.42" height="35.78"/>
<rect id="GunPart3" x="480.81" y="114.3" class="st0" width="64.4" height="17.89"/>
<rect id="GunPart2" x="487.52" y="136.03" class="st0" width="21.02" height="7.16"/>
<rect id="GunPart1" x="500.94" y="118.59" class="st0" width="7.6" height="21.02"/>
</svg>
