<svg xmlns="http://www.w3.org/2000/svg" xml:space="preserve" style="enable-background:new 0 0 1920 1080" viewBox="0 0 1920 1080"><style>.st0{display:none}.st5{fill:#30bfb4}.st6{fill:#2bb1a1}.st7{fill:#427f7e}.st8{fill:#29a795}.st9{fill:#c8e7ff}.st10{fill:#deaaff}.st11{fill:#499194}.st12{fill:#ffcbf2}.st13{fill:#d0d1ff}.st14{fill:#84be46}.st15{fill:#2fbcad}.st16{fill:#f9a5a7}.st17{fill:#cfbc9b}.st18{fill:#fcfefe}.st19{fill:#a79886}.st20{fill:#ecf5d7}.st21{fill:#83fefc}.st22{fill:#81746a}.st23{fill:#c78286}.st24{fill:#706458}</style><path id="Calque_3" d="M956.96 395.98c0 .46.01.86 0 1.26-.02 1.18.38 2.1 1.37 2.85 1.7 1.28 1.93 4.15.61 5.84-.69.88-.83 1.99-1.03 3.05-.26 1.46-.37 2.95-.83 4.38-.2.62-.42 1.22-.8 1.75-.63.9-1.45 1.18-2.48.82-.98-.35-1.81-.95-2.55-1.68-.33-.33-.48-.76-.47-1.21.08-3.52.28-7.03 1.59-10.37.35-.89.4-1.85.44-2.79.13-3.59-.15-7.16-.4-10.73-.12-1.73-.27-3.45-.41-5.17-.26-3.15.48-6.15 1.26-9.15 1.61-6.17 3.64-12.2 5.79-18.2 1.28-3.56 2.32-7.19 2.67-10.98.19-2.08.29-4.18.29-6.27.01-4.19.02-8.37.25-12.55.14-2.53.49-5.04.87-7.55s.55-5.04.5-7.58c-.02-.91-.05-1.81-.02-2.72.02-.69-.01-1.38.47-2 .27-.34.21-.84.22-1.29.03-1.14.26-2.22 1.42-2.72 1.18-.51 2.19.02 3.09.78.15.13.29.28.43.42.83.85.82.9.01 1.74-.44.46-.51 1.08-.6 1.67-.3 1.97-.37 3.97-.45 5.95-.14 3.34-.29 6.68-.26 10.02.01 1.19.05 2.37.22 3.55.05.32.11.63.25.93.09.2.22.35.47.28.26-.08.42-.26.37-.54-.04-.19-.1-.41-.22-.55-.56-.66-.67-1.45-.7-2.26-.05-1.77.06-3.55.39-5.29.42-2.16 2.02-3.19 3.96-3.67 3.66-.91 6.56 2.84 6.18 5.59-.15 1.1-.24 2.2-.54 3.27-.3 1.05-.69 2.06-1.36 2.93-.13.17-.24.37-.35.56-.08.15-.24.34-.07.49.14.13.31-.03.43-.12.47-.34.95-.68 1.39-1.06a32.86 32.86 0 0 0 3.28-3.29c1.35-1.57 1.96-3.49 2.46-5.44.49-1.89.59-3.8.32-5.74-.21-1.54.34-1.96 1.84-1.46 1.12.37 2.03 1.04 2.8 1.92.53.6.6 1.3.42 2.04-.65 2.68-1.39 5.3-2.57 7.82-.91 1.95-1.42 4.09-2.32 6.06-1.09 2.41-1.9 4.9-2.36 7.51-.38 2.16-.56 4.35-.67 6.54-.12 2.45-.21 4.9-.73 7.32-.08.35-.12.73-.28 1.04-1.07 2.1-.88 4.35-.73 6.57.34 5.12.27 10.22-1.05 15.22-.31 1.2-.92 2.31-1.03 3.58-.2 2.33-.26 4.66.19 6.97.09.46.22.89.62 1.2.35.27.36.7.38 1.1.06 1.46-.19 2.89-.32 4.33-.25 2.91-.36 5.82-.27 8.74.07 2.19.24 4.38.51 6.55.14 1.13-.06 2.18-.72 3.16-.57.83-.8 1.81-.8 2.81-.01 2.43-1.16 4.11-3.27 5.21-.11.06-.22.11-.32.16-1.98.98-3.1.75-4.57-.89-.32-.36-.39-.71-.16-1.15.67-1.33 1.43-2.62 2.29-3.83 1.2-1.7 1.69-3.57 1.68-5.62-.01-1.41-.02-2.82.04-4.23.16-3.71-.49-7.28-1.64-10.79-.9-2.73-1.74-5.47-2.29-8.3-.06-.29-.08-.6-.08-.9-.05-3.68-.08-7.37-.14-11.05-.02-1.27-.08-2.53-.33-3.78-.01-.04-.01-.08-.02-.12-.11-.36-.11-.84-.54-.93-.44-.1-.65.34-.88.62-1.34 1.66-1.89 3.6-2.07 5.69-.24 2.89-.31 5.79-.49 8.68-.12 2.03-.26 4.05-.59 6.06-.12.75-.49 1.19-1.22 1.37-.69.17-1.38.25-2.09.25-1.18.01-1.49.27-1.77 1.39-.2.81-.44 1.56-1.16 2.12-.43.33-.45.93-.53 1.44-.1.82-.15 1.62-.22 2.37z" style="fill:#feea01"/></svg>