<svg xmlns="http://www.w3.org/2000/svg" xml:space="preserve" id="Calque_1" x="0" y="0" style="enable-background:new 0 0 595.28 841.89" version="1.1" viewBox="0 0 595.28 841.89"><style>.st0{fill:#ffe803}</style><path id="Character" d="M200.37 511.88c-5.22 22.34-10.02 44.79-15.77 66.99-9.69 37.39-12.1 75.56-13.53 113.89-.41 10.94-.86 21.88-1.35 32.81-.47 10.66-5.29 19.38-12.33 27.03-4.65 5.05-6.74 10.42-3.42 17.1.82 1.65.79 3.73 1.16 5.61 3.46 17.63 2.81 18.44-15.65 18.4-7.11-.01-14.19.17-21.14-2.18-6.96-2.36-9.97-6.8-7.95-13.77 2.54-8.75 1.2-16.64-3.25-24.43-6.89-12.08-6.08-25.38-5.16-38.52 1.15-16.35 1.77-32.66 1.87-49.09.18-30.39 4.23-60.57 9.69-90.5.59-3.22 1.51-6.49 1.39-9.71-1.22-33.46-.04-66.77 6.47-102.45-8.61 6.7-14.82 4.45-20.79-.97-5.39-4.9-12.56-8.09-13.86-16.48-.68-4.39-3.81-5.75-7.9-5.09-4.83.78-6.28-1.83-6.66-6.02-4.4-49.07-9.25-98.1-6.06-147.52.7-10.81-1.98-21.79-2.24-32.71-.45-18.39-.01-36.8-.37-55.19-.14-6.91 2.38-11.1 8.52-14.34 12.82-6.77 25.06-14.65 37.97-21.24 11.72-5.98 19.01-16.35 27.32-25.65 3.61-4.04-1.12-8.29-3.15-11.67-6.66-11.09-7.48-22.64-4.52-34.86 5.93-24.46 20.05-33.49 44.8-28.99 11.85 2.15 22.56 6.5 32.05 13.93 3.28 2.57 5.54 5.43 4.19 9.79-2.28 7.37.95 13.66 4.7 19.25 2.44 3.62 3.18 6.55 2.02 10.55-.9 3.1-1.91 6.33-.57 9.66 1.37 3.39.34 5.82-3.01 7.35-1.57.72-2.96 1.9-2.3 3.79.84 2.37 3.15 2.21 4.9 1.64 4.42-1.44 8.64-3.47 13.07-4.85 11.59-3.61 13.5-1.57 22.28 6.24 12.13 10.78 26.88 16.7 43.72 12.84 11.8-2.7 23.77-2.8 35.72-3.84 16.87-1.48 33.66-3.83 50.63-4.06 22.93-.31 45.81-3.72 68.78-1.38 5.94.61 10.77-1.85 15.32-4.87 8.86-5.89 17.27-6.28 25.53.97.81.71 1.79 1.28 2.76 1.77 6.25 3.1 12.92 5.68 9.55 15.11-3.98 11.12-12.26 17.95-21.41 16.85-3.8-.46-7.68-.83-11.33-1.91-8.46-2.5-16.18-4.41-18.57 7.83-.62 3.17-4.33 3.84-7.32 4.52-29.62 6.74-59.59 11.67-89.19 18.78-21.63 5.19-44.49 5.24-66.81 7.53-11.36 1.17-11.41 2.31-14.15 12.99-6.66 25.86-2.83 51.67 2.69 76.48 5.6 25.18 9.92 50.9 19.1 75.29 2.78 7.39 3.77 15.43 6.17 22.99 2.13 6.7-.19 10.41-6.4 12.62-3.09 1.1-6.09 2.49-9.07 3.85-8.04 3.68-13.13 11.2-11.04 19.64 8.27 33.32 4.12 67.03 4 100.6-.07 18.34 6.22 35.51 9.02 53.31 3.01 19.15 7.67 38.33 7.87 57.53.17 16.29-.28 32.8-1.1 49.18-.38 7.56 1.38 13.98 6.3 19.69 6.48 7.52 9.89 16.31 10.31 26.26.21 5.01 2.81 8.79 6.45 11.94 4.76 4.12 9.47 8.31 14.42 12.21 3.77 2.97 6.04 6.18 4.48 11.24-1.54 4.99-4.77 8.09-9.85 8.71-13.13 1.6-25.48-1.83-37.57-6.45-2.54-.97-4.91-3.32-7.4-3.39-13.37-.35-16.44-8.83-20.56-20.06-13.28-36.27-28.46-71.9-35.74-110.04-8.21-43.02-18.63-85.64-23.98-129.19-.13-1.04-.64-2.04-.97-3.06-.58-.11-1.18-.2-1.78-.28zm-78.27-68.51c.59-8.32 1.47-16.43-1.76-24.36-1.97-4.83-3.3-11.04-.28-15.15 8.08-11 5.68-22.22 5.09-34.64-.92-19.1-2.64-38.13-4.3-57.14-.69-7.84-4.91-15.18-12.04-22.54.53 13.5-.09 25.17-1.5 36.78-1.85 15.29-.95 30.51 1.8 45.55 2.21 12.05 4.45 23.77 4.17 36.35-.28 11.83 3.35 24.02 8.82 35.15zm52.35-252.22c-7.37.92-7.19.95-6.6-3.17.88-6.14 6.53-12.5 3.75-17.77-2.93-5.56-11.41-5.66-17.05-8.99-.47-.28-.96-.58-1.48-.7-3.29-.8-6.2-5.89-9.28-3.07-2.79 2.55-.61 7.26.17 10.94.93 4.36 2.97 8.18 6.27 11.32 2.98 2.83 5.84 5.78 8.66 8.76 1.04 1.1 3.1 3.38 1.3 3.94-9.84 3.05-3.13 11.42-5.75 16.73-1.58 3.21-.25 5.06 3.5 6.6 2.78 1.14 8.78 1.44 7.83 5.22-1.63 6.47 3.15 9.48 5.01 14.02.51 1.25 1.04 2.8 2.76 2.43 1.49-.33 2.02-1.79 2.11-3.19.4-5.73 2.13-12.2-.58-17.01-4.89-8.68-2.68-16.85-.62-26.06z" class="st0"/><path id="GunPart4" d="M480.81 114.3h13.42v35.78h-13.42z" class="st0"/><path id="GunPart3" d="M480.81 114.3h64.4v17.89h-64.4z" class="st0"/><path id="GunPart2" d="M487.52 136.03h21.02v7.16h-21.02z" class="st0"/><path id="GunPart1" d="M500.94 118.59h7.6v21.02h-7.6z" class="st0"/></svg>