<svg version="1.1" id="Calque_1" xmlns="http://www.w3.org/2000/svg" x="0" y="0" viewBox="0 0 1920 1080" style="enable-background:new 0 0 1920 1080" xml:space="preserve"><style>.st0{display:none}.st2,.st3{display:inline;fill:#ffcbf2}.st3{fill:#847e7a}.st4,.st5,.st6{display:inline;fill:#eaf3f0}.st5,.st6{fill:#928581}.st6{fill:#c0fdff}.st7,.st8,.st9{display:inline;fill:#d0d1ff}.st8,.st9{fill:#deaaff}.st9{fill:#c8e7ff}.st10{fill:#509980}.st10,.st11,.st13{display:inline}.st11{fill:none;stroke:#000;stroke-width:2.2536;stroke-miterlimit:10}.st13{fill:#e3ad86}.st15,.st16,.st17{display:inline;fill:#fde7cf}.st16,.st17{fill:#7d95d6}.st17{fill:#f5d7c0}.st18,.st19,.st20{display:inline;fill:#e16b79}.st19,.st20{fill:#61ad8e}.st20{fill:#a29793}.st23{fill:none;stroke:#000;stroke-width:2.2536;stroke-miterlimit:10}</style><g id="Calque_6"><path class="st23" d="M504.58 676.8c-52.6-79.28-38.8-166.78-17.35-248.08 46.12-174.51 178.83-276.5 337.39-333.21 150.96-53.99 403.92 16.51 461.32 176.46-133.96 324.5-443.63 484.94-781.36 404.83z"/><path class="st23" d="M504.58 676.8c337.81 80.12 647.4-80.32 781.37-404.82 39.5 11.43 48.56 46.12 60.19 78.79-16.16 28.98-32.81 57.68-48.35 87.01-81.09 153.26-195.41 269.88-362.4 327.91-116.62 40.55-239.58 30.37-359.68 42.43-53.09-27.87-69.88-75.45-71.13-131.32z"/><path class="st23" d="M662.86 921.53c-24.45-36.3-68.06-55.87-85.69-98.16 63.88 17.42 129.09 37.97 194.85 31.21 282.56-28.91 492.67-158.7 590.2-438.33 38.46 46.95 27.1 99.76 17.97 152.36-39.78 59.29-67.16 126.37-118.57 178.62C1128.15 883 962.9 942.71 776.97 955.04c-37.97-11.08-76.08-22.29-114.11-33.51z"/><path class="st23" d="M1362.3 416.32c-97.53 279.64-307.71 409.42-590.2 438.33-65.76 6.76-130.97-13.79-194.85-31.21-.84-5.02-1.32-10.1-1.53-15.26 120.17-12.12 243.06-1.95 359.68-42.43 166.92-58.03 281.31-174.65 362.4-327.91 15.54-29.33 32.19-58.03 48.35-87.01 5.35 21.81 10.71 43.61 16.15 65.49z"/><path class="st23" d="M1247.28 890.46c-118.85 89.73-252.4 121.08-399.04 101.15-28.21-3.83-64.23 8.57-71.13-36.5 185.94-12.4 351.18-72.1 484.66-207.81 51.41-52.25 78.72-119.34 118.57-178.62 24.73 110.28-45.42 186.28-97.32 268.84-11.43 18.04-35.81 27.23-35.74 52.94z"/></g></svg>