<svg version="1.1" id="Calque_1" xmlns="http://www.w3.org/2000/svg" x="0" y="0" viewBox="0 0 1920 1080" style="enable-background:new 0 0 1920 1080" xml:space="preserve"><style>.st0{display:none}.st2{display:inline;fill:#ffcbf2}.st3,.st4,.st5{display:inline;fill:#847e7a}.st4,.st5{fill:#eaf3f0}.st5{fill:#928581}.st6,.st7,.st8{display:inline;fill:#c0fdff}.st7,.st8{fill:#d0d1ff}.st8{fill:#deaaff}.st10,.st12,.st9{display:inline;fill:#c8e7ff}.st10,.st12{fill:#509980}.st12{fill:#e3ad86}.st14,.st15,.st16{display:inline;fill:#fde7cf}.st15,.st16{fill:#7d95d6}.st16{fill:#f5d7c0}.st17,.st18,.st19{display:inline;fill:#e16b79}.st18,.st19{fill:#61ad8e}.st19{fill:#a29793}.st21,.st23{fill:none;stroke:#000;stroke-width:2.2536;stroke-miterlimit:10}.st23{display:inline}</style><g id="Calque_7"><path class="st21" d="M1155.72 877.13c-94.07 10.67-122.25-34.45-114.57-123.37 6.36-73.29-.09-147.61-.84-221.46.94-5.34 1.4-10.86 1.5-16.29 3.28-94.45 91.26-143.4 120.37-223.99 148.36-59.34 304.3-43.06 458.47-48.3 71.33-2.43 101.18 20.22 99.03 94.73-3.74 126.55-.09 253.38.37 380.12-115.32 105.4-239.72 183.93-407.45 157.91-50.92-8.05-104.46-.09-156.88.65zM817.07 558.14c-.47 98.56-.94 197.03-1.5 295.6-108.86 118.97-238.41 185.8-404.55 160.62-3.74-.28-7.49-.66-11.23-.84-262.09-7.96-264.8-7.96-260.31-267.14 1.31-74.7-38.66-165.96 29.48-222.31 106.99-88.46 230.64-144.8 377.97-110.45 28.27 6.65 58.97 3.09 88.55 4.21 96.6.18 202.09-11.24 181.59 140.31z"/><path class="st21" d="M817.07 558.14c20.5-151.54-84.99-140.22-181.59-140.4 9.36-81.62-24.24-166.89 20.78-245.43 86.21 26.49 172.88-2.9 259.75 1.4 86.11 4.31 119.72 41.56 95.76 119.34-25.18 81.62-7.86 152.48 30.14 222.96-.09 5.52-.56 10.95-1.5 16.29-70.3 43.99-148.93 16.94-223.34 25.84z"/><path class="st21" d="M1041.9 516.01c-38-70.48-55.32-141.34-30.14-222.96 24.06-77.78-9.55-115.04-95.76-119.34-86.86-4.31-173.54 25.18-259.75-1.4C781.13 15.52 955.23 70.28 1115.1 67.19c40.25-.75 39.78 37.07 40.9 67.58 1.97 52.42 4.12 104.74 6.18 157.16-29.01 80.59-117 129.54-120.28 224.08z"/><path style="fill:none" d="M129.46 980.94V550.37"/></g></svg>