<svg xmlns="http://www.w3.org/2000/svg" xml:space="preserve" style="enable-background:new 0 0 557.85 503.59" viewBox="0 0 557.85 503.59"><style>.st1{fill:#f9e925;stroke:#000;stroke-miterlimit:10}</style><path id="AilgeDroiteBas" d="M342.03 314.56c7.1-2.91 23.26 16.95 31.36 36.1 4.63 10.95 5.33 36.1 5.33 36.1s-31.51-16.05-38.46-42.01c-2.99-11.15-3.93-27.85 1.77-30.19z" style="fill:#fae81e;stroke:#000;stroke-miterlimit:10"/><path id="AileGauche" d="M351.98 148.43s38-37.16 77.58-51.12c10.63-3.75 86.02-30.35 93.72-15.25 6.11 11.99-34.17 42.9-65.92 67.26-39.67 30.44-83.41 39.46-83.41 39.46l-21.97-40.35z" class="st1"/><path id="AileGaucheBas" d="M218.06 314.56c-7.1-2.91-23.26 16.95-31.36 36.1-4.63 10.95-5.33 36.1-5.33 36.1s31.51-16.05 38.46-42.01c2.99-11.15 3.93-27.85-1.77-30.19z" style="fill:#fae71a;stroke:#000;stroke-miterlimit:10"/><circle id="Centre" cx="278.92" cy="231.39" r="77.13" class="st1"/><path id="AileDroite" d="M201.79 148.43s-38-37.16-77.58-51.12c-10.63-3.75-86.02-30.35-93.72-15.25-6.11 11.99 34.17 42.9 65.92 67.26 39.67 30.44 83.41 39.46 83.41 39.46l21.97-40.35z" class="st1"/></svg>