<svg xmlns="http://www.w3.org/2000/svg" xml:space="preserve" id="voiture" x="0" y="0" style="enable-background:new 0 0 1920 1080" version="1.1" viewBox="0 0 1920 1080"><style>.st0{fill:#fff}.st1{fill:#040303}.st3{fill:#666}.st4{fill:#58595b}.st5{fill:#818386}.st6{fill:#fdfdfd}.st7{fill:#fefefe}</style><path d="M365.39 758.33c-1.6.31-2.05 1.72-2.3 2.92-.64 3.14-2.55 3.65-5.42 3.6-9.93-.16-19.87-.06-29.8-.06-17.68 0-35.35-.01-53.03-.01-1.72-1.12-2.15-3.08-2.97-4.74-10.9-22.03-21.9-44.01-32.47-66.21-2.08-4.37-4.34-6.14-9.1-5.6-2.78.31-5.83.86-8.54-.77-.37-.94-.8-1.87-1.12-2.84-1.42-4.41-4.51-8.14-5.3-12.81 16.82-.04 33.65-.06 50.47-.12 4.53-.01 9.08.05 13.6-.2 13.69-.76 27.39-1.54 41.07-2.56 5.1-.38 10.2-.57 15.29-1.03 7.98-.71 15.95-1.6 23.92-2.4 6.24-.63 12.56-.81 18.71-1.94 9.91-1.84 19.95-2.52 29.91-3.94 11.53-1.65 23.09-3.25 34.61-5 9.2-1.4 18.41-2.92 27.58-4.64 13.02-2.44 26.11-4.58 39.16-6.92 12.05-2.17 24.02-4.69 36.08-6.79 9.18-1.6 18.28-3.63 27.38-5.65 9.1-2.02 18.32-3.54 27.46-5.4 6.99-1.42 13.94-3.07 20.92-4.55 8.13-1.72 16.29-3.31 24.4-5.08 11.39-2.49 22.74-5.16 34.13-7.64 16.37-3.57 32.76-7.01 49.14-10.55 13.39-2.89 26.73-6.03 40.14-8.74 12.57-2.54 25.05-5.47 37.65-7.85 14.03-2.64 27.96-5.79 41.95-8.62 8.57-1.73 17.23-3.07 25.76-4.96 6.97-1.54 14.01-2.84 21.01-4.14 9.88-1.83 19.76-3.72 29.69-5.3 9.35-1.49 18.66-3.2 28-4.77 4.02-.68 8.12-1.03 12.09-1.91 9.84-2.18 19.88-2.98 29.78-4.78 9.88-1.8 19.89-2.98 29.87-4.14 4.79-.55 9.48-1.61 14.27-2.14 7.82-.86 15.68-1.37 23.46-2.67 6.62-1.11 13.42-.97 20.01-2.03 9.97-1.6 20.02-2 30.02-3.06 10.73-1.13 21.49-2.07 32.27-2.61 16.04-.81 32.06-1.96 48.1-2.59 17.52-.69 35.08-.28 52.62-.95 5.85-.22 11.66.56 17.51.63 18.42.22 36.84-.35 55.26.75 9.33.56 18.68.21 28.04.83 12.39.82 24.83.14 37.25.93 11.22.71 22.49.33 33.74.81 16.19.68 32.42.56 48.6 1.85 8.14.65 16.35.48 24.52.81 15.91.63 31.84.74 47.71 1.99 11.07.87 22.17.9 33.26 1.52 10.93.61 21.86 1.05 32.79 1.81 11.64.81 23.33 1.16 34.99 1.76 9.19.47 18.35.99 27.52 1.75 12.36 1.03 24.78 1.36 37.18 1.99 2.04.1 4.07.35 6.09.53 5.51.48 11 1.65 16.59 1 .53 7.7-.38 15.4.89 23.13 3.5 21.28 14.34 37.77 31.73 50.2.76.54 1.6.67 2.48.71.6 1.1 1.64 1.49 2.77 1.73.37.43.67 1.11 1.13 1.26 2.76.91 3.32 2.74 3.57 5.57.83 9.11.25 18.21.36 27.31-46.29.01-92.59.02-138.89.02-.56-1.34-1.03-2.73-1.69-4.03-9.34-18.55-22.06-34.28-39.22-46.16-8.54-5.92-17.9-10.33-27.71-13.75-7.87-2.74-16.03-4.37-24.26-5.49-16.29-2.21-32.53-2.28-48.73 1.29-5.14 1.13-9.99 3.16-15.15 4.1-1.07-1.23-2.41-2.12-3.85-2.81-7.59-3.66-15.32-7.01-23.51-9.09-4.07-1.03-8.26-1.88-12.43-2.11-11.87-.64-23.55.25-34.7 5-6.16 2.62-12.25 5.36-17.95 8.88-7.93 4.89-15.53 10.24-22.86 16.01-9.5 7.47-18.64 15.36-27.84 23.19-4.76 4.05-9.46 8.2-14.43 11.99-6.01 4.58-12.23 8.89-18.44 13.22-4.29 2.99-8.54 6.11-13.1 8.64-12.71 7.07-25 14.87-38.21 21.11-8.38 3.96-16.7 8.07-25.09 12.03-11.43 5.4-23.22 9.91-34.83 14.87-8.67 3.7-17.66 6.71-26.61 9.73-10.05 3.39-20.15 6.63-30.33 9.58-10.04 2.91-20.19 5.48-30.34 8-8.17 2.04-16.39 3.89-24.62 5.64-6.95 1.48-13.91 3-20.94 3.88-3.64.45-7.1 1.52-10.71 1.97-6.33.79-12.64 1.8-18.98 2.48-3.46.37-6.93.85-10.39 1.18-4.65.45-9.33.31-13.94.84-8.69.99-17.42 1.43-26.12 1.55-19.98.26-39.96.36-59.91-1.54-7.22-.69-14.52-.75-21.7-1.92-6.02-.98-12.09-1.56-18.12-2.34-3.63-.47-7.09-1.64-10.69-1.96-9.43-.83-18.63-3.06-27.86-4.89-10.78-2.14-21.51-4.69-32.09-7.8-6.83-2.01-13.86-3.32-20.7-5.27-8.51-2.43-16.94-5.16-25.38-7.82-8.18-2.58-16.35-5.2-24.5-7.85-5.5-1.79-10.97-3.71-16.47-5.52-4.7-1.54-9.47-2.84-14.12-4.51-7.8-2.8-15.7-5.25-23.68-7.45-7.28-2.01-14.63-3.76-21.98-5.53-5.69-1.37-11.48-1.71-17.13-3.01-1.21-.28-2.64-.48-3.71.67-1.89-.72-3.47-2-5.42-2.68-9.45-3.3-19.15-4.6-29.12-4.18-10.09-.85-20.17-.22-30.23.4-17.51 1.09-34.86 3.51-52.2 6.22-9.38 1.47-18.67 3.41-28.07 4.79-7.87 1.97-15.93 3.01-23.87 4.71-6.5 1.4-12.86 3.52-19.52 4.26-1.64.18-3.52.29-4.87 1.62-6.41 1.13-12.85 2.12-18.94 4.57-10.3 1.82-20.2 5.13-30.14 8.27-3.97 1.25-7.06 3.89-9.88 6.93-8.46 9.12-13.63 20.16-18.68 31.3-.34.82.18 1.43.4 2.09z"/><path d="M1317.08 393.56c86.6 0 173.2-.03 259.81.04 10.37.01 20.75.31 31.1.93 14.54.87 29.05 2.25 43.51 4.1 11.41 1.46 22.8 2.95 34.14 4.97 8.18 1.46 16.32 3.11 24.41 4.88 9.39 2.05 18.71 4.44 27.87 7.46 7.34 2.42 14.69 4.78 21.75 7.92 9.07 4.04 17.87 8.48 25.22 15.44 8.37 7.92 9.22 16.46 3 26.85-3.64 6.08-9.16 10.55-14.46 15.16-3.26 2.84-7.22 4.89-9.73 8.59-3.09.58-4.8 3.12-7.01 4.94-5.7 4.73-11.03 9.82-15.52 15.75-3.67 4.86-6.48 10.26-9.59 15.47-4.83-1.33-9.86-1.23-14.77-1.59-9.75-.7-19.51-1.34-29.28-1.76-14.73-.63-29.4-2.15-44.13-2.7-12.26-.46-24.52-.73-36.73-1.92-9.89-.96-19.83-.94-29.74-1.48-11.95-.65-23.91-1.12-35.86-1.81-14.86-.85-29.76-1.23-44.65-1.73-13.28-.45-26.55-1.14-39.82-1.73-12.84-.57-25.71-.47-38.56-1.07-8.17-.38-16.36-.46-24.53-.63-21.18-.43-42.35-1.14-63.52-1.91-16.21-.59-32.44-.4-48.66-.71-26.15-.5-52.32-.55-78.5.22-16.65.49-33.26 1.58-49.89 2.29-5.68.24-11.38.44-17.05.88-9.59.75-19.18 1.63-28.76 2.5-4.94.45-9.85 1.19-14.8 1.4-5.85.25-11.56 1.67-17.38 1.94-9.49.45-18.8 2.35-28.23 3.2-8.13.73-16.21 1.91-24.29 3.07-5.19.75-10.49.98-15.6 2.09-8.14 1.76-16.43 2.48-24.62 3.78-11.07 1.76-22.17 3.45-33.23 5.28-8.33 1.37-16.63 3.04-24.96 4.39-9.78 1.59-19.52 3.39-29.24 5.23-13.59 2.58-27.18 5.19-40.74 7.92-12.14 2.44-24.27 4.92-36.41 7.41-2.13-.36-4.03 1.2-6.17.75-.08-.98-.57-1.49-1.52-1.87-4.17-1.63-8.21-3.6-12.45-5.01-11.01-3.66-21.91-7.66-33-11.1-13.16-4.09-26.34-8.11-39.64-11.68-6.88-1.85-13.72-3.93-20.69-5.31-13.95-2.77-27.81-5.93-41.82-8.41-7.55-1.33-15.15-2.5-22.68-4.01-5.82-1.17-11.72-2.15-17.63-2.52-4.4-.28-8.57-1.55-12.91-1.94-5.78-.52-11.59-.78-17.32-1.77-1.43-.25-2.76-.85-4.27-.87-7.42-.08-14.77-1.15-22.15-1.58-7.12-.42-14.18-1.27-21.27-1.77-8.42-.59-16.91-.82-25.32-.82-25.69-.01-51.41-1.18-77.09.63-5.82.41-11.73-.32-17.53.21-6.94.64-13.84 1.66-20.84 1.61-.87-.01-1.78-.04-2.62.16-5.7 1.37-11.58 1.03-17.35 1.39-7.12.44-14.07 2.09-21.24 2.24-6.48.14-12.97 1.31-19.39 2.44-3.73.65-7.52 1.07-11.22 1.29-5.13.3-9.99 1.83-15.08 2.22-5.05.39-10.24.8-15.06 2.06-6.78 1.76-13.72 2.39-20.54 3.74-12.22 2.42-24.51 4.52-36.71 7.13-14.04 3-28.11 5.82-41.98 9.6-8.96 2.44-18.02 4.56-27.01 6.94-5.03 1.33-9.96 3.18-15.16 3.87-6.03-13.6-11.19-27.54-16.41-41.46-6.56-17.49-12.75-35.12-17.78-53.14-3.14-11.25-5.73-22.61-6.71-34.27-.26-3.07.39-6.13 1.24-9.05 1.04-3.58 3.71-5.79 7.11-7.26 4.58-1.99 9.37-3.12 14.26-4.05 12.68-2.42 25.5-2.77 38.35-2.75 10.53.02 21.09-.37 31.58.28 11.49.72 23.04.3 34.48 2.17 4.99.82 10.18.69 15.27.94 12.97.63 25.83 2.33 38.74 3.54 3.05.29 6.12.49 9.15.64 6.58.32 13.01 1.65 19.53 2.29 6.07.6 12.17.86 18.22 2.09 6.11 1.24 12.44 1.38 18.66 2.09 5.78.67 11.55 1.47 17.33 2.19 2.6.32 5.21.6 7.82.86 8.26.84 16.42 2.38 24.66 3.34 6.78.79 13.53 1.97 20.3 2.95 2.73.39 5.54.15 8.21 1.2 1.33.52 2.02-.56 2.48-1.8 1.03-2.73 2.2-5.41 3.3-8.11.72-1.75 1.3-3.57 2.48-5.1 1.24.16 2.19.71 2.79 1.85.91 1.72 2.38 2.98 3.81 4.2 12.07 10.3 25.99 17.03 41.22 21.2 3.91 1.07 7.85 2.11 11.74 3.2 8.97 2.52 18.08 4.3 27.25 5.54 7.33.99 14.55 2.69 22.02 3.01 6.5.28 12.94 1.78 19.44 2.32 8.7.71 17.42 1.2 26.13 1.67 10.76.57 21.51 1.32 32.27 1.78 16.33.7 32.7.57 49.05.77 31.85.4 63.71.79 95.58-.49 17.09-.69 34.23-.29 51.34-.1 34.64.39 69.27-.72 103.92.68 19.83.8 39.72.31 59.58.92 17.1.52 34.23.31 51.35.09 24.69-.32 49.38.58 74.08-.63 12.36-.6 24.79-1.06 37.19-1.06 4.54 0 9.01-.73 13.48-1.15 6.51-.61 13.05-.85 19.56-1.5 2.02-.2 4.06-.41 6.06-.57 5.09-.4 10.06-1.72 15.12-1.99 9.19-.49 18.09-2.71 27.11-4.14 7.57-1.2 15.02-3.26 22.43-5.41 10.98-3.2 21.64-6.99 31.15-13.4 7.33-4.93 13.62-10.99 17.55-19.11 1.3-2.6 2.43-5.29 3.62-7.95z"/><path d="M1317.08 393.56c-1.19 2.66-2.31 5.36-3.58 7.98-3.93 8.12-10.22 14.18-17.55 19.11-9.52 6.4-20.17 10.2-31.15 13.4-7.41 2.16-14.86 4.21-22.43 5.41-9.02 1.43-17.92 3.66-27.11 4.14-5.05.27-10.03 1.59-15.12 1.99-2 .16-4.04.37-6.06.57-6.51.65-13.04.88-19.56 1.5-4.48.42-8.94 1.15-13.48 1.15-12.4 0-24.83.46-37.19 1.06-24.7 1.21-49.39.31-74.08.63-17.11.22-34.25.44-51.35-.09-19.86-.61-39.75-.12-59.58-.92-34.64-1.41-69.28-.29-103.92-.68-17.11-.19-34.26-.58-51.34.1-31.86 1.28-63.73.9-95.58.49-16.35-.21-32.72-.07-49.05-.77-10.76-.46-21.51-1.21-32.27-1.78-8.71-.46-17.43-.95-26.13-1.67-6.5-.53-12.94-2.03-19.44-2.32-7.46-.32-14.68-2.02-22.02-3.01-9.18-1.24-18.29-3.02-27.25-5.54-3.9-1.09-7.83-2.13-11.74-3.2-15.23-4.18-29.15-10.91-41.22-21.2-1.43-1.22-2.91-2.49-3.81-4.2-.61-1.15-1.55-1.7-2.79-1.85.44-3.26 2.17-6.05 3.5-8.93 8.33-18.01 17.63-35.51 27.77-52.58 10.98-18.46 23.27-36 36.15-53.14 4.28-5.7 8.96-11.13 13.68-16.49 8.1-9.21 16.21-18.43 25.13-26.87 16.76-15.86 34.46-30.55 53.76-43.26 10.15-6.69 21.03-12 32.43-15.98 8.36-2.92 16.81-5.72 25.45-7.88 8.18-2.05 16.35-4.17 24.59-5.94 14.21-3.05 28.53-5.54 42.9-7.79 8.46-1.32 17.01-2.16 25.44-3.82 6.11-1.21 12.43-1.38 18.65-2.04 7.52-.8 15.03-1.65 22.55-2.43 4.49-.47 9.03-.75 13.51-.9 11.66-.4 23.24-1.88 34.92-2.26 9.19-.3 18.42.01 27.57-.72 17.24-1.38 34.49-.72 51.72-.51 9.33.12 18.72.05 28 .88 7.56.68 15.16.18 22.68 1.45 11.75 1.99 23.72 2.08 35.52 4.16 8.87 1.57 17.84 2.73 26.62 4.76 11.92 2.75 23.69 5.93 34.9 11.09 13.01 5.99 25.39 13.11 37.46 20.7 13.19 8.3 25.84 17.42 38.07 27.1 13.03 10.32 25.54 21.23 37.86 32.39 16.12 14.61 31.33 30.12 46.33 45.83 10.37 10.86 20.37 22.11 30.12 33.53 15.79 18.5 31.27 37.28 45.67 56.91.59.84 1.22 1.63 1.85 2.44zm-805.53 8.21c1.99.73 3.76.43 5.49.43 163.07.02 326.15.01 489.22.01 1.02 0 2.05.03 3.07-.01 2.93-.11 3.39-.59 2.96-3.35-.75-4.75-1.16-9.53-1.71-14.3-.42-3.62-.61-7.25-1.05-10.87-.81-6.64-1.57-13.29-2.3-19.94-.72-6.51-1.36-13.03-2.06-19.54-.76-6.94-1.73-13.86-2.28-20.82-.54-6.68-1.64-13.29-2.09-19.99-.44-6.52-1.59-12.99-2.29-19.49-.73-6.8-1.22-13.63-1.96-20.43-1.03-9.4-2.24-18.78-3.3-28.17a1935 1935 0 0 1-2.66-25.18c-.16-1.57-.67-2.46-2.36-2.43-4.53.09-9.02-.5-13.53-.7-14.15-.63-28.32-.07-42.5-.75-10.9-.52-21.87-.32-32.84.36-12.52.78-25.1.06-37.65 1.04-7.27.57-14.57.3-21.87.72-11.35.65-22.74.78-34.04 2.07-5.09.58-10.19.59-15.27 1.04-7.53.66-15.04 1.58-22.55 2.46-6.21.73-12.43 1.41-18.61 2.38-9.34 1.47-18.71 2.71-27.98 4.61-8.13 1.66-16.26 3.3-24.28 5.41-8.17 2.15-16.2 4.7-24.21 7.43a160.02 160.02 0 0 0-19.72 8.21c-8.23 4.09-15.86 9.22-23.37 14.52-12.28 8.68-23.82 18.26-34.74 28.59-6.69 6.33-13.02 13.01-19.08 19.94-4.03 4.6-8.16 9.15-11.86 14.02-9.79 12.9-19.17 26.07-27.42 40.03-7.75 13.1-14.73 26.57-20.75 40.53-1.67 3.84-3.73 7.59-4.41 12.17zm668.04.38v.13c29.26 0 58.52.01 87.77-.01 4.28 0 4.33-.1 3.4-4.13-2.14-9.31-7.21-17.23-12.4-24.96-4.87-7.24-10.34-14.08-15.88-20.86-8.6-10.52-17.84-20.43-27.22-30.21-13.95-14.54-28.95-27.99-44.27-41.08-8.98-7.68-18.19-15.06-27.56-22.24-8.9-6.82-17.97-13.41-27.36-19.58-8.17-5.36-16.49-10.45-24.91-15.41-7.04-4.14-14.27-7.89-21.62-11.41-5.51-2.64-11.15-5.07-16.89-7.15-5.6-2.03-11.36-3.69-17.14-5.17-5.78-1.49-11.69-2.37-17.71-2.39-2.13-.01-2.73.88-2.77 2.9-.04 2.53.72 4.9 1 7.36.87 7.66 1.95 15.3 2.97 22.94 1.04 7.79 2.1 15.57 3.15 23.36 1.01 7.5 2.03 15 3.05 22.49 1.02 7.5 2.07 14.99 3.05 22.49 1.01 7.79 1.91 15.61 2.94 23.4 1.03 7.79 2.19 15.56 3.24 23.34.99 7.36 1.85 14.73 2.85 22.09 1.36 10.09 2.83 20.17 4.18 30.26.4 3 .29 3.07 3.47 3.13 16.51.28 33.01.19 49.53.55 28.36.61 56.75.16 85.13.16z" class="st0"/><path d="M635.94 690.05c1.06-1.15 2.5-.95 3.71-.67 5.66 1.29 11.45 1.64 17.13 3.01 7.35 1.77 14.7 3.52 21.98 5.53 7.98 2.2 15.88 4.65 23.68 7.45 4.65 1.67 9.42 2.97 14.12 4.51 5.5 1.8 10.96 3.72 16.47 5.52 8.16 2.66 16.32 5.28 24.5 7.85 8.44 2.66 16.87 5.39 25.38 7.82 6.85 1.95 13.88 3.25 20.7 5.27 10.58 3.12 21.32 5.67 32.09 7.8 9.23 1.83 18.43 4.06 27.86 4.89 3.6.32 7.05 1.49 10.69 1.96 6.03.78 12.11 1.36 18.12 2.34 7.18 1.17 14.48 1.24 21.7 1.92 19.95 1.9 39.93 1.8 59.91 1.54 8.71-.11 17.43-.56 26.12-1.55 4.61-.52 9.28-.39 13.94-.84 3.47-.34 6.93-.81 10.39-1.18 6.34-.69 12.65-1.69 18.98-2.48 3.61-.45 7.07-1.52 10.71-1.97 7.03-.88 14-2.4 20.94-3.88 8.24-1.75 16.45-3.6 24.62-5.64 10.15-2.53 20.29-5.09 30.34-8 10.18-2.95 20.29-6.19 30.33-9.58 8.95-3.02 17.93-6.03 26.61-9.73 11.61-4.96 23.4-9.47 34.83-14.87 8.39-3.96 16.71-8.07 25.09-12.03 13.2-6.23 25.49-14.04 38.21-21.11 4.56-2.54 8.81-5.65 13.1-8.64 6.2-4.32 12.43-8.63 18.44-13.22 4.97-3.79 9.67-7.93 14.43-11.99 9.2-7.83 18.34-15.71 27.84-23.19 7.33-5.77 14.93-11.12 22.86-16.01 5.7-3.51 11.79-6.25 17.95-8.88 11.15-4.75 22.84-5.64 34.7-5 4.17.23 8.37 1.08 12.43 2.11 8.19 2.07 15.92 5.43 23.51 9.09 1.44.69 2.78 1.58 3.85 2.81-2.24 1.02-4.58 1.88-6.7 3.1-4.22 2.44-9.21 3.56-12.65 7.33l.02-.01c-.87-.16-1.49.12-1.81.98-7.86 4.07-14.32 9.98-20.59 16.07-12.76 12.4-22.86 26.83-31.76 42.15-9.47 16.31-17.31 33.42-24.62 50.77-5.49 13.03-10.74 26.17-16.09 39.26-1.86 2.98-2.83 6.37-4.32 9.52-7.38 15.55-14.14 31.5-27.91 42.9-6.72 4.31-14.2 4.59-21.9 4.59-194.38-.07-388.75-.05-583.13-.07-7.09 0-5.77 1.12-8.8-5.88-.58-1.34-1.19-2.67-1.79-4-6.09-14.58-13.39-28.56-21.17-42.29-2.94-5.19-5.68-10.55-9.44-15.24-4.18-7.44-9.29-14.24-14.54-20.94-1.75-2.23-3.15-4.8-5.71-6.31l.1.1c-.25-.29-.5-.59-.75-.88-.42-.92-.87-1.8-1.58-2.56-6.9-7.45-14.29-14.34-23.12-19.55zM159.98 546.27c5.2-.68 10.13-2.53 15.16-3.87 8.99-2.38 18.05-4.5 27.01-6.94 13.87-3.78 27.94-6.6 41.98-9.6 12.2-2.61 24.49-4.71 36.71-7.13 6.82-1.35 13.75-1.98 20.54-3.74 4.82-1.25 10.01-1.67 15.06-2.06 5.08-.39 9.95-1.92 15.08-2.22 3.7-.22 7.49-.63 11.22-1.29 6.42-1.12 12.91-2.3 19.39-2.44 7.17-.15 14.11-1.8 21.24-2.24 5.76-.36 11.64-.01 17.35-1.39.84-.2 1.74-.16 2.62-.16 7 .05 13.9-.97 20.84-1.61 5.8-.53 11.71.2 17.53-.21 25.69-1.81 51.4-.64 77.09-.63 8.41 0 16.9.23 25.32.82 7.09.5 14.15 1.35 21.27 1.77 7.38.44 14.74 1.5 22.15 1.58 1.51.02 2.84.62 4.27.87 5.73 1 11.54 1.25 17.32 1.77 4.34.39 8.52 1.66 12.91 1.94 5.91.37 11.82 1.35 17.63 2.52 7.53 1.51 15.14 2.67 22.68 4.01 14.01 2.48 27.88 5.64 41.82 8.41 6.97 1.38 13.81 3.47 20.69 5.31 13.31 3.57 26.48 7.59 39.64 11.68 11.09 3.45 21.99 7.44 33 11.1 4.24 1.41 8.28 3.38 12.45 5.01.95.37 1.45.89 1.52 1.87-11.48 3.3-23.32 5.04-34.91 7.84-8.06 1.95-16.26 3.33-24.37 5.07-7.55 1.62-15.05 3.43-22.59 5.09-3.55.78-7.16 1.35-10.71 2.14-6.4 1.41-12.73 3.16-19.17 4.3-8.03 1.43-15.93 3.48-23.95 4.99-10.86 2.04-21.53 5.15-32.38 7.26-12.15 2.36-24.19 5.21-36.33 7.62-9.57 1.9-19.1 4.02-28.65 5.98-8.27 1.7-16.57 3.31-24.85 4.95-7.57 1.5-15.13 3-22.7 4.49-4.57.9-9.15 1.79-13.73 2.65-7.73 1.45-15.45 2.93-23.2 4.27-9.61 1.66-19.28 3-28.86 4.84-9.73 1.87-19.53 3.27-29.3 4.8-9.64 1.51-19.33 2.69-28.98 4.06-4.32.62-8.61 1.72-12.95 1.96-8.75.48-17.35 2.17-26.05 3.02-3.77.37-7.56.63-11.33.94-7.84.64-15.6 2.03-23.47 2.45-5.24.28-10.48.68-15.72.98-10.04.58-20.04 1.84-30.08 2.26-14.16.59-28.33.63-42.5.99-13.01.33-25.99-.52-38.99-.67-4.12-9.1-8.21-18.22-12.4-27.29-.89-1.93-1.25-4.23-3.24-5.53-.37-4.19-2.65-7.69-4.27-11.38-8.2-18.68-16.17-37.45-23.98-56.29-.69-1.61-1.23-3.28-1.83-4.92z"/><path d="M1360.01 750.67c5.35-13.09 10.6-26.23 16.09-39.26 7.31-17.36 15.15-34.46 24.62-50.77 8.9-15.32 19-29.75 31.76-42.15 6.27-6.09 12.72-12 20.59-16.07.83.08 1.53-.06 1.8-.98l-.02.01c1.05.21 2.01-.12 3-.41 8.84-2.64 17.87-4.27 27.08-4.63 15.29-.6 30.16 1.42 44.66 6.68 13.32 4.84 25.44 11.68 36.32 20.6 19.84 16.25 34.11 36.65 43.55 60.41 9.96 25.09 13.95 51.1 11.47 78.05-.24 2.6-.56 5.23-.13 7.86-1.85 3.6-1.67 7.64-2.45 11.47-5.31 26.36-15.93 50.21-33.08 71.02-12.19 14.8-26.7 26.72-44.07 35.08-9.77 4.7-19.94 7.86-30.61 9.95-10.18 2-20.35 2.1-30.52 1.3-11.05-.87-21.79-3.58-32.09-7.87-37.33-15.53-61.29-43.75-76.39-80.39-.28-.67-.63-1.31-.94-1.97-.07-.43-.07-.88-.21-1.28-6.71-18.28-10.3-37.14-10.43-56.65zm130.67 129.25c10.79.18 21.13-2.01 31.4-5.16 8.89-2.73 17.1-6.8 24.74-11.86 19.68-13.04 34.2-30.67 44.12-52.02 13.26-28.56 17.08-58.46 11.5-89.4-6.44-35.76-23.1-65.4-53.05-86.93-11.67-8.39-24.58-14.12-38.53-16.86-15.02-2.96-30.14-2.72-45.18 1.25-13.62 3.59-25.97 9.63-37.09 18.02-15.23 11.51-27.13 26.01-35.73 43.07-17.24 34.21-20.8 70.03-10.95 106.9 8.91 33.39 27.11 60.42 57.21 78.57 15.85 9.56 33.08 14.24 51.56 14.42z" class="st1"/><path d="M221.78 687.47c2.71 1.64 5.76 1.09 8.54.78 4.76-.53 7.02 1.24 9.1 5.61 10.56 22.2 21.55 44.18 32.44 66.22.82 1.66 1.25 3.62 2.97 4.74.76 4.56 3.65 8.21 5.32 12.38.26.65.9 1.18.58 2.11-1.06.9-2.41.51-3.65.51-35.49.01-70.98-.01-106.47-.04-4.09 0-4.12-.02-5.07-3.73-3.25-12.7-6.31-25.46-9.78-38.1-1.35-4.92.02-9.53.45-14.25.16-1.74.48-3.45.24-5.2 1.95-2.12.8-4.77 1.18-7.15.94-5.88 1.8-11.77 2.48-17.68.6-5.22.53-5.31 5.76-5.31 16.97 0 33.94.03 50.91 0 1.68-.02 3.54.57 5-.89z" style="fill:#4d4d4d"/><path d="M661.31 712.97c2.56 1.5 3.96 4.08 5.71 6.31 5.25 6.7 10.35 13.5 14.54 20.94-.01 2.48-.05 4.97-.03 7.45.13 13.35-1.51 26.51-4.52 39.48-1.41 6.1-3.34 12.08-5.03 18.11-3.52 8.48-7 16.97-11.51 25-12.09 21.52-28.3 39.16-49.41 52.01-8.19 4.99-16.97 8.83-26.23 11.76-14.58 4.61-29.41 6.17-44.51 4.86-11.34-.99-22.33-3.74-32.93-8.12-10.17-4.2-19.53-9.62-28.31-16.21-10.59-7.94-19.67-17.33-27.55-27.9-11.64-15.6-19.84-32.91-25.2-51.59-.37-1.28-.81-2.49-1.38-3.67-1.55-9.62-3.8-19.12-4.48-28.9-.86-12.43-.82-24.8.85-37.15.7-5.2 1.58-10.38 2.37-15.56 6.09-2.45 12.53-3.45 18.94-4.57-7.52 26.43-8.32 53.07-1.39 79.67 8.91 34.19 27.05 61.96 57.81 80.65 12.69 7.71 26.47 12.27 41.07 13.88 17.57 1.94 34.54-.92 50.85-8.05 14.83-6.48 27.67-15.7 38.22-27.77 28.91-33.07 39.11-71.9 34.36-115.12-.56-5.21-2.24-10.24-2.24-15.51z" class="st1"/><path d="M1630.95 655.05c46.29-.01 92.59-.02 138.89-.02 1.46.02 2.93.18 4.37.02 2.46-.26 3.69.57 4.11 3.15.9 5.43 2.05 10.81 3.14 16.2 1.06 5.24 1.64 10.59 3.48 15.66.33 6.06 2.13 11.85 3.1 17.8.09.56.13 1.13.2 1.7-2.04-.02-4.09-.07-6.13-.07-47.33-.01-94.66-.01-141.98-.02-2-9.25-4.14-18.47-7.02-27.49-2.57-8.07-5.88-15.84-9.71-23.39-1.44-2.84-1.16-3.28 1.87-3.42 1.89-.08 3.78-.08 5.68-.12zM1788.41 725.24l-8.79 46.3c-.14.71-.32 1.42-.45 2.13-1.36 7.38-.76 6.1-7.79 6.11-39.71.05-79.43.02-119.14.02-1.02 0-2.04.01-3.07 0-3.79-.07-3.81-.07-3.82-3.95-.01-4.82.02-9.63.04-14.45-.24-7.85-.89-15.67-1.51-23.5-.33-4.2-1.41-8.34-1.05-12.59 31.28 0 62.56 0 93.84-.01 17.24 0 34.49-.04 51.74-.06z" class="st3"/><path d="M1642.83 725.31c-.35 4.25.72 8.4 1.05 12.59.62 7.83 1.27 15.65 1.51 23.5-7.84 1.77-15.31 4.61-22.56 8.05-.67.32-1.26.73-2.04.56-.43-2.63-.11-5.26.13-7.86 2.48-26.95-1.51-52.96-11.47-78.05-9.44-23.77-23.71-44.16-43.55-60.41-10.88-8.92-23-15.76-36.32-20.6-14.5-5.26-29.37-7.28-44.66-6.68-9.21.36-18.24 1.99-27.08 4.63-.99.29-1.95.62-3 .41 3.44-3.77 8.43-4.89 12.65-7.33 2.12-1.23 4.46-2.08 6.7-3.1 5.16-.94 10.01-2.97 15.15-4.1 16.2-3.58 32.44-3.51 48.73-1.29 8.23 1.12 16.39 2.74 24.26 5.49 9.8 3.42 19.16 7.83 27.71 13.75 17.16 11.89 29.87 27.61 39.22 46.16.65 1.3 1.13 2.68 1.69 4.03-1.9.04-3.79.04-5.69.12-3.03.13-3.31.58-1.87 3.42 3.83 7.55 7.14 15.32 9.71 23.39 2.87 9.03 5.01 18.24 7.02 27.49.45 3.22.71 6.48 1.41 9.65.45 2.05-.13 4.34 1.3 6.18z" class="st4"/><path d="M1731.58 526.08c3.11-5.21 5.92-10.61 9.59-15.47 4.48-5.93 9.82-11.02 15.52-15.75 2.2-1.83 3.92-4.36 7.01-4.94 5.56 2.79 9.03 7.7 12.53 12.52 8.32 11.45 12.91 24.47 14.69 38.32 2.24 17.44.2 34.47-7.03 50.73-4.02 9.04-9.51 16.97-16.64 23.8-1.59 1.52-3.43 2.68-5.26 3.87-.88-.04-1.72-.16-2.48-.71-17.39-12.43-28.23-28.91-31.73-50.2-1.27-7.72-.35-15.43-.89-23.12.53-6.61 2.44-12.87 4.69-19.05z" class="st0"/><path d="M221.75 687.47c-1.46 1.46-3.32.88-5.01.88-16.97.04-33.94.02-50.91.03-5.23 0-5.16.09-5.76 5.31-.68 5.91-1.54 11.81-2.47 17.69-.38 2.38.77 5.03-1.18 7.15-4.37-.2-8.79.46-13.1-.49-9.55-2.09-15.51-8.22-18.73-17.21-3.57-9.99-2.49-19.61 3.2-28.47 4.22-6.56 10.29-10.6 18.32-11.16h63.15c1.11.52.69 2.06 1.73 2.62.96 2.93 1.99 5.82 4.34 8 .79 4.67 3.88 8.4 5.3 12.81.32.97.75 1.89 1.12 2.84zM1784.94 690.06c-1.84-5.07-2.42-10.42-3.48-15.66-1.09-5.39-2.25-10.78-3.14-16.2-.43-2.58-1.65-3.41-4.11-3.15-1.44.15-2.91 0-4.37-.02-.11-9.1.47-18.2-.37-27.31-.26-2.83-.81-4.66-3.57-5.57-.46-.15-.76-.83-1.13-1.26 11.84-.04 23.7-.36 35.53-.01 7.94.23 14.54 4.07 19.72 10.06 12.48 14.44 11.47 37.7-2.15 51.08-5.35 5.26-11.87 7.81-19.32 7.99-4.54.12-9.07.04-13.61.05z" class="st5"/><path d="M423.7 709.79c-.8 5.19-1.67 10.36-2.37 15.56-1.67 12.35-1.71 24.72-.85 37.15.68 9.78 2.93 19.28 4.48 28.9-4.5-.85-8.41-3.24-12.45-5.16-7.33-3.48-14.55-7.21-21.61-11.25-8.84-5.06-17.38-10.52-25.51-16.65-.22-.67-.74-1.27-.39-2.05 5.04-11.14 10.22-22.18 18.68-31.3 2.82-3.04 5.91-5.67 9.88-6.93 9.94-3.14 19.83-6.46 30.14-8.27z" class="st4"/><path d="M1642.83 725.31c-1.42-1.84-.85-4.13-1.3-6.19-.69-3.17-.96-6.43-1.41-9.65 47.33 0 94.66.01 141.98.02 2.04 0 4.09.05 6.13.07 1.89 5.21 2.09 10.43.17 15.68-17.25.02-34.5.06-51.74.07-31.27.01-62.55 0-93.83 0z" class="st0"/><path d="M209.27 661.2h-63.15c-1.61-5.31-3.15-10.63-2.56-16.3.79-7.64 3.39-14.38 9.16-19.76 4.26-3.97 9.13-6.16 14.96-6.18 7.45-.03 14.91-.07 22.36-.1 1.99 1.31 2.35 3.6 3.24 5.53 4.19 9.07 8.28 18.19 12.4 27.29.23 3.54 3.1 6.08 3.59 9.52zM671.98 805.25c1.69-6.03 3.61-12.01 5.03-18.11 3.01-12.97 4.65-26.13 4.52-39.48-.02-2.48.02-4.97.03-7.45 3.77 4.7 6.5 10.05 9.44 15.24 7.78 13.73 15.09 27.71 21.17 42.29-11.56 2.13-23.11 4.26-34.67 6.4-1.84.35-3.68.74-5.52 1.11zM1360.01 750.67c.13 19.5 3.71 38.37 10.44 56.65.15.4.14.85.21 1.28-14.29-1.84-28.59-3.67-42.88-5.51 13.77-11.4 20.53-27.35 27.91-42.9 1.5-3.14 2.46-6.53 4.32-9.52z" class="st4"/><path d="M215.34 671.82c-2.35-2.17-3.38-5.07-4.34-8 1.28-.29 2.57-.88 3.82-.81 7.31.38 14.56-1.06 21.83-.87 11.11.28 22.14-1.52 33.24-.96.29.01.59.01.88-.03 7.35-1.07 14.73-1.73 22.16-1.72.58 0 1.2.08 1.75-.07 6.27-1.68 12.77-.29 19.11-1.57 3.65-.73 7.5-.18 11.3-.78 2.83-.44 5.72-1.21 8.63-1.07 5.56.27 11.02-.88 16.55-1.14 3.72-.17 7.56-.25 11.28-.93 4-.73 7.99-1.34 12.08-1.56 4.05-.22 8.21-.27 12.14-1.07 8-1.62 16.11-2.28 24.17-3.03 5.37-.5 10.51-2.15 15.97-2.27 2.66-.06 5.5-.28 8.22-.73 6.72-1.11 13.44-2.23 20.17-3.3 7.16-1.13 14.31-2.35 21.5-3.25 3.49-.44 6.81-1.62 10.26-2 10.69-1.18 21.15-3.64 31.7-5.59 6.97-1.29 13.9-2.76 20.85-4.17 8.81-1.8 17.65-3.46 26.38-5.67 6.04-1.53 12.21-2.64 18.33-3.75 8.43-1.52 16.81-3.28 25.14-5.13 7.08-1.57 14.23-2.8 21.29-4.52 6.73-1.64 13.6-2.91 20.43-4.26 9.11-1.8 18.16-3.92 27.3-5.59 7.71-1.41 15.37-3.12 22.98-4.89 7.21-1.67 14.52-2.84 21.72-4.59 6.6-1.6 13.32-2.87 20-4.19 9.11-1.8 18.13-4.06 27.26-5.74 7.42-1.36 14.74-3.22 22.14-4.68 9.53-1.88 19-4.07 28.53-5.98 2.55-.51 5.51-.3 7.73-2.33-1.97-2.78-5.02-3.06-7.69-4.05-1.42-.52-2.85-.9-2.51-2.89 12.13-2.49 24.26-4.97 36.41-7.41 13.56-2.72 27.15-5.34 40.74-7.92 9.72-1.84 19.46-3.64 29.24-5.23 8.33-1.36 16.63-3.02 24.96-4.39 11.07-1.82 22.16-3.52 33.23-5.28 8.19-1.3 16.48-2.02 24.62-3.78 5.11-1.11 10.4-1.34 15.6-2.09 8.08-1.16 16.15-2.34 24.29-3.07 9.44-.85 18.74-2.75 28.23-3.2 5.82-.28 11.53-1.69 17.38-1.94 4.94-.21 9.86-.96 14.8-1.4 9.58-.86 19.17-1.75 28.76-2.5 5.67-.44 11.38-.64 17.05-.88 16.63-.71 33.24-1.8 49.89-2.29 26.18-.77 52.34-.72 78.5-.22 16.22.31 32.45.12 48.66.71 21.17.77 42.34 1.48 63.52 1.91 8.17.17 16.36.25 24.53.63 12.85.6 25.72.5 38.56 1.07 13.27.59 26.54 1.28 39.82 1.73 14.88.5 29.78.88 44.65 1.73 11.95.68 23.91 1.16 35.86 1.81 9.91.54 19.85.52 29.74 1.48 12.21 1.18 24.47 1.46 36.73 1.92 14.73.55 29.4 2.07 44.13 2.7 9.76.42 19.53 1.05 29.28 1.76 4.91.36 9.94.26 14.77 1.59-2.25 6.18-4.17 12.44-4.69 19.05-5.58.65-11.07-.52-16.59-1-2.02-.18-4.05-.43-6.09-.53-12.4-.63-24.81-.96-37.18-1.99-9.17-.76-18.34-1.28-27.52-1.75-11.67-.6-23.35-.95-34.99-1.76-10.93-.76-21.86-1.2-32.79-1.81-11.08-.62-22.18-.65-33.26-1.52-15.88-1.25-31.81-1.36-47.71-1.99-8.18-.33-16.38-.16-24.52-.81-16.18-1.29-32.41-1.17-48.6-1.85-11.26-.47-22.52-.09-33.74-.81-12.42-.79-24.87-.1-37.25-.93-9.35-.62-18.71-.27-28.04-.83-18.41-1.1-36.84-.53-55.26-.75-5.85-.07-11.67-.85-17.51-.63-17.53.66-35.09.25-52.62.95-16.04.64-32.06 1.78-48.1 2.59-10.77.54-21.54 1.48-32.27 2.61-10 1.06-20.05 1.46-30.02 3.06-6.59 1.06-13.39.92-20.01 2.03-7.78 1.3-15.64 1.82-23.46 2.67-4.79.52-9.48 1.58-14.27 2.14-9.99 1.15-19.99 2.33-29.87 4.14-9.9 1.81-19.94 2.6-29.78 4.78-3.98.88-8.07 1.23-12.09 1.91-9.34 1.57-18.65 3.28-28 4.77-9.93 1.58-19.81 3.47-29.69 5.3-7 1.3-14.03 2.59-21.01 4.14-8.53 1.89-17.19 3.22-25.76 4.96-13.99 2.83-27.92 5.98-41.95 8.62-12.6 2.37-25.08 5.31-37.65 7.85-13.41 2.71-26.76 5.84-40.14 8.74-16.37 3.54-32.77 6.99-49.14 10.55-11.39 2.48-22.74 5.15-34.13 7.64-8.12 1.77-16.28 3.36-24.4 5.08-6.98 1.48-13.92 3.13-20.92 4.55-9.14 1.86-18.36 3.37-27.46 5.4-9.1 2.02-18.2 4.05-27.38 5.65-12.06 2.1-24.03 4.62-36.08 6.79-13.05 2.35-26.13 4.48-39.16 6.92-9.17 1.72-18.38 3.24-27.58 4.64-11.52 1.75-23.08 3.35-34.61 5-9.95 1.42-20 2.1-29.91 3.94-6.14 1.14-12.47 1.32-18.71 1.94-7.97.8-15.94 1.69-23.92 2.4-5.09.45-10.19.64-15.29 1.03-13.68 1.03-27.37 1.8-41.07 2.56-4.52.25-9.07.18-13.6.2-16.82.03-33.64.06-50.46.1z" class="st0"/><path d="M661.31 712.97c0 5.27 1.68 10.3 2.25 15.5 4.75 43.22-5.46 82.05-34.36 115.12-10.55 12.07-23.39 21.29-38.22 27.77-16.31 7.13-33.28 9.99-50.85 8.05-14.59-1.61-28.38-6.17-41.07-13.88-30.76-18.69-48.9-46.46-57.81-80.65-6.93-26.59-6.13-53.23 1.39-79.67 1.35-1.34 3.23-1.44 4.87-1.62 6.66-.73 13.02-2.86 19.52-4.26 7.93-1.71 15.99-2.74 23.87-4.72-.1.27-.15.57-.3.81-11.99 18.94-16.72 39.61-14.6 61.87 2.13 22.26 10.57 41.66 26.64 57.45 11.73 11.52 25.9 18.23 42.21 19.97 12.33 1.31 24.17-1.23 35.23-6.7 12.38-6.13 22.39-15.16 29.92-26.76 16.21-24.98 19.66-51.97 12.14-80.53-3.74-14.23-11.03-26.57-20.75-37.53 9.97-.42 19.67.87 29.12 4.18 1.95.68 3.53 1.96 5.42 2.68 8.83 5.2 16.23 12.09 23.14 19.56.71.77 1.16 1.64 1.58 2.57.14.39-.16 1.15.75.88l-.09-.09z" class="st6"/><path d="M601.39 683.2c9.73 10.96 17.01 23.3 20.75 37.53 7.51 28.56 4.06 55.55-12.14 80.53-7.53 11.6-17.54 20.63-29.92 26.76-11.05 5.47-22.9 8.01-35.23 6.7-16.31-1.74-30.48-8.44-42.21-19.97-16.07-15.79-24.52-35.19-26.64-57.45-2.12-22.25 2.6-42.93 14.6-61.87.15-.24.2-.54.3-.81 9.39-1.38 18.68-3.32 28.07-4.79 17.33-2.71 34.68-5.13 52.2-6.22 10.05-.64 20.13-1.27 30.22-.41zm.72 64.96c-.07-20.89-9.08-41.61-27.35-52.98-9.52-5.93-20-8.41-31.02-6.52-13.01 2.24-23.59 9.07-31.54 19.62-16.95 22.52-17.34 54.37-1.09 77.48 6.95 9.88 16.13 17.14 27.82 19.98 18.04 4.38 33.81-.54 46.55-14.18 11.53-12.35 16.45-27.3 16.63-43.4z" class="st1"/><path d="M817.65 558.65c-.34 1.99 1.09 2.37 2.51 2.89 2.67.99 5.72 1.27 7.69 4.05-2.22 2.03-5.18 1.82-7.73 2.33-9.53 1.9-19 4.1-28.53 5.98-7.4 1.46-14.71 3.31-22.14 4.68-9.13 1.68-18.15 3.94-27.26 5.74-6.69 1.32-13.41 2.59-20 4.19-7.2 1.75-14.51 2.92-21.72 4.59-7.61 1.77-15.27 3.48-22.98 4.89-9.13 1.67-18.18 3.79-27.3 5.59-6.83 1.35-13.7 2.63-20.43 4.26-7.06 1.72-14.22 2.94-21.29 4.52-8.33 1.85-16.72 3.61-25.14 5.13-6.12 1.1-12.29 2.22-18.33 3.75-8.73 2.21-17.56 3.87-26.38 5.67-6.94 1.42-13.88 2.88-20.85 4.17-10.55 1.95-21.01 4.41-31.7 5.59-3.45.38-6.77 1.56-10.26 2-7.19.9-14.34 2.11-21.5 3.25-6.73 1.07-13.45 2.19-20.17 3.3-2.72.45-5.56.68-8.22.73-5.46.11-10.6 1.77-15.97 2.27-8.06.75-16.17 1.41-24.17 3.03-3.93.79-8.09.85-12.14 1.07-4.09.22-8.08.83-12.08 1.56-3.72.68-7.56.76-11.28.93-5.53.26-10.99 1.4-16.55 1.14-2.92-.14-5.8.63-8.63 1.07-3.8.59-7.65.04-11.3.78-6.34 1.27-12.85-.11-19.11 1.57-.55.15-1.16.07-1.75.07-7.43-.01-14.81.65-22.16 1.72-.29.04-.59.05-.88.03-11.1-.56-22.13 1.25-33.24.96-7.27-.19-14.52 1.26-21.83.87-1.26-.07-2.55.52-3.82.81-1.05-.57-.62-2.1-1.73-2.62-.49-3.43-3.35-5.97-3.58-9.51 13 .15 25.98 1 38.99.67 14.17-.36 28.35-.4 42.5-.99 10.04-.42 20.04-1.68 30.08-2.26 5.24-.3 10.48-.7 15.72-.98 7.87-.42 15.63-1.81 23.47-2.45 3.77-.31 7.56-.57 11.33-.94 8.7-.86 17.3-2.54 26.05-3.02 4.34-.24 8.63-1.35 12.95-1.96 9.66-1.37 19.35-2.55 28.98-4.06 9.78-1.53 19.58-2.94 29.3-4.8 9.58-1.84 19.25-3.17 28.86-4.84 7.75-1.34 15.47-2.83 23.2-4.27 4.58-.86 9.15-1.75 13.73-2.65 7.57-1.49 15.13-2.99 22.7-4.49 8.29-1.64 16.58-3.26 24.85-4.95 9.56-1.96 19.08-4.08 28.65-5.98 12.14-2.41 24.18-5.26 36.33-7.62 10.85-2.1 21.51-5.22 32.38-7.26 8.02-1.5 15.91-3.56 23.95-4.99 6.44-1.14 12.77-2.89 19.17-4.3 3.55-.78 7.16-1.35 10.71-2.14 7.54-1.66 15.05-3.47 22.59-5.09 8.11-1.75 16.31-3.12 24.37-5.07 11.6-2.8 23.43-4.54 34.91-7.84 2.15.43 4.05-1.12 6.18-.77z" class="st0"/><path d="M511.55 401.77c.68-4.58 2.74-8.33 4.4-12.18 6.02-13.96 13-27.43 20.75-40.53 8.26-13.96 17.64-27.14 27.42-40.03 3.69-4.87 7.82-9.41 11.86-14.02 6.07-6.92 12.39-13.61 19.08-19.94 10.92-10.33 22.46-19.91 34.74-28.59 7.51-5.3 15.14-10.44 23.37-14.52 6.37-3.16 12.94-5.9 19.72-8.21 8-2.73 16.04-5.28 24.21-7.43 8.03-2.11 16.15-3.75 24.28-5.41 9.27-1.9 18.65-3.14 27.98-4.61 6.17-.97 12.4-1.65 18.61-2.38 7.51-.88 15.02-1.8 22.55-2.46 5.08-.44 10.18-.46 15.27-1.04 11.31-1.29 22.69-1.42 34.04-2.07 7.3-.42 14.6-.16 21.87-.72 12.55-.98 25.13-.27 37.65-1.04 10.97-.68 21.94-.88 32.84-.36 14.18.68 28.34.12 42.5.75 4.51.2 9 .79 13.53.7 1.69-.03 2.2.86 2.36 2.43.83 8.4 1.71 16.79 2.66 25.18 1.06 9.39 2.27 18.77 3.3 28.17.75 6.8 1.23 13.63 1.96 20.43.7 6.51 1.85 12.97 2.29 19.49.45 6.7 1.55 13.3 2.09 19.99.56 6.96 1.53 13.88 2.28 20.82.71 6.51 1.35 13.03 2.06 19.54.73 6.65 1.49 13.3 2.3 19.94.44 3.61.63 7.25 1.05 10.87.55 4.77.96 9.55 1.71 14.3.44 2.76-.02 3.24-2.96 3.35-1.02.04-2.05.01-3.07.01-163.07 0-326.15 0-489.22-.01-1.72.01-3.49.31-5.48-.42zM1179.59 402.15c-28.38 0-56.77.45-85.14-.17-16.51-.36-33.02-.27-49.53-.55-3.17-.05-3.07-.12-3.47-3.13-1.35-10.09-2.81-20.17-4.18-30.26-.99-7.36-1.86-14.73-2.85-22.09-1.04-7.79-2.21-15.56-3.24-23.34-1.03-7.79-1.92-15.6-2.94-23.4-.98-7.5-2.03-15-3.05-22.49-1.02-7.5-2.04-14.99-3.05-22.49-1.05-7.79-2.11-15.57-3.15-23.36-1.02-7.64-2.1-15.28-2.97-22.94-.28-2.46-1.04-4.83-1-7.36.03-2.02.63-2.91 2.77-2.9 6.02.03 11.93.91 17.71 2.39 5.78 1.49 11.54 3.14 17.14 5.17 5.74 2.08 11.38 4.51 16.89 7.15 7.34 3.52 14.58 7.27 21.62 11.41 8.42 4.95 16.74 10.05 24.91 15.41 9.39 6.16 18.45 12.75 27.36 19.58 9.37 7.18 18.57 14.56 27.56 22.24 15.32 13.1 30.31 26.54 44.27 41.08 9.38 9.77 18.62 19.69 27.22 30.21 5.55 6.78 11.02 13.62 15.88 20.86 5.2 7.73 10.26 15.65 12.4 24.96.93 4.03.88 4.13-3.4 4.13-29.26.01-58.52.01-87.77.01.01-.03.01-.08.01-.12z"/><path d="M1454.88 601.44c-.28.92-.98 1.06-1.8.98.3-.86.93-1.14 1.8-.98z" class="st4"/><path d="M661.41 713.06c-.91.27-.62-.49-.75-.88.25.3.5.59.75.88z" class="st1"/><path d="M1490.68 879.92c-18.47-.18-35.7-4.86-51.56-14.42-30.1-18.15-48.3-45.17-57.21-78.57-9.84-36.88-6.29-72.69 10.95-106.9 8.6-17.05 20.49-31.56 35.73-43.07 11.12-8.4 23.47-14.43 37.09-18.02 15.04-3.97 30.16-4.21 45.18-1.25 13.95 2.75 26.86 8.47 38.53 16.86 29.95 21.53 46.61 51.17 53.05 86.93 5.57 30.94 1.76 60.84-11.5 89.4-9.92 21.36-24.43 38.98-44.12 52.02-7.64 5.06-15.85 9.13-24.74 11.86-10.27 3.15-20.61 5.34-31.4 5.16zm75.26-130.59c.13-24.71-7.63-46.38-22.62-63.79-9.98-11.59-22.45-19.64-37.32-23.06-11.47-2.64-23.1-2.38-34.62 1.23-14.88 4.66-26.74 13.42-36.22 25.48-11.31 14.38-17.45 30.88-19.1 49.08-2.22 24.54 3.47 46.97 18.14 66.88 8.86 12.03 20.31 21.02 34.41 25.91 11.4 3.95 23.14 5.11 35.35 2.42 15.44-3.41 28.12-11.04 38.53-22.56 16.08-17.83 23.12-39.17 23.45-61.59z" class="st6"/><path d="M602.11 748.16c-.18 16.1-5.1 31.06-16.63 43.4-12.74 13.64-28.51 18.56-46.55 14.18-11.7-2.84-20.87-10.1-27.82-19.98-16.25-23.11-15.87-54.96 1.09-77.48 7.95-10.55 18.53-17.38 31.54-19.62 11.02-1.9 21.5.59 31.02 6.52 18.27 11.37 27.28 32.09 27.35 52.98z" class="st7"/><path d="M1565.94 749.33c-.33 22.42-7.37 43.76-23.47 61.59-10.41 11.52-23.09 19.15-38.53 22.56-12.21 2.69-23.95 1.53-35.35-2.42-14.09-4.89-25.55-13.88-34.41-25.91-14.67-19.92-20.36-42.34-18.14-66.88 1.65-18.2 7.79-34.7 19.1-49.08 9.49-12.06 21.35-20.82 36.22-25.48 11.52-3.61 23.15-3.87 34.62-1.23 14.87 3.42 27.34 11.47 37.32 23.06 15.01 17.41 22.77 39.08 22.64 63.79zm-23.78-4.84c-1.14-21.02-9.92-40.86-32.93-52.2-8.09-3.99-16.83-5.24-25.61-3.61-13.12 2.44-23.74 9.29-31.68 20.12-16.65 22.72-16.96 54.15-.69 77.1 6.98 9.84 16.16 17.08 27.89 19.88 17.88 4.26 33.54-.57 46.2-14.02 11.58-12.29 16.63-27.2 16.82-47.27z" class="st1"/><path d="M1542.16 744.49c-.2 20.06-5.24 34.98-16.81 47.27-12.66 13.45-28.32 18.28-46.2 14.02-11.73-2.79-20.91-10.04-27.89-19.88-16.27-22.94-15.96-54.38.69-77.1 7.94-10.83 18.56-17.68 31.68-20.12 8.78-1.63 17.52-.38 25.61 3.61 23 11.35 31.79 31.19 32.92 52.2z" class="st7"/></svg>