<?xml version="1.0" encoding="utf-8"?>
<!-- Generator: Adobe Illustrator 27.0.1, SVG Export Plug-In . SVG Version: 6.00 Build 0)  -->
<svg version="1.1" id="Calque_1" xmlns="http://www.w3.org/2000/svg" xmlns:xlink="http://www.w3.org/1999/xlink" x="0px" y="0px"
	 viewBox="0 0 1920 1080" style="enable-background:new 0 0 1920 1080;" xml:space="preserve">
<style type="text/css">
	.st0{fill:#FFFFFF;}
</style>
<g>
	<path d="M828.45,733.62c-127.42,0-236.75,0.7-346.06-0.79c-15.41-0.21-31.18-10.06-45.91-17.24c-23.17-11.29-43.28-19.51-63.61,7.4
		c-16.01,21.18-44.96,16.48-55.21-8.56c-8.59-20.98-15.45-44.41-15.58-66.8c-0.51-93.25,1.32-186.53,3.62-279.77
		c0.34-13.97,6.22-28.43,12.11-41.51c17.12-38.02,30.69-37.81,63.12-11.53c10.86,8.81,34.87,4.58,52.07,1.62
		c24.23-4.18,47.71-18.52,71.5-18.49c212.53,0.22,425.78-7.36,637.33,7.95c141.24,10.22,290.11,7.35,418.4,90.78
		c47.22,30.71,79.02,66.26,79.31,125.19c0.28,57.56-31.31,92.03-79.45,115.49c-89.18,43.48-181.22,71.74-282.44,74.18
		C1121.85,715.31,966.24,726.5,828.45,733.62z M442.95,590.45c5.33,29.41-22.33,65.82,24.59,67.84
		c79.88,3.44,160.02,0.68,240.04,0.89c130.85,0.34,261.7,1.34,392.55,1.04c19.06-0.04,40.38-1.6,56.29-10.38
		c9.41-5.19,13.46-25.88,13.62-39.67c0.09-7.21-12.84-20.08-20.91-20.94c-36.09-3.88-72.54-5.77-108.86-5.8
		c-100.49-0.08-200.99,0.71-301.48,1.93C641.41,586.54,544.02,588.68,442.95,590.45z M1180.05,611.18
		c-0.95,29.87,16.29,49.04,39.01,44.71c30.5-5.82,61.24-11.56,90.72-20.98c11.36-3.63,19.51-17.26,29.13-26.34
		c-10.52-6.47-20.37-16.67-31.68-18.67c-29.65-5.25-60.01-6.4-89.95-10.19C1190.3,576.3,1173.87,582.8,1180.05,611.18z
		 M354.02,651.88c-9.98-21.87-18.92-41.47-27.86-61.08c-6.44,12.27-17.38,24.22-18.31,36.9
		C306.32,648.68,314.06,666.65,354.02,651.88z M379.4,647.69c12.25-15.67,25.32-25.37,23.96-32.23
		c-2.26-11.47-13.73-21.12-21.32-31.54c-8.23,8.74-21.73,16.71-23.15,26.44C357.58,619.38,369.18,630.29,379.4,647.69z
		 M1265.46,690.38c-32.69-7.18-55.26-12.13-77.89-17.11C1182.77,706.23,1189.51,708.17,1265.46,690.38z"/>
	<path class="st0" d="M442.95,590.45c101.07-1.78,198.45-3.91,295.85-5.09c100.49-1.22,200.99-2.02,301.48-1.93
		c36.32,0.03,72.77,1.92,108.86,5.8c8.07,0.87,20.99,13.73,20.91,20.94c-0.16,13.79-4.22,34.48-13.62,39.67
		c-15.91,8.77-37.23,10.33-56.29,10.38c-130.85,0.3-261.7-0.71-392.55-1.04c-80.03-0.21-160.17,2.56-240.04-0.89
		C420.62,656.27,448.29,619.86,442.95,590.45z"/>
	<path class="st0" d="M1180.05,611.18c-6.18-28.39,10.25-34.88,37.22-31.47c29.95,3.79,60.3,4.94,89.95,10.19
		c11.31,2,21.16,12.21,31.68,18.67c-9.61,9.08-17.77,22.71-29.13,26.34c-29.47,9.42-60.21,15.17-90.72,20.98
		C1196.34,660.23,1179.11,641.05,1180.05,611.18z"/>
	<path class="st0" d="M354.02,651.88c-39.96,14.78-47.69-3.19-46.16-24.18c0.92-12.68,11.87-24.62,18.31-36.9
		C335.1,610.4,344.04,630.01,354.02,651.88z"/>
	<path class="st0" d="M379.4,647.69c-10.22-17.41-21.82-28.31-20.5-37.33c1.42-9.73,14.92-17.7,23.15-26.44
		c7.59,10.42,19.06,20.07,21.32,31.54C404.71,622.32,391.65,632.02,379.4,647.69z"/>
	<path class="st0" d="M1265.46,690.38c-75.95,17.79-82.7,15.85-77.86-17.1C1210.21,678.25,1232.78,683.2,1265.46,690.38z"/>
</g>
</svg>
