<svg version="1.1" id="Calque_1" xmlns="http://www.w3.org/2000/svg" x="0" y="0" viewBox="0 0 1920 1080" style="enable-background:new 0 0 1920 1080" xml:space="preserve"><style>.st0{fill:#fff}</style><path d="M828.45 733.62c-127.42 0-236.75.7-346.06-.79-15.41-.21-31.18-10.06-45.91-17.24-23.17-11.29-43.28-19.51-63.61 7.4-16.01 21.18-44.96 16.48-55.21-8.56-8.59-20.98-15.45-44.41-15.58-66.8-.51-93.25 1.32-186.53 3.62-279.77.34-13.97 6.22-28.43 12.11-41.51 17.12-38.02 30.69-37.81 63.12-11.53 10.86 8.81 34.87 4.58 52.07 1.62 24.23-4.18 47.71-18.52 71.5-18.49 212.53.22 425.78-7.36 637.33 7.95 141.24 10.22 290.11 7.35 418.4 90.78 47.22 30.71 79.02 66.26 79.31 125.19.28 57.56-31.31 92.03-79.45 115.49-89.18 43.48-181.22 71.74-282.44 74.18-155.8 3.77-311.41 14.96-449.2 22.08zm-385.5-143.17c5.33 29.41-22.33 65.82 24.59 67.84 79.88 3.44 160.02.68 240.04.89 130.85.34 261.7 1.34 392.55 1.04 19.06-.04 40.38-1.6 56.29-10.38 9.41-5.19 13.46-25.88 13.62-39.67.09-7.21-12.84-20.08-20.91-20.94-36.09-3.88-72.54-5.77-108.86-5.8-100.49-.08-200.99.71-301.48 1.93-97.38 1.18-194.77 3.32-295.84 5.09zm737.1 20.73c-.95 29.87 16.29 49.04 39.01 44.71 30.5-5.82 61.24-11.56 90.72-20.98 11.36-3.63 19.51-17.26 29.13-26.34-10.52-6.47-20.37-16.67-31.68-18.67-29.65-5.25-60.01-6.4-89.95-10.19-26.98-3.41-43.41 3.09-37.23 31.47zm-826.03 40.7c-9.98-21.87-18.92-41.47-27.86-61.08-6.44 12.27-17.38 24.22-18.31 36.9-1.53 20.98 6.21 38.95 46.17 24.18zm25.38-4.19c12.25-15.67 25.32-25.37 23.96-32.23-2.26-11.47-13.73-21.12-21.32-31.54-8.23 8.74-21.73 16.71-23.15 26.44-1.31 9.02 10.29 19.93 20.51 37.33zm886.06 42.69c-32.69-7.18-55.26-12.13-77.89-17.11-4.8 32.96 1.94 34.9 77.89 17.11z"/><path class="st0" d="M442.95 590.45c101.07-1.78 198.45-3.91 295.85-5.09 100.49-1.22 200.99-2.02 301.48-1.93 36.32.03 72.77 1.92 108.86 5.8 8.07.87 20.99 13.73 20.91 20.94-.16 13.79-4.22 34.48-13.62 39.67-15.91 8.77-37.23 10.33-56.29 10.38-130.85.3-261.7-.71-392.55-1.04-80.03-.21-160.17 2.56-240.04-.89-46.93-2.02-19.26-38.43-24.6-67.84zM1180.05 611.18c-6.18-28.39 10.25-34.88 37.22-31.47 29.95 3.79 60.3 4.94 89.95 10.19 11.31 2 21.16 12.21 31.68 18.67-9.61 9.08-17.77 22.71-29.13 26.34-29.47 9.42-60.21 15.17-90.72 20.98-22.71 4.34-39.94-14.84-39-44.71zM354.02 651.88c-39.96 14.78-47.69-3.19-46.16-24.18.92-12.68 11.87-24.62 18.31-36.9 8.93 19.6 17.87 39.21 27.85 61.08zM379.4 647.69c-10.22-17.41-21.82-28.31-20.5-37.33 1.42-9.73 14.92-17.7 23.15-26.44 7.59 10.42 19.06 20.07 21.32 31.54 1.34 6.86-11.72 16.56-23.97 32.23zM1265.46 690.38c-75.95 17.79-82.7 15.85-77.86-17.1 22.61 4.97 45.18 9.92 77.86 17.1z"/></svg>