<?xml version="1.0" encoding="utf-8"?>
<!-- Generator: Adobe Illustrator 27.0.1, SVG Export Plug-In . SVG Version: 6.00 Build 0)  -->
<svg version="1.1" id="Calque_1" xmlns="http://www.w3.org/2000/svg" xmlns:xlink="http://www.w3.org/1999/xlink" x="0px" y="0px"
	 viewBox="0 0 1920 1080" style="enable-background:new 0 0 1920 1080;" xml:space="preserve">
<style type="text/css">
	.st0{display:none;}
	.st1{display:inline;fill:none;stroke:#000000;stroke-width:1.1232;stroke-miterlimit:10;}
	.st2{display:inline;fill:#FFCBF2;}
	.st3{display:inline;fill:#847E7A;}
	.st4{display:inline;fill:#EAF3F0;}
	.st5{display:inline;fill:#928581;}
	.st6{display:inline;fill:#C0FDFF;}
	.st7{display:inline;fill:#D0D1FF;}
	.st8{display:inline;fill:#DEAAFF;}
	.st9{display:inline;fill:#C8E7FF;}
	.st10{display:inline;fill:#509980;}
	.st11{display:inline;fill:#BE856A;}
	.st12{display:inline;fill:#E3AD86;}
	.st13{display:inline;fill:#AA6E5A;}
	.st14{display:inline;fill:#FDE7CF;}
	.st15{display:inline;fill:#7D95D6;}
	.st16{display:inline;fill:#F5D7C0;}
	.st17{display:inline;fill:#E16B79;}
	.st18{display:inline;fill:#61AD8E;}
	.st19{display:inline;fill:#A29793;}
	.st20{display:inline;fill:#8D71AA;}
	.st21{fill:none;stroke:#000000;stroke-width:2.2536;stroke-miterlimit:10;}
	.st22{fill:none;}
	.st23{display:inline;fill:none;stroke:#000000;stroke-width:2.2536;stroke-miterlimit:10;}
</style>
<g id="Calque_2_00000078026635224740300530000009493873197423913351_" class="st0">
	<rect x="-33" y="-30" class="st1" width="2013" height="1152"/>
	<rect x="-33" y="-67" class="st2" width="2013" height="1194"/>
</g>
<g id="Calque_3" class="st0">
</g>
<g id="Calque_1_00000132800975135980158040000000706353340456616626_" class="st0">
	<path class="st2" d="M198.19,623.14c0-204.99,0.05-409.98-0.19-614.96C197.99,0.49,198.77-2,207.57-2
		c497.28,0.29,994.56,0.29,1491.84,0c8.87-0.01,9.54,2.59,9.53,10.21c-0.23,229.91-0.18,459.81-0.18,689.72
		c-4.03,0.07-8.06,0.14-12.08,0.2c0.15-14.37-9.52-25.01-14.65-37.32c-2.7-6.49-2.95-15.32-11.49-18.47
		c-0.19-6.42-0.54-12.84-0.54-19.26c-0.03-132.15-0.02-264.3,0.02-396.45c0-6.45-0.04-12.25-5.24-17.66
		c-27.54-28.61-54.74-57.55-81.83-86.6c-4.85-5.2-8.06-6.09-13.38-0.33c-23.96,25.93-48.22,51.59-72.59,77.12
		c-9.99,10.46-15.4,21.42-15.28,36.98c0.7,91.97,0.14,183.95,0.01,275.93c-11.05,4.76-20.83,11.66-29.72,19.51
		c-5.3,4.68-8.81,4.5-12.74-0.65c-5.8-7.58-11.82-15.02-17.17-22.92c-21.45-31.65-48.17-57.24-82.53-74.78
		c-19.78-10.1-39.76-14.18-62.14-11.45c-13.52,1.65-24.13,10.58-37.47,11.3c-4.56-5.07-9.12-10.14-13.67-15.21l0.09,0.1
		c-0.89-2.39-2.43-4.12-4.92-4.91l0.09,0.08c-1.04-1.54-2.08-3.07-3.13-4.61c2.96-6.54,5.77-13.16,8.94-19.6
		c1.62-3.28,2.25-8.35,8.15-6.41c10.15,17.61,29.54,18.79,46.46,27.74c-2.34-12.16-13.82-14.54-18.25-23.2
		c8.05-1.87,14.52,1.98,24.4,4.09c-13-15.23-30.18-19.28-41.22-31.29c8.36-2.12,18.3,3.83,26.16-4.79
		c-5.16-3.21-12.5-1.03-15.18-8.07c4.61-2.8,12.28-0.6,12.78-7.83c-17.88-2.93-35.65-4.33-53.53-2.75c-9.42-2.86-5.07,4.9-5.14,7.59
		c-0.43,16.71-0.22,33.44-0.22,50.16c-0.8,0.04-1.6,0.08-2.4,0.11c-6.42-14.08-12.84-28.17-19.89-43.63c-3.7,3.83-6.4,6.63-9.1,9.42
		c-14.06,8.17-19.03,24.61-32.32,33.29c8.07,3.99,14.95-8.87,18.89-2.13c3.41,5.84-6.12,11.71-10.87,16.95
		c-0.37,0.41-0.19,1.31-0.31,2.4c9.45-0.04,15.82-5.47,21.18-12.01c5.57-6.8,10.43-14.18,15.6-21.3
		c10.61,7.7,10.78,21.29,17.54,31.16c-2.76,4.56-7.8,7.76-8.21,13.73c-4.46,3.2-6.1,8.33-8.14,12.93
		c-8.82,19.95-17.23,40.08-25.79,60.14c-3.34-0.12-6.48,0.45-8.72,3.18c-12.14,14.74-24.95,29-36.19,44.4
		c-16.7,22.89-32.6,46.37-47.4,70.58c-16.68,27.28-33.27,54.57-44.92,84.5c-31.08,0.04-62.15,0.08-93.23,0.12
		c-0.21-5.61-0.59-11.21-0.59-16.82c-0.03-142.52-0.02-285.05-0.03-427.57c0-4.41,0.2-8.86-0.26-13.24
		c-1.88-17.96-13.77-29.29-31.12-29.94c-4.32-4.51-9.89-2.38-14.81-2.38c-114.56-0.15-229.12-0.15-343.68-0.1
		c-22.9,0.01-45.81,0.28-68.71,0.44c-20.43,2.83-32.69,16.15-33.42,36.6c-0.37,10.31-0.42,20.63-0.61,30.94
		c-47.79-0.07-95.59-0.11-143.38-0.23c-8.01-0.02-15,2.27-20.77,7.93c-3.05-3.44-1.86-7.64-1.89-11.54
		c-0.13-16.06-0.17-32.13-0.05-48.2c0.06-7.71-0.4-15.49-10.34-15.73c-10.64-0.25-11.43,7.79-11.41,16.02
		c0.08,30.93,0.05,61.85,0.01,92.78c-0.12,77.11-0.27,154.22-0.4,231.33c-5.01,0.29-8.23,3.71-10.4,7.41
		c-11.48,19.58-26.55,36.89-36.44,57.47C206.89,617.97,204.41,622.66,198.19,623.14z"/>
	<path class="st3" d="M198.19,623.14c6.22-0.48,8.7-5.16,10.99-9.93c9.89-20.59,24.95-37.89,36.44-57.47
		c2.17-3.7,5.39-7.12,10.4-7.41c-0.02,49.91-0.04,99.82-0.06,149.73c-19.26-0.04-38.51-0.09-57.77-0.13
		C198.19,673,198.19,648.07,198.19,623.14z"/>
	<path class="st4" d="M198.19,697.93c19.26,0.04,38.51,0.09,57.77,0.13c0.05,8.22,0.1,16.44,0.15,24.66
		c-19.29,1.22-38.7-1.77-57.92,1.75C198.19,715.62,198.19,706.77,198.19,697.93z"/>
	<path class="st4" d="M1708.76,722.05c-12.87,0.11-25.73,0.23-38.6,0.34c0.01-7.34,0.02-14.68,0.03-22.02
		c0.81-0.74,1.63-1.48,2.44-2.21c8.01-0.01,16.03-0.02,24.04-0.03c4.03-0.07,8.06-0.14,12.08-0.21
		C1708.76,705.97,1708.76,714.01,1708.76,722.05z"/>
	<path class="st5" d="M198.19,724.47c19.22-3.51,38.63-0.52,57.92-1.75c-0.01,8.64-0.03,17.29-0.04,25.94
		c-0.68-0.41-1.68-0.65-2-1.26c-12.5-23.56-34.24-21.9-55.88-20.52C198.19,726.08,198.19,725.27,198.19,724.47z"/>
	<path class="st3" d="M1239.93,433.09c13.34-0.72,23.94-9.65,37.47-11.3c22.38-2.74,42.36,1.35,62.14,11.45
		c34.36,17.55,61.08,43.13,82.53,74.78c5.35,7.89,11.37,15.34,17.17,22.92c3.94,5.15,7.44,5.33,12.74,0.65
		c8.89-7.85,18.67-14.75,29.73-19.51c-0.06,62.03-0.13,124.07-0.19,186.1c-26.56,0.01-53.11,0.02-79.67,0.03
		c-22.13-14.58-36.21-36.18-49.3-58.23C1312.43,572.43,1282.19,499.49,1239.93,433.09z"/>
	<path class="st2" d="M1428.95,735.91c-9.63,1.48-17.38,7.81-26.62,10.29c-25.77,1.21-50.87-2.9-75.66-9.5
		c-11.42-7.54-18.02-19.8-28.07-28.69c-0.38-1.54-0.45-3.26-1.2-4.59c-29.71-52.52-52.44-107.83-66.84-166.5
		c-0.62-2.55-1.02-5.61-5.62-6.58c-2.53,11.93-4.71,23.91-7.64,35.69c-10.95,43.94-25.19,86.82-42.32,128.73
		c-1.63,4-1.94,6.78,1.9,9.2c-2.28,1.52-5.87,2.56-6.62,4.63c-5.96,16.55-20.07,27.59-28.25,42.57c-2.77-0.1-5.57-0.08-7.56-2.52
		c1.28-9.95,7.01-19.59,2.8-32.24c-6.2,8.49-8.61,16.8-14.8,22.47c-3.64-2.52-7.15-5.36-12.03-4.7c-4.02,0.48-6.16-6.69-11.48-2.19
		c-10.73,9.07-24.21,13.12-36.74,18.87c-5.07-1.32-17.83,5.16-9.71-9.56c4.98,0.53,9.38-1.09,13.83-3.21
		c23.59-11.24,40.02-30,49.93-53.17c12.98-30.37,24.79-61.44,34.23-93.07c11.44-38.34,24.35-76.22,35.39-114.68
		c5.27-18.35,10.66-36.66,16-54.98c0.41-5.97,5.45-9.16,8.21-13.73c2.2,0.17,4.4,0.34,6.6,0.51c0.23,2.98,2.11,4.06,4.83,4.17
		l-0.09-0.08c0.07,3.21,1.68,4.88,4.92,4.91c0,0-0.09-0.1-0.09-0.09c0.22,1.97-0.17,4.31,0.75,5.87
		c18.11,30.66,30.61,63.94,45.33,96.19c22.95,50.27,46.53,100.27,73.19,148.71c16.95,30.8,42.32,51.84,75.99,62.55
		C1424.47,732.14,1428.16,731.65,1428.95,735.91z M1200.12,568.32c-1.08-0.13-2.16-0.27-3.24-0.4c-5.41,17.97-8.17,36.48-9.1,55.39
		C1191.9,604.98,1196.01,586.65,1200.12,568.32z"/>
	<path class="st6" d="M1481.51,698.18c0.07-62.03,0.13-124.07,0.19-186.1c0.13-91.98,0.69-183.96-0.01-275.93
		c-0.12-15.56,5.3-26.52,15.28-36.98c24.38-25.54,48.64-51.19,72.59-77.12c5.32-5.76,8.53-4.88,13.38,0.33
		c27.08,29.04,54.29,57.99,81.83,86.6c5.2,5.41,5.25,11.21,5.24,17.66c-0.04,132.15-0.04,264.3-0.02,396.45
		c0,6.42,0.35,12.84,0.54,19.26c-0.09,18.55-0.17,37.09-0.25,55.64c-0.21,0.79-0.24,1.59-0.1,2.39c-0.01,7.34-0.02,14.68-0.03,22.02
		c0.29,4.77-0.99,8.88-4.98,11.85c-60.92-0.09-121.84-0.18-182.76-0.26c-0.21-3.59-0.42-7.18-0.63-10.77
		C1481.7,714.87,1481.6,706.52,1481.51,698.18z M1549.59,244.08c-0.01-1.49-0.01-2.98-0.02-4.47c0.88,0.08,1.76,0.17,2.64,0.25
		c-0.01,19.99-0.01,39.99-0.02,59.98c6.25,7.86,12.57,7.34,18.93,0.14c0.76-0.1,1.52-0.14,2.29-0.12c5.71,13.77,15.7,6.1,24.41,4.87
		c15.27,0.01,30.55-0.26,45.81,0.14c7.44,0.19,9.81-2.73,9.7-9.92c-0.31-21.29-0.23-42.59-0.03-63.88c0.05-5.26-1.83-9.1-5.48-12.73
		c-21.67-21.52-43.39-42.99-64.66-64.9c-5.78-5.95-9.29-5.01-14.57,0.39c-21.06,21.55-42.5,42.74-63.79,64.06
		c-2.84,2.84-5.91,5.55-5.91,10.07c0.02,24.51-0.01,49.02,0.1,73.53c0.01,2.99,0.62,6.23,4.86,3.04c0.77,0.05,1.54,0.07,2.31,0.05
		c6.4-0.01,12.8-0.02,19.19-0.03c2.58,3.2,6.25,2.18,9.59,2.49c11.07,1.44,17.16-2.15,14.59-14.47c0.01-14.38,0.03-28.77,0.04-43.15
		C1549.57,247.63,1549.58,245.85,1549.59,244.08z M1609.29,541.26c5.76,4.19,11.6,1.62,17.44,0.23c3.45,2.94,7.68,1.38,11.52,2.03
		c12.36,2.09,15.78-3.05,15.26-15.18c-0.97-22.78-0.71-45.63-0.07-68.43c0.27-9.66-2.34-14.48-12.53-13.16
		c-1.3-3.91-0.97-7.79,0.22-11.65c11.44-1.83,13-9.43,12.2-19.37c-0.74-9.06-0.15-18.22-0.14-27.34c2.88-4.29,1.69-9.89,4.98-14.22
		c4.78-6.3,1.85-10.02-4.99-11.74c0.03-10.85-0.39-21.72,0.23-32.54c0.49-8.61-2.91-10.99-11.16-10.93
		c-44.2,0.31-88.41,0.34-132.61-0.01c-8.61-0.07-11.05,2.98-10.92,11.21c0.4,25.31,0.15,50.62,0.14,75.93
		c0,26.32,0,26.32,26.64,26.55c18.96,2.95,37.89-0.13,56.83-0.32c11.85,0.24,23.69,0.49,35.54,0.73c0.15,4.57,0.3,9.15,0.45,13.72
		c-35.79,0.06-71.59,0.42-107.38-0.04c-9.66-0.12-12.58,2.97-12.23,12.42c0.65,17.67,0.18,35.38,0.18,53.07
		c0,33.51,0,33.51,33.95,30.61c4.38,1.1,8.5,0.07,12.54-1.58C1566.66,544.62,1587.97,545.07,1609.29,541.26z M1593.37,712.77
		c1.14-0.11,2.29-0.23,3.43-0.34c7.62,0.08,15.24,0.17,22.87,0.25c7.08,4.31,14.89,1.11,22.28,2.17c9.26,1.32,11.5-3.03,11.43-11.72
		c-0.35-45.35-0.36-90.7,0.04-136.05c0.08-8.97-2.66-11.75-11.65-11.67c-43.35,0.4-86.7,0.42-130.05,0.01
		c-10.21-0.1-13.09,3.75-13.01,13.47c0.36,44.95,0.38,89.9-0.06,134.84c-0.09,9.41,3.29,12.38,11.95,10.96
		c1.78,0.78,3.56,2.23,5.35,2.24c23.27,0.18,46.54,0.15,69.81,0.2C1589.17,717.13,1592.2,716.62,1593.37,712.77z"/>
	<path class="st7" d="M905.48,210.48c17.35,0.64,29.24,11.98,31.12,29.94c0.46,4.37,0.26,8.82,0.26,13.24
		c0.01,142.52,0,285.05,0.03,427.57c0,5.61,0.39,11.21,0.59,16.82c-0.25,6.55-0.5,13.11-0.76,19.66c-0.34,3.68-1.54,6.97-4.38,9.5
		c-2.47-4.63,3.32-12.16-5.15-14.69c-0.17-1.58-0.33-3.16-0.5-4.73c-0.99-5.39-4.2-8.58-9.55-9.66c-1.29-0.39-2.58-0.79-3.87-1.18
		c-0.22-2.07-0.43-4.14-0.65-6.2c4.34-5.32,2.21-11.6,2.15-17.37c-0.16-14.36,6-32.91-2.16-41.99c-8.94-9.94-27.97-3.2-42.55-3.29
		c-65.32-0.4-130.64-0.16-195.96-0.21c-5.47,0-11.46,1.36-15.32-4.41c80.67-0.11,161.34-0.2,242-0.4c4.66-0.01,9.69,1.51,13.91-2
		c-0.01-5.92-0.03-11.84-0.04-17.75c0.17-62.63,0.03-125.27,0.77-187.89c0.14-11.86-3.55-14.49-14.91-14.46
		c-147.81,0.38-295.62,0.25-443.43,0.27c-4,0-8.01,0.37-12.01,0.56c0.49-1.08,0.98-2.16,1.47-3.24
		c152.74,0.08,305.49,0.17,458.23,0.25c0.4,0,0.81-0.04,1.21,0c6.89,0.69,9.1-2.67,9.01-9.25c-0.25-18.08-0.27-36.17,0.04-54.25
		c0.1-5.98-1.79-6.84-7.63-6.83c-153.55,0.29-307.1,0.28-460.65,0.32c-0.9-3.85-1.79-7.69-2.69-11.54
		c0.04-4.22,0.09-8.44,0.13-12.66c0.02-9.54,0.04-19.08,0.07-28.63c0.19-10.31,0.24-20.63,0.61-30.94
		c0.73-20.45,12.99-33.77,33.42-36.6c4.19,3.6,9.24,2.05,13.9,2.05c130.62,0.09,261.24,0.07,391.86,0.07
		C891.18,210.54,898.33,210.5,905.48,210.48z M643.78,321.66c3.56,2.6,7.69,1.86,11.64,1.86c81.86,0.03,163.71,0.04,245.57-0.03
		c3.87,0,8.1,1.24,11.45-2.03c4.34-2.83,2.54-7.25,2.58-10.99c0.17-17.25,0.05-34.51,0.03-51.77c-0.03-24.97-6.31-31.32-31.09-31.33
		c-128.04-0.01-256.08,0-384.12,0.02c-4.81,0-9.68-0.16-14.42,0.49c-9.13,1.26-16.39,6.35-18.23,15.27
		c-2.22,10.78-3.46,22.05,0.93,32.88c-7.7,14.48-4.47,29.48-2.07,44.43c0.05,0.34,1.42,0.47,2.17,0.7
		c57.95,0.03,115.9,0.05,173.85,0.08C642.64,321.39,643.21,321.53,643.78,321.66z"/>
	<path class="st7" d="M256.07,748.66c0.01-8.65,0.03-17.29,0.04-25.94c-0.05-8.22-0.1-16.44-0.15-24.66
		c0.02-49.91,0.04-99.82,0.06-149.73c0.14-77.11,0.29-154.22,0.4-231.33c0.05-30.93,0.07-61.85-0.01-92.78
		c-0.02-8.23,0.77-16.27,11.41-16.02c9.93,0.23,10.39,8.02,10.34,15.73c-0.12,16.06-0.09,32.13,0.05,48.2
		c0.03,3.89-1.16,8.1,1.89,11.54c0.03,6.96,0.06,13.92,0.09,20.89c-0.3,5.13-1.53,10.51,3.82,14.1c-7.82,2.04-6.11,8.48-6.11,13.83
		c-0.02,139.46,0.04,278.92,0.09,418.38C270.66,750.26,263,753.16,256.07,748.66z"/>
	<path class="st8" d="M1201.86,422.19c-5.34,18.33-10.73,36.64-16,54.98c-11.04,38.46-23.95,76.34-35.39,114.68
		c-9.44,31.63-21.25,62.7-34.23,93.07c-9.91,23.17-26.34,41.92-49.93,53.17c-4.45,2.12-8.85,3.74-13.83,3.21
		c-8.68-7.53-19.17-3.98-28.94-4.57c-8.7-0.52-15.01-2.96-14.36-13.28c14.61-8.97,32.16-12.28,45.53-23.63
		c10.62-6.19,18.24-15.47,25.42-25.1c40.48-54.32,62.84-117.53,87.81-179.45c8.56-20.06,16.97-40.19,25.79-60.14
		C1195.76,430.52,1197.4,425.39,1201.86,422.19z"/>
	<path class="st3" d="M1167.93,495.26c-24.97,61.92-47.33,125.13-87.81,179.45c-7.18,9.63-14.8,18.91-25.42,25.1
		c-7.76-3.67-16.03-0.98-24.01-1.9c11.65-29.94,28.24-57.23,44.92-84.5c14.8-24.21,30.7-47.69,47.4-70.58
		c11.24-15.4,24.05-29.66,36.19-44.4C1161.46,495.72,1164.6,495.14,1167.93,495.26z"/>
	<path class="st8" d="M1428.95,735.91c-0.79-4.26-4.48-3.76-7.44-4.71c-33.66-10.71-59.03-31.75-75.99-62.55
		c-26.66-48.44-50.24-98.43-73.19-148.71c-14.72-32.25-27.22-65.54-45.33-96.19c-0.92-1.56-0.53-3.9-0.75-5.87
		c4.56,5.07,9.12,10.14,13.67,15.21c42.27,66.4,72.5,139.34,112.61,206.88c13.09,22.05,27.17,43.65,49.3,58.23
		c12.64,13.66,30,18.79,46.39,25.68C1441.55,727.48,1434.33,730.23,1428.95,735.91z"/>
	<path class="st8" d="M280.18,304.54c-0.03-6.96-0.06-13.93-0.09-20.89c5.77-5.66,12.75-7.95,20.77-7.93
		c47.79,0.13,95.59,0.17,143.38,0.23c-0.02,9.54-0.05,19.08-0.07,28.63C389.51,304.57,334.85,304.56,280.18,304.54z"/>
	<path class="st4" d="M1030.7,697.92c7.98,0.92,16.24-1.77,24.01,1.9c-13.37,11.35-30.92,14.66-45.53,23.62
		c-18.89-1.35-37.77-1.66-56.65,0.14c-4.38-1.5-12.03,1.92-11.09-7.82c0.11-1.17-3,1.39-4.72,1.93c0.25-6.55,0.5-13.11,0.75-19.66
		C968.55,698,999.63,697.96,1030.7,697.92z"/>
	<path class="st9" d="M1246.87,359.87c11.04,12.01,28.22,16.05,41.22,31.29c-9.88-2.1-16.35-5.95-24.4-4.09
		c4.43,8.65,15.92,11.03,18.25,23.2c-16.92-8.95-36.31-10.14-46.46-27.75c-5.57-11.56,1.95-17.35,10.08-22.87
		C1246,359.68,1246.44,359.76,1246.87,359.87z"/>
	<path class="st9" d="M1246.87,359.87c-0.43-0.12-0.87-0.19-1.31-0.22c-4.64-8.69-8.24-4.1-11.81,0.92
		c-5.59,0.59-11.19,1.19-16.78,1.78c0.05-8.64,0.09-17.28,0.14-25.92c17.88-1.58,35.64-0.18,53.53,2.75
		c-0.5,7.22-8.17,5.03-12.78,7.83c2.68,7.04,10.02,4.86,15.18,8.07C1265.17,363.7,1255.23,357.75,1246.87,359.87z"/>
	<path class="st6" d="M1217.1,336.44c-0.05,8.64-0.09,17.28-0.14,25.92c0,11.17,0,22.34,0,33.51c7.13-11.43,13.46-22.7,16.79-35.29
		c3.57-5.02,7.17-9.61,11.81-0.92c-8.13,5.52-15.65,11.31-10.08,22.87c-5.9-1.94-6.53,3.13-8.15,6.41
		c-3.17,6.44-5.98,13.06-8.94,19.6c-0.58,0.1-1.15,0.25-1.7,0.44c-2.2-0.17-4.4-0.34-6.6-0.51c-6.76-9.87-6.93-23.45-17.54-31.16
		c2.9-10.65-7.17-12.14-12.17-17.21c2.7-2.79,5.4-5.59,9.1-9.42c7.05,15.46,13.47,29.54,19.89,43.63c0.8-0.04,1.6-0.08,2.4-0.11
		c0-16.72-0.21-33.45,0.22-50.16C1212.03,341.34,1207.68,333.58,1217.1,336.44z"/>
	<path class="st7" d="M905.48,210.48c-7.15,0.02-14.29,0.07-21.44,0.07c-130.62,0-261.24,0.02-391.86-0.07
		c-4.66,0-9.71,1.55-13.9-2.05c22.9-0.15,45.81-0.43,68.71-0.43c114.56-0.04,229.12-0.05,343.68,0.1
		C895.59,208.1,901.16,205.97,905.48,210.48z"/>
	<path class="st9" d="M1180.36,360.1c5.01,5.06,15.07,6.55,12.17,17.21c-5.17,7.12-10.03,14.5-15.6,21.3
		c-5.36,6.54-11.73,11.97-21.18,12.01c0.12-1.09-0.06-2,0.31-2.4c4.75-5.24,14.28-11.12,10.87-16.95
		c-3.94-6.74-10.82,6.11-18.89,2.13C1161.33,384.71,1166.3,368.27,1180.36,360.1z"/>
	<path class="st2" d="M1670.29,697.98c0.08-18.55,0.16-37.09,0.25-55.64c8.54,3.15,8.79,11.98,11.49,18.47
		c5.12,12.31,14.79,22.95,14.65,37.32c-8.01,0.01-16.03,0.02-24.04,0.03C1671.86,698.04,1671.08,697.99,1670.29,697.98z"/>
	<path class="st10" d="M1226.34,417.97c-3.24-0.04-4.85-1.71-4.92-4.91C1223.91,413.85,1225.45,415.58,1226.34,417.97z"/>
	<path class="st10" d="M1216.68,408.98c0.56-0.19,1.13-0.34,1.7-0.44c1.04,1.54,2.08,3.07,3.12,4.61
		C1218.79,413.04,1216.91,411.96,1216.68,408.98z"/>
	<path class="st6" d="M712.11,987.41c-13,15-29.53,14.05-45.96,8.77c-11.93-3.83-12.86-14.85-12.14-25.71
		c4.84-14.53,9.68-29.06,14.53-43.59c7.23-21.58,14.46-43.17,21.69-64.75c0.83-1.81,1.86-3.56,2.45-5.45
		c2.73-8.74,8.83-18.36,6.97-26.03c-1.71-7.05-14.66-4.9-21.99-8.72c-2.78-1.45-5.94-2.16-8.93-3.21
		c-2.98-3.52-2.56-7.82-2.77-11.97c1.1-18.43,3.22-20.4,22.03-24.57c50.32-11.13,101.49-13.15,152.71-14.64
		c4.69,1.06,4.73,4.82,4.32,8.3c-1.25,10.58,3.91,14.2,13.68,13.19c0.16,4,0.58,8.01,0.42,12c-0.26,6.25,0.25,11.04,8.65,10.64
		c7.33-0.35,12.99-2.13,13.01-10.5c0.02-7.08,1.85-14.46-2.17-21.17c-0.14-4.36-0.62-8.83,3.98-11.56
		c8.1-0.09,16.19-0.18,24.29-0.27c7.01,9.71,16.6,9.99,29.72,0.87c20.32,2.04,40.79,0.94,61.13,3.48
		c23.42,2.93,46.89,5.17,69.77,11.35c11.08,2.99,16.61,9.19,16.34,21.54c-0.26,12.2-7.68,15.57-17.13,18.06
		c-4.26,1.12-8.41,2.69-12.7,3.66c-5.66,1.28-6.92,3.9-4.71,9.45c4.28,10.75,7.88,21.77,11.76,32.68
		c7.65,23.23,15.3,46.45,22.95,69.68c3.59,14.67,12.18,27.97,11.9,43.69c-12.77,18.7-35.14,22.57-55.25,9.57
		c-8.38-12.6-6.16-27.37-8.42-41.23c-1.53-17.43-3.06-34.87-4.58-52.3c-2.03-19.44-4.24-38.86-5.99-58.32
		c-0.78-8.67-6.63-7.91-12.15-7.02c-8.21,1.32-3.06,6.72-2.16,10.04c5.02,18.52,13.97,35.88,16.53,55.15
		c-6.28,13.82-11.23,28.28-19.53,41.14c-18.81-1.67-22.83-5.63-24.8-24.46c-2.19-21.43-5.45-42.82-6.15-64.3
		c-0.39-11.95-4.91-13.88-15.08-13.21c-19.15,1.26-38.34,2.14-57.53,2.3c-34.42,0.28-68.86,0.97-103.23-2.04
		c-5.46-0.48-10.48-0.37-10.47,7.58c0.03,24.02-5.83,47.63-5.28,71.71c-6.33,20.73-7.26,21.38-31.2,22.21
		c-5.88-13.68-13.78-26.51-17.19-41.22c8.86-16.65,12.49-35.22,19.21-52.65c1.83-4.74,4.44-10.83-4.41-11.12
		c-7.45-0.25-18.5-7.27-20.9,5.42c-3.17,16.74-3.51,34.02-5.06,51.06c-1.13,12.72-2.25,25.44-3.38,38.16
		c-2.41,4.07-1.39,8.61-1.84,12.96C715.47,957.16,713.77,972.28,712.11,987.41z M811.53,789.68c-7.88-0.41-15.61-0.44-19.88,10.49
		c-2.38-6.3-3.37-12.04-10.16-10.45c-4.5,1.24-11.3-2.81-13.23,4.13c-3.8,13.66,7.3,8.97,13.49,10.2c9.9,1.54,19.8,3.09,29.7,4.63
		c4.47-1.27,12.83,3.14,12.63-4.19C823.92,798.57,822.62,788.65,811.53,789.68z M953.36,780.25c-5.61-0.04-11.28,0.45-16.81-0.23
		c-11.44-1.41-17.96,1.12-21.16,14.26c-2.53,10.37-1.7,13,8.63,12.16c37.53-3.08,75.17-1.97,112.76-2.57
		c1.43-0.02,2.85-0.74,4.36-1.16c-2.31-8.6-8.32-14.01-12.89-20.35c-2.4-2.91-5.75-2.36-8.89-2.35
		C997.36,780.06,975.36,780.17,953.36,780.25z"/>
	<path class="st3" d="M1032.26,950.98c2.26,13.85,0.04,28.62,8.42,41.23c-63.91,10.63-128.43,11.04-192.85,9.34
		c-42.66-1.13-85.32-4.9-127.35-13.34c-2.73-0.55-5.57-0.54-8.36-0.79c1.66-15.12,3.35-30.24,4.94-45.37
		c0.46-4.35-0.57-8.89,1.84-12.96c0.17,1.98,0.64,3.99,0.46,5.94c-0.94,10.61,3.98,16.81,14.27,18.4
		c10.56,1.63,15.29-4.51,16.99-13.98c23.94-0.83,24.86-1.49,31.2-22.21c31.08-2.09,62.24-1.93,93.33-4.32
		c34.79-2.68,69.57,2.72,104.4,2.29c1.97,18.83,5.99,22.8,24.8,24.46c-2.76,14.75,4.28,20.27,17.65,18.6
		C1027.03,957.63,1027.75,951.82,1032.26,950.98z"/>
	<path class="st2" d="M277.98,750.85c-0.05-139.46-0.1-278.92-0.09-418.38c0-5.35-1.71-11.79,6.12-13.83
		c1.27,0.96,2.54,1.93,3.8,2.89c1.36,6.66,1.65,13.06,0.46,20.05c-1.6,9.34-1.4,19.09,0.45,28.69c1.25,6.47,3.68,9.47,10.96,9.41
		c41.73-0.33,83.47-0.27,125.2-0.05c7.21,0.04,10.04-2.33,9.86-9.72c-0.38-16.04-0.11-32.09-0.1-48.14
		c2.31-3.21,5.46-4.67,9.39-4.53c0.9,3.85,1.79,7.69,2.69,11.54c-1.95,23.25-3.45,46.5-0.21,69.76c-0.49,1.08-0.98,2.16-1.47,3.24
		c0.13,7,0.27,14,0.4,21c-0.18,49.75-0.36,99.5-0.54,149.26c0.07,1.75,0.13,3.5,0.2,5.25c-0.81,13-1.17,25.99,0.59,38.95
		c-0.27,2.97-0.53,5.95-0.8,8.92c-0.05,24.32-0.11,48.64-0.16,72.97c-0.14,17.67-0.27,35.34-0.41,53.01
		c-3.19-0.13-6.37-0.27-9.56-0.4c-0.08-9.58-0.16-19.16-0.24-28.74c0.01-7.18,0.03-14.36,0.04-21.54c0.02-3.61,0.06-7.22,0.05-10.83
		c-0.03-15.88-0.03-15.9-15.47-15.9c-33.3-0.01-66.6-0.15-99.9,0.09c-9.13,0.06-19.92-3.57-26.96,1.84
		c-6.61,5.08-0.77,16.01-3.35,24.02c-4.2,16.98,0.05,34.19-1.44,51.24C284.34,750.89,281.16,750.87,277.98,750.85z M290.55,451.27
		c1.3-0.2,2.6-0.4,3.9-0.59c19.35-0.04,38.71-0.08,58.06-0.13c17.91,0.18,35.82,0.48,53.73,0.53c30.09,0.09,30.09,0.02,27.94-30.66
		c0-5.61,0.01-11.23,0.01-16.84c0.39-0.7,0.52-1.44,0.37-2.23c1.33-8.42-3.11-10.02-10.5-9.96c-33.32,0.27-66.65-0.08-99.97,0.22
		c-11.52,0.11-26.31-5-33.75,2.23c-8.03,7.8-2.67,22.89-2.65,34.73C287.72,436.07,284.21,444.43,290.55,451.27z M434.05,620.69
		c-1.72-6.53,6.6-18.36-7.01-18.6c-43.2-0.78-86.43-0.22-129.64-0.32c-5.88-0.01-7.81,2.74-7.5,8.1c0.21,3.59,0.24,7.2,0.35,10.79
		c-0.12,2.44-0.24,4.88-0.36,7.31c-0.03,7.2,0.42,14.44-0.21,21.59c-0.82,9.29,2.33,12.57,12.07,12.41
		c33.6-0.56,67.21-0.21,100.82-0.22c33.34,0,33.34,0,31.73-34.01C434.21,625.39,434.13,623.04,434.05,620.69z M434.36,574.54
		c0.13-11.62,0.09-23.25,0.45-34.87c0.17-5.4-1.22-7.98-7.31-7.95c-44.12,0.2-88.23,0.12-132.35,0.1c-3.44,0-6.82,0.2-6.64,4.75
		c0.54,13.51-1.97,27.13,1.48,40.52c-2.7,11.83,2.2,15.08,13.89,14.87c38.12-0.66,76.26-0.24,114.39-0.24
		C435.09,591.73,435.09,591.72,434.36,574.54z M361.86,461.42c0-0.06,0-0.11,0-0.17c-20.85,0-41.72,0.51-62.55-0.23
		c-9.42-0.34-11.62,2.93-11.16,11.63c0.69,12.79,0.53,25.66,0.09,38.48c-0.25,7.31,1.18,10.6,9.73,10.51
		c42.5-0.46,85.01-0.39,127.52-0.02c7.7,0.07,9.54-2.63,9.32-9.7c-0.44-13.62-0.61-27.28,0.04-40.88c0.4-8.36-2.97-9.93-10.45-9.77
		C403.57,461.71,382.71,461.42,361.86,461.42z"/>
	<path class="st3" d="M444.35,751.14c0.14-17.67,0.27-35.34,0.41-53.01c4.82-0.07,9.64-0.2,14.46-0.2
		c145.91-0.09,291.83-0.17,437.74-0.25c0.33,0.82,0.67,1.64,1,2.46c-146.69-0.03-293.38,0.02-440.07-0.27
		c-9.26-0.02-12.34,2.37-12.61,12.01c-0.32,11.38,5.93,10.85,13.64,10.84c145.89-0.07,291.77-0.05,437.65-0.04
		c2.05,3.73,1.1,10.26,8.45,9.05c-0.85,5.72,4.37,8.86,5.78,13.62c-3.36,0.91-7.4,0.86-7.96,5.69c-9.82-0.01-19.66,0.33-29.45-0.13
		c-7.41-0.35-9.95,2.99-9.45,9.77c-3.6-2.25-6.7-5.73-11.63-4.67c-10.7-1.41-20.97-5.1-31.97-5.07
		c-54.68,0.16-109.36,0.1-164.04,0.12c-0.95-3.01-2.06-5.98-2.81-9.03c-1.37-5.55-2.57-10.86-9.71-11.96
		c-6.73-1.03-10.58,2.05-13.37,7.62c-2.4,4.8-7.37,6.16-11.82,7.59c-14.18,4.55-27.81,12.2-43.6,8.61c-3.38-4.1-8.1-2.83-12.35-2.84
		c-30.9-0.09-61.81,0.33-92.7-0.3C461.36,750.57,452.91,757.28,444.35,751.14z"/>
	<path class="st6" d="M1084.03,938.95c-7.65-23.23-15.3-46.45-22.95-69.68c6.77-5.36,18.37-2.86,20.26-16.57
		c4.25-30.76,10.68-61.23,16.23-91.81c0.27-4.89,0.53-9.78,0.8-14.67l-0.09,0.05c0.72-0.76,1.43-1.52,2.15-2.28
		c1.33-5.31,6.04-7.18,10-9.82c4.88-0.66,8.39,2.18,12.03,4.7c1.95,5.78,5.86,9.15,12,9.77c1.99,2.44,4.8,2.41,7.56,2.52
		c5.41,2.06,10.82,4.12,16.23,6.19c2.77,1.76,5.51,2.18,8.99,1.75c13.88-1.72,16.55,1.3,15.15,15.95c-3.01,3.67-2.28,8.4-3.59,12.56
		c-7.38,27.31-13.46,55.05-22.55,81.78c-7.82,23.02-3.12,43.81,4.69,65.02c2.12,9.5,3.59,19.06,2.37,28.83
		c-0.77,0.16-1.52,0.38-2.26,0.64c-0.79,0.63-1.59,1.26-2.38,1.89c-4.58,2.44-9.54,2.5-14.53,2.33
		c-6.56-4.55-10.39-10.42-9.86-18.81c0.21-3.4,0.82-7.19-2.31-9.95c-0.16-9.63-0.19-19.26-0.56-28.87c-0.15-3.87-1.21-7.32-6.6-5.82
		c-4.18,1.17-7.81,2.11-5.17,7.92c2.13,4.68,3.53,9.69,5.26,14.56c0.3,8.54-0.06,16.42-11.68,17.02
		c-11.17,0.58-16.41-5.24-17.29-15.53c-0.51-5.96-1.68-10.76-8.35-12.15C1083.87,923.92,1089.36,932.24,1084.03,938.95z
		 M1150.82,820.71c1.02-4.55-0.46-7.59-5.1-9.26c-9.77-3.53-19.46-7.3-29.14-11.08c-5.7-2.22-7.68,0.31-9.05,5.64
		c-4.06,15.86-8.53,31.62-13,47.37c-1.55,5.45-0.49,8.62,5.85,8.42c12.07-0.39,23.87,1.62,35.6,4.17c4.32,0.94,6.88-0.77,7.67-5.22
		C1146,847.4,1148.42,834.06,1150.82,820.71z"/>
	<path class="st6" d="M574.98,753.89c15.8,3.6,29.43-4.06,43.6-8.61c4.45-1.43,9.42-2.79,11.82-7.59c2.78-5.57,6.64-8.65,13.37-7.62
		c7.14,1.09,8.34,6.41,9.71,11.96c0.76,3.06,1.86,6.03,2.82,9.03c1.59,18.84,6.19,37.17,9.66,55.68c0.22,4.15-0.21,8.46,2.77,11.97
		c1.03,7.88,2.47,15.74,2.98,23.65c0.78,11.91,5.88,19.23,18.52,19.76c-7.23,21.58-14.46,43.17-21.69,64.75
		c-0.76-1.53-1.52-3.05-2.28-4.58c0.57-1.89,1.44-3.74,1.63-5.67c0.38-3.75,0.06-7.81-4.95-7.59c-4.68,0.21-3.4,4.54-3.64,7.44
		c-0.36,4.34-0.36,8.7-0.51,13.06c-14.53,14.86-24.21,14.12-31.13-2.38c2.22-6.43,4.52-12.83,6.62-19.29
		c1.81-5.58-2.1-6.95-6.26-7.93c-5.26-1.23-4.72,2.66-5.02,5.77c-1.41,14.33-3.11,28.64-2.32,43.08
		c-2.52,5.35-5.17,10.61-10.03,14.32c-19.89,0.15-24.23-5.44-19.36-24.9c0.19-0.78,0.14-1.65,0.47-2.35
		c15.08-31.48,9.8-62.51-0.69-94.05c-7.81-23.49-13.24-47.77-20.07-71.6C569.14,763.69,569.99,758.44,574.98,753.89z M602.38,813.25
		c2.22,12.19,4.28,23.62,6.4,35.03c0.51,2.76,1.48,5.44,1.87,8.21c0.72,5.08,3.58,4.98,7.8,4.33c11.86-1.82,23.67-4.45,35.79-3.79
		c5.66,0.31,6.81-1.93,5.23-7.26c-3.19-10.76-5.7-21.72-8.65-32.55c-6.43-23.66-6.47-23.66-29.91-15.29
		c-4.53,1.62-9.07,3.24-13.51,5.1C604.46,808.26,601.28,809.66,602.38,813.25z"/>
	<path class="st8" d="M1182.37,775.04c1.4-14.64-1.27-17.67-15.15-15.95c-3.47,0.43-6.22,0.01-8.98-1.75
		c19.44-4.26,38.24-14.44,58.53-10.76c13.32,2.41,26.53,3.55,39.88,4.89c7,0.7,11.64-6.21,18.07-3.93
		c19.63,6.96,35.97-0.87,51.95-10.85c24.79,6.61,49.89,10.72,75.66,9.5c-0.77,1.6-1.54,3.2-2.31,4.8c-3.6,0.05-6.06,2.07-8.18,4.69
		l-0.71-0.12c0,0-0.69,0.21-0.69,0.22c-33.4,13.5-67.61,23.62-103.57,28.04c-30.74,3.78-61.33,3.76-91.94,0.16
		C1189.98,783.41,1181.73,784.67,1182.37,775.04z"/>
	<path class="st5" d="M434.55,722.01c0.08,9.58,0.16,19.16,0.24,28.74c-6.11,3.55-12.33-0.03-18.48,0.03
		c-42.17,0.42-84.34,0.19-126.52,0.18c0.01-9.38,0.02-18.75,0.03-28.13C338.06,722.55,386.31,722.28,434.55,722.01z"/>
	<path class="st3" d="M1131.96,939.34c3.13,2.76,2.52,6.54,2.31,9.95c-0.53,8.39,3.29,14.26,9.86,18.81
		c-15.89,5.42-33.31,5.78-48.2,14.54c0.28-15.72-8.31-29.02-11.9-43.69c5.34-6.71-0.15-15.03,3.54-22.47
		c6.67,1.39,7.84,6.18,8.35,12.15c0.88,10.28,6.12,16.11,17.29,15.53c11.63-0.61,11.98-8.48,11.68-17.02
		c3.51,4.11,2.8,9.72,5.08,14.27c0.59-0.3,1.24-0.52,1.74-0.93C1131.94,940.28,1131.88,939.73,1131.96,939.34z"/>
	<path class="st2" d="M1640.79,746.04c-3.18,5.45-8.43,5.02-13.68,5.01c-33.14-0.07-66.3-0.55-99.43,0.22
		c-11.66,0.27-16.3-3.23-14.38-14.72c38.8-0.03,77.61-0.1,116.41-0.05c3.86,0,8.11-1.13,11.28,2.41c-0.26,0.25-0.76,0.56-0.72,0.73
		c0.14,0.59,0.48,1.13,0.75,1.69l0.15-0.02C1641.05,742.88,1640.92,744.46,1640.79,746.04z"/>
	<path class="st4" d="M1448.23,723.89c-16.39-6.89-33.75-12.03-46.39-25.68c26.56-0.01,53.12-0.02,79.67-0.03
		c0.09,8.35,0.19,16.69,0.28,25.04c-5.66,0.33-11.31,0.66-16.97,0.99C1459.29,724.1,1453.76,723.99,1448.23,723.89z"/>
	<path class="st5" d="M1451.07,983.27c5.46,1.61,10.92,3.21,16.39,4.82c0.99,6.46,6.16,4.69,10.21,5.24
		c21.05,2.86,40.23-1.63,57.28-14.52c1.34,6.77,7.18,6.36,12.04,7.74c3.16,0.9,6.09,2.97,6.18,6.51c0.1,4.24-3.7,4.35-6.8,5.18
		c-28.28,7.57-56.98,4.79-85.61,3.56c-6.33-0.27-12.69-1.08-18.89-2.38c-3.17-0.66-7.58-0.98-7.85-5.93
		c-0.26-4.69,3.59-5.93,6.79-7.26C1444.08,984.87,1447.64,984.23,1451.07,983.27z"/>
	<path class="st3" d="M610.65,963.11c4.86-3.71,7.5-8.97,10.03-14.32c3.35-3.69,1.84-8.23,2.13-12.44c0.27-3.81-0.82-8.26,4.85-9.2
		c6.93,16.5,16.6,17.24,31.14,2.38c3.24-1.64,2.49-7.39,7.46-7.24c0.76,1.53,1.52,3.05,2.28,4.58
		c-4.84,14.53-9.68,29.06-14.53,43.59C638.85,972.19,625.21,964.92,610.65,963.11z"/>
	<path class="st2" d="M1182.37,775.04c-0.65,9.63,7.6,8.36,12.55,8.95c30.61,3.6,61.2,3.61,91.94-0.16
		c35.97-4.42,70.17-14.53,103.57-28.04c-0.51,2.56-2.02,3.94-4.46,5.09c-29.65,13.95-59.38,27.18-92.97,28.9
		c-17.9,0.91-35.57,4.81-53.64,4.72c-20.49-0.1-40.35-5.03-60.58-6.9C1180.09,783.45,1179.37,778.71,1182.37,775.04z"/>
	<path class="st11" d="M1641,738.9c-3.17-3.54-7.42-2.4-11.28-2.41c-38.8-0.04-77.61,0.02-116.41,0.05
		c-1.86,1.01-2.28,2.77-2.43,4.68c-6.4,0.04-12.8,0.07-19.2,0.11c-0.98-6.1-5.8-4.58-9.7-4.89l0.04,0.04
		c0.13-0.84,0.27-1.67,0.4-2.51c60.92,0.09,121.84,0.17,182.76,0.26c-1.49,2.42-4.79,3.66-4.66,7.14
		c-6.45-0.03-12.89-0.06-19.34-0.09l-0.15,0.02C1641.02,740.52,1641.01,739.71,1641,738.9z"/>
	<path class="st5" d="M398.64,1006.91c5.6-0.08,11.32-0.93,16.77-0.09c17.92,2.78,31.21-5.61,43.53-16.87
		c6.16,0.92,15.35,0.31,15.56,7.63c0.22,7.76-8.51,8.4-15.45,9.41C438.87,1009.9,418.78,1010.95,398.64,1006.91z"/>
	<path class="st5" d="M319.08,1022.57c17.75,2.69,31.59-4.45,43.22-17.16c6.39,2.43,17.48,1.66,17.18,9.4
		c-0.27,7.11-11.19,7.7-17.93,8.57C347.46,1025.21,333.16,1026.49,319.08,1022.57z"/>
	<path class="st5" d="M1163.3,963.24c1.23-9.78-0.25-19.33-2.37-28.83c2.78,1.56,5.67,2.95,8.32,4.71
		c4.91,3.25,12.07,6.43,9.6,13.27C1176.67,958.43,1171.47,963.92,1163.3,963.24z"/>
	<path class="st12" d="M1641.18,741.3c6.45,0.03,12.89,0.06,19.34,0.09c-0.35,3.7,1.32,9.12-4.47,9.25
		c-5.27,0.13-12.28,3.7-15.25-4.6C1640.92,744.46,1641.05,742.88,1641.18,741.3z"/>
	<path class="st12" d="M1491.68,741.33c6.4-0.04,12.8-0.07,19.2-0.11c0.47,16.99-12.57,7.16-19.36,9.75
		C1491.57,747.76,1491.62,744.55,1491.68,741.33z"/>
	<path class="st13" d="M289.82,722.82c-0.01,9.38-0.02,18.75-0.03,28.13l-1.14,0.05l-1.14-0.08c1.49-17.05-2.76-34.27,1.44-51.24
		l0.87,0.6C288.64,707.79,288.57,715.3,289.82,722.82z"/>
	<path class="st2" d="M1482.42,733.98c-0.13,0.84-0.27,1.67-0.4,2.51c-7.08-2.2-10.49-9.54-17.2-12.28
		c5.66-0.33,11.31-0.66,16.97-0.99C1482,726.8,1482.21,730.39,1482.42,733.98z"/>
	<path class="st5" d="M1491.68,741.33c-0.05,3.21-0.11,6.43-0.16,9.64c-5.65-3.22-8.68-8.16-9.54-14.53
		C1485.88,736.75,1490.7,735.23,1491.68,741.33z"/>
	<path class="st5" d="M1391.84,755.69c2.12-2.62,4.58-4.65,8.18-4.69C1399.25,755.97,1395.56,755.87,1391.84,755.69z"/>
	<path class="st5" d="M1158.66,965.76c0.79-0.63,1.59-1.26,2.38-1.89C1160.24,964.51,1159.45,965.14,1158.66,965.76z"/>
	<path class="st14" d="M1670.29,697.98c0.79,0,1.57,0.06,2.34,0.18c-0.81,0.74-1.63,1.48-2.44,2.21
		C1670.05,699.57,1670.09,698.77,1670.29,697.98z"/>
	<path class="st8" d="M1176.88,703.96c-3.83-2.42-3.53-5.2-1.9-9.2c17.13-41.91,31.37-84.79,42.32-128.73
		c2.94-11.78,5.11-23.76,7.64-35.69c4.6,0.97,4.99,4.04,5.62,6.58c14.39,58.67,37.12,113.98,66.84,166.5
		c0.75,1.33,0.81,3.05,1.2,4.59c-25.98,1.07-51.75,8.16-77.96,2.28C1206.23,707.06,1191.97,702.53,1176.88,703.96z"/>
	<path class="st2" d="M1097.56,760.89c-5.54,30.58-11.97,61.05-16.22,91.81c-1.89,13.71-13.49,11.21-20.26,16.57
		c-3.88-10.91-7.48-21.93-11.77-32.68c-2.21-5.55-0.95-8.17,4.71-9.45c4.29-0.97,8.44-2.54,12.7-3.66
		c9.45-2.49,16.87-5.86,17.13-18.06c0.26-12.35-5.27-18.55-16.34-21.54c-22.88-6.18-46.35-8.42-69.77-11.35
		c-20.34-2.54-40.81-1.44-61.13-3.47c-1.36-7.65,2.42-15.91-2.72-23.12c-0.93-13.41,9.07-17.7,18.64-22.34
		c18.88-1.8,37.77-1.49,56.65-0.14c-0.65,10.32,5.66,12.76,14.36,13.28c9.76,0.58,20.25-2.96,28.94,4.57
		c-8.11,14.72,4.64,8.24,9.71,9.56c5.31,1.51,8.24,7.65,14.45,7.39C1083.13,762.98,1090.65,759.52,1097.56,760.89z"/>
	<path class="st2" d="M1176.88,703.96c15.1-1.43,29.35,3.1,43.76,6.33c26.21,5.88,51.99-1.21,77.96-2.28
		c10.05,8.89,16.65,21.14,28.07,28.69c-15.98,9.98-32.32,17.81-51.95,10.85c-6.42-2.28-11.06,4.63-18.07,3.93
		c-13.35-1.34-26.56-2.48-39.88-4.89c-20.29-3.68-39.09,6.5-58.53,10.76c-5.41-2.06-10.82-4.13-16.23-6.19
		c8.18-14.98,22.29-26.02,28.25-42.57C1171.01,706.52,1174.6,705.48,1176.88,703.96z"/>
	<path class="st8" d="M1076.64,758.25c-6.21,0.26-9.15-5.88-14.45-7.39c12.53-5.76,26.01-9.8,36.74-18.87
		c5.33-4.5,7.47,2.67,11.48,2.19c-3.95,2.64-8.66,4.51-9.99,9.82c-0.72,0.76-1.43,1.52-2.15,2.28l0.09-0.05
		C1089.86,747.95,1084.5,755.35,1076.64,758.25z"/>
	<path class="st8" d="M1134.45,748.64c-6.14-0.62-10.05-3.99-12-9.77c6.19-5.67,8.6-13.98,14.8-22.47
		C1141.46,729.05,1135.73,738.7,1134.45,748.64z"/>
	<path class="st8" d="M1200.12,568.32c-4.11,18.33-8.22,36.66-12.34,54.99c0.93-18.91,3.69-37.42,9.1-55.39
		C1197.96,568.06,1199.04,568.19,1200.12,568.32z"/>
	<path class="st9" d="M1510.59,714.69c-8.65,1.43-12.04-1.55-11.95-10.95c0.44-44.94,0.42-89.9,0.06-134.84
		c-0.08-9.72,2.81-13.57,13.01-13.47c43.35,0.41,86.7,0.39,130.05-0.01c8.99-0.08,11.73,2.7,11.65,11.67
		c-0.4,45.35-0.39,90.7-0.04,136.05c0.07,8.69-2.17,13.04-11.43,11.72c-7.39-1.05-15.2,2.14-22.28-2.17
		c24.56-11.97,34.67-34.64,26.23-58.81c0.84-6.45-3.38-10.17-7.53-13.92c-16.25-21.74-38.17-24.84-66.79-9.43
		c-3.21-3.61-7.29-5.22-12.07-5.19c3.52-7.6-1.8-13.8-6.72-14.97c-6.7-1.6-7.18,6.28-8.24,11.49c-0.23,1.13-0.06,2.34-0.07,3.52
		c-14.61,2.93-16.29,6.75-8.44,19.27c-11.19,1.77-10.83,8.71-7.6,16.94c-10.31,3.35-13.63,9.45-7.58,19.23
		c-10.97,4.23-7.75,10.37-2.27,16.82c-4.21,1.31-10.46-1.46-11.88,5.4c-0.79,3.81-1.76,8.27,3.99,9.62
		C1510.75,713.34,1510.71,714.02,1510.59,714.69z"/>
	<path class="st9" d="M1552.21,239.86c-0.88-0.08-1.76-0.17-2.65-0.25c-6.46,0.03-12.92,0.07-19.38,0.1
		c-0.89-0.07-1.78-0.15-2.67-0.22c-2,0.03-4.01,0.1-6.01,0.09c-18.42-0.12-18.42-0.13-17.39,18.07c0.02,0.4,0.12,0.79,0.18,1.19
		c0,8.84-0.01,17.69-0.01,26.53c-0.14,6.38-0.29,12.77-0.43,19.15c-4.24,3.19-4.85-0.05-4.86-3.04c-0.11-24.51-0.08-49.02-0.1-73.53
		c0-4.52,3.07-7.23,5.91-10.07c21.3-21.32,42.73-42.51,63.79-64.06c5.28-5.41,8.79-6.34,14.57-0.39
		c21.27,21.91,42.99,43.38,64.66,64.9c3.65,3.63,5.53,7.47,5.48,12.73c-0.19,21.29-0.28,42.59,0.03,63.88
		c0.1,7.19-2.26,10.11-9.7,9.92c-15.26-0.4-30.54-0.13-45.81-0.14c-0.15-3.34-0.3-6.69-0.45-10.03c-0.19-0.59-0.34-1.2-0.46-1.8
		c0.23-14.41,0.47-28.82,0.7-43.24c-0.03-1.92-0.06-3.84-0.1-5.75c-6.9-8.54-15.84-3.34-23.98-3.56
		C1566.41,240.18,1559.31,240.02,1552.21,239.86z"/>
	<path class="st9" d="M1525.47,432.64c-26.64-0.23-26.64-0.23-26.64-26.55c0-25.31,0.26-50.63-0.14-75.93
		c-0.13-8.23,2.32-11.28,10.92-11.21c44.2,0.35,88.41,0.32,132.61,0.01c8.25-0.06,11.66,2.32,11.16,10.93
		c-0.62,10.81-0.2,21.69-0.23,32.54c-2.08,0.27-3.66-0.64-5.47-1.65c-10.36-5.77-19.63-3.86-27.9,5.27
		c-7.55,8.34-10.69,16.64,3.28,26.43c-21.65-1.65-41.48-12.43-56.45,7.14c-4.76-0.59-10.04-0.06-14.17-1.99
		c-11.71-5.47-19.5,0.93-26.15,8.39C1519.1,414.07,1519.56,423.56,1525.47,432.64z"/>
	<path class="st9" d="M1640.9,446.73c10.19-1.31,12.8,3.51,12.53,13.17c-0.63,22.8-0.9,45.66,0.07,68.43
		c0.52,12.13-2.9,17.27-15.26,15.18c-3.85-0.65-8.07,0.92-11.52-2.03c1.64-2.58,3.28-5.16,4.93-7.74c12.51,1.33,8.92-7.9,9.57-14.46
		c0.74-7.44-2.68-10.06-9.84-9.63c-6.4,0.39-12.88-0.44-19.24,0.18c-10.42,1.03-15.65-1.72-14.56-13.62
		c0.87-9.5-7.24-14.9-14.12-9.36c-5.52,4.44-8.34,3.33-13.34,0.5c-6.26-3.54-20.72,2.42-20.06,8.51
		c1.74,15.89-8.24,14.24-18.07,13.89c-4.01-0.14-8.04,0.22-12.03-0.07c-6.73-0.48-8.74,2.44-9.27,9.09
		c-0.96,12.05,6.99,10.21,14.08,10.34c0.14,6.05,2.2,10.98,8.03,13.7c-33.94,2.9-33.94,2.9-33.94-30.6c0-17.69,0.47-35.4-0.18-53.07
		c-0.35-9.45,2.57-12.54,12.23-12.42c35.79,0.46,71.58,0.09,107.37,0.04C1625.82,451.93,1633.37,452.93,1640.9,446.73z"/>
	<path class="st8" d="M1596.9,292.89c0.12,0.61,0.28,1.21,0.47,1.81c-6.45,8.86-16.09,2.91-23.96,5.16
		c-0.77-0.02-1.53,0.03-2.29,0.12c-6.31-0.05-12.62-0.09-18.93-0.14c0.01-19.99,0.01-39.99,0.02-59.98
		c7.1,0.16,14.2,0.32,21.31,0.48c0.08,1.15,0.16,2.31,0.24,3.48c0.02,1.99,0.04,3.97,0.06,5.96c-0.07,6.72-0.22,13.45-0.21,20.17
		C1573.62,292.92,1573.64,292.92,1596.9,292.89z"/>
	<path class="st8" d="M1645.9,653.88c8.43,24.17-1.68,46.83-26.23,58.81c-7.62-0.08-15.24-0.17-22.86-0.26
		c0.8-3.5,1.09-6.96-0.63-10.29C1614.62,687.97,1631.03,671.72,1645.9,653.88z"/>
	<path class="st6" d="M1596.17,702.13c1.74,3.34,1.44,6.8,0.64,10.3c-1.15,0.12-2.29,0.23-3.44,0.34
		c-27.56-0.04-55.11-0.08-82.66-0.12c-5.75-1.36-4.79-5.81-3.99-9.62c1.43-6.85,7.67-4.09,11.88-5.4c21.52,0,43.05,0.01,64.57,0.01
		C1588.24,696.99,1592.16,699.69,1596.17,702.13z"/>
	<path class="st8" d="M1549.56,249.41c-0.01,14.38-0.03,28.77-0.04,43.15c-6.47-0.09-12.95-0.19-19.42-0.28
		c-0.12-13.52-0.24-27.04-0.37-40.56C1535.88,246.98,1542.93,249.99,1549.56,249.41z"/>
	<path class="st8" d="M1503.84,304.52c0.14-6.38,0.29-12.77,0.43-19.15c2.68,8.89,9.84,7.99,16.41,6.88
		c7.05-1.18,4.47-7.39,4.67-11.68c0.36-7.53-0.22-15.1,0.18-22.63c0.43-8.01-3.91-9.27-10.45-8.72c-6.17,0.51-8.62,4.82-10.8,9.62
		c-0.06-0.4-0.16-0.79-0.18-1.19c-1.02-18.2-1.02-18.19,17.39-18.07c2,0.01,4.01-0.06,6.02-0.09c0.03,4.02,0.05,8.03,0.08,12.05
		c-0.05,13.66-0.1,27.32-0.15,40.98c-1.24,6.76,0.17,12.16,7.49,14.51c-3.33-0.31-7.01,0.71-9.58-2.48
		c-6.41-7.52-12.81-7.65-19.19,0.03C1505.38,304.59,1504.61,304.57,1503.84,304.52z"/>
	<path class="st9" d="M1609.29,541.26c-21.32,3.81-42.63,3.36-63.95,0c1.54-2.51,3.08-5.02,4.62-7.53
		c18.83,0.02,37.67,0.05,56.51,0.07C1607.41,536.28,1608.35,538.77,1609.29,541.26z"/>
	<path class="st9" d="M1642.12,435.09c-2.73-4.88-1.84-10.2-1.85-15.4c4.27-6.71,7.02-13.94,6.87-21.97c-0.1-5.15,2.33-8,7.03-9.33
		c0,9.12-0.59,18.28,0.14,27.34C1655.12,425.66,1653.56,433.26,1642.12,435.09z"/>
	<path class="st8" d="M1510.7,712.66c27.55,0.04,55.11,0.08,82.66,0.12c-1.17,3.85-4.19,4.36-7.61,4.36
		c-23.27-0.05-46.54-0.02-69.81-0.2c-1.79-0.01-3.57-1.46-5.36-2.24C1510.71,714.02,1510.75,713.34,1510.7,712.66z"/>
	<path class="st2" d="M1534.93,307.03c-7.32-2.35-8.73-7.75-7.49-14.51c0.89-0.08,1.77-0.16,2.66-0.24
		c6.47,0.09,12.95,0.19,19.42,0.28C1552.1,304.88,1546,308.46,1534.93,307.03z"/>
	<path class="st2" d="M1573.4,299.85c7.87-2.25,17.51,3.71,23.96-5.16c0.15,3.34,0.3,6.68,0.45,10.03
		C1589.11,305.95,1579.12,313.62,1573.4,299.85z"/>
	<path class="st2" d="M1527.59,251.54c-0.03-4.02-0.05-8.03-0.08-12.05c0.89,0.07,1.78,0.15,2.67,0.22
		c4.74,9.12,12.94,2.89,19.4,4.37c-0.01,1.77-0.02,3.55-0.02,5.32c-6.63,0.58-13.68-2.42-19.82,2.32
		C1529.03,251.65,1528.31,251.59,1527.59,251.54z"/>
	<path class="st8" d="M1549.59,244.08c-6.46-1.48-14.66,4.75-19.4-4.37c6.46-0.03,12.92-0.07,19.38-0.1
		C1549.57,241.1,1549.58,242.59,1549.59,244.08z"/>
	<path class="st2" d="M1506.15,304.57c6.39-7.68,12.79-7.54,19.19-0.03C1518.95,304.55,1512.55,304.56,1506.15,304.57z"/>
	<path class="st2" d="M1552.19,299.84c6.31,0.04,12.62,0.09,18.93,0.14C1564.75,307.18,1558.44,307.7,1552.19,299.84z"/>
	<path class="st2" d="M445.46,422.79c-0.13-7-0.27-14-0.4-21c4-0.2,8.01-0.56,12.01-0.56c147.81-0.03,295.62,0.1,443.43-0.27
		c11.36-0.03,15.05,2.6,14.91,14.46c-0.74,62.63-0.6,125.26-0.77,187.9c-4.03-2.86-2.71-8.02-5.78-12.12
		c-8.33-11.1-18.96-8.89-29.64-8.97c0.22-0.77,0.19-1.52-0.09-2.27c4.55-14.47,2.01-21.02-10.95-27.15
		c-5.06-2.39-10.3-4.53-16.08-4.55c-19.47-5.44-38.96-4.61-58.46-0.16c-17.45,2.38-34.89,4.81-48.01,18.45
		c-0.75,0.36-1.51,0.73-2.26,1.09c-2.07-0.3-3.53-1.35-4.93-3c-12.93-15.25-26.79-29.77-42.08-42.5
		c-12.77-10.63-27.22-18.54-44.27-22.52c-24.09-5.63-43.99,3.55-64.06,13.47c-21.5,10.62-20.79,10.53-35.34-8.24
		C524.23,468.15,492.67,435.16,445.46,422.79z"/>
	<path class="st7" d="M896.96,697.68c-145.91,0.08-291.83,0.16-437.74,0.25c-4.82,0-9.64,0.13-14.46,0.2
		c0.06-24.32,0.11-48.64,0.16-72.96c4.8,0.13,9.61,0.44,14.41,0.37c66.48-1.06,133,2.38,199.44-2.08c3.86,5.77,9.85,4.4,15.32,4.41
		c65.32,0.05,130.64-0.19,195.96,0.21c14.58,0.09,33.61-6.65,42.55,3.29c8.17,9.08,2.01,27.62,2.16,41.99
		c0.06,5.77,2.19,12.05-2.15,17.37c-0.7-6.67-4.15-6.45-9.87-5.35C894.09,687.06,896.01,692.26,896.96,697.68z"/>
	<path class="st7" d="M446.53,398.55c-3.24-23.26-1.74-46.51,0.21-69.76c153.55-0.04,307.1-0.03,460.65-0.32
		c5.85-0.01,7.74,0.85,7.63,6.83c-0.31,18.08-0.29,36.17-0.04,54.25c0.09,6.58-2.12,9.94-9.01,9.25c-0.4-0.04-0.8,0-1.21,0
		C752.01,398.72,599.27,398.64,446.53,398.55z"/>
	<path class="st2" d="M468.11,276.06c-4.38-10.84-3.14-22.1-0.92-32.88c1.84-8.92,9.1-14.01,18.23-15.27
		c4.74-0.65,9.61-0.49,14.42-0.49c128.04-0.02,256.08-0.03,384.12-0.02c24.78,0,31.06,6.36,31.09,31.33
		c0.02,17.26,0.14,34.51-0.03,51.77c-0.04,3.74,1.76,8.16-2.58,10.99l-0.22-0.41c0.13-25.29,5.87-32.08-25.19-38.58
		c-3.66-0.77-3.38-3.92-3.52-6.69c-0.88-10.97-6.45-18.3-16.95-21.78c-3.49-3.03-7.85-3.92-12.17-4.75
		c-27.27-5.25-54.32-3.78-80.92,3.74c-11.4,3.23-23.35,6.38-30.16,17.77c-0.66,2.37-1.31,4.74-1.97,7.11
		c-0.64,3.16-2.49,4.95-5.79,4.96c-9.63,0.02-19.26,0.12-28.89-0.07c-1.82-0.04-4.98-0.95-5.22-1.98
		c-2.26-9.95-10.06-7.41-16.43-7.42c-67.82-0.08-135.65-0.06-203.47,0.02c-4.31,0.01-8.88-1.16-12.86,1.67L468.11,276.06z"/>
	<path class="st9" d="M879.22,582.22c10.68,0.09,21.31-2.13,29.64,8.97c3.07,4.09,1.75,9.26,5.78,12.12
		c0.01,5.91,0.03,11.83,0.05,17.74c-89.25-0.06-178.5-0.12-267.75-0.18c0.07-16.09,0.14-32.18,0.21-48.27
		c14.07-0.01,28.14-0.08,42.21,0.01c3.5,0.02,8.18-1.35,10,2.35c4.18,8.53,11.51,7.22,18.62,7.2c8.44-0.02,16.88-0.05,25.32-0.08
		c1.03,0.29,2.06,0.58,3.09,0.87c1.89,0.49,3.78,1.41,5.68,1.41c39.55,0.08,79.1,0.06,118.65,0.06c2.8,0,5.63,0.11,7.89-2.01
		L879.22,582.22z"/>
	<path class="st8" d="M468.22,321.18c-0.75-0.23-2.11-0.36-2.17-0.7c-2.4-14.94-5.63-29.95,2.07-44.43l0.57-0.99
		c52.47,0.19,104.94,0.39,157.42,0.56c16.18,0.05,16.11,0.01,16.38,16.52c0.03,1.87,1.28,3.72,1.96,5.57
		c-0.22,7.98-0.44,15.96-0.66,23.94c-0.57-0.14-1.14-0.27-1.71-0.4c0.07-18.79-0.07-18.96-18.43-18.97
		c-43.19-0.02-86.38-0.02-129.57,0.01c-4.78,0-9.51,0.71-14.24,1.16C467.86,304.59,465,310.64,468.22,321.18z"/>
	<path class="st8" d="M468.22,321.18c-3.21-10.54-0.36-16.59,11.61-17.72c4.74-0.45,9.47-1.16,14.24-1.16
		c43.19-0.03,86.38-0.03,129.57-0.01c18.36,0.01,18.5,0.18,18.43,18.97C584.12,321.23,526.17,321.21,468.22,321.18z"/>
	<path class="st8" d="M444.04,317.25c-3.93-0.14-7.08,1.32-9.39,4.53c-48.95-0.08-97.89-0.16-146.84-0.24
		c-1.26-0.96-2.53-1.93-3.8-2.89c-5.36-3.6-4.14-8.97-3.83-14.1c54.66,0.01,109.33,0.03,163.99,0.04
		C444.13,308.81,444.09,313.03,444.04,317.25z"/>
	<path class="st9" d="M643.78,321.66c0.22-7.98,0.44-15.96,0.66-23.94c14.05-0.03,28.15,0.59,42.15-0.31
		c10.64-0.69,14.97,2.74,13.36,13.44c-1.12,7.44,1.7,10.79,9.92,10.75c67.45-0.37,134.9-0.4,202.35-0.52l0.22,0.41
		c-3.35,3.26-7.58,2.02-11.45,2.03c-81.86,0.07-163.71,0.06-245.57,0.03C651.47,323.52,647.34,324.27,643.78,321.66z"/>
	<path class="st7" d="M646.94,620.88c89.25,0.06,178.51,0.12,267.76,0.18c-4.22,3.51-9.25,1.99-13.92,2
		c-80.67,0.2-161.33,0.29-242,0.4c-66.44,4.45-132.97,1.02-199.44,2.08c-4.8,0.08-9.61-0.23-14.41-0.37
		c0.27-2.98,0.54-5.95,0.79-8.93c3.66,1.27,6.05,4.66,10.7,4.64c59.11-0.21,118.23-0.19,177.34-0.07c6.24,0.01,8.64-2.46,8.49-8.6
		c-0.28-11.65-0.17-23.32-0.22-34.98c0.08-0.52,0.14-1.05,0.19-1.58c0.54,0,1.07-0.01,1.61-0.02c0.02,4.75-0.5,9.58,0.18,14.24
		C645.49,600.18,640.92,611.04,646.94,620.88z"/>
	<path class="st10" d="M952.53,723.58c-9.58,4.64-19.57,8.94-18.64,22.35c-5.54-0.91-11.08-1.83-16.62-2.75
		c0.04-2.32,0.2-4.68-1.84-6.41c-1.37-7.34-2.74-14.67-4.16-22.24c2.21,0.84,4.32,1.65,6.42,2.45c1.4,1.66,2.81,3.31,4.22,4.97
		c0.71,4.8-1.28,10,2.14,14.4c11.51,4.86,6.44-5.28,8.28-9.16c2.84-2.53,4.04-5.82,4.38-9.5c1.72-0.54,4.83-3.09,4.72-1.93
		C940.5,725.5,948.15,722.09,952.53,723.58z"/>
	<path class="st15" d="M917.7,716.98c-2.11-0.8-4.21-1.61-6.43-2.45c1.41,7.56,2.78,14.9,4.15,22.23
		c-6.21-4.07-1.85-15.6-11.94-16.94c-0.39-0.44-0.61-0.96-0.66-1.54c-0.05-3.64-0.11-7.27-0.16-10.91
		c1.33-5.71,3.81-10.26,10.59-10.45c1.29,0.39,2.58,0.79,3.88,1.18C917.33,704.4,917.51,710.69,917.7,716.98z"/>
	<path class="st16" d="M913.26,696.93c-6.78,0.19-9.26,4.74-10.59,10.45c-1.64,0.11-3.27,0.22-4.91,0.33l-0.08,0.46
		c0.09-2.68,0.18-5.36,0.27-8.03c-0.34-0.82-0.67-1.64-1-2.46c-0.95-5.42-2.86-10.62,5.79-12.3c5.72-1.11,9.17-1.32,9.87,5.35
		C912.83,692.79,913.05,694.86,913.26,696.93z"/>
	<path class="st17" d="M932.34,727.19c-1.84,3.88,3.23,14.02-8.28,9.16c4.02-7.56,2.29-15.88,3.13-23.85
		C935.66,715.03,929.87,722.56,932.34,727.19z"/>
	<path class="st18" d="M927.18,712.5c-0.84,7.98,0.89,16.29-3.13,23.85c-3.42-4.4-1.43-9.61-2.14-14.41
		c1.82-4.65-3.89-11.83,4.77-14.18C926.85,709.35,927.02,710.93,927.18,712.5z"/>
	<path class="st19" d="M926.69,707.77c-8.67,2.35-2.95,9.53-4.77,14.18c-1.41-1.66-2.82-3.31-4.22-4.97
		c-0.18-6.29-0.37-12.58-0.56-18.87C922.49,699.19,925.7,702.38,926.69,707.77z"/>
	<path class="st16" d="M1233.75,360.58c-3.33,12.6-9.66,23.86-16.79,35.29c0-11.17,0-22.34,0-33.51
		C1222.56,361.77,1228.15,361.17,1233.75,360.58z"/>
	<path class="st2" d="M979.56,915.19c-34.84,0.43-69.61-4.97-104.4-2.29c-31.09,2.39-62.25,2.23-93.33,4.32
		c-0.55-24.08,5.3-47.69,5.28-71.72c-0.01-7.95,5.01-8.05,10.47-7.58c34.36,3.01,68.81,2.33,103.23,2.04
		c19.18-0.16,38.38-1.04,57.53-2.3c10.17-0.67,14.7,1.27,15.08,13.21C974.11,872.37,977.37,893.76,979.56,915.19z"/>
	<path class="st2" d="M665.96,806.74c-3.47-18.52-8.07-36.84-9.66-55.68c54.68-0.02,109.36,0.04,164.04-0.12
		c10.99-0.03,21.27,3.66,31.96,5.06c-3.87,3.84-7.73,7.69-11.6,11.53c-51.23,1.48-102.39,3.5-152.72,14.64
		C669.17,786.34,667.06,788.32,665.96,806.74z"/>
	<path class="st4" d="M1028.25,782.36c4.57,6.34,10.59,11.75,12.89,20.35c-1.51,0.42-2.93,1.13-4.36,1.16
		c-37.59,0.6-75.23-0.51-112.76,2.57c-10.33,0.85-11.16-1.79-8.63-12.16c3.21-13.13,9.72-15.66,21.16-14.26
		c5.53,0.68,11.2,0.19,16.81,0.23c0.87,4.56-6.03,3.57-5.72,7.8c11.95,3.15,23.41,19.52,35.56,1.47c-0.88-4.8-7.29,1.26-7.1-3.8
		c0.18-4.51,4.78-3.27,7.72-3.29C998.63,782.29,1013.44,782.36,1028.25,782.36z"/>
	<path class="st6" d="M750.63,939.43c-1.71,9.47-6.43,15.61-16.99,13.98c-10.29-1.59-15.21-7.79-14.27-18.4
		c0.17-1.95-0.29-3.96-0.46-5.94c1.12-12.72,2.25-25.44,3.37-38.15c2.13,0.17,1-9.89,5.68-1.8c1.77,3.06,3.65,6.06,5.48,9.09
		C736.85,912.92,744.75,925.75,750.63,939.43z"/>
	<path class="st2" d="M733.43,898.21c-1.83-3.03-3.71-6.02-5.48-9.09c-4.67-8.09-3.55,1.97-5.68,1.8
		c1.56-17.05,1.89-34.33,5.06-51.07c2.4-12.69,13.45-5.67,20.9-5.42c8.85,0.3,6.24,6.38,4.41,11.12
		C745.92,862.99,742.29,881.56,733.43,898.21z"/>
	<path class="st6" d="M1032.26,950.98c-4.51,0.84-5.23,6.66-10.25,7.28c-13.37,1.66-20.4-3.85-17.65-18.6
		c8.3-12.86,13.25-27.32,19.53-41.14c1.26,0.05,2.52,0.1,3.78,0.15C1029.2,916.11,1030.73,933.54,1032.26,950.98z"/>
	<path class="st15" d="M917.27,743.18c5.54,0.92,11.08,1.83,16.62,2.75c5.13,7.21,1.36,15.47,2.71,23.12
		c-13.11,9.12-22.71,8.83-29.71-0.88c-4.41-4.99-4.05-11.1-4.05-17.14c0.55-4.83,4.6-4.78,7.95-5.68
		C913.48,746.22,915.9,746.26,917.27,743.18z"/>
	<path class="st2" d="M690.24,862.12c-12.64-0.53-17.74-7.85-18.52-19.76c-0.52-7.92-1.96-15.77-2.98-23.65
		c2.99,1.05,6.15,1.77,8.93,3.21c7.33,3.81,20.28,1.66,21.99,8.72c1.86,7.67-4.24,17.29-6.97,26.03
		C692.09,858.56,691.06,860.31,690.24,862.12z"/>
	<path class="st19" d="M902.85,751.04c0,6.03-0.36,12.15,4.05,17.14c-8.1,0.09-16.2,0.18-24.29,0.27c-6.2-0.15-12.4-0.3-18.61-0.45
		c-0.02-2.44-0.04-4.87-0.06-7.31c-0.49-6.78,2.04-10.12,9.46-9.77C883.19,751.37,893.03,751.03,902.85,751.04z"/>
	<path class="st15" d="M878.62,780c4.02,6.71,2.19,14.09,2.17,21.17c-0.03,8.37-5.69,10.15-13.01,10.5
		c-8.4,0.4-8.91-4.39-8.65-10.64c0.16-3.99-0.26-8-0.41-11.99c0.42-3.04,0.83-6.08,1.25-9.13C866.18,779.94,872.4,779.97,878.62,780
		z"/>
	<path class="st2" d="M1027.67,898.67c-1.26-0.05-2.52-0.1-3.78-0.15c-2.56-19.28-11.5-36.63-16.53-55.15
		c-0.9-3.32-6.05-8.72,2.16-10.04c5.52-0.89,11.37-1.66,12.15,7.02C1023.44,859.81,1025.65,879.23,1027.67,898.67z"/>
	<path class="st14" d="M1028.25,782.36c-14.81,0-29.62-0.07-44.43,0.06c-2.93,0.03-7.54-1.21-7.72,3.29c-0.2,5.06,6.21-1,7.1,3.8
		c-12.14,18.05-23.61,1.68-35.56-1.47c-0.31-4.22,6.6-3.24,5.72-7.8c22-0.08,44-0.19,65.99-0.24
		C1022.49,780,1025.85,779.45,1028.25,782.36z"/>
	<path class="st17" d="M859.95,779.91c-0.42,3.04-0.83,6.09-1.25,9.13c-9.77,1-14.93-2.62-13.68-13.2c0.41-3.48,0.37-7.24-4.32-8.3
		c3.87-3.85,7.74-7.69,11.6-11.53c4.93-1.06,8.04,2.42,11.64,4.67c0.02,2.44,0.04,4.87,0.06,7.31
		C861.16,771.45,860.52,775.67,859.95,779.91z"/>
	<path class="st4" d="M811.45,808.68c-9.9-1.54-19.8-3.09-29.7-4.63c-0.09-4.78-0.17-9.56-0.26-14.33
		c6.79-1.59,7.78,4.15,10.16,10.45c4.26-10.93,11.99-10.9,19.87-10.49C811.5,796.01,811.48,802.35,811.45,808.68z"/>
	<path class="st19" d="M811.45,808.68c0.02-6.34,0.05-12.67,0.08-19.01c11.09-1.03,12.39,8.89,12.55,14.82
		C824.29,811.83,815.92,807.42,811.45,808.68z"/>
	<path class="st4" d="M859.95,779.91c0.57-4.24,1.21-8.46,4.05-11.92c6.2,0.15,12.41,0.3,18.6,0.45c-4.6,2.73-4.12,7.21-3.98,11.56
		C872.4,779.97,866.18,779.94,859.95,779.91z"/>
	<path class="st19" d="M781.5,789.72c0.09,4.78,0.18,9.56,0.26,14.33c-6.19-1.23-17.29,3.46-13.49-10.2
		C770.2,786.91,777,790.96,781.5,789.72z"/>
	<path class="st3" d="M643.82,575.64c-0.54,0.02-1.07,0.02-1.61,0.02c-4.76-0.33-9.53-0.95-14.29-0.95
		c-56.45-0.03-112.89,0.07-169.34,0.03c-4.66,0-9.73,1.33-13.66-2.69c0.18-49.75,0.36-99.5,0.54-149.26
		c47.2,12.37,78.77,45.35,107.23,82.05c14.55,18.76,13.84,18.86,35.34,8.24c20.07-9.92,39.98-19.1,64.06-13.47
		c17.04,3.98,31.5,11.9,44.27,22.52c15.3,12.73,29.16,27.25,42.08,42.5c1.4,1.65,2.86,2.7,4.93,3c-1.69,4.81-1.54,9.63-0.08,14.46
		c-8.44,0.03-16.88,0.06-25.32,0.08c-7.11,0.02-14.45,1.33-18.62-7.2c-1.82-3.71-6.5-2.33-10-2.35
		c-14.07-0.09-28.14-0.02-42.21-0.01C646.04,573.61,644.93,574.63,643.82,575.64z"/>
	<path class="st3" d="M361.86,461.42c20.85,0,41.71,0.29,62.55-0.15c7.48-0.16,10.85,1.41,10.45,9.77
		c-0.66,13.6-0.48,27.26-0.04,40.88c0.23,7.07-1.62,9.76-9.32,9.7c-42.5-0.37-85.01-0.43-127.52,0.02
		c-8.55,0.09-9.98-3.2-9.73-10.51c0.43-12.81,0.59-25.68-0.09-38.48c-0.47-8.69,1.74-11.97,11.16-11.63
		c20.83,0.75,41.7,0.23,62.55,0.23C361.86,461.31,361.86,461.37,361.86,461.42z"/>
	<path class="st6" d="M642.03,577.24c0.05,11.66-0.06,23.32,0.22,34.98c0.15,6.14-2.25,8.61-8.49,8.6
		c-59.11-0.12-118.23-0.14-177.34,0.07c-4.65,0.02-7.05-3.37-10.7-4.64c-1.75-12.95-1.39-25.95-0.59-38.94
		C510.75,577.28,576.39,577.26,642.03,577.24z"/>
	<path class="st7" d="M287.81,321.54c48.95,0.08,97.89,0.16,146.84,0.24c-0.01,16.05-0.28,32.1,0.1,48.14
		c0.17,7.39-2.65,9.76-9.86,9.72c-41.73-0.22-83.47-0.28-125.2,0.05c-7.28,0.06-9.71-2.94-10.96-9.41
		c-1.85-9.6-2.05-19.35-0.45-28.69C289.47,334.6,289.17,328.2,287.81,321.54z"/>
	<path class="st3" d="M289.99,577.09c-3.45-13.4-0.94-27.02-1.48-40.52c-0.18-4.55,3.2-4.75,6.64-4.75
		c44.12,0.02,88.23,0.09,132.35-0.1c6.09-0.03,7.48,2.55,7.31,7.95c-0.36,11.62-0.32,23.25-0.45,34.87
		c-43.08,0.07-86.17,0.12-129.25,0.21C299.96,574.76,294.67,574.04,289.99,577.09z"/>
	<path class="st2" d="M434.19,403.57c0,5.61-0.01,11.23-0.01,16.84c-24.69-1.56-47.22,6.16-68.75,16.97
		c-5.26,2.64-14.05,3.55-12.92,13.17c-19.35,0.04-38.71,0.08-58.06,0.13c-1.43-0.43-2.86-0.86-4.29-1.3
		c-2.08-13.5-0.33-27.1-0.99-40.63c-0.33-6.73,3.2-7.85,8.87-7.82c44.75,0.26,89.5,0.35,134.25,0.49
		C432.91,402.14,433.55,402.85,434.19,403.57z"/>
	<path class="st7" d="M434.28,627.74c1.61,34.01,1.61,34.01-31.72,34.01c-33.61,0-67.22-0.34-100.82,0.22
		c-9.74,0.16-12.89-3.12-12.07-12.41c0.63-7.15,0.18-14.39,0.21-21.59C338.01,627.9,386.14,627.82,434.28,627.74z"/>
	<path class="st7" d="M288.96,699.68c2.58-8.01-3.26-18.95,3.35-24.02c7.04-5.41,17.83-1.77,26.96-1.84
		c33.3-0.23,66.6-0.1,99.9-0.09c15.44,0.01,15.45,0.02,15.47,15.9c0.01,3.61-0.03,7.22-0.05,10.83
		c-48.25-1.2-96.51-0.92-144.77-0.19L288.96,699.68z"/>
	<path class="st4" d="M289.82,700.27c48.26-0.73,96.51-1.01,144.77,0.19c-0.01,7.18-0.03,14.36-0.04,21.54
		c-48.24,0.27-96.49,0.54-144.73,0.81C288.57,715.3,288.64,707.79,289.82,700.27z"/>
	<path class="st6" d="M290.24,620.66c-0.11-3.6-0.14-7.2-0.35-10.79c-0.31-5.36,1.62-8.12,7.5-8.1
		c43.22,0.11,86.44-0.46,129.64,0.32c13.62,0.25,5.29,12.08,7.02,18.6C386.12,620.68,338.18,620.67,290.24,620.66z"/>
	<path class="st6" d="M289.99,577.09c4.69-3.06,9.98-2.33,15.12-2.34c43.08-0.09,86.17-0.15,129.25-0.21
		c0.73,17.18,0.73,17.19-16.08,17.19c-38.13,0-76.27-0.42-114.39,0.24C292.18,592.17,287.29,588.93,289.99,577.09z"/>
	<path class="st3" d="M352.5,450.55c-1.13-9.62,7.66-10.53,12.92-13.17c21.53-10.81,44.06-18.53,68.75-16.97
		c2.15,30.69,2.15,30.75-27.94,30.66C388.32,451.03,370.41,450.73,352.5,450.55z"/>
	<path class="st7" d="M432.28,401.43c-44.75-0.14-89.5-0.23-134.25-0.49c-5.67-0.03-9.2,1.09-8.87,7.82
		c0.66,13.53-1.09,27.12,0.99,40.63c-0.03,0.67,0.1,1.3,0.4,1.89c-6.34-6.84-2.83-15.2-2.84-22.71
		c-0.03-11.85-5.38-26.93,2.65-34.73c7.44-7.23,22.22-2.12,33.75-2.23c33.32-0.31,66.65,0.04,99.97-0.22
		c7.39-0.06,11.82,1.54,10.5,9.96C433.79,401.11,433.03,401.14,432.28,401.43z"/>
	<path class="st6" d="M290.24,620.66c47.94,0.01,95.88,0.02,143.82,0.03c0.07,2.35,0.15,4.7,0.23,7.05
		c-48.14,0.08-96.27,0.15-144.41,0.23C289.99,625.54,290.12,623.1,290.24,620.66z"/>
	<path class="st6" d="M642.03,577.24c-65.64,0.02-131.27,0.04-196.91,0.06c-0.06-1.75-0.13-3.5-0.2-5.25
		c3.93,4.02,9,2.69,13.66,2.69c56.45,0.03,112.89-0.06,169.34-0.03c4.76,0,9.53,0.61,14.29,0.95
		C642.17,576.19,642.11,576.71,642.03,577.24z"/>
	<path class="st16" d="M290.55,451.27c-0.3-0.59-0.43-1.22-0.4-1.89c1.43,0.43,2.86,0.86,4.3,1.3
		C293.14,450.87,291.85,451.07,290.55,451.27z"/>
	<path class="st16" d="M432.28,401.43c0.75-0.29,1.51-0.32,2.28-0.09c0.15,0.79,0.02,1.53-0.37,2.23
		C433.55,402.85,432.91,402.14,432.28,401.43z"/>
	<path class="st4" d="M897.96,700.13c-0.09,2.68-0.18,5.36-0.27,8.03c-1.46-0.29-2.92-0.55-4.36-0.9c-0.34-0.08-0.6-0.49-0.89-0.75
		c-0.13,0.17-0.26,0.33-0.39,0.49c0,5.66,2.65,10.56,4.54,15.67c-145.89-0.01-291.77-0.03-437.66,0.04
		c-7.71,0-13.97,0.54-13.64-10.84c0.28-9.64,3.35-12.03,12.61-12.01C604.58,700.15,751.27,700.11,897.96,700.13z"/>
	<path class="st18" d="M917.27,743.18c-1.37,3.08-3.79,3.04-6.47,2.17c-1.4-4.77-6.62-7.91-5.77-13.63
		c-0.09-4.02-3.44-7.62-1.54-11.9c10.09,1.34,5.72,12.86,11.94,16.94C917.47,738.5,917.31,740.86,917.27,743.18z"/>
	<path class="st17" d="M903.49,719.83c-1.9,4.28,1.46,7.88,1.54,11.9c-7.35,1.22-6.41-5.32-8.45-9.05
		c-1.88-5.11-4.53-10.01-4.53-15.67c0.12-0.16,0.26-0.33,0.39-0.49c0.3,0.26,0.55,0.67,0.89,0.75c1.44,0.35,2.9,0.61,4.36,0.9
		l0.08-0.45c-1.32,4.97-0.37,8.84,5.07,10.58C902.88,718.88,903.1,719.39,903.49,719.83z"/>
	<path class="st2" d="M1150.82,820.71c-2.4,13.35-4.82,26.69-7.17,40.04c-0.78,4.45-3.35,6.17-7.67,5.22
		c-11.73-2.56-23.53-4.56-35.6-4.17c-6.34,0.2-7.4-2.97-5.85-8.42c4.47-15.75,8.95-31.51,13-47.37c1.36-5.33,3.35-7.87,9.05-5.64
		c9.68,3.78,19.37,7.55,29.14,11.08C1150.36,813.13,1151.84,816.17,1150.82,820.71z"/>
	<path class="st2" d="M1131.96,939.34c-0.07,0.39-0.02,0.94-0.25,1.13c-0.5,0.41-1.15,0.63-1.74,0.93
		c-2.28-4.55-1.57-10.16-5.08-14.27c-1.73-4.87-3.13-9.88-5.26-14.56c-2.64-5.81,0.99-6.76,5.17-7.92c5.38-1.5,6.45,1.95,6.6,5.82
		C1131.76,920.08,1131.79,929.71,1131.96,939.34z"/>
	<path class="st8" d="M1076.64,758.25c7.85-2.9,13.21-10.3,21.72-12.03c-0.26,4.89-0.53,9.78-0.79,14.67
		C1090.65,759.52,1083.13,762.98,1076.64,758.25z"/>
	<path class="st18" d="M1098.27,746.27c0.72-0.76,1.43-1.52,2.15-2.28C1099.7,744.75,1098.99,745.51,1098.27,746.27z"/>
	<path class="st2" d="M602.38,813.25c-1.1-3.59,2.08-4.99,5.04-6.23c4.44-1.86,8.97-3.48,13.51-5.1
		c23.44-8.37,23.48-8.37,29.91,15.29c2.94,10.84,5.46,21.79,8.65,32.55c1.58,5.33,0.43,7.57-5.23,7.26
		c-12.12-0.66-23.93,1.96-35.79,3.79c-4.22,0.65-7.07,0.75-7.8-4.33c-0.39-2.77-1.36-5.45-1.87-8.21
		C606.66,836.87,604.6,825.44,602.38,813.25z"/>
	<path class="st2" d="M627.66,927.16c-5.67,0.93-4.58,5.38-4.85,9.2c-0.3,4.21,1.21,8.75-2.13,12.44
		c-0.78-14.44,0.91-28.76,2.32-43.08c0.31-3.11-0.23-7.01,5.02-5.77c4.16,0.98,8.06,2.34,6.26,7.93
		C632.18,914.33,629.87,920.73,627.66,927.16z"/>
	<path class="st2" d="M666.26,922.3c-4.97-0.15-4.22,5.6-7.46,7.24c0.15-4.35,0.15-8.72,0.51-13.06c0.24-2.89-1.04-7.23,3.64-7.44
		c5.01-0.22,5.33,3.84,4.95,7.59C667.69,918.55,666.82,920.41,666.26,922.3z"/>
	<path class="st19" d="M1641,738.9c0.01,0.81,0.02,1.62,0.03,2.42c-0.27-0.56-0.61-1.1-0.75-1.69
		C1640.24,739.46,1640.74,739.15,1641,738.9z"/>
	<path class="st8" d="M1528.44,661.58c-3.23-8.23-3.59-15.17,7.59-16.94c9.47-0.42,19.02,1.15,28.4-1.85
		c6.38-2.04,9.59-5.37,7.14-12.28c28.63-15.41,50.54-12.31,66.8,9.43c-14.29,19.56-32.16,35.67-49.95,51.87
		c0.99-7.71-4.46-10.3-10.11-12.73c4.78-1.66,7.43-4.74,6.06-9.99c-1.49-5.72-6.29-5.03-10.7-5.32
		C1558.6,662.83,1543.32,666.26,1528.44,661.58z"/>
	<path class="st8" d="M1578.31,679.09c5.66,2.43,11.11,5.02,10.11,12.72c-0.14,3.39-3.28,4.09-5.26,5.83
		c-21.53,0-43.05-0.01-64.57-0.01c-5.48-6.45-8.7-12.59,2.27-16.82C1540.11,683.58,1559.07,676.9,1578.31,679.09z"/>
	<path class="st20" d="M1583.16,697.65c1.98-1.74,5.12-2.44,5.26-5.83c17.79-16.19,35.66-32.3,49.95-51.86
		c4.15,3.75,8.38,7.47,7.53,13.92c-14.87,17.84-31.28,34.09-49.73,48.26C1592.16,699.69,1588.24,696.99,1583.16,697.65z"/>
	<path class="st6" d="M1578.31,679.09c-19.23-2.19-38.2,4.49-57.44,1.72c-6.05-9.79-2.73-15.89,7.58-19.23
		c14.88,4.68,30.17,1.25,45.23,2.21c4.41,0.28,9.21-0.4,10.7,5.32C1585.74,674.36,1583.08,677.43,1578.31,679.09z"/>
	<path class="st6" d="M1571.57,630.52c2.44,6.9-0.77,10.24-7.14,12.28c-9.37,3-18.93,1.43-28.4,1.85
		c-7.84-12.52-6.17-16.34,8.45-19.27c5.01-0.01,10.02-0.03,15.02-0.04C1564.28,625.31,1568.36,626.92,1571.57,630.52z"/>
	<path class="st8" d="M1559.51,625.33c-5.01,0.01-10.01,0.03-15.02,0.04c0.01-1.17-0.16-2.39,0.07-3.52
		c1.06-5.21,1.54-13.09,8.24-11.49C1557.7,611.54,1563.02,617.73,1559.51,625.33z"/>
	<path class="st2" d="M1596.9,292.89c-23.26,0.04-23.28,0.04-23.29-22.94c0-6.72,0.14-13.45,0.21-20.17
		c7.93-0.04,15.85-0.08,23.78-0.11C1597.36,264.07,1597.13,278.48,1596.9,292.89z"/>
	<path class="st2" d="M1504.29,258.84c2.17-4.8,4.63-9.11,10.8-9.62c6.55-0.55,10.88,0.72,10.45,8.72
		c-0.4,7.52,0.18,15.1-0.18,22.63c-0.2,4.29,2.38,10.5-4.67,11.68c-6.58,1.11-13.73,2.01-16.41-6.88
		C1504.28,276.53,1504.28,267.68,1504.29,258.84z"/>
	<path class="st2" d="M1573.76,243.81c-0.08-1.16-0.16-2.32-0.24-3.48c8.14,0.22,17.08-4.98,23.98,3.56
		C1589.59,243.87,1581.67,243.84,1573.76,243.81z"/>
	<path class="st8" d="M1573.76,243.81c7.92,0.03,15.83,0.06,23.74,0.09c0.03,1.91,0.06,3.83,0.09,5.75
		c-7.93,0.04-15.86,0.08-23.78,0.12C1573.79,247.79,1573.77,245.8,1573.76,243.81z"/>
	<path class="st8" d="M1527.59,251.54c0.72,0.05,1.44,0.11,2.15,0.19c0.12,13.52,0.24,27.04,0.36,40.56
		c-0.89,0.08-1.77,0.16-2.66,0.23C1527.49,278.86,1527.54,265.2,1527.59,251.54z"/>
	<path class="st6" d="M852.11,548.25c5.78,0.02,11.02,2.16,16.08,4.55c12.95,6.13,15.5,12.68,10.94,27.15
		c-39.97-0.06-79.95-0.49-119.91,0.07c-10.59,0.15-14.88-3.09-13.59-13.47c13.13-13.63,30.56-16.07,48.02-18.45
		C813.14,548.15,832.63,548.2,852.11,548.25z"/>
	<path class="st6" d="M745.64,566.54c-1.29,10.39,3,13.62,13.59,13.47c39.96-0.56,79.94-0.13,119.91-0.07
		c0.28,0.75,0.31,1.51,0.09,2.27c0,0-0.62,0.2-0.61,0.2c-44.07,0.18-88.15,0.36-132.22,0.54c-1.03-0.29-2.06-0.58-3.09-0.87
		c-1.47-4.83-1.61-9.65,0.08-14.46C744.13,567.27,744.88,566.9,745.64,566.54z"/>
	<path class="st6" d="M852.11,548.25c-19.49-0.05-38.97-0.1-58.46-0.15C813.15,543.64,832.64,542.81,852.11,548.25z"/>
	<path class="st9" d="M912.22,321.07c-67.45,0.13-134.9,0.15-202.35,0.52c-8.22,0.05-11.04-3.3-9.92-10.75
		c1.61-10.69-2.72-14.13-13.36-13.44c-14,0.91-28.09,0.28-42.15,0.31c-0.68-1.85-1.93-3.7-1.96-5.57
		c-0.27-16.51-0.21-16.47-16.38-16.52c-52.47-0.17-104.95-0.37-157.42-0.56c3.99-2.84,8.55-1.67,12.86-1.67
		c67.82-0.08,135.65-0.1,203.47-0.02c6.37,0.01,14.16-2.53,16.43,7.42c0.24,1.03,3.4,1.95,5.22,1.98
		c9.63,0.19,19.26,0.09,28.89,0.07c3.31-0.01,5.15-1.8,5.79-4.96c1.75,5.98,6.42,5.96,11.46,5.95c39.29-0.09,78.59-0.2,117.88,0.11
		c6.65,0.05,10.65-2.12,12.83-8.15c0.15,2.78-0.13,5.93,3.52,6.69C918.09,288.99,912.35,295.77,912.22,321.07z"/>
	<path class="st8" d="M743.31,270.77c6.81-11.4,18.76-14.55,30.16-17.77c26.6-7.53,53.65-9,80.92-3.74
		c4.31,0.83,8.68,1.73,12.17,4.75c-1.95,8.27-3.93,16.59-14.9,16.79c-15.1,0.28-30,2.88-45.2,2.77
		C785.35,273.41,764.33,272.38,743.31,270.77z"/>
	<path class="st8" d="M743.31,270.77c21.02,1.61,42.04,2.64,63.15,2.8c15.2,0.11,30.1-2.49,45.2-2.77
		c10.97-0.2,12.94-8.52,14.9-16.79c10.51,3.48,16.07,10.81,16.95,21.78c-2.18,6.03-6.18,8.2-12.83,8.15
		c-39.29-0.31-78.58-0.2-117.88-0.11c-5.04,0.01-9.71,0.03-11.46-5.95C741.99,275.51,742.65,273.14,743.31,270.77z"/>
	<path class="st6" d="M746.39,582.96c44.07-0.18,88.15-0.36,132.22-0.54c-2.26,2.12-5.1,2.01-7.9,2.01
		c-39.55,0-79.1,0.03-118.65-0.06C750.17,584.37,748.28,583.45,746.39,582.96z"/>
	<path class="st9" d="M643.82,575.64c1.11-1.01,2.22-2.02,3.33-3.03c-0.07,16.09-0.14,32.18-0.21,48.27
		c-6.02-9.84-1.44-20.7-2.94-31C643.32,585.22,643.84,580.39,643.82,575.64z"/>
	<path class="st4" d="M902.83,718.29c-5.43-1.73-6.39-5.61-5.07-10.58c1.64-0.11,3.27-0.22,4.91-0.33
		C902.72,711.02,902.78,714.65,902.83,718.29z"/>
</g>
<g id="Calque_7">
	<path class="st21" d="M1155.72,877.13c-94.07,10.67-122.25-34.45-114.57-123.37c6.36-73.29-0.09-147.61-0.84-221.46
		c0.94-5.34,1.4-10.86,1.5-16.29c3.28-94.45,91.26-143.4,120.37-223.99c148.36-59.34,304.3-43.06,458.47-48.3
		c71.33-2.43,101.18,20.22,99.03,94.73c-3.74,126.55-0.09,253.38,0.37,380.12c-115.32,105.4-239.72,183.93-407.45,157.91
		C1261.68,868.43,1208.14,876.39,1155.72,877.13z"/>
	<path class="st21" d="M817.07,558.14c-0.47,98.56-0.94,197.03-1.5,295.6c-108.86,118.97-238.41,185.8-404.55,160.62
		c-3.74-0.28-7.49-0.66-11.23-0.84c-262.09-7.96-264.8-7.96-260.31-267.14c1.31-74.7-38.66-165.96,29.48-222.31
		c106.99-88.46,230.64-144.8,377.97-110.45c28.27,6.65,58.97,3.09,88.55,4.21C732.08,418.01,837.57,406.59,817.07,558.14z"/>
	<path class="st21" d="M817.07,558.14c20.5-151.54-84.99-140.22-181.59-140.4c9.36-81.62-24.24-166.89,20.78-245.43
		c86.21,26.49,172.88-2.9,259.75,1.4c86.11,4.31,119.72,41.56,95.76,119.34c-25.18,81.62-7.86,152.48,30.14,222.96
		c-0.09,5.52-0.56,10.95-1.5,16.29C970.11,576.29,891.48,549.24,817.07,558.14z"/>
	<path class="st21" d="M1041.9,516.01c-38-70.48-55.32-141.34-30.14-222.96c24.06-77.78-9.55-115.04-95.76-119.34
		c-86.86-4.31-173.54,25.18-259.75-1.4C781.13,15.52,955.23,70.28,1115.1,67.19c40.25-0.75,39.78,37.07,40.9,67.58
		c1.97,52.42,4.12,104.74,6.18,157.16C1133.17,372.52,1045.18,421.47,1041.9,516.01z"/>
	<line class="st22" x1="129.46" y1="980.94" x2="129.46" y2="550.37"/>
</g>
<g id="Calque_6" class="st0">
	<path class="st23" d="M1428.17,948.78c-7.55-11.38-5.57-23.94-2.49-35.61c6.62-25.05,25.67-39.69,48.43-47.83
		c21.67-7.75,57.98,2.37,66.22,25.33C1521.1,937.25,1476.65,960.28,1428.17,948.78z"/>
	<path class="st23" d="M1428.17,948.78c48.49,11.5,92.93-11.53,112.16-58.11c5.67,1.64,6.97,6.62,8.64,11.31
		c-2.32,4.16-4.71,8.28-6.94,12.49c-11.64,22-28.05,38.74-52.02,47.07c-16.74,5.82-34.39,4.36-51.63,6.09
		C1430.76,963.63,1428.35,956.8,1428.17,948.78z"/>
	<path class="st23" d="M1450.89,983.91c-3.51-5.21-9.77-8.02-12.3-14.09c9.17,2.5,18.53,5.45,27.97,4.48
		c40.56-4.15,70.72-22.78,84.72-62.92c5.52,6.74,3.89,14.32,2.58,21.87c-5.71,8.51-9.64,18.14-17.02,25.64
		c-19.16,19.49-42.88,28.06-69.57,29.83C1461.82,987.13,1456.35,985.52,1450.89,983.91z"/>
	<path class="st23" d="M1551.29,911.39c-14,40.14-44.17,58.77-84.72,62.92c-9.44,0.97-18.8-1.98-27.97-4.48
		c-0.12-0.72-0.19-1.45-0.22-2.19c17.25-1.74,34.89-0.28,51.63-6.09c23.96-8.33,40.38-25.07,52.02-47.07
		c2.23-4.21,4.62-8.33,6.94-12.49C1549.74,905.12,1550.51,908.25,1551.29,911.39z"/>
	<path class="st23" d="M1534.78,979.45c-17.06,12.88-36.23,17.38-57.28,14.52c-4.05-0.55-9.22,1.23-10.21-5.24
		c26.69-1.78,50.41-10.35,69.57-29.83c7.38-7.5,11.3-17.13,17.02-25.64c3.55,15.83-6.52,26.74-13.97,38.59
		C1538.27,974.44,1534.77,975.76,1534.78,979.45z"/>
</g>
<g id="Calque_5" class="st0">
	<path class="st23" d="M1549.01,534.24c-1.54,2.51-3.08,5.02-4.62,7.54c-4.03,1.65-8.15,2.68-12.54,1.57
		c-5.83-2.73-7.89-7.66-8.03-13.71c2.13-7.6,7.17-10.84,14.94-9.91C1547.51,520.78,1548.78,527.15,1549.01,534.24z"/>
	<path class="st23" d="M1608.34,541.78c-0.94-2.49-1.88-4.98-2.82-7.47c0.52-8.42,3-15.12,13.25-14.67
		c9.38,0.41,12,6.45,11.93,14.63c-1.64,2.58-3.29,5.16-4.93,7.74C1619.94,543.4,1614.1,545.96,1608.34,541.78z"/>
	<path class="st23" d="M1630.7,534.27c0.07-8.18-2.55-14.22-11.93-14.63c-10.26-0.45-12.74,6.25-13.25,14.67
		c-18.84-0.02-37.68-0.05-56.51-0.07c-0.23-7.09-1.5-13.46-10.24-14.51c-7.77-0.93-12.81,2.31-14.94,9.91
		c-7.09-0.13-15.04,1.71-14.08-10.34c0.53-6.65,2.54-9.58,9.27-9.09c3.99,0.29,8.02-0.08,12.03,0.07c9.84,0.35,19.81,2,18.07-13.89
		c-0.67-6.09,13.79-12.05,20.06-8.51c5,2.83,7.82,3.95,13.34-0.5c6.88-5.54,14.99-0.14,14.12,9.36
		c-1.09,11.9,4.14,14.64,14.56,13.62c6.36-0.63,12.85,0.21,19.24-0.18c7.17-0.44,10.59,2.19,9.84,9.63
		C1639.62,526.36,1643.22,535.6,1630.7,534.27z M1575.54,510.08c4.47-1.1,11.67,3.28,12-6.55c0.28-8.39-5.38-7.93-10.36-6.96
		c-5.17,1-14.01-4.92-14.56,6.34C1562.1,513.45,1570.34,508.96,1575.54,510.08z"/>
</g>
<g id="Calque_4" class="st0">
	<path class="st23" d="M1567.69,401.42c14.97-19.56,34.81-8.79,56.45-7.14c-13.97-9.8-10.83-18.09-3.28-26.43
		c8.26-9.13,17.53-11.04,27.9-5.27c1.81,1.01,3.39,1.93,5.47,1.65c6.84,1.72,9.76,5.44,4.99,11.74c-3.29,4.33-2.1,9.93-4.98,14.23
		c-4.7,1.34-7.13,4.18-7.03,9.33c0.15,8.03-2.6,15.26-6.87,21.97c-0.21-4.37-0.43-8.73-0.65-13.1c-0.19-3.69,2.08-8.65-3.81-9.71
		c-4.67-0.84-7.18,2.7-9.07,6.37c-4.8,9.35-5.32,19.85-7.91,29.79c-11.85-0.24-23.69-0.49-35.55-0.73
		c4.98-3.21,14.15-2.49,13.33-11.25c-0.71-7.65-7.57-10.91-14.27-12.86c-4.47-1.3-9.28-1.39-13.85-2.4
		C1563.25,406.46,1566.85,403.66,1567.69,401.42z M1638.02,372.91c-0.09-3.8-0.54-7.72-5.52-7.38c-7.25,0.49-8.24,6.45-9.24,11.96
		c-0.8,4.42,2.32,5.64,5.76,5.49C1635.25,382.7,1638.26,379.13,1638.02,372.91z"/>
	<path class="st23" d="M1567.69,401.42c-0.84,2.25-4.44,5.04,0.88,6.21c4.57,1,9.38,1.1,13.85,2.4c6.7,1.95,13.56,5.22,14.27,12.86
		c0.82,8.75-8.35,8.04-13.33,11.25c-18.93,0.19-37.86,3.26-56.82,0.32c-5.91-9.08-6.37-18.57,0.82-26.64
		c6.66-7.46,14.45-13.86,26.15-8.39C1557.65,401.36,1562.93,400.83,1567.69,401.42z"/>
	<path class="st23" d="M1618.91,434.87c2.59-9.95,3.1-20.45,7.91-29.79c1.89-3.68,4.4-7.21,9.07-6.37c5.89,1.05,3.62,6.02,3.81,9.71
		c0.22,4.37,0.43,8.73,0.64,13.1c0,5.21-0.88,10.52,1.85,15.4c-1.19,3.86-1.51,7.74-0.22,11.64c-7.53,6.19-15.08,5.19-22.63,0.04
		C1619.2,444.02,1619.05,439.44,1618.91,434.87z"/>
</g>
</svg>
