<?xml version="1.0" encoding="utf-8"?>
<!-- Generator: Adobe Illustrator 27.0.1, SVG Export Plug-In . SVG Version: 6.00 Build 0)  -->
<svg version="1.1" xmlns="http://www.w3.org/2000/svg" xmlns:xlink="http://www.w3.org/1999/xlink" x="0px" y="0px"
	 viewBox="0 0 557.85 503.59" style="enable-background:new 0 0 557.85 503.59;" xml:space="preserve">
<style type="text/css">
	.st0{fill:#FAE81E;stroke:#000000;stroke-miterlimit:10;}
	.st1{fill:#F9E925;stroke:#000000;stroke-miterlimit:10;}
	.st2{fill:#FAE71A;stroke:#000000;stroke-miterlimit:10;}
</style>
<g id="AilgeDroiteBas">
	<path class="st0" d="M342.03,314.56c7.1-2.91,23.26,16.95,31.36,36.1c4.63,10.95,5.33,36.1,5.33,36.1s-31.51-16.05-38.46-42.01
		C337.27,333.6,336.33,316.9,342.03,314.56z"/>
</g>
<g id="AileGauche">
	<path class="st1" d="M351.98,148.43c0,0,38-37.16,77.58-51.12c10.63-3.75,86.02-30.35,93.72-15.25
		c6.11,11.99-34.17,42.9-65.92,67.26c-39.67,30.44-83.41,39.46-83.41,39.46L351.98,148.43z"/>
</g>
<g id="AileGaucheBas">
	<path class="st2" d="M218.06,314.56c-7.1-2.91-23.26,16.95-31.36,36.1c-4.63,10.95-5.33,36.1-5.33,36.1s31.51-16.05,38.46-42.01
		C222.82,333.6,223.76,316.9,218.06,314.56z"/>
</g>
<g id="Centre">
	<circle class="st1" cx="278.92" cy="231.39" r="77.13"/>
</g>
<g id="AileDroite">
	<path class="st1" d="M201.79,148.43c0,0-38-37.16-77.58-51.12c-10.63-3.75-86.02-30.35-93.72-15.25
		c-6.11,11.99,34.17,42.9,65.92,67.26c39.67,30.44,83.41,39.46,83.41,39.46L201.79,148.43z"/>
</g>
</svg>
