<svg version="1.1" id="Calque_1" xmlns="http://www.w3.org/2000/svg" x="0" y="0" viewBox="0 0 1920 1080" style="enable-background:new 0 0 1920 1080" xml:space="preserve"><style>.st0{display:none}.st2,.st3{display:inline;fill:#ffcbf2}.st3{fill:#847e7a}.st4,.st5,.st6{display:inline;fill:#eaf3f0}.st5,.st6{fill:#928581}.st6{fill:#c0fdff}.st7,.st8,.st9{display:inline;fill:#d0d1ff}.st8,.st9{fill:#deaaff}.st9{fill:#c8e7ff}.st10{fill:#509980}.st10,.st11,.st13{display:inline}.st11{fill:none;stroke:#000;stroke-width:2.2536;stroke-miterlimit:10}.st13{fill:#e3ad86}.st15,.st16,.st17{display:inline;fill:#fde7cf}.st16,.st17{fill:#7d95d6}.st17{fill:#f5d7c0}.st18,.st19,.st20{display:inline;fill:#e16b79}.st19,.st20{fill:#61ad8e}.st20{fill:#a29793}.st23{fill:none;stroke:#000;stroke-width:2.2536;stroke-miterlimit:10}</style><g id="Calque_4"><path class="st23" d="M681.03 476.62c160.84-210.15 374-94.44 606.49-76.71-150.09-105.29-116.36-194.36-35.24-283.96 88.74-98.09 188.34-118.61 299.75-56.62 19.45 10.85 36.42 20.74 58.77 17.73 73.49 18.48 104.86 58.45 53.61 126.13-35.35 46.52-22.56 106.69-53.5 152.89-50.5 14.4-76.6 44.91-75.53 100.24 1.61 86.27-27.93 163.95-73.81 236.04-2.26-46.95-4.62-93.79-6.98-140.74-2.04-39.64 22.35-92.93-40.93-104.32-50.17-9.02-77.14 29.01-97.45 68.44-51.57 100.46-57.16 213.27-84.98 320.06-127.31-2.58-254.52-5.26-381.95-7.84 53.5-34.49 152.03-26.75 143.22-120.87-7.63-82.19-81.33-117.22-153.32-138.17-48.02-13.97-99.7-14.93-148.8-25.79-57.06-12.36-18.38-42.44-9.35-66.51zm755.61-306.3c-.97-40.83-5.8-82.94-59.31-79.29-77.89 5.26-88.53 69.3-99.27 128.5-8.6 47.49 24.93 60.6 61.88 58.98 66.94-3.01 99.28-41.37 96.7-108.19z"/><path class="st23" d="M681.03 476.62c-9.02 24.17-47.7 54.15 9.45 66.72 49.1 10.74 100.78 11.82 148.8 25.79 71.98 20.95 145.69 56.08 153.32 138.17 8.81 94.01-89.71 86.38-143.22 120.87-203.38 2.04-406.76 35.03-610.47 3.44-63.5-97.55-68.44-199.51 8.81-286.22 71.55-80.15 155.25-148.91 280.95-90.14 44.49 20.73 101.22 15.04 152.36 21.37zM1231.33 836.01c27.83-106.9 33.31-219.71 84.98-320.06 20.31-39.54 47.27-77.46 97.45-68.44 63.28 11.28 38.89 64.68 40.93 104.32 2.36 46.95 4.62 93.79 6.88 140.74 0 55.98-9.45 113.03 19.88 165.46-12.78 41.47-16.22 83.16-2.36 125.06-80.9 66.5-162.02 55.76-243.13.43-1.52-49.21-3.13-98.41-4.63-147.51z"/></g></svg>