<svg version="1.1" id="Calque_1" xmlns="http://www.w3.org/2000/svg" x="0" y="0" viewBox="0 0 1920 1080" style="enable-background:new 0 0 1920 1080" xml:space="preserve"><style>.st0{display:none}.st2,.st3{display:inline;fill:#ffcbf2}.st3{fill:#847e7a}.st4,.st5,.st6{display:inline;fill:#eaf3f0}.st5,.st6{fill:#928581}.st6{fill:#c0fdff}.st7,.st8,.st9{display:inline;fill:#d0d1ff}.st8,.st9{fill:#deaaff}.st9{fill:#c8e7ff}.st10{fill:#509980}.st10,.st11,.st13{display:inline}.st11{fill:none;stroke:#000;stroke-width:2.2536;stroke-miterlimit:10}.st13{fill:#e3ad86}.st15,.st16,.st17{display:inline;fill:#fde7cf}.st16,.st17{fill:#7d95d6}.st17{fill:#f5d7c0}.st18,.st19,.st20{display:inline;fill:#e16b79}.st19,.st20{fill:#61ad8e}.st20{fill:#a29793}.st23{fill:none;stroke:#000;stroke-width:2.2536;stroke-miterlimit:10}</style><g id="Calque_5"><path class="st23" d="M601.4 781.31c-21.33 34.76-42.65 69.51-63.97 104.41-55.81 22.85-112.86 37.11-173.65 21.74-80.73-37.8-109.26-106.07-111.19-189.85 29.49-105.24 99.29-150.11 206.88-137.23 121.16 14.54 138.74 102.75 141.93 200.93zM1422.96 885.72c-13.02-34.48-26.03-68.96-39.05-103.44 7.2-116.59 41.54-209.37 183.48-203.14 129.89 5.68 166.17 89.32 165.2 202.59-22.71 35.73-45.56 71.45-68.27 107.18-80.73 19.24-161.6 54.69-241.36-3.19z"/><path class="st23" d="M1732.59 781.72c.97-113.27-35.31-196.91-165.2-202.59-142.07-6.23-176.42 86.55-183.48 203.14-260.88-.28-521.77-.69-782.52-.97-3.18-98.18-20.77-186.39-141.8-200.93-107.59-12.87-177.38 32-206.87 137.24-98.18-1.8-208.27 23.68-194.97-143.18 7.34-92.09 35.17-132.66 128.37-125.87 55.25 4.02 111.06-1.11 166.58.97 136.26 4.85 274.32 27.69 250.22-192.34-9.28-84.33 190.96-166.86 277.78-117.84 69.24 39.19 108.29 54.7 184.72-6.92 95.27-76.71 207.57-1.94 195.52 129.61-15.09 164.78 57.33 202.73 201.62 188.6 88.07-8.72 177.94 2.91 266.42-2.49 99.29-6.09 146.64 30.33 136.26 133.35-9.13 90.69 40.72 218.64-132.65 200.22zM968.77 446.76c61.9-15.23 161.6 45.42 166.17-90.7 3.88-116.18-74.5-109.81-143.46-96.38-71.59 13.85-194-68.13-201.62 87.79-7.2 145.95 106.9 83.78 178.91 99.29z"/></g></svg>