<?xml version="1.0" encoding="utf-8"?>
<!-- Generator: Adobe Illustrator 27.0.1, SVG Export Plug-In . SVG Version: 6.00 Build 0)  -->
<svg version="1.1" id="voiture" xmlns="http://www.w3.org/2000/svg" xmlns:xlink="http://www.w3.org/1999/xlink" x="0px" y="0px"
	 viewBox="0 0 1920 1080" style="enable-background:new 0 0 1920 1080;" xml:space="preserve">
<style type="text/css">
	.st0{fill:#FFFFFF;}
	.st1{fill:#040303;}
	.st2{fill:#4D4D4D;}
	.st3{fill:#666666;}
	.st4{fill:#58595B;}
	.st5{fill:#818386;}
	.st6{fill:#FDFDFD;}
	.st7{fill:#FEFEFE;}
</style>
<g>
	<path d="M365.39,758.33c-1.6,0.31-2.05,1.72-2.3,2.92c-0.64,3.14-2.55,3.65-5.42,3.6c-9.93-0.16-19.87-0.06-29.8-0.06
		c-17.68,0-35.35-0.01-53.03-0.01c-1.72-1.12-2.15-3.08-2.97-4.74c-10.9-22.03-21.9-44.01-32.47-66.21c-2.08-4.37-4.34-6.14-9.1-5.6
		c-2.78,0.31-5.83,0.86-8.54-0.77c-0.37-0.94-0.8-1.87-1.12-2.84c-1.42-4.41-4.51-8.14-5.3-12.81c16.82-0.04,33.65-0.06,50.47-0.12
		c4.53-0.01,9.08,0.05,13.6-0.2c13.69-0.76,27.39-1.54,41.07-2.56c5.1-0.38,10.2-0.57,15.29-1.03c7.98-0.71,15.95-1.6,23.92-2.4
		c6.24-0.63,12.56-0.81,18.71-1.94c9.91-1.84,19.95-2.52,29.91-3.94c11.53-1.65,23.09-3.25,34.61-5c9.2-1.4,18.41-2.92,27.58-4.64
		c13.02-2.44,26.11-4.58,39.16-6.92c12.05-2.17,24.02-4.69,36.08-6.79c9.18-1.6,18.28-3.63,27.38-5.65
		c9.1-2.02,18.32-3.54,27.46-5.4c6.99-1.42,13.94-3.07,20.92-4.55c8.13-1.72,16.29-3.31,24.4-5.08c11.39-2.49,22.74-5.16,34.13-7.64
		c16.37-3.57,32.76-7.01,49.14-10.55c13.39-2.89,26.73-6.03,40.14-8.74c12.57-2.54,25.05-5.47,37.65-7.85
		c14.03-2.64,27.96-5.79,41.95-8.62c8.57-1.73,17.23-3.07,25.76-4.96c6.97-1.54,14.01-2.84,21.01-4.14
		c9.88-1.83,19.76-3.72,29.69-5.3c9.35-1.49,18.66-3.2,28-4.77c4.02-0.68,8.12-1.03,12.09-1.91c9.84-2.18,19.88-2.98,29.78-4.78
		c9.88-1.8,19.89-2.98,29.87-4.14c4.79-0.55,9.48-1.61,14.27-2.14c7.82-0.86,15.68-1.37,23.46-2.67c6.62-1.11,13.42-0.97,20.01-2.03
		c9.97-1.6,20.02-2,30.02-3.06c10.73-1.13,21.49-2.07,32.27-2.61c16.04-0.81,32.06-1.96,48.1-2.59c17.52-0.69,35.08-0.28,52.62-0.95
		c5.85-0.22,11.66,0.56,17.51,0.63c18.42,0.22,36.84-0.35,55.26,0.75c9.33,0.56,18.68,0.21,28.04,0.83
		c12.39,0.82,24.83,0.14,37.25,0.93c11.22,0.71,22.49,0.33,33.74,0.81c16.19,0.68,32.42,0.56,48.6,1.85
		c8.14,0.65,16.35,0.48,24.52,0.81c15.91,0.63,31.84,0.74,47.71,1.99c11.07,0.87,22.17,0.9,33.26,1.52
		c10.93,0.61,21.86,1.05,32.79,1.81c11.64,0.81,23.33,1.16,34.99,1.76c9.19,0.47,18.35,0.99,27.52,1.75
		c12.36,1.03,24.78,1.36,37.18,1.99c2.04,0.1,4.07,0.35,6.09,0.53c5.51,0.48,11,1.65,16.59,1c0.53,7.7-0.38,15.4,0.89,23.13
		c3.5,21.28,14.34,37.77,31.73,50.2c0.76,0.54,1.6,0.67,2.48,0.71c0.6,1.1,1.64,1.49,2.77,1.73c0.37,0.43,0.67,1.11,1.13,1.26
		c2.76,0.91,3.32,2.74,3.57,5.57c0.83,9.11,0.25,18.21,0.36,27.31c-46.29,0.01-92.59,0.02-138.89,0.02
		c-0.56-1.34-1.03-2.73-1.69-4.03c-9.34-18.55-22.06-34.28-39.22-46.16c-8.54-5.92-17.9-10.33-27.71-13.75
		c-7.87-2.74-16.03-4.37-24.26-5.49c-16.29-2.21-32.53-2.28-48.73,1.29c-5.14,1.13-9.99,3.16-15.15,4.1
		c-1.07-1.23-2.41-2.12-3.85-2.81c-7.59-3.66-15.32-7.01-23.51-9.09c-4.07-1.03-8.26-1.88-12.43-2.11c-11.87-0.64-23.55,0.25-34.7,5
		c-6.16,2.62-12.25,5.36-17.95,8.88c-7.93,4.89-15.53,10.24-22.86,16.01c-9.5,7.47-18.64,15.36-27.84,23.19
		c-4.76,4.05-9.46,8.2-14.43,11.99c-6.01,4.58-12.23,8.89-18.44,13.22c-4.29,2.99-8.54,6.11-13.1,8.64
		c-12.71,7.07-25,14.87-38.21,21.11c-8.38,3.96-16.7,8.07-25.09,12.03c-11.43,5.4-23.22,9.91-34.83,14.87
		c-8.67,3.7-17.66,6.71-26.61,9.73c-10.05,3.39-20.15,6.63-30.33,9.58c-10.04,2.91-20.19,5.48-30.34,8
		c-8.17,2.04-16.39,3.89-24.62,5.64c-6.95,1.48-13.91,3-20.94,3.88c-3.64,0.45-7.1,1.52-10.71,1.97c-6.33,0.79-12.64,1.8-18.98,2.48
		c-3.46,0.37-6.93,0.85-10.39,1.18c-4.65,0.45-9.33,0.31-13.94,0.84c-8.69,0.99-17.42,1.43-26.12,1.55
		c-19.98,0.26-39.96,0.36-59.91-1.54c-7.22-0.69-14.52-0.75-21.7-1.92c-6.02-0.98-12.09-1.56-18.12-2.34
		c-3.63-0.47-7.09-1.64-10.69-1.96c-9.43-0.83-18.63-3.06-27.86-4.89c-10.78-2.14-21.51-4.69-32.09-7.8
		c-6.83-2.01-13.86-3.32-20.7-5.27c-8.51-2.43-16.94-5.16-25.38-7.82c-8.18-2.58-16.35-5.2-24.5-7.85
		c-5.5-1.79-10.97-3.71-16.47-5.52c-4.7-1.54-9.47-2.84-14.12-4.51c-7.8-2.8-15.7-5.25-23.68-7.45c-7.28-2.01-14.63-3.76-21.98-5.53
		c-5.69-1.37-11.48-1.71-17.13-3.01c-1.21-0.28-2.64-0.48-3.71,0.67c-1.89-0.72-3.47-2-5.42-2.68c-9.45-3.3-19.15-4.6-29.12-4.18
		c-10.09-0.85-20.17-0.22-30.23,0.4c-17.51,1.09-34.86,3.51-52.2,6.22c-9.38,1.47-18.67,3.41-28.07,4.79
		c-7.87,1.97-15.93,3.01-23.87,4.71c-6.5,1.4-12.86,3.52-19.52,4.26c-1.64,0.18-3.52,0.29-4.87,1.62
		c-6.41,1.13-12.85,2.12-18.94,4.57c-10.3,1.82-20.2,5.13-30.14,8.27c-3.97,1.25-7.06,3.89-9.88,6.93
		c-8.46,9.12-13.63,20.16-18.68,31.3C364.65,757.06,365.17,757.67,365.39,758.33z"/>
	<path d="M1317.08,393.56c86.6,0,173.2-0.03,259.81,0.04c10.37,0.01,20.75,0.31,31.1,0.93c14.54,0.87,29.05,2.25,43.51,4.1
		c11.41,1.46,22.8,2.95,34.14,4.97c8.18,1.46,16.32,3.11,24.41,4.88c9.39,2.05,18.71,4.44,27.87,7.46
		c7.34,2.42,14.69,4.78,21.75,7.92c9.07,4.04,17.87,8.48,25.22,15.44c8.37,7.92,9.22,16.46,3,26.85
		c-3.64,6.08-9.16,10.55-14.46,15.16c-3.26,2.84-7.22,4.89-9.73,8.59c-3.09,0.58-4.8,3.12-7.01,4.94
		c-5.7,4.73-11.03,9.82-15.52,15.75c-3.67,4.86-6.48,10.26-9.59,15.47c-4.83-1.33-9.86-1.23-14.77-1.59
		c-9.75-0.7-19.51-1.34-29.28-1.76c-14.73-0.63-29.4-2.15-44.13-2.7c-12.26-0.46-24.52-0.73-36.73-1.92
		c-9.89-0.96-19.83-0.94-29.74-1.48c-11.95-0.65-23.91-1.12-35.86-1.81c-14.86-0.85-29.76-1.23-44.65-1.73
		c-13.28-0.45-26.55-1.14-39.82-1.73c-12.84-0.57-25.71-0.47-38.56-1.07c-8.17-0.38-16.36-0.46-24.53-0.63
		c-21.18-0.43-42.35-1.14-63.52-1.91c-16.21-0.59-32.44-0.4-48.66-0.71c-26.15-0.5-52.32-0.55-78.5,0.22
		c-16.65,0.49-33.26,1.58-49.89,2.29c-5.68,0.24-11.38,0.44-17.05,0.88c-9.59,0.75-19.18,1.63-28.76,2.5
		c-4.94,0.45-9.85,1.19-14.8,1.4c-5.85,0.25-11.56,1.67-17.38,1.94c-9.49,0.45-18.8,2.35-28.23,3.2
		c-8.13,0.73-16.21,1.91-24.29,3.07c-5.19,0.75-10.49,0.98-15.6,2.09c-8.14,1.76-16.43,2.48-24.62,3.78
		c-11.07,1.76-22.17,3.45-33.23,5.28c-8.33,1.37-16.63,3.04-24.96,4.39c-9.78,1.59-19.52,3.39-29.24,5.23
		c-13.59,2.58-27.18,5.19-40.74,7.92c-12.14,2.44-24.27,4.92-36.41,7.41c-2.13-0.36-4.03,1.2-6.17,0.75
		c-0.08-0.98-0.57-1.49-1.52-1.87c-4.17-1.63-8.21-3.6-12.45-5.01c-11.01-3.66-21.91-7.66-33-11.1
		c-13.16-4.09-26.34-8.11-39.64-11.68c-6.88-1.85-13.72-3.93-20.69-5.31c-13.95-2.77-27.81-5.93-41.82-8.41
		c-7.55-1.33-15.15-2.5-22.68-4.01c-5.82-1.17-11.72-2.15-17.63-2.52c-4.4-0.28-8.57-1.55-12.91-1.94
		c-5.78-0.52-11.59-0.78-17.32-1.77c-1.43-0.25-2.76-0.85-4.27-0.87c-7.42-0.08-14.77-1.15-22.15-1.58
		c-7.12-0.42-14.18-1.27-21.27-1.77c-8.42-0.59-16.91-0.82-25.32-0.82c-25.69-0.01-51.41-1.18-77.09,0.63
		c-5.82,0.41-11.73-0.32-17.53,0.21c-6.94,0.64-13.84,1.66-20.84,1.61c-0.87-0.01-1.78-0.04-2.62,0.16
		c-5.7,1.37-11.58,1.03-17.35,1.39c-7.12,0.44-14.07,2.09-21.24,2.24c-6.48,0.14-12.97,1.31-19.39,2.44
		c-3.73,0.65-7.52,1.07-11.22,1.29c-5.13,0.3-9.99,1.83-15.08,2.22c-5.05,0.39-10.24,0.8-15.06,2.06
		c-6.78,1.76-13.72,2.39-20.54,3.74c-12.22,2.42-24.51,4.52-36.71,7.13c-14.04,3-28.11,5.82-41.98,9.6
		c-8.96,2.44-18.02,4.56-27.01,6.94c-5.03,1.33-9.96,3.18-15.16,3.87c-6.03-13.6-11.19-27.54-16.41-41.46
		c-6.56-17.49-12.75-35.12-17.78-53.14c-3.14-11.25-5.73-22.61-6.71-34.27c-0.26-3.07,0.39-6.13,1.24-9.05
		c1.04-3.58,3.71-5.79,7.11-7.26c4.58-1.99,9.37-3.12,14.26-4.05c12.68-2.42,25.5-2.77,38.35-2.75c10.53,0.02,21.09-0.37,31.58,0.28
		c11.49,0.72,23.04,0.3,34.48,2.17c4.99,0.82,10.18,0.69,15.27,0.94c12.97,0.63,25.83,2.33,38.74,3.54
		c3.05,0.29,6.12,0.49,9.15,0.64c6.58,0.32,13.01,1.65,19.53,2.29c6.07,0.6,12.17,0.86,18.22,2.09c6.11,1.24,12.44,1.38,18.66,2.09
		c5.78,0.67,11.55,1.47,17.33,2.19c2.6,0.32,5.21,0.6,7.82,0.86c8.26,0.84,16.42,2.38,24.66,3.34c6.78,0.79,13.53,1.97,20.3,2.95
		c2.73,0.39,5.54,0.15,8.21,1.2c1.33,0.52,2.02-0.56,2.48-1.8c1.03-2.73,2.2-5.41,3.3-8.11c0.72-1.75,1.3-3.57,2.48-5.1
		c1.24,0.16,2.19,0.71,2.79,1.85c0.91,1.72,2.38,2.98,3.81,4.2c12.07,10.3,25.99,17.03,41.22,21.2c3.91,1.07,7.85,2.11,11.74,3.2
		c8.97,2.52,18.08,4.3,27.25,5.54c7.33,0.99,14.55,2.69,22.02,3.01c6.5,0.28,12.94,1.78,19.44,2.32c8.7,0.71,17.42,1.2,26.13,1.67
		c10.76,0.57,21.51,1.32,32.27,1.78c16.33,0.7,32.7,0.57,49.05,0.77c31.85,0.4,63.71,0.79,95.58-0.49
		c17.09-0.69,34.23-0.29,51.34-0.1c34.64,0.39,69.27-0.72,103.92,0.68c19.83,0.8,39.72,0.31,59.58,0.92
		c17.1,0.52,34.23,0.31,51.35,0.09c24.69-0.32,49.38,0.58,74.08-0.63c12.36-0.6,24.79-1.06,37.19-1.06c4.54,0,9.01-0.73,13.48-1.15
		c6.51-0.61,13.05-0.85,19.56-1.5c2.02-0.2,4.06-0.41,6.06-0.57c5.09-0.4,10.06-1.72,15.12-1.99c9.19-0.49,18.09-2.71,27.11-4.14
		c7.57-1.2,15.02-3.26,22.43-5.41c10.98-3.2,21.64-6.99,31.15-13.4c7.33-4.93,13.62-10.99,17.55-19.11
		C1314.76,398.91,1315.89,396.22,1317.08,393.56z"/>
	<path class="st0" d="M1317.08,393.56c-1.19,2.66-2.31,5.36-3.58,7.98c-3.93,8.12-10.22,14.18-17.55,19.11
		c-9.52,6.4-20.17,10.2-31.15,13.4c-7.41,2.16-14.86,4.21-22.43,5.41c-9.02,1.43-17.92,3.66-27.11,4.14
		c-5.05,0.27-10.03,1.59-15.12,1.99c-2,0.16-4.04,0.37-6.06,0.57c-6.51,0.65-13.04,0.88-19.56,1.5c-4.48,0.42-8.94,1.15-13.48,1.15
		c-12.4,0-24.83,0.46-37.19,1.06c-24.7,1.21-49.39,0.31-74.08,0.63c-17.11,0.22-34.25,0.44-51.35-0.09
		c-19.86-0.61-39.75-0.12-59.58-0.92c-34.64-1.41-69.28-0.29-103.92-0.68c-17.11-0.19-34.26-0.58-51.34,0.1
		c-31.86,1.28-63.73,0.9-95.58,0.49c-16.35-0.21-32.72-0.07-49.05-0.77c-10.76-0.46-21.51-1.21-32.27-1.78
		c-8.71-0.46-17.43-0.95-26.13-1.67c-6.5-0.53-12.94-2.03-19.44-2.32c-7.46-0.32-14.68-2.02-22.02-3.01
		c-9.18-1.24-18.29-3.02-27.25-5.54c-3.9-1.09-7.83-2.13-11.74-3.2c-15.23-4.18-29.15-10.91-41.22-21.2
		c-1.43-1.22-2.91-2.49-3.81-4.2c-0.61-1.15-1.55-1.7-2.79-1.85c0.44-3.26,2.17-6.05,3.5-8.93c8.33-18.01,17.63-35.51,27.77-52.58
		c10.98-18.46,23.27-36,36.15-53.14c4.28-5.7,8.96-11.13,13.68-16.49c8.1-9.21,16.21-18.43,25.13-26.87
		c16.76-15.86,34.46-30.55,53.76-43.26c10.15-6.69,21.03-12,32.43-15.98c8.36-2.92,16.81-5.72,25.45-7.88
		c8.18-2.05,16.35-4.17,24.59-5.94c14.21-3.05,28.53-5.54,42.9-7.79c8.46-1.32,17.01-2.16,25.44-3.82
		c6.11-1.21,12.43-1.38,18.65-2.04c7.52-0.8,15.03-1.65,22.55-2.43c4.49-0.47,9.03-0.75,13.51-0.9c11.66-0.4,23.24-1.88,34.92-2.26
		c9.19-0.3,18.42,0.01,27.57-0.72c17.24-1.38,34.49-0.72,51.72-0.51c9.33,0.12,18.72,0.05,28,0.88c7.56,0.68,15.16,0.18,22.68,1.45
		c11.75,1.99,23.72,2.08,35.52,4.16c8.87,1.57,17.84,2.73,26.62,4.76c11.92,2.75,23.69,5.93,34.9,11.09
		c13.01,5.99,25.39,13.11,37.46,20.7c13.19,8.3,25.84,17.42,38.07,27.1c13.03,10.32,25.54,21.23,37.86,32.39
		c16.12,14.61,31.33,30.12,46.33,45.83c10.37,10.86,20.37,22.11,30.12,33.53c15.79,18.5,31.27,37.28,45.67,56.91
		C1315.82,391.96,1316.45,392.75,1317.08,393.56z M511.55,401.77c1.99,0.73,3.76,0.43,5.49,0.43
		c163.07,0.02,326.15,0.01,489.22,0.01c1.02,0,2.05,0.03,3.07-0.01c2.93-0.11,3.39-0.59,2.96-3.35c-0.75-4.75-1.16-9.53-1.71-14.3
		c-0.42-3.62-0.61-7.25-1.05-10.87c-0.81-6.64-1.57-13.29-2.3-19.94c-0.72-6.51-1.36-13.03-2.06-19.54
		c-0.76-6.94-1.73-13.86-2.28-20.82c-0.54-6.68-1.64-13.29-2.09-19.99c-0.44-6.52-1.59-12.99-2.29-19.49
		c-0.73-6.8-1.22-13.63-1.96-20.43c-1.03-9.4-2.24-18.78-3.3-28.17c-0.95-8.39-1.82-16.78-2.66-25.18
		c-0.16-1.57-0.67-2.46-2.36-2.43c-4.53,0.09-9.02-0.5-13.53-0.7c-14.15-0.63-28.32-0.07-42.5-0.75
		c-10.9-0.52-21.87-0.32-32.84,0.36c-12.52,0.78-25.1,0.06-37.65,1.04c-7.27,0.57-14.57,0.3-21.87,0.72
		c-11.35,0.65-22.74,0.78-34.04,2.07c-5.09,0.58-10.19,0.59-15.27,1.04c-7.53,0.66-15.04,1.58-22.55,2.46
		c-6.21,0.73-12.43,1.41-18.61,2.38c-9.34,1.47-18.71,2.71-27.98,4.61c-8.13,1.66-16.26,3.3-24.28,5.41
		c-8.17,2.15-16.2,4.7-24.21,7.43c-6.78,2.31-13.35,5.04-19.72,8.21c-8.23,4.09-15.86,9.22-23.37,14.52
		c-12.28,8.68-23.82,18.26-34.74,28.59c-6.69,6.33-13.02,13.01-19.08,19.94c-4.03,4.6-8.16,9.15-11.86,14.02
		c-9.79,12.9-19.17,26.07-27.42,40.03c-7.75,13.1-14.73,26.57-20.75,40.53C514.29,393.44,512.23,397.19,511.55,401.77z
		 M1179.59,402.15c0,0.04,0,0.08,0,0.13c29.26,0,58.52,0.01,87.77-0.01c4.28,0,4.33-0.1,3.4-4.13c-2.14-9.31-7.21-17.23-12.4-24.96
		c-4.87-7.24-10.34-14.08-15.88-20.86c-8.6-10.52-17.84-20.43-27.22-30.21c-13.95-14.54-28.95-27.99-44.27-41.08
		c-8.98-7.68-18.19-15.06-27.56-22.24c-8.9-6.82-17.97-13.41-27.36-19.58c-8.17-5.36-16.49-10.45-24.91-15.41
		c-7.04-4.14-14.27-7.89-21.62-11.41c-5.51-2.64-11.15-5.07-16.89-7.15c-5.6-2.03-11.36-3.69-17.14-5.17
		c-5.78-1.49-11.69-2.37-17.71-2.39c-2.13-0.01-2.73,0.88-2.77,2.9c-0.04,2.53,0.72,4.9,1,7.36c0.87,7.66,1.95,15.3,2.97,22.94
		c1.04,7.79,2.1,15.57,3.15,23.36c1.01,7.5,2.03,15,3.05,22.49c1.02,7.5,2.07,14.99,3.05,22.49c1.01,7.79,1.91,15.61,2.94,23.4
		c1.03,7.79,2.19,15.56,3.24,23.34c0.99,7.36,1.85,14.73,2.85,22.09c1.36,10.09,2.83,20.17,4.18,30.26c0.4,3,0.29,3.07,3.47,3.13
		c16.51,0.28,33.01,0.19,49.53,0.55C1122.82,402.6,1151.21,402.15,1179.59,402.15z"/>
	<path d="M635.94,690.05c1.06-1.15,2.5-0.95,3.71-0.67c5.66,1.29,11.45,1.64,17.13,3.01c7.35,1.77,14.7,3.52,21.98,5.53
		c7.98,2.2,15.88,4.65,23.68,7.45c4.65,1.67,9.42,2.97,14.12,4.51c5.5,1.8,10.96,3.72,16.47,5.52c8.16,2.66,16.32,5.28,24.5,7.85
		c8.44,2.66,16.87,5.39,25.38,7.82c6.85,1.95,13.88,3.25,20.7,5.27c10.58,3.12,21.32,5.67,32.09,7.8
		c9.23,1.83,18.43,4.06,27.86,4.89c3.6,0.32,7.05,1.49,10.69,1.96c6.03,0.78,12.11,1.36,18.12,2.34c7.18,1.17,14.48,1.24,21.7,1.92
		c19.95,1.9,39.93,1.8,59.91,1.54c8.71-0.11,17.43-0.56,26.12-1.55c4.61-0.52,9.28-0.39,13.94-0.84c3.47-0.34,6.93-0.81,10.39-1.18
		c6.34-0.69,12.65-1.69,18.98-2.48c3.61-0.45,7.07-1.52,10.71-1.97c7.03-0.88,14-2.4,20.94-3.88c8.24-1.75,16.45-3.6,24.62-5.64
		c10.15-2.53,20.29-5.09,30.34-8c10.18-2.95,20.29-6.19,30.33-9.58c8.95-3.02,17.93-6.03,26.61-9.73
		c11.61-4.96,23.4-9.47,34.83-14.87c8.39-3.96,16.71-8.07,25.09-12.03c13.2-6.23,25.49-14.04,38.21-21.11
		c4.56-2.54,8.81-5.65,13.1-8.64c6.2-4.32,12.43-8.63,18.44-13.22c4.97-3.79,9.67-7.93,14.43-11.99
		c9.2-7.83,18.34-15.71,27.84-23.19c7.33-5.77,14.93-11.12,22.86-16.01c5.7-3.51,11.79-6.25,17.95-8.88
		c11.15-4.75,22.84-5.64,34.7-5c4.17,0.23,8.37,1.08,12.43,2.11c8.19,2.07,15.92,5.43,23.51,9.09c1.44,0.69,2.78,1.58,3.85,2.81
		c-2.24,1.02-4.58,1.88-6.7,3.1c-4.22,2.44-9.21,3.56-12.65,7.33l0.02-0.01c-0.87-0.16-1.49,0.12-1.81,0.98
		c-7.86,4.07-14.32,9.98-20.59,16.07c-12.76,12.4-22.86,26.83-31.76,42.15c-9.47,16.31-17.31,33.42-24.62,50.77
		c-5.49,13.03-10.74,26.17-16.09,39.26c-1.86,2.98-2.83,6.37-4.32,9.52c-7.38,15.55-14.14,31.5-27.91,42.9
		c-6.72,4.31-14.2,4.59-21.9,4.59c-194.38-0.07-388.75-0.05-583.13-0.07c-7.09,0-5.77,1.12-8.8-5.88c-0.58-1.34-1.19-2.67-1.79-4
		c-6.09-14.58-13.39-28.56-21.17-42.29c-2.94-5.19-5.68-10.55-9.44-15.24c-4.18-7.44-9.29-14.24-14.54-20.94
		c-1.75-2.23-3.15-4.8-5.71-6.31l0.1,0.1c-0.25-0.29-0.5-0.59-0.75-0.88c-0.42-0.92-0.87-1.8-1.58-2.56
		C652.16,702.15,644.77,695.26,635.94,690.05z"/>
	<path d="M159.98,546.27c5.2-0.68,10.13-2.53,15.16-3.87c8.99-2.38,18.05-4.5,27.01-6.94c13.87-3.78,27.94-6.6,41.98-9.6
		c12.2-2.61,24.49-4.71,36.71-7.13c6.82-1.35,13.75-1.98,20.54-3.74c4.82-1.25,10.01-1.67,15.06-2.06
		c5.08-0.39,9.95-1.92,15.08-2.22c3.7-0.22,7.49-0.63,11.22-1.29c6.42-1.12,12.91-2.3,19.39-2.44c7.17-0.15,14.11-1.8,21.24-2.24
		c5.76-0.36,11.64-0.01,17.35-1.39c0.84-0.2,1.74-0.16,2.62-0.16c7,0.05,13.9-0.97,20.84-1.61c5.8-0.53,11.71,0.2,17.53-0.21
		c25.69-1.81,51.4-0.64,77.09-0.63c8.41,0,16.9,0.23,25.32,0.82c7.09,0.5,14.15,1.35,21.27,1.77c7.38,0.44,14.74,1.5,22.15,1.58
		c1.51,0.02,2.84,0.62,4.27,0.87c5.73,1,11.54,1.25,17.32,1.77c4.34,0.39,8.52,1.66,12.91,1.94c5.91,0.37,11.82,1.35,17.63,2.52
		c7.53,1.51,15.14,2.67,22.68,4.01c14.01,2.48,27.88,5.64,41.82,8.41c6.97,1.38,13.81,3.47,20.69,5.31
		c13.31,3.57,26.48,7.59,39.64,11.68c11.09,3.45,21.99,7.44,33,11.1c4.24,1.41,8.28,3.38,12.45,5.01c0.95,0.37,1.45,0.89,1.52,1.87
		c-11.48,3.3-23.32,5.04-34.91,7.84c-8.06,1.95-16.26,3.33-24.37,5.07c-7.55,1.62-15.05,3.43-22.59,5.09
		c-3.55,0.78-7.16,1.35-10.71,2.14c-6.4,1.41-12.73,3.16-19.17,4.3c-8.03,1.43-15.93,3.48-23.95,4.99
		c-10.86,2.04-21.53,5.15-32.38,7.26c-12.15,2.36-24.19,5.21-36.33,7.62c-9.57,1.9-19.1,4.02-28.65,5.98
		c-8.27,1.7-16.57,3.31-24.85,4.95c-7.57,1.5-15.13,3-22.7,4.49c-4.57,0.9-9.15,1.79-13.73,2.65c-7.73,1.45-15.45,2.93-23.2,4.27
		c-9.61,1.66-19.28,3-28.86,4.84c-9.73,1.87-19.53,3.27-29.3,4.8c-9.64,1.51-19.33,2.69-28.98,4.06c-4.32,0.62-8.61,1.72-12.95,1.96
		c-8.75,0.48-17.35,2.17-26.05,3.02c-3.77,0.37-7.56,0.63-11.33,0.94c-7.84,0.64-15.6,2.03-23.47,2.45
		c-5.24,0.28-10.48,0.68-15.72,0.98c-10.04,0.58-20.04,1.84-30.08,2.26c-14.16,0.59-28.33,0.63-42.5,0.99
		c-13.01,0.33-25.99-0.52-38.99-0.67c-4.12-9.1-8.21-18.22-12.4-27.29c-0.89-1.93-1.25-4.23-3.24-5.53
		c-0.37-4.19-2.65-7.69-4.27-11.38c-8.2-18.68-16.17-37.45-23.98-56.29C161.12,549.58,160.58,547.91,159.98,546.27z"/>
	<path class="st1" d="M1360.01,750.67c5.35-13.09,10.6-26.23,16.09-39.26c7.31-17.36,15.15-34.46,24.62-50.77
		c8.9-15.32,19-29.75,31.76-42.15c6.27-6.09,12.72-12,20.59-16.07c0.83,0.08,1.53-0.06,1.8-0.98c0,0-0.02,0.01-0.02,0.01
		c1.05,0.21,2.01-0.12,3-0.41c8.84-2.64,17.87-4.27,27.08-4.63c15.29-0.6,30.16,1.42,44.66,6.68c13.32,4.84,25.44,11.68,36.32,20.6
		c19.84,16.25,34.11,36.65,43.55,60.41c9.96,25.09,13.95,51.1,11.47,78.05c-0.24,2.6-0.56,5.23-0.13,7.86
		c-1.85,3.6-1.67,7.64-2.45,11.47c-5.31,26.36-15.93,50.21-33.08,71.02c-12.19,14.8-26.7,26.72-44.07,35.08
		c-9.77,4.7-19.94,7.86-30.61,9.95c-10.18,2-20.35,2.1-30.52,1.3c-11.05-0.87-21.79-3.58-32.09-7.87
		c-37.33-15.53-61.29-43.75-76.39-80.39c-0.28-0.67-0.63-1.31-0.94-1.97c-0.07-0.43-0.07-0.88-0.21-1.28
		C1363.73,789.04,1360.14,770.18,1360.01,750.67z M1490.68,879.92c10.79,0.18,21.13-2.01,31.4-5.16c8.89-2.73,17.1-6.8,24.74-11.86
		c19.68-13.04,34.2-30.67,44.12-52.02c13.26-28.56,17.08-58.46,11.5-89.4c-6.44-35.76-23.1-65.4-53.05-86.93
		c-11.67-8.39-24.58-14.12-38.53-16.86c-15.02-2.96-30.14-2.72-45.18,1.25c-13.62,3.59-25.97,9.63-37.09,18.02
		c-15.23,11.51-27.13,26.01-35.73,43.07c-17.24,34.21-20.8,70.03-10.95,106.9c8.91,33.39,27.11,60.42,57.21,78.57
		C1454.97,875.06,1472.2,879.74,1490.68,879.92z"/>
	<path class="st2" d="M221.78,687.47c2.71,1.64,5.76,1.09,8.54,0.78c4.76-0.53,7.02,1.24,9.1,5.61
		c10.56,22.2,21.55,44.18,32.44,66.22c0.82,1.66,1.25,3.62,2.97,4.74c0.76,4.56,3.65,8.21,5.32,12.38c0.26,0.65,0.9,1.18,0.58,2.11
		c-1.06,0.9-2.41,0.51-3.65,0.51c-35.49,0.01-70.98-0.01-106.47-0.04c-4.09,0-4.12-0.02-5.07-3.73c-3.25-12.7-6.31-25.46-9.78-38.1
		c-1.35-4.92,0.02-9.53,0.45-14.25c0.16-1.74,0.48-3.45,0.24-5.2c1.95-2.12,0.8-4.77,1.18-7.15c0.94-5.88,1.8-11.77,2.48-17.68
		c0.6-5.22,0.53-5.31,5.76-5.31c16.97,0,33.94,0.03,50.91,0C218.46,688.34,220.32,688.93,221.78,687.47z"/>
	<path class="st1" d="M661.31,712.97c2.56,1.5,3.96,4.08,5.71,6.31c5.25,6.7,10.35,13.5,14.54,20.94c-0.01,2.48-0.05,4.97-0.03,7.45
		c0.13,13.35-1.51,26.51-4.52,39.48c-1.41,6.1-3.34,12.08-5.03,18.11c-3.52,8.48-7,16.97-11.51,25
		c-12.09,21.52-28.3,39.16-49.41,52.01c-8.19,4.99-16.97,8.83-26.23,11.76c-14.58,4.61-29.41,6.17-44.51,4.86
		c-11.34-0.99-22.33-3.74-32.93-8.12c-10.17-4.2-19.53-9.62-28.31-16.21c-10.59-7.94-19.67-17.33-27.55-27.9
		c-11.64-15.6-19.84-32.91-25.2-51.59c-0.37-1.28-0.81-2.49-1.38-3.67c-1.55-9.62-3.8-19.12-4.48-28.9
		c-0.86-12.43-0.82-24.8,0.85-37.15c0.7-5.2,1.58-10.38,2.37-15.56c6.09-2.45,12.53-3.45,18.94-4.57
		c-7.52,26.43-8.32,53.07-1.39,79.67c8.91,34.19,27.05,61.96,57.81,80.65c12.69,7.71,26.47,12.27,41.07,13.88
		c17.57,1.94,34.54-0.92,50.85-8.05c14.83-6.48,27.67-15.7,38.22-27.77c28.91-33.07,39.11-71.9,34.36-115.12
		C662.99,723.27,661.31,718.24,661.31,712.97z"/>
	<path class="st3" d="M1630.95,655.05c46.29-0.01,92.59-0.02,138.89-0.02c1.46,0.02,2.93,0.18,4.37,0.02
		c2.46-0.26,3.69,0.57,4.11,3.15c0.9,5.43,2.05,10.81,3.14,16.2c1.06,5.24,1.64,10.59,3.48,15.66c0.33,6.06,2.13,11.85,3.1,17.8
		c0.09,0.56,0.13,1.13,0.2,1.7c-2.04-0.02-4.09-0.07-6.13-0.07c-47.33-0.01-94.66-0.01-141.98-0.02c-2-9.25-4.14-18.47-7.02-27.49
		c-2.57-8.07-5.88-15.84-9.71-23.39c-1.44-2.84-1.16-3.28,1.87-3.42C1627.16,655.09,1629.05,655.09,1630.95,655.05z"/>
	<path class="st3" d="M1788.41,725.24c-2.93,15.43-5.86,30.87-8.79,46.3c-0.14,0.71-0.32,1.42-0.45,2.13
		c-1.36,7.38-0.76,6.1-7.79,6.11c-39.71,0.05-79.43,0.02-119.14,0.02c-1.02,0-2.04,0.01-3.07,0c-3.79-0.07-3.81-0.07-3.82-3.95
		c-0.01-4.82,0.02-9.63,0.04-14.45c-0.24-7.85-0.89-15.67-1.51-23.5c-0.33-4.2-1.41-8.34-1.05-12.59c31.28,0,62.56,0,93.84-0.01
		C1753.91,725.3,1771.16,725.26,1788.41,725.24z"/>
	<path class="st4" d="M1642.83,725.31c-0.35,4.25,0.72,8.4,1.05,12.59c0.62,7.83,1.27,15.65,1.51,23.5
		c-7.84,1.77-15.31,4.61-22.56,8.05c-0.67,0.32-1.26,0.73-2.04,0.56c-0.43-2.63-0.11-5.26,0.13-7.86
		c2.48-26.95-1.51-52.96-11.47-78.05c-9.44-23.77-23.71-44.16-43.55-60.41c-10.88-8.92-23-15.76-36.32-20.6
		c-14.5-5.26-29.37-7.28-44.66-6.68c-9.21,0.36-18.24,1.99-27.08,4.63c-0.99,0.29-1.95,0.62-3,0.41c3.44-3.77,8.43-4.89,12.65-7.33
		c2.12-1.23,4.46-2.08,6.7-3.1c5.16-0.94,10.01-2.97,15.15-4.1c16.2-3.58,32.44-3.51,48.73-1.29c8.23,1.12,16.39,2.74,24.26,5.49
		c9.8,3.42,19.16,7.83,27.71,13.75c17.16,11.89,29.87,27.61,39.22,46.16c0.65,1.3,1.13,2.68,1.69,4.03
		c-1.9,0.04-3.79,0.04-5.69,0.12c-3.03,0.13-3.31,0.58-1.87,3.42c3.83,7.55,7.14,15.32,9.71,23.39c2.87,9.03,5.01,18.24,7.02,27.49
		c0.45,3.22,0.71,6.48,1.41,9.65C1641.98,721.18,1641.4,723.47,1642.83,725.31z"/>
	<path class="st0" d="M1731.58,526.08c3.11-5.21,5.92-10.61,9.59-15.47c4.48-5.93,9.82-11.02,15.52-15.75
		c2.2-1.83,3.92-4.36,7.01-4.94c5.56,2.79,9.03,7.7,12.53,12.52c8.32,11.45,12.91,24.47,14.69,38.32
		c2.24,17.44,0.2,34.47-7.03,50.73c-4.02,9.04-9.51,16.97-16.64,23.8c-1.59,1.52-3.43,2.68-5.26,3.87
		c-0.88-0.04-1.72-0.16-2.48-0.71c-17.39-12.43-28.23-28.91-31.73-50.2c-1.27-7.72-0.35-15.43-0.89-23.12
		C1727.42,538.52,1729.33,532.26,1731.58,526.08z"/>
	<path class="st5" d="M221.75,687.47c-1.46,1.46-3.32,0.88-5.01,0.88c-16.97,0.04-33.94,0.02-50.91,0.03
		c-5.23,0-5.16,0.09-5.76,5.31c-0.68,5.91-1.54,11.81-2.47,17.69c-0.38,2.38,0.77,5.03-1.18,7.15c-4.37-0.2-8.79,0.46-13.1-0.49
		c-9.55-2.09-15.51-8.22-18.73-17.21c-3.57-9.99-2.49-19.61,3.2-28.47c4.22-6.56,10.29-10.6,18.32-11.16c21.05,0,42.1,0,63.15,0
		c1.11,0.52,0.69,2.06,1.73,2.62c0.96,2.93,1.99,5.82,4.34,8c0.79,4.67,3.88,8.4,5.3,12.81
		C220.95,685.6,221.38,686.52,221.75,687.47z"/>
	<path class="st5" d="M1784.94,690.06c-1.84-5.07-2.42-10.42-3.48-15.66c-1.09-5.39-2.25-10.78-3.14-16.2
		c-0.43-2.58-1.65-3.41-4.11-3.15c-1.44,0.15-2.91,0-4.37-0.02c-0.11-9.1,0.47-18.2-0.37-27.31c-0.26-2.83-0.81-4.66-3.57-5.57
		c-0.46-0.15-0.76-0.83-1.13-1.26c11.84-0.04,23.7-0.36,35.53-0.01c7.94,0.23,14.54,4.07,19.72,10.06
		c12.48,14.44,11.47,37.7-2.15,51.08c-5.35,5.26-11.87,7.81-19.32,7.99C1794.01,690.13,1789.48,690.05,1784.94,690.06z"/>
	<path class="st4" d="M423.7,709.79c-0.8,5.19-1.67,10.36-2.37,15.56c-1.67,12.35-1.71,24.72-0.85,37.15
		c0.68,9.78,2.93,19.28,4.48,28.9c-4.5-0.85-8.41-3.24-12.45-5.16c-7.33-3.48-14.55-7.21-21.61-11.25
		c-8.84-5.06-17.38-10.52-25.51-16.65c-0.22-0.67-0.74-1.27-0.39-2.05c5.04-11.14,10.22-22.18,18.68-31.3
		c2.82-3.04,5.91-5.67,9.88-6.93C403.5,714.92,413.39,711.6,423.7,709.79z"/>
	<path class="st0" d="M1642.83,725.31c-1.42-1.84-0.85-4.13-1.3-6.19c-0.69-3.17-0.96-6.43-1.41-9.65
		c47.33,0,94.66,0.01,141.98,0.02c2.04,0,4.09,0.05,6.13,0.07c1.89,5.21,2.09,10.43,0.17,15.68c-17.25,0.02-34.5,0.06-51.74,0.07
		C1705.39,725.32,1674.11,725.31,1642.83,725.31z"/>
	<path class="st4" d="M209.27,661.2c-21.05,0-42.1,0-63.15,0c-1.61-5.31-3.15-10.63-2.56-16.3c0.79-7.64,3.39-14.38,9.16-19.76
		c4.26-3.97,9.13-6.16,14.96-6.18c7.45-0.03,14.91-0.07,22.36-0.1c1.99,1.31,2.35,3.6,3.24,5.53c4.19,9.07,8.28,18.19,12.4,27.29
		C205.91,655.22,208.78,657.76,209.27,661.2z"/>
	<path class="st4" d="M671.98,805.25c1.69-6.03,3.61-12.01,5.03-18.11c3.01-12.97,4.65-26.13,4.52-39.48
		c-0.02-2.48,0.02-4.97,0.03-7.45c3.77,4.7,6.5,10.05,9.44,15.24c7.78,13.73,15.09,27.71,21.17,42.29
		c-11.56,2.13-23.11,4.26-34.67,6.4C675.66,804.49,673.82,804.88,671.98,805.25z"/>
	<path class="st4" d="M1360.01,750.67c0.13,19.5,3.71,38.37,10.44,56.65c0.15,0.4,0.14,0.85,0.21,1.28
		c-14.29-1.84-28.59-3.67-42.88-5.51c13.77-11.4,20.53-27.35,27.91-42.9C1357.19,757.05,1358.15,753.66,1360.01,750.67z"/>
	<path class="st0" d="M215.34,671.82c-2.35-2.17-3.38-5.07-4.34-8c1.28-0.29,2.57-0.88,3.82-0.81c7.31,0.38,14.56-1.06,21.83-0.87
		c11.11,0.28,22.14-1.52,33.24-0.96c0.29,0.01,0.59,0.01,0.88-0.03c7.35-1.07,14.73-1.73,22.16-1.72c0.58,0,1.2,0.08,1.75-0.07
		c6.27-1.68,12.77-0.29,19.11-1.57c3.65-0.73,7.5-0.18,11.3-0.78c2.83-0.44,5.72-1.21,8.63-1.07c5.56,0.27,11.02-0.88,16.55-1.14
		c3.72-0.17,7.56-0.25,11.28-0.93c4-0.73,7.99-1.34,12.08-1.56c4.05-0.22,8.21-0.27,12.14-1.07c8-1.62,16.11-2.28,24.17-3.03
		c5.37-0.5,10.51-2.15,15.97-2.27c2.66-0.06,5.5-0.28,8.22-0.73c6.72-1.11,13.44-2.23,20.17-3.3c7.16-1.13,14.31-2.35,21.5-3.25
		c3.49-0.44,6.81-1.62,10.26-2c10.69-1.18,21.15-3.64,31.7-5.59c6.97-1.29,13.9-2.76,20.85-4.17c8.81-1.8,17.65-3.46,26.38-5.67
		c6.04-1.53,12.21-2.64,18.33-3.75c8.43-1.52,16.81-3.28,25.14-5.13c7.08-1.57,14.23-2.8,21.29-4.52c6.73-1.64,13.6-2.91,20.43-4.26
		c9.11-1.8,18.16-3.92,27.3-5.59c7.71-1.41,15.37-3.12,22.98-4.89c7.21-1.67,14.52-2.84,21.72-4.59c6.6-1.6,13.32-2.87,20-4.19
		c9.11-1.8,18.13-4.06,27.26-5.74c7.42-1.36,14.74-3.22,22.14-4.68c9.53-1.88,19-4.07,28.53-5.98c2.55-0.51,5.51-0.3,7.73-2.33
		c-1.97-2.78-5.02-3.06-7.69-4.05c-1.42-0.52-2.85-0.9-2.51-2.89c12.13-2.49,24.26-4.97,36.41-7.41
		c13.56-2.72,27.15-5.34,40.74-7.92c9.72-1.84,19.46-3.64,29.24-5.23c8.33-1.36,16.63-3.02,24.96-4.39
		c11.07-1.82,22.16-3.52,33.23-5.28c8.19-1.3,16.48-2.02,24.62-3.78c5.11-1.11,10.4-1.34,15.6-2.09c8.08-1.16,16.15-2.34,24.29-3.07
		c9.44-0.85,18.74-2.75,28.23-3.2c5.82-0.28,11.53-1.69,17.38-1.94c4.94-0.21,9.86-0.96,14.8-1.4c9.58-0.86,19.17-1.75,28.76-2.5
		c5.67-0.44,11.38-0.64,17.05-0.88c16.63-0.71,33.24-1.8,49.89-2.29c26.18-0.77,52.34-0.72,78.5-0.22
		c16.22,0.31,32.45,0.12,48.66,0.71c21.17,0.77,42.34,1.48,63.52,1.91c8.17,0.17,16.36,0.25,24.53,0.63
		c12.85,0.6,25.72,0.5,38.56,1.07c13.27,0.59,26.54,1.28,39.82,1.73c14.88,0.5,29.78,0.88,44.65,1.73
		c11.95,0.68,23.91,1.16,35.86,1.81c9.91,0.54,19.85,0.52,29.74,1.48c12.21,1.18,24.47,1.46,36.73,1.92
		c14.73,0.55,29.4,2.07,44.13,2.7c9.76,0.42,19.53,1.05,29.28,1.76c4.91,0.36,9.94,0.26,14.77,1.59
		c-2.25,6.18-4.17,12.44-4.69,19.05c-5.58,0.65-11.07-0.52-16.59-1c-2.02-0.18-4.05-0.43-6.09-0.53
		c-12.4-0.63-24.81-0.96-37.18-1.99c-9.17-0.76-18.34-1.28-27.52-1.75c-11.67-0.6-23.35-0.95-34.99-1.76
		c-10.93-0.76-21.86-1.2-32.79-1.81c-11.08-0.62-22.18-0.65-33.26-1.52c-15.88-1.25-31.81-1.36-47.71-1.99
		c-8.18-0.33-16.38-0.16-24.52-0.81c-16.18-1.29-32.41-1.17-48.6-1.85c-11.26-0.47-22.52-0.09-33.74-0.81
		c-12.42-0.79-24.87-0.1-37.25-0.93c-9.35-0.62-18.71-0.27-28.04-0.83c-18.41-1.1-36.84-0.53-55.26-0.75
		c-5.85-0.07-11.67-0.85-17.51-0.63c-17.53,0.66-35.09,0.25-52.62,0.95c-16.04,0.64-32.06,1.78-48.1,2.59
		c-10.77,0.54-21.54,1.48-32.27,2.61c-10,1.06-20.05,1.46-30.02,3.06c-6.59,1.06-13.39,0.92-20.01,2.03
		c-7.78,1.3-15.64,1.82-23.46,2.67c-4.79,0.52-9.48,1.58-14.27,2.14c-9.99,1.15-19.99,2.33-29.87,4.14
		c-9.9,1.81-19.94,2.6-29.78,4.78c-3.98,0.88-8.07,1.23-12.09,1.91c-9.34,1.57-18.65,3.28-28,4.77c-9.93,1.58-19.81,3.47-29.69,5.3
		c-7,1.3-14.03,2.59-21.01,4.14c-8.53,1.89-17.19,3.22-25.76,4.96c-13.99,2.83-27.92,5.98-41.95,8.62
		c-12.6,2.37-25.08,5.31-37.65,7.85c-13.41,2.71-26.76,5.84-40.14,8.74c-16.37,3.54-32.77,6.99-49.14,10.55
		c-11.39,2.48-22.74,5.15-34.13,7.64c-8.12,1.77-16.28,3.36-24.4,5.08c-6.98,1.48-13.92,3.13-20.92,4.55
		c-9.14,1.86-18.36,3.37-27.46,5.4c-9.1,2.02-18.2,4.05-27.38,5.65c-12.06,2.1-24.03,4.62-36.08,6.79
		c-13.05,2.35-26.13,4.48-39.16,6.92c-9.17,1.72-18.38,3.24-27.58,4.64c-11.52,1.75-23.08,3.35-34.61,5
		c-9.95,1.42-20,2.1-29.91,3.94c-6.14,1.14-12.47,1.32-18.71,1.94c-7.97,0.8-15.94,1.69-23.92,2.4c-5.09,0.45-10.19,0.64-15.29,1.03
		c-13.68,1.03-27.37,1.8-41.07,2.56c-4.52,0.25-9.07,0.18-13.6,0.2C248.98,671.75,232.16,671.78,215.34,671.82z"/>
	<path class="st6" d="M661.31,712.97c0,5.27,1.68,10.3,2.25,15.5c4.75,43.22-5.46,82.05-34.36,115.12
		c-10.55,12.07-23.39,21.29-38.22,27.77c-16.31,7.13-33.28,9.99-50.85,8.05c-14.59-1.61-28.38-6.17-41.07-13.88
		c-30.76-18.69-48.9-46.46-57.81-80.65c-6.93-26.59-6.13-53.23,1.39-79.67c1.35-1.34,3.23-1.44,4.87-1.62
		c6.66-0.73,13.02-2.86,19.52-4.26c7.93-1.71,15.99-2.74,23.87-4.72c-0.1,0.27-0.15,0.57-0.3,0.81
		c-11.99,18.94-16.72,39.61-14.6,61.87c2.13,22.26,10.57,41.66,26.64,57.45c11.73,11.52,25.9,18.23,42.21,19.97
		c12.33,1.31,24.17-1.23,35.23-6.7c12.38-6.13,22.39-15.16,29.92-26.76c16.21-24.98,19.66-51.97,12.14-80.53
		c-3.74-14.23-11.03-26.57-20.75-37.53c9.97-0.42,19.67,0.87,29.12,4.18c1.95,0.68,3.53,1.96,5.42,2.68
		c8.83,5.2,16.23,12.09,23.14,19.56c0.71,0.77,1.16,1.64,1.58,2.57c0.14,0.39-0.16,1.15,0.75,0.88L661.31,712.97z"/>
	<path class="st1" d="M601.39,683.2c9.73,10.96,17.01,23.3,20.75,37.53c7.51,28.56,4.06,55.55-12.14,80.53
		c-7.53,11.6-17.54,20.63-29.92,26.76c-11.05,5.47-22.9,8.01-35.23,6.7c-16.31-1.74-30.48-8.44-42.21-19.97
		c-16.07-15.79-24.52-35.19-26.64-57.45c-2.12-22.25,2.6-42.93,14.6-61.87c0.15-0.24,0.2-0.54,0.3-0.81
		c9.39-1.38,18.68-3.32,28.07-4.79c17.33-2.71,34.68-5.13,52.2-6.22C581.22,682.97,591.3,682.34,601.39,683.2z M602.11,748.16
		c-0.07-20.89-9.08-41.61-27.35-52.98c-9.52-5.93-20-8.41-31.02-6.52c-13.01,2.24-23.59,9.07-31.54,19.62
		c-16.95,22.52-17.34,54.37-1.09,77.48c6.95,9.88,16.13,17.14,27.82,19.98c18.04,4.38,33.81-0.54,46.55-14.18
		C597.01,779.21,601.93,764.26,602.11,748.16z"/>
	<path class="st0" d="M817.65,558.65c-0.34,1.99,1.09,2.37,2.51,2.89c2.67,0.99,5.72,1.27,7.69,4.05c-2.22,2.03-5.18,1.82-7.73,2.33
		c-9.53,1.9-19,4.1-28.53,5.98c-7.4,1.46-14.71,3.31-22.14,4.68c-9.13,1.68-18.15,3.94-27.26,5.74c-6.69,1.32-13.41,2.59-20,4.19
		c-7.2,1.75-14.51,2.92-21.72,4.59c-7.61,1.77-15.27,3.48-22.98,4.89c-9.13,1.67-18.18,3.79-27.3,5.59
		c-6.83,1.35-13.7,2.63-20.43,4.26c-7.06,1.72-14.22,2.94-21.29,4.52c-8.33,1.85-16.72,3.61-25.14,5.13
		c-6.12,1.1-12.29,2.22-18.33,3.75c-8.73,2.21-17.56,3.87-26.38,5.67c-6.94,1.42-13.88,2.88-20.85,4.17
		c-10.55,1.95-21.01,4.41-31.7,5.59c-3.45,0.38-6.77,1.56-10.26,2c-7.19,0.9-14.34,2.11-21.5,3.25c-6.73,1.07-13.45,2.19-20.17,3.3
		c-2.72,0.45-5.56,0.68-8.22,0.73c-5.46,0.11-10.6,1.77-15.97,2.27c-8.06,0.75-16.17,1.41-24.17,3.03
		c-3.93,0.79-8.09,0.85-12.14,1.07c-4.09,0.22-8.08,0.83-12.08,1.56c-3.72,0.68-7.56,0.76-11.28,0.93
		c-5.53,0.26-10.99,1.4-16.55,1.14c-2.92-0.14-5.8,0.63-8.63,1.07c-3.8,0.59-7.65,0.04-11.3,0.78c-6.34,1.27-12.85-0.11-19.11,1.57
		c-0.55,0.15-1.16,0.07-1.75,0.07c-7.43-0.01-14.81,0.65-22.16,1.72c-0.29,0.04-0.59,0.05-0.88,0.03
		c-11.1-0.56-22.13,1.25-33.24,0.96c-7.27-0.19-14.52,1.26-21.83,0.87c-1.26-0.07-2.55,0.52-3.82,0.81
		c-1.05-0.57-0.62-2.1-1.73-2.62c-0.49-3.43-3.35-5.97-3.58-9.51c13,0.15,25.98,1,38.99,0.67c14.17-0.36,28.35-0.4,42.5-0.99
		c10.04-0.42,20.04-1.68,30.08-2.26c5.24-0.3,10.48-0.7,15.72-0.98c7.87-0.42,15.63-1.81,23.47-2.45c3.77-0.31,7.56-0.57,11.33-0.94
		c8.7-0.86,17.3-2.54,26.05-3.02c4.34-0.24,8.63-1.35,12.95-1.96c9.66-1.37,19.35-2.55,28.98-4.06c9.78-1.53,19.58-2.94,29.3-4.8
		c9.58-1.84,19.25-3.17,28.86-4.84c7.75-1.34,15.47-2.83,23.2-4.27c4.58-0.86,9.15-1.75,13.73-2.65c7.57-1.49,15.13-2.99,22.7-4.49
		c8.29-1.64,16.58-3.26,24.85-4.95c9.56-1.96,19.08-4.08,28.65-5.98c12.14-2.41,24.18-5.26,36.33-7.62
		c10.85-2.1,21.51-5.22,32.38-7.26c8.02-1.5,15.91-3.56,23.95-4.99c6.44-1.14,12.77-2.89,19.17-4.3c3.55-0.78,7.16-1.35,10.71-2.14
		c7.54-1.66,15.05-3.47,22.59-5.09c8.11-1.75,16.31-3.12,24.37-5.07c11.6-2.8,23.43-4.54,34.91-7.84
		C813.62,559.85,815.52,558.3,817.65,558.65z"/>
	<path d="M511.55,401.77c0.68-4.58,2.74-8.33,4.4-12.18c6.02-13.96,13-27.43,20.75-40.53c8.26-13.96,17.64-27.14,27.42-40.03
		c3.69-4.87,7.82-9.41,11.86-14.02c6.07-6.92,12.39-13.61,19.08-19.94c10.92-10.33,22.46-19.91,34.74-28.59
		c7.51-5.3,15.14-10.44,23.37-14.52c6.37-3.16,12.94-5.9,19.72-8.21c8-2.73,16.04-5.28,24.21-7.43c8.03-2.11,16.15-3.75,24.28-5.41
		c9.27-1.9,18.65-3.14,27.98-4.61c6.17-0.97,12.4-1.65,18.61-2.38c7.51-0.88,15.02-1.8,22.55-2.46c5.08-0.44,10.18-0.46,15.27-1.04
		c11.31-1.29,22.69-1.42,34.04-2.07c7.3-0.42,14.6-0.16,21.87-0.72c12.55-0.98,25.13-0.27,37.65-1.04
		c10.97-0.68,21.94-0.88,32.84-0.36c14.18,0.68,28.34,0.12,42.5,0.75c4.51,0.2,9,0.79,13.53,0.7c1.69-0.03,2.2,0.86,2.36,2.43
		c0.83,8.4,1.71,16.79,2.66,25.18c1.06,9.39,2.27,18.77,3.3,28.17c0.75,6.8,1.23,13.63,1.96,20.43c0.7,6.51,1.85,12.97,2.29,19.49
		c0.45,6.7,1.55,13.3,2.09,19.99c0.56,6.96,1.53,13.88,2.28,20.82c0.71,6.51,1.35,13.03,2.06,19.54c0.73,6.65,1.49,13.3,2.3,19.94
		c0.44,3.61,0.63,7.25,1.05,10.87c0.55,4.77,0.96,9.55,1.71,14.3c0.44,2.76-0.02,3.24-2.96,3.35c-1.02,0.04-2.05,0.01-3.07,0.01
		c-163.07,0-326.15,0-489.22-0.01C515.31,402.2,513.54,402.5,511.55,401.77z"/>
	<path d="M1179.59,402.15c-28.38,0-56.77,0.45-85.14-0.17c-16.51-0.36-33.02-0.27-49.53-0.55c-3.17-0.05-3.07-0.12-3.47-3.13
		c-1.35-10.09-2.81-20.17-4.18-30.26c-0.99-7.36-1.86-14.73-2.85-22.09c-1.04-7.79-2.21-15.56-3.24-23.34
		c-1.03-7.79-1.92-15.6-2.94-23.4c-0.98-7.5-2.03-15-3.05-22.49c-1.02-7.5-2.04-14.99-3.05-22.49c-1.05-7.79-2.11-15.57-3.15-23.36
		c-1.02-7.64-2.1-15.28-2.97-22.94c-0.28-2.46-1.04-4.83-1-7.36c0.03-2.02,0.63-2.91,2.77-2.9c6.02,0.03,11.93,0.91,17.71,2.39
		c5.78,1.49,11.54,3.14,17.14,5.17c5.74,2.08,11.38,4.51,16.89,7.15c7.34,3.52,14.58,7.27,21.62,11.41
		c8.42,4.95,16.74,10.05,24.91,15.41c9.39,6.16,18.45,12.75,27.36,19.58c9.37,7.18,18.57,14.56,27.56,22.24
		c15.32,13.1,30.31,26.54,44.27,41.08c9.38,9.77,18.62,19.69,27.22,30.21c5.55,6.78,11.02,13.62,15.88,20.86
		c5.2,7.73,10.26,15.65,12.4,24.96c0.93,4.03,0.88,4.13-3.4,4.13c-29.26,0.01-58.52,0.01-87.77,0.01
		C1179.59,402.24,1179.59,402.19,1179.59,402.15z"/>
	<path class="st4" d="M1454.88,601.44c-0.28,0.92-0.98,1.06-1.8,0.98C1453.38,601.56,1454.01,601.28,1454.88,601.44z"/>
	<path class="st1" d="M661.41,713.06c-0.91,0.27-0.62-0.49-0.75-0.88C660.91,712.48,661.16,712.77,661.41,713.06z"/>
	<path class="st6" d="M1490.68,879.92c-18.47-0.18-35.7-4.86-51.56-14.42c-30.1-18.15-48.3-45.17-57.21-78.57
		c-9.84-36.88-6.29-72.69,10.95-106.9c8.6-17.05,20.49-31.56,35.73-43.07c11.12-8.4,23.47-14.43,37.09-18.02
		c15.04-3.97,30.16-4.21,45.18-1.25c13.95,2.75,26.86,8.47,38.53,16.86c29.95,21.53,46.61,51.17,53.05,86.93
		c5.57,30.94,1.76,60.84-11.5,89.4c-9.92,21.36-24.43,38.98-44.12,52.02c-7.64,5.06-15.85,9.13-24.74,11.86
		C1511.81,877.91,1501.47,880.1,1490.68,879.92z M1565.94,749.33c0.13-24.71-7.63-46.38-22.62-63.79
		c-9.98-11.59-22.45-19.64-37.32-23.06c-11.47-2.64-23.1-2.38-34.62,1.23c-14.88,4.66-26.74,13.42-36.22,25.48
		c-11.31,14.38-17.45,30.88-19.1,49.08c-2.22,24.54,3.47,46.97,18.14,66.88c8.86,12.03,20.31,21.02,34.41,25.91
		c11.4,3.95,23.14,5.11,35.35,2.42c15.44-3.41,28.12-11.04,38.53-22.56C1558.57,793.09,1565.61,771.75,1565.94,749.33z"/>
	<path class="st7" d="M602.11,748.16c-0.18,16.1-5.1,31.06-16.63,43.4c-12.74,13.64-28.51,18.56-46.55,14.18
		c-11.7-2.84-20.87-10.1-27.82-19.98c-16.25-23.11-15.87-54.96,1.09-77.48c7.95-10.55,18.53-17.38,31.54-19.62
		c11.02-1.9,21.5,0.59,31.02,6.52C593.03,706.55,602.04,727.27,602.11,748.16z"/>
	<path class="st1" d="M1565.94,749.33c-0.33,22.42-7.37,43.76-23.47,61.59c-10.41,11.52-23.09,19.15-38.53,22.56
		c-12.21,2.69-23.95,1.53-35.35-2.42c-14.09-4.89-25.55-13.88-34.41-25.91c-14.67-19.92-20.36-42.34-18.14-66.88
		c1.65-18.2,7.79-34.7,19.1-49.08c9.49-12.06,21.35-20.82,36.22-25.48c11.52-3.61,23.15-3.87,34.62-1.23
		c14.87,3.42,27.34,11.47,37.32,23.06C1558.31,702.95,1566.07,724.62,1565.94,749.33z M1542.16,744.49
		c-1.14-21.02-9.92-40.86-32.93-52.2c-8.09-3.99-16.83-5.24-25.61-3.61c-13.12,2.44-23.74,9.29-31.68,20.12
		c-16.65,22.72-16.96,54.15-0.69,77.1c6.98,9.84,16.16,17.08,27.89,19.88c17.88,4.26,33.54-0.57,46.2-14.02
		C1536.92,779.47,1541.97,764.56,1542.16,744.49z"/>
	<path class="st7" d="M1542.16,744.49c-0.2,20.06-5.24,34.98-16.81,47.27c-12.66,13.45-28.32,18.28-46.2,14.02
		c-11.73-2.79-20.91-10.04-27.89-19.88c-16.27-22.94-15.96-54.38,0.69-77.1c7.94-10.83,18.56-17.68,31.68-20.12
		c8.78-1.63,17.52-0.38,25.61,3.61C1532.24,703.64,1541.03,723.48,1542.16,744.49z"/>
</g>
</svg>
