<svg xmlns="http://www.w3.org/2000/svg" xml:space="preserve" id="nuage" x="0" y="0" style="enable-background:new 0 0 1920 1080" version="1.1" viewBox="0 0 1920 1080"><style>.st0{fill:#3e67a4}.st1{fill:#5d7dae}.st2{fill:#4e77b2}.st3{fill:#7e91b7}.st4{fill:#6684b5}</style><path d="M1918.51 274.7c.06-62 .16-123.99.19-185.99.04-99.99.04-199.99.06-299.98 2.07.9.93 2.7.94 4 .08 25 .06 50 .06 75.01v418.03c-.28.04-.56.07-.84.08-.14-3.72-.28-7.43-.41-11.15z" class="st0"/><path d="M1918.91 285.85c.28-.01.56-.04.84-.08v291.02l-.33-.16-.37.03c-.14-26.28-.27-52.56-.4-78.84-.01-16.97-.03-33.93-.04-50.9l-.03-77.26c-.01-8.97-.02-17.95-.04-26.92l-.03-11.03.09-25.94c.11-6.65.21-13.28.31-19.92zM110.87 648.73c3.88-1.64 7.56-1.19 11.47.34 7.93 3.11 16.1 3.13 24.32.96 2.39-.63 4.85-1.36 7.07.55-8.37 6.04-17.48 9.73-28 10.11-8.4.3-15.71 3.76-22.13 9.3-4.41 3.8-9.43 6.79-14.51 9.7-9.12 5.23-17.83 11.03-24.87 19.04-5.44 6.19-4.24 11.21 3.53 14.05 3.15 1.15 6.45 1.58 9.76 2.03 22.32 3.02 44.82 1.81 67.23 2.91 10.96.54 21.99-.26 32.95.32 21.29 1.13 42.58.64 63.87.64 2.79 0 5.62-.66 8.37-1.27 11.18-2.45 14.18-6.95 11.89-18.22-1.39-6.86-2.81-13.71-3.06-20.72-.24-6.81 1.1-7.89 7.82-8.75 19.32-2.45 38.61-5.11 57.9-7.73 1.27-.17 2.95.05 3.51-1.41.63-1.61-1.04-2.24-1.98-3.07-1.25-1.12-2.5-2.21-3.18-3.79 13.49 5.79 27.18 6.68 41.44 2.71 12.29-3.42 23.78-1.07 33.65 7.35 8.92 7.6 18.5 9.73 29.61 4.94a362.387 362.387 0 0 1 49.94-17.35c24.29-6.5 45.71.08 65.13 14.97 11.59 8.89 21.55 19.26 28.06 32.52 3.61 7.36 5.49 15.27 3.25 23.28-2.65 9.47.32 16.61 7.35 22.69 2.14 1.85 4.41 3.56 6.42 5.55 3.83 3.81 3.21 6.83-1.92 8.42-6.88 2.12-14.05 2.55-21.21 3.02-24.12 1.58-48.27.78-72.41.98-2.17.02-4.33.11-6.4.89-1.1.03-2.19.06-3.29.08-2.84-1.22-5.69-1.22-8.53-.01h-2.46c-1.18-.62-2.36-.62-3.55 0-1.81-.05-3.62-.11-5.43-.16-1.8-1.95-4.21-1.73-6.53-1.8-6.35-.2-12.64-.87-18.8-2.41-9.28-2.31-10.46-4.7-6.71-13.23 2.94-6.68 1.57-9.4-5.65-10.94-10.62-2.26-21.23-1.75-31.75.54-6.87 1.5-7.89 3.51-5.93 10.24 1.92 6.57.93 8.37-5.84 9.73-11.18 2.24-22.2.86-33.2-1.56-5.02-1.11-7.62-3.99-7.34-9.1.28-5.12-2.24-7.35-6.99-8.63-13.12-3.54-26.51-4.92-40-5.65-10.51-.57-20.97 1.05-31.45.93-26.48-.3-52.97.77-79.46-.79-18.28-1.07-36.63-.36-54.95-.84-21.3-.56-42.62-1.31-63.94-1.42-9.3-.05-18.68-.71-27.71-3.34-8.41-2.45-10.41-7.63-5.98-15.22 2.45-4.2 5.82-7.67 9.33-11.02 6.49-6.21 13.93-11.47 19.48-18.62 5.99-7.73 3.88-13.95-5.56-16.18-17.57-4.16-35.47-5.86-53.49-6.47l.03-7.93c2.32.06 4.67-.08 6.96.22 28.78 3.78 57.65 3.47 86.5 1.39 5.76-.41 12.08 1.12 17.37-2.77zm383.78 5.98c-1 0-2 .01-3 .01-2.77-1.19-5.57-.85-8.33-.08-17.85 4.98-35.3 10.88-51.07 21.01-14.88 9.56-21.99 8.79-35.21-2.89-6.27-5.54-12.71-11.31-21.8-10.85-12.49.63-24.82 2.68-36.84 6.23-3.82 1.13-6.43 3.61-6.84 7.74-.88 8.88-4.84 16.29-9.66 23.69-8.61 13.22-5.83 19.2 9.89 21.28 13.35 1.77 26.83 1.49 40.33 1.12 21.64-.59 43.31-.22 64.97-.12 5.66.03 11.34.52 16.83 1.97 6.83 1.8 8.02 5.03 4.4 10.97-1.21 1.99-2.64 3.86-3.78 5.88-3.58 6.34-1.6 11.07 5.54 12.73 3.39.78 6.9 1.05 10.38 1.38 20.94 2 41.94.8 62.92.93 7.8.05 15.66-.66 23.32-2.34 7.31-1.61 8.79-5.09 5.07-11.43-1.09-1.86-2.38-3.62-3.77-5.27-7.04-8.38-7.03-11.28 1.2-18.69 5.46-4.92 6.37-10.41 4.12-17.13-2.54-7.58-8.45-12.67-12.96-18.79-8.26-11.2-19.31-18.79-31.87-24.17-5.87-2.52-12.04-5.15-18.81-3.16-1 0-2-.01-3-.01-.66-.81-1.34-.81-2.03-.01z" class="st1"/><path d="M462.47 763.63c-16.78.68-33.3-.17-48.8-7.69-3.71-1.8-7.56-.97-11.23.23-21.17 6.96-42.42 4.44-63.68.62-6.31-1.13-11.15-3.94-13-10.75-1.11-4.08-4.63-6.04-8.52-6.92-7.8-1.76-15.6-3.39-23.69-3.36-26.49.09-52.99.49-79.47-.11-24.31-.55-48.63-.39-72.92-1.02-27.46-.72-54.91-1.36-82.37-2-11.27-.26-22.66-.77-33.65-3.99-8.09-2.37-10.09-6.41-5.85-13.74 4.24-7.34 7.34-15.28 12.51-22.16 5.14-6.84 3.34-11.87-4.41-15.33C18.64 673.5 9.31 673.3 0 672.9c0-5.03.01-10.05.01-15.08 18.02.61 35.91 2.31 53.49 6.47 9.44 2.23 11.55 8.45 5.56 16.18-5.55 7.16-12.99 12.41-19.48 18.62-3.51 3.36-6.88 6.83-9.33 11.02-4.44 7.59-2.44 12.77 5.98 15.22 9.03 2.63 18.41 3.29 27.71 3.34 21.32.11 42.64.86 63.94 1.42 18.33.48 36.68-.23 54.95.84 26.49 1.56 52.98.49 79.46.79 10.48.12 20.94-1.5 31.45-.93 13.49.73 26.88 2.11 40 5.65 4.74 1.28 7.27 3.5 6.99 8.63-.28 5.11 2.32 7.99 7.34 9.1 10.99 2.42 22.02 3.8 33.2 1.56 6.77-1.36 7.75-3.16 5.84-9.73-1.96-6.73-.94-8.74 5.93-10.24 10.52-2.3 21.14-2.81 31.75-.54 7.22 1.54 8.59 4.26 5.65 10.94-3.75 8.53-2.57 10.92 6.71 13.23 6.17 1.54 12.46 2.21 18.8 2.41 2.32.1 4.72-.12 6.52 1.83zm-53.64-22.54c-2.68.55-5.95.28-7.17 3.49-1.04 2.72.73 4.8 2.75 6.43 2.59 2.09 5.33 1.8 7.78-.2 2.21-1.8 6.24-3.03 5.08-6.54-1.18-3.56-5.42-2.33-8.44-3.18z" class="st2"/><path d="M.09 628.99c0-18.46.01-36.92.01-55.38 24.18 5.32 45.61 16.42 65.17 31.32 6.14 4.68 11.13 10.57 14.98 17.23 4.66 8.06 1.63 13.25-7.61 13.64-7.86.34-15.62-.77-23.4-1.56-16.39-1.67-32.76-3.49-49.15-5.25z" class="st3"/><path d="M.09 628.99c16.38 1.76 32.76 3.58 49.15 5.25 7.78.79 15.54 1.9 23.4 1.56 9.24-.39 12.27-5.59 7.61-13.64-3.86-6.67-8.84-12.55-14.98-17.23-19.56-14.9-40.99-26-65.17-31.32-.02-4.27-.05-8.54-.07-12.8 24.12 4.52 45.12 15.62 63.95 30.95 14.77 12.03 27.05 26.47 38.09 41.92 3.36 4.71 5.88 10.02 8.79 15.05-5.28 3.88-11.61 2.36-17.36 2.77-28.85 2.08-57.72 2.39-86.5-1.39-2.29-.3-4.64-.16-6.96-.22.02-6.96.04-13.93.05-20.9zM1117.72 511.85c2.37-11.44 13.99-18.4 25.08-14.76 4.25 1.39 8.35 3.35 12.37 5.33 7.91 3.89 15.85 4.35 24.19 1.35 9.43-3.39 17.58-8.01 23.79-16.43 6.32-8.57 15.84-11.11 26.31-9.88 3.31.39 6.59.96 9.9 1.29 7.79.79 14.06-1.66 19.64-7.53 11.71-12.31 23.74-12.45 36.38-1.18 3.85 3.43 7.75 6.83 11.47 10.4 6.39 6.15 14 9.03 22.76 8.22 12.63-1.18 23.64 2.62 33.64 10.05 3.34 2.48 6.7 4.95 10.14 7.29 10.39 7.09 19.5 5.56 27.91-3.78 8.32-9.26 15.07-19.46 20.44-30.62 4.43-9.21 11.81-14.42 21.84-15.32 12.51-1.12 23.45-5.55 33.43-13.15 6.8-5.18 14.44-4.11 21.82-.73 7.81 3.58 14.47 9.1 20.86 14.52 11.54 9.78 24.59 12.99 39.05 11.73 10.11-.88 20.21-2.14 30.01-5.1 8.55-2.58 15.05-7.62 19.39-15.45 3.07-5.54 6.41-10.92 10.6-15.72 9.75-11.13 22.93-14.59 36.8-15.42 22.39-1.33 43.25-6.99 62.55-18.6 15.11-9.08 30.94-11.5 47.77-4.25 8.01 3.45 16.81 4.37 25.47 4.47 8.72.1 16.71-2.97 23.52-8.51 5.16-4.2 10.17-8.61 15.13-13.05 2.5-2.24 5.19-4.14 8.06-5.86 7.99-4.76 19.94-4.72 27.37 3.58 13.05 14.55 20.4 30.62 14.08 50.18-3.39 10.48-11.32 18.42-18.76 26.21-14.45 15.13-31.07 27.49-49.31 37.85-22.83 12.97-46.55 23.82-71.68 31.4-24.45 7.37-49.46 12.13-74.78 15.39-15.03 1.94-30.04 4.02-45.16 5.24-15.93 1.28-31.85 2.95-47.84.74-15.9-2.19-31.57-.5-47.14 2.75-8.01 1.68-16.13 2.48-24.24 3.38-2.33-2.7-4.98-5.04-7.87-7.12 8.08-2.2 15.73-5.24 22.49-10.4 2.54-1.94 5.95-2.25 9.1-2.36 17.82-.61 35.62-.13 53.3 2.3 7.93 1.09 15.88 2.65 23.83 2.2 12.45-.71 24.85-2.38 37.28-3.66 28.3-2.92 55.75-9.44 82.3-19.68 2.01-.78 4.04-1.6 5.88-2.7 2.18-1.3 4.17-3.07 3.95-5.92-.22-2.94-2.65-4.06-5.01-4.98-4.95-1.93-10.05-1.95-15.26-1.26-8.21 1.08-16.3 1.04-23.79-3.31-5.79-3.36-6.75-6.96-3.42-12.76 1.77-3.07 3.87-5.83 6.73-7.95 9.41-6.96 15.63-16.75 22.74-25.72 1.87-2.35 2.58-5.37 2.81-8.43.63-8.58-2.27-11.58-10.96-11.24-16.46.65-32.92 1.22-49.38 1.99-12.26.57-23.25 4.09-31.24 14.23-3.55 4.51-5.77 9.73-8.36 14.76-6.02 11.68-15.72 17.76-28.65 18.84-11.29.94-22.5 2.6-33.74 3.92-10.27 1.21-17.29 5.93-22.38 15.21-8.49 15.51-19.67 18.6-35.69 11.2-.3-.14-.6-.28-.9-.44-6.89-3.49-14.14-5.76-21.81-6.89-9.53-1.41-19.32-1.19-28.58-4.36-5.89-2.01-10.61.06-15.15 3.82-6.59 5.46-10.69 12.67-14.87 19.86-2.65 4.55-1.76 6.94 3.41 8.53 4.96 1.53 10.07 2.06 15.27 2.3 5.1.24 10.44.33 14.14 4.86-18.12 5.45-36.16 11.29-55.31 11.92-1.81.06-3.9.28-5.41-.48-11.72-5.89-23.73-2.82-35.7-1.49-1.48.16-2.96.44-4.44.66-2.67-1.8-5.72-1.55-8.71-1.55-27.81-.01-55.61.13-83.42-.07-13.3-.09-26.6-.82-39.9-1.27-18.11-.61-36.13-3.22-54.31-2.57-5.17-4.7-10.41-9.32-15.5-14.1-7.42-6.96-15.39-12.69-26.33-11.92zm210.22 19.12c8.72-1.1 17.88-.97 27.02-1.41 6.47-.31 12.92-1.25 19.34-2.11 2.48-.33 5.1-1.1 5.72-4.06.57-2.75-1.51-4.22-3.38-5.64-5.3-4.03-10.41-8.29-15.41-12.7-11.22-9.9-23.73-14.5-38.66-8.84-7.92 3-14.44-.02-19.62-6.02-3.27-3.79-6.68-7.43-10.25-10.92-10.76-10.49-19.68-10.02-29.02 1.6-4.82 5.99-10.83 9.24-18.6 8.88-5.98-.27-11.96-.72-17.94-.94-8.05-.29-13.14 4-16.18 11.04-2.72 6.28-5.07 12.74-11.5 16.43-1.17.67-1.95 1.89-1.68 3.38.32 1.76 1.76 2.34 3.25 2.68 1.13.26 2.3.32 3.46.42 12.28 1.02 24.53 2.06 36.66 4.48 13.76 2.74 27.68 5.14 41.16-1.35 5.7-2.75 11.44-2.69 16.9-.11 9.06 4.28 18.74 4.23 28.73 5.19zm436.57-87.95c.57 4.83.93 9.83 1.81 14.73.95 5.24 2.16 10.45 3.68 15.55 1.82 6.09 5.9 8.11 11.96 6.39 3.56-1.01 6.71-2.89 9.93-4.65 10.04-5.46 18.32-13.28 27.14-20.34 12.13-9.7 21.55-21.78 28.3-35.71a58.235 58.235 0 0 0 5.86-25.62c-.02-8.07-5.6-11.72-13.17-8.79-4.27 1.66-7.74 4.57-11.09 7.56-10.63 9.47-22.1 17.04-36.85 18.45-4.41.42-8.87 1.62-12.95 3.6-12.09 5.86-13.46 17.16-14.62 28.83zm-331.18 38.37c.4 2.16.79 5.01 4.34 4.12 3.18-.8 6.29-2.06 9.26-3.48 2.66-1.27 3.46-3.89 3.36-6.69-.07-2.05-1.39-3.24-3.26-3.93-6.18-2.27-13.76 3.04-13.7 9.98z" class="st4"/><path d="M1446.75 532.74c-3.7-4.54-9.04-4.62-14.14-4.86-5.2-.25-10.31-.78-15.27-2.3-5.17-1.6-6.06-3.99-3.41-8.53 4.19-7.19 8.29-14.4 14.87-19.86 4.54-3.76 9.27-5.84 15.15-3.82 9.26 3.17 19.05 2.95 28.58 4.36 7.67 1.13 14.92 3.4 21.81 6.89.3.15.6.3.9.44 16.01 7.4 27.2 4.3 35.69-11.2 5.08-9.28 12.11-14 22.38-15.21 11.24-1.33 22.45-2.98 33.74-3.92 12.94-1.08 22.63-7.16 28.65-18.84 2.59-5.02 4.8-10.25 8.36-14.76 7.99-10.14 18.98-13.66 31.24-14.23 16.45-.77 32.92-1.34 49.38-1.99 8.69-.34 11.59 2.66 10.96 11.24-.22 3.06-.94 6.08-2.81 8.43-7.12 8.97-13.34 18.77-22.74 25.72-2.86 2.12-4.96 4.88-6.73 7.95-3.33 5.8-2.38 9.4 3.42 12.76 7.49 4.34 15.58 4.39 23.79 3.31 5.21-.69 10.31-.67 15.26 1.26 2.36.92 4.79 2.04 5.01 4.98.22 2.85-1.77 4.61-3.95 5.92-1.84 1.1-3.87 1.92-5.88 2.7-26.55 10.24-53.99 16.76-82.3 19.68-12.42 1.28-24.82 2.95-37.28 3.66-7.94.45-15.9-1.11-23.83-2.2-17.68-2.43-35.48-2.92-53.3-2.3-3.15.11-6.56.41-9.1 2.36-6.75 5.17-14.4 8.21-22.49 10.4-13.08-5.81-26.96-7.82-41.08-8.64-1.6-.12-3.25.38-4.88.6z" class="st3"/><path d="M322.82 653.75c.68 1.58 1.93 2.67 3.18 3.79.93.84 2.6 1.46 1.98 3.07-.56 1.45-2.25 1.23-3.51 1.41-19.3 2.61-38.59 5.27-57.9 7.73-6.71.85-8.05 1.93-7.82 8.75.24 7.01 1.66 13.86 3.06 20.72 2.29 11.27-.71 15.77-11.89 18.22-2.76.6-5.58 1.27-8.37 1.27-21.29 0-42.58.49-63.87-.64-10.96-.58-21.99.21-32.95-.32-22.4-1.1-44.91.11-67.23-2.91-3.31-.45-6.61-.88-9.76-2.03-7.77-2.84-8.97-7.86-3.53-14.05 7.04-8.01 15.75-13.81 24.87-19.04 5.07-2.91 10.1-5.9 14.51-9.7 6.43-5.54 13.74-9 22.13-9.3 10.52-.38 19.63-4.07 28-10.11 12.53-4.92 24.98-10.07 37.62-14.68 15.3-5.58 30.56-11.45 46.9-13.39 24.25-2.88 47.17.12 67.08 15.71 6.15 4.79 10.66 11.46 17.5 15.5zm-46.81-.91c3.95-.22 9 .63 13.91-.58 5.57-1.36 6.84-4.95 3.58-9.67-3.06-4.43-7.58-6.96-12.36-9-16.35-6.98-33.32-6.5-50.02-2.42-17.61 4.31-35.07 9.42-52.08 15.84-9.64 3.64-19.04 7.93-28.79 11.23-7.07 2.39-14.54 3.61-21.81 5.4-6.23 1.54-11.82 4.3-16.83 8.4-6.05 4.95-12.13 9.88-18.69 14.19-3.87 2.55-7.82 5.15-10.78 8.84-3.41 4.25-2.53 7.89 2.57 9.74 3.58 1.3 7.33 2.28 11.08 2.92 15.98 2.72 32.19 2.34 48.3 2.87 22.61.74 45.26-.17 67.88 1.08 8.98.5 17.97.15 26.92-1.04 10.7-1.42 15.53-7.54 14.19-18.25-.62-4.96-1.28-9.91-2-14.86-.31-2.12-.59-4.23-1.84-6.15-5.25-8.08-2.47-14.92 6.85-17.31 6.23-1.58 12.57-1.14 19.92-1.23z" class="st4"/><path d="M491.66 654.72c1 0 2-.01 3-.01h2.06c1 0 2 .01 3 .01 1.93.48 3.86.97 5.8 1.42 19.16 4.44 34.22 14.53 43.38 32.25 5.59 10.81 2.18 17.1-9.75 19.34-10.99 2.07-22.11 3.05-33.26 3.02-11.81-.04-23.61-.84-35.42-.88-16.17-.05-32.26-.92-48.24-3.47-2.81-.45-5.64-.8-8.44-.2-18.88 4.08-38.03 3.78-57.18 3.62-4.26-.03-8.23-1.12-12.12-2.65-5.33-2.09-7.95-5.92-7.53-11.62.37-4.97 1.04-9.93 2.45-14.76 1.39-4.76 4.28-8.14 8.81-10.24 7.56-3.51 15.59-4.46 23.78-5.05 5.25-.38 9.81.89 14.21 3.62 6.12 3.79 9.98 9.72 14.49 15.01 9.29 10.88 18.89 11.56 28.79 1.28 9.09-9.44 19.79-16.06 31.86-20.95 9.86-4 19.82-7.64 30.31-9.74z" class="st3"/><path d="M491.66 654.72c-10.48 2.1-20.44 5.74-30.34 9.75-12.07 4.88-22.77 11.5-31.86 20.95-9.89 10.28-19.5 9.6-28.79-1.28-4.52-5.29-8.37-11.21-14.49-15.01-4.4-2.72-8.96-3.99-14.21-3.62-8.19.59-16.22 1.54-23.78 5.05-4.53 2.1-7.42 5.48-8.81 10.24-1.41 4.82-2.08 9.79-2.45 14.76-.42 5.7 2.2 9.53 7.53 11.62 3.89 1.53 7.87 2.61 12.12 2.65 19.15.15 38.3.45 57.18-3.62 2.8-.61 5.63-.25 8.44.2 15.98 2.56 32.07 3.42 48.24 3.47 11.81.04 23.61.85 35.42.88 11.16.03 22.27-.95 33.26-3.02 11.93-2.25 15.34-8.54 9.75-19.34-9.16-17.72-24.23-27.81-43.38-32.25-1.94-.45-3.86-.95-5.8-1.42 6.77-1.99 12.93.64 18.81 3.16 12.56 5.38 23.61 12.97 31.87 24.17 4.52 6.13 10.43 11.22 12.96 18.79 2.25 6.73 1.35 12.22-4.12 17.13-8.23 7.41-8.24 10.31-1.2 18.69 1.39 1.65 2.68 3.41 3.77 5.27 3.72 6.34 2.24 9.83-5.07 11.43-7.66 1.68-15.52 2.39-23.32 2.34-20.97-.13-41.97 1.07-62.92-.93-3.47-.33-6.99-.6-10.38-1.38-7.14-1.65-9.12-6.38-5.54-12.73 1.15-2.03 2.57-3.89 3.78-5.88 3.62-5.93 2.43-9.17-4.4-10.97-5.48-1.45-11.17-1.94-16.83-1.97-21.66-.1-43.32-.47-64.97.12-13.5.37-26.98.65-40.33-1.12-15.73-2.09-18.51-8.06-9.89-21.28 4.82-7.4 8.78-14.81 9.66-23.69.41-4.13 3.02-6.62 6.84-7.74 12.03-3.54 24.35-5.59 36.84-6.23 9.09-.46 15.53 5.31 21.8 10.85 13.21 11.67 20.33 12.44 35.21 2.89 15.77-10.13 33.22-16.03 51.07-21.01 2.76-.78 5.56-1.12 8.33.08zm16.3 94.08c4.82 0 9.64.09 14.46-.02 5.5-.13 10.98-.68 16.23-2.38 4.81-1.56 5.78-4.82 3-8.84-10.76-15.55-33.09-22.05-50-14.51-5.54 2.47-10.2 6.19-14.33 10.61-2.4 2.56-5.28 5.08-3.91 9.05 1.29 3.72 4.99 4.04 8.22 4.71 8.69 1.8 17.52 1.42 26.33 1.38z" class="st4"/><path d="M482.45 763.8c-2.85 1.25-5.69 1.25-8.54-.01 2.85-1.21 5.7-1.21 8.54.01zM471.45 763.79c-1.18.65-2.37.65-3.55 0 1.19-.62 2.37-.62 3.55 0z" class="st2"/><path d="M496.71 654.71h-2.06c.69-.8 1.37-.8 2.06 0z" class="st4"/><path d="M408.83 741.09c3.02.85 7.26-.38 8.44 3.17 1.17 3.51-2.86 4.75-5.08 6.54-2.46 1.99-5.19 2.29-7.78.2-2.02-1.63-3.79-3.71-2.75-6.43 1.22-3.2 4.49-2.93 7.17-3.48z" class="st0"/><path d="M1327.94 530.97c-10-.96-19.68-.91-28.73-5.19-5.46-2.58-11.2-2.64-16.9.11-13.48 6.5-27.41 4.1-41.16 1.35-12.13-2.42-24.38-3.46-36.66-4.48-1.16-.1-2.34-.16-3.46-.42-1.49-.34-2.93-.92-3.25-2.68-.27-1.5.51-2.72 1.68-3.38 6.43-3.69 8.79-10.15 11.5-16.43 3.04-7.04 8.14-11.32 16.18-11.04 5.98.21 11.96.66 17.94.94 7.76.35 13.78-2.89 18.6-8.88 9.34-11.62 18.27-12.09 29.02-1.6 3.58 3.49 6.98 7.12 10.25 10.92 5.19 6 11.7 9.02 19.62 6.02 14.93-5.65 27.44-1.06 38.66 8.84 5 4.41 10.11 8.67 15.41 12.7 1.86 1.42 3.95 2.89 3.38 5.64-.62 2.96-3.24 3.72-5.72 4.06-6.43.86-12.88 1.8-19.34 2.11-9.13.43-18.3.31-27.02 1.41zM1764.51 443.02c1.16-11.66 2.53-22.97 14.63-28.84 4.08-1.98 8.54-3.18 12.95-3.6 14.75-1.41 26.21-8.98 36.85-18.45 3.35-2.99 6.82-5.9 11.09-7.56 7.56-2.93 13.15.72 13.17 8.79.02 8.97-2 17.65-5.86 25.62-6.75 13.93-16.18 26.01-28.3 35.71-8.82 7.06-17.1 14.88-27.14 20.34-3.22 1.75-6.37 3.64-9.93 4.65-6.06 1.72-10.14-.3-11.96-6.39-1.52-5.1-2.74-10.31-3.68-15.55-.89-4.89-1.25-9.89-1.82-14.72zM1433.33 481.39c-.06-6.95 7.52-12.25 13.7-9.98 1.87.69 3.19 1.87 3.26 3.93.1 2.8-.7 5.42-3.36 6.69-2.97 1.42-6.08 2.67-9.26 3.48-3.55.89-3.94-1.96-4.34-4.12zM276.01 652.84c-7.35.09-13.69-.35-19.92 1.25-9.32 2.39-12.1 9.24-6.85 17.31 1.25 1.92 1.54 4.02 1.84 6.15.72 4.94 1.37 9.9 2 14.86 1.34 10.71-3.49 16.83-14.19 18.25-8.95 1.19-17.95 1.53-26.92 1.04-22.62-1.25-45.27-.33-67.88-1.08-16.11-.53-32.32-.15-48.3-2.87-3.76-.64-7.51-1.62-11.08-2.92-5.1-1.86-5.97-5.5-2.57-9.74 2.96-3.69 6.91-6.29 10.78-8.84 6.56-4.32 12.64-9.24 18.69-14.19 5.01-4.1 10.6-6.86 16.83-8.4 7.28-1.79 14.74-3.01 21.81-5.4 9.75-3.3 19.15-7.59 28.79-11.23 17.01-6.42 34.46-11.54 52.08-15.84 16.7-4.08 33.67-4.57 50.02 2.42 4.78 2.04 9.3 4.57 12.36 9 3.26 4.72 1.99 8.31-3.58 9.67-4.91 1.19-9.96.34-13.91.56zm-88.12 36.84c9.08.32 17.54.06 25.97-1.04 8.68-1.13 11.49-4.26 11.3-12.92-.04-1.76.09-3.4 1.61-4.47 3.41-2.38 2.59-5.08.53-7.69-6.58-8.31-14.53-13.94-25.79-13.76-10.64.17-20.76 2.48-30.57 6.4-1.36.55-3.05 1.19-3.76 2.31-2.86 4.55-7.6 6.26-11.99 8.56-5.01 2.63-10.11 5.15-13.8 9.65-2.98 3.62-2.45 6.75 1.66 8.99 3.72 2.03 7.89 2.86 12.04 2.87 11.16.04 22.23 1.95 32.8 1.1zM507.96 748.8c-8.81.04-17.64.43-26.34-1.38-3.23-.67-6.93-.98-8.22-4.71-1.37-3.97 1.51-6.49 3.91-9.05 4.13-4.42 8.79-8.14 14.33-10.61 16.91-7.55 39.25-1.04 50 14.51 2.78 4.02 1.81 7.28-3 8.84-5.24 1.7-10.73 2.25-16.23 2.38-4.81.11-9.63.02-14.45.02z" class="st3"/><path d="M187.89 689.68c-10.57.85-21.64-1.06-32.78-1.09-4.14-.01-8.31-.85-12.04-2.87-4.11-2.24-4.64-5.37-1.66-8.99 3.69-4.5 8.79-7.02 13.8-9.65 4.39-2.3 9.13-4.01 11.99-8.56.7-1.12 2.39-1.76 3.76-2.31 9.81-3.93 19.93-6.23 30.57-6.4 11.25-.18 19.21 5.45 25.79 13.76 2.06 2.6 2.88 5.31-.53 7.69-1.52 1.06-1.65 2.71-1.61 4.47.19 8.66-2.61 11.79-11.3 12.92-8.44 1.09-16.91 1.36-25.99 1.03z" style="fill:#9da1b4"/></svg>