<svg xmlns="http://www.w3.org/2000/svg" xml:space="preserve" id="Calque_1" x="0" y="0" style="enable-background:new 0 0 1920 2160" version="1.1" viewBox="0 0 1920 2160"><style>.st0{fill:#d0d1ff}.st1{fill:#c8e7ff}.st2{fill:#deaaff}.st3{fill:#ffcbf2}.st4{fill:#c0fdff}.st5{fill:#9a8da4}.st6{fill:#d63e7e}.st7{fill:#0dbe9d}.st8{fill:#bc3444}.st9{fill:#c34b87}.st10{fill:#46a9ca}.st11{fill:#55baa6}.st12{fill:#4b568a}.st13{fill:#ccc86f}</style><path d="M1597.58 1080.03h-381.96c0-80.99 0-161.99-.01-242.98 0-2.32-.15-4.65-.23-6.97.05-16.95.16-33.91.15-50.86-.02-40.06-.09-80.12-.13-120.19.08-2.49.22-4.99.22-7.48.01-169.28.01-338.56.02-507.83 0-2.5.11-4.99.17-7.49 127.28-.02 254.55-.03 381.83-.05l.01-.05-.03 443.98c-.02 166.64-.03 333.28-.04 499.92zM-.26 543.13c0-179.47.01-358.94-.09-538.4C-.35.98.49.13 4.24.14c163.48.11 326.97.09 490.45.09 0 89.99.01 179.98.01 269.97 0 1.67-.01 3.33-.01 5-.02 89.31-.05 178.62-.07 267.93-.31.06-.63.1-.94.13-2.33-.04-4.66-.12-6.98-.12-65.71-.01-131.42-.01-197.13 0-13.97 0-27.95.08-41.92.12-.35.02-.7.03-1.05.05-2.16-.05-4.33-.15-6.49-.15-80.13-.02-160.25-.02-240.37-.03z" class="st0"/><path d="M986.64 1080.03H495.69c-.01-86.68-.03-173.35-.05-260.03 0-1.99-.11-3.98-.17-5.98.15-.31.17-.63.07-.96.05-1.16.14-2.32.14-3.48.01-86.66.01-173.31 0-259.97 0-1.49-.13-2.99-.2-4.48 0-.54.01-1.08.01-1.62a.69.69 0 0 0 .35-.4c80.59.01 161.19.02 241.78.02 1 0 1.99-.1 2.99-.16.38 0 .76 0 1.14.01 1.99.05 3.99.15 5.98.15 79.6.02 159.19.03 238.79.04.04 5.99.1 11.99.12 17.98.06 32.63.11 65.27.16 97.9-.05 41.38-.13 82.77-.15 124.15-.01 15.62.1 31.24.16 46.86-.06 1.99-.16 3.98-.16 5.98-.01 81.33-.01 162.66-.01 243.99z" class="st1"/><path d="M1919.55 580.12c0 165.14-.01 330.28.09 495.41 0 3.75-.84 4.6-4.59 4.59-105.49-.12-210.98-.09-316.47-.09 0-166.54-.01-333.09-.01-499.63l.09-.29c48.69.02 97.39.04 146.08.04 4.65 0 9.3-.13 13.94-.2h1.06c1.66.05 3.32.16 4.99.16 51.6.02 103.21.01 154.82.01z" class="st2"/><path d="M986.8 659.05c-.05-32.63-.1-65.27-.16-97.9-.01-5.99-.08-11.99-.12-17.98.04-2.33.11-4.66.11-6.99.01-86.27.01-172.53 0-258.8 0-2.5-.09-4.99-.14-7.49.05-2 .14-3.99.14-5.99.01-87.89.01-175.79 0-263.68h227.98c.01 2.33.04 4.66.04 7-.01 214.76-.03 429.51-.03 644.27 0 2.5.06 5 .1 7.5l-.24.08c-75.9-.01-151.79-.02-227.68-.02z" class="st3"/><path d="M986.64.22V263.9c0 2-.09 3.99-.14 5.99-79.47.01-158.94.01-238.42.03-2.16 0-4.32.16-6.47.25-.83-.09-1.65-.25-2.47-.25-81.1.01-162.21.04-243.31.06l-.19-.25c.02-89.84.03-179.68.05-269.52 163.65.01 327.3.01 490.95.01z" class="st1"/><path d="M495.47 814.03c.06 1.99.17 3.98.17 5.98.02 86.68.03 173.35.05 260.03H-.26V813.09l246.97.03c1.49.1 2.98.28 4.46.28 79.68.01 159.36.01 239.04 0 1.49 0 2.98-.18 4.47-.27l-.23.13.12.23c.3.17.6.35.9.54zM1598.58.22c105.66 0 211.31.02 316.97-.1 3.42 0 4.1.67 4.1 4.09-.12 103.32-.1 206.63-.1 309.95-30.49.01-60.97 0-91.46.03-22.82.02-45.64.1-68.46.15-.35-.01-.69-.02-1.04-.04-1.66-.05-3.33-.14-4.99-.14h-154.86c-.06-2.16-.17-4.32-.17-6.49-.01-55.31 0-110.62-.05-165.92 0-1.88.87-4-.88-5.65l-.01.05-.06-.86.02-.1c1.71-1.65.86-3.76.86-5.63.09-43.09.1-86.21.13-129.34z" class="st4"/><path d="m246.71 813.11-246.97-.03V544.13h246.78c.07 2.49.19 4.99.19 7.48.01 84.22 0 168.44.03 252.65 0 2.28-.57 4.68.81 6.82-.28.68-.56 1.35-.84 2.03zM986.64 1080.03c0-81.33 0-162.66.01-244 0-1.99.1-3.98.16-5.98l227.61.03.27.06c-.02 83.3-.05 166.59-.07 249.89H986.64z" class="st3"/><path d="M1215.62.22h381.96c0 45 .01 90 .01 135l-.02.1c-126.42-.01-252.84-.03-379.26-.04-.83 0-1.66.08-2.49.12-.08-.99-.24-1.98-.24-2.97 0-44.06.02-88.13.04-132.21z" class="st2"/><path d="M1759.64 314.35c22.82-.05 45.64-.13 68.46-.15 30.49-.03 60.97-.02 91.46-.03v265.95c-51.61 0-103.21.01-154.82 0-1.66 0-3.32-.1-4.99-.16-.05-.83-.16-1.66-.16-2.49.01-87.7.03-175.41.05-263.12z" class="st1"/><path d="M1215.62.22c-.02 44.07-.04 88.14-.05 132.21 0 .99.16 1.98.24 2.97-.07.27-.08.54-.01.82-.06 2.5-.17 4.99-.17 7.49-.01 169.28-.01 338.56-.02 507.83 0 2.49-.14 4.99-.22 7.48-.23.02-.45 0-.67-.05-.03-2.5-.1-5-.1-7.49l.03-644.27c0-2.33-.03-4.66-.04-7 .34.01.67.01 1.01.01z" class="st5"/><path d="M1598.57 580.4c0 166.54.01 333.09.01 499.63h-1c.01-166.64.02-333.29.02-499.93.33.1.65.2.97.3zM495.69.22c-.02 89.84-.03 179.68-.05 269.52-.31.15-.63.3-.94.45 0-89.99-.01-179.98-.01-269.97h1z" class="st6"/><path d="M1214.62 1080.03c.02-83.3.05-166.59.07-249.89.23-.05.45-.08.69-.06.08 2.32.23 4.65.23 6.97.01 80.99.01 161.99.01 242.98h-1z" class="st5"/><path d="M246.52 544.13H-.26v-1c80.12.01 160.24.01 240.37.03 2.16 0 4.33.1 6.49.15-.01.27-.03.54-.08.82z" class="st7"/><path d="M1597.59 135.22c0-45-.01-90-.01-135h1c-.03 43.12-.04 86.24-.13 129.37 0 1.87.85 3.98-.86 5.63z" class="st8"/><path d="m1598.57 580.4-.96-.3.03-443.98c1.75 1.65.88 3.77.88 5.65.06 55.31.04 110.62.05 165.92 0 2.16.11 4.32.17 6.49-.06 2.16-.17 4.33-.17 6.49-.01 74.98-.01 149.97 0 224.95 0 11.16.08 22.33.12 33.49l-.03 1c0 .01-.09.29-.09.29z" class="st9"/><path d="M1215.8 136.23c-.07-.27-.06-.55.01-.82.83-.04 1.66-.12 2.49-.12 126.42.01 252.84.02 379.26.04l.06.86c-127.27.01-254.54.02-381.82.04z" class="st6"/><path d="M1215.37 830.08c-.23-.01-.46.01-.69.06l-.27-.06c.1-1.82.28-3.64.28-5.47.02-53.53.01-107.06 0-160.59 0-1.66-.15-3.32-.22-4.97l.24-.08c.22.05.45.07.67.05.05 40.06.12 80.12.13 120.18.02 16.97-.08 33.93-.14 50.88z" class="st10"/><path d="M246.71 813.11c.28-.67.56-1.35.84-2.02.06-2.16.16-4.32.16-6.48.01-84.66.01-169.32.01-253.99 0-2.16.09-4.32.15-6.48 79.49-.01 158.98-.01 238.47-.05 2.46 0 5.02.54 7.34-.84.32-.03.63-.07.94-.13.29.13.58.27.87.39 0 .54-.01 1.08-.01 1.62-1.28 2.34-.77 4.89-.77 7.35-.03 86.88-.03 173.75-.03 260.63-1.49.09-2.98.27-4.47.27-79.68.01-159.36.01-239.04 0-1.49 0-2.98-.18-4.46-.27z" class="st2"/><path d="m495.49 543.51-.87-.39c.02-89.31.05-178.62.07-267.93 0-1.67.01-3.33.01-5 .31-.15.63-.3.94-.45 0 0 .19.25.18.25-.05 1.33-.13 2.66-.13 3.99-.01 88.38-.01 176.76 0 265.14 0 1.33.09 2.66.14 3.99-.05.18-.17.32-.34.4z" class="st9"/><path d="M247.87 544.14c-.05 2.16-.14 4.32-.15 6.48-.01 84.66-.01 169.32-.01 253.99 0 2.16-.1 4.32-.16 6.48-1.37-2.14-.81-4.54-.81-6.82-.03-84.22-.02-168.44-.03-252.65 0-2.49-.12-4.99-.19-7.48.05-.27.07-.55.08-.83.35-.02.7-.03 1.05-.05.01.3.09.6.22.88z" class="st11"/><path d="M247.87 544.14c-.13-.28-.2-.58-.22-.89 13.97-.04 27.95-.12 41.92-.12 65.71-.01 131.42-.01 197.13 0 2.33 0 4.66.08 6.98.12-2.32 1.38-4.88.84-7.34.84-79.49.04-158.98.04-238.47.05z" class="st8"/><path d="M495.84 543.11c-.05-1.33-.14-2.66-.14-3.99-.01-88.38-.01-176.76 0-265.14 0-1.33.08-2.66.13-3.99 81.1-.02 162.21-.05 243.31-.06.82 0 1.65.16 2.48.25-.28.68-.57 1.35-.85 2.03-.03 2.66-.09 5.33-.09 7.99l-.06 262.78c-1 .05-1.99.16-2.99.16l-241.79-.03z" class="st3"/><path d="M740.76 272.21c.28-.68.57-1.35.85-2.03 2.16-.09 4.31-.25 6.47-.25 79.47-.02 158.94-.03 238.42-.03.05 2.5.13 4.99.13 7.49.01 86.27.01 172.53 0 258.8 0 2.33-.07 4.66-.11 6.99-79.6-.01-159.2-.02-238.79-.04-1.99 0-3.99-.1-5.98-.15-.03-2.49-.08-4.99-.08-7.48 0-85.5 0-171.01-.03-256.51 0-2.28.63-4.69-.88-6.79zM1214.48 659.06c.08 1.66.22 3.32.22 4.97.01 53.53.01 107.06 0 160.59 0 1.82-.18 3.64-.28 5.47l-227.61-.03c-.06-15.62-.17-31.24-.16-46.86.02-41.38.1-82.77.15-124.15 75.89 0 151.78.01 227.68.01z" class="st4"/><path d="M740.76 272.21c1.51 2.1.88 4.51.88 6.78.03 85.5.03 171.01.03 256.51 0 2.49.05 4.99.08 7.48-.38 0-.76 0-1.14-.01l.06-262.78c0-2.65.06-5.32.09-7.98z" class="st10"/><path d="M494.68 813.12c0-86.88 0-173.75.03-260.63 0-2.46-.51-5.01.77-7.35.07 1.49.2 2.99.2 4.48.01 86.66.01 173.31 0 259.97 0 1.16-.09 2.32-.14 3.49-.32.14-.65.27-.97.41l-.12-.23.23-.14z" class="st8"/><path d="M494.57 813.48c.32-.14.65-.27.97-.41.1.33.08.65-.07.96-.3-.19-.6-.37-.9-.55z" class="st12"/><path d="M1759.64 314.35c-.02 87.71-.04 175.41-.05 263.12 0 .83.1 1.66.16 2.49h-1.06c-.01-.3-.08-.59-.21-.87.03-2.16.09-4.33.1-6.49.02-86.09.03-172.19.04-258.28l1.02.03z" class="st13"/><path d="M1758.47 579.09c.13.27.2.56.21.87-4.65.07-9.3.2-13.94.2-48.69 0-97.39-.02-146.08-.04l.03-1c12.48.04 24.96.11 37.45.1 40.77-.03 81.55-.08 122.33-.13z" class="st11"/><path d="M1758.47 579.09c-40.78.05-81.56.1-122.33.13-12.48.01-24.96-.07-37.45-.1-.04-11.16-.11-22.33-.12-33.49-.01-74.98-.01-149.97 0-224.95 0-2.16.11-4.33.17-6.49 51.62 0 103.24-.01 154.86 0 1.66 0 3.33.09 4.99.14-.01 86.1-.02 172.19-.04 258.28.01 2.16-.05 4.32-.08 6.48z" class="st3"/><path d="M1597.58 2160.03h-381.96c0-80.99 0-161.99-.01-242.98 0-2.32-.15-4.65-.23-6.97.05-16.95.16-33.91.15-50.86-.02-40.06-.09-80.12-.13-120.19.08-2.49.22-4.99.22-7.48.01-169.28.01-338.56.02-507.83 0-2.5.11-4.99.17-7.49 127.28-.02 254.55-.03 381.83-.05l.01-.05-.03 443.98c-.02 166.64-.03 333.28-.04 499.92zM-.26 1623.13c0-179.47.01-358.94-.09-538.41 0-3.75.84-4.6 4.59-4.59 163.48.11 326.97.09 490.45.09 0 89.99.01 179.98.01 269.97 0 1.67-.01 3.33-.01 5-.02 89.31-.05 178.62-.07 267.93-.31.06-.63.1-.94.13-2.33-.04-4.66-.12-6.98-.12-65.71-.01-131.42-.01-197.13 0-13.97 0-27.95.08-41.92.12-.35.02-.7.03-1.05.05-2.16-.05-4.33-.15-6.49-.15-80.13-.01-160.25-.01-240.37-.02z" class="st0"/><path d="M986.64 2160.03H495.69c-.01-86.68-.03-173.35-.05-260.03 0-1.99-.11-3.98-.17-5.98.15-.31.17-.63.07-.96.05-1.16.14-2.32.14-3.48.01-86.66.01-173.31 0-259.97 0-1.49-.13-2.99-.2-4.48 0-.54.01-1.08.01-1.62a.69.69 0 0 0 .35-.4c80.59.01 161.19.02 241.78.02 1 0 1.99-.1 2.99-.16.38 0 .76 0 1.14.01 1.99.05 3.99.15 5.98.15 79.6.02 159.19.03 238.79.04.04 5.99.1 11.99.12 17.98.06 32.63.11 65.27.16 97.9-.05 41.38-.13 82.77-.15 124.15-.01 15.62.1 31.24.16 46.86-.06 1.99-.16 3.98-.16 5.98-.01 81.33-.01 162.66-.01 243.99z" class="st1"/><path d="M1919.55 1660.12c0 165.14-.01 330.28.09 495.41 0 3.75-.84 4.6-4.59 4.59-105.49-.12-210.98-.09-316.47-.09 0-166.54-.01-333.09-.01-499.63l.09-.29c48.69.02 97.39.04 146.08.04 4.65 0 9.3-.13 13.94-.2h1.06c1.66.05 3.32.16 4.99.16 51.6.02 103.21.01 154.82.01z" class="st2"/><path d="M986.8 1739.05c-.05-32.63-.1-65.27-.16-97.9-.01-5.99-.08-11.99-.12-17.98.04-2.33.11-4.66.11-6.99.01-86.27.01-172.53 0-258.8 0-2.5-.09-4.99-.14-7.49.05-2 .14-3.99.14-5.99.01-87.89.01-175.79 0-263.68h227.98c.01 2.33.04 4.66.04 7-.01 214.76-.03 429.51-.03 644.27 0 2.5.06 5 .1 7.5l-.24.08c-75.9-.01-151.79-.02-227.68-.02z" class="st3"/><path d="M986.64 1080.22v263.68c0 2-.09 3.99-.14 5.99-79.47.01-158.94.01-238.42.03-2.16 0-4.32.16-6.47.25-.83-.09-1.65-.25-2.47-.25-81.1.01-162.21.04-243.31.06l-.19-.25c.02-89.84.03-179.68.05-269.52 163.65.01 327.3.01 490.95.01z" class="st1"/><path d="M495.47 1894.03c.06 1.99.17 3.98.17 5.98.02 86.68.03 173.35.05 260.03H-.26v-266.95l246.97.03c1.49.1 2.98.28 4.46.28 79.68.01 159.36.01 239.04 0 1.49 0 2.98-.18 4.47-.27l-.23.13.12.23c.3.17.6.35.9.54zM1598.58 1080.22c105.66 0 211.31.02 316.97-.1 3.42 0 4.1.67 4.1 4.09-.12 103.32-.1 206.63-.1 309.95-30.49.01-60.97 0-91.46.03-22.82.02-45.64.1-68.46.15-.35-.01-.69-.02-1.04-.04-1.66-.05-3.33-.14-4.99-.14h-154.86c-.06-2.16-.17-4.32-.17-6.49-.01-55.31 0-110.62-.05-165.92 0-1.88.87-4-.88-5.65l-.01.05-.06-.86.02-.1c1.71-1.65.86-3.76.86-5.63.09-43.09.1-86.21.13-129.34z" class="st4"/><path d="m246.71 1893.11-246.97-.03v-268.95h246.78c.07 2.49.19 4.99.19 7.48.01 84.22 0 168.44.03 252.65 0 2.28-.57 4.68.81 6.82-.28.68-.56 1.35-.84 2.03zM986.64 2160.03c0-81.33 0-162.66.01-244 0-1.99.1-3.98.16-5.98l227.61.03.27.06c-.02 83.3-.05 166.59-.07 249.89H986.64z" class="st3"/><path d="M1215.62 1080.22h381.96c0 45 .01 90 .01 135l-.02.1c-126.42-.01-252.84-.03-379.26-.04-.83 0-1.66.08-2.49.12-.08-.99-.24-1.98-.24-2.97 0-44.06.02-88.13.04-132.21z" class="st2"/><path d="M1759.64 1394.35c22.82-.05 45.64-.13 68.46-.15 30.49-.03 60.97-.02 91.46-.03v265.95c-51.61 0-103.21.01-154.82 0-1.66 0-3.32-.1-4.99-.16-.05-.83-.16-1.66-.16-2.49.01-87.7.03-175.41.05-263.12z" class="st1"/><path d="M1215.62 1080.22c-.02 44.07-.04 88.14-.05 132.21 0 .99.16 1.98.24 2.97-.07.27-.08.54-.01.82-.06 2.5-.17 4.99-.17 7.49-.01 169.28-.01 338.56-.02 507.83 0 2.49-.14 4.99-.22 7.48-.23.02-.45 0-.67-.05-.03-2.5-.1-5-.1-7.49l.03-644.27c0-2.33-.03-4.66-.04-7 .34.01.67.01 1.01.01z" class="st5"/><path d="M1598.57 1660.4c0 166.54.01 333.09.01 499.63h-1c.01-166.64.02-333.29.02-499.93.33.1.65.2.97.3zM495.69 1080.22c-.02 89.84-.03 179.68-.05 269.52-.31.15-.63.3-.94.45 0-89.99-.01-179.98-.01-269.97h1z" class="st6"/><path d="M1214.62 2160.03c.02-83.3.05-166.59.07-249.89.23-.05.45-.08.69-.06.08 2.32.23 4.65.23 6.97.01 80.99.01 161.99.01 242.98h-1z" class="st5"/><path d="M246.52 1624.13H-.26v-1c80.12.01 160.24.01 240.37.03 2.16 0 4.33.1 6.49.15-.01.27-.03.54-.08.82z" class="st7"/><path d="M1597.59 1215.22c0-45-.01-90-.01-135h1c-.03 43.12-.04 86.24-.13 129.37 0 1.87.85 3.98-.86 5.63z" class="st8"/><path d="m1598.57 1660.4-.96-.3.03-443.98c1.75 1.65.88 3.77.88 5.65.06 55.31.04 110.62.05 165.92 0 2.16.11 4.32.17 6.49-.06 2.16-.17 4.33-.17 6.49-.01 74.98-.01 149.97 0 224.95 0 11.16.08 22.33.12 33.49l-.03 1c0 .01-.09.29-.09.29z" class="st9"/><path d="M1215.8 1216.23c-.07-.27-.06-.55.01-.82.83-.04 1.66-.12 2.49-.12 126.42.01 252.84.02 379.26.04l.06.86c-127.27.01-254.54.02-381.82.04z" class="st6"/><path d="M1215.37 1910.08c-.23-.01-.46.01-.69.06l-.27-.06c.1-1.82.28-3.64.28-5.47.02-53.53.01-107.06 0-160.59 0-1.66-.15-3.32-.22-4.97l.24-.08c.22.05.45.07.67.05.05 40.06.12 80.12.13 120.18.02 16.97-.08 33.93-.14 50.88z" class="st10"/><path d="M246.71 1893.11c.28-.67.56-1.35.84-2.02.06-2.16.16-4.32.16-6.48.01-84.66.01-169.32.01-253.99 0-2.16.09-4.32.15-6.48 79.49-.01 158.98-.01 238.47-.05 2.46 0 5.02.54 7.34-.84.32-.03.63-.07.94-.13.29.13.58.27.87.39 0 .54-.01 1.08-.01 1.62-1.28 2.34-.77 4.89-.77 7.35-.03 86.88-.03 173.75-.03 260.63-1.49.09-2.98.27-4.47.27-79.68.01-159.36.01-239.04 0-1.49 0-2.98-.18-4.46-.27z" class="st2"/><path d="m495.49 1623.52-.87-.39c.02-89.31.05-178.62.07-267.93 0-1.67.01-3.33.01-5 .31-.15.63-.3.94-.45 0 0 .19.25.18.25-.05 1.33-.13 2.66-.13 3.99-.01 88.38-.01 176.76 0 265.14 0 1.33.09 2.66.14 3.99-.05.17-.17.31-.34.4z" class="st9"/><path d="M247.87 1624.14c-.05 2.16-.14 4.32-.15 6.48-.01 84.66-.01 169.32-.01 253.99 0 2.16-.1 4.32-.16 6.48-1.37-2.14-.81-4.54-.81-6.82-.03-84.22-.02-168.44-.03-252.65 0-2.49-.12-4.99-.19-7.48.05-.27.07-.55.08-.83.35-.02.7-.03 1.05-.05.01.3.09.6.22.88z" class="st11"/><path d="M247.87 1624.14c-.13-.28-.2-.58-.22-.89 13.97-.04 27.95-.12 41.92-.12 65.71-.01 131.42-.01 197.13 0 2.33 0 4.66.08 6.98.12-2.32 1.38-4.88.84-7.34.84-79.49.04-158.98.04-238.47.05z" class="st8"/><path d="M495.84 1623.11c-.05-1.33-.14-2.66-.14-3.99-.01-88.38-.01-176.76 0-265.14 0-1.33.08-2.66.13-3.99 81.1-.02 162.21-.05 243.31-.06.82 0 1.65.16 2.48.25-.28.68-.57 1.35-.85 2.03-.03 2.66-.09 5.33-.09 7.99l-.06 262.78c-1 .06-1.99.16-2.99.16l-241.79-.03z" class="st3"/><path d="M740.76 1352.21c.28-.68.57-1.35.85-2.03 2.16-.09 4.31-.25 6.47-.25 79.47-.02 158.94-.03 238.42-.03.05 2.5.13 4.99.13 7.49.01 86.27.01 172.53 0 258.8 0 2.33-.07 4.66-.11 6.99-79.6-.01-159.2-.02-238.79-.04-1.99 0-3.99-.1-5.98-.15-.03-2.49-.08-4.99-.08-7.48 0-85.5 0-171.01-.03-256.51 0-2.28.63-4.69-.88-6.79zM1214.48 1739.06c.08 1.66.22 3.32.22 4.97.01 53.53.01 107.06 0 160.59 0 1.82-.18 3.64-.28 5.47l-227.61-.03c-.06-15.62-.17-31.24-.16-46.86.02-41.38.1-82.77.15-124.15 75.89 0 151.78.01 227.68.01z" class="st4"/><path d="M740.76 1352.21c1.51 2.1.88 4.51.88 6.78.03 85.5.03 171.01.03 256.51 0 2.49.05 4.99.08 7.48-.38 0-.76 0-1.14-.01l.06-262.78c0-2.65.06-5.32.09-7.98z" class="st10"/><path d="M494.68 1893.12c0-86.88 0-173.75.03-260.63 0-2.46-.51-5.01.77-7.35.07 1.49.2 2.99.2 4.48.01 86.66.01 173.31 0 259.97 0 1.16-.09 2.32-.14 3.49-.32.14-.65.27-.97.41l-.12-.23.23-.14z" class="st8"/><path d="M494.57 1893.48c.32-.14.65-.27.97-.41.1.33.08.65-.07.96-.3-.19-.6-.37-.9-.55z" class="st12"/><path d="M1759.64 1394.35c-.02 87.71-.04 175.41-.05 263.12 0 .83.1 1.66.16 2.49h-1.06c-.01-.3-.08-.59-.21-.87.03-2.16.09-4.33.1-6.49.02-86.09.03-172.19.04-258.28l1.02.03z" class="st13"/><path d="M1758.47 1659.09c.13.27.2.56.21.87-4.65.07-9.3.2-13.94.2-48.69 0-97.39-.02-146.08-.04l.03-1c12.48.04 24.96.11 37.45.1 40.77-.03 81.55-.08 122.33-.13z" class="st11"/><path d="M1758.47 1659.09c-40.78.05-81.56.1-122.33.13-12.48.01-24.96-.07-37.45-.1-.04-11.16-.11-22.33-.12-33.49-.01-74.98-.01-149.97 0-224.95 0-2.16.11-4.33.17-6.49 51.62 0 103.24-.01 154.86 0 1.66 0 3.33.09 4.99.14-.01 86.1-.02 172.19-.04 258.28.01 2.16-.05 4.32-.08 6.48z" class="st3"/></svg>