<svg xmlns="http://www.w3.org/2000/svg" xml:space="preserve" id="montagne" x="0" y="0" style="enable-background:new 0 0 1920 1080" version="1.1" viewBox="0 0 1920 1080"><style>.st0{fill:#aa6ad8}.st1{fill:#af8dce}.st2{fill:#8d71aa}.st4{fill:#170e0d}</style><path d="M1389.25 1079.68h-12c-.12-2.66.34-5.77-3.7-5.84-3.87-.07-4.7 2.83-5.3 5.84h-19.5c-.2-.9-.35-2-1.5-2s-1.3 1.1-1.5 2H652.86c-2.19-4.77-6.28-6.43-10.98-5.44-6.74 1.43-12.49-.5-18.56-3.06-5.51-2.32-9.33-6.06-13.23-10.32-8.31-9.06-21.82-5.26-31.3-11.87-.97-.68-2.51.06-3.01 1.42-.77 2.09.64 3.55 2.14 4.25 7.97 3.68 13.99 10.19 21.67 14.4 5.88 3.22 13.13 4.51 17.27 10.62-203.72 0-407.44-.03-611.16.14-5.62 0-6.9-1.26-6.89-6.88.19-119.53.14-239.05.14-358.58 17.33-3.68 34.58-7.84 52.49-7.47 3.82 8.61 12.44 13 18 20.21 3.39 4.4 6.79 10.19 14.69 11.95.53.22.07-.25-.48-.58-.72-.44-.94-.2-.55.55.22.42.39.96.75 1.17.24.14.77-.19.29-1.14-.17-6.34 10.33-13.28 14.55-10.29 6.4 4.52 14.63 4.91 20.58 10.18 1.79 1.58 4.46 3.14 6.69 3.08 11.94-.3 22.18 6.32 33.72 7.72 12.7 1.54 23.79 10.37 37.38 8.55 1.25-.17 2.97.84 4 1.8 2.67 2.49 6.05 3.18 9.26 4.52 9.47 3.96 20 4.52 29.17 9.2a757.127 757.127 0 0 0 47.99 22.38c1.9.81 5.27 3.2 5.8.64 1.73-8.42 7.04-4.03 10.9-3.52 8.24 1.08 15.55 5.34 23.46 7.59 18.58 5.28 37.29 10.17 54.77 18.69 4.16 2.02 8.62 9.59 13.01.07.13-.27.97-.42 1.4-.31 6.92 1.79 14.66.01 20.92 4.56 9.11 6.61 20.41 10.1 27.18 20.14 2.59 3.84 8.14 5.21 11.39 10.26-3.81.16-6.15-1.35-8.26-2.84-3.06-2.16-5.8-4.74-9.62-5.58-2.11-.46-4.5-2.32-6.25-.17-1.49 1.84.53 3.66 1.5 5.32.87 1.5 2.25 3.04.5 4.63-1.52 1.38-3.66 1.07-4.76-.28-3.38-4.13-9.62-5.55-10.82-11.81-.58-3-3.05-4.11-6.46-4.19.04 4.62 2.99 7.76 4.44 11.21 2.48 5.91 6.7 11.37 13.47 13.09 3.25.83 5.85 2.21 8.64 3.93 9.73 6 19.69 11.63 29.62 17.3 1.65.95 3.78 2.33 5.36.13 1.34-1.87.33-3.8-1.03-5.43-2.44-2.93-5.52-4.92-8.88-6.72-4.82-2.59-9.43-5.59-14.09-8.48-1.05-.65-2.25-1.59-1.62-2.99.92-2.04 2.51-.92 3.78-.35 3.63 1.64 7.65 5.06 11.1 3.55 5.94-2.59 9.86-.47 14.3 2.65 2.3 1.62 5.84 2.57 7.09-.71 1.98-5.17 4.21-2.45 6.64-.98 7.74 4.69 14.73 11.42 25.24 7.71 2.49-.88 5.21 1.33 7.47 2.92.43.3.45 1.19.59 1.62-1.64 2.05-4.13-.98-5.7 1.77 1.66 3.09 4.39 4.48 7.86 5.79 6.69 2.52 15.58 2.18 19.61 8.36 6.93 10.65 18.72 14.29 27.72 21.84 13.23 11.1 31 15.02 44.45 26.12.74.61 1.76.97 2.7 1.26 3.74 1.16 8.72 3.98 10.86-.34 2.22-4.49-4.14-4.1-6.4-6.2-1.05-.98-3.08-1.39-2.87-3.08.3-2.44 2.59-1.76 4.21-1.9 4.3-.38 8.76.69 14.09-1.11-7.74-4.02-13.25-9.2-21.41-10.18-5.04-.61-8.86-5.27-12.68-8.84-1.33-1.25-1.97-2.95-1.28-4.78.77-2.04 2.69-1.81 4.41-2.06 4.63-.68 7.94 2.02 11.73 3.94 19.41 9.85 35.68 25.69 57.89 30.2 2.25.46 5.49 1.08 3.33 4.86-2.22 3.89.51 4.56 3.17 4.31 3.87-.37 7.84 4.69 10.27 1.85 1.94-2.26-1.92-6.5-3.15-9.88-.84-2.33-1.5-4.72 1.86-5.11 3.65-.43 7.81-1.25 10.45 2.29 5.29 7.1 12.86 8.49 20.72 7.82 9.87-.84 18.76 2.31 27.85 5.03 1.26.38 1.51.97 1.15 2.16-1.95 6.6 3.12 5.1 5.9 4.4 4.74-1.21 8.63-.77 12.69 2.09 8.43 5.94 17.67 9.72 28.2 10.61 6.32.53 12.81 1.3 17.79 6.59 3.32 3.53 7.78 3.15 11.5.03 3.36-2.81 7.41-2.72 11.3-3.02 1.9-.15 4.2 1.06 4.5 3.27.36 2.65-1.93 2.98-3.98 3.39-1.73.34-4.62-.84-4.57 2.28.04 2.14 2.33 3.02 4.07 4.02 2.28 1.31 4.02.32 6.19-.71 4.24-2.01 7.33 1.33 9.6 3.94 2.45 2.81-1.75 3.08-2.9 4.6-2.95 3.9-.82 6.44 3.08 6.62 7.19.32 14.5 1.25 21.6-.8 2.17-.63 5.69.63 6.16-2.84.39-2.89-2.37-4.07-4.49-5.4-1.4-.88-3.83-1.47-2.88-3.64.95-2.15 1.69-6.18 3.97-5.77 8.57 1.56 18.1-.59 25.43 6.29 2.79 2.62 5.84 8.78 9.53.31.97-2.23 3.98-1.12 6.21-.76 17.14 2.74 32.63 10.86 49.36 15.06 7.83 1.97 16.34 2.23 23.31 7.43 2.19 1.63 5.23.45 6.38-2.04 1.28-2.75-1.12-3.84-3.34-4.73-1.51-.6-3.54-.73-3.81-3.89 3.98.57 7.77.93 11.48 1.72 1.7.37 3.56 1.95 3.16 3.71-1.49 6.59 2.73 6.19 6.92 6.09 2.26-.05 4.56-.07 6.42 1.49 5.85 4.92 17.07.77 19.49 11.49.03.13.45.27.68.25 5.06-.57 8.3 2.94 11.9 5.47 2.82 1.99 4.79 2.16 6.63-1.17 1.11-2.01 1.46-5.25 4.9-4.73 3.52.54-.01 4.76 3.4 6.19 3.01-3.54 7.56-5.69 8.18-11.57.55-5.25 3.41-6.45 8.38-3.4 3.53 2.17 6.77 6.09 11.13 5.66 6.42-.63 10.91 9.91 18.18 2.86.09-.09 1.25.71 1.72 1.26 7.56 8.65 19.96 6.55 28.68 12.79 1.63 1.17 4.58.43 5.84-1.94 1.1-2.08 1.39-4.36-.69-6.11-1.71-1.44-5.88-2.4-2.79-5.16 2.49-2.22 4.48-6.31 9.97-4.49 4.78 1.59 7.19 6.05 11.79 7.39 10.88 3.17 21.46 7.2 31.38 12.62 2.38 1.3 9.23 4.57.39 7.52-1.52.51-2.59 1.8-1.67 3.5 1 1.86 3.21 2.46 4.39 1.02 4.45-5.46 9.79-2.15 14.47-1.42 8.9 1.39 18.03 7.26 25.43-3.12.3-.42 1.53-.57 2.13-.34 4.51 1.77 8.76 2.87 12.01-2.29.19-.31 2.92.18 3.24.87 2.59 5.57 5.88 7.68 11.18 3.04.25-.22.96.08 1.45.16 6.68 1.05 13.46 4.29 19.78-1.4.73-.66 2.84.13 4.29.37 12.56 2.09 23.94 8.44 36.6 10.2 2.46.34 6.48.14 7.08 1.44 3.11 6.69 9.84 7.37 14.53 10.76 5.87 4.24 7.94 2.08 11.49-.31 5.48-3.69 15.36-3.49 15.64.91.23 4.11 3.46 5.8 4.17 9.06zm-317.87-14.99c-.3 4.13 1.77 5.98 5.78 5.99 2.99 0 5.95-.05 8.79 1.29 1.36.65 3.4 2.32 4.25-.43.64-2.06-1.14-3.13-2.87-3.69-4.98-1.59-9.94-3.29-15.96-3.02-4.32-7.66-21.62-12.13-29.03-7.42 8.85 6.03 18.86 6.81 29.04 7.28zm-32.76-22.25c-5.82-3.01-10.53-7.21-17.72-8.13-8.57-1.09-17.88-.58-25.64-3.82-13.61-5.68-28.08-8.11-41.95-12.58-11.9-3.83-24.2-7.06-36.29-10.68-1.8-.54-4.24-2-5.06.73-.68 2.28 1.71 3.3 3.59 4.02 16.42 6.24 32.59 13.24 50.04 16.39 2.63.47 5.81 1.12 6.47 4.32 1.24 6 6.08 7.85 10.8 9.12 7.75 2.09 14.99 5.48 22.57 7.95 3.43 1.12 8.68 4.79 10.07 1.84 1.89-4.01-4.42-5.25-7.27-7.51-1.68-1.33-4.78-1.66-3.61-4.59 1.08-2.68 3.8-1.64 5.94-1.19 1.46.31 2.84 1.18 4.29 1.28 7.93.53 15.34 5.4 23.77 2.85zm-199.77-16.72c-1.89.35-4.17-.61-4.84 1.54-.69 2.22 1.57 2.84 3.03 3.56 9.31 4.62 18.26 9.88 27.6 14.47 15.33 7.53 31.28 12.7 47.75 16.7 1.32.32 3.08 1.41 3.79-.7.61-1.79-1.21-2.45-2.24-3.44-8.92-8.55-20.93-12.23-31.89-14.76-12-2.78-21.68-9.03-32.28-13.88-3.72-1.71-7.32-2.74-10.92-3.49zm-376.56 46.23c.1-4.05-2.23-6-4.59-7.89-7.73-6.19-17.8-6.01-26.54-9.51-1.89-.76-4.95.15-5.23 2.88-.27 2.63 2.17 3.78 4.48 4.11 7.5 1.07 13.43 4.83 18.77 10.01 1.9 1.84 4.51 3.21 7.04 4.1 3.63 1.26 5.67-.6 6.07-3.7zm-33.17-128.54c3.43.44 5.42-1.46 4.46-5.69-1.16-5.13-4.41-9.98-7.51-13.25-2.43-2.56-9.48-.8-14.47-.82-.33 0-.88 1.17-.95 1.83-.62 6.35 10.79 17.93 18.47 17.93zm-61.91 97.51c.8 3.68 3.05 3.73 4.79 4.42 10.32 4.04 21.61 5.09 31.51 10.66 2.69 1.51 7.55 5.19 9.52.85 1.3-2.84-3.8-5.67-7.04-7.47-1.05-.58-2.35-.71-3.53-1.08-11.26-3.51-23.29-3.14-35.25-7.38zm37.31-111.63c-.21-.47-.41-.92-.62-1.37-2.58-5.34-18.86-12.87-24.49-11.22-1.09.32-2.51 1.03-2.9 1.94-.74 1.72 1 2.55 2.15 3.42 6.52 4.89 14.5 6.36 21.9 9.16 1.4.54 3.6.66 3.96-1.93zm519.73 63.85c-1.75.1-2.9.5-3.48 1.77-.77 1.68.39 2.76 1.32 3.91 6 7.35 15.72 6.6 23.25 10.65 1.69.91 4.1 1.69 5.03-.96.89-2.53-1.44-3.54-3.23-4.15-6.63-2.24-12.57-5.79-18.53-9.33-1.46-.88-3.15-1.38-4.36-1.89zm177.27 39.07c-4.07 8.3-8.34 7.54-13.66 3.4-2.33-1.81-7.4-2.08-7.96 1.86-.55 3.9-.8 9.22 4.35 11.59 1.59.73 3.41-.09 3.07-1.88-1.15-6.11 3.18-5.11 6.34-4.85 5.99.48 8.74-1.78 7.86-10.12zM639.7 983.85c-6.46-3.12-11.34-9.64-19.49-8.88-2.2.21-4.91.36-5.33 3.08-.35 2.27 2.08 2.96 3.64 4.16 6.55 5.05 14.07-.36 21.18 1.64zm-32.42-26.72c5.6 4.16 11.02 8.98 18.52 10.07 1.07.16 2.83-.23 3.28-.97 1.03-1.68-.8-2.41-1.83-3.42-5.37-5.28-12.42-5.55-19.97-5.68zm-182.71 17.33c2.3 6.51 8.13 9.41 13.08 13.17 1.18.89 3.04 1.06 4.03-.31 1.1-1.53-.49-2.6-1.33-3.75-3.83-5.31-10.18-6.44-15.78-9.11zM508 948.74c-.28-.44-.44-1.05-.81-1.24-5.43-2.74-10.86-5.48-16.36-8.08-.91-.43-1.96.16-2.3 1.27-.45 1.47.49 2.41 1.6 2.97 4.61 2.34 9.22 4.7 13.95 6.78 1.46.65 3.52.92 3.92-1.7zm558.67 93.13c-1.9-.2-5.78-2.5-5.78 3.26 0 2.01.17 4.59 2.9 4.01 3.66-.78 8.89-.81 9.49-5.35.5-3.89-3.48-1.78-6.61-1.92zm-621.72-65.29c-5.85-4.14-10.03-10.58-17.5-12.46 4.07 6.59 9.38 11.47 17.5 12.46zm445.95 38.79c-.76-2.77-1.71-5.59-5.38-5.83-2.17-.14-4.12.78-4.19 3.13-.13 3.85 3.1 4.58 5.93 5.29 1.81.46 3.44-.07 3.64-2.59zm298.54 24.8c-.14-1.97-1.08-3.53-3.15-3.2-2.13.34-4.63 1.05-4.68 3.84-.04 2.15 1.84 2.71 3.68 2.72 2.23.02 3.72-1.04 4.15-3.36zm-237.11 16c.23-1.62-.36-3.03-1.73-2.85-2.82.37-3.87 2.94-4.68 5.21-.59 1.65.52 2.95 2.36 2.85 3.41-.17 3.16-3.27 4.05-5.21zm270.11 6.3c-.19-2.06-1.45-3.33-3.7-3.48-1.61-.11-2.91.57-3.12 2.33-.28 2.39 1.21 3.63 3.28 4.1 2.08.47 3.14-.76 3.54-2.95zm101.2-1.28c-3.16 1.04-5.96 2.19-5.23 5.58.31 1.42 2.39 2.43 3.69 1.97 4.37-1.54.19-5.11 1.54-7.55zm-931.5-219.48c-3.34-2.01-6.02-.77-8.41 1.37-.28.25-.07 1.72.25 1.86 3.63 1.65 5.16-2.61 8.16-3.23zm721.23 197.54c4.48 1.9 7.53 2.15 11.69-.25-4.29-1.57-7.33-1.69-11.69.25zm-2.03 23.99c-.49-1.87-1.83-2.75-3.74-2.81-1.34-.05-2.72.41-2.29 1.97.58 2.13 2.56 2.87 4.59 2.98 1.25.07 1.46-1.02 1.44-2.14zm159.67-8.32c1.44 3.64 3.66 4.7 6.43 4.83 1.23.06 1.84-1.09 1.25-1.99-1.64-2.48-4.25-2.57-7.68-2.84zM446.42 939.45c-1.07-1.75-2.71-2.82-4.84-2.64-1.14.1-1.55 1.21-1 2.26.89 1.68 2.49 2.39 4.31 2.44 1.19.03 1.71-.75 1.53-2.06zm12.97 55.75c1.38-.29 2.5-.96 2.09-2.43-.54-1.91-2.32-2.39-4.05-2.51-1.1-.08-1.93.75-1.63 1.84.49 1.74 1.73 2.88 3.59 3.1zm653.44 51.35c-.39-1.1-1.24-2.26-2.92-2.37-1.1-.07-2.02.65-1.83 1.75.31 1.72 1.01 3.43 3.27 3.22 1.18-.11 1.5-1.09 1.48-2.6zM495.98 883.18c-.3-1.83-1.65-2.34-3.23-2.42-1-.05-2.29.05-2.19 1.35.14 1.79 1.82 2.17 3.26 2.46 1.03.22 2.01-.02 2.16-1.39zm377.92 130.26c-.25-1.38-1.11-2.14-2.49-2.17-1.05-.02-2 .43-2 1.64.01 1.49 1.02 2.13 2.4 2.1 1.01-.02 1.98-.27 2.09-1.57zM366.98 917.1c-.54-1.21-1.57-1.9-2.91-1.62-.52.11-1.3.98-1.26 1.43.13 1.39 1.21 2.14 2.56 2.16 1.14.02 1.77-.67 1.61-1.97zm230.89 61.89c1.02-.12 1.78-.54 1.5-1.42-.41-1.31-1.61-1.84-2.9-1.93-.87-.06-1.47.53-1.22 1.41.38 1.34 1.45 1.9 2.62 1.94zm-164.5-106.65c.87 0 1.49-.45 1.24-1.29-.18-.6-.76-1.28-1.32-1.49-.37-.14-1.42.42-1.48.79-.2 1.06.56 1.69 1.56 1.99zm655.89 150.91c-.79-.42-1.28-.79-1.83-.92-.14-.03-.72.76-.64 1.02.17.53.66.95 1.02 1.41.41-.42.81-.84 1.45-1.51zm-442.33-37.09c-.26.31-.52.61-.78.92.19.13.5.41.54.38.3-.26.54-.59.8-.89-.19-.13-.37-.27-.56-.41zm482.95 55.3c.19-.12.39-.25.58-.37-.24-.32-.47-.65-.75-.93-.04-.04-.37.23-.56.35.25.32.49.64.73.95zm174.45 20.7.15-.68c-.4-.06-.8-.13-1.19-.14-.05 0-.1.42-.15.64.4.07.8.13 1.19.18zm7.62 5.6c-.31-.26-.61-.52-.92-.78-.14.19-.42.5-.38.54.26.3.59.54.89.8.14-.18.28-.37.41-.56z" class="st0"/><path d="M51.45 706.9c-17.9-.37-35.16 3.79-52.49 7.47v-77.85c5.74 2.86 11.63 3.58 18.07 2.48 4.27-.73 10.6-1.77 12.86.48 6.54 6.51 14.92 4.7 21.9 5.52 21.17 2.47 42.56 3.56 63.94 3.55 3.22 0 6.47.32 9.65.87 27.69 4.82 55.6 7.92 83.48 11.33 9.96 1.22 19.98.05 29.8 1.94 16.42 3.17 33.11 3.62 49.68 5.33 16.72 1.73 33.42 4.45 50.24 4 10.86-.29 20.93 4 31.76 3.58 12.97-.5 25.95 2.23 38.48 4.39 21.16 3.66 42.49 4.12 63.6 5.22 25.56 1.33 50.63 5.83 76.03 7.86 17.33 1.38 34.55 4.47 51.98 4.78 15.11.27 30.11 2 45.28 2.14 24.63.23 49.26 2.32 73.93 2.37 3.95.01 7.96-1.21 11.85-.84 21.51 2.08 43.02-.54 64.59.56 26.67 1.36 53.46.4 80.2.26 5.64-.03 11.37-.06 16.95-.15 7.83-.13 15.89-3.57 23.57-.3 4.46 1.91 8.57 2.21 13.02.61 3.89-1.4 7.72-1.36 11.63.27 4.2 1.76 8.24 2.45 8.25-6.61 3.81 6.52 7.15 10.56 12.75 9.99 6.56-.67 12.83.84 19.19 1.61 28.15 3.43 56.14 8 84.65 8.31 15.63.17 30.62-4.35 46.02-4.56 31.81-.43 63.51-3.37 95.25-4.24 25.9-.7 50.85-6.39 76.18-10.07 27.36-3.97 54.83-2.65 82.22-1.84 25.33.75 50.6 3.7 75.91 5.48 17.38 1.22 34.92 1.11 52.15 3.36 33.2 4.33 66.49 5.66 99.9 5.66 3.74 0 7.48.81 11.13.93 13.97.47 28.18 1.84 41.89-.07 29.41-4.1 58.85-6.36 88.49-6.98 6.84-.14 11.89 2.27 16.72 6.7 4.36 3.99 8.51 8.98 14.77 9.67 24.48 2.69 48.85 6.7 73.61 6.24 5.24-.1 10.52-.21 15.73.24 20.81 1.79 41.6 3.8 62.4 5.73v83.84c-8.79-.31-17.27 2.67-25.93 2.86-33.49.71-67.01 1.89-100.46.98-13.91-.38-27.73.72-41.44 1.3-30.79 1.3-61.6.82-92.39 1.87-16.76.57-33.64-1.41-49.95 3.67-8.63 2.69-17.01-1.93-25.17.02-11.16 2.67-22.28.55-33.36.78-7.48.16-14.48 2.6-22.02 2.23-9.25-.45-18.39-3.96-27.38-2.84-17.52 2.19-34.82-.71-52.2-.77-27.1-.11-54.11-3.72-81.26-4.13-6.98-.11-13.94.06-20.94-.47-15.38-1.18-30.87-2.77-46.2-2.03-10.45.51-20.92.46-31.35 1.1-5.95.36-11.98-.19-17.73-.6-10.66-.76-21.25.1-31.86-.16-7.45-.18-14.45-.02-21.43-3.43-3.12-1.53-7.29-.48-10.91 1.1-5.96 2.6-12.97 3.21-18.24.57-8.32-4.16-16.84-3.63-25.07-3.09-8.75.58-17.24.97-25.99-.14-5.96-.75-12.67-2.17-18.13 2.06-4.28 3.32-7.45 9.86-13.97 3.02-.75-.79-2.02 1.01-2.88 1.86-1.21 1.21-2.86 1.66-4.05.57-4.39-3.98-9.45-1.77-14.25-1.83-11.45-.15-22.95-.85-34.33-.54-12.72.35-25.56 1.38-38.11.06-12.43-1.3-24.52 4.36-36.85.47-2.99-.94-6.16-.92-9.53-.51-19.26 2.31-38.7 1.65-57.95.9-10.43-.41-21.36 3.8-31.55-1.75-.53-.29-1.47.08-2.2.26-7.43 1.81-14.82 1.58-22.2-.37-2.65-.7-5.14-1.23-7.87.46-2.88 1.79-6.33 1.28-9.49.41-4.94-1.36-9.91-.78-14.89-.74-8.13.06-16.07 1.45-24.42.01-19.96-3.45-40.29-3.92-60.51-4.52-14.21-.42-28.3-1.26-42.45-2.74-12.62-1.32-25.12-9.12-38.22-2.09-.19.1-.55.1-.73-.02-6.66-3.96-14.17-1.34-21.1-2.69-17.53-3.41-35.45-1.96-53.02-4.59-1.64-.25-3.93.76-4.74-1.14-1.05-2.48 3.88-1.13 2.92-4.33-4.61-.45-9.86-4.43-13.19 2.91-.37.81-2.81 1.24-4.12.98-10.96-2.2-22.24-1.06-33.11-2.73-14.94-2.29-29.85-6.02-44.68-8.17-14.19-2.06-28.31-4.36-42.36-7.2-7.28-1.47-13.59-6.6-21.5-5.76-1.23-.17-2.56-.08-3.68-.53-37.72-15.15-78.16-18.98-117.3-28.22-24.9-5.88-50.49-8.45-75.03-16.16-21.78-6.85-43.61-13.75-65.78-19.13-27.75-6.71-56.45-3.83-84.66-6.29z" class="st1"/><path d="M397.9 777.25c7.91-.84 14.22 4.29 21.5 5.76 14.05 2.84 28.17 5.14 42.36 7.2 14.83 2.15 29.74 5.88 44.68 8.17 10.87 1.66 22.15.53 33.11 2.73 1.31.26 3.75-.17 4.12-.98 3.34-7.34 8.58-3.36 13.19-2.91.96 3.2-3.98 1.86-2.92 4.33.81 1.9 3.1.9 4.74 1.14 17.57 2.64 35.48 1.18 53.02 4.59 6.93 1.35 14.44-1.27 21.1 2.69.19.11.54.12.73.02 13.11-7.03 25.6.77 38.22 2.09 14.16 1.48 28.25 2.31 42.45 2.74 20.22.6 40.54 1.08 60.51 4.52 8.35 1.44 16.29.05 24.42-.01 4.98-.03 9.95-.62 14.89.74 3.15.87 6.6 1.37 9.49-.41 2.73-1.69 5.22-1.16 7.87-.46 7.37 1.95 14.76 2.19 22.2.37.72-.18 1.67-.54 2.2-.26 10.18 5.55 21.11 1.34 31.55 1.75 19.25.75 38.7 1.41 57.95-.9 3.36-.4 6.53-.43 9.53.51 12.33 3.89 24.42-1.78 36.85-.47 12.55 1.32 25.39.29 38.11-.06 11.38-.31 22.88.4 34.33.54 4.79.06 9.86-2.15 14.25 1.83 1.19 1.08 2.84.64 4.05-.57.86-.86 2.13-2.65 2.88-1.86 6.52 6.84 9.69.29 13.97-3.02 5.47-4.23 12.17-2.82 18.13-2.06 8.76 1.1 17.24.72 25.99.14 8.24-.54 16.75-1.07 25.07 3.09 5.27 2.63 12.28 2.03 18.24-.57 3.62-1.58 7.79-2.63 10.91-1.1 6.98 3.42 13.98 3.25 21.43 3.43 10.6.26 21.19-.6 31.86.16 5.75.41 11.79.96 17.73.6 10.43-.64 20.9-.6 31.35-1.1 15.34-.74 30.83.85 46.2 2.03 7 .54 13.96.37 20.94.47 27.15.41 54.16 4.02 81.26 4.13 17.39.07 34.68 2.96 52.2.77 8.99-1.12 18.13 2.39 27.38 2.84 7.54.37 14.54-2.07 22.02-2.23 11.07-.24 22.2 1.88 33.36-.78 8.16-1.95 16.54 2.67 25.17-.02 16.3-5.08 33.18-3.1 49.95-3.67 30.79-1.04 61.6-.57 92.39-1.87 13.71-.58 27.53-1.68 41.44-1.3 33.46.91 66.98-.26 100.46-.98 8.66-.18 17.14-3.17 25.93-2.86v128.76c-1 .04-2 .12-2.99.12-2.52.01-6.92 6.46-7.04-2.02 0-.22-1.01-.74-1.21-.61-5.88 3.85-11.69 1.57-17.66.25-1.17-.26-3.47 2.04-4.39 3.65-3.69 6.47-10.18 6.53-16.25 7.49-2.91.46-5.87-1.72-8.82-.14-7.48 4-15.73 4.14-23.87 4.67-1.82.12-4.94 2.71-5.49-.87-.39-2.54 2.81-3.26 5-3.37 5.38-.28 10.7-.56 15.97-2.96-6.77-5.19-13.74-7.99-20.17-6.4-16.01 3.95-32.5 5.2-48.56 4.12-16.19-1.08-31.97 1.05-47.3 3.84-13.75 2.5-27.21 4.44-41.09 4.28-1.47-.02-2.93.54-4.41.75-18.26 2.58-36.57 1.95-54.92 1.19-10.94-.45-21.78-3.03-32.79-1.76-12.38 1.42-24.86 2.49-37.04-.55-7.18-1.79-15.78 4.02-21.71-4.11-.27-.37-1.47-.23-2.18-.06-11.91 2.74-24.13 1.09-36.13 2.69-9.19 1.22-18.68 4.78-26.94-3.3-1.99-1.95-3.9.43-5.62 2.01-5.24 4.8-11.57 7.22-18.59 5.92-24.37-4.53-48.84-.64-73.12.1-10.1.31-20.63-.33-30.93 1.29-5.56.87-11.83 2.67-16.97 1.27-13.84-3.78-28.01-3.89-42.01-4.92-12.29-.91-25.4-4.33-36.94.06-9.25 3.52-17.54 3.97-26.63 2.39-.48-.08-1 .02-1.5.03-13.69.25-27.51 4.7-41.05-1.25-.72-.32-1.9.35-2.84.62-11.59 3.29-23.46 3.73-35.39 3.45-3.65-.09-5.98-1.52-3.48-5.66 1.53-2.53.62-5.07-1.91-5.2-9.41-.49-18.35-5.49-27.94-3.32-7 1.59-13.45.72-19.45-2.91-3.38-2.04-5.75-3.16-6.91 2.04-.5 2.26-2.8 3.77-4.38 1.47-4.85-7.03-11.05-9.36-19.34-7.58-1.53.33-3.54-1.49-5.3-2.37-2.67-1.32-5.19-3.1-8-3.93-3.98-1.18-7.24-2.19-5.26-7.49.94-2.52-.73-3.77-3.13-3.78-1.89-.01-4.4-.97-5.45 1.2-1.08 2.22 1.44 2.71 2.75 3.67 1.12.82 3.07 1.27 1.69 3.29-.89 1.3-2.23 2.08-3.84 1.86-2.3-.31-4.31-1.42-5.88-3.06-3.21-3.34-6.41-5.49-11.05-2.16-1.92 1.38-4.47.9-3.81-2.07.82-3.67.14-5.64-3.61-6.61-3.66-.95-6.69-1.04-9.25 2.52-2.61 3.63-6.02 3.61-6.84-1.04-1.06-6.07-4.59-5.6-8.73-4.6-2.02.48-3.86.42-5.88 0-4.18-.87-8.31-1.78-10.86 3.48-.96 1.98-4.55 3.17-5.33.33-2.28-8.36-7.68-4.24-11.67-3.03-3.02.91-5.78 2.22-8.44.26-5.42-4-11.42-2.91-17.54-3.41-16.82-1.39-33.5-4.33-50.28-6.31-6.05-.72-12.13-3.26-18.43-.73 26.18 8.9 52.77 15.76 79.83 21 5.9 1.14 12.88-1.09 17.61 4.09 2.49 2.73 4.48 3.67 7.58 1.45 2.02-1.45 4.19-.78 6.46-.51 5.91.71 12.21 4.16 17.23 3.22 11.16-2.1 21.64 1.85 32.5 1.18 3.89-.24 8.88-.11 12.61 3.89-2.8 2.09-5.47 2.5-8.05 3.24-2.04.59-4.18 2.14-1.32 3.91 4.82 2.99 9.63 7.28 15.5 6.72 3.91-.37 3.9-5.87 6.03-8.82 1.18-1.63 1.51-5.35 4.32-3.84 3.19 1.72.85 4.69-.7 6.27-4.8 4.92-1.41 5.76 2.86 6.82 3.88.97 5.66-.17 5.87-4.21.12-2.28 2.16-5.88 3.58-2.42 3.99 9.7 11.75 5.98 18.34 6.7 1.7.18 3.54-.15 5.12.36 12.77 4.14 25.39 2.29 38.01-.7 3.94-.93 7.93-.94 11.88-.05 1.44.32 2.96.99 3.34 2.65.52 2.29-1.42 2.91-2.89 3.77-2 1.17-4.03 1.64-6.43 1.01-4.55-1.2-8.67.17-13.03 1.83-7.34 2.79-14.8 6.83-22.93 4.96-13.98-3.21-28.2-1.62-42.25-2.39-22.62-1.24-45.38-.78-67.88-3.6-13.89-1.74-27.95.04-41.69-3.06-3.22-.73-7.66-3.31-9.37.48-1.27 2.83 3.27 4.96 5.69 6.97 1.73 1.43 4.36 2.73 1.62 5.13-2.19 1.91-4.93 1.47-6.38-1.14-1.35-2.45-2.51-4.69-5.3-5.92-10.24-4.52-20.95-7.75-31.43-11.62-15.62-5.76-32.65-7.94-46.69-17.73-5.86-4.09-12.25-6.04-19.21-7.03-17.91-2.54-35.2-8.7-53.71-8.18-6.05.17-12.41-.6-18.57-1.25-8.35-.89-17.44-.72-24.64-4.85-9.49-5.44-20.19-3.28-29.69-8.26-.43 4.4 4.71 4.19 3.7 8.82-12.19-6.31-26-4.67-38.51-9.2-2.37-.86-4.05-1.12-6.15.47-7.72 5.83-19.65 4.52-26.23-2.66-4.58-5-9.56-9.87-15.96-12.05-6.97-2.37-.58-8.2-3.81-11.19 2.69-2.38 5.58-1.41 8.34-.29 1.59.65 2.98 1.79 4.48 2.69 7.74 4.65 15.54 8.55 25.18 6.87 4.07-.71 8.94-.93 12.56.65 7.13 3.11 13.49 8.51 21.63 2.63.53-.38 1.87.54 2.85.6 23.61 1.25 46.12 10.69 70.06 9.45 3.02-.16 7.83 3.59 8.59-.21.9-4.49-5.13-2.8-7.95-3.98-15.74-6.58-32.8-7.58-49.35-10.5-8.85-1.56-18.14-2.19-25.98-6.17-14.97-7.61-31.22-10.04-47.17-13.17-18.98-3.73-37.39-8.36-54.79-17.03-14.19-7.07-29.11-12.37-46.05-15.54 3.98 6.79 9.84 9.09 15.75 11.3 3.96 1.48 10.49 2.8 10.03 6.52-1.11 9.05 6.04 8.99 10.51 11.45 5.42 2.99 11.51 4.75 17.24 7.21 1.46.63 4.06 2.54 2.06 3.59-3.58 1.89-4.44 3.71-3.52 7.5.47 1.94-1.83 2.32-3.12 1.32-3.21-2.51-7.14-3.64-10.75-5.33 1.34-3.47 4.65.46 5.87-2.55-.34-.44-.66-1.34-1.19-1.49-14.66-4.13-26.96-16.45-43.91-12.59-11.46-6.6-24.01-9.81-36.91-12.09-2.72-.48-4.83-2.36-6.93-4.24-3.15-2.81-6.41-5.6-9.99-7.8-4.03-2.46-4.88-3.9.51-5.14 3.88-.89 3.91-2.64.94-4.85-4.37-3.26-7.78-7.64-12.7-10.31-2.36-1.28-5.16-2.88-4.64-7.95 8.71 5.44 19.23 7.24 24.61 14.65 10.76 14.83 28.02 13.13 41.87 20.52 1.05-3.97-.74-5.38-2.71-6.47-12.67-6.97-25.7-13.35-37.97-20.98-8.47-5.26-18.18-8.48-25.82-14.67-6.87-5.56-14.36-7.96-22.58-8.64-4.67-.39-8.81-1.52-12.73-3.79-4.55-2.63-9.74-3.82-14.34-5.93-6.84-3.13-15.28-3.37-20.47-9.92zm612.56 175.65c-6.09-3.97-9.77-6.2-16.35-6.65-8.49-.59-17.14-.51-25.67-1.25-1.85-.16-4.47-.36-4.5 2.51-.02 2.68 2.02 3.13 4.24 2.49 2.52-.73 4.56.12 5.84 2.13 2.56 4.02 5.88 4.69 10.26 3.45 2.67-.76 5.4.18 7.89 1.48 1.82.94 4.01 1.83 5.56.2 3-3.16 7.06-3.15 12.73-4.36zm-160.63-30.12c-5.8-5.57-26.55-13.11-33.5-12.26-1.45.18-3.33-.03-3.67 1.81-.46 2.56 1.87 2.64 3.45 2.85 8.83 1.19 17.57 2.61 25.89 6.04 2.37.98 4.86 2.54 7.83 1.56zm101.35 14.7c-2.16.16-5.35-.38-5.08 2.02.47 4.13 4.72 4.45 7.99 5.24 1.65.4 4.33.16 4.01-1.94-.54-3.65-3.98-4.58-6.92-5.32zm-424.7-85.1c3.5 3.77 5.88 5.85 10.65 4.53-2.74-2.97-5.31-4.32-10.65-4.53zm25.14 6.81c1.17-.2 1.79-1.03 1.2-2.05-.42-.74-1.42-1.39-2.27-1.58-1.05-.24-2.02.47-1.78 1.66.28 1.38 1.43 1.92 2.85 1.97zm1314.32 85.69c-.12-.05-.74-.49-1.4-.57-1.11-.14-1.92.58-2 1.6-.04.47.68 1.32 1.18 1.44 1.08.26 1.79-.41 2.22-2.47zm-849.08.35c-.82-.66-1.22-1.15-1.74-1.34-.29-.1-1.11.39-1.09.5.11.53.32 1.35.67 1.46.47.14 1.12-.28 2.16-.62zm-239.62-41.95c-.81-.29-1.34-.61-1.86-.61-.21 0-.69.83-.58 1.06.25.5.79.86 1.21 1.27.35-.48.69-.96 1.23-1.72zm395.24 47.24c.89-.12 1.54-.51 1.26-1.44-.1-.34-.76-.7-1.18-.72-.85-.02-1.5.47-1.22 1.39.11.36.77.54 1.14.77zM1087 939.2c.21.41.32 1.04.65 1.2 1 .49 1.34-.21 1.22-1.03-.05-.37-.53-.85-.9-.94-.24-.05-.63.49-.97.77z" class="st1"/><path d="M1918.67 732.33c-20.8-1.93-41.59-3.94-62.4-5.73-5.21-.45-10.49-.33-15.73-.24-24.75.46-49.13-3.55-73.61-6.24-6.26-.69-10.42-5.69-14.77-9.67-4.83-4.43-9.89-6.84-16.72-6.7-29.64.62-59.09 2.88-88.49 6.98-13.71 1.91-27.92.55-41.89.07-3.65-.12-7.38-.93-11.13-.93-33.41 0-66.7-1.33-99.9-5.66-17.24-2.25-34.77-2.14-52.15-3.36-25.31-1.78-50.57-4.73-75.91-5.48-27.38-.81-54.86-2.13-82.22 1.84-25.33 3.67-50.28 9.36-76.18 10.07-31.75.86-63.44 3.81-95.25 4.24-15.4.21-30.39 4.73-46.02 4.56-28.51-.31-56.5-4.88-84.65-8.31-6.36-.78-12.63-2.29-19.19-1.61-5.6.57-8.94-3.47-12.75-9.99-.02 9.05-4.05 8.37-8.25 6.61-3.91-1.64-7.74-1.67-11.63-.27-4.44 1.6-8.55 1.29-13.02-.61-7.69-3.28-15.74.16-23.57.3-5.58.09-11.31.12-16.95.15-26.74.14-53.53 1.1-80.2-.26-21.57-1.1-43.08 1.52-64.59-.56-3.88-.38-7.89.84-11.85.84-24.67-.05-49.31-2.14-73.93-2.37-15.17-.14-30.17-1.87-45.28-2.14-17.43-.31-34.65-3.4-51.98-4.78-25.4-2.02-50.47-6.53-76.03-7.86-21.1-1.09-42.44-1.56-63.6-5.22-12.53-2.17-25.51-4.9-38.48-4.39-10.83.42-20.9-3.86-31.76-3.58-16.82.45-33.51-2.27-50.24-4-16.57-1.71-33.26-2.16-49.68-5.33-9.82-1.9-19.83-.72-29.8-1.94-27.88-3.41-55.79-6.51-83.48-11.33-3.17-.55-6.43-.88-9.65-.87-21.39.02-42.77-1.08-63.94-3.55-6.98-.82-15.36.99-21.9-5.52-2.26-2.25-8.59-1.21-12.86-.48-6.44 1.1-12.32.38-18.07-2.48V310.14c10.82-3.37 20.36-.3 27.39 7.76 6.56 7.52 11.56 16.22 19.85 22.43 8.47 6.34 14.01 15.95 22.94 21.96 11.79 16.19 28.72 25.64 46 34.47 4.31 2.21 8.76 4.48 14.01 4.76 12.18.65 24.04 3.02 35.67 6.99 20.61 7.04 42.16 8.92 63.71 10.6 21.02 1.97 42.01 4.43 63.08 5.72 14.78.9 29.41 1.96 44.47-1.72 18.68-4.57 37.93-7.6 57.34-8.37 1.71-.04 3.65.43 5.11-.19 10.25-4.4 20.11-4.22 29.99 1.31 2.38 1.34 5.61 1.17 8.45 1.69 2.07.87 4.13 1.74 6.2 2.61 2.49 5.92 1.22 12.09 1.21 18.17-.01 4.47-1.83 5.47-6.21 4-6.92-2.33-14.35-.48-18.07 4.87-3.84 5.53-7.9 6.86-13.64 6.67-2.28-.07-4.48.17-6.4 1.59-4.85 3.59-10.26 3.55-15.73 2.06-3.65-1-7.5-1.06-9.85 1.65-4.83 5.55-11.06 6.4-17.88 6.25 3.06 8.01.24 13.59-5.94 13.45-5.31-.12-11.17-7.07-16 1.02-.09.14-1.37-.29-1.99-.63-3.23-1.75-6.96-2.22-9.95-4.86-1.83-1.61-4.59-5.58-7.47-2.33-3.07 3.47 1.45 6.16 2.73 9.11.36.84 2.2.95 3.24 1.6 2.63 1.66 4.07 4.38 2.51 6.97-1.8 2.98-1.45 4.92.81 7.13.98.96 1.06 2.27.11 3.36-1.23 1.4-3.13 1.29-4.01.2-3.59-4.44-8.57-3.65-13.32-4.15-11.89-1.24-17.02 4.15-15.07 16.08.2 1.22.66 2.42-1.18 3.73-7.7-6.55-17.58-7.88-27.29-9.62-1.9-.34-4.31-.96-5.57.9-1.33 1.97.49 3.74 1.59 5.33 1.83 2.66 3.89 5.17 5.69 7.86.94 1.41 2.05 3.05.85 4.82-1.34 1.97-3.37 1.85-5.39 1.34-2.88-.73-5.47-3.53-8.79-1.63-.16 3.02 5.86 2.5 3.26 5.6-2.03 2.42-4.29-.31-6.24-1.9-3.07-2.5-6.68-2.32-9.73-.3-3.17 2.1-6.03 1.54-9.23.55-4.04-1.25-8.17-2.24-12.22-3.24-1.87-7.92-8.26-10.64-14.8-13.15-1.15-.44-2.61-.58-3.43.54-.93 1.26-.06 2.33 1.03 3.03 5.3 3.46 9.6 8.65 17.2 9.58.29 6.03-7.62 10.03-2.55 18.66-7.31-4.17-12.43-7.14-17.61-10.01-1.76-.97-3.8-1.85-5.6-.32-1.89 1.6-1.22 3.77-.17 5.47 2.33 3.78 3.67 9.83 6.51 11.25 11.18 5.59 15.47 18.35 26.26 23.75 9.12 4.57-4.5 10.24 1.12 14.72.11.09-.42 1.37-.91 1.71-.56.39-1.41.35-2.14.5-1.83.39-4.79-.88-5.2 1.56-.54 3.19 2.96 3.76 5.06 4.47 9.4 3.19 19.3 5.18 28.91 6.79 16.86 2.82 33.49 6.82 50.62 8.78 33.56 3.83 66.88 9.64 100.53 13.32 29.6 3.24 59.4 5.72 88.6 11.76 18.12 3.75 37.23.72 54.68 8.53 1.23.55 3.22.51 4.4-.11 7.98-4.24 15.49.03 22.96 1.48 4.14.81 8.16 1.79 12.43 1.88 15.83.36 31.28 4.19 47.37 3.74 12.76-.35 25.69 2.61 38.68 2.23 3.48-.1 6.96-.12 10.38.98 10.61 3.4 21.92 3.27 32.58 3 18.65-.47 36.94 2.82 55.52 3.08 15.39.22 31.12 1.05 46.6 4.33 8.12 1.71 16.62 4.35 24.65 4.35 8.04 0 14.77 9.18 23.2 2.79.18-.13.85.41 1.31.62 6.38 2.88 12.94 3.52 20.03 3.52 17.81 0 35.55-1.53 53.43-.85 15.95.61 31-6.26 45.73-12.06 9.81-3.86 19.69-6.77 30.07-8.48 4.9-.81 10.84-.87 12.44-7.52 9.47.16 18.98-.15 28.41.57 20.06 1.55 39.98 5.5 59.97 6.48 30.82 1.51 61.81 2.04 92.63-1.04 15.55-1.55 30.94-4.4 45.55-10.34 1.24-.01 2.6.3 3.71-.08 23.05-7.82 47.19-9.77 71.05-13.1 22.41-3.13 44.96-3.32 67.52-1.98 3.71.3 7.43.86 11.14.86 11.81.02 23.58 1.79 35.41.86 12.6 1.01 25.07 2.88 37.86 1.91 17.82-1.35 35.75-3.68 53.61-1 35.74 5.36 71.62 7.98 107.75 7.02l1.98-.12c1.91-.05 3.82-.1 5.72-.16 3 1.63 6.33 1.02 9.52 1.35 12.61 1.28 25.26 2.32 37.85 3.79 26.19 3.06 52.3 6.73 78.66 8.31 16.85 1.01 33.55 2.42 49.7 8.82 30.51 12.11 63.04 18.62 92.78 32.97-.05 12.53-.05 25-.05 37.48z" class="st2"/><path d="M397.9 777.25c5.18 6.55 13.63 6.79 20.48 9.92 4.6 2.1 9.79 3.29 14.34 5.93 3.92 2.27 8.06 3.41 12.73 3.79 8.21.68 15.71 3.08 22.58 8.64 7.64 6.19 17.36 9.41 25.82 14.67 12.26 7.62 25.3 14 37.97 20.98 1.97 1.08 3.75 2.5 2.71 6.47-13.85-7.39-31.1-5.69-41.87-20.52-5.38-7.41-15.9-9.22-24.61-14.65-.52 5.07 2.28 6.67 4.64 7.95 4.92 2.67 8.33 7.05 12.7 10.31 2.97 2.21 2.94 3.96-.94 4.85-5.39 1.24-4.54 2.68-.51 5.14 3.59 2.19 6.85 4.98 9.99 7.8 2.09 1.87 4.21 3.76 6.93 4.24 12.89 2.27 25.45 5.48 36.91 12.09 16.94-3.86 29.25 8.46 43.91 12.59.54.15.86 1.05 1.19 1.49-1.22 3-4.54-.93-5.87 2.55 3.61 1.68 7.53 2.82 10.75 5.33 1.29 1.01 3.59.62 3.12-1.32-.92-3.79-.06-5.62 3.52-7.5 2-1.05-.6-2.97-2.06-3.59-5.73-2.46-11.82-4.22-17.24-7.21-4.47-2.46-11.62-2.4-10.51-11.45.46-3.72-6.08-5.04-10.03-6.52-5.91-2.21-11.77-4.51-15.75-11.3 16.94 3.17 31.86 8.47 46.05 15.54 17.4 8.67 35.81 13.3 54.79 17.03 15.95 3.13 32.21 5.57 47.17 13.17 7.84 3.98 17.13 4.61 25.98 6.17 16.55 2.92 33.61 3.92 49.35 10.5 2.82 1.18 8.84-.51 7.95 3.98-.76 3.8-5.56.05-8.59.21-23.93 1.24-46.44-8.2-70.06-9.45-.98-.05-2.33-.98-2.85-.6-8.14 5.87-14.51.47-21.63-2.63-3.62-1.58-8.48-1.35-12.56-.65-9.64 1.67-17.44-2.22-25.18-6.87-1.49-.9-2.88-2.04-4.48-2.69-2.76-1.12-5.64-2.09-8.34.29 3.22 3-3.17 8.82 3.81 11.19 6.4 2.18 11.38 7.05 15.96 12.05 6.58 7.18 18.51 8.49 26.23 2.66 2.1-1.59 3.78-1.33 6.15-.47 12.51 4.53 26.32 2.89 38.51 9.2 1.01-4.63-4.12-4.42-3.7-8.82 9.5 4.98 20.19 2.82 29.69 8.26 7.2 4.12 16.29 3.96 24.64 4.85 6.16.65 12.52 1.42 18.57 1.25 18.51-.51 35.8 5.64 53.71 8.18 6.96.99 13.35 2.94 19.21 7.03 14.03 9.79 31.06 11.97 46.69 17.73 10.48 3.86 21.19 7.09 31.43 11.62 2.79 1.23 3.94 3.48 5.3 5.92 1.45 2.61 4.19 3.06 6.38 1.14 2.74-2.4.11-3.69-1.62-5.13-2.42-2.01-6.96-4.15-5.69-6.97 1.7-3.79 6.14-1.21 9.37-.48 13.74 3.11 27.81 1.32 41.69 3.06 22.5 2.82 45.26 2.36 67.88 3.6 14.05.77 28.27-.82 42.25 2.39 8.13 1.87 15.59-2.18 22.93-4.96 4.35-1.65 8.48-3.03 13.03-1.83 2.4.63 4.43.16 6.43-1.01 1.46-.86 3.41-1.48 2.89-3.77-.38-1.67-1.9-2.33-3.34-2.65a26.19 26.19 0 0 0-11.88.05c-12.62 2.99-25.24 4.84-38.01.7-1.58-.51-3.41-.18-5.12-.36-6.59-.71-14.35 3-18.34-6.7-1.42-3.46-3.46.14-3.58 2.42-.21 4.04-1.99 5.17-5.87 4.21-4.26-1.06-7.66-1.89-2.86-6.82 1.55-1.59 3.89-4.55.7-6.27-2.8-1.51-3.13 2.21-4.32 3.84-2.14 2.94-2.13 8.44-6.03 8.82-5.88.56-10.68-3.73-15.5-6.72-2.86-1.77-.72-3.32 1.32-3.91 2.58-.75 5.26-1.16 8.05-3.24-3.73-4-8.72-4.13-12.61-3.89-10.86.67-21.34-3.29-32.5-1.18-5.02.95-11.32-2.51-17.23-3.22-2.27-.27-4.44-.94-6.46.51-3.1 2.22-5.09 1.28-7.58-1.45-4.73-5.18-11.71-2.94-17.61-4.09-27.06-5.24-53.65-12.1-79.83-21 6.3-2.53 12.38.01 18.43.73 16.78 1.98 33.46 4.92 50.28 6.31 6.12.51 12.12-.59 17.54 3.41 2.66 1.96 5.42.66 8.44-.26 3.99-1.2 9.39-5.33 11.67 3.03.77 2.84 4.36 1.65 5.33-.33 2.55-5.25 6.69-4.35 10.86-3.48 2.02.42 3.86.49 5.88 0 4.14-.99 7.67-1.47 8.73 4.6.81 4.65 4.23 4.67 6.84 1.04 2.56-3.56 5.59-3.47 9.25-2.52 3.75.97 4.43 2.94 3.61 6.61-.66 2.96 1.89 3.45 3.81 2.07 4.64-3.33 7.83-1.19 11.05 2.16 1.58 1.64 3.58 2.76 5.88 3.06 1.61.21 2.95-.56 3.84-1.86 1.38-2.02-.58-2.47-1.69-3.29-1.31-.97-3.83-1.46-2.75-3.67 1.05-2.16 3.56-1.21 5.45-1.2 2.39.02 4.07 1.27 3.13 3.78-1.98 5.31 1.28 6.31 5.26 7.49 2.81.83 5.33 2.61 8 3.93 1.76.87 3.77 2.7 5.3 2.37 8.29-1.78 14.49.55 19.34 7.58 1.58 2.3 3.88.79 4.38-1.47 1.16-5.2 3.53-4.08 6.91-2.04 6 3.62 12.45 4.49 19.45 2.91 9.59-2.18 18.52 2.82 27.94 3.32 2.54.13 3.44 2.67 1.91 5.2-2.5 4.14-.18 5.57 3.48 5.66 11.92.28 23.8-.16 35.39-3.45.95-.27 2.12-.94 2.84-.62 13.53 5.95 27.35 1.5 41.05 1.25.5-.01 1.01-.12 1.5-.03 9.1 1.58 17.38 1.13 26.63-2.39 11.54-4.39 24.65-.97 36.94-.06 14 1.04 28.17 1.15 42.01 4.92 5.13 1.4 11.41-.4 16.97-1.27 10.29-1.61 20.83-.98 30.93-1.29 24.28-.74 48.76-4.63 73.12-.1 7.02 1.3 13.35-1.12 18.59-5.92 1.72-1.58 3.63-3.95 5.62-2.01 8.26 8.07 17.75 4.52 26.94 3.3 12-1.6 24.23.05 36.13-2.69.71-.16 1.92-.3 2.18.06 5.92 8.14 14.53 2.32 21.71 4.11 12.18 3.04 24.66 1.98 37.04.55 11.01-1.27 21.85 1.31 32.79 1.76 18.35.76 36.66 1.38 54.92-1.19 1.48-.21 2.95-.76 4.41-.75 13.88.16 27.35-1.78 41.09-4.28 15.33-2.79 31.1-4.92 47.3-3.84 16.06 1.07 32.55-.17 48.56-4.12 6.44-1.59 13.41 1.21 20.17 6.4-5.27 2.4-10.6 2.68-15.97 2.96-2.2.11-5.39.83-5 3.37.55 3.58 3.66.99 5.49.87 8.14-.53 16.39-.67 23.87-4.67 2.95-1.58 5.91.6 8.82.14 6.07-.96 12.57-1.02 16.25-7.49.92-1.61 3.22-3.91 4.39-3.65 5.98 1.31 11.78 3.6 17.66-.25.2-.13 1.21.38 1.21.61.12 8.48 4.52 2.03 7.04 2.02 1-.01 2-.08 2.99-.12 0 42.92-.11 85.84.15 128.76.03 5.13-1.01 6.14-6.15 6.13-169.97-.17-339.95-.14-509.92-.14.11-.49.16-.99.32-1.46 1.01-2.94 5.1-6.37-.47-8.54-4.82-1.89-7.56.6-8.14 5.59-.17 1.48-.47 2.94-.71 4.41h-4.5c-.71-3.25-3.94-4.95-4.2-9.04-.28-4.4-10.15-4.6-15.64-.91-3.54 2.38-5.62 4.55-11.49.31-4.69-3.39-11.42-4.07-14.53-10.76-.6-1.3-4.62-1.09-7.08-1.44-12.66-1.77-24.04-8.11-36.6-10.2-1.45-.24-3.57-1.03-4.29-.37-6.32 5.7-13.1 2.45-19.78 1.4-.49-.08-1.2-.37-1.45-.16-5.31 4.64-8.59 2.54-11.18-3.04-.32-.69-3.05-1.18-3.24-.87-3.25 5.16-7.5 4.07-12.01 2.29-.6-.23-1.83-.08-2.13.34-7.4 10.39-16.53 4.51-25.43 3.12-4.68-.73-10.03-4.05-14.47 1.42-1.18 1.45-3.39.84-4.39-1.02-.92-1.7.15-3 1.67-3.5 8.85-2.95 1.99-6.22-.39-7.52-9.92-5.42-20.5-9.45-31.38-12.62-4.6-1.34-7.01-5.8-11.79-7.39-5.49-1.83-7.48 2.26-9.97 4.49-3.09 2.76 1.07 3.72 2.79 5.16 2.08 1.76 1.79 4.04.69 6.11-1.26 2.37-4.21 3.1-5.84 1.94-8.72-6.24-21.12-4.14-28.68-12.79-.48-.54-1.63-1.34-1.72-1.26-7.26 7.05-11.76-3.5-18.18-2.86-4.36.43-7.6-3.49-11.13-5.66-4.97-3.05-7.82-1.85-8.38 3.4-.62 5.89-5.17 8.03-8.18 11.57-3.42-1.43.12-5.66-3.4-6.19-3.43-.52-3.79 2.72-4.9 4.73-1.83 3.33-3.8 3.16-6.63 1.17-3.59-2.53-6.83-6.04-11.9-5.47-.22.02-.65-.12-.68-.25-2.42-10.73-13.64-6.58-19.49-11.49-1.86-1.56-4.16-1.54-6.42-1.49-4.19.1-8.41.51-6.92-6.09.4-1.77-1.45-3.35-3.16-3.71-3.7-.79-7.5-1.15-11.48-1.72.27 3.16 2.3 3.29 3.81 3.89 2.22.89 4.62 1.97 3.34 4.73-1.15 2.49-4.19 3.68-6.38 2.04-6.97-5.2-15.48-5.46-23.31-7.43-16.73-4.21-32.22-12.32-49.36-15.06-2.23-.36-5.23-1.47-6.21.76-3.69 8.47-6.74 2.31-9.53-.31-7.33-6.88-16.86-4.73-25.43-6.29-2.27-.41-3.02 3.62-3.97 5.77-.95 2.17 1.47 2.76 2.88 3.64 2.12 1.32 4.88 2.51 4.49 5.4-.47 3.47-3.98 2.22-6.16 2.84-7.1 2.05-14.41 1.11-21.6.8-3.9-.17-6.04-2.72-3.08-6.62 1.15-1.52 5.35-1.78 2.9-4.6-2.27-2.61-5.36-5.95-9.6-3.94-2.18 1.03-3.91 2.02-6.19.71-1.74-1-4.03-1.88-4.07-4.02-.05-3.12 2.84-1.94 4.57-2.28 2.04-.4 4.34-.74 3.98-3.39-.31-2.22-2.6-3.42-4.5-3.27-3.88.3-7.93.21-11.3 3.02-3.72 3.12-8.18 3.5-11.5-.03-4.98-5.3-11.47-6.06-17.79-6.59-10.53-.89-19.77-4.67-28.2-10.61-4.06-2.86-7.95-3.29-12.69-2.09-2.78.71-7.85 2.2-5.9-4.4.35-1.19.11-1.78-1.15-2.16-9.09-2.72-17.99-5.87-27.85-5.03-7.86.67-15.42-.72-20.72-7.82-2.65-3.55-6.8-2.72-10.45-2.29-3.36.39-2.7 2.78-1.86 5.11 1.22 3.38 5.09 7.62 3.15 9.88-2.43 2.83-6.4-2.23-10.27-1.85-2.67.26-5.39-.42-3.17-4.31 2.16-3.78-1.08-4.4-3.33-4.86-22.21-4.51-38.49-20.35-57.89-30.2-3.79-1.92-7.11-4.63-11.73-3.94-1.72.25-3.64.02-4.41 2.06-.69 1.83-.05 3.53 1.28 4.78 3.82 3.57 7.65 8.23 12.68 8.84 8.16.99 13.67 6.17 21.41 10.18-5.33 1.8-9.79.73-14.09 1.11-1.62.14-3.91-.54-4.21 1.9-.21 1.69 1.82 2.1 2.87 3.08 2.26 2.1 8.62 1.71 6.4 6.2-2.14 4.32-7.12 1.5-10.86.34-.95-.29-1.96-.65-2.7-1.26-13.45-11.09-31.22-15.02-44.45-26.12-9-7.55-20.8-11.19-27.72-21.84-4.02-6.19-12.91-5.84-19.61-8.36-3.48-1.31-6.2-2.7-7.86-5.79 1.58-2.75 4.06.28 5.7-1.77-.14-.43-.16-1.32-.59-1.62-2.25-1.59-4.98-3.8-7.47-2.92-10.51 3.71-17.5-3.02-25.24-7.71-2.44-1.48-4.66-4.19-6.64.98-1.26 3.27-4.79 2.33-7.09.71-4.43-3.12-8.36-5.25-14.3-2.65-3.45 1.51-7.47-1.92-11.1-3.55-1.27-.57-2.86-1.7-3.78.35-.63 1.4.57 2.34 1.62 2.99 4.66 2.89 9.26 5.89 14.09 8.48 3.35 1.8 6.44 3.79 8.88 6.72 1.36 1.63 2.38 3.56 1.03 5.43-1.58 2.2-3.7.82-5.36-.13-9.93-5.67-19.89-11.3-29.62-17.3-2.79-1.72-5.39-3.1-8.64-3.93-6.77-1.72-10.98-7.18-13.47-13.09-1.45-3.45-4.39-6.6-4.44-11.21 3.41.07 5.88 1.19 6.46 4.19 1.2 6.25 7.44 7.68 10.82 11.81 1.1 1.35 3.24 1.66 4.76.28 1.75-1.59.38-3.13-.5-4.63-.97-1.66-2.99-3.48-1.5-5.32 1.75-2.15 4.14-.29 6.25.17 3.82.84 6.57 3.42 9.62 5.58 2.11 1.49 4.45 2.99 8.26 2.84-3.25-5.04-8.8-6.42-11.39-10.26-6.77-10.04-18.07-13.53-27.18-20.14-6.26-4.54-14-2.77-20.92-4.56-.43-.11-1.28.04-1.4.31-4.38 9.52-8.85 1.95-13.01-.07-17.49-8.52-36.19-13.42-54.77-18.69-7.92-2.25-15.22-6.51-23.46-7.59-3.86-.51-9.17-4.9-10.9 3.52-.53 2.57-3.9.17-5.8-.64a757.127 757.127 0 0 1-47.99-22.38c-9.17-4.68-19.7-5.24-29.17-9.2-3.2-1.34-6.58-2.03-9.26-4.52-1.03-.96-2.75-1.97-4-1.8-13.58 1.82-24.68-7.01-37.38-8.55-11.54-1.4-21.77-8.02-33.72-7.72-2.23.06-4.9-1.5-6.69-3.08-5.95-5.27-14.18-5.66-20.58-10.18-4.23-2.99-14.73 3.95-15.73 9.56-6.71-1.02-10.11-6.82-13.5-11.22-5.56-7.21-14.18-11.6-18-20.21 28.21 2.46 56.91-.41 84.66 6.32 22.17 5.38 44 12.28 65.78 19.13 24.54 7.71 50.12 10.28 75.03 16.16 39.14 9.24 79.58 13.07 117.3 28.22 1.14.42 2.47.33 3.7.5zM616.87 1079.68c-4.14-6.1-11.39-7.39-17.27-10.62-7.68-4.21-13.71-10.72-21.67-14.4-1.5-.69-2.91-2.16-2.14-4.25.5-1.36 2.04-2.1 3.01-1.42 9.48 6.61 22.99 2.81 31.3 11.87 3.9 4.26 7.72 8 13.23 10.32 6.07 2.55 11.83 4.48 18.56 3.06 4.69-.99 8.79.66 10.98 5.44h-36z" class="st0"/><path d="M1393.75 1079.68c.24-1.47.54-2.93.71-4.41.58-4.99 3.32-7.48 8.14-5.59 5.57 2.18 1.48 5.6.47 8.54-.16.47-.22.97-.32 1.46h-9z" style="fill:#130c0a"/><path d="M1368.26 1079.68c.6-3.01 1.43-5.91 5.3-5.84 4.04.07 3.58 3.18 3.7 5.84h-9zM1345.76 1079.68c.2-.9.35-2 1.5-2s1.3 1.1 1.5 2h-3zM1038.62 1042.44c-8.43 2.55-15.84-2.32-23.78-2.85-1.45-.1-2.84-.97-4.29-1.28-2.14-.45-4.86-1.49-5.94 1.19-1.18 2.92 1.93 3.25 3.61 4.59 2.85 2.26 9.16 3.5 7.27 7.51-1.39 2.95-6.64-.72-10.07-1.84-7.58-2.47-14.81-5.86-22.57-7.95-4.72-1.27-9.56-3.12-10.8-9.12-.66-3.2-3.84-3.85-6.47-4.32-17.45-3.15-33.62-10.15-50.04-16.39-1.88-.71-4.27-1.74-3.59-4.02.82-2.73 3.26-1.27 5.06-.73 12.09 3.62 24.39 6.86 36.29 10.68 13.88 4.46 28.35 6.9 41.95 12.58 7.76 3.24 17.07 2.73 25.64 3.82 7.2.92 11.91 5.12 17.73 8.13zM838.85 1025.72c3.6.75 7.2 1.78 10.91 3.48 10.6 4.85 20.28 11.09 32.28 13.88 10.96 2.54 22.97 6.22 31.89 14.76 1.04.99 2.85 1.65 2.24 3.44-.72 2.11-2.47 1.02-3.79.7-16.46-3.99-32.41-9.16-47.75-16.7-9.35-4.59-18.3-9.85-27.6-14.47-1.46-.72-3.72-1.34-3.03-3.56.68-2.14 2.97-1.18 4.85-1.53zM462.29 1071.95c-.4 3.1-2.44 4.97-6.06 3.69-2.53-.89-5.14-2.26-7.04-4.1-5.34-5.18-11.27-8.94-18.77-10.01-2.31-.33-4.75-1.48-4.48-4.11.28-2.72 3.34-3.63 5.23-2.88 8.74 3.5 18.8 3.32 26.54 9.51 2.35 1.9 4.68 3.84 4.58 7.9zM429.12 943.41c-7.67 0-19.09-11.58-18.47-17.93.06-.66.62-1.83.95-1.83 5 .02 12.04-1.74 14.47.82 3.1 3.27 6.35 8.12 7.51 13.25.96 4.23-1.04 6.14-4.46 5.69zM367.21 1040.92c11.96 4.24 23.98 3.87 35.24 7.39 1.18.37 2.48.49 3.53 1.08 3.24 1.8 8.34 4.63 7.04 7.47-1.98 4.33-6.84.66-9.52-.85-9.89-5.57-21.19-6.62-31.51-10.66-1.73-.69-3.98-.74-4.78-4.43zM404.52 929.29c-.35 2.59-2.56 2.47-3.96 1.93-7.4-2.8-15.38-4.27-21.9-9.16-1.15-.87-2.89-1.69-2.15-3.42.39-.91 1.81-1.62 2.9-1.94 5.63-1.65 21.91 5.88 24.49 11.22.21.45.4.9.62 1.37zM924.25 993.14c1.21.51 2.9 1.02 4.36 1.89 5.96 3.54 11.9 7.09 18.53 9.33 1.79.61 4.12 1.62 3.23 4.15-.93 2.65-3.34 1.87-5.03.96-7.53-4.05-17.26-3.31-23.25-10.65-.94-1.15-2.1-2.23-1.32-3.91.58-1.27 1.73-1.68 3.48-1.77zM1101.52 1032.21c.88 8.34-1.87 10.6-7.86 10.12-3.17-.25-7.5-1.26-6.34 4.85.34 1.79-1.48 2.61-3.07 1.88-5.14-2.37-4.9-7.68-4.35-11.59.56-3.94 5.63-3.67 7.96-1.86 5.32 4.14 9.59 4.9 13.66-3.4zM639.7 983.85c-7.11-2-14.63 3.42-21.18-1.63-1.56-1.2-3.99-1.89-3.64-4.16.42-2.72 3.13-2.88 5.33-3.08 8.15-.78 13.03 5.75 19.49 8.87zM1071.38 1064.84c-10.17-.62-20.19-1.4-29.03-7.42 7.41-4.71 24.71-.24 29.03 7.42zM607.28 957.13c7.55.13 14.61.4 19.98 5.68 1.03 1.01 2.86 1.74 1.83 3.42-.45.74-2.22 1.12-3.28.97-7.51-1.09-12.94-5.9-18.53-10.07zM424.57 974.46c5.6 2.67 11.95 3.8 15.79 9.11.84 1.16 2.42 2.23 1.33 3.75-.98 1.37-2.85 1.2-4.03.31-4.96-3.76-10.79-6.66-13.09-13.17z" class="st4"/><path d="M1071.38 1064.69c6-.12 10.97 1.57 15.95 3.16 1.73.56 3.51 1.63 2.87 3.69-.85 2.75-2.89 1.07-4.25.43-2.84-1.34-5.81-1.29-8.79-1.29-4.01-.01-6.07-1.86-5.78-5.99zM508 948.74c-.39 2.62-2.45 2.35-3.91 1.7-4.73-2.08-9.34-4.44-13.95-6.78-1.11-.56-2.04-1.5-1.6-2.97.34-1.11 1.39-1.7 2.3-1.27 5.5 2.6 10.93 5.34 16.36 8.08.36.19.52.8.8 1.24zM1066.67 1041.87c3.13.14 7.12-1.97 6.61 1.91-.59 4.54-5.83 4.58-9.49 5.35-2.73.58-2.9-2-2.9-4.01-.01-5.76 3.88-3.45 5.78-3.25zM444.95 976.58c-8.11-.99-13.42-5.87-17.5-12.46 7.47 1.88 11.65 8.32 17.5 12.46zM890.9 1015.37c-.2 2.52-1.83 3.05-3.64 2.59-2.83-.71-6.06-1.45-5.93-5.29.08-2.35 2.02-3.27 4.19-3.13 3.67.24 4.62 3.07 5.38 5.83zM1189.44 1040.18c-.43 2.31-1.92 3.36-4.16 3.35-1.84-.01-3.72-.57-3.68-2.72.05-2.78 2.55-3.5 4.68-3.84 2.08-.32 3.02 1.23 3.16 3.21zM952.33 1056.17c-.89 1.95-.64 5.05-4.05 5.22-1.85.09-2.95-1.21-2.36-2.85.81-2.28 1.86-4.84 4.68-5.21 1.37-.2 1.96 1.21 1.73 2.84zM1222.44 1062.47c-.4 2.19-1.47 3.42-3.54 2.95-2.06-.47-3.56-1.71-3.28-4.1.21-1.77 1.51-2.44 3.12-2.33 2.25.15 3.51 1.42 3.7 3.48zM1323.64 1061.19c-1.35 2.44 2.83 6.01-1.54 7.54-1.31.46-3.39-.55-3.69-1.97-.73-3.38 2.07-4.53 5.23-5.57zM392.14 841.71c-3.01.62-4.53 4.88-8.16 3.23-.32-.15-.53-1.61-.25-1.86 2.39-2.14 5.07-3.38 8.41-1.37zM1113.37 1039.25c4.36-1.94 7.41-1.82 11.69-.25-4.17 2.4-7.22 2.15-11.69.25zM1111.34 1063.24c.03 1.12-.19 2.21-1.44 2.14-2.03-.11-4.01-.84-4.59-2.98-.43-1.56.96-2.02 2.29-1.97 1.9.07 3.25.94 3.74 2.81zM1271.01 1054.92c3.42.27 6.03.36 7.68 2.85.59.89-.01 2.04-1.25 1.99-2.77-.14-4.99-1.2-6.43-4.84zM446.42 939.45c.18 1.3-.34 2.09-1.53 2.06-1.82-.05-3.42-.76-4.31-2.44-.55-1.04-.15-2.16 1-2.26 2.14-.18 3.78.89 4.84 2.64zM459.39 995.2c-1.86-.22-3.1-1.36-3.59-3.11-.3-1.09.53-1.91 1.63-1.84 1.73.12 3.51.6 4.05 2.51.41 1.48-.71 2.15-2.09 2.44zM1112.83 1046.55c.02 1.51-.3 2.49-1.48 2.6-2.26.21-2.96-1.5-3.27-3.22-.2-1.1.72-1.82 1.83-1.75 1.68.11 2.53 1.27 2.92 2.37zM495.97 883.19c-.14 1.36-1.12 1.6-2.15 1.39-1.44-.29-3.12-.67-3.26-2.46-.1-1.3 1.19-1.41 2.19-1.35 1.58.08 2.94.58 3.22 2.42zM873.89 1013.44c-.11 1.3-1.08 1.55-2.07 1.57-1.38.04-2.4-.61-2.4-2.1-.01-1.21.95-1.66 2-1.64 1.37.02 2.22.79 2.47 2.17zM366.98 917.1c.16 1.3-.47 1.98-1.6 1.97-1.36-.02-2.43-.76-2.56-2.16-.04-.46.74-1.33 1.26-1.43 1.34-.27 2.36.42 2.9 1.62zM597.87 978.99c-1.17-.04-2.24-.6-2.62-1.95-.25-.88.35-1.47 1.22-1.41 1.29.1 2.49.62 2.9 1.93.28.89-.47 1.3-1.5 1.43zM433.37 872.34c-1-.3-1.76-.93-1.57-2 .07-.37 1.12-.93 1.48-.79.57.22 1.15.89 1.32 1.49.26.84-.35 1.3-1.23 1.3zM1089.26 1023.25c-.64.67-1.04 1.09-1.45 1.51-.36-.46-.85-.89-1.02-1.41-.09-.26.5-1.05.64-1.02.55.13 1.04.49 1.83.92zM646.93 986.16l.56.41c-.26.3-.5.63-.8.89-.04.03-.35-.25-.54-.38.26-.31.52-.61.78-.92zM85.32 739.79c-.7.21-1.23.54-1.47.4-.36-.21-.53-.75-.75-1.17-.39-.75-.17-.98.55-.55.55.34 1.02.8 1.67 1.32zM1129.88 1041.47c-.24-.32-.49-.64-.73-.95.19-.12.52-.39.56-.35.28.28.51.61.75.93-.19.12-.38.24-.58.37zM1304.33 1062.16c-.4-.06-.79-.11-1.19-.17.05-.23.1-.64.15-.64.4 0 .8.08 1.19.14-.05.22-.1.44-.15.67zM1311.95 1067.76l-.41.56c-.3-.26-.63-.5-.89-.8-.03-.04.25-.35.38-.54.31.26.62.52.92.78zM1010.46 952.9c-5.67 1.21-9.72 1.2-12.72 4.36-1.55 1.64-3.74.75-5.56-.2-2.5-1.29-5.22-2.23-7.89-1.48-4.39 1.24-7.71.57-10.26-3.45-1.28-2.01-3.32-2.86-5.84-2.13-2.22.64-4.26.19-4.24-2.49.03-2.87 2.64-2.67 4.5-2.51 8.54.73 17.19.66 25.67 1.25 6.56.46 10.24 2.68 16.34 6.65zM849.83 922.78c-2.98.98-5.46-.58-7.82-1.56-8.33-3.43-17.06-4.85-25.89-6.04-1.57-.21-3.91-.29-3.45-2.85.33-1.84 2.21-1.63 3.67-1.81 6.94-.85 27.69 6.69 33.49 12.26zM951.18 937.48c2.94.74 6.38 1.67 6.92 5.31.31 2.11-2.36 2.34-4.01 1.94-3.27-.79-7.52-1.11-7.99-5.24-.27-2.39 2.92-1.85 5.08-2.01zM526.48 852.38c5.34.21 7.9 1.56 10.65 4.53-4.76 1.32-7.15-.75-10.65-4.53zM551.62 859.19c-1.42-.05-2.57-.59-2.84-1.96-.24-1.19.73-1.91 1.78-1.66.85.19 1.84.84 2.27 1.58.58 1.01-.04 1.84-1.21 2.04zM1865.94 944.88c-.43 2.05-1.14 2.73-2.22 2.47-.51-.12-1.22-.97-1.18-1.44.08-1.03.88-1.74 2-1.6.66.09 1.28.52 1.4.57zM1016.86 945.23c-1.05.33-1.69.76-2.17.62-.35-.1-.56-.92-.67-1.46-.02-.1.81-.6 1.09-.5.53.19.94.69 1.75 1.34zM777.24 903.28c-.54.76-.89 1.24-1.23 1.72-.42-.42-.96-.77-1.21-1.27-.11-.22.37-1.06.58-1.06.53 0 1.05.32 1.86.61zM1172.48 950.52c-.37-.24-1.03-.41-1.13-.76-.28-.93.37-1.42 1.22-1.39.42.01 1.08.38 1.18.72.28.92-.38 1.32-1.27 1.43zM1087 939.2c.34-.29.74-.83.98-.77.37.09.84.57.9.94.12.83-.22 1.53-1.22 1.03-.34-.16-.45-.79-.66-1.2z" class="st4"/><path d="M482.75 449.86c7.94 8.29 18.41 12.46 28.63 16.74 11.38 4.77 23.08 8.8 34.12 14.4 10.47 9.49 23.46 14.91 35.45 21.96 13.44 8.64 26.88 17.27 40.32 25.91 5.35 3.35 10.41 8.85 16.12 9.63 13.64 1.87 25.8 6.87 37.77 12.99 30.42 28.13 65.47 48.17 105.21 60.04 31.64 13.15 64.59 21.69 98.63 24.65 30.68 2.67 61.55 3.11 92.33 4.64 19.15.95 37.9 4.55 56.52 8.94-1.61 6.65-7.55 6.71-12.44 7.52-10.38 1.71-20.26 4.62-30.07 8.48-14.74 5.8-29.79 12.67-45.73 12.06-17.88-.68-35.62.85-53.43.85-7.08 0-13.65-.64-20.03-3.52-.45-.2-1.13-.75-1.31-.62-8.43 6.39-15.16-2.79-23.2-2.79-8.03 0-16.53-2.64-24.65-4.35-15.49-3.27-31.22-4.11-46.6-4.33-18.57-.26-36.86-3.56-55.52-3.08-10.67.27-21.97.4-32.58-3-3.43-1.1-6.9-1.08-10.38-.98-12.99.38-25.92-2.59-38.68-2.23-16.08.45-31.54-3.38-47.37-3.74-4.26-.1-8.28-1.08-12.43-1.88-7.47-1.45-14.98-5.72-22.96-1.48-1.18.63-3.17.66-4.4.11-17.44-7.81-36.56-4.78-54.68-8.53-29.2-6.04-59-8.52-88.6-11.76-33.64-3.68-66.96-9.49-100.53-13.32-17.12-1.96-33.76-5.96-50.62-8.78-9.61-1.61-19.51-3.6-28.91-6.79-2.1-.71-5.6-1.28-5.06-4.47.42-2.44 3.38-1.18 5.2-1.56.72-.15 1.58-.11 2.14-.5.49-.35 1.02-1.62.91-1.71-5.62-4.49 8-10.16-1.12-14.72-10.79-5.4-15.08-18.16-26.26-23.75-2.84-1.42-4.18-7.47-6.51-11.25-1.05-1.7-1.72-3.87.17-5.47 1.8-1.53 3.84-.65 5.6.32 5.18 2.86 10.3 5.84 17.61 10.01-5.06-8.63 2.84-12.63 2.52-18.76 4.09 1.1 8.21 2.09 12.25 3.34 3.2.99 6.05 1.55 9.23-.55 3.05-2.02 6.67-2.2 9.73.3 1.94 1.59 4.21 4.32 6.24 1.9 2.6-3.11-3.41-2.58-3.26-5.6 3.31-1.89 5.9.9 8.79 1.63 2.02.51 4.05.63 5.39-1.34 1.21-1.77.1-3.41-.85-4.82-1.8-2.69-3.85-5.19-5.69-7.86-1.09-1.59-2.92-3.36-1.59-5.33 1.26-1.86 3.67-1.24 5.57-.9 9.72 1.73 19.59 3.07 27.29 9.62 1.84-1.32 1.38-2.52 1.18-3.73-1.95-11.94 3.18-17.32 15.07-16.08 4.74.49 9.73-.29 13.32 4.15.88 1.09 2.78 1.2 4.01-.2.96-1.09.87-2.4-.11-3.36-2.26-2.21-2.61-4.16-.81-7.13 1.56-2.59.12-5.31-2.51-6.97-1.03-.65-2.87-.76-3.24-1.6-1.28-2.95-5.79-5.64-2.73-9.11 2.88-3.25 5.64.72 7.47 2.33 2.99 2.64 6.72 3.11 9.95 4.86.63.34 1.91.77 1.99.63 4.83-8.09 10.69-1.14 16-1.02 6.17.14 9-5.44 5.94-13.45 6.81.15 13.05-.7 17.88-6.25 2.35-2.7 6.2-2.64 9.85-1.65 5.47 1.49 10.87 1.53 15.73-2.06 1.92-1.42 4.13-1.67 6.4-1.59 5.74.18 9.8-1.14 13.64-6.67 3.72-5.36 11.15-7.21 18.07-4.87 4.38 1.48 6.2.48 6.21-4 .02-6.08 1.28-12.25-1.21-18.17 7.48-.15 12.6 3.89 18.14 8.52 7.83 6.47 12.38 16.1 21.48 21.15z" class="st2"/><path d="M218 525.91c-7.64-1.02-11.94-6.22-17.24-9.68-1.08-.71-1.96-1.78-1.03-3.03.83-1.11 2.29-.98 3.43-.54 6.55 2.51 12.93 5.24 14.84 13.25z" class="st2"/><path d="m1642.46 639.93 1.98-.12-1.98.12z" style="fill:#6a676f"/><path d="M305.38 275.4c-.15.36-.35 1.16-.51 1.15-.66-.04-1.31-.32-1.96-.51.18-.43.24-1.06.56-1.23.71-.39 1.47-.3 1.91.59z" style="fill:#feb38e"/></svg>