<svg xmlns="http://www.w3.org/2000/svg" xml:space="preserve" id="Calque_1" x="0" y="0" style="enable-background:new 0 0 1920 1080" version="1.1" viewBox="0 0 1920 1080"><style>.st1{fill:#ffcbf2}.st2{fill:#847e7a}.st3{fill:#eaf3f0}.st4{fill:#928581}.st5{fill:#c0fdff}.st6{fill:#d0d1ff}.st7{fill:#deaaff}.st8{fill:#c8e7ff}.st9{fill:#509980}.st11{fill:#e3ad86}.st13{fill:#fde7cf}.st14{fill:#7d95d6}.st15{fill:#f5d7c0}.st16{fill:#e16b79}.st17{fill:#61ad8e}.st18{fill:#a29793}</style><g id="fond"><path d="M-33-30h2013v1152H-33z" style="fill:none;stroke:#000;stroke-width:1.1232;stroke-miterlimit:10"/><path d="M-33-67h2013v1194H-33z" class="st1"/></g><g id="chambre"><path d="M198.2 623.1c0-205 .1-410-.2-615 0-7.7.8-10.2 9.6-10.2 497.3.3 994.6.3 1491.8 0 8.9 0 9.5 2.6 9.5 10.2-.2 229.9-.2 459.8-.2 689.7-4 .1-8.1.1-12.1.2.2-14.4-9.5-25-14.7-37.3-2.7-6.5-2.9-15.3-11.5-18.5-.2-6.4-.5-12.8-.5-19.3V226.4c0-6.4 0-12.2-5.2-17.7-27.5-28.6-54.7-57.6-81.8-86.6-4.8-5.2-8.1-6.1-13.4-.3-24 25.9-48.2 51.6-72.6 77.1-10 10.5-15.4 21.4-15.3 37 .7 92 .1 183.9 0 275.9-11.1 4.8-20.8 11.7-29.7 19.5-5.3 4.7-8.8 4.5-12.7-.7-5.8-7.6-11.8-15-17.2-22.9-21.4-31.6-48.2-57.2-82.5-74.8-19.8-10.1-39.8-14.2-62.1-11.5-13.5 1.6-24.1 10.6-37.5 11.3-4.6-5.1-9.1-10.1-13.7-15.2l.1.1c-.9-2.4-2.4-4.1-4.9-4.9l.1.1c-1-1.5-2.1-3.1-3.1-4.6 3-6.5 5.8-13.2 8.9-19.6 1.6-3.3 2.2-8.4 8.2-6.4 10.2 17.6 29.5 18.8 46.5 27.7-2.3-12.2-13.8-14.5-18.2-23.2 8.1-1.9 14.5 2 24.4 4.1-13-15.2-30.2-19.3-41.2-31.3 8.4-2.1 18.3 3.8 26.2-4.8-5.2-3.2-12.5-1-15.2-8.1 4.6-2.8 12.3-.6 12.8-7.8-17.9-2.9-35.7-4.3-53.5-2.8-9.4-2.9-5.1 4.9-5.1 7.6-.4 16.7-.2 33.4-.2 50.2-.8 0-1.6.1-2.4.1-6.4-14.1-12.8-28.2-19.9-43.6-3.7 3.8-6.4 6.6-9.1 9.4-14.1 8.2-19 24.6-32.3 33.3 8.1 4 14.9-8.9 18.9-2.1 3.4 5.8-6.1 11.7-10.9 17-.4.4-.2 1.3-.3 2.4 9.4 0 15.8-5.5 21.2-12 5.6-6.8 10.4-14.2 15.6-21.3 10.6 7.7 10.8 21.3 17.5 31.2-2.8 4.6-7.8 7.8-8.2 13.7-4.5 3.2-6.1 8.3-8.1 12.9-8.8 20-17.2 40.1-25.8 60.1-3.3-.1-6.5.5-8.7 3.2-12.1 14.7-24.9 29-36.2 44.4-16.7 22.9-32.6 46.4-47.4 70.6-16.7 27.3-33.3 54.6-44.9 84.5-31.1 0-62.2.1-93.2.1-.2-5.6-.6-11.2-.6-16.8V253.3c0-4.4.2-8.9-.3-13.2-1.9-18-13.8-29.3-31.1-29.9-4.3-4.5-9.9-2.4-14.8-2.4-114.6-.1-229.1-.1-343.7-.1-22.9 0-45.8.3-68.7.4-20.4 2.8-32.7 16.1-33.4 36.6-.4 10.3-.4 20.6-.6 30.9-47.8-.1-95.6-.1-143.4-.2-8 0-15 2.3-20.8 7.9-3-3.4-1.9-7.6-1.9-11.5-.1-16.1-.2-32.1 0-48.2.1-7.7-.4-15.5-10.3-15.7-10.6-.2-11.4 7.8-11.4 16 .1 30.9 0 61.8 0 92.8-.1 77.1-.3 154.2-.4 231.3-5 .3-8.2 3.7-10.4 7.4-11.5 19.6-26.6 36.9-36.4 57.5-2.7 5.1-5.2 9.8-11.4 10.2z" class="st1"/><path d="M198.2 623.1c6.2-.5 8.7-5.2 11-9.9 9.9-20.6 24.9-37.9 36.4-57.5 2.2-3.7 5.4-7.1 10.4-7.4 0 49.9 0 99.8-.1 149.7-19.3 0-38.5-.1-57.8-.1.1-24.9.1-49.8.1-74.8z" class="st2"/><path d="M198.2 697.9c19.3 0 38.5.1 57.8.1.1 8.2.1 16.4.2 24.7-19.3 1.2-38.7-1.8-57.9 1.8-.1-8.9-.1-17.7-.1-26.6zM1708.8 722l-38.6.3v-22c.8-.7 1.6-1.5 2.4-2.2h24c4-.1 8.1-.1 12.1-.2.1 8.1.1 16.1.1 24.1z" class="st3"/><path d="M198.2 724.5c19.2-3.5 38.6-.5 57.9-1.8v25.9c-.7-.4-1.7-.7-2-1.3-12.5-23.6-34.2-21.9-55.9-20.5v-2.3z" class="st4"/><path d="M1239.9 433.1c13.3-.7 23.9-9.6 37.5-11.3 22.4-2.7 42.4 1.4 62.1 11.5 34.4 17.5 61.1 43.1 82.5 74.8 5.3 7.9 11.4 15.3 17.2 22.9 3.9 5.2 7.4 5.3 12.7.7 8.9-7.8 18.7-14.8 29.7-19.5-.1 62-.1 124.1-.2 186.1h-79.7c-22.1-14.6-36.2-36.2-49.3-58.2-40-67.7-70.2-140.6-112.5-207z" class="st2"/><path d="M1428.9 735.9c-9.6 1.5-17.4 7.8-26.6 10.3-25.8 1.2-50.9-2.9-75.7-9.5-11.4-7.5-18-19.8-28.1-28.7-.4-1.5-.4-3.3-1.2-4.6-29.7-52.5-52.4-107.8-66.8-166.5-.6-2.5-1-5.6-5.6-6.6-2.5 11.9-4.7 23.9-7.6 35.7-10.9 43.9-25.2 86.8-42.3 128.7-1.6 4-1.9 6.8 1.9 9.2-2.3 1.5-5.9 2.6-6.6 4.6-6 16.5-20.1 27.6-28.2 42.6-2.8-.1-5.6-.1-7.6-2.5 1.3-10 7-19.6 2.8-32.2-6.2 8.5-8.6 16.8-14.8 22.5-3.6-2.5-7.2-5.4-12-4.7-4 .5-6.2-6.7-11.5-2.2-10.7 9.1-24.2 13.1-36.7 18.9-5.1-1.3-17.8 5.2-9.7-9.6 5 .5 9.4-1.1 13.8-3.2 23.6-11.2 40-30 49.9-53.2 13-30.4 24.8-61.4 34.2-93.1 11.4-38.3 24.3-76.2 35.4-114.7 5.3-18.4 10.7-36.7 16-55 .4-6 5.4-9.2 8.2-13.7 2.2.2 4.4.3 6.6.5.2 3 2.1 4.1 4.8 4.2l-.1-.1c.1 3.2 1.7 4.9 4.9 4.9l-.1-.1c.2 2-.2 4.3.8 5.9 18.1 30.7 30.6 63.9 45.3 96.2 22.9 50.3 46.5 100.3 73.2 148.7 16.9 30.8 42.3 51.8 76 62.5 3 1 6.7.6 7.4 4.8zm-228.8-167.6c-1.1-.1-2.2-.3-3.2-.4-5.4 18-8.2 36.5-9.1 55.4 4.1-18.3 8.2-36.6 12.3-55z" class="st1"/><path d="M1481.5 698.2c.1-62 .1-124.1.2-186.1.1-92 .7-184 0-275.9-.1-15.6 5.3-26.5 15.3-37 24.4-25.5 48.6-51.2 72.6-77.1 5.3-5.8 8.5-4.9 13.4.3 27.1 29 54.3 58 81.8 86.6 5.2 5.4 5.2 11.2 5.2 17.7v396.5c0 6.4.3 12.8.5 19.3-.1 18.5-.2 37.1-.2 55.6-.2.8-.2 1.6-.1 2.4v22c.3 4.8-1 8.9-5 11.8l-182.8-.3-.6-10.8-.3-25zm68.1-454.1v-4.5c.9.1 1.8.2 2.6.2v60c6.2 7.9 12.6 7.3 18.9.1.8-.1 1.5-.1 2.3-.1 5.7 13.8 15.7 6.1 24.4 4.9 15.3 0 30.6-.3 45.8.1 7.4.2 9.8-2.7 9.7-9.9-.3-21.3-.2-42.6 0-63.9.1-5.3-1.8-9.1-5.5-12.7-21.7-21.5-43.4-43-64.7-64.9-5.8-5.9-9.3-5-14.6.4-21.1 21.6-42.5 42.7-63.8 64.1-2.8 2.8-5.9 5.6-5.9 10.1 0 24.5 0 49 .1 73.5 0 3 .6 6.2 4.9 3 .8 0 1.5.1 2.3 0h19.2c2.6 3.2 6.2 2.2 9.6 2.5 11.1 1.4 17.2-2.1 14.6-14.5v-43.1c.1-1.8.1-3.5.1-5.3zm59.7 297.2c5.8 4.2 11.6 1.6 17.4.2 3.4 2.9 7.7 1.4 11.5 2 12.4 2.1 15.8-3 15.3-15.2-1-22.8-.7-45.6-.1-68.4.3-9.7-2.3-14.5-12.5-13.2-1.3-3.9-1-7.8.2-11.6 11.4-1.8 13-9.4 12.2-19.4-.7-9.1-.2-18.2-.1-27.3 2.9-4.3 1.7-9.9 5-14.2 4.8-6.3 1.8-10-5-11.7 0-10.9-.4-21.7.2-32.5.5-8.6-2.9-11-11.2-10.9-44.2.3-88.4.3-132.6 0-8.6-.1-11.1 3-10.9 11.2.4 25.3.2 50.6.1 75.9 0 26.3 0 26.3 26.6 26.5 19 3 37.9-.1 56.8-.3 11.8.2 23.7.5 35.5.7.2 4.6.3 9.1.4 13.7-35.8.1-71.6.4-107.4 0-9.7-.1-12.6 3-12.2 12.4.7 17.7.2 35.4.2 53.1 0 33.5 0 33.5 33.9 30.6 4.4 1.1 8.5.1 12.5-1.6 21.6 3.3 42.9 3.8 64.2 0zm-15.9 171.5c1.1-.1 2.3-.2 3.4-.3 7.6.1 15.2.2 22.9.2 7.1 4.3 14.9 1.1 22.3 2.2 9.3 1.3 11.5-3 11.4-11.7-.3-45.3-.4-90.7 0-136 .1-9-2.7-11.8-11.7-11.7-43.3.4-86.7.4-130.1 0-10.2-.1-13.1 3.8-13 13.5.4 45 .4 89.9-.1 134.8-.1 9.4 3.3 12.4 11.9 11 1.8.8 3.6 2.2 5.3 2.2 23.3.2 46.5.2 69.8.2 3.7-.1 6.7-.6 7.9-4.4z" class="st5"/><path d="M905.5 210.5c17.3.6 29.2 12 31.1 29.9.5 4.4.3 8.8.3 13.2v427.6c0 5.6.4 11.2.6 16.8-.2 6.5-.5 13.1-.8 19.7-.3 3.7-1.5 7-4.4 9.5-2.5-4.6 3.3-12.2-5.2-14.7-.2-1.6-.3-3.2-.5-4.7-1-5.4-4.2-8.6-9.5-9.7l-3.9-1.2c-.2-2.1-.4-4.1-.7-6.2 4.3-5.3 2.2-11.6 2.2-17.4-.2-14.4 6-32.9-2.2-42-8.9-9.9-28-3.2-42.5-3.3-65.3-.4-130.6-.2-196-.2-5.5 0-11.5 1.4-15.3-4.4 80.7-.1 161.3-.2 242-.4 4.7 0 9.7 1.5 13.9-2v-17.8c.2-62.6 0-125.3.8-187.9.1-11.9-3.5-14.5-14.9-14.5-147.8.4-295.6.2-443.4.3-4 0-8 .4-12 .6.5-1.1 1-2.2 1.5-3.2 152.7.1 305.5.2 458.2.2h1.2c6.9.7 9.1-2.7 9-9.2-.2-18.1-.3-36.2 0-54.2.1-6-1.8-6.8-7.6-6.8-153.5.3-307.1.3-460.6.3-.9-3.9-1.8-7.7-2.7-11.5 0-4.2.1-8.4.1-12.7 0-9.5 0-19.1.1-28.6.2-10.3.2-20.6.6-30.9.7-20.4 13-33.8 33.4-36.6 4.2 3.6 9.2 2.1 13.9 2.1 130.6.1 261.2.1 391.9.1 7.1-.2 14.2-.2 21.4-.2zM643.8 321.7c3.6 2.6 7.7 1.9 11.6 1.9H901c3.9 0 8.1 1.2 11.5-2 4.3-2.8 2.5-7.2 2.6-11 .2-17.2 0-34.5 0-51.8 0-25-6.3-31.3-31.1-31.3H499.9c-4.8 0-9.7-.2-14.4.5-9.1 1.3-16.4 6.4-18.2 15.3-2.2 10.8-3.5 22 .9 32.9-7.7 14.5-4.5 29.5-2.1 44.4 0 .3 1.4.5 2.2.7 57.9 0 115.9 0 173.9.1.4 0 1 .1 1.6.3zM256.1 748.7v-25.9c0-8.2-.1-16.4-.1-24.7 0-49.9 0-99.8.1-149.7.1-77.1.3-154.2.4-231.3 0-30.9.1-61.9 0-92.8 0-8.2.8-16.3 11.4-16 9.9.2 10.4 8 10.3 15.7-.1 16.1-.1 32.1 0 48.2 0 3.9-1.2 8.1 1.9 11.5 0 7 .1 13.9.1 20.9-.3 5.1-1.5 10.5 3.8 14.1-7.8 2-6.1 8.5-6.1 13.8 0 139.5 0 278.9.1 418.4-7.3-.6-15 2.3-21.9-2.2z" class="st6"/><path d="M1201.9 422.2c-5.3 18.3-10.7 36.6-16 55-11 38.5-23.9 76.3-35.4 114.7-9.4 31.6-21.2 62.7-34.2 93.1-9.9 23.2-26.3 41.9-49.9 53.2-4.4 2.1-8.8 3.7-13.8 3.2-8.7-7.5-19.2-4-28.9-4.6-8.7-.5-15-3-14.4-13.3 14.6-9 32.2-12.3 45.5-23.6 10.6-6.2 18.2-15.5 25.4-25.1 40.5-54.3 62.8-117.5 87.8-179.5 8.6-20.1 17-40.2 25.8-60.1 2-4.7 3.6-9.8 8.1-13z" class="st7"/><path d="M1167.9 495.3c-25 61.9-47.3 125.1-87.8 179.5-7.2 9.6-14.8 18.9-25.4 25.1-7.8-3.7-16-1-24-1.9 11.7-29.9 28.2-57.2 44.9-84.5 14.8-24.2 30.7-47.7 47.4-70.6 11.2-15.4 24.1-29.7 36.2-44.4 2.3-2.8 5.4-3.4 8.7-3.2z" class="st2"/><path d="M1428.9 735.9c-.8-4.3-4.5-3.8-7.4-4.7-33.7-10.7-59-31.8-76-62.5-26.7-48.4-50.2-98.4-73.2-148.7-14.7-32.2-27.2-65.5-45.3-96.2-.9-1.6-.5-3.9-.8-5.9 4.6 5.1 9.1 10.1 13.7 15.2 42.3 66.4 72.5 139.3 112.6 206.9 13.1 22 27.2 43.7 49.3 58.2 12.6 13.7 30 18.8 46.4 25.7-6.6 3.6-13.9 6.3-19.3 12zM280.2 304.5c0-7-.1-13.9-.1-20.9 5.8-5.7 12.8-8 20.8-7.9 47.8.1 95.6.2 143.4.2 0 9.5 0 19.1-.1 28.6-54.7.1-109.3.1-164 0z" class="st7"/><path d="M1030.7 697.9c8 .9 16.2-1.8 24 1.9-13.4 11.3-30.9 14.7-45.5 23.6-18.9-1.3-37.8-1.7-56.7.1-4.4-1.5-12 1.9-11.1-7.8.1-1.2-3 1.4-4.7 1.9.2-6.5.5-13.1.8-19.7 31 .1 62.1.1 93.2 0z" class="st3"/><path d="M1246.9 359.9c11 12 28.2 16 41.2 31.3-9.9-2.1-16.3-6-24.4-4.1 4.4 8.6 15.9 11 18.2 23.2-16.9-9-36.3-10.1-46.5-27.8-5.6-11.6 1.9-17.4 10.1-22.9.5.1.9.2 1.4.3z" class="st8"/><path d="M1246.9 359.9c-.4-.1-.9-.2-1.3-.2-4.6-8.7-8.2-4.1-11.8.9l-16.8 1.8c.1-8.6.1-17.3.1-25.9 17.9-1.6 35.6-.2 53.5 2.8-.5 7.2-8.2 5-12.8 7.8 2.7 7 10 4.9 15.2 8.1-7.8 8.5-17.8 2.6-26.1 4.7z" class="st8"/><path d="M1217.1 336.4c-.1 8.6-.1 17.3-.1 25.9v33.5c7.1-11.4 13.5-22.7 16.8-35.3 3.6-5 7.2-9.6 11.8-.9-8.1 5.5-15.7 11.3-10.1 22.9-5.9-1.9-6.5 3.1-8.2 6.4-3.2 6.4-6 13.1-8.9 19.6-.6.1-1.2.2-1.7.4-2.2-.2-4.4-.3-6.6-.5-6.8-9.9-6.9-23.5-17.5-31.2 2.9-10.6-7.2-12.1-12.2-17.2 2.7-2.8 5.4-5.6 9.1-9.4 7.1 15.5 13.5 29.5 19.9 43.6.8 0 1.6-.1 2.4-.1 0-16.7-.2-33.5.2-50.2 0-2.6-4.3-10.3 5.1-7.5z" class="st5"/><path d="M905.5 210.5c-7.2 0-14.3.1-21.4.1-130.6 0-261.2 0-391.9-.1-4.7 0-9.7 1.6-13.9-2.1 22.9-.1 45.8-.4 68.7-.4 114.6 0 229.1-.1 343.7.1 4.9 0 10.5-2.1 14.8 2.4z" class="st6"/><path d="M1180.4 360.1c5 5.1 15.1 6.5 12.2 17.2-5.2 7.1-10 14.5-15.6 21.3-5.4 6.5-11.7 12-21.2 12 .1-1.1-.1-2 .3-2.4 4.8-5.2 14.3-11.1 10.9-17-3.9-6.7-10.8 6.1-18.9 2.1 13.2-8.6 18.2-25 32.3-33.2z" class="st8"/><path d="M1670.3 698c.1-18.5.2-37.1.2-55.6 8.5 3.2 8.8 12 11.5 18.5 5.1 12.3 14.8 23 14.7 37.3h-24c-.8-.2-1.6-.2-2.4-.2z" class="st1"/><path d="M1226.3 418c-3.2 0-4.8-1.7-4.9-4.9 2.5.8 4 2.5 4.9 4.9z" class="st9"/><path d="M1216.7 409c.6-.2 1.1-.3 1.7-.4 1 1.5 2.1 3.1 3.1 4.6-2.7-.2-4.6-1.2-4.8-4.2z" class="st9"/><path d="M712.1 987.4c-13 15-29.5 14-46 8.8-11.9-3.8-12.9-14.8-12.1-25.7 4.8-14.5 9.7-29.1 14.5-43.6 7.2-21.6 14.5-43.2 21.7-64.8.8-1.8 1.9-3.6 2.5-5.5 2.7-8.7 8.8-18.4 7-26-1.7-7-14.7-4.9-22-8.7-2.8-1.5-5.9-2.2-8.9-3.2-3-3.5-2.6-7.8-2.8-12 1.1-18.4 3.2-20.4 22-24.6 50.3-11.1 101.5-13.2 152.7-14.6 4.7 1.1 4.7 4.8 4.3 8.3-1.2 10.6 3.9 14.2 13.7 13.2.2 4 .6 8 .4 12-.3 6.2.2 11 8.7 10.6 7.3-.3 13-2.1 13-10.5 0-7.1 1.8-14.5-2.2-21.2-.1-4.4-.6-8.8 4-11.6l24.3-.3c7 9.7 16.6 10 29.7.9 20.3 2 40.8.9 61.1 3.5 23.4 2.9 46.9 5.2 69.8 11.3 11.1 3 16.6 9.2 16.3 21.5-.3 12.2-7.7 15.6-17.1 18.1-4.3 1.1-8.4 2.7-12.7 3.7-5.7 1.3-6.9 3.9-4.7 9.5 4.3 10.8 7.9 21.8 11.8 32.7 7.7 23.2 15.3 46.5 22.9 69.7 3.6 14.7 12.2 28 11.9 43.7-12.8 18.7-35.1 22.6-55.2 9.6-8.4-12.6-6.2-27.4-8.4-41.2-1.5-17.4-3.1-34.9-4.6-52.3-2-19.4-4.2-38.9-6-58.3-.8-8.7-6.6-7.9-12.2-7-8.2 1.3-3.1 6.7-2.2 10 5 18.5 14 35.9 16.5 55.2-6.3 13.8-11.2 28.3-19.5 41.1-18.8-1.7-22.8-5.6-24.8-24.5-2.2-21.4-5.5-42.8-6.2-64.3-.4-12-4.9-13.9-15.1-13.2-19.2 1.3-38.3 2.1-57.5 2.3-34.4.3-68.9 1-103.2-2-5.5-.5-10.5-.4-10.5 7.6 0 24-5.8 47.6-5.3 71.7-6.3 20.7-7.3 21.4-31.2 22.2-5.9-13.7-13.8-26.5-17.2-41.2 8.9-16.7 12.5-35.2 19.2-52.7 1.8-4.7 4.4-10.8-4.4-11.1-7.5-.2-18.5-7.3-20.9 5.4-3.2 16.7-3.5 34-5.1 51.1-1.1 12.7-2.2 25.4-3.4 38.2-2.4 4.1-1.4 8.6-1.8 13-1.4 15-3.1 30.1-4.8 45.2zm99.4-197.7c-7.9-.4-15.6-.4-19.9 10.5-2.4-6.3-3.4-12-10.2-10.5-4.5 1.2-11.3-2.8-13.2 4.1-3.8 13.7 7.3 9 13.5 10.2 9.9 1.5 19.8 3.1 29.7 4.6 4.5-1.3 12.8 3.1 12.6-4.2-.1-5.8-1.4-15.7-12.5-14.7zm141.9-9.5c-5.6 0-11.3.5-16.8-.2-11.4-1.4-18 1.1-21.2 14.3-2.5 10.4-1.7 13 8.6 12.2 37.5-3.1 75.2-2 112.8-2.6 1.4 0 2.8-.7 4.4-1.2-2.3-8.6-8.3-14-12.9-20.3-2.4-2.9-5.8-2.4-8.9-2.3-22 0-44 .1-66 .1z" class="st5"/><path d="M1032.3 951c2.3 13.8 0 28.6 8.4 41.2-63.9 10.6-128.4 11-192.8 9.3-42.7-1.1-85.3-4.9-127.3-13.3-2.7-.5-5.6-.5-8.4-.8 1.7-15.1 3.3-30.2 4.9-45.4.5-4.3-.6-8.9 1.8-13 .2 2 .6 4 .5 5.9-.9 10.6 4 16.8 14.3 18.4 10.6 1.6 15.3-4.5 17-14 23.9-.8 24.9-1.5 31.2-22.2 31.1-2.1 62.2-1.9 93.3-4.3 34.8-2.7 69.6 2.7 104.4 2.3 2 18.8 6 22.8 24.8 24.5-2.8 14.8 4.3 20.3 17.7 18.6 4.9-.6 5.7-6.4 10.2-7.2z" class="st2"/><path d="M278 750.8c0-139.5-.1-278.9-.1-418.4 0-5.4-1.7-11.8 6.1-13.8 1.3 1 2.5 1.9 3.8 2.9 1.4 6.7 1.6 13.1.5 20-1.6 9.3-1.4 19.1.5 28.7 1.2 6.5 3.7 9.5 11 9.4 41.7-.3 83.5-.3 125.2 0 7.2 0 10-2.3 9.9-9.7-.4-16-.1-32.1-.1-48.1 2.3-3.2 5.5-4.7 9.4-4.5.9 3.9 1.8 7.7 2.7 11.5-2 23.2-3.5 46.5-.2 69.8-.5 1.1-1 2.2-1.5 3.2.1 7 .3 14 .4 21-.2 49.8-.4 99.5-.5 149.3.1 1.8.1 3.5.2 5.2-.8 13-1.2 26 .6 39-.3 3-.5 6-.8 8.9 0 24.3-.1 48.6-.2 73-.1 17.7-.3 35.3-.4 53-3.2-.1-6.4-.3-9.6-.4-.1-9.6-.2-19.2-.2-28.7v-21.5c0-3.6.1-7.2 0-10.8 0-15.9 0-15.9-15.5-15.9-33.3 0-66.6-.2-99.9.1-9.1.1-19.9-3.6-27 1.8-6.6 5.1-.8 16-3.4 24-4.2 17 0 34.2-1.4 51.2-3.2-.1-6.3-.1-9.5-.2zm12.5-299.5 3.9-.6c19.4 0 38.7-.1 58.1-.1 17.9.2 35.8.5 53.7.5 30.1.1 30.1 0 27.9-30.7v-16.8c.4-.7.5-1.4.4-2.2 1.3-8.4-3.1-10-10.5-10-33.3.3-66.6-.1-100 .2-11.5.1-26.3-5-33.8 2.2-8 7.8-2.7 22.9-2.6 34.7.1 7.6-3.4 15.9 2.9 22.8zM434 620.7c-1.7-6.5 6.6-18.4-7-18.6-43.2-.8-86.4-.2-129.6-.3-5.9 0-7.8 2.7-7.5 8.1.2 3.6.2 7.2.4 10.8-.1 2.4-.2 4.9-.4 7.3 0 7.2.4 14.4-.2 21.6-.8 9.3 2.3 12.6 12.1 12.4 33.6-.6 67.2-.2 100.8-.2 33.3 0 33.3 0 31.7-34-.1-2.4-.2-4.8-.3-7.1zm.4-46.2c.1-11.6.1-23.2.5-34.9.2-5.4-1.2-8-7.3-8-44.1.2-88.2.1-132.4.1-3.4 0-6.8.2-6.6 4.8.5 13.5-2 27.1 1.5 40.5-2.7 11.8 2.2 15.1 13.9 14.9 38.1-.7 76.3-.2 114.4-.2 16.7 0 16.7 0 16-17.2zm-72.5-113.1v-.2c-20.9 0-41.7.5-62.5-.2-9.4-.3-11.6 2.9-11.2 11.6.7 12.8.5 25.7.1 38.5-.2 7.3 1.2 10.6 9.7 10.5 42.5-.5 85-.4 127.5 0 7.7.1 9.5-2.6 9.3-9.7-.4-13.6-.6-27.3 0-40.9.4-8.4-3-9.9-10.5-9.8-20.7.5-41.6.2-62.4.2z" class="st1"/><path d="M444.4 751.1c.1-17.7.3-35.3.4-53 4.8-.1 9.6-.2 14.5-.2 145.9-.1 291.8-.2 437.7-.2.3.8.7 1.6 1 2.5-146.7 0-293.4 0-440.1-.3-9.3 0-12.3 2.4-12.6 12-.3 11.4 5.9 10.8 13.6 10.8 145.9-.1 291.8 0 437.6 0 2 3.7 1.1 10.3 8.5 9-.8 5.7 4.4 8.9 5.8 13.6-3.4.9-7.4.9-8 5.7-9.8 0-19.7.3-29.5-.1-7.4-.3-10 3-9.5 9.8-3.6-2.2-6.7-5.7-11.6-4.7-10.7-1.4-21-5.1-32-5.1-54.7.2-109.4.1-164 .1-1-3-2.1-6-2.8-9-1.4-5.5-2.6-10.9-9.7-12-6.7-1-10.6 2-13.4 7.6-2.4 4.8-7.4 6.2-11.8 7.6-14.2 4.5-27.8 12.2-43.6 8.6-3.4-4.1-8.1-2.8-12.3-2.8-30.9-.1-61.8.3-92.7-.3-8.5-.1-17 6.6-25.5.4z" class="st2"/><path d="M1084 939c-7.7-23.2-15.3-46.5-22.9-69.7 6.8-5.4 18.4-2.9 20.3-16.6 4.2-30.8 10.7-61.2 16.2-91.8.3-4.9.5-9.8.8-14.7h-.1c.7-.8 1.4-1.5 2.2-2.3 1.3-5.3 6-7.2 10-9.8 4.9-.7 8.4 2.2 12 4.7 1.9 5.8 5.9 9.2 12 9.8 2 2.4 4.8 2.4 7.6 2.5 5.4 2.1 10.8 4.1 16.2 6.2 2.8 1.8 5.5 2.2 9 1.8 13.9-1.7 16.6 1.3 15.2 16-3 3.7-2.3 8.4-3.6 12.6-7.4 27.3-13.5 55-22.6 81.8-7.8 23-3.1 43.8 4.7 65 2.1 9.5 3.6 19.1 2.4 28.8-.8.2-1.5.4-2.3.6-.8.6-1.6 1.3-2.4 1.9-4.6 2.4-9.5 2.5-14.5 2.3-6.6-4.5-10.4-10.4-9.9-18.8.2-3.4.8-7.2-2.3-10-.2-9.6-.2-19.3-.6-28.9-.2-3.9-1.2-7.3-6.6-5.8-4.2 1.2-7.8 2.1-5.2 7.9 2.1 4.7 3.5 9.7 5.3 14.6.3 8.5-.1 16.4-11.7 17-11.2.6-16.4-5.2-17.3-15.5-.5-6-1.7-10.8-8.3-12.2-3.7 7.5 1.8 15.8-3.6 22.6zm66.8-118.3c1-4.5-.5-7.6-5.1-9.3-9.8-3.5-19.5-7.3-29.1-11.1-5.7-2.2-7.7.3-9.1 5.6-4.1 15.9-8.5 31.6-13 47.4-1.6 5.5-.5 8.6 5.8 8.4 12.1-.4 23.9 1.6 35.6 4.2 4.3.9 6.9-.8 7.7-5.2 2.4-13.3 4.8-26.6 7.2-40zM575 753.9c15.8 3.6 29.4-4.1 43.6-8.6 4.5-1.4 9.4-2.8 11.8-7.6 2.8-5.6 6.6-8.7 13.4-7.6 7.1 1.1 8.3 6.4 9.7 12 .8 3.1 1.9 6 2.8 9 1.6 18.8 6.2 37.2 9.7 55.7.2 4.2-.2 8.5 2.8 12 1 7.9 2.5 15.7 3 23.7.8 11.9 5.9 19.2 18.5 19.8-7.2 21.6-14.5 43.2-21.7 64.8-.8-1.5-1.5-3-2.3-4.6.6-1.9 1.4-3.7 1.6-5.7.4-3.8.1-7.8-5-7.6-4.7.2-3.4 4.5-3.6 7.4-.4 4.3-.4 8.7-.5 13.1-14.5 14.9-24.2 14.1-31.1-2.4 2.2-6.4 4.5-12.8 6.6-19.3 1.8-5.6-2.1-7-6.3-7.9-5.3-1.2-4.7 2.7-5 5.8-1.4 14.3-3.1 28.6-2.3 43.1-2.5 5.3-5.2 10.6-10 14.3-19.9.2-24.2-5.4-19.4-24.9.2-.8.1-1.7.5-2.3 15.1-31.5 9.8-62.5-.7-94-7.8-23.5-13.2-47.8-20.1-71.6-1.9-6.8-1-12.1 4-16.6zm27.4 59.3c2.2 12.2 4.3 23.6 6.4 35 .5 2.8 1.5 5.4 1.9 8.2.7 5.1 3.6 5 7.8 4.3 11.9-1.8 23.7-4.5 35.8-3.8 5.7.3 6.8-1.9 5.2-7.3-3.2-10.8-5.7-21.7-8.7-32.5-6.4-23.7-6.5-23.7-29.9-15.3-4.5 1.6-9.1 3.2-13.5 5.1-2.9 1.4-6.1 2.8-5 6.3z" class="st5"/><path d="M1182.4 775c1.4-14.6-1.3-17.7-15.2-16-3.5.4-6.2 0-9-1.8 19.4-4.3 38.2-14.4 58.5-10.8 13.3 2.4 26.5 3.5 39.9 4.9 7 .7 11.6-6.2 18.1-3.9 19.6 7 36-.9 51.9-10.8 24.8 6.6 49.9 10.7 75.7 9.5-.8 1.6-1.5 3.2-2.3 4.8-3.6 0-6.1 2.1-8.2 4.7l-.7-.1-.7.2c-33.4 13.5-67.6 23.6-103.6 28-30.7 3.8-61.3 3.8-91.9.2-4.9-.5-13.2.8-12.5-8.9z" class="st7"/><path d="M434.5 722c.1 9.6.2 19.2.2 28.7-6.1 3.5-12.3 0-18.5 0-42.2.4-84.3.2-126.5.2v-28.1c48.4-.3 96.6-.5 144.8-.8z" class="st4"/><path d="M1132 939.3c3.1 2.8 2.5 6.5 2.3 10-.5 8.4 3.3 14.3 9.9 18.8-15.9 5.4-33.3 5.8-48.2 14.5.3-15.7-8.3-29-11.9-43.7 5.3-6.7-.2-15 3.5-22.5 6.7 1.4 7.8 6.2 8.3 12.2.9 10.3 6.1 16.1 17.3 15.5 11.6-.6 12-8.5 11.7-17 3.5 4.1 2.8 9.7 5.1 14.3.6-.3 1.2-.5 1.7-.9.2-.2.2-.8.3-1.2z" class="st2"/><path d="M1640.8 746c-3.2 5.5-8.4 5-13.7 5-33.1-.1-66.3-.5-99.4.2-11.7.3-16.3-3.2-14.4-14.7 38.8 0 77.6-.1 116.4 0 3.9 0 8.1-1.1 11.3 2.4-.3.2-.8.6-.7.7.1.6.5 1.1.8 1.7h.2c-.2 1.6-.4 3.2-.5 4.7z" class="st1"/><path d="M1448.2 723.9c-16.4-6.9-33.8-12-46.4-25.7h79.7l.3 25c-5.7.3-11.3.7-17 1-5.5-.1-11-.2-16.6-.3z" class="st3"/><path d="M610.7 963.1c4.9-3.7 7.5-9 10-14.3 3.3-3.7 1.8-8.2 2.1-12.4.3-3.8-.8-8.3 4.8-9.2 6.9 16.5 16.6 17.2 31.1 2.4 3.2-1.6 2.5-7.4 7.5-7.2.8 1.5 1.5 3 2.3 4.6-4.8 14.5-9.7 29.1-14.5 43.6-15.2 1.6-28.8-5.7-43.3-7.5z" class="st2"/><path d="M1182.4 775c-.7 9.6 7.6 8.4 12.6 9 30.6 3.6 61.2 3.6 91.9-.2 36-4.4 70.2-14.5 103.6-28-.5 2.6-2 3.9-4.5 5.1-29.7 14-59.4 27.2-93 28.9-17.9.9-35.6 4.8-53.6 4.7-20.5-.1-40.3-5-60.6-6.9 1.3-4.1.6-8.9 3.6-12.6z" class="st1"/><path d="M1641 738.9c-3.2-3.5-7.4-2.4-11.3-2.4h-116.4c-1.9 1-2.3 2.8-2.4 4.7-6.4 0-12.8.1-19.2.1-1-6.1-5.8-4.6-9.7-4.9.1-.8.3-1.7.4-2.5l182.8.3c-1.5 2.4-4.8 3.7-4.7 7.1-6.4 0-12.9-.1-19.3-.1h-.2v-2.3z" style="fill:#be856a"/><path d="M1163.3 963.2c1.2-9.8-.2-19.3-2.4-28.8 2.8 1.6 5.7 3 8.3 4.7 4.9 3.2 12.1 6.4 9.6 13.3-2.1 6-7.3 11.5-15.5 10.8z" class="st4"/><path d="M1641.2 741.3c6.4 0 12.9.1 19.3.1-.3 3.7 1.3 9.1-4.5 9.2-5.3.1-12.3 3.7-15.2-4.6.1-1.5.3-3.1.4-4.7zM1491.7 741.3c6.4 0 12.8-.1 19.2-.1.5 17-12.6 7.2-19.4 9.8.1-3.2.1-6.5.2-9.7z" class="st11"/><path d="M289.8 722.8v28.1h-1.1l-1.1-.1c1.5-17-2.8-34.3 1.4-51.2l.9.6c-1.3 7.6-1.3 15.1-.1 22.6z" style="fill:#aa6e5a"/><path d="M1482.4 734c-.1.8-.3 1.7-.4 2.5-7.1-2.2-10.5-9.5-17.2-12.3 5.7-.3 11.3-.7 17-1l.6 10.8z" class="st1"/><path d="M1491.7 741.3c-.1 3.2-.1 6.4-.2 9.6-5.7-3.2-8.7-8.2-9.5-14.5 3.9.4 8.7-1.2 9.7 4.9zM1391.8 755.7c2.1-2.6 4.6-4.7 8.2-4.7-.8 5-4.4 4.9-8.2 4.7zM1158.7 965.8c.8-.6 1.6-1.3 2.4-1.9-.9.6-1.7 1.2-2.4 1.9z" class="st4"/><path d="M1670.3 698c.8 0 1.6.1 2.3.2-.8.7-1.6 1.5-2.4 2.2-.1-.8-.1-1.6.1-2.4z" class="st13"/><path d="M1176.9 704c-3.8-2.4-3.5-5.2-1.9-9.2 17.1-41.9 31.4-84.8 42.3-128.7 2.9-11.8 5.1-23.8 7.6-35.7 4.6 1 5 4 5.6 6.6 14.4 58.7 37.1 114 66.8 166.5.8 1.3.8 3 1.2 4.6-26 1.1-51.8 8.2-78 2.3-14.3-3.3-28.5-7.9-43.6-6.4z" class="st7"/><path d="M1097.6 760.9c-5.5 30.6-12 61-16.2 91.8-1.9 13.7-13.5 11.2-20.3 16.6-3.9-10.9-7.5-21.9-11.8-32.7-2.2-5.5-.9-8.2 4.7-9.5 4.3-1 8.4-2.5 12.7-3.7 9.4-2.5 16.9-5.9 17.1-18.1.3-12.3-5.3-18.5-16.3-21.5-22.9-6.2-46.3-8.4-69.8-11.3-20.3-2.5-40.8-1.4-61.1-3.5-1.4-7.7 2.4-15.9-2.7-23.1-.9-13.4 9.1-17.7 18.6-22.3 18.9-1.8 37.8-1.5 56.7-.1-.7 10.3 5.7 12.8 14.4 13.3 9.8.6 20.2-3 28.9 4.6-8.1 14.7 4.6 8.2 9.7 9.6 5.3 1.5 8.2 7.7 14.4 7.4 6.5 4.6 14.1 1.1 21 2.5zM1176.9 704c15.1-1.4 29.3 3.1 43.8 6.3 26.2 5.9 52-1.2 78-2.3 10.1 8.9 16.7 21.1 28.1 28.7-16 10-32.3 17.8-51.9 10.8-6.4-2.3-11.1 4.6-18.1 3.9-13.3-1.3-26.6-2.5-39.9-4.9-20.3-3.7-39.1 6.5-58.5 10.8-5.4-2.1-10.8-4.1-16.2-6.2 8.2-15 22.3-26 28.2-42.6.6-2 4.2-3 6.5-4.5z" class="st1"/><path d="M1076.6 758.2c-6.2.3-9.2-5.9-14.4-7.4 12.5-5.8 26-9.8 36.7-18.9 5.3-4.5 7.5 2.7 11.5 2.2-3.9 2.6-8.7 4.5-10 9.8-.7.8-1.4 1.5-2.2 2.3h.1c-8.4 1.8-13.8 9.1-21.7 12zM1134.4 748.6c-6.1-.6-10.1-4-12-9.8 6.2-5.7 8.6-14 14.8-22.5 4.3 12.7-1.5 22.4-2.8 32.3zM1200.1 568.3c-4.1 18.3-8.2 36.7-12.3 55 .9-18.9 3.7-37.4 9.1-55.4 1.1.2 2.1.3 3.2.4z" class="st7"/><path d="M1510.6 714.7c-8.7 1.4-12-1.5-11.9-11 .4-44.9.4-89.9.1-134.8-.1-9.7 2.8-13.6 13-13.5 43.3.4 86.7.4 130.1 0 9-.1 11.7 2.7 11.7 11.7-.4 45.3-.4 90.7 0 136 .1 8.7-2.2 13-11.4 11.7-7.4-1-15.2 2.1-22.3-2.2 24.6-12 34.7-34.6 26.2-58.8.8-6.5-3.4-10.2-7.5-13.9-16.2-21.7-38.2-24.8-66.8-9.4-3.2-3.6-7.3-5.2-12.1-5.2 3.5-7.6-1.8-13.8-6.7-15-6.7-1.6-7.2 6.3-8.2 11.5-.2 1.1-.1 2.3-.1 3.5-14.6 2.9-16.3 6.8-8.4 19.3-11.2 1.8-10.8 8.7-7.6 16.9-10.3 3.3-13.6 9.5-7.6 19.2-11 4.2-7.8 10.4-2.3 16.8-4.2 1.3-10.5-1.5-11.9 5.4-.8 3.8-1.8 8.3 4 9.6-.1.8-.2 1.5-.3 2.2zM1552.2 239.9c-.9-.1-1.8-.2-2.7-.2-6.5 0-12.9.1-19.4.1-.9-.1-1.8-.1-2.7-.2-2 0-4 .1-6 .1-18.4-.1-18.4-.1-17.4 18.1 0 .4.1.8.2 1.2v26.5c-.1 6.4-.3 12.8-.4 19.1-4.2 3.2-4.8 0-4.9-3-.1-24.5-.1-49-.1-73.5 0-4.5 3.1-7.2 5.9-10.1 21.3-21.3 42.7-42.5 63.8-64.1 5.3-5.4 8.8-6.3 14.6-.4 21.3 21.9 43 43.4 64.7 64.9 3.7 3.6 5.5 7.5 5.5 12.7-.2 21.3-.3 42.6 0 63.9.1 7.2-2.3 10.1-9.7 9.9-15.3-.4-30.5-.1-45.8-.1-.2-3.3-.3-6.7-.4-10-.2-.6-.3-1.2-.5-1.8.2-14.4.5-28.8.7-43.2 0-1.9-.1-3.8-.1-5.8-6.9-8.5-15.8-3.3-24-3.6-7.1-.2-14.2-.4-21.3-.5z" class="st8"/><path d="M1596.9 292.9c.1.6.3 1.2.5 1.8-6.4 8.9-16.1 2.9-24 5.2-.8 0-1.5 0-2.3.1-6.3 0-12.6-.1-18.9-.1v-60c7.1.2 14.2.3 21.3.5.1 1.1.2 2.3.2 3.5 0 2 0 4 .1 6-.1 6.7-.2 13.5-.2 20.2 0 22.8 0 22.8 23.3 22.8zM1645.9 653.9c8.4 24.2-1.7 46.8-26.2 58.8l-22.9-.3c.8-3.5 1.1-7-.6-10.3 18.4-14.1 34.8-30.4 49.7-48.2z" class="st7"/><path d="M1596.2 702.1c1.7 3.3 1.4 6.8.6 10.3-1.2.1-2.3.2-3.4.3-27.6 0-55.1-.1-82.7-.1-5.8-1.4-4.8-5.8-4-9.6 1.4-6.8 7.7-4.1 11.9-5.4h64.6c5-.6 9 2.1 13 4.5z" class="st5"/><path d="M1549.6 249.4v43.1l-19.4-.3c-.1-13.5-.2-27-.4-40.6 6.1-4.6 13.1-1.6 19.8-2.2z" class="st7"/><path d="M1503.8 304.5c.1-6.4.3-12.8.4-19.1 2.7 8.9 9.8 8 16.4 6.9 7.1-1.2 4.5-7.4 4.7-11.7.4-7.5-.2-15.1.2-22.6.4-8-3.9-9.3-10.4-8.7-6.2.5-8.6 4.8-10.8 9.6-.1-.4-.2-.8-.2-1.2-1-18.2-1-18.2 17.4-18.1 2 0 4-.1 6-.1 0 4 .1 8 .1 12.1-.1 13.7-.1 27.3-.2 41-1.2 6.8.2 12.2 7.5 14.5-3.3-.3-7 .7-9.6-2.5-6.4-7.5-12.8-7.6-19.2 0-.7 0-1.5 0-2.3-.1zM1510.7 712.7c27.6 0 55.1.1 82.7.1-1.2 3.8-4.2 4.4-7.6 4.4-23.3 0-46.5 0-69.8-.2-1.8 0-3.6-1.5-5.4-2.2.1-.8.2-1.5.1-2.1z" class="st7"/><path d="M1534.9 307c-7.3-2.4-8.7-7.8-7.5-14.5.9-.1 1.8-.2 2.7-.2l19.4.3c2.6 12.3-3.5 15.9-14.6 14.4zM1573.4 299.9c7.9-2.2 17.5 3.7 24-5.2.2 3.3.3 6.7.4 10-8.7 1.3-18.7 8.9-24.4-4.8zM1527.6 251.5c0-4-.1-8-.1-12.1.9.1 1.8.1 2.7.2 4.7 9.1 12.9 2.9 19.4 4.4v5.3c-6.6.6-13.7-2.4-19.8 2.3-.8 0-1.5 0-2.2-.1z" class="st1"/><path d="M1549.6 244.1c-6.5-1.5-14.7 4.8-19.4-4.4 6.5 0 12.9-.1 19.4-.1v4.5z" class="st7"/><path d="M1506.2 304.6c6.4-7.7 12.8-7.5 19.2 0-6.5-.1-12.8 0-19.2 0zM1552.2 299.8c6.3 0 12.6.1 18.9.1-6.3 7.3-12.7 7.8-18.9-.1zM445.5 422.8c-.1-7-.3-14-.4-21 4-.2 8-.6 12-.6 147.8 0 295.6.1 443.4-.3 11.4 0 15 2.6 14.9 14.5-.7 62.6-.6 125.3-.8 187.9-4-2.9-2.7-8-5.8-12.1-8.3-11.1-19-8.9-29.6-9 .2-.8.2-1.5-.1-2.3 4.5-14.5 2-21-11-27.2-5.1-2.4-10.3-4.5-16.1-4.5-19.5-5.4-39-4.6-58.5-.2-17.5 2.4-34.9 4.8-48 18.5-.8.4-1.5.7-2.3 1.1-2.1-.3-3.5-1.3-4.9-3-12.9-15.2-26.8-29.8-42.1-42.5-12.8-10.6-27.2-18.5-44.3-22.5-24.1-5.6-44 3.5-64.1 13.5-21.5 10.6-20.8 10.5-35.3-8.2-28.3-36.8-59.8-69.7-107-82.1z" class="st1"/><path d="M897 697.7c-145.9.1-291.8.2-437.7.2-4.8 0-9.6.1-14.5.2.1-24.3.1-48.6.2-73 4.8.1 9.6.4 14.4.4 66.5-1.1 133 2.4 199.4-2.1 3.9 5.8 9.8 4.4 15.3 4.4 65.3 0 130.6-.2 196 .2 14.6.1 33.6-6.7 42.5 3.3 8.2 9.1 2 27.6 2.2 42 .1 5.8 2.2 12-2.2 17.4-.7-6.7-4.2-6.5-9.9-5.3-8.6 1.7-6.7 6.9-5.7 12.3zM446.5 398.5c-3.2-23.3-1.7-46.5.2-69.8 153.5 0 307.1 0 460.7-.3 5.8 0 7.7.9 7.6 6.8-.3 18.1-.3 36.2 0 54.2.1 6.6-2.1 9.9-9 9.2h-1.2c-152.8.1-305.5 0-458.3-.1z" class="st6"/><path d="M468.1 276.1c-4.4-10.8-3.1-22.1-.9-32.9 1.8-8.9 9.1-14 18.2-15.3 4.7-.6 9.6-.5 14.4-.5h384.1c24.8 0 31.1 6.4 31.1 31.3 0 17.3.1 34.5 0 51.8 0 3.7 1.8 8.2-2.6 11l-.2-.4c.1-25.3 5.9-32.1-25.2-38.6-3.7-.8-3.4-3.9-3.5-6.7-.9-11-6.5-18.3-17-21.8-3.5-3-7.8-3.9-12.2-4.8-27.3-5.2-54.3-3.8-80.9 3.7-11.4 3.2-23.3 6.4-30.2 17.8-.7 2.4-1.3 4.7-2 7.1-.6 3.2-2.5 5-5.8 5-9.6 0-19.3.1-28.9-.1-1.8 0-5-1-5.2-2-2.3-10-10.1-7.4-16.4-7.4-67.8-.1-135.6-.1-203.5 0-4.3 0-8.9-1.2-12.9 1.7l-.4 1.1z" class="st1"/><path d="M879.2 582.2c10.7.1 21.3-2.1 29.6 9 3.1 4.1 1.8 9.3 5.8 12.1V621c-89.2-.1-178.5-.1-267.8-.2.1-16.1.1-32.2.2-48.3 14.1 0 28.1-.1 42.2 0 3.5 0 8.2-1.3 10 2.3 4.2 8.5 11.5 7.2 18.6 7.2 8.4 0 16.9 0 25.3-.1 1 .3 2.1.6 3.1.9 1.9.5 3.8 1.4 5.7 1.4 39.5.1 79.1.1 118.7.1 2.8 0 5.6.1 7.9-2l.7-.1z" class="st8"/><path d="M468.2 321.2c-.8-.2-2.1-.4-2.2-.7-2.4-14.9-5.6-30 2.1-44.4l.6-1 157.4.6c16.2 0 16.1 0 16.4 16.5 0 1.9 1.3 3.7 2 5.6-.2 8-.4 16-.7 23.9-.6-.1-1.1-.3-1.7-.4.1-18.8-.1-19-18.4-19H494.1c-4.8 0-9.5.7-14.2 1.2-12 1.1-14.9 7.1-11.7 17.7z" class="st7"/><path d="M468.2 321.2c-3.2-10.5-.4-16.6 11.6-17.7 4.7-.5 9.5-1.2 14.2-1.2h129.6c18.4 0 18.5.2 18.4 19-57.9-.1-115.8-.1-173.8-.1zM444 317.2c-3.9-.1-7.1 1.3-9.4 4.5-49-.1-97.9-.2-146.8-.2-1.3-1-2.5-1.9-3.8-2.9-5.4-3.6-4.1-9-3.8-14.1h164c-.1 4.3-.1 8.5-.2 12.7z" class="st7"/><path d="M643.8 321.7c.2-8 .4-16 .7-23.9 14 0 28.2.6 42.2-.3 10.6-.7 15 2.7 13.4 13.4-1.1 7.4 1.7 10.8 9.9 10.8 67.5-.4 134.9-.4 202.3-.5l.2.4c-3.3 3.3-7.6 2-11.5 2-81.9.1-163.7.1-245.6 0-3.9-.1-8.1.7-11.6-1.9z" class="st8"/><path d="M646.9 620.9c89.2.1 178.5.1 267.8.2-4.2 3.5-9.2 2-13.9 2-80.7.2-161.3.3-242 .4-66.4 4.5-133 1-199.4 2.1-4.8.1-9.6-.2-14.4-.4.3-3 .5-6 .8-8.9 3.7 1.3 6 4.7 10.7 4.6 59.1-.2 118.2-.2 177.3-.1 6.2 0 8.6-2.5 8.5-8.6-.3-11.7-.2-23.3-.2-35 .1-.5.1-1 .2-1.6h1.6c0 4.8-.5 9.6.2 14.2 1.4 10.4-3.2 21.2 2.8 31.1z" class="st6"/><path d="M952.5 723.6c-9.6 4.6-19.6 8.9-18.6 22.3-5.5-.9-11.1-1.8-16.6-2.8 0-2.3.2-4.7-1.8-6.4-1.4-7.3-2.7-14.7-4.2-22.2 2.2.8 4.3 1.7 6.4 2.5 1.4 1.7 2.8 3.3 4.2 5 .7 4.8-1.3 10 2.1 14.4 11.5 4.9 6.4-5.3 8.3-9.2 2.8-2.5 4-5.8 4.4-9.5 1.7-.5 4.8-3.1 4.7-1.9-.9 9.7 6.8 6.3 11.1 7.8z" class="st9"/><path d="M917.7 717c-2.1-.8-4.2-1.6-6.4-2.5 1.4 7.6 2.8 14.9 4.2 22.2-6.2-4.1-1.8-15.6-11.9-16.9-.4-.4-.6-1-.7-1.5 0-3.6-.1-7.3-.2-10.9 1.3-5.7 3.8-10.3 10.6-10.5l3.9 1.2c.1 6.3.3 12.6.5 18.9z" class="st14"/><path d="M913.3 696.9c-6.8.2-9.3 4.7-10.6 10.5-1.6.1-3.3.2-4.9.3l-.1.5c.1-2.7.2-5.4.3-8-.3-.8-.7-1.6-1-2.5-1-5.4-2.9-10.6 5.8-12.3 5.7-1.1 9.2-1.3 9.9 5.3.1 2.1.3 4.2.6 6.2z" class="st15"/><path d="M932.3 727.2c-1.8 3.9 3.2 14-8.3 9.2 4-7.6 2.3-15.9 3.1-23.8 8.6 2.4 2.8 10 5.2 14.6z" class="st16"/><path d="M927.2 712.5c-.8 8 .9 16.3-3.1 23.8-3.4-4.4-1.4-9.6-2.1-14.4 1.8-4.7-3.9-11.8 4.8-14.2 0 1.6.2 3.2.4 4.8z" class="st17"/><path d="M926.7 707.8c-8.7 2.3-3 9.5-4.8 14.2-1.4-1.7-2.8-3.3-4.2-5l-.6-18.9c5.4 1.1 8.6 4.3 9.6 9.7z" class="st18"/><path d="M1233.8 360.6c-3.3 12.6-9.7 23.9-16.8 35.3v-33.5l16.8-1.8z" class="st15"/><path d="M979.6 915.2c-34.8.4-69.6-5-104.4-2.3-31.1 2.4-62.2 2.2-93.3 4.3-.5-24.1 5.3-47.7 5.3-71.7 0-8 5-8 10.5-7.6 34.4 3 68.8 2.3 103.2 2 19.2-.2 38.4-1 57.5-2.3 10.2-.7 14.7 1.3 15.1 13.2.6 21.6 3.9 43 6.1 64.4zM666 806.7c-3.5-18.5-8.1-36.8-9.7-55.7 54.7 0 109.4 0 164-.1 11 0 21.3 3.7 32 5.1-3.9 3.8-7.7 7.7-11.6 11.5-51.2 1.5-102.4 3.5-152.7 14.7-18.8 4.1-20.9 6.1-22 24.5z" class="st1"/><path d="M1028.2 782.4c4.6 6.3 10.6 11.8 12.9 20.3-1.5.4-2.9 1.1-4.4 1.2-37.6.6-75.2-.5-112.8 2.6-10.3.8-11.2-1.8-8.6-12.2 3.2-13.1 9.7-15.7 21.2-14.3 5.5.7 11.2.2 16.8.2.9 4.6-6 3.6-5.7 7.8 12 3.2 23.4 19.5 35.6 1.5-.9-4.8-7.3 1.3-7.1-3.8.2-4.5 4.8-3.3 7.7-3.3 14.8-.1 29.6 0 44.4 0z" class="st3"/><path d="M750.6 939.4c-1.7 9.5-6.4 15.6-17 14-10.3-1.6-15.2-7.8-14.3-18.4.2-2-.3-4-.5-5.9 1.1-12.7 2.2-25.4 3.4-38.2 2.1.2 1-9.9 5.7-1.8 1.8 3.1 3.7 6.1 5.5 9.1 3.4 14.7 11.4 27.6 17.2 41.2z" class="st5"/><path d="M733.4 898.2c-1.8-3-3.7-6-5.5-9.1-4.7-8.1-3.5 2-5.7 1.8 1.6-17 1.9-34.3 5.1-51.1 2.4-12.7 13.5-5.7 20.9-5.4 8.8.3 6.2 6.4 4.4 11.1-6.7 17.5-10.3 36.1-19.2 52.7z" class="st1"/><path d="M1032.3 951c-4.5.8-5.2 6.7-10.2 7.3-13.4 1.7-20.4-3.8-17.7-18.6 8.3-12.9 13.2-27.3 19.5-41.1 1.3 0 2.5.1 3.8.2 1.5 17.3 3 34.7 4.6 52.2z" class="st5"/><path d="M917.3 743.2c5.5.9 11.1 1.8 16.6 2.8 5.1 7.2 1.4 15.5 2.7 23.1-13.1 9.1-22.7 8.8-29.7-.9-4.4-5-4-11.1-4-17.1.5-4.8 4.6-4.8 8-5.7 2.6.8 5 .9 6.4-2.2z" class="st14"/><path d="M690.2 862.1c-12.6-.5-17.7-7.8-18.5-19.8-.5-7.9-2-15.8-3-23.7 3 1 6.2 1.8 8.9 3.2 7.3 3.8 20.3 1.7 22 8.7 1.9 7.7-4.2 17.3-7 26-.5 2.1-1.5 3.8-2.4 5.6z" class="st1"/><path d="M902.8 751c0 6-.4 12.2 4 17.1l-24.3.3c-6.2-.2-12.4-.3-18.6-.5 0-2.4 0-4.9-.1-7.3-.5-6.8 2-10.1 9.5-9.8 9.9.6 19.7.2 29.5.2z" class="st18"/><path d="M878.6 780c4 6.7 2.2 14.1 2.2 21.2 0 8.4-5.7 10.2-13 10.5-8.4.4-8.9-4.4-8.7-10.6.2-4-.3-8-.4-12 .4-3 .8-6.1 1.2-9.1 6.3-.1 12.5 0 18.7 0z" class="st14"/><path d="M1027.7 898.7c-1.3 0-2.5-.1-3.8-.2-2.6-19.3-11.5-36.6-16.5-55.2-.9-3.3-6-8.7 2.2-10 5.5-.9 11.4-1.7 12.2 7 1.6 19.5 3.9 38.9 5.9 58.4z" class="st1"/><path d="M1028.2 782.4c-14.8 0-29.6-.1-44.4.1-2.9 0-7.5-1.2-7.7 3.3-.2 5.1 6.2-1 7.1 3.8-12.1 18-23.6 1.7-35.6-1.5-.3-4.2 6.6-3.2 5.7-7.8 22-.1 44-.2 66-.2 3.2-.1 6.5-.6 8.9 2.3z" class="st13"/><path d="M860 779.9c-.4 3-.8 6.1-1.2 9.1-9.8 1-14.9-2.6-13.7-13.2.4-3.5.4-7.2-4.3-8.3 3.9-3.8 7.7-7.7 11.6-11.5 4.9-1.1 8 2.4 11.6 4.7 0 2.4 0 4.9.1 7.3-2.9 3.5-3.6 7.7-4.1 11.9z" class="st16"/><path d="M811.5 808.7c-9.9-1.5-19.8-3.1-29.7-4.6-.1-4.8-.2-9.6-.3-14.3 6.8-1.6 7.8 4.2 10.2 10.5 4.3-10.9 12-10.9 19.9-10.5-.1 6.2-.1 12.5-.1 18.9z" class="st3"/><path d="M811.5 808.7c0-6.3 0-12.7.1-19 11.1-1 12.4 8.9 12.5 14.8.2 7.3-8.2 2.9-12.6 4.2z" class="st18"/><path d="M860 779.9c.6-4.2 1.2-8.5 4-11.9 6.2.2 12.4.3 18.6.5-4.6 2.7-4.1 7.2-4 11.6-6.2-.1-12.4-.2-18.6-.2z" class="st3"/><path d="M781.5 789.7c.1 4.8.2 9.6.3 14.3-6.2-1.2-17.3 3.5-13.5-10.2 1.9-6.9 8.7-2.8 13.2-4.1z" class="st18"/><path d="M643.8 575.6h-1.6c-4.8-.3-9.5-1-14.3-1-56.5 0-112.9.1-169.3 0-4.7 0-9.7 1.3-13.7-2.7.2-49.8.4-99.5.5-149.3 47.2 12.4 78.8 45.4 107.2 82 14.5 18.8 13.8 18.9 35.3 8.2 20.1-9.9 40-19.1 64.1-13.5 17 4 31.5 11.9 44.3 22.5 15.3 12.7 29.2 27.2 42.1 42.5 1.4 1.7 2.9 2.7 4.9 3-1.7 4.8-1.5 9.6-.1 14.5-8.4 0-16.9.1-25.3.1-7.1 0-14.5 1.3-18.6-7.2-1.8-3.7-6.5-2.3-10-2.3-14.1-.1-28.1 0-42.2 0-1.1 1.2-2.2 2.2-3.3 3.2zM361.9 461.4c20.9 0 41.7.3 62.5-.1 7.5-.2 10.9 1.4 10.5 9.8-.7 13.6-.5 27.3 0 40.9.2 7.1-1.6 9.8-9.3 9.7-42.5-.4-85-.4-127.5 0-8.5.1-10-3.2-9.7-10.5.4-12.8.6-25.7-.1-38.5-.5-8.7 1.7-12 11.2-11.6 20.8.8 41.7.2 62.5.2-.1 0-.1.1-.1.1z" class="st2"/><path d="M642 577.2c0 11.7-.1 23.3.2 35 .2 6.1-2.2 8.6-8.5 8.6-59.1-.1-118.2-.1-177.3.1-4.6 0-7-3.4-10.7-4.6-1.8-13-1.4-26-.6-38.9 65.7-.1 131.3-.1 196.9-.2z" class="st5"/><path d="M287.8 321.5c49 .1 97.9.2 146.8.2 0 16-.3 32.1.1 48.1.2 7.4-2.6 9.8-9.9 9.7-41.7-.2-83.5-.3-125.2 0-7.3.1-9.7-2.9-11-9.4-1.9-9.6-2-19.4-.5-28.7 1.4-6.8 1.1-13.2-.3-19.9z" class="st6"/><path d="M290 577.1c-3.5-13.4-.9-27-1.5-40.5-.2-4.5 3.2-4.8 6.6-4.8 44.1 0 88.2.1 132.4-.1 6.1 0 7.5 2.5 7.3 8-.4 11.6-.3 23.2-.5 34.9-43.1.1-86.2.1-129.2.2-5.1 0-10.4-.8-15.1 2.3z" class="st2"/><path d="M434.2 403.6v16.8c-24.7-1.6-47.2 6.2-68.8 17-5.3 2.6-14 3.5-12.9 13.2-19.4 0-38.7.1-58.1.1-1.4-.4-2.9-.9-4.3-1.3-2.1-13.5-.3-27.1-1-40.6-.3-6.7 3.2-7.9 8.9-7.8 44.8.3 89.5.4 134.2.5.7.6 1.3 1.4 2 2.1z" class="st1"/><path d="M434.3 627.7c1.6 34 1.6 34-31.7 34-33.6 0-67.2-.3-100.8.2-9.7.2-12.9-3.1-12.1-12.4.6-7.2.2-14.4.2-21.6 48.1 0 96.2-.1 144.4-.2zM289 699.7c2.6-8-3.3-19 3.4-24 7-5.4 17.8-1.8 27-1.8 33.3-.2 66.6-.1 99.9-.1 15.4 0 15.5 0 15.5 15.9v10.8c-48.2-1.2-96.5-.9-144.8-.2l-1-.6z" class="st6"/><path d="M289.8 700.3c48.3-.7 96.5-1 144.8.2V722c-48.2.3-96.5.5-144.7.8-1.3-7.5-1.3-15-.1-22.5z" class="st3"/><path d="M290.2 620.7c-.1-3.6-.1-7.2-.4-10.8-.3-5.4 1.6-8.1 7.5-8.1 43.2.1 86.4-.5 129.6.3 13.6.2 5.3 12.1 7 18.6H290.2zM290 577.1c4.7-3.1 10-2.3 15.1-2.3 43.1-.1 86.2-.2 129.2-.2.7 17.2.7 17.2-16.1 17.2-38.1 0-76.3-.4-114.4.2-11.6.2-16.5-3.1-13.8-14.9z" class="st5"/><path d="M352.5 450.5c-1.1-9.6 7.7-10.5 12.9-13.2 21.5-10.8 44.1-18.5 68.8-17 2.1 30.7 2.1 30.8-27.9 30.7-18 0-35.9-.3-53.8-.5z" class="st2"/><path d="M432.3 401.4c-44.8-.1-89.5-.2-134.2-.5-5.7 0-9.2 1.1-8.9 7.8.7 13.5-1.1 27.1 1 40.6 0 .7.1 1.3.4 1.9-6.3-6.8-2.8-15.2-2.8-22.7 0-11.9-5.4-26.9 2.6-34.7 7.4-7.2 22.2-2.1 33.8-2.2 33.3-.3 66.6 0 100-.2 7.4-.1 11.8 1.5 10.5 10-.9-.3-1.7-.3-2.4 0z" class="st6"/><path d="M290.2 620.7H434c.1 2.3.1 4.7.2 7-48.1.1-96.3.2-144.4.2.2-2.4.3-4.8.4-7.2zM642 577.2c-65.6 0-131.3 0-196.9.1-.1-1.8-.1-3.5-.2-5.2 3.9 4 9 2.7 13.7 2.7 56.5 0 112.9-.1 169.3 0 4.8 0 9.5.6 14.3 1 0 .4-.1.9-.2 1.4z" class="st5"/><path d="M290.5 451.3c-.3-.6-.4-1.2-.4-1.9 1.4.4 2.9.9 4.3 1.3-1.3.2-2.5.4-3.9.6zM432.3 401.4c.8-.3 1.5-.3 2.3-.1.1.8 0 1.5-.4 2.2-.7-.6-1.3-1.4-1.9-2.1z" class="st15"/><path d="M898 700.1c-.1 2.7-.2 5.4-.3 8-1.5-.3-2.9-.5-4.4-.9-.3-.1-.6-.5-.9-.8-.1.2-.3.3-.4.5 0 5.7 2.7 10.6 4.5 15.7H458.8c-7.7 0-14 .5-13.6-10.8.3-9.6 3.4-12 12.6-12 146.8.4 293.5.3 440.2.3z" class="st3"/><path d="M917.3 743.2c-1.4 3.1-3.8 3-6.5 2.2-1.4-4.8-6.6-7.9-5.8-13.6-.1-4-3.4-7.6-1.5-11.9 10.1 1.3 5.7 12.9 11.9 16.9 2.1 1.7 1.9 4.1 1.9 6.4z" class="st17"/><path d="M903.5 719.8c-1.9 4.3 1.5 7.9 1.5 11.9-7.3 1.2-6.4-5.3-8.5-9-1.9-5.1-4.5-10-4.5-15.7.1-.2.3-.3.4-.5.3.3.5.7.9.8 1.4.3 2.9.6 4.4.9l.1-.5c-1.3 5-.4 8.8 5.1 10.6 0 .6.2 1.1.6 1.5z" class="st16"/><path d="M1150.8 820.7c-2.4 13.3-4.8 26.7-7.2 40-.8 4.5-3.3 6.2-7.7 5.2-11.7-2.6-23.5-4.6-35.6-4.2-6.3.2-7.4-3-5.8-8.4 4.5-15.8 8.9-31.5 13-47.4 1.4-5.3 3.3-7.9 9.1-5.6 9.7 3.8 19.4 7.5 29.1 11.1 4.7 1.7 6.1 4.8 5.1 9.3zM1132 939.3c-.1.4 0 .9-.2 1.1-.5.4-1.2.6-1.7.9-2.3-4.5-1.6-10.2-5.1-14.3-1.7-4.9-3.1-9.9-5.3-14.6-2.6-5.8 1-6.8 5.2-7.9 5.4-1.5 6.4 2 6.6 5.8.3 9.8.3 19.4.5 29z" class="st1"/><path d="M1076.6 758.2c7.8-2.9 13.2-10.3 21.7-12-.3 4.9-.5 9.8-.8 14.7-6.8-1.4-14.4 2.1-20.9-2.7z" class="st7"/><path d="M1098.3 746.3c.7-.8 1.4-1.5 2.2-2.3-.8.8-1.5 1.5-2.2 2.3z" class="st17"/><path d="M602.4 813.2c-1.1-3.6 2.1-5 5-6.2 4.4-1.9 9-3.5 13.5-5.1 23.4-8.4 23.5-8.4 29.9 15.3 2.9 10.8 5.5 21.8 8.7 32.5 1.6 5.3.4 7.6-5.2 7.3-12.1-.7-23.9 2-35.8 3.8-4.2.7-7.1.8-7.8-4.3-.4-2.8-1.4-5.5-1.9-8.2-2.1-11.4-4.2-22.9-6.4-35.1zM627.7 927.2c-5.7.9-4.6 5.4-4.8 9.2-.3 4.2 1.2 8.8-2.1 12.4-.8-14.4.9-28.8 2.3-43.1.3-3.1-.2-7 5-5.8 4.2 1 8.1 2.3 6.3 7.9-2.2 6.5-4.5 12.9-6.7 19.4zM666.3 922.3c-5-.2-4.2 5.6-7.5 7.2.2-4.3.2-8.7.5-13.1.2-2.9-1-7.2 3.6-7.4 5-.2 5.3 3.8 5 7.6-.2 1.9-1.1 3.8-1.6 5.7z" class="st1"/><path d="M1641 738.9v2.4c-.3-.6-.6-1.1-.8-1.7 0-.1.5-.4.8-.7z" class="st18"/><path d="M1528.4 661.6c-3.2-8.2-3.6-15.2 7.6-16.9 9.5-.4 19 1.2 28.4-1.8 6.4-2 9.6-5.4 7.1-12.3 28.6-15.4 50.5-12.3 66.8 9.4-14.3 19.6-32.2 35.7-49.9 51.9 1-7.7-4.5-10.3-10.1-12.7 4.8-1.7 7.4-4.7 6.1-10-1.5-5.7-6.3-5-10.7-5.3-15.1-1.1-30.4 2.4-45.3-2.3z" class="st7"/><path d="M1578.3 679.1c5.7 2.4 11.1 5 10.1 12.7-.1 3.4-3.3 4.1-5.3 5.8h-64.6c-5.5-6.5-8.7-12.6 2.3-16.8 19.3 2.8 38.3-3.9 57.5-1.7z" class="st7"/><path d="M1583.2 697.7c2-1.7 5.1-2.4 5.3-5.8 17.8-16.2 35.7-32.3 49.9-51.9 4.2 3.8 8.4 7.5 7.5 13.9-14.9 17.8-31.3 34.1-49.7 48.3-4-2.5-8-5.2-13-4.5z" style="fill:#8d71aa"/><path d="M1578.3 679.1c-19.2-2.2-38.2 4.5-57.4 1.7-6.1-9.8-2.7-15.9 7.6-19.2 14.9 4.7 30.2 1.2 45.2 2.2 4.4.3 9.2-.4 10.7 5.3 1.3 5.3-1.3 8.3-6.1 10zM1571.6 630.5c2.4 6.9-.8 10.2-7.1 12.3-9.4 3-18.9 1.4-28.4 1.8-7.8-12.5-6.2-16.3 8.4-19.3h15c4.8 0 8.9 1.6 12.1 5.2z" class="st5"/><path d="M1559.5 625.3h-15c0-1.2-.2-2.4.1-3.5 1.1-5.2 1.5-13.1 8.2-11.5 4.9 1.2 10.2 7.4 6.7 15z" class="st7"/><path d="M1596.9 292.9c-23.3 0-23.3 0-23.3-22.9 0-6.7.1-13.5.2-20.2 7.9 0 15.8-.1 23.8-.1-.2 14.4-.5 28.8-.7 43.2zM1504.3 258.8c2.2-4.8 4.6-9.1 10.8-9.6 6.6-.6 10.9.7 10.4 8.7-.4 7.5.2 15.1-.2 22.6-.2 4.3 2.4 10.5-4.7 11.7-6.6 1.1-13.7 2-16.4-6.9.1-8.8.1-17.6.1-26.5zM1573.8 243.8c-.1-1.2-.2-2.3-.2-3.5 8.1.2 17.1-5 24 3.6-8 0-15.9-.1-23.8-.1z" class="st1"/><path d="M1573.8 243.8c7.9 0 15.8.1 23.7.1 0 1.9.1 3.8.1 5.8-7.9 0-15.9.1-23.8.1v-6zM1527.6 251.5c.7.1 1.4.1 2.2.2.1 13.5.2 27 .4 40.6-.9.1-1.8.2-2.7.2 0-13.6 0-27.3.1-41z" class="st7"/><path d="M852.1 548.2c5.8 0 11 2.2 16.1 4.5 13 6.1 15.5 12.7 10.9 27.2-40-.1-80-.5-119.9.1-10.6.2-14.9-3.1-13.6-13.5 13.1-13.6 30.6-16.1 48-18.5 19.5.2 39 .2 58.5.2z" class="st5"/><path d="M745.6 566.5c-1.3 10.4 3 13.6 13.6 13.5 40-.6 79.9-.1 119.9-.1.3.8.3 1.5.1 2.3l-.6.2c-44.1.2-88.2.4-132.2.5-1-.3-2.1-.6-3.1-.9-1.5-4.8-1.6-9.7.1-14.5.7-.2 1.5-.6 2.2-1zM852.1 548.2c-19.5 0-39-.1-58.5-.2 19.6-4.4 39-5.2 58.5.2z" class="st5"/><path d="M912.2 321.1c-67.5.1-134.9.1-202.3.5-8.2 0-11-3.3-9.9-10.8 1.6-10.7-2.7-14.1-13.4-13.4-14 .9-28.1.3-42.2.3-.7-1.9-1.9-3.7-2-5.6-.3-16.5-.2-16.5-16.4-16.5l-157.4-.6c4-2.8 8.5-1.7 12.9-1.7 67.8-.1 135.6-.1 203.5 0 6.4 0 14.2-2.5 16.4 7.4.2 1 3.4 2 5.2 2 9.6.2 19.3.1 28.9.1 3.3 0 5.2-1.8 5.8-5 1.8 6 6.4 6 11.5 6 39.3-.1 78.6-.2 117.9.1 6.7 0 10.7-2.1 12.8-8.1.2 2.8-.1 5.9 3.5 6.7 31.1 6.5 25.3 13.3 25.2 38.6z" class="st8"/><path d="M743.3 270.8c6.8-11.4 18.8-14.5 30.2-17.8 26.6-7.5 53.7-9 80.9-3.7 4.3.8 8.7 1.7 12.2 4.8-2 8.3-3.9 16.6-14.9 16.8-15.1.3-30 2.9-45.2 2.8-21.2-.3-42.2-1.3-63.2-2.9z" class="st7"/><path d="M743.3 270.8c21 1.6 42 2.6 63.2 2.8 15.2.1 30.1-2.5 45.2-2.8 11-.2 12.9-8.5 14.9-16.8 10.5 3.5 16.1 10.8 17 21.8-2.2 6-6.2 8.2-12.8 8.1-39.3-.3-78.6-.2-117.9-.1-5 0-9.7 0-11.5-6 .6-2.3 1.3-4.7 1.9-7z" class="st7"/><path d="M746.4 583c44.1-.2 88.2-.4 132.2-.5-2.3 2.1-5.1 2-7.9 2-39.5 0-79.1 0-118.7-.1-1.8 0-3.7-.9-5.6-1.4z" class="st5"/><path d="m643.8 575.6 3.3-3c-.1 16.1-.1 32.2-.2 48.3-6-9.8-1.4-20.7-2.9-31-.7-4.7-.2-9.5-.2-14.3z" class="st8"/><path d="M902.8 718.3c-5.4-1.7-6.4-5.6-5.1-10.6 1.6-.1 3.3-.2 4.9-.3.1 3.6.2 7.3.2 10.9z" class="st3"/><path d="M289 1018v-46" style="fill:none"/><path d="M1615 433h34v14h-34zM1653 350h17v47h-17z" class="st5"/></g></svg>