<svg xmlns="http://www.w3.org/2000/svg" xml:space="preserve" style="enable-background:new 0 0 1920 1080" viewBox="0 0 1920 1080"><style>.st0{fill:#deaaff}.st1{fill:#9494ae}.st2{fill:#d0d1ff}.st3{fill:#d2eaf5}.st6{fill:#a59daf}.st8{fill:#7c838f}.st9{fill:#394758}.st10{fill:#222031}.st11{fill:#232233}.st12{fill:#e9eef1}.st13{fill:#292937}.st14{fill:#f5f8f8}.st15{fill:#242333}.st16{fill:#3a4a5c}.st17{fill:#7f8590}.st18{fill:#5d7485}.st19{fill:#59738c}.st20{fill:#687d8b}.st21{fill:#5a6b83}.st22{fill:#fcfcfc}.st23{fill:#59738b}.st26{fill:#c0fdff}</style><path id="fond" d="M-34-46h1993v1186H-34z" class="st0"/><g id="ville"><path d="M1919.82 1017.83c0 18.31-.19 36.62.14 54.92.08 4.46-.86 6.11-5.32 5.22-1.33-.26-2.75-.04-4.13-.04H536.84c19.8-6.34 40.59-5.41 60.89-8.12 18.68-2.49 37.52-3.8 56.28-5.69 22.52-2.27 45.03-4.64 67.55-6.89 21.84-2.18 43.7-4.18 65.53-6.43 6.56-.67 8.2-5.86 8.35-11.25.13-4.68 2.39-11.18-6.22-11.29-31.84-2.19-63.68-4.28-95.51-6.59-53.73-3.91-107.45-7.95-161.17-11.94-5.4-4.55-11.46-7.16-18.68-6.34-.34-5.5-.43-11.03-1.09-16.5-1.5-12.57-1.32-13.09 11.22-12.75 53.72 1.46 107.45 2.51 161.13 4.86 23.42 1.03 46.83 1.23 70.24 2.03 57.48 1.96 114.96 3.65 172.44 5.45.09 4.11.69 8.27.18 12.3-1.18 9.31 2.93 11.48 11.68 11.62 9.28.15 12.38-3.06 11.36-11.89-.39-3.34.37-6.8.61-10.21 47.88.49 95.71 2.48 143.56 4.21 85.01 3.06 170.05 5.58 255.07 8.31 43.02 1.38 86.05 2.77 129.07 4.09 73.67 2.26 147.35 4.46 221.02 6.69 1.14 25.1 1.14 25.1 15.95 25.02 14.49-.08 14.46-.08 14.73-14.97.05-2.74.43-5.48.65-8.22 12.41.08 24.82.03 37.22.27 50.32.99 100.57 4.37 150.92 4.13zM487.15 1077.93h-596.26l.33-124.55c30.93 1.29 61.86 2.79 92.8 3.84 65.33 2.2 130.67 4.24 196.02 6.19 58.83 1.76 117.66 3.28 176.48 4.99 4.78.14 9.55.98 14.32 1.49.2 2.7.72 5.42.55 8.09-.39 6.12 1.24 9.29 8.37 9.27 7.13-.03 8.76-3.23 8.33-9.34-.19-2.69.22-5.41.36-8.12 11.38.25 22.77.17 34.13.81 25.17 1.44 25.16 1.59 23.12 26.51-6.41.21-10.65 4.46-15.16 8.21-26.03 2.23-52.08 4.25-78.09 6.75-62.61 6.01-125.2 12.24-187.79 18.38-4.92 10.91-3.63 19.75 3.34 20.39 33.09 3 66.17 6.6 99.34 8.19 30.84 1.48 61.49 4.85 92.27 6.89 33.83 2.25 67.62 5.16 101.41 7.98 8.76.73 17.68.94 26.13 4.03z" class="st1"/><path d="M1919.82 1017.83c-50.35.24-100.6-3.14-150.91-4.12-12.4-.24-24.82-.19-37.22-.27-1.99-20.69-1.17-41.4-.44-62.11 11.34.06 22.67.18 34.01.18 51.52.02 103.04 0 154.56 0v66.32z" class="st2"/><path d="M1919.82 951.52c-51.52 0-103.04.02-154.56 0-11.34 0-22.67-.12-34.01-.18l.06-24.89c62.83.07 125.67.13 188.5.2.01 8.29.01 16.58.01 24.87z" class="st1"/><path d="m951.33 827.25-.09 97.13c.05 6.41.09 12.83.14 19.24-.66 14.9-1.11 29.8.24 44.69-.24 3.41-.99 6.88-.61 10.21 1.02 8.83-2.08 12.05-11.36 11.89-8.74-.15-12.86-2.31-11.68-11.62.51-4.03-.09-8.2-.18-12.3-.04-14.3-.08-28.61-.11-42.91v-19.14c-.04-32.4-.07-64.8-.11-97.2 7.92-3.74 15.84-3.79 23.76.01z" class="st3"/><path d="M951.62 988.31c-1.35-14.89-.9-29.79-.24-44.69 249.67 3.67 499.35 5.96 749.04 7.83-.03 20.05-.05 40.1-.08 60.15-73.67-2.23-147.35-4.43-221.02-6.69-43.03-1.32-86.05-2.71-129.07-4.09-85.03-2.73-170.06-5.24-255.07-8.31-47.85-1.72-95.68-3.7-143.56-4.2z" class="st2"/><path d="M1700.35 1011.6c.03-20.05.05-40.1.08-60.15l-.12-25.02c.66-19.05 1.03-38.1-.2-57.15.17-21.65.8-43.3.31-64.94-.23-10.06 4.01-12.24 12.92-12.02 15.98.39 17.39.92 17.7 11.78.28 9.95.51 19.9.76 29.85-2.5 17.42-.7 34.94-1.01 52.4-.24 13.36.33 26.73.54 40.1-.02 8.29-.04 16.59-.07 24.89-.74 20.71-1.55 41.42.44 62.11-.23 2.74-.6 5.47-.65 8.22-.27 14.89-.24 14.89-14.73 14.97-14.83.06-14.83.06-15.97-25.04z" class="st3"/><path d="m-108.78 953.38.09-22.31c19.3.09 38.59.48 57.89 1.03 56.18 1.61 112.39.84 168.59 2.06 84.46 1.83 168.95 1.96 253.43 2.82.54 10.98 1.18 21.96-.39 32.91-4.77-.51-9.54-1.35-14.32-1.49-58.83-1.72-117.66-3.24-176.48-4.99-65.34-1.95-130.68-3.99-196.02-6.19-30.94-1.04-61.86-2.55-92.79-3.84z" class="st2"/><path d="M370.83 969.89c1.56-10.95.92-21.93.39-32.91-.01-4.74-.03-9.48-.04-14.21.05-21.71.01-43.42.21-65.13.04-4.78-1.71-11.32 6.83-10.89 7.06.36 9.84 3.71 9.71 11.28-.36 21.7.15 43.41.32 65.11.02 4.77.05 9.54.07 14.31l.12 32.35c-.14 2.71-.54 5.44-.36 8.12.43 6.11-1.2 9.31-8.33 9.34-7.13.03-8.76-3.15-8.37-9.27.17-2.69-.34-5.4-.55-8.1z" class="st3"/><path d="M371.18 922.76c.01 4.74.03 9.48.04 14.21-84.48-.85-168.98-.99-253.43-2.82-56.2-1.22-112.41-.45-168.59-2.06-19.3-.55-38.59-.93-57.89-1.03-.01-3.51-.03-7.02-.04-10.53 10.87-.04 21.74-.09 32.61-.13 17.99 3.61 36.13 1.32 54.2 1.29 1.82-.46 3.63-.92 5.45-1.39 14.68.33 29.36.65 44.04.98 14.46 1.86 28.95 1.16 43.44.42 11.77.1 23.54.21 35.31.32 41.36.14 82.73.15 124.09.51 7.36.06 8.45-3.53 8.41-9.61-.17-25.54.07-51.07-.15-76.61-.05-6.3 1.57-9.32 8.56-9.66 11.66-.57 23.25-2.97 34.9-3.26 9.24-.23 18.5-3.54 29.9-1.1-5.63 4.5-10.33 4.58-14.98 4.87-5.5.34-10.99.95-16.48 1.05-8.91.15-11.14 4.57-10.91 13.12.61 22.76.65 45.56.01 68.32-.28 9.75 2.3 13.17 12.56 12.97 29.65-.54 59.31.02 88.95.14z" class="st1"/><path d="M273.62 646.77c-13.14 5.68-27.41 5.54-41.17 8.02.08-36.21.17-72.42.25-108.63 10.83 7.66 19.43 15.76 19.82 31.11.63 24.81 10.01 47.56 21.1 69.5z" style="fill:#8fd1e8"/><path d="M232.7 546.16c-.08 36.21-.17 72.42-.25 108.63l-12.78 2.19c.09-42.09.18-84.19.28-126.28 4.22 5.18 9.63 9.38 12.75 15.46z" style="fill:#81a0d2"/><path d="m1700.3 926.43.12 25.02c-249.69-1.87-499.37-4.16-749.04-7.83-.05-6.41-.09-12.82-.14-19.24l90.87.18c2.75 1.42 5.5 2.83 8.28.06l74.23-.12c118.52.07 237.04.08 355.56.27 17.87.03 35.67 2.98 53.58 1.56l81.22.15c13.93.03 27.86.06 41.79.08 7.55.02 15.1-.02 22.65.1 3.93.07 7.61-.16 9.75-4.16 2.4 5.06 7.06 3.67 11.13 3.93z" class="st1"/><path d="M1441.74 534.24c-1.36.06-2.72.11-4.08.17.22-1.79.92-3.34 2.97-3.15 1.99.17 1.41 1.72 1.11 2.98z" class="st6"/><path d="M540.19 922.45c56.23.02 112.46.05 168.7.07 65.08.05 130.13 3.27 195.23 2.1 7.85-.14 15.7-2.06 23.57-.19v19.14c-34.08-.29-68.19.05-102.25-1.01-60.57-1.9-121.18-.41-181.73-2.21-39.59-1.17-79.16-.6-118.73-1.46-15.69-.34-15.7-.11-14.88-15.98 10.03-.15 20.06-.3 30.09-.46z" class="st1"/><path d="M1700.3 926.43c-4.07-.26-8.73 1.13-11.11-3.93l.45-25c.23-.61.34-1.24.33-1.9 3.04-8.91 4.47-18.43 10.12-26.33 1.24 19.06.87 38.11.21 57.16z" style="fill:#498e5a"/><path d="M1689.98 895.61c.01.65-.1 1.29-.33 1.9-.09-.46-.23-.93-.23-1.39 0-.18.36-.35.56-.51zM388.25 923.13l62.95-.57c-.35 14.8-.35 14.73-14.74 14.71-16.05-.02-32.09.1-48.14.16-.02-4.76-.05-9.53-.07-14.3z" class="st1"/><path d="M1176.52 755.97c-.52.05-1.05.11-1.57.16.15-4.22-2.79-4.09-5.71-4.15-52.93-.96-105.86-1.93-158.79-2.9l-1.67-.15c.14-16.7.26-33.4.43-50.09.03-2.54.24-5.09.37-7.63 3.99-1.39 7.98-2.77 11.97-4.16 4.21.02 8.42.05 12.62.07 7.23 5.32 14.92 2.75 22.54 1.33 26.59.95 53.18 1.98 79.78 2.79 10.03.3 10.15.06 10.17-10.28.06-27.4.27-54.8-.07-82.19-.21-16.58 2.98-14.45-15.68-15.6-16.29-1-32.51-2.8-48.86-3.42-22.09-.84-44.11-3.42-66.17-5.2-2.07-.17-4.28-.37-5.73 1.72l-1.56-.81c.2-1.85.58-3.71.58-5.56.01-166.81-.02-333.62-.04-500.44.85-.03 1.7-.07 2.55-.1 31.67 7.38 63.33 14.75 95 22.14 10.6 2.47 10.66 2.49 11.06 13.08.21 5.37.17 10.76.16 16.14-.03 19.91-.08 39.82-.14 59.73-.01 2.72.11 5.08 3.67 5.66 10.37 1.69 20.4 5.19 30.97 5.88 4.96 1.99 10.11 3.4 15.41 3.85 3.54.3 6.18 1.68 8.35 4.31l.18 239.24c-.96 0-1.93.01-2.89.01-.78-.49-1.51-1.28-2.34-1.42-22.03-3.62-44.07-7.19-66.12-10.74-2.64-.43-3.32 1.34-3.16 3.41.18 2.31.72 4.59 1.11 6.88-.24.4-.68.8-.68 1.2-.12 32.97-.2 65.93-.32 98.9-.01 2.99 1.47 4.08 4.29 4.26 14.45.95 28.88 1.99 43.33 3 2.75.81 4.6-.05 5.4-2.89.03 5.32 4.72 2.93 7.13 4.31 4.91-.12 9.95-1.8 14.58 1.28-.14 3.97-.4 7.95-.4 11.92.06 65.51.16 130.99.25 196.46z" class="st8"/><path d="M1176.52 755.97c-.09-65.48-.19-130.96-.26-196.43 0-3.97.26-7.95.4-11.92 4.35 1.29 4.91 6.12 8.02 8.57 4.65 4.91 9.3 9.83 13.98 14.71.78.81 1.62 1.85 2.96 1.35 1.09-.4.86-1.41.87-2.35.12-9.52.19-19.04.47-28.56.54-18.19-1.02-36.42 1.23-54.59.33-2.65.91-5.64-1.24-8.05.01-.98.01-1.96.02-2.93-7.29-13.28-17.32-24.57-26.62-36.37l-.18-239.24c8.28 12.81 14.12 26.89 20.71 40.55 17.41 36.04 34.45 72.26 51.7 108.38 11.38 23.83 22.82 47.64 34.36 71.39 1.63 3.35 1.74 6.73 1.74 10.25 0 47.82.19 95.64-.16 143.45-.07 9.19 2.17 16.55 8 23.74 14.86 18.32 29.04 37.19 43.52 55.83.7.91 1.6 1.66 2.41 2.48 7.75 12.33 17.23 23.35 26.17 34.79-.02 40.02-.04 80.04-.05 120.05-1.3-.09-2.61-.19-3.91-.28-11.99-4.59-23.93-9.3-35.97-13.75-15.18-5.61-15.21-5.52-14.75 10.79 0 27.77-.13 55.54.12 83.3.05 5.57-1.72 7.8-7.21 7.09-1.38-.18-2.8-.05-4.19-.06-.04-35.68-.09-71.35-.13-107.03-.12-1.34-.9-1.89-2.17-2.29-8.68-2.71-17.5-5.08-25.91-8.48-5.59-2.26-7.26-1-6.81 4.59.4 2.77 1.14 5.54 1.14 8.32.07 36.09.01 72.18.06 108.26.01 6.3-2.56 9.27-9 10.99-22.81 6.1-45.41 13.01-68.08 19.64-2.01.59-4.15 1.19-4.43 3.85-4.99 1.08-6.98-.41-6.96-6.01.2-58.01.14-116.02.15-174.03zm176.74 22.93c-2.27 4.88-.14 8.1 4.45 10.6v-6.77c-.82-8.08 1.82-16.6-2.73-24.26-2.36 6.76-1.05 13.66-1.72 20.43zm.25-52.82c.39 3.22-1.68 8.34 2.32 8.98 3.25.52 1.09-4.33 1.82-6.67.01-2.58.05-5.16.03-7.74-.03-4.69-.03-9.37-.19-14.06-.06-1.88-1.51-3.31-3.15-3.22-2.94.16-1.08 2.37-1.07 3.72.05 6.34.15 12.66.24 18.99zm-21.12 42.51c-.02 1.16-.15 2.34-.04 3.49.3 3.16-1.01 6.6 1.5 9.35.31.34 1.63.4 1.79.15 2.13-3.42.06-6.71-.46-10.06 2.35-9.63 2.26-19.11-.42-28.44-.79.01-1.59.03-2.38.04.01 8.49.01 16.98.01 25.47zm.01-62.23c.46 4.55-1.57 9.63 3.06 14.34 1.69-4.13.8-7.61 1.12-10.92-.76-9.53 1.78-19.45-1.85-28.64-.78.05-1.55.11-2.33.16v25.06zm15.16 13.52c3.24-7.57 1.41-15.43 1.14-23.17-.05-1.58-1.55-3.24-3.27-3.09-2.22.2-1.73 2.4-1.74 3.92-.06 6.73-.03 13.45-.04 20.18 0 .93-.02 1.87.01 2.8.11 3.2-.76 6.69 2.55 8.96.79.54 1.93.89 2.39-.18 1.39-3.28.28-6.38-1.04-9.42zm-3.9 52.83c.01 2.52-.01 5.04.02 7.55.03 2.73 1.01 5.82 3.76 5.61 3.07-.24 1.43-3.69 1.74-5.74.2-1.34.06-2.74.08-4.11-.01-2.56-.01-5.12-.03-7.68-.04-5.12.02-10.23-.17-15.34-.08-2.23-1.32-4.54-3.62-4.4-2.55.16-1.72 2.88-1.74 4.57-.1 6.51-.05 13.02-.04 19.54zm-25.33-79.96c.07 3.9-.04 7.82.26 11.71.19 2.47 1.9 4.85 4.28 4.64 3.58-.31 1.01-3.18 1.15-4.89.21-2.54-.15-5.05-1.44-7.33 2.9-9.28 1.18-18.73.91-28.1-.05-1.67-1.5-3.77-3.74-3.21-2.05.51-1.33 2.71-1.35 4.21-.08 7.65-.05 15.31-.07 22.97zm5.51 73.24c.05-5.93.14-11.86.14-17.79 0-3.72.02-7.44-.26-11.14-.15-1.92-1.38-3.93-3.34-3.96-2.91-.05-1.93 2.67-1.95 4.26-.13 7.9-.08 15.81-.09 23.71.02 3.75 0 7.5.09 11.24.06 2.47 1.46 4.19 3.89 3.98 2.3-.2 1.58-2.5 1.64-3.99.1-2.1-.06-4.21-.12-6.31zm-14.01-9.47c-1.26-11.43 3.18-23.68-3.17-34.38l-2.4.24v30.74c.03 3.9-.05 7.81.15 11.7.11 2.23 1.45 4.41 3.64 4.37 2.63-.06 1.71-2.75 1.79-4.4.14-2.76.01-5.52-.01-8.27zm.03-73.34c.01-8.64-.02-17.28.04-25.91.03-3.72-.78-6.84-5.62-8.64v30.97c.12 4.42.08 8.86.43 13.26.13 1.63 1.57 3.24 3.26 3.21 2.39-.03 1.79-2.3 1.85-3.78.11-3.04.03-6.08.04-9.11zm-23.88 61.45c.04 4.64-.23 9.31.25 13.91.27 2.58 2.53 5.15 5.06 5.02 2.82-.15 1.59-3.32 1.7-5.2.18-3.01 0-6.03-.02-9.05.01-9.36-.17-18.73.12-28.08.16-5-2.06-8.16-7.11-11.98v35.38zm5.62-77.25c2.81-10.99 1.24-22.11.88-33.18-.02-.64-.52-1.29-.88-1.89-.96-1.61-2.03-3.78-3.99-3.45-2.5.41-1.62 3-1.63 4.71-.07 9.81-.01 19.62.01 29.42 0 4.66-.18 9.33.06 13.98.15 2.96 2.69 4.93 5.08 4.94 3.07.02 1.76-3.19 1.87-5.01.18-3.23.47-6.56-1.4-9.52zm-16.96-51.61c.03-8.84-.28-17.69.19-26.5.32-5.95-3.62-9.25-6.6-13.25-.66-.89-1.82-1.58-3.07-1.02-1.43.63-.82 1.87-.79 2.99.25 10.45.43 20.9.64 31.35-3.03 8.88-1.8 14.59 4.18 18.57 1.28.85 2.44 2.74 4.19 1.98 2.18-.95 1.25-3.27 1.32-5.01.13-3.03-.02-6.08-.06-9.11zm-.01-101.12c.03-9.54.12-19.09.07-28.63-.04-8.1-5.32-13.39-9.97-19.1.91 12.54-.35 24.82.22 37.08-1.7 13.34.88 21.12 9.68 27.59v-16.94zm-23.73 77.98c-4.85 7.58-3.16 16.29 4.06 21.03 2.92 1.92 4.2.98 4.21-2.32l.03-12.47c0-9.36-.39-18.75.13-28.08.46-8.22-4.85-12.15-10.1-16.57.72 7.45-.27 14.68.16 21.87.32 5.53-1.43 11.26 1.51 16.54zm-1.49 112.56c-.31 4.85-.01 9.69-.97 14.56-1.13 5.7 3.33 8.36 7.71 8.82 5.12.53 2.67-4.3 2.94-6.76.42-3.91.12-7.89.12-11.84 0-9.8-.17-19.61.07-29.41.1-4.13-1.1-7.3-4.33-9.72-1.38-1.03-2.3-3.49-4.53-2.34-1.71.88-1.05 2.93-1.05 4.48-.03 10.74.02 21.48.04 32.21zm.02-225.39c-1.98 9.54-3.58 18.98 5.72 26.06.88.67 1.46 1.97 2.84 1.44 1.37-.53 1.15-1.91 1.16-3.01.07-4.66.06-9.32.08-13.98-.01-10.74-.15-21.49.03-32.23.14-8.4-5.88-13.12-10.02-19.03.82 13.77-.3 27.27.19 40.75zm-14.28 405.32c2.15-1.48 1.53-3.76 1.53-5.77.04-34.32.05-68.64-.01-102.97 0-2.37.99-5.38-2.58-6.42-11.29-3.29-22.6-6.51-33.85-9.92-3.03-.92-4.43-.29-4.28 2.98l.15 121.85c-1.09 5.77 1.85 6.89 6.76 5.99 10.76-1.96 21.52-3.83 32.28-5.74zm-6.86-193.67c2.64-6.55.39-13.48 1.5-20.08 2.33-13.92-1.81-24.36-14.8-30.77-1.19-.59-2.02-2.37-3.49-1.89-2.02.66-1.42 2.71-1.43 4.24-.05 12.84-.04 25.68-.04 38.52 0 3.96.66 8.06-.14 11.85-2.3 10.92 3.78 16.17 12.39 20.29 3.93 1.88 6.16 1.9 6.06-3.3-.12-6.29-.04-12.58-.05-18.86zm9.71-113.96c2.99-12.44 3.61-25.67.17-37.29-2.79-9.43-11.57-17.34-19.9-25.09-1.81 14.93-.85 28.7-1.22 42.44.04 3.99-.03 7.98.14 11.96.15 3.44-1.1 7.26 1.56 10.16 4.91 5.36 10.17 10.37 16.1 14.61 2.79 1.99 4.45 1.12 4.55-2.22.15-4.9.64-9.87-1.4-14.57zm1.5-119.37c-.01-11.69-.07-23.38.02-35.07.02-3.37-.44-6.55-2.33-9.36-5.19-7.74-10.44-15.44-15.66-23.16-.76-1.13-1.4-2.78-3.05-2.25-1.65.52-1.3 2.3-1.3 3.64-.05 9.35-.17 18.71.02 28.05.09 4.36-1.15 8.91 1.3 13.05-.85 8.63-4.07 17.42 3.05 25.25 5.79 6.36 9.8 14.31 17.96 20.71-.01-7.91-.01-14.38-.01-20.86zm122.41 324.79c1.63-6.66 1.65-13.31 0-19.97-1.69 6.66-1.67 13.31 0 19.97zm-.09-72.02c-1.18 6.65-1.98 13.32.17 19.94 1.52-6.64 1.6-13.28-.17-19.94z" class="st9"/><path d="M1364.57 811.07c.02-40.02.04-80.04.05-120.05.13-10.66.27-21.32.4-31.99 5.58 3.2 7.37 9.33 10.78 14.17 4.56 6.47 8.07 13.67 13.51 19.55.19 7.02.52 14.03.54 21.04.13 46.4.19 92.8.27 139.2-.95 5.03-2.14 9.72-6.44 13.39-6.27 5.36-12.37 3.51-18.74.8-.08-2.37-.17-4.73-.25-7.1l-.12-49.01z" class="st10"/><path d="M1390.11 853c-.08-46.4-.14-92.8-.27-139.2-.02-7.02-.35-14.03-.54-21.04 5.58 5.24 5.03 12.09 4.97 18.83-.02 2.57-.02 5.14-.02 7.71.01 6.98.55 14.01-.1 20.92-.73 7.78 3.9 11.55 9.66 16.22.64-12.57 1.22-24.08 1.8-35.6 5.4 1.36 7.09 5.09 6.99 10.33-.09 4.79-.81 9.7 1.44 14.27-3.31 5.41-3.13 10.82 1.5 15.07 5.87 5.38 7.16 11.65 7.01 19.32-.46 24.46-.26 48.94-.31 73.41-10.7-.09-21.41-.17-32.13-.24z" class="st8"/><path d="M1152.4 192c-10.57-.68-20.6-4.18-30.97-5.88-3.56-.58-3.68-2.94-3.67-5.66.06-19.91.12-39.82.14-59.73.01-5.38.04-10.76-.16-16.14-.4-10.59-.47-10.61-11.06-13.08-31.66-7.39-63.33-14.76-95-22.14 0-1.42.01-2.85.01-4.27 1.61.25 3.24.39 4.81.76 31.33 7.44 62.65 14.94 94.01 22.3 2.77.65 6.5 3.26 8.01-1.98 9.34 28.8 18.7 57.59 28 86.41 2.07 6.44 3.93 12.95 5.88 19.41z" class="st11"/><path d="M837.28 166.6c-1.14-6.62 2.54-9.8 7.89-12.9 52.29-30.28 104.43-60.8 156.61-91.26 2.22-1.3 4.37-2.71 6.55-4.07 1.85 1.26.34 3.69 1.77 5.1-1.05.9-1.99 2.02-3.18 2.68-37.43 20.8-73.8 43.4-110.73 65.05-19.77 11.59-39.29 23.59-58.91 35.4z" class="st12"/><path d="M837.28 166.6c19.63-11.81 39.15-23.81 58.91-35.39 36.93-21.65 73.3-44.25 110.73-65.05 1.19-.66 2.13-1.78 3.18-2.68.53.55 1.07 1.09 1.6 1.64 0 1.42-.01 2.85-.01 4.27-.85.03-1.7.07-2.55.1-13.5 7.81-27.05 15.52-40.48 23.44-43.81 25.86-87.58 51.81-131.36 77.72-.01-1.35-.02-2.7-.02-4.05z" class="st13"/><path d="M1011.69 65.12c-.53-.55-1.07-1.09-1.6-1.64-1.43-1.41.08-3.84-1.77-5.1 8.68-.93 16.38 3.33 24.6 4.84 15.58 2.87 30.87 7.16 46.31 10.72 11.31 2.61 22.51 5.87 33.94 8.06 2.73.52 3.62 2.75 5.35 4.2-1.51 5.24-5.24 2.63-8.01 1.98-31.35-7.35-62.67-14.86-94.01-22.3-1.57-.37-3.2-.52-4.81-.76z" class="st8"/><path d="M1365.02 659.03c-.13 10.66-.27 21.32-.4 31.99-8.94-11.43-18.43-22.45-26.17-34.79 7.1.03 14.21.04 21.31.1 2.17.02 4.78-.69 5.26 2.7z" class="st14"/><path d="m835.86 194.52-.06 4.81c-3.93 2.43-7.79 4.99-11.81 7.26-18.6 10.48-36.51 22.17-55.6 31.79-.9-5.11 1.42-7.98 5.93-10.38 20.61-10.98 41.04-22.29 61.54-33.48z" class="st12"/><path d="M768.39 238.38c19.09-9.62 37-21.32 55.6-31.79 4.02-2.27 7.88-4.83 11.81-7.26 4.52.29 3.35 2.42 1.13 4.22-1.97 1.59-4.38 2.64-6.61 3.91-20.61 11.84-41.22 23.67-61.82 35.51-.04-1.53-.08-3.06-.11-4.59z" class="st13"/><path d="M1405.62 720.83c-.58 11.51-1.16 23.02-1.8 35.6-5.76-4.67-10.39-8.43-9.66-16.22.65-6.92.12-13.95.1-20.92 3.82.24 7.98-1.92 11.36 1.54z" class="st14"/><path d="M837.8 186.14c.13.3.29.59.37.9.03.11-.18.28-.28.42l-.09-1.32z" class="st12"/><path d="M965.63 763.3c-.69 40.26-1.46 80.53-1.96 120.79-.06 4.87-1.78 5.68-6.17 5.55-44.21-1.38-88.43-2.44-132.63-3.96-6.12-.21-8.21.99-7.72 7.44.65 8.61.23 17.32.11 25.98-.02 1.7 1.33 4.67-2.53 4.31.02-35.62.05-71.23.07-106.85 1.31-2.41.82-5.03.83-7.57.06-11.46.15-22.91 0-34.37-.05-3.97 1-6.06 5.42-6.14 5.59-.1 11.17-.81 16.76-1.18 40.76-2.71 81.53-5.35 122.28-8.19 3.62-.26 5.25.72 5.54 4.19z" class="st15"/><path d="M1008.6 575.48c.52.27 1.04.54 1.56.8.29 3.66 3.06 3.52 5.66 3.74 38.87 3.31 77.74 6.71 116.63 9.84 4.52.36 6.04 1.76 6.01 6.27-.16 27.87-.21 55.73-.01 83.6.04 5.26-2.14 6.34-6.72 6.08-10.27-.58-20.55-1.08-30.84-1.2-4.53-.06-6.16-1.62-6.1-6.17.13-10.77-.17-21.54-.28-32.31-.03-2.93.07-5.71-4.19-5.7-4.34.01-4.06 2.9-4.06 5.77-.01 10.3-.18 20.61.07 30.91.11 4.69-1.6 6.18-6.17 5.79-15.37-1.3-30.79-2-46.12-3.63-8.34-.89-16.91.6-25.05-2.33.03-11.2-.06-22.41.16-33.6.09-4.41-1.56-5.94-5.83-5.13-5.26 1-10.55 1.82-15.83 2.72-1.18.02-2.37.05-3.55.07-8.26 1.22-16.49 2.81-24.8 3.54-5.3.46-6.47 2.89-6.4 7.65.17 13.5-.02 27.01-.07 40.51-5.49.77-7.34-1.48-7.2-7.08.35-14.5.12-29.01.12-43.52 0-14.98.02-29.95-.01-44.93-.01-4.16.17-6.87 6.13-6.45 4 .28 8.76.08 12.86-2.18 4.56-2.51 9.22-7.31 14.44-.83.3.37 1.44.47 1.93.21 6.53-3.46 13.01-7 19.51-10.52 2.71-.64 5.43-1.28 8.15-1.92z" class="st11"/><path d="M1390.11 853c10.72.08 21.43.15 32.15.23.05 20.62-.06 41.24.28 61.86.08 4.64-2.22 5.17-5.71 5.93-37.62 8.13-75.72 12.66-114.09 15.02-18.23 1.12-36.47 2.14-54.75 1.5-2.83-2.23-7.47-2.5-8.88-.87-3.36 3.89-6.22 1.18-9.31.87-15.52.39-31-.17-46.47-1.51.28-2.66 2.41-3.26 4.43-3.85 22.67-6.63 45.27-13.54 68.08-19.64 6.44-1.72 9.01-4.69 9-10.99-.06-36.09.01-72.18-.06-108.26-.01-2.77-.75-5.55-1.15-8.31 2.49 1.18 5.31 1.5 7.75 2.45 5.17 1.99 12.45.49 14.7 7.93-.1 32.18-.14 64.37-.36 96.55-.03 3.97 1.8 5.49 5.27 5.81 2.55.24 5.11.32 7.66.46 1.4.01 2.82-.12 4.19.06 5.48.71 7.26-1.52 7.21-7.09-.25-27.76-.12-55.53-.12-83.3 7.43 1.53 14.85 3.05 22.28 4.58.09 15.89.18 31.78.26 47.66 1.58 7.86-3.04 10.7-10.04 12.07 8.59-1.71 17.07.49 25.09-1.29 5.79-1.28 12.45 1.3 17.42-3.67 6.36 2.71 12.46 4.56 18.74-.8 4.3-3.69 5.49-8.37 6.43-13.4z" class="st15"/><path d="M875.19 434.87c-5.93 2.06-11.85 4.12-18.47 6.43v-8.44c.01-36.58.08-73.16-.08-109.74-.02-4.1 1.13-6.12 4.98-7.85 32.89-14.74 65.69-29.67 98.42-44.75 4.95-2.28 6.64-2.33 6.55 4.02-.33 22.51-.09 45.02-.13 67.53 0 2.31-.41 4.62-.62 6.92-17.04 4.8-33 12.49-49.52 18.67-4.47 1.67-9.5 2.42-13.06 6.13-3.7-.86-6.36.76-8.52 3.58-4.69-.55-8.33 2.58-12.55 3.55-5.64 1.3-7.06 4.47-6.93 10.02.33 14.64 0 29.29-.07 43.93z" class="st11"/><path d="M1010.45 749.09c52.93.97 105.86 1.95 158.79 2.9 2.92.05 5.87-.08 5.71 4.15-6.75 18.19-13.51 36.37-20.26 54.56-5.03.02-10.07.03-15.1.05.16-3.65.46-6.97-5.05-6.94-28.49.16-56.98.12-85.46.02-3.51-.01-5.15 1.48-5.78 4.65-5.83-2.43-8.47-8.32-13.1-12.06-7.36-5.95-11.55-15.2-20.43-19.56-.31-6.93-.63-13.86-.94-20.8 1.86-2.03.87-4.7 1.62-6.97z" class="st16"/><path d="M1009.77 776.84c8.88 4.36 13.07 13.61 20.43 19.56 4.63 3.74 7.27 9.63 13.1 12.06.14 3.73.4 7.46.38 11.19-.2 38.31-.44 76.63-.66 114.94-.32.34-.55.73-.71 1.17-2.21.19-4.42.39-6.64.58-7.46-.95-14.67 1.72-22.07 1.51-2.4-1.91-1.9-4.62-1.89-7.14.07-48.9.13-97.8.34-146.69.01-2.28-.25-3.6-2.54-4.07.09-1.03.17-2.07.26-3.11z" class="st17"/><path d="M900.61 256.5c-2.99 2.07-5.99 4.14-9.79 4.41-3.59-2.5-4.47-5.92-4.4-10.22.23-15.57.13-31.14.05-46.71-.01-2.38 1-5.31-2.32-6.61-.26-2.72-1.25-5.5 2.1-7.35 21.26-11.69 42.46-23.47 64.41-35.61v61.02c-6.79.61-12.03 4.92-17.99 7.5-1.73.9-3.47 1.79-5.2 2.69-3.59 1.53-7.07 3.51-10.81 4.51-13.89 3.72-19.4 12.28-16.05 26.37z" class="st15"/><path d="M903.25 373.79c3.56-3.71 8.59-4.45 13.06-6.13 16.52-6.19 32.48-13.87 49.52-18.67 1.54 17.27.23 34.58.72 51.87.1 3.64-2.44 4.02-4.85 4.84-19.47 6.63-38.94 13.27-58.41 19.9-1.23-17.27-1.13-34.54-.04-51.81z" class="st18"/><path d="m826.01 540.62-5.27.42c-7.61 1.07-15.2 2.19-22.82 3.17-3.93.5-5.67 2.42-5.5 6.49.35 8.16.43 16.32.63 24.48-12.01 2.17-11.96 2.17-12.24-9.87-.44-18.47-.8-36.94-1.54-55.4-.19-4.66 1.27-6.36 5.82-7.27 16.48-3.27 32.89-6.96 49.29-10.66 3.09-.7 4.73-.74 4.77 3.17.17 14.25.57 28.51.88 42.76-4.61 1.19-9.55.7-14.02 2.71zM923.05 465.78c6.86-1.85 13.72-3.7 20.55-5.54v49.27l-17.82 4.56-5.48 1.38c-3.13.78-6.23 2.02-9.41 2.24-6.21.43-7.39 3.95-7.2 9.32.23 6.45-.12 12.93-.22 19.39-14.24 5.2-14.23 5.2-14.24-9.63-.01-20.27-.02-40.54-.04-60.81 11.29-3.39 22.57-6.79 33.86-10.18zM852.37 467.92c-2.61-1.86-5.23-3.72-8.91-6.34 22.24-7.25 43.24-14.1 64.23-20.95 22.25-7.26 44.43-14.75 66.79-21.65 5.79-1.79 7.86-4.07 7.82-10.46-.32-54.4-.18-108.8-.18-165.35 5.43 7.73 13.19 11.98 10.79 21.74-3.33 1.35-2.28 4.31-2.28 6.7-.05 44.78-.05 89.57 0 134.35 0 2.4-1.04 5.35 2.28 6.7.08 1.86.15 3.71.23 5.57-.3-.02-.59.03-.88.13l-1.94 1.7c-1.81 2.93-5.08 3.11-7.88 4.05-43.34 14.64-86.71 29.22-130.07 43.81z" class="st15"/><path d="M992.26 418.37c.28-.1.58-.15.88-.13.03 1.63.2 3.27.07 4.88-.47 6 2.59 13.58-1.36 17.61-3.76 3.84-11.07 4.25-16.85 6.07-17.75 5.6-35.51 11.16-53.26 16.73-11.46 3.04-22.88 6.22-33.94 10.57-8.92 2.62-18.03 4.74-26.7 8.02-6.67 2.52-8.26.15-8.21-5.85.03-2.78-.33-5.57-.51-8.36 43.36-14.59 86.73-29.17 130.07-43.8 2.8-.94 6.07-1.12 7.88-4.05 1.19.06 1.67-.69 1.93-1.69z" class="st18"/><path d="M789.46 274.97c15.92-8.61 31.85-17.21 48.77-26.36v49.91c-4 .54-7.62 1.99-10.83 4.45-1.61.82-3.22 1.65-4.83 2.47-16.85 5.72-16.85 5.72-17.56 22.7-.02.46-.08.92-.12 1.39-3.28 1.46-6.57 2.91-9.85 4.37-.53-.44-.86-.38-.9.37l-.13.07c-3.43-.15-4.93-1.84-4.9-5.36.18-18 .25-36 .35-54.01zM803.06 679.11l-3.74.93c-6.67.62-13.34 1.27-20.01 1.86-4.28.38-5.83 2.58-5.63 6.91.31 6.71.05 13.44.04 20.16-11.32 2.19-11.33 2.19-11.33-8.72-.01-16.62.16-33.24-.12-49.86-.07-4.13 1.11-5.62 5.15-6.32 15.2-2.62 30.35-5.51 45.47-8.53 3.5-.7 4.52.11 4.49 3.64-.14 12.63-.04 25.26-.03 37.89-4.77.69-9.53 1.37-14.29 2.04zM644.4 809.48c-.13-7.7-.14-15.41-.44-23.11-.13-3.26 1.33-3.76 4.15-3.88 22.65-.98 45.29-2.11 67.94-3.2l.27 34.42c-1.52.01-3.05-.04-4.2 1.23-.29.24-.35.52-.2.86l-61.64-.33c-1.51-2.17-3.81-1.68-5.94-1.77.02-.93.03-1.86.05-2.78.16-.14.49-.32.47-.42-.1-.34-.3-.68-.46-1.02z" class="st15"/><path d="M691.75 872.81c1.89 6.71-.49 9.01-7.5 8.57-9.29-.58-18.64-.17-27.96-.11-2.57.02-4.38-.09-4.32-3.63.31-16.53.36-33.07.51-49.61 2.23-1.33 1.9-3.54 1.92-5.63h35.19c-.01 14.54-.06 29.07.01 43.61.01 2.4-1.07 5.34 2.15 6.8z" class="st13"/><path d="M711.91 815.81c-.16-.34-.09-.63.2-.86 1.51-.04 3.26.73 4.2-1.23l-.27-34.42c14.24-1.04 14.24-1.04 14.24 12.52 0 39.62 0 79.24.02 118.85 0 4.65 1.04 8.88-6.69 8.75-7.06-.12-7.62-3.23-7.1-8.48.07-.68-.14-1.39-.22-2.09-.02-29.1-.04-58.21-.07-87.31 1.31-3.97-.84-5.34-4.31-5.73z" class="st19"/><path d="M1139.6 810.74c5.03-.02 10.07-.03 15.1-.05.18 37.52.45 75.03.43 112.55 0 6.48-.45 12.39 8.49 13.24h-26.37c-.15-.53-.31-1.07-.46-1.6 4.66-.62 2.69-4.34 2.7-6.61.17-34.66.17-69.33.17-103.99 0-2.55.34-5.18-1.14-7.52-.71-2.19.37-4.07 1.08-6.02z" class="st17"/><path d="M838.38 367.66c-.06 10.25-.13 20.5-.19 30.75-3.78.96-7.41 2.3-10.76 4.33-1.6-.1-2.98.38-4.06 1.59-21.2 7.76-19.22 3.11-17.97 22.94-4.49 2.6-9.32 4.34-14.34 5.58-1.66-2.27-.92-5.56-3.23-7.55-.13-11.17-.17-22.34-.46-33.51-.08-3.11 1.23-4.53 3.91-5.67 15.39-6.53 30.71-13.21 46.05-19.83.35.46.7.91 1.05 1.37z" class="st11"/><path d="M1010.45 749.09c-.75 2.27.24 4.95-1.62 6.96-12.31.89-24.62 1.95-36.95 2.57-3.54.18-5.7 1.06-6.25 4.68-.28-3.47-1.92-4.45-5.53-4.2-40.75 2.84-81.52 5.48-122.28 8.19-5.59.37-11.17 1.08-16.76 1.18-4.42.08-5.47 2.17-5.42 6.14.15 11.45.06 22.91 0 34.37-.01 2.54.48 5.16-.83 7.57-2.28-.48-2.91-2.12-2.82-4.17.28-6.27-.01-12.52.6-18.83.82-8.39 3.79-17.45-3.45-24.85 1.51-.14 3.18.38 4.4-.89.16-.17-.25-1.37-.61-1.49-2.14-.74-3.37.22-3.8 2.37-.94.46-1.88.93-2.82 1.39-.72.02-1.44.05-2.16.07-2.06-6.25 2.23-6.34 6.39-6.64 33.16-2.43 66.31-4.87 99.46-7.31l98.76-7.26 1.69.15z" class="st20"/><path d="M952.67 692.7c.05-13.5.25-27.01.07-40.51-.06-4.76 1.1-7.19 6.4-7.65 8.3-.73 16.53-2.31 24.8-3.54-1.66 13.92-.64 27.89-.61 41.83.01 5.49-1.49 7.93-7.12 8.39-7.86.63-15.67 1.95-23.5 2.97-.01-.5-.03-.99-.04-1.49z" class="st18"/><path d="M806.32 770.08c.94-.46 1.88-.93 2.82-1.39l.01.01c7.24 7.41 4.27 16.46 3.45 24.85-.61 6.31-.33 12.56-.6 18.83-.09 2.05.53 3.69 2.82 4.17-.02 35.62-.05 71.24-.07 106.85-2.34.01-4.67.02-7.01.04-1.2-3.83-1.44-7.74-1.44-11.74.04-47.21.02-94.42.02-141.62z" class="st19"/><path d="M875.19 434.87c.07-14.64.39-29.3.06-43.93-.13-5.54 1.29-8.72 6.93-10.02 4.22-.97 7.86-4.1 12.55-3.55 1.46 16.95.45 33.92.53 50.89-6.68 2.2-13.38 4.41-20.07 6.61zM987.49 640.93c5.28-.9 10.57-1.72 15.83-2.72 4.27-.81 5.92.72 5.83 5.13-.22 11.2-.13 22.4-.16 33.61-.04 2.44-.09 4.89-.13 7.33-2.49-.13-5.04.04-7.45-.46-4.43-.92-7.53.39-9.41 4.53-4.31 1.54-4.49-1.1-4.48-4.26.05-14.39-.01-28.77-.03-43.16z" class="st18"/><path d="M705.18 908.76c-9.23 1.28-9.29 1.28-9.33-7.94-.13-24.15-.25-48.29-.2-72.44 0-2.05-1.92-5.43 2.36-6.03-.04 17.51-.1 35.03-.11 52.54 0 2.3-.22 5.05 3.25 5.05 2.67 0 5.27-.59 5.75-3.88.4-2.76.79-5.55.81-8.33.12-15.18.13-30.36.17-45.54 1.34-.9 2.74-1.07 4.22-.38-.01 23.9-.01 47.81-.05 71.72 0 6.08 1.79 13.04-6.87 15.23z" class="st21"/><path d="M793.06 575.18c-.19-8.16-.28-16.33-.63-24.48-.18-4.08 1.57-5.99 5.5-6.49 7.62-.98 15.21-2.11 22.82-3.17.29 8.17.45 16.34.92 24.5.23 3.9-.61 5.91-5.07 6.33-7.88.71-15.7 2.16-23.54 3.31zM773.71 708.97c.02-6.72.27-13.45-.04-20.16-.2-4.33 1.35-6.53 5.63-6.91 6.67-.6 13.34-1.24 20.01-1.86.04 6.8-.14 13.6.18 20.38.2 4.25-.67 6.4-5.57 6.54-6.75.21-13.47 1.3-20.21 2.01z" class="st18"/><path d="M636.47 770.02c-1.08-4.46.53-6.01 5.24-6.3 24.51-1.54 48.99-3.49 73.48-5.2 4.17-.29 8.15-.27 7.01-6.34-.25-1.35-.05-2.98 1.86-3.13 2.65-.2 2.18 1.92 2.18 3.42-.01 3.97-.18 7.94-.29 11.91-10.95.77-21.89 1.6-32.84 2.28-18.87 1.17-37.76 2.24-56.64 3.36z" class="st13"/><path d="M636.47 770.02c18.88-1.11 37.76-2.18 56.64-3.35 10.95-.68 21.89-1.52 32.84-2.28 1.3 4.87-.62 6.51-5.58 6.79-26.13 1.46-52.25 3.05-78.35 5.05-5.7.43-6.48-1.65-5.55-6.21z" class="st18"/><path d="M707.89 822.2c-.05 15.18-.05 30.36-.17 45.54-.02 2.78-.41 5.57-.81 8.33-.48 3.29-3.09 3.88-5.75 3.88-3.46 0-3.25-2.74-3.25-5.05.01-17.51.07-35.03.11-52.54 3.29-.05 6.58-.11 9.87-.16z" class="st13"/><path d="M952.67 692.7c.01.5.03.99.04 1.49-9.3 2.1-9.3 2.1-9.3-7.59 0-30.65.1-61.3-.11-91.95-.03-4.82.99-6.88 6.2-7.74 17.04-2.8 33.97-6.29 50.93-9.52-6.5 3.52-12.98 7.07-19.51 10.52-.49.26-1.63.16-1.93-.21-5.22-6.47-9.88-1.67-14.44.83-4.1 2.26-8.86 2.46-12.86 2.18-5.96-.42-6.14 2.29-6.13 6.45.04 14.98.01 29.95.01 44.93 0 14.51.23 29.02-.12 43.52-.12 5.61 1.73 7.86 7.22 7.09z" class="st10"/><path d="M900.61 256.5c-3.35-14.09 2.16-22.65 16.05-26.36 3.74-1 7.21-2.98 10.81-4.51 2.97 13.47-2.03 22-15.46 25.78-3.97 1.1-7.61 3.36-11.4 5.09zM925.78 514.07l17.82-4.56c.07 6.52-.09 13.06.3 19.57.25 4.1-1.44 5.92-5.2 6.76-4.3.97-8.53 2.25-12.78 3.4-.04-8.4-.09-16.79-.14-25.17z" class="st18"/><path d="M895.27 428.26c-.08-16.96.93-33.94-.53-50.89 2.16-2.82 4.82-4.44 8.52-3.58-1.1 17.27-1.19 34.54.04 51.81-2.24 2.23-5.06 2.68-8.03 2.66z" class="st12"/><path d="M826.01 540.61c4.46-2 9.41-1.51 14.03-2.7.33 8.36.59 16.72 1.01 25.07.46 9.03-7.05 5.44-11.02 6.58-5.38 1.54-3.53-3.54-3.65-5.94-.36-7.66-.28-15.33-.37-23.01zM903.47 546.4c.1-6.47.45-12.94.22-19.39-.19-5.37 1-8.9 7.2-9.32 3.17-.22 6.27-1.46 9.41-2.24.05 8.43.1 16.87.16 25.3-5.29 3.02-11.19 4.2-16.99 5.65z" class="st18"/><path d="M1009.51 779.96c2.29.46 2.55 1.79 2.54 4.07-.21 48.9-.27 97.8-.34 146.69 0 2.52-.51 5.23 1.89 7.14-.13.31-.26.62-.41.92-1.38.42-2.87.73-3.54-.95-.42-1.05-.45-2.3-.45-3.46.09-51.47.2-102.94.31-154.41z" class="st8"/><path d="M806.32 770.08c0 47.21.03 94.41-.02 141.62 0 4 .24 7.92 1.44 11.74-5.7.87-3.79-3.51-3.8-5.98-.11-26.66-.1-53.32-.05-79.98.04-22.44.18-44.89.28-67.33.71-.03 1.43-.05 2.15-.07z" class="st21"/><path d="M992.91 412.67c-3.32-1.35-2.28-4.31-2.28-6.7-.05-44.78-.05-89.57 0-134.35 0-2.39-1.05-5.35 2.28-6.7.09 36.65.22 73.3.27 109.95.01 12.6-.18 25.2-.27 37.8z" class="st10"/><path d="M705.18 908.76c8.65-2.19 6.86-9.15 6.88-15.22.04-23.91.04-47.81.05-71.72 1.37-.09 2.74-.19 4.11-.28.02 29.1.04 58.21.07 87.31l-11.11-.09z" class="st11"/><path d="M803.06 679.11c4.76-.68 9.52-1.36 14.28-2.03.01 6.99-.43 14.02.15 20.96.69 8.22-5.35 6.55-9.66 7.16-5.95.85-3.71-3.93-3.96-6.63-.6-6.46.8-13.02-.81-19.46z" class="st20"/><path d="M932.66 222.93c5.96-2.59 11.2-6.9 17.99-7.5.14.92.38 1.84.42 2.76.53 13.63-1.7 16.64-14.68 20.95-3.3 1.1-3.55-.34-3.56-2.86 0-4.45-.11-8.9-.17-13.35zM805.4 427.27c-1.25-19.84-3.23-15.19 17.97-22.94.18 4.61.37 9.23.55 13.84-4.19 7.08-12.07 6.65-18.52 9.1zM804.89 329.53c.04-.46.1-.92.12-1.39.71-16.98.71-16.98 17.56-22.7.19 20.01 4.24 14.04-17.68 24.09zM827.43 402.74c3.35-2.03 6.98-3.37 10.76-4.33.09 3.91.26 7.81.24 11.72-.03 5.21-5.44 9.26-10.67 8.05-2.07-.48-.14-1.81-.49-2.67.05-4.26.1-8.51.16-12.77z" class="st18"/><path d="M884.14 197.37c3.32 1.3 2.31 4.22 2.32 6.61.08 15.57.18 31.15-.05 46.71-.06 4.3.81 7.72 4.4 10.22-1.35.9-2.71 1.8-4.06 2.7-.87-.04-1.73-.07-2.6-.11 0-22.05 0-44.09-.01-66.13z" class="st10"/><path d="M827.4 302.98c3.21-2.45 6.83-3.91 10.83-4.45.14 3.24-.09 6.55.51 9.71 1.31 6.96-4.08 7.88-8.36 9.77-2.3 1.01-2.71-.6-2.73-2.48-.05-4.19-.16-8.37-.25-12.55z" class="st18"/><path d="M789.46 274.97c-.1 18.01-.17 36.01-.35 54.01-.04 3.51 1.47 5.21 4.9 5.36-7.04 3.9-7.02 3.9-7.02-4.09.01-16.3-.04-32.6.04-48.89.01-2.32-1.25-5.37 2.43-6.39z" class="st16"/><path d="M920.46 540.75c-.05-8.43-.1-16.87-.16-25.3l5.48-1.38c.05 8.39.09 16.77.14 25.16-1.45 1.83-3.53 1.42-5.46 1.52z" class="st12"/><path d="M691.75 872.81c-3.22-1.46-2.14-4.4-2.15-6.79-.08-14.54-.02-29.07-.01-43.61 3.2-.35 2.46 2.05 2.45 3.71-.06 15.56-.18 31.13-.29 46.69z" class="st10"/><path d="M1136.79 934.89c.15.53.31 1.07.46 1.6-16.52 1.19-33.07 1.19-49.62.87-.02-.64-.04-1.28-.07-1.91 2.55-.18 5.09-.47 7.64-.51 13.51-.19 27.02-.31 40.54-.45.38.05.73.19 1.05.4z" class="st16"/><path d="M887.79 474.11c11.06-4.35 22.48-7.53 33.94-10.57.44.75.88 1.49 1.32 2.24-11.28 3.4-22.57 6.8-33.85 10.19l-1.41-1.86z" class="st12"/><path d="M992.01 688.34c1.88-4.13 4.98-5.45 9.41-4.53 2.41.5 4.96.33 7.45.46 3.82 2.77 8.89-.15 12.67 2.78-3.99 1.39-7.98 2.77-11.97 4.16-.06-3.43-1.44-5.01-5.17-4.35-4.09.73-8.26 1.01-12.39 1.48z" class="st20"/><path d="M1087.56 935.45c.02.64.04 1.28.07 1.91-17.33.42-34.66.84-51.99 1.27.01-.76.03-1.52.04-2.28 2.21-.19 4.42-.39 6.64-.58 4.89.01 9.77.01 14.66.02 10.19-.12 20.38-.23 30.58-.34z" class="st10"/><path d="m827.43 402.74-.15 12.77c-1.86-.05-2.45 1.5-3.36 2.65-.18-4.61-.37-9.23-.55-13.84 1.08-1.2 2.46-1.67 4.06-1.58z" class="st12"/><path d="M1035.68 936.35c-.01.76-.03 1.52-.04 2.28-7.48.68-14.96.66-22.44.15.14-.3.27-.61.41-.92 7.4.2 14.61-2.47 22.07-1.51z" class="st16"/><path d="M787.83 425.3c2.31 1.99 1.57 5.28 3.23 7.55-1.84 1.27-3.5 1.89-3.52-1.36-.02-2.06.19-4.12.29-6.19zM654.4 822.41c-.02 2.09.31 4.29-1.92 5.63.04-2.09-2.43-5.03 1.92-5.63zM741.82 639.89c.98-2.21 2.67-3.76 4.67-5.01 1.4 4.43-1.07 5.25-4.67 5.01zM644.33 813.72c2.13.09 4.43-.4 5.94 1.77-2.11-.15-5.03 2.42-5.94-1.77z" class="st10"/><path d="M884.16 263.5c.87.04 1.73.07 2.6.11-.9.58-1.83 2.23-2.6-.11z" class="st15"/><path d="M746.52 456.34c-.97-.44-1.13-.86.02-1.26.34.42.34.84-.02 1.26zM644.4 809.48c.16.34.36.67.45 1.03.02.1-.3.28-.47.42.01-.48.01-.96.02-1.45z" class="st10"/><path d="m838.38 367.66-1.04-1.37c1.14-.14 1.39.38 1.04 1.37z" class="st18"/><path d="M794.14 334.27c.04-.75.37-.81.9-.37l-.36.4-.54-.03z" class="st16"/><path d="M1149.55 544.92c-14.44-1.01-28.88-2.05-43.33-3-2.81-.19-4.3-1.28-4.29-4.26.12-32.97.19-65.93.32-98.9 0-.4.44-.8.68-1.2 7.4 1.11 14.88 1.86 22.19 3.41 9.48 2.01 19.55.98 28.51 5.55-2.04 2.44-1.24 5.37-1.25 8.1-.06 27.13-.05 54.27-.01 81.4 0 3.31.24 6.6-2.82 8.9z" class="st15"/><path d="M1021.54 687.06c-3.79-2.93-8.85-.01-12.67-2.78.04-2.44.09-4.89.13-7.33 8.14 2.93 16.71 1.43 25.05 2.32 15.33 1.63 30.75 2.34 46.12 3.63 4.57.39 6.28-1.1 6.17-5.79-.25-10.3-.07-20.61-.07-30.91 0-2.86-.28-5.76 4.06-5.77 4.25-.01 4.16 2.77 4.19 5.7.1 10.77.41 21.54.28 32.31-.05 4.56 1.57 6.12 6.1 6.17 10.28.13 20.57.62 30.84 1.2 4.58.26 6.76-.83 6.72-6.08-.21-27.87-.16-55.73.01-83.6.03-4.52-1.49-5.91-6.01-6.27-38.89-3.13-77.76-6.53-116.63-9.84-2.59-.22-5.37-.08-5.66-3.74 1.45-2.09 3.67-1.89 5.73-1.72 22.05 1.78 44.08 4.36 66.17 5.2 16.34.62 32.57 2.42 48.86 3.42 18.65 1.15 15.47-.98 15.68 15.6.34 27.39.13 54.79.07 82.19-.02 10.34-.14 10.58-10.17 10.28-26.6-.81-53.19-1.85-79.78-2.79-7.37-2.87-15.04-.74-22.54-1.33-4.24-.03-8.45-.05-12.65-.07z" class="st21"/><path d="M1184.68 556.19c-3.11-2.45-3.67-7.28-8.02-8.57-4.63-3.08-9.67-1.4-14.58-1.28.11-32.35.23-64.7.34-97.05.42-.01.83-.05 1.24-.11 3.36 4.17 7.39 7.97 9.95 12.58 6.58 11.83 16.05 16.67 29.33 14.01-.01.98-.01 1.96-.02 2.94-3.88 6.4-4.94 13.93-8.15 20.6-7.48 15.56-11.94 31.71-9.95 49.2.3 2.52-.07 5.12-.14 7.68z" class="st11"/><path d="M1153.63 446.52c-8.96-4.58-19.03-3.55-28.51-5.55-7.31-1.55-14.79-2.3-22.19-3.41-.39-2.29-.93-4.57-1.11-6.88-.16-2.07.52-3.84 3.16-3.41 22.04 3.55 44.09 7.11 66.12 10.74.84.14 1.56.93 2.34 1.42-2.9 3.3-7.82 4.23-9.89 8.49-.4-.05-.8-.05-1.21-.02-2.32-1.86-4.68-3.43-7.66-1.27-.37.16-.72.13-1.05-.11z" class="st21"/><path d="M1154.69 446.62c2.98-2.17 5.34-.59 7.66 1.27.03.47.06.94.08 1.41-.11 32.35-.23 64.7-.34 97.05-2.41-1.38-7.1 1.01-7.13-4.31-.1-31.81-.19-63.62-.27-95.42z" class="st22"/><path d="M1163.55 447.9c2.07-4.26 7-5.19 9.89-8.49.96 0 1.93-.01 2.89-.01 9.31 11.81 19.33 23.09 26.62 36.37-13.28 2.67-22.75-2.18-29.33-14.01-2.57-4.61-6.59-8.41-9.96-12.58-.01-.42-.05-.85-.11-1.28z" class="st20"/><path d="m1154.69 446.62.27 95.41c-.8 2.84-2.66 3.7-5.4 2.89 3.06-2.3 2.83-5.59 2.82-8.9-.04-27.13-.04-54.27.01-81.4.01-2.73-.79-5.66 1.25-8.1.32.24.67.27 1.05.1z" class="st10"/><path d="M1034.16 687.13c7.51.59 15.17-1.54 22.54 1.33-7.62 1.42-15.31 3.99-22.54-1.33z" class="st20"/><path d="m1196.12 884.88-.15-121.86a144970 144970 0 0 1 33.65 9.93c.06 34.52.13 69.03.16 103.55 0 1.37-.44 2.74-.67 4.11-11 1.43-21.99 2.85-32.99 4.27z" class="st11"/><path d="M1332.48 860.07c-.09-15.89-.18-31.78-.26-47.66 2.98-.04 5.97.13 8.93-.15 6.5-.61 13.22 1.69 19.51-1.47 1.3.09 2.61.19 3.91.28l.12 49.03-32.21-.03zM1298.66 898.17c-2.55-.15-5.12-.22-7.66-.46-3.47-.33-5.3-1.85-5.27-5.81.22-32.18.26-64.37.36-96.55 3.08-4.56 7.74-4.44 12.44-4.21.04 35.67.09 71.35.13 107.03z" class="st18"/><path d="M1184.68 556.19c.07-2.56.44-5.16.16-7.68-1.99-17.5 2.47-33.65 9.95-49.2 3.21-6.67 4.27-14.2 8.15-20.6 2.16 2.4 1.57 5.4 1.24 8.05-2.25 18.16-.69 36.4-1.23 54.59-.28 9.52-.35 19.04-.47 28.56-.01.94.21 1.95-.87 2.35-1.35.5-2.18-.54-2.96-1.35-4.68-4.89-9.32-9.81-13.97-14.72z" class="st23"/><path d="M1218.49 433.02c-2.45-4.14-1.21-8.69-1.3-13.05-.19-9.35-.06-18.7-.02-28.05.01-1.33-.35-3.12 1.3-3.64 1.66-.52 2.29 1.12 3.05 2.25 5.22 7.72 10.48 15.42 15.66 23.16 1.89 2.81 2.35 5.99 2.33 9.36-.08 11.69-.02 23.38-.02 35.06-2.85-.58-3.73-3.2-5.33-5.1-5.46-6.47-9.32-14.21-15.67-19.99z" class="st15"/><path d="M1217.05 557.54c.37-13.73-.59-27.5 1.22-42.44 8.34 7.75 17.11 15.66 19.9 25.09 3.44 11.62 2.82 24.85-.17 37.29-7.41-6.19-13-14.29-20.95-19.94zM1210.03 681.47c.01-12.84-.01-25.68.04-38.52.01-1.54-.59-3.59 1.43-4.24 1.47-.48 2.3 1.31 3.49 1.89 12.99 6.41 17.13 16.85 14.8 30.77-1.1 6.6 1.14 13.53-1.5 20.08-6.09-3.33-12.17-6.65-18.26-9.98z" class="st11"/><path d="M1229.11 880.62c.23-1.37.67-2.74.67-4.11-.02-34.52-.09-69.03-.15-103.55 2.05-.16 3.55-1.14 4.47-2.99 3.57 1.04 2.57 4.05 2.58 6.42.06 34.32.05 68.64.01 102.97 0 2.01.62 4.29-1.53 5.77-.65-3.34-3.76-3.38-6.05-4.51z" class="st21"/><path d="M1360.66 810.79c-6.3 3.16-13.02.87-19.51 1.47-2.95.28-5.95.11-8.93.15-7.43-1.53-14.85-3.05-22.28-4.58-.46-16.31-.42-16.4 14.75-10.79 12.04 4.45 23.98 9.16 35.97 13.75z" class="st8"/><path d="M1218.49 433.02c6.35 5.78 10.22 13.52 15.69 20 1.6 1.9 2.48 4.52 5.33 5.1v20.86c-8.16-6.4-12.17-14.35-17.96-20.71-7.13-7.83-3.91-16.62-3.06-25.25zM1210.03 681.47c6.09 3.32 12.18 6.65 18.27 9.97.01 6.29-.07 12.58.05 18.86.1 5.21-2.13 5.18-6.06 3.3-8.61-4.11-14.69-9.36-12.39-20.29.79-3.78.12-7.88.13-11.84zM1217.05 557.54c7.94 5.64 13.54 13.75 20.95 19.95 2.04 4.7 1.55 9.67 1.4 14.57-.1 3.33-1.76 4.21-4.55 2.22-5.93-4.24-11.19-9.26-16.1-14.61-2.66-2.9-1.41-6.72-1.56-10.16-.17-3.99-.1-7.98-.14-11.97z" class="st21"/><path d="M1249.43 479.8c-.48-13.48.64-26.98-.19-40.75 4.14 5.91 10.16 10.63 10.02 19.03-.18 10.74-.03 21.49-.03 32.23-4.43-2.42-5.86-7.65-9.8-10.51zM1249.41 705.19c-.02-10.74-.07-21.47-.03-32.21 0-1.55-.66-3.6 1.05-4.48 2.23-1.15 3.15 1.31 4.53 2.34 3.22 2.42 4.43 5.59 4.33 9.72-.25 9.8-.08 19.6-.07 29.4-4.05.01-6.15-3.98-9.81-4.77zM1250.9 592.63c-2.94-5.28-1.19-11.02-1.52-16.54-.43-7.19.56-14.42-.16-21.87 5.25 4.41 10.56 8.35 10.1 16.57-.52 9.33-.13 18.72-.13 28.08-3.61-.95-5.45-4.26-8.29-6.24zM1264.95 503.99c-.58-12.25.69-24.54-.22-37.08 4.65 5.71 9.93 11.01 9.97 19.1.05 9.54-.04 19.09-.07 28.62-4.17-2.69-6.34-7.19-9.68-10.64zM1265.01 609.34c-.2-10.45-.39-20.9-.64-31.35-.03-1.13-.64-2.36.79-2.99 1.26-.56 2.41.13 3.07 1.02 2.98 4 6.92 7.3 6.6 13.25-.47 8.81-.17 17.67-.19 26.5-3.97-1.01-6.04-4.86-9.63-6.43zM1285.98 662.98c-.02-9.81-.07-19.62-.01-29.42.01-1.71-.86-4.3 1.63-4.71 1.96-.32 3.03 1.85 3.99 3.45.36.6.86 1.25.88 1.89.37 11.08 1.93 22.19-.88 33.18-1.87-1.46-3.74-2.92-5.61-4.39zM1285.98 744.63v-35.39c5.05 3.82 7.27 6.98 7.11 11.98-.29 9.35-.11 18.72-.12 28.08-3-.54-4.35-3.57-6.99-4.67z" class="st11"/><path d="M1229.11 880.62c2.29 1.13 5.4 1.17 6.04 4.51-10.76 1.91-21.52 3.78-32.27 5.74-4.91.9-7.85-.22-6.76-5.99l32.99-4.26z" class="st8"/><path d="M1249.43 479.8c3.95 2.87 5.37 8.09 9.8 10.51-.02 4.66-.01 9.32-.08 13.98-.02 1.1.21 2.48-1.16 3.01-1.38.54-1.95-.76-2.84-1.44-9.3-7.08-7.71-16.52-5.72-26.06z" class="st21"/><path d="M1298.53 791.13c-4.7-.23-9.36-.35-12.44 4.21-2.25-7.44-9.53-5.95-14.7-7.93-2.45-.94-5.27-1.27-7.75-2.45-.44-5.59 1.22-6.85 6.81-4.59 8.41 3.4 17.23 5.76 25.91 8.48 1.27.4 2.05.94 2.17 2.28z" class="st8"/><path d="M1249.41 705.19c3.66.78 5.76 4.78 9.8 4.77 0 3.95.3 7.94-.12 11.85-.26 2.47 2.19 7.29-2.94 6.76-4.38-.45-8.84-3.12-7.71-8.82.96-4.86.66-9.7.97-14.56zM1250.9 592.63c2.84 1.97 4.68 5.29 8.3 6.23l-.03 12.47c-.01 3.3-1.29 4.24-4.21 2.32-7.22-4.73-8.92-13.44-4.06-21.02z" class="st21"/><path d="M1304.28 679.59v-30.97c4.84 1.8 5.65 4.92 5.62 8.64-.06 8.64-.03 17.28-.04 25.91-1.86-1.19-3.72-2.39-5.58-3.58zM1304.27 753.11v-30.74l2.4-.24c6.35 10.7 1.91 22.95 3.17 34.38-1.86-1.13-3.72-2.26-5.57-3.4z" class="st11"/><path d="M1234.1 769.97c-.92 1.85-2.42 2.83-4.47 2.99a144970 144970 0 0 1-33.65-9.93c-.15-3.27 1.25-3.9 4.28-2.98 11.24 3.41 22.55 6.63 33.84 9.92z" class="st8"/><path d="M1318.34 761.07c.01-7.9-.04-15.81.09-23.71.03-1.59-.95-4.31 1.95-4.26 1.96.03 3.2 2.04 3.34 3.96.28 3.7.26 7.43.26 11.14 0 5.93-.09 11.86-.14 17.78-1.83-1.63-3.66-3.27-5.5-4.91z" class="st11"/><path d="M1264.95 503.99c3.34 3.44 5.52 7.95 9.68 10.65v16.95c-8.8-6.48-11.39-14.26-9.68-27.6zM1265.01 609.34c3.59 1.57 5.66 5.42 9.63 6.42.04 3.04.19 6.08.07 9.11-.07 1.74.86 4.06-1.32 5.01-1.75.76-2.91-1.12-4.19-1.98-5.99-3.97-7.22-9.68-4.19-18.56z" class="st21"/><path d="M1318.33 692.75c.01-7.66-.02-15.32.07-22.97.02-1.5-.7-3.69 1.35-4.21 2.24-.56 3.69 1.54 3.74 3.21.27 9.38 1.99 18.83-.91 28.1-1.11-1.69-2.12-3.49-4.25-4.13z" class="st11"/><path d="M1343.66 772.71c0-6.51-.06-13.03.04-19.54.03-1.69-.8-4.41 1.74-4.57 2.29-.14 3.54 2.16 3.62 4.4.18 5.11.13 10.23.17 15.34.02 2.56.02 5.12.03 7.67-1.87-1.1-3.74-2.2-5.6-3.3zM1343.65 717.72c0-6.73-.03-13.45.04-20.18.01-1.52-.48-3.72 1.74-3.92 1.72-.16 3.22 1.51 3.27 3.09.26 7.74 2.1 15.6-1.14 23.17-1.3-.72-2.6-1.44-3.91-2.16z" class="st15"/><path d="M1332.4 706.36V681.3c.78-.05 1.55-.11 2.33-.16 3.63 9.19 1.1 19.11 1.85 28.64-2.27-.07-2.73-2.36-4.18-3.42zM1332.39 768.59v-25.48c.79-.01 1.59-.03 2.38-.04 2.68 9.33 2.77 18.81.42 28.44l-2.8-2.92z" class="st13"/><path d="M1285.98 662.98c1.87 1.47 3.74 2.93 5.62 4.4 1.87 2.96 1.58 6.29 1.38 9.52-.11 1.82 1.2 5.02-1.87 5.01-2.39-.01-4.93-1.98-5.08-4.94-.23-4.66-.05-9.33-.05-13.99zM1285.98 744.63c2.64 1.09 3.98 4.12 6.99 4.67.03 3.02.2 6.05.02 9.06-.11 1.88 1.12 5.04-1.7 5.2-2.53.14-4.79-2.44-5.06-5.02-.48-4.59-.21-9.27-.25-13.91z" class="st21"/><path d="M1353.51 726.08c-.08-6.33-.19-12.65-.24-18.98-.01-1.35-1.86-3.56 1.07-3.72 1.64-.09 3.09 1.34 3.15 3.22.16 4.68.16 9.37.19 14.06.02 2.58-.02 5.16-.03 7.73-1.38-.78-2.76-1.54-4.14-2.31zM1353.26 778.9c.67-6.77-.64-13.68 1.73-20.44 4.54 7.66 1.9 16.18 2.73 24.26-1.49-1.27-2.98-2.54-4.46-3.82z" class="st11"/><path d="M1304.28 679.59c1.86 1.19 3.72 2.39 5.58 3.58 0 3.04.07 6.07-.04 9.1-.05 1.49.54 3.75-1.85 3.78-1.69.02-3.13-1.59-3.26-3.21-.36-4.4-.32-8.83-.43-13.25zM1318.33 692.75c2.13.65 3.14 2.44 4.26 4.13 1.28 2.29 1.65 4.79 1.44 7.33-.14 1.71 2.43 4.59-1.15 4.89-2.38.2-4.09-2.17-4.28-4.64-.31-3.89-.2-7.81-.27-11.71zM1304.27 753.11c1.86 1.13 3.71 2.26 5.57 3.4.02 2.76.14 5.52.01 8.27-.08 1.65.83 4.35-1.79 4.4-2.18.05-3.52-2.14-3.64-4.37-.2-3.89-.12-7.79-.15-11.7zM1318.34 761.07c1.83 1.64 3.67 3.28 5.5 4.91.05 2.11.22 4.22.12 6.32-.07 1.49.65 3.79-1.64 3.99-2.43.21-3.83-1.52-3.89-3.98-.09-3.74-.06-7.49-.09-11.24zM1343.66 772.71c1.87 1.1 3.73 2.2 5.6 3.3-.01 1.38.13 2.77-.08 4.12-.31 2.05 1.34 5.5-1.74 5.74-2.75.21-3.73-2.88-3.76-5.61-.03-2.52-.02-5.04-.02-7.55z" class="st21"/><path d="M1361.91 782.91c-1.67-6.66-1.69-13.32 0-19.97 1.65 6.66 1.63 13.32 0 19.97zM1361.82 710.89c1.77 6.66 1.69 13.3.17 19.94-2.16-6.62-1.35-13.29-.17-19.94z" class="st13"/><path d="M1343.65 717.72c1.3.72 2.61 1.43 3.91 2.15 1.32 3.04 2.42 6.15 1.04 9.43-.45 1.07-1.59.72-2.39.18-3.31-2.27-2.44-5.76-2.55-8.96-.03-.93 0-1.86-.01-2.8zM1332.4 706.36c1.45 1.07 1.91 3.35 4.18 3.42-.32 3.32.57 6.79-1.12 10.92-4.63-4.72-2.6-9.8-3.06-14.34zM1353.26 778.9c1.48 1.28 2.97 2.55 4.45 3.83v6.77c-4.59-2.5-6.72-5.72-4.45-10.6zM1332.39 768.59l2.8 2.92c.52 3.35 2.59 6.64.46 10.07-.15.25-1.48.19-1.79-.15-2.52-2.75-1.2-6.19-1.5-9.35-.11-1.15.01-2.32.03-3.49zM1353.51 726.08c1.38.77 2.76 1.53 4.14 2.3-.74 2.34 1.42 7.2-1.83 6.68-3.99-.64-1.93-5.76-2.31-8.98z" class="st21"/><path d="M1332.48 860.07c10.74.01 21.47.02 32.21.02.08 2.36.17 4.73.25 7.1-4.96 4.97-11.63 2.39-17.41 3.67-8.02 1.78-16.5-.42-25.09 1.29 7-1.37 11.62-4.22 10.04-12.08z" class="st9"/><path d="M1139.6 810.74c-.71 1.95-1.78 3.83-1.08 6.03-1.59 11.17-3.17 22.33-4.76 33.5-8.08.04-16.17-.13-24.24.19-5.43.22-11.04-1.44-16.29 1.25-.87-.02-1.74-.03-2.61-.05-5.38 0-10.77-.01-16.15 0-9.98.01-10.62.58-10.65 10.79-.06 23.18-.04 46.36-.06 69.54-2.13 1.56-4.63 1.2-7.03 1.39-4.57.41-9.14.81-13.72 1.22.23-38.31.47-76.63.66-114.94.02-3.73-.25-7.46-.38-11.19.63-3.16 2.27-4.66 5.78-4.65 28.49.11 56.98.14 85.46-.02 5.53-.03 5.23 3.29 5.07 6.94z" class="st10"/><path d="M1043.02 934.59c4.57-.41 9.14-.81 13.72-1.22l.24 2.4c-4.89-.01-9.77-.01-14.66-.02.15-.43.39-.82.7-1.16z" class="st16"/><path d="M992.26 418.37c-.26 1-.74 1.75-1.93 1.7.64-.57 1.28-1.14 1.93-1.7zM716.31 813.72c-.95 1.96-2.69 1.19-4.2 1.23 1.15-1.27 2.68-1.22 4.2-1.23z" class="st10"/><path d="M1133.76 850.27c1.59-11.17 3.17-22.33 4.76-33.5 1.48 2.34 1.14 4.98 1.14 7.52 0 34.66 0 69.33-.17 103.99-.01 2.27 1.96 5.99-2.7 6.61-.32-.21-.67-.35-1.05-.4-.66-.91-1.32-1.81-1.99-2.72 0-27.17.01-54.34.01-81.5z" class="st12"/><path d="M809.13 768.68c.42-2.15 1.66-3.11 3.8-2.37.35.12.77 1.32.61 1.49-1.22 1.27-2.89.75-4.4.89 0 .01-.01-.01-.01-.01z" class="st19"/><path d="M1133.75 931.77c.66.91 1.32 1.81 1.99 2.72-13.51.14-27.03.26-40.54.45-2.55.04-5.09.33-7.64.51l-30.58.33-.24-2.41c2.4-.19 4.9.18 7.03-1.39l26.76-.21c.89.01 1.79.03 2.68.04 13.52-.01 27.03-.03 40.54-.04z" class="st8"/><path d="M1163.55 447.9c.06.43.1.85.12 1.28-.41.06-.82.1-1.24.11-.03-.47-.06-.94-.08-1.41.4-.03.8-.02 1.2.02zM1133.75 931.77c-13.51.01-27.02.03-40.53.05.01-26.7.01-53.41.02-80.11 5.24-2.69 10.86-1.03 16.29-1.25 8.07-.32 16.16-.15 24.24-.19-.01 27.16-.02 54.33-.02 81.5zM1090.53 931.77l-26.76.21c.01-23.18-.01-46.36.06-69.54.03-10.21.67-10.78 10.65-10.79h16.15c-.04 26.71-.07 53.42-.1 80.12z" class="st9"/><path d="m1090.53 931.77.09-80.12c.87.02 1.74.03 2.61.05-.01 26.7-.01 53.41-.02 80.11-.89-.01-1.78-.02-2.68-.04z" class="st13"/><path d="M1672.57 747.9c-.52.05-1.05.11-1.57.16.15-4.22-2.79-4.09-5.71-4.15-52.93-.96-105.86-1.93-158.79-2.9l-1.67-.15c.14-16.7.26-33.4.43-50.09.03-2.54.24-5.09.37-7.63 3.99-1.39 7.98-2.77 11.97-4.16 4.21.02 8.42.05 12.62.07 7.23 5.32 14.92 2.75 22.54 1.33 26.59.95 53.18 1.98 79.78 2.79 10.03.3 10.15.06 10.17-10.28.06-27.4.27-54.8-.07-82.19-.21-16.58 2.98-14.45-15.68-15.6-16.29-1-32.51-2.8-48.86-3.42-22.09-.84-44.11-3.42-66.17-5.2-2.07-.17-4.28-.37-5.73 1.72l-1.56-.81c.2-1.85.58-3.71.58-5.56.01-166.81-.02-333.62-.04-500.44.85-.03 1.7-.07 2.55-.1 31.67 7.38 63.33 14.75 95 22.14 10.6 2.47 10.66 2.49 11.06 13.08.21 5.37.17 10.76.16 16.14-.03 19.91-.08 39.82-.14 59.73-.01 2.72.11 5.08 3.67 5.66 10.37 1.69 20.4 5.19 30.97 5.88 4.96 1.99 10.11 3.4 15.41 3.85 3.54.3 6.18 1.68 8.35 4.31l.18 239.24c-.96 0-1.93.01-2.89.01-.78-.49-1.51-1.28-2.34-1.42-22.03-3.62-44.07-7.19-66.12-10.74-2.64-.43-3.32 1.34-3.16 3.41.18 2.31.72 4.59 1.11 6.88-.24.4-.68.8-.68 1.2-.12 32.97-.2 65.93-.32 98.9-.01 2.99 1.47 4.08 4.29 4.26 14.45.95 28.88 1.99 43.33 3 2.75.81 4.6-.05 5.4-2.89.03 5.32 4.72 2.93 7.13 4.31 4.91-.12 9.95-1.8 14.58 1.28-.14 3.97-.4 7.95-.4 11.92.05 65.5.15 130.98.25 196.46z" class="st8"/><path d="M1672.57 747.9c-.09-65.48-.19-130.96-.26-196.43 0-3.97.26-7.95.4-11.92 4.35 1.29 4.91 6.12 8.02 8.57 4.65 4.91 9.29 9.83 13.98 14.71.78.81 1.62 1.85 2.96 1.35 1.09-.4.86-1.41.87-2.35.12-9.52.19-19.04.47-28.56.54-18.19-1.02-36.42 1.23-54.59.33-2.65.91-5.64-1.24-8.05.01-.98.01-1.96.02-2.93-7.29-13.28-17.32-24.57-26.62-36.37l-.18-239.24c8.28 12.81 14.12 26.89 20.71 40.55 17.41 36.04 34.45 72.26 51.7 108.38 11.38 23.83 22.82 47.64 34.36 71.39 1.63 3.35 1.74 6.73 1.74 10.25 0 47.82.19 95.64-.16 143.45-.07 9.19 2.17 16.55 8 23.74 14.86 18.32 29.04 37.19 43.52 55.83.7.91 1.6 1.66 2.41 2.48 7.75 12.33 17.23 23.35 26.17 34.79-.02 40.02-.04 80.04-.05 120.05-1.3-.09-2.61-.19-3.91-.28-11.99-4.59-23.93-9.3-35.97-13.75-15.18-5.61-15.21-5.52-14.75 10.79 0 27.77-.13 55.54.12 83.3.05 5.57-1.72 7.8-7.21 7.09-1.38-.18-2.8-.05-4.19-.06-.04-35.68-.09-71.35-.13-107.03-.12-1.34-.9-1.89-2.17-2.29-8.68-2.71-17.5-5.08-25.91-8.48-5.59-2.26-7.26-1-6.81 4.59.4 2.77 1.14 5.54 1.14 8.32.07 36.09.01 72.18.06 108.26.01 6.3-2.56 9.27-9 10.99-22.81 6.1-45.41 13.01-68.08 19.64-2.01.59-4.15 1.19-4.43 3.85-4.99 1.08-6.98-.41-6.96-6.01.2-58.01.14-116.02.15-174.03zm176.73 22.92c-2.27 4.88-.14 8.1 4.45 10.6v-6.77c-.82-8.08 1.82-16.6-2.73-24.26-2.36 6.76-1.05 13.67-1.72 20.43zm.25-52.82c.39 3.22-1.68 8.34 2.32 8.98 3.25.52 1.09-4.33 1.82-6.67.01-2.58.05-5.16.03-7.74-.03-4.69-.03-9.37-.19-14.06-.06-1.88-1.51-3.31-3.15-3.22-2.94.16-1.08 2.37-1.07 3.72.05 6.34.16 12.67.24 18.99zm-21.12 42.52c-.02 1.16-.15 2.34-.04 3.49.3 3.16-1.01 6.6 1.5 9.35.31.34 1.63.4 1.79.15 2.13-3.42.06-6.71-.46-10.06 2.35-9.63 2.26-19.11-.42-28.44-.79.01-1.59.03-2.38.04.01 8.48.01 16.97.01 25.47zm.01-62.24c.46 4.55-1.57 9.63 3.06 14.34 1.69-4.13.8-7.61 1.12-10.92-.76-9.53 1.77-19.45-1.85-28.64-.78.05-1.55.11-2.33.16v25.06zm15.17 13.52c3.24-7.57 1.41-15.43 1.14-23.17-.05-1.58-1.55-3.24-3.27-3.09-2.22.2-1.73 2.4-1.74 3.92-.06 6.73-.03 13.45-.04 20.18 0 .93-.02 1.87.01 2.8.11 3.2-.76 6.69 2.55 8.96.79.54 1.93.89 2.39-.18 1.38-3.27.28-6.38-1.04-9.42zm-3.91 52.83c.01 2.52-.01 5.04.02 7.55.03 2.73 1.01 5.82 3.76 5.61 3.07-.24 1.43-3.69 1.74-5.74.2-1.34.06-2.74.08-4.11-.01-2.56-.01-5.12-.03-7.68-.04-5.12.02-10.23-.17-15.34-.08-2.23-1.32-4.54-3.62-4.4-2.55.16-1.72 2.88-1.74 4.57-.1 6.51-.04 13.03-.04 19.54zm-25.32-79.96c.07 3.9-.04 7.82.26 11.71.19 2.47 1.9 4.85 4.28 4.64 3.58-.31 1.01-3.18 1.15-4.89.21-2.54-.15-5.05-1.44-7.33 2.9-9.28 1.18-18.73.91-28.1-.05-1.67-1.5-3.77-3.74-3.21-2.05.51-1.33 2.71-1.35 4.21-.09 7.65-.06 15.31-.07 22.97zm5.5 73.24c.05-5.93.14-11.86.14-17.79 0-3.72.02-7.44-.26-11.14-.15-1.92-1.38-3.93-3.34-3.96-2.91-.05-1.93 2.67-1.95 4.26-.13 7.9-.08 15.81-.09 23.71.02 3.75 0 7.5.09 11.24.06 2.47 1.46 4.19 3.89 3.98 2.3-.2 1.58-2.5 1.64-3.99.1-2.09-.06-4.2-.12-6.31zm-14.01-9.47c-1.26-11.43 3.18-23.68-3.17-34.38l-2.4.24v30.74c.03 3.9-.05 7.81.15 11.7.11 2.23 1.45 4.41 3.64 4.37 2.63-.06 1.71-2.75 1.79-4.4.14-2.75.01-5.51-.01-8.27zm.03-73.34c.01-8.64-.02-17.28.04-25.91.03-3.72-.78-6.84-5.62-8.64v30.97c.12 4.42.08 8.86.43 13.26.13 1.63 1.57 3.24 3.26 3.21 2.39-.03 1.79-2.3 1.85-3.78.11-3.04.04-6.08.04-9.11zm-23.88 61.46c.04 4.64-.23 9.31.25 13.91.27 2.58 2.53 5.15 5.06 5.02 2.82-.15 1.59-3.32 1.7-5.2.18-3.01 0-6.03-.02-9.05.01-9.36-.17-18.73.12-28.08.16-5-2.06-8.16-7.11-11.98v35.38zm5.62-77.26c2.81-10.99 1.24-22.11.88-33.18-.02-.64-.52-1.29-.88-1.89-.96-1.61-2.03-3.78-3.99-3.45-2.5.41-1.62 3-1.63 4.71-.07 9.81-.01 19.62.01 29.42 0 4.66-.18 9.33.06 13.98.15 2.96 2.69 4.93 5.08 4.94 3.07.02 1.76-3.19 1.87-5.01.18-3.23.47-6.56-1.4-9.52zm-16.96-51.61c.03-8.84-.28-17.69.19-26.5.32-5.95-3.62-9.25-6.6-13.25-.66-.89-1.82-1.58-3.07-1.02-1.43.63-.82 1.87-.79 2.99.25 10.45.43 20.9.64 31.35-3.03 8.88-1.8 14.59 4.18 18.57 1.28.85 2.44 2.74 4.19 1.98 2.18-.95 1.25-3.27 1.32-5.01.13-3.03-.02-6.07-.06-9.11zm-.01-101.12c.03-9.54.12-19.09.07-28.63-.04-8.1-5.32-13.39-9.97-19.1.91 12.54-.35 24.82.22 37.08-1.7 13.34.88 21.12 9.68 27.59v-16.94zm-23.73 77.99c-4.85 7.58-3.16 16.29 4.06 21.03 2.92 1.92 4.2.98 4.21-2.32l.03-12.47c0-9.36-.39-18.75.13-28.08.46-8.22-4.85-12.15-10.1-16.57.72 7.45-.27 14.68.16 21.87.32 5.52-1.43 11.25 1.51 16.54zm-1.49 112.56c-.31 4.85-.01 9.69-.97 14.56-1.13 5.7 3.33 8.36 7.71 8.82 5.12.53 2.67-4.3 2.94-6.76.42-3.91.12-7.89.12-11.84 0-9.8-.17-19.61.07-29.41.1-4.13-1.1-7.3-4.33-9.72-1.38-1.03-2.3-3.49-4.53-2.34-1.71.88-1.05 2.93-1.05 4.48-.02 10.74.02 21.47.04 32.21zm.02-225.4c-1.98 9.54-3.58 18.98 5.72 26.06.88.67 1.46 1.97 2.84 1.44 1.37-.53 1.15-1.91 1.16-3.01.07-4.66.06-9.32.08-13.98-.01-10.74-.15-21.49.03-32.23.14-8.4-5.88-13.12-10.02-19.03.82 13.77-.3 27.27.19 40.75zm-14.28 405.33c2.15-1.48 1.53-3.76 1.53-5.77.04-34.32.05-68.64-.01-102.97 0-2.37.99-5.38-2.58-6.42-11.29-3.29-22.6-6.51-33.85-9.92-3.03-.92-4.43-.29-4.28 2.98l.15 121.85c-1.09 5.77 1.85 6.89 6.76 5.99 10.76-1.96 21.53-3.83 32.28-5.74zm-6.86-193.68c2.64-6.55.39-13.48 1.5-20.08 2.33-13.92-1.81-24.36-14.8-30.77-1.19-.59-2.02-2.37-3.49-1.89-2.02.66-1.42 2.71-1.43 4.24-.05 12.84-.04 25.68-.04 38.52 0 3.96.66 8.06-.14 11.85-2.3 10.92 3.78 16.17 12.39 20.29 3.93 1.88 6.16 1.9 6.06-3.3-.11-6.28-.04-12.57-.05-18.86zm9.72-113.95c2.99-12.44 3.61-25.67.17-37.29-2.79-9.43-11.57-17.34-19.9-25.09-1.81 14.93-.85 28.7-1.22 42.44.04 3.99-.03 7.98.14 11.96.15 3.44-1.1 7.26 1.56 10.16 4.91 5.36 10.17 10.37 16.1 14.61 2.79 1.99 4.45 1.12 4.55-2.22.15-4.91.63-9.87-1.4-14.57zm1.49-119.37c-.01-11.69-.07-23.38.02-35.07.02-3.37-.44-6.55-2.33-9.36-5.19-7.74-10.44-15.44-15.66-23.16-.76-1.13-1.4-2.78-3.05-2.25-1.65.52-1.3 2.3-1.3 3.64-.05 9.35-.17 18.71.02 28.05.09 4.36-1.15 8.91 1.3 13.05-.85 8.63-4.07 17.42 3.05 25.25 5.79 6.36 9.8 14.31 17.96 20.71-.01-7.91-.01-14.39-.01-20.86zm122.42 324.79c1.63-6.66 1.65-13.31 0-19.97-1.7 6.65-1.68 13.31 0 19.97zm-.1-72.02c-1.18 6.65-1.98 13.32.17 19.94 1.52-6.64 1.6-13.29-.17-19.94z" class="st9"/><path d="M1860.61 802.99c.02-40.02.04-80.04.05-120.05.13-10.66.27-21.32.4-31.99 5.58 3.2 7.37 9.33 10.78 14.17 4.56 6.47 8.07 13.67 13.51 19.55.19 7.02.52 14.03.54 21.04.13 46.4.19 92.8.27 139.2-.95 5.03-2.14 9.72-6.44 13.39-6.27 5.36-12.37 3.51-18.74.8-.09-2.37-.17-4.73-.25-7.1l-.12-49.01z" class="st10"/><path d="M1886.16 844.92c-.08-46.4-.14-92.8-.27-139.2-.02-7.02-.35-14.03-.54-21.04 5.58 5.24 5.03 12.09 4.97 18.83-.02 2.57-.02 5.14-.02 7.71.01 6.98.55 14.01-.1 20.92-.73 7.78 3.9 11.55 9.66 16.22.64-12.57 1.22-24.08 1.8-35.6 5.4 1.36 7.09 5.09 6.99 10.33-.09 4.79-.81 9.7 1.44 14.27-3.31 5.41-3.13 10.82 1.5 15.07 5.87 5.38 7.16 11.65 7.01 19.32-.46 24.46-.26 48.94-.31 73.41-10.7-.09-21.42-.16-32.13-.24z" class="st8"/><path d="M1648.44 183.93c-10.57-.68-20.6-4.18-30.97-5.88-3.56-.58-3.68-2.94-3.67-5.66.06-19.91.12-39.82.14-59.73.01-5.38.04-10.76-.16-16.14-.4-10.59-.47-10.61-11.06-13.08-31.66-7.39-63.33-14.76-95-22.14 0-1.42.01-2.85.01-4.27 1.61.25 3.24.39 4.81.76 31.33 7.44 62.65 14.94 94.01 22.3 2.77.65 6.5 3.26 8.01-1.98 9.34 28.8 18.7 57.59 28 86.41 2.08 6.44 3.93 12.94 5.88 19.41z" class="st11"/><path d="M1333.32 158.52c-1.14-6.62 2.54-9.8 7.89-12.9 52.29-30.28 104.43-60.8 156.61-91.26 2.22-1.3 4.37-2.71 6.55-4.07 1.85 1.26.34 3.69 1.77 5.1-1.05.9-1.99 2.02-3.18 2.68-37.43 20.8-73.8 43.4-110.73 65.05-19.76 11.6-39.28 23.59-58.91 35.4z" class="st12"/><path d="M1333.32 158.52c19.63-11.81 39.15-23.81 58.91-35.39 36.93-21.65 73.3-44.25 110.73-65.05 1.19-.66 2.13-1.78 3.18-2.68.53.55 1.07 1.09 1.6 1.64 0 1.42-.01 2.85-.01 4.27-.85.03-1.7.07-2.55.1-13.5 7.81-27.05 15.52-40.48 23.44-43.81 25.86-87.58 51.81-131.36 77.72-.01-1.34-.01-2.7-.02-4.05z" class="st13"/><path d="M1507.73 57.04c-.53-.55-1.07-1.09-1.6-1.64-1.43-1.41.08-3.84-1.77-5.1 8.68-.93 16.38 3.33 24.6 4.84 15.58 2.87 30.87 7.16 46.31 10.72 11.31 2.61 22.51 5.87 33.94 8.06 2.73.52 3.62 2.75 5.35 4.2-1.51 5.24-5.24 2.63-8.01 1.98-31.35-7.35-62.67-14.86-94.01-22.3-1.57-.37-3.2-.51-4.81-.76z" class="st8"/><path d="M1861.06 650.95c-.13 10.66-.27 21.32-.4 31.99-8.94-11.43-18.43-22.45-26.17-34.79 7.1.03 14.21.04 21.31.1 2.17.03 4.79-.68 5.26 2.7z" class="st14"/><path d="m1331.9 186.45-.06 4.81c-3.93 2.43-7.79 4.99-11.81 7.26-18.6 10.48-36.51 22.17-55.6 31.79-.9-5.11 1.42-7.98 5.93-10.38 20.61-10.98 41.04-22.29 61.54-33.48z" class="st12"/><path d="M1264.43 230.31c19.09-9.62 37-21.32 55.6-31.79 4.02-2.27 7.88-4.83 11.81-7.26 4.52.29 3.35 2.42 1.13 4.22-1.97 1.59-4.38 2.64-6.61 3.91-20.61 11.84-41.22 23.67-61.82 35.51-.04-1.53-.08-3.06-.11-4.59z" class="st13"/><path d="M1901.66 712.75c-.58 11.51-1.16 23.02-1.8 35.6-5.76-4.67-10.39-8.43-9.66-16.22.65-6.92.12-13.95.1-20.92 3.83.25 7.98-1.92 11.36 1.54z" class="st14"/><path d="M1333.84 178.07c.13.3.3.59.37.9.03.11-.18.28-.28.42l-.09-1.32z" class="st12"/><path d="M1461.67 755.22c-.69 40.26-1.46 80.53-1.96 120.79-.06 4.87-1.78 5.68-6.17 5.55-44.21-1.38-88.43-2.44-132.63-3.96-6.12-.21-8.21.99-7.72 7.44.65 8.61.23 17.32.11 25.98-.02 1.7 1.33 4.67-2.53 4.31.02-35.62.05-71.23.07-106.85 1.31-2.41.82-5.03.83-7.57.06-11.46.15-22.91 0-34.37-.05-3.97 1-6.06 5.42-6.14 5.59-.1 11.17-.81 16.76-1.18 40.76-2.71 81.53-5.35 122.28-8.19 3.62-.26 5.26.73 5.54 4.19z" class="st15"/><path d="M1504.64 567.41c.52.27 1.04.54 1.56.8.29 3.66 3.06 3.52 5.66 3.74 38.87 3.31 77.74 6.71 116.63 9.84 4.52.36 6.04 1.76 6.01 6.27-.16 27.87-.21 55.73-.01 83.6.04 5.26-2.14 6.34-6.72 6.08-10.27-.58-20.55-1.08-30.84-1.2-4.53-.06-6.16-1.62-6.1-6.17.13-10.77-.17-21.54-.28-32.31-.03-2.93.07-5.71-4.19-5.7-4.34.01-4.06 2.9-4.06 5.77-.01 10.3-.18 20.61.07 30.91.12 4.69-1.6 6.18-6.17 5.79-15.37-1.3-30.79-2-46.12-3.63-8.34-.89-16.91.6-25.05-2.33.03-11.2-.06-22.41.16-33.6.09-4.41-1.56-5.94-5.83-5.13-5.26 1-10.55 1.82-15.83 2.72-1.18.02-2.37.05-3.55.07-8.26 1.22-16.49 2.81-24.8 3.54-5.3.46-6.47 2.89-6.4 7.65.17 13.5-.02 27.01-.07 40.51-5.48.77-7.34-1.48-7.2-7.08.35-14.5.12-29.01.12-43.52 0-14.98.02-29.95-.01-44.93-.01-4.16.17-6.87 6.13-6.45 4 .28 8.76.08 12.86-2.18 4.56-2.51 9.22-7.31 14.44-.83.3.37 1.44.47 1.93.21 6.53-3.46 13.01-7 19.51-10.52 2.71-.65 5.43-1.29 8.15-1.92z" class="st11"/><path d="M1886.16 844.92c10.71.08 21.43.15 32.15.23.05 20.62-.06 41.24.28 61.86.08 4.64-2.22 5.17-5.71 5.93-37.62 8.13-75.72 12.66-114.09 15.02-18.23 1.12-36.47 2.14-54.75 1.5-2.83-2.23-7.47-2.5-8.88-.87-3.36 3.89-6.22 1.18-9.31.87-15.52.39-31-.17-46.47-1.51.28-2.66 2.41-3.26 4.43-3.85 22.67-6.63 45.27-13.54 68.08-19.64 6.44-1.72 9.01-4.69 9-10.99-.06-36.09.01-72.18-.06-108.26-.01-2.77-.75-5.55-1.15-8.31 2.49 1.18 5.31 1.5 7.76 2.45 5.17 1.99 12.45.49 14.7 7.93-.1 32.18-.14 64.37-.36 96.55-.03 3.97 1.8 5.49 5.27 5.81 2.55.24 5.11.32 7.66.46 1.4.01 2.82-.12 4.19.06 5.48.71 7.26-1.52 7.21-7.09-.25-27.76-.12-55.53-.12-83.3 7.43 1.53 14.85 3.05 22.28 4.58.09 15.89.18 31.78.26 47.66 1.58 7.86-3.04 10.7-10.04 12.07 8.59-1.71 17.07.49 25.09-1.29 5.79-1.28 12.45 1.3 17.42-3.67 6.36 2.71 12.46 4.56 18.74-.8 4.28-3.68 5.47-8.37 6.42-13.4z" class="st15"/><path d="M1371.23 426.79c-5.93 2.06-11.85 4.12-18.47 6.43v-8.44c.01-36.58.08-73.16-.08-109.74-.02-4.1 1.13-6.12 4.98-7.85 32.89-14.74 65.69-29.67 98.42-44.75 4.95-2.28 6.64-2.33 6.55 4.02-.33 22.51-.09 45.02-.13 67.53 0 2.31-.41 4.62-.62 6.92-17.04 4.8-33 12.49-49.52 18.67-4.47 1.67-9.5 2.42-13.06 6.13-3.7-.86-6.36.76-8.52 3.58-4.69-.55-8.33 2.58-12.55 3.55-5.64 1.3-7.06 4.47-6.93 10.02.33 14.64 0 29.29-.07 43.93z" class="st11"/><path d="M1506.49 741.01c52.93.97 105.86 1.95 158.79 2.9 2.92.05 5.87-.08 5.71 4.15-6.75 18.19-13.51 36.37-20.26 54.56-5.03.02-10.07.03-15.1.05.16-3.65.46-6.97-5.05-6.94-28.49.16-56.98.12-85.46.02-3.51-.01-5.15 1.48-5.78 4.65-5.83-2.43-8.47-8.32-13.1-12.06-7.36-5.95-11.55-15.2-20.43-19.56-.31-6.93-.63-13.86-.94-20.8 1.87-2.02.87-4.7 1.62-6.97z" class="st16"/><path d="M1505.81 768.76c8.88 4.36 13.07 13.61 20.43 19.56 4.63 3.74 7.27 9.63 13.1 12.06.14 3.73.4 7.46.38 11.19-.2 38.31-.44 76.63-.66 114.94-.32.34-.55.73-.71 1.17-2.21.19-4.42.39-6.64.58-7.46-.95-14.67 1.72-22.07 1.51-2.4-1.91-1.9-4.62-1.89-7.14.07-48.9.13-97.8.34-146.69.01-2.28-.25-3.6-2.54-4.07.09-1.03.18-2.07.26-3.11z" class="st17"/><path d="M1396.65 248.42c-2.99 2.07-5.99 4.14-9.79 4.41-3.59-2.5-4.47-5.92-4.4-10.22.23-15.57.13-31.14.05-46.71-.01-2.38 1-5.31-2.32-6.61-.26-2.72-1.25-5.5 2.1-7.35 21.26-11.69 42.46-23.47 64.41-35.61v61.02c-6.79.61-12.03 4.92-17.99 7.5-1.73.9-3.47 1.79-5.2 2.69-3.6 1.53-7.07 3.51-10.81 4.51-13.89 3.72-19.39 12.29-16.05 26.37z" class="st15"/><path d="M1399.3 365.72c3.56-3.71 8.59-4.45 13.06-6.13 16.52-6.19 32.48-13.87 49.52-18.67 1.54 17.27.23 34.58.72 51.87.1 3.64-2.44 4.02-4.85 4.84-19.47 6.63-38.94 13.27-58.41 19.9-1.24-17.27-1.14-34.54-.04-51.81z" class="st18"/><path d="m1322.05 532.54-5.27.42c-7.61 1.07-15.2 2.19-22.82 3.17-3.93.5-5.67 2.42-5.5 6.49.35 8.16.43 16.32.63 24.48-12.01 2.17-11.96 2.17-12.24-9.87-.44-18.47-.8-36.94-1.54-55.4-.19-4.66 1.27-6.36 5.82-7.27 16.48-3.27 32.89-6.96 49.29-10.66 3.09-.7 4.73-.74 4.77 3.17.17 14.25.57 28.51.88 42.76-4.61 1.2-9.55.7-14.02 2.71zM1419.09 457.7c6.86-1.85 13.72-3.7 20.55-5.54v49.27l-17.82 4.56-5.48 1.38c-3.13.78-6.23 2.02-9.41 2.24-6.21.43-7.39 3.95-7.2 9.32.23 6.45-.12 12.93-.22 19.39-14.24 5.2-14.23 5.2-14.24-9.63-.01-20.27-.02-40.54-.04-60.81 11.29-3.38 22.58-6.78 33.86-10.18zM1348.41 459.85c-2.61-1.86-5.23-3.72-8.91-6.34 22.24-7.25 43.24-14.1 64.23-20.95 22.25-7.26 44.43-14.75 66.79-21.65 5.79-1.79 7.86-4.07 7.82-10.46-.32-54.4-.18-108.8-.18-165.35 5.43 7.73 13.19 11.98 10.79 21.74-3.33 1.35-2.28 4.31-2.28 6.7-.05 44.78-.05 89.57 0 134.35 0 2.4-1.04 5.35 2.28 6.7.08 1.86.15 3.71.23 5.57-.3-.02-.59.03-.88.13l-1.94 1.7c-1.81 2.93-5.08 3.11-7.88 4.05-43.34 14.64-86.71 29.22-130.07 43.81z" class="st15"/><path d="M1488.3 410.29c.28-.1.58-.15.88-.13.03 1.63.2 3.27.07 4.88-.47 6 2.59 13.58-1.36 17.61-3.76 3.84-11.07 4.25-16.85 6.07-17.75 5.6-35.51 11.16-53.26 16.73-11.46 3.04-22.88 6.22-33.94 10.57-8.92 2.62-18.03 4.74-26.7 8.02-6.67 2.52-8.26.15-8.21-5.85.03-2.78-.33-5.57-.51-8.36 43.36-14.59 86.73-29.17 130.07-43.8 2.8-.94 6.07-1.12 7.88-4.05 1.19.07 1.67-.69 1.93-1.69z" class="st18"/><path d="M1285.5 266.9c15.92-8.61 31.85-17.21 48.77-26.36v49.91c-4 .54-7.62 1.99-10.83 4.45-1.61.82-3.22 1.65-4.83 2.47-16.85 5.72-16.85 5.72-17.56 22.7-.02.46-.08.92-.12 1.39-3.28 1.46-6.57 2.91-9.85 4.37-.53-.44-.86-.38-.9.37l-.13.07c-3.43-.15-4.93-1.84-4.9-5.36.18-18 .25-36.01.35-54.01zM1299.1 671.04l-3.74.93c-6.67.62-13.34 1.27-20.01 1.86-4.28.38-5.83 2.58-5.63 6.91.31 6.71.05 13.44.04 20.16-11.32 2.19-11.33 2.19-11.33-8.72-.01-16.62.16-33.24-.12-49.86-.07-4.13 1.11-5.62 5.15-6.32 15.2-2.62 30.35-5.51 45.47-8.53 3.5-.7 4.53.11 4.49 3.64-.14 12.63-.04 25.26-.03 37.89l-14.29 2.04zM1140.44 801.41c-.13-7.7-.14-15.41-.44-23.11-.13-3.26 1.33-3.76 4.15-3.88 22.65-.98 45.29-2.11 67.94-3.2l.27 34.42c-1.52.01-3.05-.04-4.2 1.23-.29.24-.35.52-.2.86l-61.64-.33c-1.51-2.17-3.81-1.68-5.94-1.77.02-.93.03-1.86.05-2.78.16-.14.49-.32.47-.42-.1-.35-.3-.68-.46-1.02z" class="st15"/><path d="M1187.79 864.73c1.89 6.71-.49 9.01-7.5 8.57-9.29-.58-18.64-.17-27.96-.11-2.57.02-4.38-.09-4.31-3.63.31-16.53.36-33.07.51-49.61 2.23-1.33 1.9-3.54 1.92-5.63h35.19c-.01 14.54-.06 29.07.01 43.61.01 2.41-1.07 5.34 2.14 6.8z" class="st13"/><path d="M1207.96 807.74c-.16-.34-.09-.63.2-.86 1.51-.04 3.26.73 4.2-1.23l-.27-34.42c14.24-1.04 14.24-1.04 14.24 12.52 0 39.62 0 79.24.02 118.85 0 4.65 1.04 8.88-6.69 8.75-7.06-.12-7.62-3.23-7.1-8.48.07-.68-.14-1.39-.22-2.09-.02-29.1-.04-58.21-.07-87.31 1.3-3.98-.85-5.35-4.31-5.73z" class="st19"/><path d="M1635.64 802.66c5.03-.02 10.07-.03 15.1-.05.18 37.52.45 75.03.43 112.55 0 6.48-.45 12.39 8.49 13.24h-26.37c-.15-.53-.31-1.07-.46-1.6 4.66-.62 2.69-4.34 2.7-6.61.17-34.66.17-69.33.17-103.99 0-2.55.34-5.18-1.14-7.52-.7-2.19.37-4.07 1.08-6.02z" class="st17"/><path d="M1334.42 359.58c-.06 10.25-.13 20.5-.19 30.75-3.78.96-7.41 2.3-10.76 4.33-1.6-.1-2.98.38-4.06 1.59-21.2 7.76-19.22 3.11-17.97 22.94-4.49 2.6-9.32 4.34-14.34 5.58-1.66-2.27-.92-5.56-3.23-7.55-.13-11.17-.17-22.34-.46-33.51-.08-3.11 1.23-4.53 3.91-5.67 15.39-6.53 30.71-13.21 46.05-19.83.35.46.7.92 1.05 1.37z" class="st11"/><path d="M1506.49 741.01c-.75 2.27.24 4.95-1.62 6.96-12.31.89-24.62 1.95-36.95 2.57-3.54.18-5.7 1.06-6.25 4.68-.28-3.47-1.92-4.45-5.53-4.2-40.75 2.84-81.52 5.48-122.28 8.19-5.59.37-11.17 1.08-16.76 1.18-4.42.08-5.47 2.17-5.42 6.14.15 11.45.06 22.91 0 34.37-.01 2.54.48 5.16-.83 7.57-2.28-.48-2.91-2.12-2.82-4.17.28-6.27-.01-12.52.6-18.83.82-8.39 3.79-17.45-3.45-24.85 1.51-.14 3.18.38 4.4-.89.16-.17-.25-1.37-.61-1.49-2.14-.74-3.37.22-3.8 2.37-.94.46-1.88.93-2.82 1.39-.72.02-1.44.05-2.16.07-2.06-6.25 2.23-6.34 6.39-6.64 33.16-2.43 66.31-4.87 99.46-7.31l98.76-7.26c.58.05 1.13.1 1.69.15z" class="st20"/><path d="M1448.71 684.62c.05-13.5.25-27.01.07-40.51-.06-4.76 1.1-7.19 6.4-7.65 8.3-.73 16.53-2.31 24.8-3.54-1.66 13.92-.64 27.89-.61 41.83.01 5.49-1.49 7.93-7.12 8.39-7.86.63-15.67 1.95-23.5 2.97-.01-.49-.03-.99-.04-1.49z" class="st18"/><path d="M1302.36 762c.94-.46 1.88-.93 2.82-1.39l.01.01c7.24 7.41 4.27 16.46 3.45 24.85-.61 6.31-.33 12.56-.6 18.83-.09 2.05.53 3.69 2.82 4.17-.02 35.62-.05 71.24-.07 106.85-2.34.01-4.67.02-7.01.04-1.2-3.83-1.44-7.74-1.44-11.74.05-47.2.02-94.41.02-141.62z" class="st19"/><path d="M1371.23 426.79c.07-14.64.39-29.3.06-43.93-.13-5.54 1.29-8.72 6.93-10.02 4.22-.97 7.86-4.1 12.55-3.55 1.46 16.95.45 33.92.53 50.89-6.68 2.21-13.37 4.41-20.07 6.61zM1483.53 632.86c5.28-.9 10.57-1.72 15.83-2.72 4.27-.81 5.92.72 5.83 5.13-.22 11.2-.13 22.4-.16 33.61-.04 2.44-.09 4.89-.13 7.33-2.49-.13-5.04.04-7.45-.46-4.43-.92-7.53.39-9.41 4.53-4.31 1.54-4.49-1.1-4.48-4.26.05-14.4-.01-28.78-.03-43.16z" class="st18"/><path d="M1201.23 900.68c-9.23 1.28-9.29 1.28-9.33-7.94-.13-24.15-.25-48.29-.2-72.44 0-2.05-1.92-5.43 2.36-6.03-.04 17.51-.1 35.03-.11 52.54 0 2.3-.22 5.05 3.25 5.05 2.67 0 5.27-.59 5.75-3.88.4-2.76.79-5.55.81-8.33.12-15.18.13-30.36.17-45.54 1.34-.9 2.74-1.07 4.22-.38-.01 23.9-.01 47.81-.05 71.72-.01 6.09 1.78 13.04-6.87 15.23z" class="st21"/><path d="M1289.1 567.11c-.19-8.16-.28-16.33-.63-24.48-.18-4.08 1.57-5.99 5.5-6.49 7.62-.98 15.21-2.11 22.82-3.17.29 8.17.45 16.34.92 24.5.23 3.9-.61 5.91-5.07 6.33-7.88.71-15.7 2.16-23.54 3.31zM1269.75 700.9c.02-6.72.27-13.45-.04-20.16-.2-4.33 1.35-6.53 5.63-6.91 6.67-.6 13.34-1.24 20.01-1.86.04 6.8-.14 13.6.18 20.38.2 4.25-.67 6.4-5.57 6.54-6.75.2-13.47 1.3-20.21 2.01z" class="st18"/><path d="M1132.52 761.94c-1.08-4.46.53-6.01 5.24-6.3 24.51-1.54 48.99-3.49 73.48-5.2 4.17-.29 8.15-.27 7.01-6.34-.25-1.35-.05-2.98 1.86-3.13 2.65-.2 2.18 1.92 2.18 3.42-.01 3.97-.18 7.94-.29 11.91-10.95.77-21.89 1.6-32.84 2.28-18.88 1.18-37.76 2.25-56.64 3.36z" class="st13"/><path d="M1132.52 761.94c18.88-1.11 37.76-2.18 56.64-3.35 10.95-.68 21.89-1.52 32.84-2.28 1.3 4.87-.62 6.51-5.58 6.79-26.13 1.46-52.25 3.05-78.35 5.05-5.71.44-6.49-1.65-5.55-6.21z" class="st18"/><path d="M1203.94 814.13c-.05 15.18-.05 30.36-.17 45.54-.02 2.78-.41 5.57-.81 8.33-.48 3.29-3.09 3.88-5.75 3.88-3.46 0-3.25-2.74-3.25-5.05.01-17.51.07-35.03.11-52.54 3.28-.06 6.57-.11 9.87-.16z" class="st13"/><path d="M1448.71 684.62c.01.5.03.99.04 1.49-9.3 2.1-9.3 2.1-9.3-7.59 0-30.65.1-61.3-.11-91.95-.03-4.82.99-6.88 6.2-7.74 17.04-2.8 33.97-6.29 50.93-9.52-6.5 3.52-12.98 7.07-19.51 10.52-.49.26-1.63.16-1.93-.21-5.22-6.47-9.88-1.67-14.44.83-4.1 2.26-8.86 2.46-12.86 2.18-5.96-.42-6.14 2.29-6.13 6.45.04 14.98.01 29.95.01 44.93 0 14.51.23 29.02-.12 43.52-.12 5.62 1.74 7.86 7.22 7.09z" class="st10"/><path d="M1396.65 248.42c-3.35-14.09 2.16-22.65 16.05-26.36 3.74-1 7.21-2.98 10.81-4.51 2.97 13.47-2.03 22-15.46 25.78-3.97 1.11-7.61 3.36-11.4 5.09zM1421.82 505.99l17.82-4.56c.07 6.52-.09 13.06.3 19.57.25 4.1-1.44 5.92-5.2 6.76-4.3.97-8.53 2.25-12.78 3.4-.04-8.39-.09-16.78-.14-25.17z" class="st18"/><path d="M1391.31 420.19c-.08-16.96.93-33.94-.53-50.89 2.16-2.82 4.82-4.44 8.52-3.58-1.1 17.27-1.19 34.54.04 51.81-2.23 2.23-5.05 2.67-8.03 2.66z" class="st12"/><path d="M1322.05 532.54c4.46-2 9.41-1.51 14.03-2.7.33 8.36.59 16.72 1.01 25.07.46 9.03-7.05 5.44-11.02 6.58-5.38 1.54-3.53-3.54-3.65-5.94-.35-7.66-.27-15.34-.37-23.01zM1399.51 538.33c.1-6.47.45-12.94.22-19.39-.19-5.37 1-8.9 7.2-9.32 3.17-.22 6.27-1.46 9.41-2.24.05 8.43.1 16.87.16 25.3-5.28 3.02-11.18 4.19-16.99 5.65z" class="st18"/><path d="M1505.55 771.88c2.29.46 2.55 1.79 2.54 4.07-.21 48.9-.27 97.8-.34 146.69 0 2.52-.51 5.23 1.89 7.14-.13.31-.26.62-.41.92-1.38.42-2.87.73-3.54-.95-.42-1.05-.45-2.3-.45-3.46.09-51.47.2-102.94.31-154.41z" class="st8"/><path d="M1302.36 762c0 47.21.03 94.41-.02 141.62 0 4 .24 7.92 1.44 11.74-5.7.87-3.79-3.51-3.8-5.98-.11-26.66-.1-53.32-.05-79.98.04-22.44.18-44.89.28-67.33.71-.02 1.43-.05 2.15-.07z" class="st21"/><path d="M1488.95 404.59c-3.32-1.35-2.28-4.31-2.28-6.7-.05-44.78-.05-89.57 0-134.35 0-2.39-1.05-5.35 2.28-6.7.09 36.65.22 73.3.27 109.95.01 12.6-.18 25.2-.27 37.8z" class="st10"/><path d="M1201.23 900.68c8.65-2.19 6.86-9.15 6.88-15.22.04-23.91.04-47.81.05-71.72 1.37-.09 2.74-.19 4.11-.28.02 29.1.04 58.21.07 87.31-3.71-.02-7.41-.05-11.11-.09z" class="st11"/><path d="M1299.1 671.04c4.76-.68 9.52-1.36 14.28-2.03.01 6.99-.43 14.02.15 20.96.69 8.22-5.35 6.55-9.66 7.16-5.95.85-3.71-3.93-3.96-6.63-.59-6.46.8-13.02-.81-19.46z" class="st20"/><path d="M1428.7 214.86c5.96-2.59 11.2-6.9 17.99-7.5.14.92.38 1.84.42 2.76.53 13.63-1.7 16.64-14.68 20.95-3.3 1.1-3.55-.34-3.56-2.86 0-4.46-.1-8.91-.17-13.35zM1301.44 419.2c-1.25-19.84-3.23-15.19 17.97-22.94.18 4.61.37 9.23.55 13.84-4.19 7.08-12.06 6.65-18.52 9.1zM1300.93 321.46c.04-.46.1-.92.12-1.39.71-16.98.71-16.98 17.56-22.7.2 20 4.24 14.03-17.68 24.09zM1323.47 394.67c3.35-2.03 6.98-3.37 10.76-4.33.09 3.91.26 7.81.24 11.72-.03 5.21-5.44 9.26-10.67 8.05-2.07-.48-.14-1.81-.49-2.67.06-4.26.11-8.52.16-12.77z" class="st18"/><path d="M1380.19 189.29c3.32 1.3 2.31 4.22 2.32 6.61.08 15.57.18 31.15-.05 46.71-.06 4.3.81 7.72 4.4 10.22-1.35.9-2.71 1.8-4.06 2.7-.87-.04-1.73-.07-2.6-.11-.01-22.04-.01-44.08-.01-66.13z" class="st10"/><path d="M1323.44 294.9c3.21-2.45 6.83-3.91 10.83-4.45.14 3.24-.09 6.55.51 9.71 1.31 6.96-4.08 7.88-8.36 9.77-2.3 1.01-2.71-.6-2.73-2.48-.05-4.18-.16-8.37-.25-12.55z" class="st18"/><path d="M1285.5 266.9c-.1 18.01-.17 36.01-.35 54.01-.04 3.51 1.47 5.21 4.9 5.36-7.04 3.9-7.02 3.9-7.02-4.09.01-16.3-.04-32.6.04-48.89.02-2.32-1.25-5.37 2.43-6.39z" class="st16"/><path d="M1416.5 532.67c-.05-8.43-.1-16.87-.16-25.3l5.48-1.38c.05 8.39.09 16.77.14 25.16-1.45 1.84-3.53 1.42-5.46 1.52z" class="st12"/><path d="M1187.79 864.73c-3.22-1.46-2.14-4.4-2.15-6.79-.08-14.54-.02-29.07-.01-43.61 3.2-.35 2.46 2.05 2.45 3.71-.06 15.57-.18 31.13-.29 46.69z" class="st10"/><path d="M1632.83 926.81c.15.53.31 1.07.46 1.6-16.52 1.19-33.07 1.19-49.62.87-.02-.64-.04-1.28-.07-1.91 2.55-.18 5.09-.47 7.64-.51 13.51-.19 27.02-.31 40.54-.45.38.06.73.19 1.05.4z" class="st16"/><path d="M1383.83 466.03c11.06-4.35 22.48-7.53 33.94-10.57.44.75.88 1.49 1.32 2.24-11.28 3.4-22.57 6.8-33.85 10.19l-1.41-1.86z" class="st12"/><path d="M1488.05 680.27c1.88-4.13 4.98-5.45 9.41-4.53 2.41.5 4.96.33 7.45.46 3.82 2.77 8.89-.15 12.67 2.78-3.99 1.39-7.98 2.77-11.97 4.16-.06-3.43-1.44-5.01-5.17-4.35-4.09.72-8.25 1-12.39 1.48z" class="st20"/><path d="M1583.6 927.37c.02.64.04 1.28.07 1.91-17.33.42-34.66.84-51.99 1.27.01-.76.03-1.52.04-2.28 2.21-.19 4.42-.39 6.64-.58 4.89.01 9.77.01 14.66.02 10.19-.12 20.39-.23 30.58-.34z" class="st10"/><path d="m1323.47 394.67-.15 12.77c-1.86-.05-2.45 1.5-3.36 2.65-.18-4.61-.37-9.23-.55-13.84 1.08-1.21 2.46-1.68 4.06-1.58z" class="st12"/><path d="M1531.72 928.27c-.01.76-.03 1.52-.04 2.28-7.48.68-14.96.66-22.44.15.14-.3.27-.61.41-.92 7.4.21 14.61-2.46 22.07-1.51z" class="st16"/><path d="M1283.87 417.23c2.31 1.99 1.57 5.28 3.23 7.55-1.84 1.27-3.5 1.89-3.52-1.36-.02-2.07.19-4.13.29-6.19zM1150.44 814.33c-.02 2.09.31 4.29-1.92 5.63.04-2.08-2.43-5.02 1.92-5.63zM1237.86 631.81c.98-2.21 2.67-3.76 4.67-5.01 1.41 4.44-1.07 5.25-4.67 5.01zM1140.38 805.64c2.13.09 4.43-.4 5.94 1.77-2.11-.15-5.03 2.42-5.94-1.77z" class="st10"/><path d="M1380.2 255.42c.87.04 1.73.07 2.6.11-.89.58-1.83 2.23-2.6-.11z" class="st15"/><path d="M1242.56 448.26c-.97-.44-1.13-.86.02-1.26.35.43.34.85-.02 1.26zM1140.44 801.41c.16.34.36.67.45 1.03.02.1-.3.28-.47.42.01-.49.01-.97.02-1.45z" class="st10"/><path d="m1334.42 359.58-1.04-1.37c1.14-.14 1.39.39 1.04 1.37z" class="st18"/><path d="M1290.18 326.2c.04-.75.37-.81.9-.37l-.36.4-.54-.03z" class="st16"/><path d="M1645.59 536.84c-14.44-1.01-28.88-2.05-43.33-3-2.81-.19-4.3-1.28-4.29-4.26.12-32.97.19-65.93.32-98.9 0-.4.44-.8.68-1.2 7.4 1.11 14.88 1.86 22.19 3.41 9.48 2.01 19.55.98 28.51 5.55-2.04 2.44-1.24 5.37-1.25 8.1-.06 27.13-.05 54.27-.01 81.4.01 3.31.24 6.6-2.82 8.9z" class="st15"/><path d="M1517.58 678.98c-3.79-2.93-8.85-.01-12.67-2.78.04-2.44.09-4.89.13-7.33 8.14 2.93 16.71 1.43 25.05 2.32 15.33 1.63 30.75 2.34 46.12 3.63 4.57.39 6.28-1.1 6.17-5.79-.25-10.3-.07-20.61-.07-30.91 0-2.86-.28-5.76 4.06-5.77 4.25-.01 4.16 2.77 4.19 5.7.1 10.77.41 21.54.28 32.31-.05 4.56 1.57 6.12 6.1 6.17 10.28.13 20.57.62 30.84 1.2 4.58.26 6.76-.83 6.72-6.08-.21-27.87-.16-55.73.01-83.6.03-4.52-1.49-5.91-6.01-6.27-38.89-3.13-77.76-6.53-116.63-9.84-2.59-.22-5.37-.08-5.66-3.74 1.45-2.09 3.67-1.89 5.73-1.72 22.05 1.78 44.08 4.36 66.17 5.2 16.34.62 32.57 2.42 48.86 3.42 18.65 1.15 15.47-.98 15.68 15.6.34 27.39.14 54.79.07 82.19-.02 10.34-.14 10.58-10.17 10.28-26.6-.81-53.19-1.85-79.78-2.79-7.37-2.87-15.04-.74-22.54-1.33-4.24-.02-8.44-.05-12.65-.07z" class="st21"/><path d="M1680.72 548.11c-3.11-2.45-3.67-7.28-8.02-8.57-4.63-3.08-9.67-1.4-14.58-1.28.11-32.35.23-64.7.34-97.05.42-.01.83-.05 1.24-.11 3.36 4.17 7.39 7.97 9.95 12.58 6.58 11.83 16.05 16.67 29.33 14.01-.01.98-.01 1.96-.02 2.94-3.88 6.4-4.94 13.93-8.15 20.6-7.48 15.56-11.94 31.71-9.95 49.2.31 2.52-.07 5.12-.14 7.68z" class="st11"/><path d="M1649.67 438.44c-8.96-4.58-19.03-3.55-28.51-5.55-7.31-1.55-14.79-2.3-22.19-3.41-.39-2.29-.93-4.57-1.11-6.88-.16-2.07.52-3.84 3.16-3.41 22.04 3.55 44.09 7.11 66.12 10.74.84.14 1.56.93 2.34 1.42-2.9 3.3-7.82 4.23-9.89 8.49-.4-.05-.8-.05-1.21-.02-2.32-1.86-4.68-3.43-7.66-1.27-.36.16-.71.13-1.05-.11z" class="st21"/><path d="M1650.73 438.54c2.98-2.17 5.34-.59 7.66 1.27.03.47.06.94.08 1.41-.11 32.35-.23 64.7-.34 97.05-2.41-1.38-7.1 1.01-7.13-4.31l-.27-95.42z" class="st22"/><path d="M1659.6 439.83c2.07-4.26 7-5.19 9.89-8.49.96 0 1.93-.01 2.89-.01 9.31 11.81 19.33 23.09 26.62 36.37-13.28 2.67-22.75-2.18-29.33-14.01-2.57-4.61-6.59-8.41-9.96-12.58-.02-.43-.05-.85-.11-1.28z" class="st20"/><path d="m1650.73 438.54.27 95.41c-.8 2.84-2.66 3.7-5.4 2.89 3.06-2.3 2.83-5.59 2.82-8.9-.04-27.13-.04-54.27.01-81.4.01-2.73-.79-5.66 1.25-8.1.33.24.68.27 1.05.1z" class="st10"/><path d="M1530.2 679.05c7.51.59 15.17-1.54 22.54 1.33-7.62 1.43-15.31 4-22.54-1.33z" class="st20"/><path d="m1692.16 876.81-.15-121.86a144970 144970 0 0 1 33.65 9.93c.06 34.52.13 69.03.15 103.55 0 1.37-.44 2.74-.67 4.11-10.98 1.42-21.98 2.85-32.98 4.27z" class="st11"/><path d="M1828.52 852c-.09-15.89-.18-31.78-.26-47.66 2.98-.04 5.97.13 8.93-.15 6.5-.61 13.22 1.69 19.51-1.47 1.3.09 2.61.19 3.91.28l.12 49.03c-10.74-.02-21.47-.03-32.21-.03zM1794.7 890.09c-2.55-.15-5.12-.22-7.66-.46-3.47-.33-5.3-1.85-5.27-5.81.22-32.18.26-64.37.36-96.55 3.08-4.56 7.74-4.44 12.44-4.21.05 35.68.09 71.35.13 107.03z" class="st18"/><path d="M1680.72 548.11c.07-2.56.44-5.16.16-7.68-1.99-17.5 2.47-33.65 9.95-49.2 3.21-6.67 4.27-14.2 8.15-20.6 2.16 2.4 1.57 5.4 1.24 8.05-2.25 18.16-.69 36.4-1.23 54.59-.28 9.52-.35 19.04-.47 28.56-.01.94.21 1.95-.87 2.35-1.35.5-2.18-.54-2.96-1.35-4.67-4.89-9.31-9.81-13.97-14.72z" class="st23"/><path d="M1714.53 424.95c-2.45-4.14-1.21-8.69-1.3-13.05-.19-9.35-.06-18.7-.02-28.05.01-1.33-.35-3.12 1.3-3.64 1.66-.52 2.29 1.12 3.05 2.25 5.22 7.72 10.48 15.42 15.66 23.16 1.89 2.81 2.35 5.99 2.33 9.36-.08 11.69-.02 23.38-.02 35.06-2.85-.58-3.73-3.2-5.33-5.1-5.45-6.47-9.32-14.21-15.67-19.99z" class="st15"/><path d="M1713.1 549.47c.37-13.73-.59-27.5 1.22-42.44 8.34 7.75 17.11 15.66 19.9 25.09 3.44 11.62 2.82 24.85-.17 37.29-7.41-6.19-13.01-14.3-20.95-19.94zM1706.07 673.4c.01-12.84-.01-25.68.04-38.52.01-1.54-.59-3.59 1.43-4.24 1.47-.48 2.3 1.31 3.49 1.89 12.99 6.41 17.13 16.85 14.8 30.77-1.1 6.6 1.14 13.53-1.5 20.08-6.08-3.33-12.17-6.66-18.26-9.98z" class="st11"/><path d="M1725.15 872.54c.23-1.37.67-2.74.67-4.11-.02-34.52-.09-69.03-.15-103.55 2.05-.16 3.55-1.14 4.47-2.99 3.57 1.04 2.57 4.05 2.58 6.42.06 34.32.05 68.64.01 102.97 0 2.01.62 4.29-1.53 5.77-.65-3.34-3.76-3.37-6.05-4.51z" class="st21"/><path d="M1856.7 802.71c-6.3 3.16-13.02.87-19.51 1.47-2.95.28-5.95.11-8.93.15-7.43-1.53-14.85-3.05-22.28-4.58-.46-16.31-.42-16.4 14.75-10.79 12.04 4.46 23.98 9.16 35.97 13.75z" class="st8"/><path d="M1714.53 424.95c6.36 5.78 10.22 13.52 15.69 20 1.6 1.9 2.48 4.52 5.33 5.1v20.86c-8.16-6.4-12.17-14.35-17.96-20.71-7.13-7.83-3.91-16.62-3.06-25.25zM1706.07 673.4c6.09 3.32 12.18 6.65 18.27 9.97.01 6.29-.07 12.58.05 18.86.1 5.21-2.13 5.18-6.06 3.3-8.61-4.11-14.69-9.36-12.39-20.29.79-3.78.13-7.88.13-11.84zM1713.1 549.47c7.94 5.64 13.54 13.75 20.95 19.95 2.04 4.7 1.55 9.67 1.4 14.57-.1 3.33-1.76 4.21-4.55 2.22-5.93-4.24-11.19-9.26-16.1-14.61-2.66-2.9-1.41-6.72-1.56-10.16-.18-4-.11-7.99-.14-11.97z" class="st21"/><path d="M1745.47 471.72c-.48-13.48.64-26.98-.19-40.75 4.14 5.91 10.16 10.63 10.02 19.03-.18 10.74-.03 21.49-.03 32.23-4.43-2.42-5.85-7.64-9.8-10.51zM1745.45 697.12c-.02-10.74-.07-21.47-.03-32.21 0-1.55-.66-3.6 1.05-4.48 2.23-1.15 3.15 1.31 4.53 2.34 3.22 2.42 4.43 5.59 4.33 9.72-.25 9.8-.08 19.6-.07 29.4-4.05.01-6.15-3.99-9.81-4.77zM1746.94 584.56c-2.94-5.28-1.19-11.02-1.52-16.54-.43-7.19.56-14.42-.16-21.87 5.25 4.41 10.56 8.35 10.1 16.57-.52 9.33-.13 18.72-.13 28.08-3.61-.95-5.45-4.27-8.29-6.24zM1760.99 495.92c-.58-12.25.69-24.54-.22-37.08 4.65 5.71 9.93 11.01 9.97 19.1.05 9.54-.04 19.09-.07 28.62-4.16-2.69-6.34-7.2-9.68-10.64zM1761.05 601.26c-.2-10.45-.39-20.9-.64-31.35-.03-1.13-.64-2.36.79-2.99 1.26-.56 2.41.13 3.07 1.02 2.98 4 6.92 7.3 6.6 13.25-.47 8.81-.17 17.67-.19 26.5-3.97-1-6.03-4.86-9.63-6.43zM1782.02 654.9c-.02-9.81-.07-19.62-.01-29.42.01-1.71-.86-4.3 1.63-4.71 1.96-.32 3.03 1.85 3.99 3.45.36.6.86 1.25.88 1.89.37 11.08 1.93 22.19-.88 33.18-1.86-1.46-3.74-2.92-5.61-4.39zM1782.02 736.56v-35.39c5.05 3.82 7.27 6.98 7.11 11.98-.29 9.35-.11 18.72-.12 28.08-3-.55-4.35-3.58-6.99-4.67z" class="st11"/><path d="M1725.15 872.54c2.29 1.13 5.4 1.17 6.04 4.51-10.76 1.91-21.52 3.78-32.27 5.74-4.91.9-7.85-.22-6.76-5.99 11-1.41 22-2.84 32.99-4.26z" class="st8"/><path d="M1745.47 471.72c3.95 2.87 5.37 8.09 9.8 10.51-.02 4.66-.01 9.32-.08 13.98-.02 1.1.21 2.48-1.16 3.01-1.38.54-1.95-.76-2.84-1.44-9.3-7.07-7.71-16.52-5.72-26.06z" class="st21"/><path d="M1794.57 783.06c-4.7-.23-9.36-.35-12.44 4.21-2.25-7.44-9.53-5.95-14.7-7.93-2.45-.94-5.27-1.27-7.76-2.45-.44-5.59 1.22-6.85 6.81-4.59 8.41 3.4 17.23 5.76 25.91 8.48 1.29.39 2.06.94 2.18 2.28z" class="st8"/><path d="M1745.45 697.12c3.66.78 5.76 4.78 9.8 4.77 0 3.95.3 7.94-.12 11.85-.26 2.47 2.19 7.29-2.94 6.76-4.38-.45-8.84-3.12-7.71-8.82.97-4.87.66-9.71.97-14.56zM1746.94 584.56c2.84 1.97 4.68 5.29 8.3 6.23l-.03 12.47c-.01 3.3-1.29 4.24-4.21 2.32-7.22-4.73-8.91-13.44-4.06-21.02z" class="st21"/><path d="M1800.32 671.51v-30.97c4.84 1.8 5.65 4.92 5.62 8.64-.06 8.64-.03 17.28-.04 25.91-1.86-1.19-3.72-2.38-5.58-3.58zM1800.31 745.04V714.3l2.4-.24c6.35 10.7 1.91 22.95 3.17 34.38-1.86-1.14-3.72-2.27-5.57-3.4z" class="st11"/><path d="M1730.14 761.89c-.92 1.85-2.42 2.83-4.47 2.99a144970 144970 0 0 1-33.65-9.93c-.15-3.27 1.25-3.9 4.28-2.98 11.25 3.41 22.55 6.63 33.84 9.92z" class="st8"/><path d="M1814.39 752.99c.01-7.9-.04-15.81.09-23.71.03-1.59-.95-4.31 1.95-4.26 1.96.03 3.2 2.04 3.34 3.96.28 3.7.26 7.43.26 11.14 0 5.93-.09 11.86-.14 17.78-1.84-1.63-3.67-3.27-5.5-4.91z" class="st11"/><path d="M1760.99 495.92c3.34 3.44 5.52 7.95 9.68 10.65v16.95c-8.8-6.48-11.39-14.26-9.68-27.6zM1761.05 601.26c3.59 1.57 5.66 5.42 9.63 6.42.04 3.04.19 6.08.07 9.11-.07 1.74.86 4.06-1.32 5.01-1.75.76-2.91-1.12-4.19-1.98-5.99-3.97-7.22-9.68-4.19-18.56z" class="st21"/><path d="M1814.38 684.67c.01-7.66-.02-15.32.07-22.97.02-1.5-.7-3.69 1.35-4.21 2.24-.56 3.69 1.54 3.74 3.21.27 9.38 1.99 18.83-.91 28.1-1.12-1.69-2.13-3.48-4.25-4.13z" class="st11"/><path d="M1839.7 764.63c0-6.51-.06-13.03.04-19.54.03-1.69-.8-4.41 1.74-4.57 2.29-.14 3.54 2.16 3.62 4.4.18 5.11.13 10.23.17 15.34.02 2.56.02 5.12.03 7.67-1.87-1.1-3.74-2.2-5.6-3.3zM1839.69 709.65c0-6.73-.03-13.45.04-20.18.01-1.52-.48-3.72 1.74-3.92 1.72-.16 3.22 1.51 3.27 3.09.26 7.74 2.1 15.6-1.14 23.17-1.3-.73-2.6-1.45-3.91-2.16z" class="st15"/><path d="M1828.44 698.28v-25.06c.78-.05 1.55-.11 2.33-.16 3.63 9.19 1.1 19.11 1.85 28.64-2.27-.07-2.73-2.35-4.18-3.42zM1828.43 760.52v-25.48c.79-.01 1.59-.03 2.38-.04 2.68 9.33 2.77 18.81.42 28.44-.93-.98-1.86-1.95-2.8-2.92z" class="st13"/><path d="M1782.02 654.9c1.87 1.47 3.74 2.93 5.62 4.4 1.87 2.96 1.58 6.29 1.38 9.52-.11 1.82 1.2 5.02-1.87 5.01-2.39-.01-4.93-1.98-5.08-4.94-.23-4.66-.05-9.33-.05-13.99zM1782.02 736.56c2.64 1.09 3.98 4.12 6.99 4.67.03 3.02.2 6.05.02 9.06-.11 1.88 1.12 5.04-1.7 5.2-2.53.14-4.79-2.44-5.06-5.02-.48-4.6-.2-9.27-.25-13.91z" class="st21"/><path d="M1849.55 718c-.08-6.33-.19-12.65-.24-18.98-.01-1.35-1.86-3.56 1.07-3.72 1.64-.09 3.09 1.34 3.15 3.22.16 4.68.16 9.37.19 14.06.02 2.58-.02 5.16-.03 7.73l-4.14-2.31zM1849.3 770.82c.67-6.77-.64-13.68 1.73-20.44 4.54 7.66 1.9 16.18 2.73 24.26-1.49-1.26-2.97-2.54-4.46-3.82z" class="st11"/><path d="M1800.32 671.51c1.86 1.19 3.72 2.39 5.58 3.58 0 3.04.07 6.07-.04 9.1-.05 1.49.54 3.75-1.85 3.78-1.69.02-3.13-1.59-3.26-3.21-.36-4.39-.32-8.83-.43-13.25zM1814.38 684.67c2.13.65 3.14 2.44 4.26 4.13 1.28 2.29 1.65 4.79 1.44 7.33-.14 1.71 2.43 4.59-1.15 4.89-2.38.2-4.09-2.17-4.28-4.64-.31-3.89-.21-7.8-.27-11.71zM1800.31 745.04c1.86 1.13 3.71 2.26 5.57 3.4.02 2.76.14 5.52.01 8.27-.08 1.65.83 4.35-1.79 4.4-2.18.05-3.52-2.14-3.64-4.37-.2-3.89-.12-7.8-.15-11.7zM1814.39 752.99c1.83 1.64 3.67 3.28 5.5 4.91.05 2.11.22 4.22.12 6.32-.07 1.49.65 3.79-1.64 3.99-2.43.21-3.83-1.52-3.89-3.98-.1-3.74-.07-7.49-.09-11.24zM1839.7 764.63c1.87 1.1 3.73 2.2 5.6 3.3-.01 1.38.13 2.77-.08 4.12-.31 2.05 1.34 5.5-1.74 5.74-2.75.21-3.73-2.88-3.76-5.61-.03-2.51-.02-5.03-.02-7.55z" class="st21"/><path d="M1857.96 774.84c-1.67-6.66-1.69-13.32 0-19.97 1.64 6.65 1.62 13.31 0 19.97zM1857.86 702.82c1.77 6.66 1.69 13.3.17 19.94-2.15-6.62-1.35-13.29-.17-19.94z" class="st13"/><path d="M1839.69 709.65c1.3.72 2.61 1.43 3.91 2.15 1.32 3.04 2.42 6.15 1.04 9.43-.45 1.07-1.59.72-2.39.18-3.31-2.27-2.44-5.76-2.55-8.96-.03-.93 0-1.87-.01-2.8zM1828.44 698.28c1.45 1.07 1.91 3.35 4.18 3.42-.32 3.32.57 6.79-1.12 10.92-4.63-4.71-2.6-9.79-3.06-14.34zM1849.3 770.82c1.48 1.28 2.97 2.55 4.45 3.83v6.77c-4.59-2.5-6.72-5.72-4.45-10.6zM1828.43 760.52l2.8 2.92c.52 3.35 2.59 6.64.46 10.07-.15.25-1.48.19-1.79-.15-2.52-2.75-1.2-6.19-1.5-9.35-.11-1.16.02-2.33.03-3.49zM1849.55 718c1.38.77 2.76 1.53 4.14 2.3-.74 2.34 1.42 7.2-1.83 6.68-3.99-.64-1.92-5.75-2.31-8.98z" class="st21"/><path d="M1828.52 852c10.74.01 21.47.02 32.21.02.08 2.36.17 4.73.25 7.1-4.96 4.97-11.63 2.39-17.41 3.67-8.02 1.78-16.5-.42-25.09 1.29 7-1.38 11.62-4.22 10.04-12.08z" class="st9"/><path d="M1635.64 802.66c-.71 1.95-1.78 3.83-1.08 6.03-1.59 11.17-3.17 22.33-4.76 33.5-8.08.04-16.17-.13-24.24.19-5.43.22-11.04-1.44-16.29 1.25-.87-.02-1.74-.03-2.61-.05-5.38 0-10.77-.01-16.15 0-9.98.01-10.62.58-10.65 10.79-.06 23.18-.04 46.36-.06 69.54-2.13 1.56-4.63 1.2-7.03 1.39-4.57.41-9.14.81-13.72 1.22.23-38.31.47-76.63.66-114.94.02-3.73-.25-7.46-.38-11.19.63-3.16 2.27-4.66 5.78-4.65 28.49.11 56.98.14 85.46-.02 5.53-.03 5.23 3.29 5.07 6.94z" class="st10"/><path d="M1539.07 926.52c4.57-.41 9.14-.81 13.72-1.22l.24 2.4c-4.89-.01-9.77-.01-14.66-.02.14-.43.38-.82.7-1.16z" class="st16"/><path d="M1488.3 410.29c-.26 1-.74 1.75-1.93 1.7.64-.57 1.28-1.13 1.93-1.7zM1212.35 805.64c-.95 1.96-2.69 1.19-4.2 1.23 1.15-1.27 2.69-1.22 4.2-1.23z" class="st10"/><path d="M1629.8 842.19c1.59-11.17 3.17-22.33 4.76-33.5 1.48 2.34 1.14 4.98 1.14 7.52 0 34.66 0 69.33-.17 103.99-.01 2.27 1.96 5.99-2.7 6.61-.32-.21-.67-.35-1.05-.4-.66-.91-1.32-1.81-1.99-2.72 0-27.16.01-54.33.01-81.5z" class="st12"/><path d="M1305.18 760.61c.42-2.15 1.66-3.11 3.8-2.37.35.12.77 1.32.61 1.49-1.22 1.27-2.89.75-4.4.89l-.01-.01z" class="st19"/><path d="M1629.79 923.69c.66.91 1.32 1.81 1.99 2.72-13.51.14-27.02.26-40.54.45-2.55.04-5.09.33-7.64.51l-30.58.33-.24-2.41c2.4-.19 4.9.18 7.03-1.39l26.76-.21c.89.01 1.79.03 2.68.04 13.52-.01 27.03-.02 40.54-.04z" class="st8"/><path d="M1659.6 439.83c.06.43.1.85.12 1.28-.41.06-.82.1-1.24.11-.03-.47-.06-.94-.08-1.41.39-.03.79-.03 1.2.02zM1629.79 923.69c-13.51.01-27.02.03-40.53.05.01-26.7.01-53.41.02-80.11 5.24-2.69 10.86-1.03 16.29-1.25 8.07-.32 16.16-.15 24.24-.19-.01 27.17-.02 54.34-.02 81.5zM1586.58 923.7l-26.76.21c.01-23.18-.01-46.36.06-69.54.03-10.21.67-10.78 10.65-10.79h16.15c-.05 26.71-.08 53.41-.1 80.12z" class="st9"/><path d="m1586.58 923.7.09-80.12c.87.02 1.74.03 2.61.05-.01 26.7-.01 53.41-.02 80.11-.89-.02-1.79-.03-2.68-.04z" class="st13"/></g><g id="arbre"><path d="M486.93 1078c-8.45-3.09-17.37-3.3-26.15-4.04-33.79-2.82-67.58-5.73-101.41-7.98-30.77-2.05-61.43-5.41-92.27-6.89-33.17-1.59-66.25-5.19-99.34-8.19-6.96-.63-8.26-9.48-3.34-20.39 3.64 2.79 7.94 1.67 11.98 1.95 22.98 1.55 45.93 3.35 68.94 4.66 46.3 2.64 92.53 6.47 138.78 9.9 24.32 1.81 48.62 3.89 72.94 5.74 19.53 1.48 39.26 5.2 58.56 3.66 35.93-2.87 71.8-6.87 107.73-10.12 40.02-3.62 80.01-7.58 119.95-11.97 15.25-1.68 30.7-2.2 45.7-5.99 8.61.11 6.35 6.62 6.22 11.29-.15 5.39-1.79 10.57-8.35 11.25-21.83 2.25-43.69 4.25-65.53 6.43-22.52 2.25-45.03 4.62-67.55 6.89-18.76 1.89-37.6 3.19-56.28 5.69-20.29 2.71-41.08 1.78-60.89 8.12-16.56-.01-33.12-.01-49.69-.01z" class="st6"/><path d="M639.48 598.84c.31 2.04.29 4.21.99 6.11 13.29 35.89 13.47 72.23 3.94 108.93-1.26 2.68-2.53 5.36-3.79 8.04-1.25-4.23-4.75-4.17-8.24-4.66-12.57-1.75-25.78-2.67-36.85-8.7-9.14-4.98-14.81-3.13-22.95 1.68-17.84 10.54-48.55 2.57-52.53-19.78l.01-.01c10.35 4.49 20.16 10.65 32.05 10.36 5.11-.12 11.97.73 13.66-4.39 1.39-4.19-5.4-6.4-8.81-8.76-21.42-14.86-37.58-34.06-49.8-56.98-4.17-7.83-3.7-10.33 5.96-11.06 16.9-1.26 29.74-12.14 32.15-26.14-10.77 10.11-23.2 13.06-36.72 11.83-5.47-.5-12.46-1.15-14-6.96-2.03-7.66-7.69-11.33-12.91-15.36-11.25-8.67-21.5-18.15-29.69-29.82-3.35-4.77-7.43-6.74-13.28-3.48-3.56 1.99-7.69 3.03-11.64 4.24-12.67 3.87-31.67-4.69-38.32-17.35 2.64-1.3 4.64.48 6.76 1.29 10.72 4.11 21.47 4.31 32.37.62 7.49-2.54 10.88-5.82 6.24-14.31-7.79-14.27-12.38-29.82-15.16-45.88-1.41-8.15-.34-13.95 9.88-14.92 8.17-.78 16.36-2.6 24.21-5.04 10.75-3.34 19.12-10.46 26.19-19.56-11.97 4.6-23.8 8.91-36.3 10.27-13.14 1.43-25.67 3.49-37.42-7.84-13.05-12.57-23.73-26.71-34.28-41.08-3.55-4.84-5.16-5.89-10-1.66-18.64 16.34-51.03 21.01-75.78 3.55-11.7-8.25-16.7-17.53-14.18-28.62.63.21 1.38.27 1.84.67 1.56 1.36 3.04 2.81 4.49 4.29 18.65 19.05 41.97 23.65 66.64 18.36 23.3-4.99 20.01-8.79 11.92-24.28-1.43-2.74-2.43-5.71-3.45-8.64-1.09-3.1-5.53-5.57-3.16-9.17 2.45-3.72 6.28-.75 9.5-.3 15.81 2.21 34.83-10.69 37.03-26.1-10.42 9.83-22.47 12.86-35.67 11.91-13.18-.95-19.05-6-21.48-18.8-1.34-7.09-2.48-14.26-3.02-21.45-.96-12.82-1.02-13.55-12.44-8.96-23.52 9.45-54.73-17.69-48.55-39.66 6.09 7.63 10.97 15.88 19.66 20.86 15.53 8.9 26.37 8.46 40.31-2.79 2.98-2.4 5.84-.58 8.83-.2 13.66 1.72 26.22-.03 35.06-12.16 1.42-1.95 5.34-3.61 2.6-6.71-1.88-2.13-4.68-.16-6.71.78-10.13 4.72-20.36 5.43-31.2 2.56-5.81-1.54-7.99-3.94-6.91-10.15 5.07-29.38 13.93-57.43 28.28-83.64 9.87-.86 14.75-7.29 20.13-15.1 31.06-45.09 73.8-69.76 129.03-72.38 46.24-2.19 86.67 12.08 119.79 43.86 43.43 41.68 59.62 93.2 48.83 152.63-1.47 8.1-.54 11.98 7.57 15.8 57.51 27.03 91.63 71.81 97.08 135.75 5.98 70.16-24.05 122.48-83.23 158.97-1.12.69-2.59.83-3.89 1.22 2.55-7.4.1-8.05-6.58-5.71-35.81 12.56-70.11 13.81-99.92-14.8-1.64-1.57-3.38-4.38-5.98-2.47-2.12 1.56-1.68 4.63-.72 6.78 4.59 10.3 11.27 18.52 21.5 24.21 9.84 5.46 21.7 3.93 31.06 10.26zm-80.13-213.29c-13.47 9.72-26.39 14.73-41.19 12.28-15.4-2.55-24.64-13.45-33.42-25.5-3.67 15.15 8.55 32.68 26.48 39 17.15 6.04 37.75-4.24 48.13-25.78zm62.07 113.04c-2.68 14.78 11.35 33.99 27 37.99 19.39 4.95 40.95-6.51 46.25-24.97-28.47 18.89-52.84 14.4-73.25-13.02zM423.93 206.65c-3.25 10.34 2.73 17.41 7.48 23.99 17.46 24.22 47.73 21.23 63.89-1.62 1.21-1.71 2.58-3.75.37-5.38-1.6-1.18-3.04.54-4.44 1.49-20.96 14.23-47.13 9.19-61.23-11.7-1.49-2.2-2-5.2-6.07-6.78zm89.8 287.27c-26.92 11.66-51.55 13.28-68.49-14.09-.77-1.25-1.65-2.36-3.18-1.92-2.39.67-1.47 2.57-1.35 4.22 1.57 20.9 24.33 38.13 45 33.45 11.69-2.65 22.94-6.68 28.02-21.66zm17.93-153.01c-12.9 12.79-26.88 13.47-40.46 11.27-14.38-2.32-24.55-12.08-31.65-26.52-1.84 20.54 12.35 38.51 30.94 41.27 18.34 2.73 36.72-7.73 41.17-26.02zm119.42-24.14c-2.44.82-2.54 2.28-2.49 3.62.58 14.67 14.04 28.69 32.19 33.61 11.34 3.07 30.27-4.11 36.8-14.06 1.27-1.93 3.51-4.22 1.66-6.46-2.1-2.55-4.35-.13-6.31 1.07-10.69 6.55-21.97 6.8-33.9 4.05-12.93-2.98-21.02-11.9-27.95-21.83z" style="fill:#999"/><path d="M520.06 690.46c3.98 22.36 34.69 30.32 52.53 19.78 8.14-4.81 13.81-6.66 22.95-1.68 11.07 6.02 24.27 6.95 36.85 8.7 3.49.49 6.99.43 8.23 4.66-13.83 38.69-39.68 67.03-74.91 87.35-19.09 11.01-40.22 15.71-61.44 20.18-16.51.63-32.92-.82-49.34-2.18-1.91-.71-3.76-1.64-5.73-2.11-31.3-7.38-57.68-23.41-80.63-45.62-13.77-13.32-22.83-29.94-32.79-45.95-2.88-8.75-5.77-17.51-8.65-26.26.13-4.26-2.3-7.1-5.52-9.26-19.98-13.4-34.84-31.6-48.19-51.23-11.1-21.94-20.47-44.69-21.1-69.5-.39-15.35-9-23.46-19.82-31.11-3.13-6.09-8.54-10.28-12.76-15.46-8.43-12.2-16.86-24.4-25.28-36.6-7.85-19.12-15.88-38.09-20.62-58.41-29.16-124.89 56.48-254.22 182.77-275.45 2.7-.45 5.49-.34 8.24-.49-14.35 26.21-23.21 54.26-28.28 83.64-1.07 6.21 1.11 8.61 6.91 10.15 10.84 2.87 21.07 2.15 31.2-2.56 2.03-.95 4.83-2.91 6.71-.78 2.74 3.1-1.18 4.76-2.6 6.71-8.83 12.13-21.4 13.88-35.06 12.16-2.99-.38-5.85-2.2-8.83.2-13.94 11.25-24.78 11.69-40.31 2.79-8.69-4.98-13.57-13.23-19.66-20.86-6.18 21.97 25.03 49.11 48.55 39.66 11.42-4.59 11.49-3.86 12.44 8.96.54 7.19 1.67 14.36 3.02 21.45 2.43 12.8 8.3 17.85 21.48 18.8 13.2.95 25.25-2.08 35.67-11.91-2.2 15.41-21.23 28.31-37.03 26.1-3.22-.45-7.05-3.42-9.5.3-2.37 3.6 2.08 6.07 3.16 9.17 1.03 2.93 2.02 5.9 3.45 8.64 8.09 15.49 11.38 19.29-11.92 24.28-24.67 5.28-47.98.69-66.64-18.36-1.45-1.48-2.93-2.93-4.49-4.29-.46-.4-1.22-.47-1.84-.67-2.52 11.1 2.48 20.38 14.18 28.62 24.75 17.45 57.14 12.78 75.78-3.55 4.84-4.24 6.45-3.19 10 1.66 10.54 14.37 21.23 28.51 34.28 41.08 11.75 11.32 24.28 9.26 37.42 7.84 12.51-1.36 24.34-5.67 36.3-10.27-7.07 9.09-15.44 16.21-26.19 19.56-7.85 2.44-16.04 4.26-24.21 5.04-10.23.97-11.3 6.77-9.88 14.92 2.78 16.05 7.37 31.6 15.16 45.88 4.64 8.49 1.25 11.77-6.24 14.31-10.91 3.69-21.65 3.49-32.37-.62-2.12-.81-4.12-2.6-6.76-1.29 6.65 12.66 25.64 21.22 38.32 17.35 3.95-1.21 8.07-2.25 11.64-4.24 5.85-3.26 9.93-1.29 13.28 3.48 8.19 11.67 18.44 21.15 29.69 29.82 5.22 4.03 10.88 7.7 12.91 15.36 1.54 5.81 8.53 6.47 14 6.96 13.52 1.23 25.96-1.73 36.72-11.83-2.41 14-15.25 24.88-32.15 26.14-9.66.72-10.13 3.23-5.96 11.06 12.22 22.92 28.38 42.13 49.8 56.98 3.41 2.36 10.2 4.57 8.81 8.76-1.7 5.12-8.55 4.27-13.66 4.39-11.93.3-21.74-5.87-32.09-10.35zM231.63 481.81c-3.85 21.76 21.84 39.05 38.1 40.59 13.93 1.32 33.32-11.6 35.26-23.29-29.19 11.61-48.53 12.3-73.36-17.3zM335.09 605.7c-2.9 20.55 12.72 34.99 27.67 38.54 19.57 4.65 40.21-7.07 45.63-25.01-28.83 18.71-52.28 15.15-73.3-13.53z" style="fill:#b3b3b3"/><path d="M639.48 598.84c-9.36-6.33-21.22-4.8-31.05-10.26-10.23-5.69-16.91-13.91-21.5-24.21-.96-2.15-1.41-5.23.72-6.78 2.59-1.9 4.34.9 5.98 2.47 29.81 28.6 64.1 27.36 99.92 14.8 6.68-2.34 9.13-1.69 6.58 5.71-18.34 12.34-38.93 17.17-60.65 18.27z" class="st26"/><path d="M927.47 943.64c.04 14.3.08 28.61.11 42.91-57.48-1.8-114.96-3.49-172.44-5.45-23.41-.8-46.82-1-70.24-2.03-53.68-2.35-107.42-3.4-161.13-4.86-12.54-.34-12.72.19-11.22 12.75.65 5.46.74 11 1.09 16.5-6.43 4.47-12.49 9.75-21.3 8.39-2.49-.39-4.61 1.14-6.3 2.94-6.46 6.86-11.54 4.55-16.67-1.96-6.15-7.81-12.44-15.8-23.9-15.65 2.04-24.93 2.05-25.08-23.12-26.51-11.35-.65-22.75-.57-34.13-.81l-.12-32.35c16.05-.06 32.09-.18 48.14-.16 14.39.02 14.39.09 14.74-14.71 2.56-31.74 3.12-63.56 3.94-95.37 16.42 1.36 32.84 2.81 49.34 2.18 1.62 29.13 3.24 58.27 4.89 87.4.12 2.05.48 4.09.73 6.13-.82 15.87-.81 15.64 14.88 15.98 39.57.86 79.14.29 118.73 1.46 60.55 1.79 121.16.31 181.73 2.21 34.06 1.07 68.16.72 102.25 1.01z" class="st2"/><path d="M789 1028.34c-14.99 3.79-30.44 4.31-45.7 5.99-39.94 4.39-79.93 8.35-119.95 11.97-35.93 3.25-71.8 7.25-107.73 10.12-19.3 1.54-39.04-2.18-58.56-3.66-24.32-1.85-48.62-3.93-72.94-5.74-46.25-3.44-92.48-7.27-138.78-9.9-23-1.31-45.96-3.1-68.94-4.66-4.05-.27-8.34.84-11.98-1.95 62.6-6.14 125.19-12.37 187.8-18.37 26.01-2.49 52.06-4.51 78.09-6.75-.98 13.22-9.47 16.23-21.01 16.39-9.96.14-19.91 1.5-29.84 2.46-21.19 2.06-42.38 4.21-63.57 6.33 4.43 2.19 8.8 3.04 13.21 3.35 42.26 2.96 84.52 5.87 126.78 8.73 18.54 1.26 37.2 4.21 55.62 3.17 34.69-1.97 69.26-6.26 103.87-9.64 14.4-1.41 28.79-2.98 43.19-4.48-1.54-2.25-3.08-2.76-4.65-2.87-35.4-2.38-70.78-5.05-106.21-6.82-9-.45-14.33-2.95-15.38-12.2 53.72 3.99 107.44 8.04 161.17 11.94 31.83 2.31 63.68 4.4 95.51 6.59z" style="fill:#d8c8be"/><path d="M532.32 1009.8c1.05 9.25 6.37 11.75 15.38 12.2 35.43 1.77 70.81 4.44 106.21 6.82 1.57.11 3.1.61 4.65 2.87-14.4 1.5-28.78 3.07-43.19 4.48-34.61 3.39-69.17 7.67-103.87 9.64-18.42 1.05-37.07-1.91-55.62-3.17-42.26-2.86-84.52-5.76-126.78-8.73-4.41-.31-8.78-1.15-13.21-3.35 21.19-2.12 42.37-4.27 63.57-6.33 9.94-.97 19.89-2.32 29.84-2.46 11.54-.17 20.02-3.18 21.01-16.39 4.51-3.75 8.74-7.99 15.16-8.21 11.46-.15 17.74 7.84 23.9 15.65 5.13 6.5 10.21 8.81 16.67 1.96 1.7-1.8 3.81-3.32 6.3-2.94 8.8 1.36 14.86-3.91 21.3-8.39 7.22-.81 13.28 1.8 18.68 6.35z" class="st0"/><path d="M559.35 385.55c-10.38 21.54-30.99 31.82-48.13 25.78-17.93-6.32-30.15-23.85-26.48-39 8.78 12.05 18.01 22.94 33.42 25.5 14.8 2.45 27.73-2.56 41.19-12.28zM423.93 206.65c4.07 1.59 4.58 4.59 6.06 6.78 14.1 20.89 40.26 25.92 61.23 11.7 1.4-.95 2.84-2.67 4.44-1.49 2.2 1.63.83 3.67-.37 5.38-16.16 22.84-46.43 25.83-63.89 1.62-4.74-6.59-10.72-13.65-7.47-23.99zM513.73 493.92c-5.08 14.99-16.34 19.01-28.03 21.66-20.67 4.68-43.43-12.55-45-33.45-.12-1.66-1.04-3.55 1.35-4.22 1.53-.43 2.41.68 3.18 1.92 16.96 27.36 41.58 25.75 68.5 14.09zM531.66 340.91c-4.45 18.29-22.83 28.75-41.17 26.03-18.59-2.76-32.78-20.73-30.94-41.27 7.09 14.44 17.27 24.19 31.65 26.52 13.58 2.19 27.56 1.51 40.46-11.28zM651.08 316.77c6.93 9.93 15.03 18.85 27.96 21.83 11.93 2.75 23.21 2.5 33.9-4.05 1.96-1.2 4.21-3.62 6.31-1.07 1.85 2.25-.4 4.53-1.66 6.46-6.53 9.95-25.46 17.13-36.8 14.06-18.15-4.92-31.62-18.94-32.19-33.61-.06-1.34.04-2.79 2.48-3.62z" class="st26"/><path d="M335.09 605.7c21.03 28.68 44.47 32.24 73.3 13.53-5.42 17.94-26.06 29.65-45.63 25.01-14.95-3.55-30.57-17.99-27.67-38.54z" style="fill:#c8e7ff"/></g></svg>