<svg xmlns="http://www.w3.org/2000/svg" xml:space="preserve" style="enable-background:new 0 0 1920 1080" viewBox="0 0 1920 1080"><style>.st0{fill:#29a795}.st1{fill:#2bb1a1}.st2{fill:#30bfb4}.st3{fill:#427f7e}.st4{fill:#c8e7ff}.st5{fill:#deaaff}.st6{fill:#499194}.st7{fill:#ffcbf2}.st8{fill:#d0d1ff}.st9{fill:#84be46}.st10{fill:#2fbcad}.st11{fill:#f9a5a7}.st12{fill:#cfbc9b}.st13{fill:#fcfefe}.st14{fill:#a79886}.st15{fill:#ecf5d7}.st16{fill:#83fefc}.st17{fill:#81746a}.st18{fill:#c78286}.st19{fill:#706458}</style><g id="fond"><path d="M0 0h1920v1080H0z" class="st0"/><ellipse cx="867.5" cy="543.5" class="st1" rx="719.5" ry="562.5"/><ellipse cx="866" cy="534.5" class="st2" rx="668" ry="498.5"/></g><g id="monument"><path d="M479 846.89V201.13c7-.25 10.56-4.64 15.09-9.71 9.14-10.23 16.55-22.92 31.94-26.24 11.71-2.52 21.45-10.64 28.49-19.24 6.98-8.52 12.51-15.45 24.39-14.03 3.91.47 7.72-1.43 9.89-4.81 5.54-8.62 14.02-8.95 23.06-10.58 18.27-3.31 39.83 3.93 53.74-15.46 1.26-1.76 5.53-1.86 8.4-1.88 23.27-.13 46.37-4.24 69.71-2.76 7.89.5 15.12-1.04 20.4-7.92 3.79-4.94 7.88-4.79 13.11-1.06 11.09 7.92 15.07 6.99 21.22-5.63 3.87-7.95 7.33-6.67 14.8-4.25 17.25 5.59 35.41 8.17 52.06-2.7 5.57-3.64 9.76-3.97 14.55.81 5.58 5.57 12.22 6.51 18.21 1.2 6.08-5.4 10.33-3.37 16.66.18 13.03 7.32 25.69 21.7 42.55 6.48 1.51-1.36 4.91-1.05 7.38-.84 10.16.89 15.14-3.75 15.37-13.84 2.46-.15 4.93-.29 7.39-.43 3.09 5.19 7.69 7.62 13.68 7.65 4.81.03 9.62.89 12.33 5.2 5.51 8.78 14.73 12.09 23.51 13.61 14.38 2.48 28.87 6.73 42.82 7.91 21.6 1.82 41.83 9.81 63.37 10.53 10.94.37 21.78 1.28 28.77 12.33 2.45 3.87 8.2 4.05 12.91 3.95 8.81-.18 15.61 2.46 18.98 11.53 2.38 6.43 8.31 6.32 13.88 6.4 6.45.1 13.06.3 16.66 6.82 2.88 5.23 5.08 10.4 11.91 12.03 7.59 1.81 8.62-6.82 14.47-8.79 1.41 5.67 2.62 10.56 3.84 15.46l.01-.01c-3.6-.18-7.39-3.45-10.66.23-.76.86-.42 4.33.14 4.53 10.98 3.88 13.93 17.57 25.34 20.77.14 2.96.4 5.93.4 8.89.02 220.39.02 440.77 0 661.16 0 2.96-.26 5.93-.4 8.89-9.83 1.97-10.24 13.31-16.9 17.69-18.58 12.22-27.72 38.19-54.8 38.13-1.68 0-3.79 2.02-4.99 3.63-10.32 13.8-23.59 12.95-38.63 9.8-11.89-2.49-23.51 3.96-35.42 5.51-2.7.35-2.38 3.88-2.91 6.39-2.1 9.89-15.67 21.88-26.07 23.46-.13-1.68-.25-3.35-.38-5.03 1.37-12.05-8.16-10.96-15.27-12.77-2.78-1.01-5.72-1.7-8.3-3.08-6.95-3.69-17.64-5.73-17.5-14.59.14-9.13 10.98-10.13 18.2-13.15 4.33 6.72 11.18 9.37 17.16 4.81 9.27-7.07-3.03-6.08-4.5-9.34-.32-.71-.6-2.21-.48-2.25 6.89-2.65 6.37-13.85 16.01-13.55 12.74.39 22.4-5.92 30.37-15.35 14.38-4.8 26.59-11.94 30.34-28.25 11.17 7.84 22.98 6.71 35.06 2.66 5.16-1.73 5.7-5.79 5.38-10.22-.35-5.01-3.5-5.09-7.22-3.69-2.42.91-4.61.38-4.48-2.33.42-8.31-5.84-5.54-9.77-6.02-9.1-1.11-15.85 4.84-23.32 8.53-.18-4.5-.41-9-.54-13.5-.22-7.8-4.03-5.06-7.74-2.7-15.85-5.61-26.98-19.72-43.4-24.35-1.08-.31-1.9-1.57-2.84-2.39-2.7-6.83-5.76-12.96-14.67-7.43-9.88-5.15-18.77-11.59-25.98-20.21l-2.46-9.73c10.47-10.28 25.94-12.72 36.23-23.29 3.87-26.3 3.67-52.6.14-78.92l.24-5.01c6.76-1.22 14.63 2.48 20.06-4.59.54-.4 1.14-.63 1.81-.69 1.01-.84 2.01-1.68 3.02-2.52v.04c5.15-3.1 6.47-6.33.34-9.82-8.88-1.09-12.41-14.64-23.65-10.24l.32-.64-.12-212.23c5.92-4.38 11.95-8.58 19.15-10.64 5.69.94 13.19 3.9 16.43-1.09 3.57-5.5-5.76-7.52-7.53-12.3-.15-.4-.32-.78-.48-1.17-.05-9.11 1.95-18.31-1.22-27.28-18.43-12.65-39.43-21.04-57.27-34.68 6.86-15.23 8-33.24 23.27-44.41 5.54-4.05 3.76-12.13 1.75-17.69-1.31-3.62-4.32 1.96-6.96 2.17-5.71-3.58-11.43-7.16-17.14-10.74-1.79-10.15-3.71-20.29-3.46-30.68 9.18-26.79 8.46-30.58-10.38-41.97-6.16-3.72-12.5-6.87-17.18-12.56-1.15-1.39-3.01-4.04-4.98-1.8-7.91 8.95-21.11 10.76-27.88 21.12-9.77 4.74-9.49 11.85-4.68 20.03-5.05 7.08 3.13 8.2 5.36 12-5.74 7.48-.36 21.32-13.84 24.36-5.72-2.83-11.44-5.67-17.16-8.5l-2.91-2.1-.01.04c.96-8.52-3.37-9.55-10.09-7.18-13.61-4.27-22.83-15.95-36.41-20.94-11.5-4.22-21.92-12.09-32.22-18.77-14.47-9.38-24.45-4.52-35.47 3.85-11.64-7.19-15.21.06-17.4 9.79-3.66 3.89-8.65 4.56-13.48 5.63-9.99-2.09-16.43.88-17.05 12.1-4.59 1.94-9.17 3.88-13.76 5.82-12.22-3.34-16.64 4.16-19.36 14.02-4.45 1.07-8.68 2.53-11.6 6.38-18.03-.86-9.71-14.64-11.42-23.5.62-.1 1.21-.3 1.76-.61 6.16.66 12.18.46 17.38-3.08-4.53-2.1-9.24-4.28-13.94-6.47-.54-1.54-1.93-3.42-1.49-4.57 4.4-11.26-2.59-17.64-10.3-22.85-7.78-5.27-17.58-14.23-24.47-12.65-12.23 2.8-26.33 7.46-32.52 21.57-4.66 4.7-2.27 10.41-2.23 15.78-3.43 4.41-1.05 6.6 3.08 8.11 2.71 33.08 1.08 66.2.79 99.31-1.86 3.23-1.86 6.46-.01 9.69l.03 8.16c-2.6 5.53-1.71 11.38-1.61 17.17-2.5 4.24-4.99 8.48-7.49 12.72-5.02 3.09-9.06 8-15.53 8.36-1.15-.39-2.3-.77-3.44-1.16-.52-.47-1.08-.51-1.69-.13-2.16 7.47-1.74 15.15-1.75 22.79-.02 26.75.03 53.51.05 80.26-.02 1.76-.03 3.51-.05 5.27l-3.37 4.6c-4.51 3.92-11.73 5.84-10.01 14.25 1.38 6.74 6.96 7.71 12.13 9.34-.31 13.46 2.85 27.1-2.1 40.32-9.04.19-19.5.19-19.89 12.13-.39 12.05 10.4 10.88 18.61 11.72.41.04.82.2 1.23.3.63.55 1.25 1.1 1.88 1.64 3.97 11.29 1.65 22.65.4 34-.62 1.23-1.24 2.46-1.87 3.68l-.15 18.89 2.04 2.01 1.02 7.68-.09 2.75c.15 27.94.46 55.89.35 83.83-.04 9.56 3.82 15.56 12.23 20.19 8.74 4.81 18.17 8.78 25.49 15.97-5.6 4.88-13.56 7.96-13.14 17.41-4.51 1.98-9.02 3.95-13.53 5.93-10.21-2.31-15.98 1.69-17.17 12.19-17.85 5.58-31.45 19.13-48.55 26.11-5.87-3.3-7.06.36-7.41 5.09-.35 4.85-.58 9.7-.86 14.56-14.03 6.72 1.75 12.03.84 18.14-3.07 12.28 7.47 9.79 13.33 12.37 3.16.69 5.5 2.51 7.17 5.25 1.24 11.66 10.11 10.07 17.88 10.4 4.17 1.75 8.35 3.49 12.52 5.24-.01.84 0 1.68.01 2.52-.97 15.76 7.66 10.86 15.66 7.34 6.58 1.17 12.04 3.99 15.11 10.33l-2.79 5.34c-3.05 2.29-6.62 2.49-10.22 2.51-1.6-3.79-4.2-5.1-7.98-3.07-1.56.84-2.86 2.39-1.95 4.05 2.13 3.87 6.23 3.68 9.93 4.14 4.23.03 8.46.07 12.69.1 1.72 3.4 3.44 6.79 5.16 10.19-.01.88-.01 1.76-.02 2.64-2.85 2.72-5.95 4.93-10.08 5.12-6.38-3.8-10.21-1.02-12.79 4.99l-2.56 2.53h-2.56l-.08-.03c-3.38-3.15-6.94-6.11-10.1-9.47-11.14-11.85-11.09-11.9-22.58-.53-3.43 1.68-6.87 3.36-10.3 5.04 3.01-8.88 7.34-18.25-7.52-20.53-.45-.13-.91-.23-1.37-.31-.41-1.75-.82-3.5-1.23-5.24.73-.65 1.45-1.3 2.18-1.95.48-9.71-3.59-10.05-10.27-5.03-1.54-.74-3.08-1.47-4.62-2.21-7.93-13.72-20.06-19.19-35.5-18.59-4.57.18-9.71.24-11.71-5.25-2.09-5.74 2.29-8.1 6.07-10.98 2.22-1.69 3.55-4.56 5.28-6.9 4.14-7.46 3.36-12.24-6.53-11.81-1.54.07-4.19 1.7-4.36-.18-1.42-15.67-13.13-5.26-19.56-8.01-7.09-1.45-18.69 8.63-20.09-7.88-.05-.58-2.96-1.39-4.48-1.28-5.48.39-8.93-2.18-10.51-7.12-2.19-6.87-7.63-6.86-13.21-6.83zm723.7-160.98c1.97 2.57 3.94 5.14 5.92 7.71 8.94 7.45 21.6 7.43 30.5-.04 2.73-3.44 8.21-5.94 6.73-11.03-1.48-5.08-6.21-2.12-9.72-1.92-2.31.13-4.12-.9-3.79-3.68.84-6.92-4.23-5.88-8.21-6.13-10.12-.62-18.15 2.34-21.5 13.04-.43.7-.41 1.38.07 2.05zm-34.98-214.4c-3.4-5.04-6.97-9.79-14.17-8.31-6.28.34-12.62.25-18.82 1.14-8.02 1.15-13.05 9.89-8.82 15.85 7.45 10.5 19 7.2 29.03 6.31 7.84-.69 14.51-4.87 12.78-14.99zm16.04 102.12c-.95-9.67-6.12-13.15-15.41-10.59-7.43.78-15.03-.45-22.19 3.25-6.96 3.59-8.24 9.04-3.92 14.34 4.44 5.46 10.73 10.5 18.62 7.82 8.71-2.96 21.62-.08 22.9-14.82zm-14.66 55.32c11.17 5.5 19.36 6.14 24.98 12.55 2.61 2.98 8.72.46 8.06-1.94-2.59-9.38 4.77-8.59 9.3-11.18 6.7-3.83 2.69-11.01 3.55-16.35.61-3.81-5.04-.76-8.06-.41-4.87.56-9.27 1.13-12.19-5.4-3.93-8.79-11.56-2.12-16.57-.88-5.06 1.25-2.64 7.14-.24 10.59 4.77 6.84 5.58 11.9-8.83 13.02zm23.76 182.06c7.53.67 14.04-.18 19.48-5.04 3.11-2.77 5.1-6.15 2.76-10-5.28-8.71-19.67-12.19-31.03-8.34-5.45 1.85-11.72 4.1-10.41 10.43 1.31 6.3 5.48 12.39 13.52 12.94 2.1.13 4.21.01 5.68.01zm52.43-12.62c4.12.56 8.39-1.1 12.78-2.66 7.61-2.71 9.12-10.45 4.98-13.75-4.55-3.63-9.37-9.02-16.72-9.32-10.05-.4-23.77 5.83-24.37 12.01-.64 6.54 11.45 13.85 23.33 13.72zm-1.64 17.84c-9.57-.16-19.18.98-19.38 11.85-.19 10.7 9.94 12.09 18.33 13.61 8.13 1.48 14.73-2.51 21.24-6.45 3.47-2.1 3.64-8.43 2.36-8.46-9.48-.17-12.36-14.47-22.55-10.55zM614.76 650.52c3.84-.52 8.77.45 13.35-3.05 13.86-10.62 1.53-13.44-4.83-18.96-9.09-7.89-17.31-2.5-25.39.97-3.09 1.33-9.05 3.78-5.96 9.24 4.35 7.68 10.83 12.87 20.51 11.81.42-.05.85-.01 2.32-.01zm-49-25.48c6.45-1.76 13.54-2.94 19.97-5.68 5.18-2.21 8.16-8.29 2.1-11.32-4.93-2.46-8.75-6.02-13.31-8.69-9.16-5.35-15.74 1.43-22.84 5.07-3.74 1.92-5.39 6-3.51 9.74 3.42 6.8 9.7 9.87 17.59 10.88zm579.18-199.81-.96-2.13c-.39.64-1.06 1.27-1.09 1.93-.04.69.54 1.41.84 2.11.39-.63.79-1.26 1.21-1.91z" class="st2"/><path d="M668.68.17h427.08c2.72 10.39 11.41 11.36 19.85 12.58 4.57.66 10.31-.61 13.6 1.72 20.67 14.59 46.48 14.44 69.01 25.95 26.21 13.39 53.52 25.63 80.13 38.85-.01 17.86-.01 35.72-.02 53.58-11.09 2.01-14.64-10.19-23.66-12.53-15-3.89-29.78-8.65-44.65-13.04 1.74-3.35 4.18-6 7.67-7.58 2.4-3.28 3.68-6.52-.36-9.55l-7.29 1.14c-.11-3.32-1.44-5.8-4.72-6.95-8.06-4.11-16.17-2.88-24.3-.21-15.75-12.92-32.37-22.93-54.14-18.27-2.97.63-6.55-.97-9.7-2.01-21.38-7.04-41.46-18.93-65.47-15.93-5.53.69-11.86-1.41-17.21-3.68-8.06-3.41-15.16-2.08-23.26.14-8.27 2.27-14.97 4.44-17.06 13.85-.31 1.41-3.35 2.21-5.12 3.29-.62-.07-1.25-.14-1.88-.19l.3-5.38c.44-.78.89-1.56 1.34-2.34 1.67-4.55 5.29-9.94-.59-13.21-4.54-2.52-7.05 2.65-9.6 5.79-.76.04-1.52.11-2.27.21l-20.35-.81c1.22-4.82 7.45-3.28 9.93-8.19-2.74-.53-5.33-1.89-7.32-1.29-20.91 6.36-42.92-4.49-63.77 4.28-3.5 1.47-8.88 1.08-12.38-.59-9.69-4.62-19.81-3.23-29.84-4.06-11.77-.98-22.34 6.01-33.65 4.98-22.82-2.08-45.35-3.29-67.45 4.62-2.54.91-5.84-.62-8.74-.38-15.21 1.25-30.18 7.48-45.71 2.05-.62-.22-1.63.39-2.36.79-26.91 14.69-56.97 16.8-86.29 21.93-9 1.57-18.82 1.93-22.24 13.45-1.11 3.74-5.37 3.54-8.74 3.81 2.68-10.27 4.54-20.39-5.35-28.26-.74-2.51-2.22-4.36-4.66-5.38-2.74-3.53-6.71-4.61-10.78-5.49.41-5.96 4.17-8.73 9.42-10.39 23.08-7.33 46.27-14.34 69.12-22.34 11.5-4.01 25.4-3.1 33.48-14.96z" class="st1"/><path d="M577.45 87.01c3.38-.28 7.63-.07 8.74-3.81 3.42-11.52 13.24-11.88 22.24-13.45 29.32-5.12 59.38-7.24 86.29-21.93.73-.4 1.74-1.01 2.36-.79 15.53 5.44 30.5-.79 45.71-2.05 2.9-.24 6.2 1.29 8.74.38 22.11-7.91 44.63-6.7 67.45-4.62 11.31 1.03 21.88-5.96 33.65-4.98 10.03.84 20.15-.56 29.84 4.06 3.5 1.67 8.88 2.06 12.38.59 20.85-8.78 42.86 2.08 63.77-4.28 1.99-.61 4.58.76 7.32 1.29-2.48 4.91-8.71 3.37-9.93 8.19-3.71 4.99-14.87 4.01-10.98 15.24 3.9 11.24 11.58 12.82 21.54 10.72 4.09-.86 8.17-1.82 12.25-2.73l.2.7c-.23 10.09-5.21 14.74-15.37 13.84-2.46-.22-5.87-.53-7.38.84-16.86 15.22-29.52.84-42.55-6.48-6.33-3.56-10.58-5.58-16.66-.18-5.99 5.32-12.63 4.38-18.21-1.2-4.79-4.78-8.97-4.45-14.55-.81-16.65 10.88-34.82 8.29-52.06 2.7-7.47-2.42-10.92-3.7-14.8 4.25-6.15 12.62-10.12 13.55-21.22 5.63-5.22-3.73-9.31-3.88-13.11 1.06-5.28 6.88-12.52 8.42-20.4 7.92-23.34-1.48-46.44 2.63-69.71 2.76-2.87.02-7.14.11-8.4 1.88-13.92 19.39-35.47 12.15-53.74 15.46-9.04 1.64-17.51 1.97-23.06 10.58-2.18 3.39-5.98 5.28-9.89 4.81-11.88-1.42-17.41 5.51-24.39 14.03-7.04 8.6-16.78 16.71-28.49 19.24-15.39 3.32-22.8 16.01-31.94 26.24-4.53 5.07-8.1 9.46-15.09 9.71V132.9c8.31.45 15.96-1.3 21.62-7.83 8.88-10.23 21.2-14.55 32.93-19.88 3.64-1.65 8.98-1.55 6.46-8.05-.01-1.69-.01-3.37-.02-5.06 3.29-2.93 6.57-5.86 9.86-8.79 5.18 3.16 6.44-3.24 9.97-4.12 5.83-1.48 11.6-1.17 17.31.63-2.15 4.98-4.3 9.95-6.46 14.93-2.89.44-5.87.75-6.95 4.33 3.45.14 5.28-1.95 6.82-4.48 2.65-2.52 5.28-5.05 7.91-7.57z" class="st2"/><path d="M1098.31 1079.84H658.52c.74-4.3 1.48-8.61 2.23-12.91l10.61-2.04c3.99 6.59 8.02 6.19 12.08.07.33-5.73-3.13-8.11-8.05-9.33-4.81-1.19-9.58-2.53-14.37-3.81-5.08-3.13-7.11-8.77-10.66-13.15-3.5-4.32.41-4.42 3.05-5.19 3.63.46 6.92-.58 10.07-2.28 1.71.05 3.41.11 5.12.16 9.37 6.56 18.74 5.15 28.09-.04 4.21-.81 8.42-1.63 12.63-2.44 5.24 5.42 11.27 4.69 17.52 2.26 6.83.34 13.55.48 19.29-4.37 2.49-2.1 5.81-2.37 8.33-.5 7.59 5.61 17.04 4.6 25.31 7.69 4.37 13.09 13.27 17.94 28.56 14.78 9.94-2.05 17.65-6.47 14.28-18.95 13.76 7.32 28.54 3.59 42.89 3.65 6.42.03 4.68-5.44 4.01-9.51.84-.06 1.67-.16 2.5-.3 2.54.9 5.08 1.8 7.63 2.7 3.1.8 5.57-.45 7.8-2.45.86.12 1.71.24 2.57.37-1.45 5.74-2.51 11.2 6.51 6.95 3.14-1.48 6.68-3.14 9.69-1.73 13.76 6.44 28.24 3.75 42.17 2.71 15.98-1.19 30.05-10.23 45.14-15.3.07-.02-.1-.76-.21-1.56-5.33-2.39-12.61 4.08-17.1-3.12 6.04-1 12.24-1.43 18.07-3.14 7.27-2.13 10.13-6.81 5.14-13.95 3.94-5.25 5.93-1.4 6.58 1.98.87 4.52.54 9.28.73 13.93-1.92 1.37-5.29 2.58-5.46 4.15-.33 3 2.9 3.31 5.4 3.35 2.48.04 4.97-.07 7.45-.12 12.8 4.93 25.29 4.08 37.87-1.24 4.66-1.97 10.57-2.4 14.65.69 7.94 6.01 14.87 6.29 22.64-.06 1.96-1.6 5.61-1.09 8.49-1.56l.57-.18.21 43.33c-.01 6.81-13 13.49-.24 20.46zm-401.43-22.59c2.41 1.13 4.21 2.18 6.14 2.83 5.12 1.71 10.02 1.39 14.03-2.63.58-.58.57-2.81-.01-3.33-3.92-3.52-8.72-2.21-13.25-1.88-2.48.19-5.04.75-6.91 5.01zm21.06 11.82c7.98 3.78 13.04 4.77 19.04-.92-6.62-1.7-11.56-2.03-19.04.92z" class="st3"/><path d="M653.41 1033.47c-2.64.77-6.55.87-3.05 5.19 3.55 4.38 5.58 10.02 10.66 13.15.25 5.05-3.57 10.01-.28 15.12-.74 4.3-1.48 8.61-2.23 12.91h-5.08c-1.67-1.74-3.35-3.47-5.02-5.21-4.74-7.18-12.78-7.51-19.31-6.45-9.02 1.47-16.49-.43-24.33-4.09-25.25-11.78-50.69-23.02-78.06-29.23-5.21-1.18-10.45-3.85-14.78-7.05-10.59-7.82-22.92-12.43-33.91-19.45v-63.81c3.43.24 6.75.94 9.33 3.39 14.31 13.6 34.8 16.13 50.02 28.16 4.37 3.46 10.47 2.88 15.5 4.55 18.82 6.24 38.93 1.09 57.6 7.42-.76 3.54-7.26 2.66-6.14 6.81 1.29 4.81 6.23 3.39 9.69 3.24 7.25-.32 13.75-.03 17.82 7.54 1.47 2.74 4.88 2.98 7.86 1.58 3.16-1.49 4.56-4.59 3.04-7.29-3.8-6.74.26-7.02 5-6.8 3.17.15 5.58-1.32 8.06-2.86 1.81.89 3.62 1.79 5.43 2.68.04 1.66.07 3.32.11 4.99l1.98 7.72-.15 22.89c-3.89.35-7.81.64-9.76 4.9z" class="st1"/><path d="M610.47 988.08c-18.67-6.33-38.78-1.18-57.6-7.42-5.03-1.67-11.12-1.09-15.5-4.55-15.23-12.04-35.71-14.56-50.02-28.16-2.58-2.45-5.9-3.15-9.33-3.39v-96.99c5.58-.02 11.02-.04 13.22 6.85 1.58 4.94 5.03 7.51 10.51 7.12 1.52-.11 4.43.7 4.48 1.28 1.4 16.51 12.99 6.42 20.09 7.88-4.02 4.63-13.64 6.13-9.87 15.17 3.26 7.81 10.18 9.98 18.58 10.46 8.18.47 14.54-3.7 21.74-5.62-1.73 2.34-3.06 5.2-5.28 6.9-3.78 2.89-8.16 5.25-6.07 10.98 2 5.48 7.14 5.42 11.71 5.25 15.44-.6 27.58 4.87 35.5 18.58-.06.81-.12 1.62-.17 2.43-6.65-.45-13.16-1.19-19.8 1.35-5.49 2.1-10.41 4.3-10.3 10.84.11 6.32 5.04 9.65 10.25 11.49 8.21 2.9 16.47 1.4 24.51-1.43 1.82-.84 3.65-1.69 5.47-2.53l-.2.22 2.59-3.61c0-.59.19-1.11.58-1.56l2.39-2.45c14.86 2.28 10.53 11.65 7.52 20.53.06 2.46.12 4.93.19 7.39-1.38 4.47 8.67 13.54-5.19 12.99z" class="st2"/><path d="M668.68.17c-8.08 11.86-21.99 10.95-33.49 14.98-22.85 8-46.04 15.01-69.12 22.34-5.25 1.67-9.01 4.43-9.42 10.4-10.75-.1-20.81 1.56-27.84 10.97-15.45 3.18-31.2 5.61-41.71 19.56-2.11 2.8-5.71 3.19-9.09 3.43 0-24.67.25-49.35-.17-74.02-.11-6.4 1.44-7.86 7.8-7.83 61.02.28 122.03.17 183.04.17zM1278.37 79.27c-26.61-13.22-53.92-25.46-80.13-38.85-22.53-11.51-48.34-11.37-69.01-25.95-3.3-2.33-9.03-1.06-13.6-1.72-8.44-1.22-17.13-2.19-19.85-12.58h183.04c-.16 26.37-.31 52.73-.45 79.1zM1098.31 1079.84c-12.76-6.97.23-13.65.23-20.47 11.98 8.22 26.87-1.25 39.08 6.41 1.2.75 4.07-.74 5.97-1.62 15.82-7.31 33.06-10.65 49-17.28 13.11-5.45 27.44-9.31 39.16-16.01 15.33-8.76 31.02-16.81 46.62-25.03.14 24.67.29 49.34.43 74.01h-162.7c-3.39-2.9-6.78-3.14-10.17 0-2.54-.01-5.08-.01-7.62-.01zM478.02 1008.37c10.99 7.02 23.31 11.63 33.91 19.45 4.33 3.2 9.57 5.86 14.78 7.05 27.37 6.21 52.81 17.45 78.06 29.23 7.84 3.66 15.31 5.55 24.33 4.09 6.53-1.06 14.57-.73 19.31 6.45-4.08.42-8.28.57-10.23 5.2-50.14 0-100.29-.15-150.43.16-7.32.04-10.32-.85-9.99-9.45.81-20.7.26-41.45.26-62.18z" class="st0"/><path d="M478.02 81.84c3.38-.24 6.98-.63 9.09-3.43 10.51-13.95 26.26-16.38 41.71-19.56-.88 4.57-2.34 9.11-2.51 13.71-.39 10.44.01 20.82 12.72 24.57 2.52 6.49-2.82 6.39-6.46 8.05-11.73 5.34-24.06 9.65-32.93 19.88-5.67 6.53-13.31 8.28-21.62 7.83V81.84z" class="st1"/><path d="M638.18 1079.84c1.95-4.63 6.16-4.79 10.23-5.2l5.02 5.2h-15.25z" class="st3"/><path d="M1105.93 1079.84c3.39-3.14 6.78-2.9 10.17 0h-10.17z" class="st2"/><path d="M1087.87 283.85c2.64-.21 5.65-5.79 6.96-2.17 2.01 5.56 3.79 13.64-1.75 17.69-15.28 11.17-16.42 29.18-23.27 44.42-2.86 12.32-7.04 25.63 2.59 36.01 13.22 14.26 25.75 15.17 42.8 5.96 4.08-2.2 7.92-4.85 11.87-7.29 3.17 8.97 1.18 18.17 1.22 27.28-8.27 1.67-11.69 6.17-8.43 14.56-7.2 2.07-13.22 6.27-19.15 10.65-3.27 3.52-2.52 7.92-2.52 12.09-.04 62.79-.07 125.59.04 188.38.01 3.98-1.61 8.6 2.6 11.76l-.32.64c-3.75 7.44-2.05 15.26-1.62 22.99l.03 4.84-.24 5.01c-.05 26.31-.1 52.61-.14 78.92-10.29 10.57-25.76 13.01-36.22 23.29-4.66.05-8.14 1.89-9.72 6.55-10.62 3.17-19.97 8.4-27.22 16.99-7.47.62-13.67 3.75-18.51 9.54l.05.01c-3.15 1.08-6.61 1.64-9.39 3.34-18.3 11.23-37.37 21.12-55.77 32.07-10.69 6.36-22.84 11.07-31.5 20.74l.05-.01c-5.24 1.1-9.73 3.49-13.17 7.69l-9.93 4.74c-1.85.99-3.7 1.97-5.55 2.95-.66-.5-1.24-1.09-1.72-1.77l-.15-34.32c2.85-3.29 8.63-2.34 10.39-7.22l-.21.06c10.09-2.09 18.49-7.21 25.71-14.45l1.06-.62c10.93-3.94 20.9-9.48 29.33-17.61l.35-.55c7.25-1.59 13.77-4.51 18.77-10.26.45-.31.92-.58 1.42-.81 6.13-1.43 11.73-3.81 15.75-8.98 12.21-9.33 27.16-14.63 38-25.98 14.8-3.69 16.02-14.56 14.36-27.09-.38-2.88-.12-5.85-.16-8.77 5.47-3.2 10.64-7.17 16.47-9.45 16.49-6.43 21.24-18.47 19.23-35.18-1.42-11.76-5.34-14.32-15.33-7.29-21.54 15.14-45.17 26.5-68.14 39.07-12.07-5.06-25.2-7.7-35.94-15.81 2.89-2.99 5.48-6.37 8.72-8.89 18.89-14.66 29.57-34.7 37.43-56.66 7.8-.95 13.62 3.48 19.86 7.11 11.08 6.45 14.53 4.84 17.05-8.01 2.37-12.09 3.02-24.34 3.52-36.68.48-11.72-3.58-18.8-13.82-24.42-23.74-13.02-46.89-27.11-70.38-40.6-5.39-3.1-9.94-6.29-9.9-13.42.1-17.84.05-35.68-.05-53.51-.04-7.31 3.74-7.98 9.92-7.16 7.44.99 12.66 6.91 19.93 7.9-.23 3.26-.45 6.53-.68 9.79-9.77 5.17-5.2 16.19-9.52 23.68-2.62 4.54-8.08 10.36-4.3 14.81 4.44 5.21 10.68-1.38 16.28-1.86.41-.03.81-.22 1.22-.33 9.37 4.25 18.75 8.5 28.12 12.74 16.33 12.69 35.56 20.6 52.6 32.15 6.53 4.43 10.28 2.24 10.02-5.81-.26-8.02-.71-16.04-1.08-24.06 4.07-17.44 1.09-35.13 1.73-52.7.22-6.08 3.15-14.64-2.26-17.82-6.33-3.73-13.18 2.34-19.31 5.71-.35.2-.61.57-.92.86-9.4 1.32-18.81 2.63-28.21 3.95 1.22-11.46-2.11-22.56-2.59-33.89 11.4-2.53 23.33-3.15 33.87-8.81 4.44-2.39 13.69-2.18 12.04-8.14-1.78-6.47-10.07-9.53-17.49-9.99-2.82-.18-5.77.96-8.58 1.78-9.24 2.7-18.44 5.54-27.65 8.33-3.75-15.46-1.78-31.19-1.99-46.8-.3-22.85-.03-22.86 20.49-12.88.38.18.74.4 1.1.63 5.48 3.43 9.08 2.36 8.9-4.55-.7-26.17 2.25-52.42-1.56-78.52-.01-1.6-.01-3.21-.02-4.81.86-3.44 1.72-6.88 2.58-10.31 1.51.11 3.01.23 4.52.34.15 8.9-4.67 18.74 4.82 25.88.64 17.37 1.42 18.17 13.92 14.15.58 2.19 1.17 4.39 2.07 7.77 1.65-4.05 2.82-6.91 3.99-9.76 15.01 6.78 17.06 5.9 22.63-9.8zm-2.04 189.3c0-2.25.25-3.57-.05-4.75-.9-3.62 2.52-10.19-3.28-10.28-6.29-.1-4.35 6.7-4.83 10.99-.09.83-.19 1.72.02 2.5 1.38 5.18-3.35 14.71 3.91 14.86 8.08.17 2.12-9.49 4.23-13.32zm-45.22-163.33c4.94-1.21 8.1-1.45 8.2-5.75-3.1.16-5.52 1.36-8.2 5.75z" class="st4"/><path d="M879.8 847.4c.05 11.44.1 22.88.14 34.32-.53.15-1.06.23-1.61.23-2.77-.53-5.55-1.05-8.32-1.58-2.7-1.61-5.4-3.21-8.1-4.82-.93-2.63-2.75-4.15-5.53-4.48-.81-.06-1.6-.21-2.37-.45-9.37-8.68-19.63-15.72-32.58-17.77l-.44-.34c-17.13-17.23-38.93-26.37-60.79-35.42-1.73-.91-3.47-1.81-5.2-2.72-4.58-5.79-11.33-7.72-17.83-10.08-10.17-7.99-20.24-16.14-32.8-20.21-1.52-.94-3.03-1.88-4.55-2.81-7.32-7.19-16.75-11.15-25.49-15.97-8.41-4.63-12.27-10.63-12.23-20.19.11-27.94-.21-55.89-.36-83.83l.09-2.76-1.02-7.68c-.68-.67-1.36-1.34-2.04-2.02l.15-18.88c1.26-.9 2.94-1.6 1.87-3.7 1.25-11.35 3.57-22.71-.4-34l.7-.93-.62-1.03c.19-8.01 2.38-16.19-1.91-23.84 4.95-13.22 1.79-26.86 2.1-40.32-.16-7.91 2.17-16.05-2.12-23.59 1.12-1.53 2.25-3.07 3.36-4.59 1.13-1.74 1.12-3.5.05-5.27-.02-26.75-.07-53.51-.05-80.26.01-7.63-.41-15.31 1.75-22.78 0 .01.83.23.83.23l.86-.11c1.15.39 2.3.77 3.44 1.16 2.69 7.11 5.09 14.69 14.68 14.61 3.58-.03 6.68-1.97 7.4-5.78 1.31-6.96 1.36-13.66-6.55-17.19 2.5-4.24 4.99-8.48 7.48-12.72 3.68-5.42 1.94-11.36 1.61-17.17l-.03-8.16c0-3.23.01-6.46.01-9.69.29-33.11 1.92-66.23-.78-99.31 5.61 1.56 11.21 3.13 16.81 4.69l-.08-.15c2.36 7.43 11.04 7.58 15.01 13.15.05 16.75.34 33.51.06 50.26-.14 8.51 1.97 15.67 8.7 21.12 4.45 11.17 13.28 9.22 22.06 7.4-.04 29.87-.07 59.74-.11 89.61-6.49 6.94-15.09 13.61-23.53 12.82-10.24-.96-9.22 3.72-9.24 9.7-.06 15.2-.4 30.41.12 45.59.53 15.52-2.38 31.19 1.94 46.55-.42 8.35-1.18 16.7-1.11 25.05.03 4.24 1.13 9.1 7.49 5.26 5.76 4.13 13.07 6.21 16.89 12.9l-.17.2c-1.57-.18-3.14-.35-4.71-.52-.88-.45-1.75-1.7-2.64-.15-.08.14 1.03.96 1.59 1.46 2.97 2.91 5.94 5.82 8.9 8.73-.33.39-.66.78-.99 1.18l-2.84.6c-3.53-1.35-7.18-2.47-10.58-4.09-16.71-7.98-28.55-5.24-41.93 9.88-.08 5.89.33 11.84-.36 17.65-1.27 10.71 2.26 18.19 11.54 24.16 5.82 3.75 13.33 5.7 16.87 12.65.01 30.37.02 60.75.01 91.12 0 6.42-.4 13.01 7.61 15.45 1.7 1.08 3.4 2.15 5.1 3.23 6.77 9.84 17.97 12.54 27.82 17.43.39.45.87.7 1.46.76 8.47 7.77 18.35 13.09 29.1 16.9 1.11.5 2.21.99 3.32 1.49 3.86 4.53 8.72 7.41 14.47 8.8 1.02.92 2.04 1.85 3.06 2.77.62.66 1.25 1.31 1.87 1.97 5.17 2.11 10.35 4.21 15.52 6.32 8.68 8.27 18.54 14.54 30.18 17.74l-.17-.25c1.02 2.32 2.9 3.02 5.27 2.79l-.42-.07c2.95 5.3 8.24 7.37 13.31 9.75zM704.08 672.95c1.87 4.01-3.49 13.4 4.6 13.48 5.95.05 2.67-8.99 3.52-13.97.21-1.22.12-2.52-.02-3.76-.44-3.96 1-10.28-4.18-10.41-6.01-.15-3.04 6.35-3.88 9.97-.27 1.19-.04 2.5-.04 4.69zm2.13-308.07c-2.66 11.25-2.24 19.81-1.18 28.35.16 1.28 1.78 3.01 3.06 3.37 1.63.47 3.33-.96 3.41-2.78.4-8.91 3.4-18.21-5.29-28.94z" class="st5"/><path d="M704.37 784.07c12.56 4.07 22.63 12.23 32.8 20.21.16.77.16 1.55 0 2.32-23.81 5.64-41.81 22.44-62.95 33.21-3.5 1.78-8.81 3.4-8.51 8.24.28 4.67 5.66 5.62 9.19 7.63 1.76 1 3.94 1.27 5.93 1.87 5.07 3.17 8.31 9.1 14.91 9.94 17.48 13.69 37.8 22.58 56.68 33.92 1 2.21 3.06 2.19 5.02 2.37 37.87 22.19 75.74 44.36 113.59 66.59 6.06 3.56 11.87 3.26 17.76-.33 10.28-6.25 20.49-12.64 30.95-18.58 28.52-16.19 57.42-31.73 84.55-50.28 2.03-.16 4.24.04 5.14-2.48 4.34-.31 7.42-3.4 11.14-5.01 16.69-7.23 30.43-19.8 47.56-26.17 9.1 5.42 18.21 10.85 27.31 16.27-49.12 28.79-97.86 58.27-147.63 85.89-13.16 7.3-24.7 22-43.26 16.32-2.02-.62-3.87 1.88-4.16 4.04-1.85 13.41-10.6 13.24-20.6 10.78-10.73 2.08-20.95 4.05-24.4-11.21-.68-3.03-6.1-7.94-11.27-5.66-11.09 4.88-14.97-2.19-18.6-10.25-2.5-5.56-6.89-9.62-12.76-7.94-10.71 3.06-15.73-2.24-19.47-10.82-2.26-5.18-6-8.88-11.82-7.15-13.04 3.89-15.34-7.44-22.16-13.58-6.88-6.19-20.32-.78-26.35-11.44-.81-1.43-.9-3.25-1.56-4.79-2.12-4.99-6.47-7.33-11.18-5.86-11.55 3.6-16.48-2.36-20.67-11.8-1.83-4.13-5.58-9.61-11.31-7.46-10.31 3.86-15.66-1.52-19.45-9.4-2.31-4.8-5.44-8.59-10.29-7.3-10.84 2.88-15.17-3.73-19.83-11.25-3.06-4.94-6.7-9.35-13.97-7.83-10.84 2.26-15.98-2.21-17.25-14.14 17.1-6.98 30.71-20.53 48.55-26.11 9.57 1.39 14.94-3.17 17.17-12.19 4.51-1.98 9.02-3.95 13.53-5.93 11.76 2.29 15.14-5.65 17.67-14.64z" class="st4"/><path d="m1278.43 170.78-.06 28.47c-11.41-3.21-14.36-16.89-25.34-20.77-.56-.2-.91-3.66-.14-4.53 3.27-3.68 7.06-.41 10.66-.23.81.8.18 3.55 2.71 2.02-.91-.67-1.81-1.34-2.72-2.01-1.22-4.9-2.43-9.79-3.84-15.46-5.85 1.97-6.88 10.6-14.47 8.79-6.83-1.63-9.02-6.8-11.91-12.03-3.6-6.53-10.21-6.73-16.66-6.82-5.58-.08-11.5.02-13.88-6.4-3.36-9.08-10.17-11.71-18.98-11.53-4.72.1-10.47-.08-12.91-3.95-6.99-11.05-17.82-11.96-28.77-12.33-21.55-.72-41.78-8.71-63.37-10.53-13.95-1.18-28.44-5.43-42.82-7.91-8.78-1.52-17.99-4.82-23.51-13.61-2.71-4.32-7.53-5.18-12.33-5.2-5.99-.03-10.58-2.46-13.68-7.65-.06-1.8-.13-3.6-.19-5.41l-.01.25c.95-.81 1.9-1.61 2.85-2.42 1.78-1.08 4.81-1.88 5.12-3.3 2.09-9.42 8.79-11.59 17.06-13.85 8.09-2.22 15.2-3.55 23.26-.14 5.35 2.27 11.68 4.37 17.21 3.68 24.01-3 44.09 8.89 65.47 15.93 3.15 1.04 6.74 2.64 9.7 2.01 21.76-4.66 38.39 5.35 54.14 18.27-10.29 12.55-7.77 19.35 8.78 23.7 6.96 6.54 13.9 12.49 20.29-.59l-.07.05c14.87 4.39 29.65 9.15 44.65 13.04 9.02 2.34 12.58 14.54 23.66 12.53.53 5.17 1.56 10.41-2.15 14.96-6.12 2.03-12.57 5.47-11.98 12.17.64 6.95 6.53 11.07 14.23 10.8z" class="st2"/><path d="m663.16 1028.57.15-22.88c-.66-2.57-1.32-5.15-1.98-7.73-.04-1.66-.07-3.32-.11-4.99l-.6-5.04c2.52-6.6 5.91-12.65 10.95-17.68 1.62-1.7 3.24-3.39 4.86-5.09 4.12-.19 7.23-2.41 10.08-5.12l5.31-2.55c.74-.06 1.47-.19 2.18-.39 6.86-1.25 8.8-6.75 10.62-12.36 1.07-3.3-.66-5.11-3.57-5.08-7.06.08-12.85-3.91-19.37-5.52-3.08-6.34-8.54-9.16-15.12-10.33-1.56-3.16-4.13-4.82-7.6-5.12-1.71-3.26-4.52-4.63-8.06-4.73-4.17-1.75-8.35-3.49-12.52-5.24-4.54-5.92-11.13-8.3-17.88-10.4-1.67-2.74-4.01-4.57-7.18-5.25-2.46-6.28-8.47-8.7-13.33-12.38.91-6.1-14.87-11.42-.84-18.13 1.79 3.39 4.44 5.57 8.33 6.04 4.31 3.77 9.45 5.99 14.76 7.87 2.4 6.73 8.88 8.76 14.15 11.95 14.76 8.93 29.74 17.52 44.67 26.17 39.37 22.81 78.38 46.27 118.3 68.05 18.44 10.06 34.51 24.4 54.94 30.83 3.23 6.2 10.68 6.19 15.22 10.46.67 4.07 2.41 9.53-4.01 9.51-14.35-.06-29.13 3.68-42.89-3.65-1.04-.04-2.09-.08-3.14-.11-2.79-1.92-5.58-3.83-8.36-5.75-11.73-.69-23.24-.71-31.34 10.03-8.26-3.09-17.72-2.08-25.31-7.69-2.53-1.87-5.85-1.6-8.33.5-5.73 4.85-12.46 4.71-19.28 4.37-4.53-10.99-10.61-9.84-17.52-2.26-4.21.81-8.42 1.63-12.63 2.44-9.38-7.52-18.74-7.59-28.09.04-1.71-.05-3.41-.11-5.12-.16-.12-.88-.23-1.76-.34-2.63zm61.97-42.78c8.8-1.67 18.74-1.12 21.57-11.97 1.54-5.91-11.95-14.09-22.29-13.89-9.2.18-19.71 1.61-19.32 12.95.38 11.2 11.92 10.75 20.04 12.91zm66.08 21.1c-13.17-5.01-13.69-4.97-23.68 1.32 12.03 6.1 12.03 6.1 23.68-1.32z" class="st6"/><path d="M1033.34 270.4c3.81 26.11.86 52.35 1.56 78.52.18 6.91-3.41 7.98-8.9 4.55-.36-.22-.72-.44-1.1-.63-20.53-9.98-20.79-9.97-20.49 12.88.21 15.6-1.76 31.33 1.97 46.79-3.27-.37-6.53-.73-9.79-1.09-11.73-7.39-23.33-14.99-35.24-22.08-7.19-4.28-13.72-10.1-22.56-11.05-7.55-8.84-17.01-14.18-28.56-15.7 1.77-6.86 9.81-7.4 12.91-12.93 4.02 2.31 8.02 4.65 12.07 6.91 5.83 3.24 7.42.6 7.44-5.12.2-44.87.24-44.87-38.43-67.92-.36-.22-.68-.5-1.02-.76-5.16-3.9-7.88-2.14-7.91 3.88-.04 8.47.41 16.93.64 25.4.05 7.55-1.67 15.19 1.11 22.61-3.05.05-6.1.09-9.16.14-.33-15.61.61-31.38-1.37-46.77-1.72-13.33 2.23-27.8-6.52-39.98l-.48-23.37c4.94 2.12 10.85 2.1 9.26 11.28-.74 4.3 7.6 10.31 12.21 7.95 11.43-5.86 14.75 1.31 18.52 8.99 3.13 6.37 8.71 9.95 14.94 8.17 9.32-2.66 14.04.3 16.26 9.01 1.73 6.8 8.62 11.43 12.68 9.63 11.42-5.04 15.31 1.68 19.37 9.32 2.85 5.36 7.34 8.48 12.89 8.89 3.93.29 7.4-3.08 7.86-7.03.7-6.01 3.14-13.1-3.78-17.26-4.06-2.44-6.55-5.13-6.07-10 13.48-3.04 8.11-16.88 13.84-24.35 5.15 1.36 10.72 1.79 14.38 6.49-3.79-.63-7.65-1.53-10.4 2.4-2.99 8.47-3.39 16.89.47 25.24l.75.72-1.68 22.06c-2.15 13.26 1.41 17.38 18.43 21.28 1.99-4.38-4.78-8.65-2.97-9.89 14.89-10.23-.78-9.78-4.33-13.47 5.71-3.13 1.5-6.91.67-10.47 5.41-2.92 8.75-7.45 10.53-13.24zm-71.92 75.68c-1.51-5.12 2.58-14.18-3.88-14.37-6.79-.2-4.02 8.82-3.84 13.66.2 5.24-3.72 14.59 4.04 14.78 5.96.13 2.15-9.24 3.68-14.07zm30.65 17.72c-1.51-5.23 2.25-14.09-4.75-13.89-6.29.18-3.37 8.95-3.4 13.86-.03 4.98-2.52 14.1 3.61 13.99 8.22-.16 1.97-9.57 4.54-13.96z" class="st5"/><path d="M1006.72 1011.01c-.19-4.65.15-9.41-.73-13.93-.65-3.38-2.64-7.23-6.58-1.98-4.27.71-5.21-3.91-8.08-5.14-8.07-3.45-16.29-3.57-24.13.85-3.82 2.15-6.79 5.06-5.98 10.14 1.38 8.64 8.53 9.45 14.98 11.23 4.49 7.21 11.77.74 17.1 3.12.11.81.28 1.54.21 1.56-15.09 5.08-29.17 14.11-45.14 15.3-13.92 1.04-28.41 3.73-42.17-2.71-3.01-1.41-6.55.25-9.69 1.73-9.02 4.25-7.96-1.21-6.51-6.95l.4-.37c1.5-.84 3-1.69 4.5-2.53l.26-.11c3.29-.21 6.01-1.39 7.58-4.51l1-.48 3.81-2.4c3.84-2.58 7.56-5.37 11.54-7.69 48.61-28.33 97.25-56.6 145.89-84.88 1.41 5.98 9.12 6.83 10.4 12.92-7.22 3.03-18.05 4.02-18.2 13.15-.14 8.86 10.55 10.9 17.5 14.59 2.58 1.37 5.52 2.07 8.3 3.08 3.58 6.08 10.03 8.7 15.27 12.77.13 1.68.25 3.35.38 5.03-.29 11.14-.59 22.27-.88 33.41-2.88.46-6.53-.04-8.49 1.56-7.77 6.35-14.7 6.08-22.64.06-4.08-3.09-9.99-2.66-14.65-.69-12.58 5.32-25.07 6.18-37.87 1.24 2.85-7.8-4.82-5-7.38-7.37z" class="st6"/><path d="M1097.76 1016.21c.29-11.14.58-22.27.88-33.41 10.41-1.58 23.98-13.56 26.08-23.46.53-2.51.21-6.04 2.91-6.39 11.91-1.55 23.53-8 35.42-5.51 15.04 3.15 28.31 3.99 38.63-9.8 1.2-1.61 3.31-3.63 4.99-3.63 27.08.07 36.22-25.9 54.8-38.13 6.66-4.38 7.07-15.71 16.9-17.69-.01 22.14-.01 44.27-.02 66.41-9.88 1.62-17.5 7.02-25.57 12.87-14.94 10.85-27.64 26.48-48.89 26.18-4.27-.06-9.13 2.5-12.79 5.15-15 10.86-31.87 12.94-49.58 11.91-8.22-4.8-16.2-7.49-22.75 2.56-5.52 6.35-10.31 13.88-20.45 12.75l-.56.19z" class="st2"/><path d="M993.67 263.61c-.48 4.88 2.01 7.56 6.07 10 6.92 4.16 4.48 11.25 3.78 17.26-.46 3.95-3.93 7.33-7.86 7.03-5.55-.42-10.04-3.53-12.89-8.89-4.06-7.63-7.96-14.36-19.37-9.32-4.06 1.79-10.95-2.83-12.68-9.63-2.22-8.71-6.94-11.67-16.26-9.01-6.23 1.78-11.82-1.79-14.94-8.17-3.77-7.68-7.09-14.84-18.52-8.99-4.61 2.36-12.95-3.65-12.21-7.95 1.58-9.18-4.33-9.16-9.26-11.28-6.26-.57-11.34 1.48-12.22 8.16-1.19 9.05-6.83 11.24-14.33 10.24-7.51-1-11.89 1.25-14.31 8.8-2.33 7.29-7.91 10.88-15.8 9.41-4.4-.82-10.34-1.19-11.69 2.47-4.9 13.26-14.3 16.02-26.73 14.43-1.92-.25-4.28.69-6.02 1.76-4.55 2.79-5.7 7.88-4.87 12.29.96 5.1 5.56 1.38 8.5 1.64 4.2.38 8.55-.28 12.66.48 5.6 1.04 10.62 3.38 10.82 10.45.2 7.09-4.67 9.66-10.25 10.99-3.65.87-7.58.62-11.38.74-4.04.13-7.96.71-8.69 5.56-1.99 13.12-10.73 11.97-20.04 9.87-8.78 1.82-17.6 3.77-22.06-7.4 3.67-.97 7.44-1.69 11.01-2.95 15.85-5.58 19.52-13.63 14.41-29.02-1.96-5.91-3.59-12.87 3.82-16.84 5.31-2.84 5.11-7.19 4.38-11.99 2.93-3.86 7.16-5.32 11.61-6.39 20.11.75 20.11.75 19.36-14.03 4.59-1.94 9.17-3.88 13.76-5.82 9.1.83 15.34-2.42 17.05-12.1 4.83-1.07 9.82-1.74 13.48-5.63 8.48 1.53 14.68-1.01 17.4-9.8 11.03-8.36 21.01-13.23 35.47-3.85 10.3 6.68 20.72 14.55 32.22 18.77 13.58 4.99 22.8 16.66 36.41 20.94.9 5.88 4.56 7.86 10.09 7.18l.01-.04c.1 1.92 1.47 2.06 2.91 2.1 5.72 2.86 11.44 5.7 17.16 8.53z" class="st4"/><path d="M854.29 1013.46c-20.42-6.43-36.49-20.77-54.94-30.83-39.92-21.78-78.93-45.24-118.3-68.05-14.93-8.65-29.9-17.24-44.67-26.17-5.27-3.19-11.75-5.21-14.15-11.95-4.04-11.73-7.2-13.41-14.76-7.86-3.88-.47-6.54-2.65-8.33-6.04.28-4.85.51-9.71.86-14.56.34-4.74 1.53-8.39 7.41-5.09 1.28 11.93 6.42 16.4 17.25 14.14 7.28-1.52 10.92 2.89 13.97 7.83 4.66 7.52 8.99 14.13 19.83 11.25 4.85-1.29 7.99 2.5 10.29 7.3 3.79 7.88 9.15 13.26 19.45 9.4 5.74-2.15 9.48 3.32 11.31 7.46 4.19 9.45 9.11 15.4 20.67 11.8 4.71-1.47 9.06.88 11.18 5.86.66 1.54.75 3.36 1.56 4.79 6.03 10.67 19.47 5.25 26.35 11.44 6.82 6.15 9.12 17.48 22.16 13.58 5.82-1.74 9.55 1.97 11.82 7.15 3.75 8.58 8.77 13.88 19.47 10.82 5.88-1.68 10.26 2.39 12.76 7.94 3.63 8.06 7.5 15.13 18.6 10.25 5.17-2.28 10.59 2.64 11.27 5.66 3.45 15.27 13.67 13.3 24.4 11.21-.05 8.5-.09 17-.14 25.5l-7.62-2.7c-2.44-13.3-7.29-16.09-17.7-10.13zM879.64 1026.32c.05-8.5.09-17 .14-25.5 10 2.46 18.75 2.63 20.6-10.78.3-2.16 2.15-4.65 4.16-4.04 18.57 5.67 30.11-9.02 43.26-16.32 49.77-27.62 98.51-57.11 147.63-85.89.86-1.72 1.72-3.45 2.58-5.17 4.32-1.56 8.7-3.04 10.66-7.84 4.87-.07 9.23-2.06 12.72-5.02 5.53-4.68.18-4.63-2.81-5.39l.63-4.62c3.7.01 7.5-.55 11.07.13 15.52 2.95 17.1 2.12 21.37-12.89 3.71-2.37 7.51-5.11 7.74 2.7.13 4.5.36 9 .54 13.48.02 1.22.05 2.45.08 3.68-1.12 1.82-2.23 3.63-3.35 5.45-3.78-4.2-8-5.79-13.05-2.15-4.17 3.02-8.49 6.01-4.17 12-7.72 6.46-18.28 8.15-25.53 15.39-16.5 8.9-31.18 21.05-48.93 27.73-48.63 28.28-97.28 56.55-145.89 84.88-3.99 2.32-7.7 5.12-11.55 7.69l-4.65.48c-8.22-6.75-13.2-3.67-15.47 9.56-2.22 1.99-4.68 3.24-7.78 2.44z" class="st5"/><path d="M724.36 253.18c-3.96-5.58-12.65-5.73-15.01-13.15 4.15-.04 9.02 6.72 12.06.61 2.81-5.64.06-11.52-5.82-15-7.94-4.7-15.89-9.37-23.84-14.05 6.19-14.12 20.29-18.78 32.52-21.57 6.89-1.58 16.69 7.39 24.47 12.65 7.71 5.21 14.7 11.59 10.3 22.85-.45 1.15.95 3.03 1.48 4.57-1.15 3.18-2.29 6.37-3.43 9.55-.55.31-1.14.51-1.76.61-10.88 2.96-19.26 11.98-30.97 12.93zM1021.89 245.75c-3.66-4.7-9.23-5.12-14.38-6.49-2.23-3.81-10.41-4.94-5.36-12.01 6.42 3.94 12.78 8 19.3 11.78 3.47 2.01 7.14 6.62 11.12 3.63 4.03-3.03 2.27-8.64 1.48-13.06-1.21-6.75-6.19-10.78-11.77-13.99-5.07-2.93-10.3-5.6-15.45-8.38 6.78-10.36 19.97-12.17 27.88-21.12 1.98-2.24 3.84.41 4.98 1.8 4.69 5.7 11.02 8.84 17.18 12.56 18.84 11.39 19.56 15.18 10.38 41.97-5.1.68-11.2-1.99-14.58 4.41-6.19-.04-7.66 6.58-12.27 8.77-1.51-.11-3.01-.23-4.53-.34-1.8-2.89-4.05-4.94-7.79-4.25-2.05-1.76-4.12-3.52-6.19-5.28z" class="st7"/><path d="M724.36 253.18c11.72-.95 20.09-9.97 30.98-12.92 1.71 8.86-6.62 22.64 11.42 23.5.73 4.8.92 9.15-4.39 11.99-7.42 3.97-5.79 10.93-3.82 16.84 5.1 15.38 1.44 23.43-14.41 29.02-3.58 1.26-7.34 1.98-11.01 2.95-6.72-5.46-8.83-12.61-8.69-21.12.26-16.75-.03-33.51-.08-50.26zm15.8 37.41c5.03-8.28 1.64-17.37 2.4-26.06.2-2.24.66-5.75-3.02-5.7-2.93.04-4.17 2.92-4.23 5.49-.18 7.21.01 14.43.05 21.65-.38 3.61-1.3 7.79 4.8 4.62z" class="st8"/><path d="M1025.37 802.43c7.26-8.6 16.61-13.82 27.23-16.99 3.51 3.18 7.55 4.31 12.18 3.18 7.21 8.61 16.1 15.06 25.98 20.21 3.23 2.88 8.61 3.09 10.06 8.18l.13-.12c-3.51.39-6.25 1.92-7.81 5.23l.16-.14c-1.71.88-3.42 1.77-5.13 2.65-7.04-.31-12.22 4.57-18.4 6.64-14.26-8.12-28.53-16.25-42.79-24.37-.55-1.5-1.08-2.98-1.61-4.47zM1127.07 378.47c-3.95 2.44-7.79 5.09-11.87 7.29-17.06 9.21-29.58 8.3-42.8-5.96-9.63-10.38-5.45-23.69-2.59-36.01 17.83 13.64 38.83 22.03 57.26 34.68z" class="st4"/><path d="M1151.67 842.99c-4.27 15.02-5.85 15.85-21.37 12.89-3.57-.68-7.38-.12-11.08-.14l-.7-.69c-2.73-7.35-5.1-1.26-7.59.21l.17-.09c-1.69.07-3.38.13-5.07.2l-.51-.56c.14-1.56.27-3.12.41-4.69-2.56.02-5.12.04-7.68.07 0-1.74.01-3.47.01-5.21 1.77-.75 3.55-1.5 5.32-2.25 3.23-.71 6.65-1.17 8.17-5.55-4.63.02-6.82 2.23-8.68 4.95-1.58.98-3.16 1.95-4.74 2.93-6.26.49-11.17 5.72-17.75 5.07-.1-.95-.19-1.91-.29-2.86 2.9-.35 4.8-1.81 5.27-4.83.7-.2 1.4-.41 2.1-.61-.71-.62-1.42-1.23-2.13-1.85l2.58-7.74c1.84-.69 3.68-1.37 5.51-2.06 3.62-.3 6.37-1.72 7.16-5.64.41-.01.86.08 1.23-.05.27-.1.45-.48.67-.74l-1.8.9c-2.57 0-5.15.01-7.72.01.04-.89.09-1.78.13-2.68l-.16.14c3.32-.67 6.02-2.26 7.81-5.23l-.13.12c1.54-.25 3.08-.5 4.61-.75.94.82 1.76 2.08 2.84 2.39 16.43 4.62 27.56 18.73 43.41 24.34zm-38.15 1.97-.55.71s.67-.59.66-.6l.49-.56-.6.45zm-15.48-8.16c2.62-.65 3.94-.62 4.73-1.25 1.23-.98 4.82-1.87 2-3.88-1.59-1.11-4.26 1.32-6.73 5.13z" class="st4"/><path d="M1064.98 921.27c17.75-6.68 32.43-18.83 48.93-27.73 7.17-.36 13.95.88 20.03 4.96-7.96 9.43-17.63 15.75-30.37 15.35-9.64-.3-9.12 10.9-16.01 13.55-.12.04.16 1.54.48 2.25 1.46 3.26 13.77 2.27 4.5 9.34-5.98 4.56-12.83 1.91-17.16-4.81-1.28-6.08-8.99-6.93-10.4-12.91z" class="st1"/><path d="M1168.13 629.63c14.41-1.12 13.59-6.18 8.84-13.02-2.39-3.44-4.82-9.34.24-10.59 5.01-1.24 12.63-7.91 16.57.88 2.92 6.53 7.31 5.96 12.19 5.4 3.02-.35 8.67-3.4 8.06.41-.86 5.33 3.15 12.52-3.55 16.35-4.53 2.59-11.89 1.81-9.3 11.18.66 2.4-5.46 4.92-8.06 1.94-5.63-6.42-13.82-7.06-24.99-12.55z" class="st2"/><path d="M1160.01 862.85c-.03-1.23-.05-2.46-.08-3.68 7.48-3.68 14.22-9.62 23.32-8.51 3.93.48 10.19-2.28 9.77 6.02-.14 2.71 2.06 3.24 4.48 2.33 3.72-1.41 6.86-1.33 7.22 3.69.31 4.43-.22 8.49-5.38 10.22-12.09 4.05-23.9 5.18-35.06-2.66-1.42-2.47-2.84-4.94-4.27-7.41zM1191.89 811.69c-1.47 0-3.58.12-5.67-.02-8.03-.54-12.21-6.64-13.52-12.94-1.32-6.33 4.95-8.58 10.41-10.43 11.36-3.85 25.75-.37 31.03 8.34 2.34 3.85.34 7.23-2.76 10-5.46 4.87-11.96 5.72-19.49 5.05zM1244.31 799.07c-11.89.13-23.97-7.18-23.33-13.71.6-6.19 14.33-12.42 24.37-12.01 7.35.3 12.17 5.69 16.72 9.32 4.13 3.3 2.62 11.04-4.98 13.75-4.38 1.55-8.66 3.2-12.78 2.65zM1242.67 816.91c10.2-3.92 13.07 10.38 22.56 10.55 1.28.02 1.11 6.36-2.36 8.46-6.51 3.94-13.11 7.93-21.24 6.45-8.38-1.52-18.52-2.91-18.33-13.61.18-10.86 9.79-12.01 19.37-11.85zM613.78 651.2c-1.47 0-1.89-.04-2.31.01-9.68 1.06-16.16-4.13-20.51-11.81-3.09-5.46 2.87-7.91 5.96-9.24 8.07-3.48 16.29-8.86 25.39-.97 6.36 5.52 18.69 8.34 4.83 18.96-4.59 3.51-9.52 2.53-13.36 3.05zM564.78 625.72c-7.89-1.01-14.17-4.07-17.6-10.88-1.88-3.74-.23-7.82 3.51-9.74 7.1-3.64 13.68-10.42 22.84-5.07 4.56 2.66 8.38 6.23 13.31 8.69 6.06 3.03 3.08 9.11-2.1 11.32-6.42 2.73-13.51 3.92-19.96 5.68zM556.77 890.7c-7.21 1.92-13.57 6.09-21.74 5.62-8.4-.48-15.31-2.65-18.58-10.46-3.78-9.04 5.85-10.54 9.87-15.17 6.43 2.75 18.14-7.66 19.56 8.01.17 1.88 2.82.25 4.36.18 9.89-.42 10.67 4.35 6.53 11.82zM1182.78 574.31c-1.28 14.74-14.19 11.85-22.91 14.82-7.89 2.68-14.18-2.36-18.62-7.82-4.32-5.3-3.04-10.75 3.92-14.34 7.17-3.7 14.76-2.47 22.19-3.25 1.18 4.59-.02 11.5 8.78 8.27 2.24-.81 4.98-.05 6.64 2.32zM597.13 957.09c-8.04 2.83-16.3 4.33-24.51 1.43-5.21-1.84-10.14-5.17-10.25-11.49-.11-6.53 4.81-8.74 10.3-10.84 6.64-2.54 13.15-1.8 19.79-1.35 1.45 3.7-4.43 6.18-1.95 10.16 5.13-1.17 9.98-2.28 14.83-3.39.41 1.75.82 3.5 1.23 5.24-.34.92-.67 1.84-1.01 2.76-.39.45-.58.96-.58 1.56-.86 1.21-1.73 2.4-2.59 3.6l.2-.22c-2.17.07-4.14.59-5.46 2.54zM1166.74 472.19c1.73 10.12-4.94 14.3-12.77 14.99-10.03.89-21.58 4.19-29.03-6.31-4.23-5.97.8-14.7 8.82-15.85 6.2-.89 12.54-.8 18.81-1.14-.82 12.29 7.92 8.16 14.17 8.31z" class="st9"/><path d="M1006.84 207.22c5.16 2.78 10.38 5.45 15.45 8.38 5.57 3.22 10.56 7.25 11.77 13.99.79 4.42 2.55 10.03-1.48 13.06-3.98 2.99-7.65-1.62-11.12-3.63-6.52-3.78-12.88-7.84-19.3-11.78-4.81-8.17-5.09-15.28 4.68-20.02z" class="st7"/><path d="M1207.64 694.3c-1.97-2.57-3.94-5.14-5.92-7.71.2-.69.18-1.38-.07-2.05 3.34-10.7 11.38-13.65 21.5-13.04 3.99.24 9.05-.79 8.21 6.13-.34 2.78 1.47 3.82 3.79 3.68 3.51-.2 8.24-3.16 9.72 1.92 1.48 5.09-3.99 7.59-6.73 11.03-10.17-1.5-20.33 4.64-30.5.04z" class="st9"/><path d="M1160.01 862.85c1.42 2.47 2.85 4.94 4.27 7.41-3.75 16.31-15.96 23.45-30.35 28.25-6.08-4.09-12.86-5.32-20.03-4.97 7.25-7.24 17.82-8.93 25.53-15.39 5.74-3.29 11.48-6.57 17.22-9.86 1.13-1.81 2.25-3.63 3.36-5.44z" class="st6"/><path d="M1100.84 643.19c-4.22-3.16-2.59-7.78-2.6-11.76-.11-62.79-.08-125.58-.04-188.38 0-4.17-.75-8.57 2.52-12.09l.12 212.23z" class="st1"/><path d="M691.75 211.59c7.95 4.68 15.9 9.35 23.84 14.05 5.88 3.48 8.63 9.36 5.82 15-3.04 6.1-7.91-.65-12.06-.61l.08.15c-5.53-6-12.96-9.02-19.91-12.8-.04-5.38-2.43-11.09 2.23-15.79z" class="st7"/><path d="M1098.9 666.83c-.43-7.73-2.13-15.56 1.62-22.99 11.24-4.4 14.77 9.15 23.64 10.24-.12 3.27-.23 6.55-.34 9.83l-.01-.04c-1.01.84-2.01 1.68-3.02 2.52-.67.07-1.27.3-1.81.69-6.69-.09-13.39-.17-20.08-.25zM658.56 566.44c4.28 7.65 2.1 15.83 1.92 23.84-.66.07-1.31.18-1.97.31-.41-.1-.81-.26-1.23-.3-8.22-.84-19 .33-18.61-11.72.39-11.94 10.85-11.94 19.89-12.13z" class="st9"/><path d="M1087.87 283.85c-5.58 15.69-7.63 16.58-22.66 9.8v-20.21l5.52-.33c5.71 3.58 11.43 7.16 17.14 10.74z" class="st7"/><path d="M625.78 962.66c11.48-11.38 11.43-11.33 22.58.53 3.16 3.36 6.72 6.32 10.1 9.47-2.53.88-5.06 1.77-7.58 2.65-2.5.68-5 1.36-7.5 2.05-5.87-4.91-11.74-9.8-17.6-14.7z" class="st10"/><path d="M684.32 382.54c7.9 3.52 7.86 10.23 6.55 17.19-.72 3.81-3.82 5.75-7.4 5.78-9.59.09-11.99-7.49-14.68-14.61 6.47-.36 10.51-5.27 15.53-8.36z" class="st8"/><path d="M625.78 962.66c5.86 4.9 11.73 9.79 17.59 14.69-5.2 5.11-10.2 10.55-16.38.83-2.57-4.05-7.42-2.47-11.33-3.09-.06-2.46-.12-4.93-.19-7.39 3.44-1.68 6.88-3.36 10.31-5.04z" class="st11"/><path d="M797.71 243.35c.75 14.78.75 14.78-19.36 14.03 2.72-9.88 7.15-17.38 19.36-14.03z" class="st12"/><path d="M704.63 944.74c-1.82 5.61-3.77 11.11-10.62 12.36 1.55-10.71-6.92-8.52-12.63-9.89-4.23-.03-8.46-.07-12.69-.1 0-1.71-.01-3.41-.01-5.12 3.6-.02 7.17-.22 10.22-2.51 8.65 1.38 16.49 6.81 25.73 5.26z" class="st1"/><path d="m1070.73 273.11-5.52.33c-4.47-7.22-.49-15.91-4.02-23.3-2.14-2.93-5.63-2.31-8.51-3.31 3.38-6.39 9.48-3.73 14.58-4.41-.24 10.4 1.68 20.54 3.47 30.69z" class="st7"/><path d="M658.54 502.53c4.29 7.54 1.96 15.68 2.12 23.59-5.17-1.63-10.76-2.6-12.13-9.34-1.72-8.41 5.5-10.33 10.01-14.25z" class="st9"/><path d="M1119.87 420.31c-3.26-8.39.15-12.89 8.43-14.56.16.39.33.77.48 1.17 1.76 4.78 11.09 6.8 7.53 12.3-3.26 5-10.75 2.03-16.44 1.09zM704.37 784.07c-2.53 8.98-5.92 16.93-17.7 14.6-.41-9.46 7.54-12.54 13.15-17.42 1.52.95 3.03 1.89 4.55 2.82z" class="st5"/><path d="M1098.54 755.59c.05-26.31.1-52.61.14-78.92 3.53 26.32 3.72 52.62-.14 78.92z" class="st10"/><path d="M859.4 210c-2.72 8.78-8.92 11.33-17.4 9.8 2.19-9.74 5.76-16.98 17.4-9.8zM673.14 804.6c-2.23 9.03-7.6 13.59-17.17 12.19 1.19-10.49 6.96-14.5 17.17-12.19z" class="st5"/><path d="M828.53 225.43c-1.71 9.68-7.95 12.92-17.05 12.1.62-11.22 7.05-14.19 17.05-12.1z" class="st12"/><path d="M650.87 975.3c2.53-.88 5.06-1.77 7.58-2.65l.08.03h2.56l2.56-2.53c2.64.03 5.29.07 7.93.1-5.04 5.03-8.43 11.08-10.95 17.68-.64.03-1.28.05-1.92.07-.26-3.72-1.88-6.6-5.16-8.47-.89-1.4-1.78-2.81-2.68-4.23z" class="st1"/><path d="M1182.78 574.31c-1.66-2.37-4.4-3.14-6.64-2.32-8.79 3.23-7.6-3.68-8.78-8.27 9.3-2.56 14.47.92 15.42 10.59zM704.63 944.74c-9.25 1.55-17.08-3.88-25.73-5.25l2.79-5.34c6.51 1.6 12.31 5.6 19.37 5.51 2.92-.03 4.65 1.77 3.57 5.08z" class="st10"/><path d="M1207.64 694.3c10.17 4.61 20.33-1.54 30.5-.03-8.9 7.46-21.56 7.48-30.5.03z" class="st1"/><path d="M658.97 918.69c3.48.3 6.04 1.97 7.6 5.12-7.99 3.52-16.62 8.42-15.65-7.34l8.05 2.22z" class="st10"/><path d="M605.35 941.61c-4.85 1.11-9.71 2.22-14.83 3.39-2.48-3.99 3.4-6.46 1.95-10.16.06-.81.11-1.62.17-2.43l4.62 2.22c2.07 4.47 6.07 4.96 10.27 5.03-.72.65-1.45 1.3-2.18 1.95z" class="st0"/><path d="M1166.74 472.19c-6.25-.15-14.99 3.98-14.18-8.31 7.21-1.48 10.78 3.27 14.18 8.31z" class="st1"/><path d="M689.52 227.37c6.95 3.78 14.37 6.81 19.91 12.8-5.6-1.56-11.2-3.12-16.81-4.69-4.15-1.51-6.53-3.69-3.1-8.11z" class="st7"/><path d="M757.1 239.65c1.14-3.18 2.29-6.37 3.43-9.55 4.71 2.18 9.42 4.37 13.94 6.47-5.2 3.54-11.21 3.74-17.37 3.08z" class="st13"/><path d="M620.51 898.32c6.75 2.1 13.34 4.47 17.88 10.4-7.78-.32-16.65 1.26-17.88-10.4z" class="st10"/><path d="M600 880.7c4.86 3.68 10.86 6.1 13.33 12.38-5.86-2.59-16.4-.1-13.33-12.38z" class="st1"/><path d="m1098.9 666.83 20.09.24c-5.43 7.07-13.3 3.36-20.06 4.59l-.03-4.83z" class="st0"/><path d="M1098.26 977.78c-5.24-4.07-11.69-6.69-15.27-12.77 7.11 1.81 16.64.72 15.27 12.77zM668.68 941.99c0 1.71.01 3.41.01 5.12-3.7-.46-7.8-.27-9.93-4.14-.92-1.66.38-3.21 1.95-4.05 3.77-2.03 6.37-.72 7.97 3.07z" class="st10"/><path d="M1064.77 788.61c-4.63 1.14-8.66 0-12.18-3.18 1.58-4.66 5.05-6.51 9.72-6.56.82 3.26 1.64 6.5 2.46 9.74z" class="st14"/><path d="M681.38 947.21c5.71 1.37 14.18-.82 12.63 9.89-.72.19-1.44.32-2.19.38l-5.29-.09c-1.71-3.39-3.43-6.79-5.15-10.18zM607.53 939.66c-4.2-.08-8.2-.57-10.27-5.03 6.68-5.02 10.75-4.68 10.27 5.03z" class="st10"/><path d="M973.59 253.04c-5.53.68-9.19-1.29-10.09-7.18 6.73-2.36 11.06-1.34 10.09 7.18z" class="st5"/><path d="M671.58 970.25c-2.64-.03-5.29-.07-7.93-.1 2.58-6.01 6.41-8.79 12.79-4.99-1.62 1.7-3.24 3.39-4.86 5.09z" class="st10"/><path d="M1105.42 816.25c-1.54.25-3.08.5-4.61.75-1.44-5.1-6.83-5.3-10.06-8.18 8.92-5.52 11.97.61 14.67 7.43z" class="st8"/><path d="M1123.82 663.9c.11-3.28.22-6.56.34-9.83 6.12 3.5 4.81 6.74-.34 9.83z" class="st0"/><path d="M693.42 352.65c.33 5.81 2.07 11.75-1.61 17.17-.11-5.78-1-11.64 1.61-17.17zM658.97 918.69l-8.05-2.22c-.01-.84-.02-1.68-.01-2.52 3.54.11 6.35 1.48 8.06 4.74z" class="st1"/><path d="M986.23 63.69c.06 1.8.13 3.6.19 5.41-2.46.14-4.93.29-7.39.43l-.2-.69c1.7-2.83 4.24-4.44 7.4-5.15z" class="st0"/><path d="M693.39 334.8c0 3.23 0 6.46-.01 9.69-1.85-3.23-1.85-6.46.01-9.69z" class="st1"/><path d="M660.79 626.24c1.07 2.1-.61 2.8-1.87 3.7.63-1.24 1.25-2.47 1.87-3.7z" class="st6"/><path d="M1143.93 425.93c-.39.63-.79 1.26-1.18 1.89-.31-.71-.88-1.43-.84-2.11.04-.66.7-1.29 1.09-1.93.32.71.64 1.42.93 2.15z" class="st15"/><path d="M658.51 590.6c.65-.13 1.31-.24 1.97-.31-.01 0 .62 1.03.62 1.03s-.69.93-.7.93l-1.89-1.65zM661.95 492.67c1.07 1.77 1.08 3.53-.05 5.27.02-1.76.04-3.52.05-5.27z" class="st6"/><path d="m686.54 957.4 5.29.09-5.31 2.55c0-.88.01-1.76.02-2.64zM1201.65 684.54c.25.68.27 1.36.07 2.05-.47-.67-.5-1.35-.07-2.05z" class="st1"/><path d="M605.58 949.61c.33-.92.67-1.84 1.01-2.76.47.08.92.18 1.38.31l-2.39 2.45z" class="st0"/><path d="M976.51 255.11c-1.44-.04-2.81-.18-2.91-2.1.97.69 1.94 1.4 2.91 2.1z" class="st14"/><path d="M661.09 972.68h-2.56 2.56z" class="st10"/><path d="m661.83 658.51-.09 2.76.09-2.76z" class="st6"/><path d="M1120.8 666.38c1-.84 2.01-1.68 3.02-2.52-1.01.84-2.02 1.68-3.02 2.52z" class="st0"/><path d="m665.35 389.75-.86.11s-.84-.22-.83-.23c.61-.39 1.17-.35 1.69.12zM658.77 648.82c.68.67 1.36 1.35 2.04 2.02-.68-.68-1.36-1.35-2.04-2.02z" class="st6"/><path d="M1189.82 107.82c-16.55-4.35-19.08-11.15-8.78-23.7 8.12-2.67 16.23-3.9 24.3.21 1.47 3.46-5.42 5.41-1.92 8.69 1.85 1.73 4.77.3 6.64-1.74 2.43-.38 4.86-.76 7.28-1.14.12 3.18.24 6.37.37 9.55-3.48 1.58-5.92 4.23-7.67 7.58l.07-.05-20.29.6zM986.23 63.69c-3.16.71-5.7 2.33-7.4 5.15-4.08.91-8.16 1.87-12.25 2.73-9.96 2.09-17.64.52-21.54-10.72-3.89-11.23 7.27-10.25 10.98-15.24 6.79.27 13.57.54 20.35.8-1.62 2.78-3.24 5.56-5.01 8.61 5.84 1.71 10.22-2.35 15.21-1.98l.41.56c-.03.83.14 1.62.51 2.36l-.3 5.38c-.33.87-.65 1.74-.97 2.61l.01-.26z" class="st9"/><path d="M539.04 97.14c-12.71-3.75-13.11-14.14-12.72-24.57.17-4.59 1.64-9.14 2.51-13.71 7.03-9.41 17.09-11.07 27.84-10.97 4.07.88 8.04 1.96 10.78 5.49-.36.4-.71.8-1.05 1.21-2.47-.49-4.97-.85-7.4-1.48-11.77-3.02-20.65.98-26.41 11.46-6.01 10.92-3.66 20.22 6.44 27.52-.01 1.67 0 3.36.01 5.05zM569.7 94.73c2.15-4.98 4.3-9.95 6.45-14.93 3.18-7.9-2.03-14.1-4.22-20.91l.18-.15c9.89 7.87 8.03 17.99 5.35 28.26-2.63 2.53-5.26 5.05-7.89 7.57-.01.01.13.16.13.16z" class="st1"/><path d="M978.65 46.2c2.55-3.15 5.06-8.31 9.6-5.79 5.88 3.26 2.26 8.66.59 13.21-.62-.02-1.23-.03-1.85-.02l-.41-.56c-2.65-2.28-5.29-4.56-7.93-6.84z" class="st10"/><path d="M978.65 46.2c2.64 2.28 5.29 4.56 7.93 6.83-4.99-.37-9.37 3.68-15.21 1.98 1.77-3.04 3.38-5.82 5.01-8.61.75-.09 1.51-.16 2.27-.2zM1210.05 91.28c-1.87 2.03-4.79 3.47-6.64 1.74-3.51-3.28 3.39-5.23 1.92-8.69 3.28 1.15 4.62 3.63 4.72 6.95zM1217.7 99.69c-.13-3.18-.26-6.37-.37-9.55 4.06 3.04 2.77 6.27.37 9.55z" class="st0"/><path d="M567.44 53.36c2.44 1.02 3.92 2.87 4.66 5.38l-.18.15c-1.85-1.44-3.69-2.88-5.54-4.32.36-.4.71-.81 1.06-1.21z" class="st2"/><path d="M986.22 63.94c.32-.87.65-1.74.97-2.61.63.05 1.25.11 1.88.19-.95.8-1.9 1.61-2.85 2.42zM986.98 53.59c.62 0 1.23 0 1.85.02-.45.78-.9 1.56-1.34 2.34-.37-.74-.54-1.53-.51-2.36z" class="st0"/><path d="M566.39 54.58c1.85 1.44 3.69 2.88 5.54 4.32 2.19 6.81 7.4 13.01 4.22 20.91-5.71-1.8-11.47-2.11-17.3-.63.85-4.53.61-8.7-4.93-9.78-3.32-.65-6.85-.67-8.85 2.99-2.74 5.01 1.46 7.65 3.81 10.91-3.29 2.93-6.57 5.86-9.86 8.79-10.1-7.3-12.45-16.6-6.44-27.52 5.77-10.47 14.64-14.48 26.41-11.46 2.43.61 4.93.98 7.4 1.47z" class="st1"/><path d="M548.88 83.29c-2.36-3.26-6.55-5.9-3.81-10.91 2-3.66 5.53-3.64 8.85-2.99 5.54 1.08 5.78 5.24 4.93 9.78-3.53.88-4.79 7.28-9.97 4.12z" class="st1"/><path d="M569.56 94.58c-1.54 2.53-3.37 4.61-6.82 4.48 1.09-3.58 4.06-3.89 6.95-4.33.01 0-.13-.15-.13-.15z" class="st16"/><path d="M1141.53 1000.72c17.71 1.03 34.59-1.06 49.58-11.91 3.66-2.65 8.52-5.21 12.79-5.15 21.24.3 33.94-15.33 48.89-26.18 8.06-5.86 15.69-11.25 25.57-12.87.01 20.41.01 40.82.02 61.23-15.61 8.22-31.29 16.27-46.62 25.03-11.72 6.7-26.05 10.56-39.16 16.01-15.94 6.63-33.18 9.97-49 17.28-1.9.88-4.77 2.37-5.97 1.62-12.21-7.66-27.1 1.81-39.08-6.41l-.21-43.33c10.14 1.13 14.93-6.4 20.45-12.75 5.07 2.1 10.07 4.39 15.24 6.23 3.11 1.1 6.98 2.59 9.42-.58 2.12-2.79-1.61-5.36-1.92-8.22zm-9.65 28.79c-.42-2.16-4.3-3.66-7.39-2.86-1.66.43-3.63 1.17-3.26 3.04.71 3.65 3.84 3.88 6.83 3.64 2.22-.18 3.93-1.16 3.82-3.82z" class="st1"/><path d="M819.47 1029.66c1.05.03 2.09.07 3.14.11 3.36 12.49-4.34 16.91-14.28 18.96-15.29 3.15-24.19-1.69-28.56-14.78 8.1-10.74 19.61-10.73 31.34-10.03.97 2.91-3.22 6.7.97 8.83 3.01 1.53 5.33-1.03 7.39-3.09zM976.2 1012.19c-6.45-1.78-13.6-2.59-14.98-11.23-.81-5.08 2.16-7.98 5.98-10.14 7.84-4.42 16.05-4.3 24.13-.85 2.88 1.23 3.82 5.85 8.08 5.14 5 7.14 2.13 11.81-5.14 13.94-5.83 1.71-12.03 2.14-18.07 3.14z" class="st9"/><path d="M668.61 1031.35c9.35-7.63 18.72-7.56 28.09-.04-9.36 5.2-18.72 6.61-28.09.04zM660.74 1066.93c-3.29-5.1.53-10.07.28-15.12 4.79 1.28 9.56 2.61 14.36 3.81 4.92 1.22 8.37 3.61 8.05 9.34l-4.6-1.2c-2.55-1.47-4.95-1.66-7.04.84l-.44.29-10.61 2.04zM696.88 1057.25c1.87-4.26 4.43-4.82 6.91-5.01 4.53-.33 9.33-1.64 13.25 1.88.58.52.59 2.75.01 3.33-4.01 4.02-8.91 4.34-14.03 2.63-1.93-.64-3.73-1.7-6.14-2.83zM709.33 1028.87c6.91-7.58 12.99-8.73 17.52 2.26-6.26 2.44-12.28 3.16-17.52-2.26z" class="st0"/><path d="M854.29 1013.46c10.4-5.96 15.26-3.17 17.72 10.16-.83.14-1.66.24-2.5.3-4.54-4.27-11.99-4.26-15.22-10.46z" class="st17"/><path d="M887.43 1023.88c2.27-13.23 7.25-16.31 15.47-9.56.34.62.62 1.26.84 1.92l-1 .48c-3.34.12-5.78 1.78-7.58 4.51l-.26.11c-1.5.84-3 1.69-4.5 2.53l-.4.37-2.57-.36z" class="st14"/><path d="M1006.72 1011.01c2.56 2.36 10.23-.43 7.39 7.38-2.48.04-4.97.16-7.45.12-2.5-.04-5.73-.35-5.4-3.35.17-1.57 3.53-2.78 5.46-4.15z" class="st13"/><path d="M717.94 1069.07c7.49-2.95 12.43-2.63 19.04-.92-6 5.7-11.06 4.71-19.04.92zM678.83 1063.76l4.6 1.2c-4.06 6.12-8.09 6.52-12.08-.07 0 0 .44-.29.43-.28 2.35-.28 4.7-.57 7.05-.85z" class="st15"/><path d="M663.16 1028.57c.11.88.22 1.76.32 2.63-3.15 1.7-6.44 2.74-10.07 2.27 1.95-4.26 5.87-4.55 9.75-4.9z" class="st0"/><path d="M650.87 975.3c.89 1.41 1.79 2.82 2.68 4.24-4.53 4.7 3.27 5.43 2.8 8.82-.32.6-.51 1.24-.56 1.92-2.48 1.54-4.89 3-8.06 2.86-4.74-.22-8.8.06-5 6.8 1.52 2.7.12 5.79-3.04 7.29-2.98 1.41-6.39 1.16-7.86-1.58-4.07-7.57-10.57-7.85-17.82-7.54-3.46.15-8.39 1.58-9.69-3.24-1.11-4.14 5.38-3.26 6.14-6.81 13.86.56 3.8-8.52 5.19-12.99 3.91.62 8.76-.95 11.33 3.09 6.18 9.72 11.18 4.28 16.38-.83 2.51-.66 5.01-1.34 7.51-2.03z" class="st5"/><path d="M655.8 990.29c.05-.68.24-1.32.56-1.93.78-.18 1.57-.3 2.36-.35.64-.02 1.28-.05 1.92-.07.19 1.68.39 3.36.59 5.04-1.81-.91-3.62-1.8-5.43-2.69zM661.34 997.95l1.98 7.73-1.98-7.73zM597.13 957.09c1.32-1.94 3.29-2.46 5.47-2.53-1.82.84-3.64 1.68-5.47 2.53z" class="st0"/><path d="M602.41 954.78c.86-1.2 1.72-2.4 2.59-3.6-.87 1.19-1.73 2.39-2.59 3.6z" class="st0"/><path d="M910.23 362.59c11.55 1.52 21.01 6.86 28.56 15.7-7.05 8.58-21.29 7.77-25.68 19.82-.43 42.9-2.15 85.78-1.21 128.71.24 11.07 4.47 17.17 13.45 22.1 17.46 9.58 34.73 19.53 51.88 29.66 30.59 18.05 30.53 18.15 19.76 52.33-7.86 21.96-18.54 42-37.43 56.66-3.25 2.52-5.83 5.9-8.72 8.89-13.36 13.01-22.3-1.49-32.36-5.92-5.64-2.48-9.9-5.84-15.38-.81-21.69-16.04-40.51-5.27-59.26 6.36-.68.42-1.57.51-2.36.75-2.52-.8-5.05-1.59-7.57-2.39 16.25-18.54 16.31-19.15 6.17-39.99-.58-1.2-.16-3.39.59-4.66 10.83-18.43 1.83-38.86 5.85-57.97.41-1.95-.03-4.36-.83-6.24-4.67-11.03 2.5-12.59 12.97-16-6.58 10.05-9.65 18.71-5.76 26.46 3.47 6.91 6.33 12.85 5.46 20.94-.37 3.42-1.32 11.26 5.18 10.9 4.96-.27 10.32-4.03 12.61-9.44 1.09-2.59 2.02-7.42.72-8.53-10.82-9.24.59-17.86.22-26.66-.11-2.54-.37-5.16.07-7.63.95-5.42-5.3-11.01-3.29-14.07 11.91-18.14-9.13-37.58 2.88-55.35.65-.97-.08-3.58-1-4.8-3.98-5.27-8.9-9.57-16.04-7.88-9.54 2.25-.37 8.12-1.78 12.29-.96 2.84.84 6.59 1.27 9.94.39 3.02-1.25 4.36-4 5.45-5.12 2.02-2.33-2.93-3.67-3.77-4.3-2.74-.78 4.58-3.71 3.61-4.15-9.14-4.82-17.76-1.68-27.62 3.51-11-.21-20.47-13.02-23.65 8.32-17.34 18.8-33.47 28-50.3 9.44-17.28 16.91-35.65 36.08-44.85 6.58-1.53 12.61-3.66 12.98-11.98l.05-.06z" class="st5"/><path d="M997 630.91c10.77-34.18 10.83-34.28-19.76-52.33-17.16-10.12-34.42-20.08-51.88-29.66-8.98-4.93-13.21-11.03-13.45-22.1-.94-42.93.79-85.81 1.21-128.71 10.61 5.24 21.22 10.49 31.83 15.73 21.48 12.43 44.97 15.75 69.26 15.5.48 11.33 3.81 22.43 2.59 33.88-1.92 3.96.46 7.21 1.54 10.81 3.73 12.42-2.1 28.4-12.54 35.4 1.09-11.8-.19-23.5-1.2-35.23-.45-5.2-1.91-8.77-7.91-9.27-7.88-.67-15.71-1.86-23.56-2.82-7.26-.98-12.49-6.91-19.93-7.9-6.19-.82-9.97-.15-9.92 7.16.1 17.84.15 35.68.05 53.51-.04 7.13 4.51 10.32 9.9 13.42 23.48 13.49 46.64 27.58 70.38 40.6 10.24 5.62 14.3 12.7 13.82 24.42-.5 12.34-1.16 24.59-3.52 36.68-2.51 12.84-5.97 14.45-17.05 8.01-6.25-3.61-12.06-8.04-19.86-7.1z" class="st8"/><path d="M887.21 880.54c3.31-1.58 6.62-3.16 9.94-4.74 5.81-.12 11.48-.45 13.17-7.69l-.05.01c8.71-1.15 17.98-.95 25.35-6.43 15.86-11.8 31.71-23.32 50.08-31.25 8.53-3.68 18.46-7.38 21.23-18.47l-.05-.01c12.91-2.65 11.65 8.34 14.59 15.28 2.36 4.93-4.34 10.47 1 15.2-4.17 7.07-1.72 18.31-13.04 20.88-3.16-.14-3.76 2.83-5.43 4.49-22.69 10.19-42.14 25.86-63.71 37.96-9.47 5.31-18.98 8.59-29.85 5.86l-12.88-.36c-1.44-4.28-4.68-7.92-3.21-13.14 2.09-7.46-1.49-13.05-7.14-17.59z" class="st11"/><path d="M996.32 745.67c-15.67 4.97-28.06 15.97-42.45 23.31-4.14 2.11-7.85 5-12.88 3.73v-32.7c15.25-9.27 31.53-16.83 45.81-27.73 22.96-12.58 46.6-23.94 68.14-39.07 9.99-7.02 13.91-4.46 15.33 7.29 2.02 16.71-2.73 28.74-19.23 35.18-5.83 2.27-11 6.25-16.47 9.45-14.59 3.39-26.74 11.37-38.25 20.54z" class="st7"/><path d="M1005.79 509.45c10.45-7.01 16.27-22.98 12.54-35.4-1.08-3.6-3.46-6.84-1.54-10.81 9.4-1.31 18.81-2.63 28.21-3.94 2.16 10.78 1.56 21.84 2.95 32.59 1.59 12.32 3.45 25.78 17.82 31.36.37 8.02.81 16.03 1.08 24.06.26 8.05-3.49 10.24-10.02 5.81-17.04-11.55-36.27-19.46-52.6-32.15.52-3.85 1.04-7.69 1.56-11.52z" class="st5"/><path d="M755 814.37c1.73.91 3.47 1.81 5.2 2.72 7.8 10.62 19.03 17.35 29.44 24.7 9.08 6.4 19.59 11.03 31.34 10.72 0 0 .44.34.43.34 8.31 10.64 19.63 15.72 32.59 17.77.77.24 1.56.39 2.37.45 1.13 2.38 2.98 3.86 5.53 4.48 2.7 1.61 5.4 3.21 8.1 4.82-.31 4.67-7.26 8.38-2.89 13.29 2.06 2.32 4.73-2.32 7.52-2.75.13 4.08-.73 8.89 5.44 9.18 2.25.11 4.17-1.49 3.95-3.84-.56-6.15-5.64-4.72-9.49-5.25l3.78-9.06c.55 0 1.08-.08 1.61-.23.49.68 1.06 1.27 1.73 1.78 12.77 16.26 12.11 18.4-7.51 24.54-.76.24-1.39.9-2.08 1.35l-9.98-.18-10.53.12c-6.57-.18-13.14-.35-19.7-.53 2.51-22.48-1.43-40.09-25.81-50.28-23.88-9.98-44.49-26.99-68.47-37.41 0-3.06-.01-6.12-.01-9.18 5.88.39 10.8 7.62 17.44 2.45z" class="st11"/><path d="M986.79 712.27c-14.28 10.9-30.55 18.46-45.81 27.73-18.69-12.56-37.57-24.78-58.27-33.87 3-10.22 15.71-8.28 20.38-16.4 5.49-5.04 9.74-1.68 15.38.81 10.06 4.43 19 18.93 32.36 5.92 10.76 8.11 23.88 10.76 35.96 15.81zM1014.2 429.35c-24.29.25-47.79-3.08-69.26-15.5 12.17-11.04 25.05-14.88 39.88-4.75 3.27 2.23 7.19 4.95 11.76 2.33 3.26.36 6.52.72 9.79 1.09 9.23-2.78 18.43-5.61 27.66-8.32 2.81-.82 5.76-1.96 8.58-1.78 7.41.46 15.7 3.52 17.49 9.99 1.65 5.96-7.6 5.76-12.04 8.14-10.53 5.65-22.46 6.27-33.86 8.8z" class="st4"/><path d="m1005.79 509.45-1.56 11.51c-9.37-4.25-18.75-8.5-28.12-12.74-5.47-11.67-.55-24.39-3.67-36.3.23-3.26.46-6.53.68-9.79 7.85.96 15.68 2.15 23.56 2.82 5.99.51 7.46 4.07 7.91 9.27 1.01 11.73 2.3 23.43 1.2 35.23z" class="st5"/><path d="M1065.77 523.23c-14.36-5.57-16.23-19.03-17.82-31.36-1.39-10.75-.78-21.81-2.95-32.59.3-.29.56-.66.92-.86 6.13-3.38 12.98-9.44 19.31-5.71 5.41 3.18 2.48 11.74 2.26 17.82-.63 17.57 2.35 35.26-1.72 52.7zM996.32 745.67c11.51-9.17 23.66-17.14 38.25-20.55.04 2.93-.22 5.89.16 8.77 1.66 12.53.44 23.4-14.36 27.09-8.02-5.1-16.03-10.21-24.05-15.31z" class="st8"/><path d="M1006.92 811.98c-2.77 11.09-12.7 14.78-21.23 18.47-18.38 7.93-34.22 19.45-50.08 31.25-7.36 5.48-16.64 5.28-25.35 6.43 8.66-9.67 20.81-14.37 31.5-20.74 18.4-10.95 37.47-20.84 55.77-32.07 2.78-1.7 6.25-2.26 9.39-3.34z" class="st18"/><path d="m1021.89 245.75 6.21 5.28c.26 5.39 3.11 9.84 5.22 14.56.01 1.61.01 3.21.02 4.81-1.77 5.79-5.12 10.33-10.51 13.22-3.37-3.17-6.74-6.34-10.11-9.52l-.76-.73c-.16-8.41-.31-16.82-.47-25.23 2.75-3.92 6.61-3.02 10.4-2.39z" class="st10"/><path d="M1052.68 246.84c2.88.99 6.38.38 8.51 3.31-2.42 8.23 1.01 17.19-3.16 25.2l-2.34 2.19c-3.49 1.32-6.97 2.64-10.46 3.96-9.49-7.14-4.68-16.98-4.82-25.88 4.61-2.2 6.08-8.82 12.27-8.78z" class="st2"/><path d="M972.44 471.91c3.12 11.91-1.8 24.63 3.67 36.3-.41.11-.81.3-1.22.33-5.59.47-11.84 7.06-16.28 1.86-3.79-4.44 1.67-10.27 4.3-14.81 4.33-7.49-.24-18.51 9.53-23.68z" class="st8"/><path d="M872.08 909.39c.69-.46 1.32-1.12 2.08-1.36 19.62-6.15 20.27-8.28 7.51-24.54 1.84-.98 3.69-1.97 5.54-2.95 5.65 4.54 9.23 10.13 7.13 17.61-1.47 5.23 1.77 8.87 3.21 13.14-8.67 1.8-17.35 3.76-25.47-1.9z" class="st18"/><path d="M1045.23 281.49c3.49-1.32 6.97-2.64 10.46-3.95 1.27 1.28 2.55 2.56 3.82 3.83-.12 4.76-.24 9.51-.35 14.27-12.51 4.02-13.29 3.23-13.93-14.15z" class="st7"/><path d="M1021.46 827.25c-2.94-6.94-1.68-17.93-14.59-15.28 4.83-5.79 11.03-8.92 18.51-9.54l1.59 4.47c-.01 5.64-.02 11.28-.02 16.93-2.16.62-4.39 1.11-5.49 3.42z" class="st18"/><path d="M1085.83 473.15c-2.11 3.82 3.85 13.49-4.23 13.31-7.26-.15-2.53-9.68-3.91-14.86-.21-.78-.11-1.68-.02-2.5.47-4.28-1.47-11.09 4.83-10.99 5.8.09 2.38 6.66 3.28 10.28.3 1.19.05 2.51.05 4.76zM1059.16 295.64l.36-14.27c-.49-2.01-.99-4.02-1.48-6.03 4.18-8 .74-16.97 3.16-25.2 3.53 7.38-.45 16.07 4.02 23.29v20.21c-1.17 2.86-2.33 5.71-3.99 9.76-.91-3.37-1.49-5.57-2.07-7.76z" class="st5"/><path d="M916.76 825.17c8.42-8.15 18.78-13.04 29.33-17.61-8.43 8.14-18.4 13.68-29.33 17.61zM889.98 840.25c7.85-6.11 15.87-11.93 25.71-14.45-7.22 7.23-15.62 12.36-25.71 14.45z" class="st15"/><path d="M866.52 837.62c7.76 2.07 15.07 8.3 23.66 2.56-1.76 4.88-7.54 3.92-10.38 7.22-5.07-2.38-10.36-4.45-13.28-9.78zM946.44 807.01c5.42-4.98 11.91-7.98 18.78-10.26-5.01 5.75-11.53 8.67-18.78 10.26zM966.62 795.94c4.29-4.71 9.68-7.48 15.76-8.98-4.03 5.17-9.63 7.55-15.76 8.98z" class="st15"/><path d="M1033.32 265.59c-2.11-4.72-4.95-9.17-5.22-14.56 3.73-.7 5.98 1.35 7.78 4.24-.85 3.44-1.71 6.88-2.56 10.32z" class="st5"/><path d="M910.32 868.11c-1.68 7.23-7.36 7.57-13.17 7.69 3.44-4.2 7.93-6.59 13.17-7.69z" class="st18"/><path d="M1040.61 309.82c2.68-4.39 5.11-5.59 8.2-5.75-.1 4.3-3.26 4.54-8.2 5.75zM897.19 374.63c-19.16 9.19-26.64 27.57-36.08 44.85-9.19 16.83-19.67 32.96-27.99 50.3-7.24 8.45-11.55 18.64-16.78 28.29-1.24.68-2.48 1.37-3.72 2.05-3.56-5.64-2.65-11.29-.03-16.95-1.68-4.38.85-9.43-2.14-13.6 2.7-6.33 1.62-12.77.59-19.21 3.08.1 6.16.2 9.25.29 3.05 2.65 5.56 6.42 11.43 5.08-2.01-4.74-6.06-5.77-9.79-7.21-2.94-3.24-6.76-4.68-10.92-5.42.03-1.07.06-2.15.08-3.22 5.69-.67 9.71 3.96 14.94 4.74 1.86 2.12 3.64 4.39 7.13 3.43-.28-4.01-3.77-3.64-6.1-4.75-3.98-4.05-4.29-11.24-11.01-12.94-2.08-1.36-3.18-3.12-2.36-5.69 3.21-.09 6.43-.19 9.65-.29 5.03 5.23 10.75 9.14 18.27 9.59l.26.59-.43-.44c-2.56-2.58-5.13-5.16-7.69-7.74 3.09-2.42 11.51 5.86 10.3-5.18 1.72.01 3.43.02 5.15.04l.34.39-.5-.23c-1.05-4.64-6.19-5.6-8.29-9.3.31-.4.62-.81.94-1.2l4.9.27c1.71.81 3.42 1.63 5.12 2.44.6.29.63 2.29 1.88.64l-2.03-.45c-1.6-.94-3.2-1.89-4.8-2.83-1.72-5.14-7.5-6.06-10.33-10.05l.02-.02c2.5-3.38 12.26 7.55 10.04-5.13l6.96.93c2.23 2.28 3.87 5.57 8.12 4.88-.13-4.51-3.99-4.91-6.65-6.54-3.82-2.49-7.53-5.17-11.49-7.42-3.57-2.03-6.42-1.52-7.05 3.3-5.92-2.04-1.84-5.64-.54-7.6 2.73-4.12 5.61.09 8.44.79 5.21 3.17 10.21 6.8 15.69 9.41 7.16 3.42 4.7-2.11 4.4-5.4 7.35-2.57.25-5.1-.02-7.64 2.8-.61 6.22 2.4 9.14-1.57-8.22-7.21-17.61-11.56-26.79-16.25-6.09-1.06-9.97 3.48-14.73 5.82-5.86 2.87-10.98 8.04-18.42 6.09.75-11.46-4.52-20.7-10.8-29.57 3.13-.81 5.71-1.86 3.86-6.02-4.92-11.03-12.61-8-20.49-4.21-2.51 1.45-5.11 2.78-7.52 4.39-11.96 7.94-16.03 24.3-8.6 34.29 2.91 3.08 3.52 7.9 7.6 10.1-.26 20.6-.98 41.21 2.48 61.65-1.04.67-2.08 1.34-3.12 2.02-.57-.13-1.1-.05-1.61.23l-.78-3.23c-.24-.87-.47-1.74-.71-2.61-.06-2.53-.08-5.06-.17-7.59-.69-19.87-.69-19.87-18.64-12.41.04-29.87.07-59.74.11-89.61 9.31 2.1 18.05 3.24 20.04-9.87.73-4.85 4.65-5.43 8.69-5.56 3.81-.12 7.73.13 11.38-.74 5.57-1.32 10.44-3.9 10.25-10.99-.2-7.07-5.22-9.41-10.82-10.45-4.11-.76-8.45-.1-12.66-.48-2.94-.27-7.54 3.46-8.5-1.64-.83-4.41.33-9.5 4.87-12.29 1.74-1.07 4.1-2.01 6.02-1.76 12.42 1.59 21.83-1.16 26.73-14.43 1.35-3.66 7.29-3.29 11.69-2.47 7.89 1.47 13.47-2.12 15.8-9.41 2.41-7.54 6.79-9.8 14.31-8.8 7.5 1 13.14-1.19 14.33-10.24.88-6.68 5.95-8.73 12.22-8.16l.48 23.37c-.03 2.1-.33 4.25-.05 6.31 1.52 11.19-1.05 19-13.38 22.9-6.05 1.91-13.8 5.08-14.74 13.89-1.22 1.7-2.12 3.85-3.73 5.01-5.98 4.31-8.78 10.58-5.13 16.5 3.69 5.98 8.82-1.21 13.46-1.33 4.7 15.64 18.65 18.78 31.45 23.47 3.05-.05 6.1-.09 9.16-.14 3.64 3.43 8.09 4.98 12.93 5.62 4.39 3.13 8.77 6.26 13.16 9.39-3.09 5.53-11.14 6.07-12.91 12.93 0 0-.07.06-.06.06-7.66.29-12.84 3.35-12.96 11.94zm-40.29 31.24.18.68-.35-.54c-.55-.44-1.09-.88-1.64-1.32-.1.42-.19.84-.29 1.26.7-.03 1.4-.06 2.1-.08zM770.53 741.3c-.9-.31-1.8-.62-2.71-.93-6.1-1.85 4.63-12.54-4.38-10.64-8.7 1.84-5.41-3.34-5.78-6.38-1.01-8.35 1.52-17.12-1.91-26.57-4.19 5.08-3.37 9.52-2.92 13.49 1.97 17.43-1.48 31.96-19.06 39.94-2.97 1.35-3.77 4.4-3.85 7.55-8.01-2.44-7.61-9.03-7.61-15.45.01-30.37-.01-60.75-.01-91.12 3.3-.27 6.74 2.51 9.93-.44 8.66-1.58 16.42-4.75 21.64-12.38 0 0 .59.38.6.38 5.19-1.93 10.38-3.85 15.57-5.77l2.57.33c.25 15.33.51 30.66.76 46 .03 2.48.05 4.95.08 7.43-.11 17.49-.23 34.97-.34 52.46l1.02.24c-.35.62-.8 1.17-1.34 1.64-.81-.47-1.56-.39-2.26.22zm-30.65-28.98c-.54.26-1.08.53-1.63.79.53-.28 1.05-.56 1.58-.84l.05.05zm5.56-40.58c4.95.59 7.06 4.71 11.82 7.08-5.11-7.32 9.59-13.77.76-18.43-6.85-3.62-6.53 8.6-12.58 11.35z" class="st8"/><path d="M774.58 444.19c.26 1.08.52 2.15.78 3.22-.22.63-.21 1.27.02 1.9l-.02.09c-.03 1-.06 2.01-.1 3.01.05 3.33.1 6.65.16 9.98-1.06 1.68-2.13 3.36-3.19 5.04-7.9-2.66-10.92-10.84-17.43-15.51-2.44 2.27-2.3 5.33-2.14 8.15.78 13.72-1.63 25.96-14.18 34.17-1.84 1.2-.4 2.9 1.38 3.65-1.19 2.81-.71 5.35.13 8.33 3.85 13.62-2.36 25.14-15.65 30-4.32-15.35-1.4-31.03-1.94-46.55-.52-15.18-.18-30.39-.12-45.59.02-5.98-.99-10.66 9.24-9.7 8.44.79 17.05-5.87 23.53-12.82 17.95-7.46 17.95-7.46 18.64 12.41.09 2.53.11 5.06.17 7.59l.72 2.63zm-28.77 11.99 1.06-.3-.77-.63-.29.93z" class="st8"/><path d="M724.35 536.22c13.29-4.86 19.5-16.39 15.65-30-.84-2.98-1.33-5.52-.13-8.33.54-.27 1.09-.54 1.63-.81-.55.27-1.09.54-1.64.81-1.78-.75-3.21-2.45-1.38-3.65 12.56-8.21 14.96-20.44 14.18-34.17-.16-2.82-.3-5.88 2.14-8.15 6.51 4.66 9.53 12.84 17.43 15.5l1.14 17.77c-1.97 5.9-3.94 11.81-5.9 17.71-3.3 1.3-4.39 4.08-4.85 7.29-3.52 7.36-5.53 15.66-12.84 20.64.13.91.25 1.81.38 2.71-.01.97-.02 1.94-.02 2.92-.82-.14-1.65-.15-2.47-.03-1.78.34-2.18 1.34-1.4 2.91.27.74.68 1.39 1.22 1.96-.14.78-.15 1.56-.05 2.34-2.62-.12-5.42-.77-6.88 2.42l-1.92 4.26c-1.27 2.1-2.53 4.21-3.8 6.31-3.36 2.47-2.65 6.63-4.09 9.9-6.37 3.84-7.46-1.02-7.49-5.26-.09-8.35.67-16.7 1.09-25.05z" class="st5"/><path d="M694.25 596.71c13.38-15.12 25.23-17.86 41.93-9.88 3.4 1.63 7.05 2.74 10.58 4.09 2.02 6.71 7.49 6.71 12.97 6.7 4.19 4.29 9.4 5.59 15.18 5.16 2.08 3.25 4.17 6.51 6.25 9.76-7.09 8.72-17.52 12.26-26.89 17.45-20.53-10.14-38.81-24.36-60.02-33.28z" class="st4"/><path d="M694.25 596.71c21.2 8.92 39.49 23.14 60.02 33.28.07 2.91.13 5.83.2 8.74 0 0-.59-.38-.6-.38-9.73-.3-19.76-1.15-21.64 12.38-3.19 2.95-6.63.17-9.93.44-3.54-6.95-11.05-8.9-16.86-12.65-9.28-5.98-12.81-13.46-11.54-24.16.69-5.81.27-11.76.35-17.65z" class="st7"/><path d="M759.73 597.62c-5.48.01-10.94.01-12.96-6.7l2.85-.6c.85.5 1.66 1.69 2.58.21.06-.09-1.03-.91-1.59-1.39-2.97-2.91-5.94-5.82-8.9-8.73.35-.44.7-.87 1.05-1.31 1.57.18 3.14.35 4.71.53 1.62.92 3.23 1.85 4.85 2.77.78.45 1.41 1.92 2.46.33-.63-.34-1.26-.68-1.9-1.02-1.75-.76-3.49-1.52-5.24-2.28-3.82-6.69-11.13-8.77-16.89-12.9 1.44-3.27.73-7.43 4.09-9.9 4.48 1.46 7.86 6.08 13.43 4.94.05-4.36-4.19-4.95-5.89-7.57 2.42.2 4.83.39 7.25.59 4.76 3.17 9.15 7.07 15.21 7.66 1.1.72 1.64 3.1 3.6 1.18l-2.73-2.16c-3.96-4.57-9.22-6.77-14.88-8.25-2.27-4.05-5.99-5.93-10.28-6.95 1.46-3.19 4.27-2.54 6.88-2.42 1.7.9 3.4 1.79 5.1 2.69l.13.09c3.94 4.44 8.66 7.46 16.06 6.73-2.84-2.25-5.68-4.49-8.53-6.74l.05-.06c2.41.17 4.83.33 7.24.5.88.45 1.76 1.71 2.65.16.08-.14-1.02-.97-1.57-1.48-.26-1.42-.51-2.85-.77-4.27 12.11-3.56 7.31-11.82 5.33-19.3l.3-3.4c2.99-11.12 3.42-22.23-.05-33.34l-1.14-17.77c1.06-1.68 2.13-3.36 3.19-5.04l1.23.01 1.23-.05.21 40.61c.07.84.14 1.68.22 2.52l.12 51.28c-.41 2.47-.09 4.71 1.98 6.4-1.61 2.39-1.43 4.82-.16 7.28-1.62 1.75-3.25 3.49-4.87 5.24-9.76 4.02-11.84 13.59-15.65 21.91z" class="st8"/><path d="M729.92 757.74c.07-3.14.88-6.2 3.85-7.55 17.58-7.98 21.03-22.51 19.06-39.94-.45-3.97-1.27-8.41 2.92-13.49 3.42 9.45.9 18.22 1.91 26.57.37 3.05-2.92 8.22 5.78 6.38 9.01-1.9-1.72 8.78 4.38 10.64-8.53 5.83-17.07 11.66-25.6 17.49-2.4 1.04-4.79 2.08-7.19 3.12-1.7-1.06-3.41-2.14-5.11-3.22z" class="st5"/><path d="M820.99 852.51c-11.76.31-22.27-4.32-31.34-10.72-10.41-7.35-21.64-14.08-29.44-24.7 21.85 9.05 43.66 18.19 60.78 35.42z" class="st18"/><path d="M704.08 672.95c0-2.19-.23-3.5.04-4.69.84-3.62-2.12-10.12 3.88-9.97 5.18.13 3.73 6.45 4.18 10.41.14 1.24.22 2.54.02 3.76-.85 4.98 2.43 14.02-3.52 13.97-8.09-.07-2.73-9.47-4.6-13.48zM706.21 364.88c8.69 10.73 5.68 20.04 5.28 28.94-.08 1.81-1.78 3.24-3.41 2.78-1.27-.37-2.9-2.09-3.06-3.37-1.05-8.54-1.47-17.11 1.19-28.35z" class="st7"/><path d="M854.01 870.62c-12.96-2.06-24.28-7.14-32.59-17.77 12.96 2.06 23.22 9.09 32.59 17.77z" class="st18"/><path d="M831.66 817.41c2.35-.28 4.7-.57 7.02-.86 6.6 7.58 17.61 9.65 23.16 18.59-11.64-3.19-21.5-9.46-30.18-17.73zM735.03 760.97c2.4-1.04 4.79-2.08 7.19-3.12 1.17 5.62 5.4 8.26 10.09 10.5 4.58 2.19 9.3 4.3 10.54 10.04-9.85-4.88-21.06-7.57-27.82-17.42zM764.31 779.16c12.27 1.18 22.05 6.66 29.1 16.9-10.75-3.81-20.63-9.14-29.1-16.9z" class="st15"/><path d="M755 814.37c-6.64 5.17-11.56-2.06-17.44-2.44-.13-1.77-.26-3.54-.4-5.32.16-.77.16-1.55 0-2.32 6.52 2.36 13.26 4.29 17.84 10.08zM878.33 881.94l-3.78 9.06.09-.09c-2.79.43-5.46 5.07-7.52 2.75-4.37-4.91 2.58-8.62 2.89-13.29 2.77.52 5.55 1.05 8.32 1.57z" class="st18"/><path d="M796.73 797.54c6.76-.27 11.57 2.69 14.47 8.8-5.75-1.39-10.6-4.27-14.47-8.8z" class="st15"/><path d="M861.91 875.55c-2.54-.62-4.4-2.1-5.53-4.48 2.78.33 4.6 1.85 5.53 4.48z" class="st18"/><path d="M861.67 834.9c1.76.93 3.51 1.86 5.27 2.8-2.36.22-4.24-.48-5.27-2.8z" class="st15"/><path d="M741.69 580.42c-.56-.5-1.66-1.32-1.59-1.46.89-1.55 1.76-.3 2.64.15-.35.43-.7.87-1.05 1.31z" class="st12"/><path d="M814.27 809.12c.62.66 1.25 1.31 1.87 1.97-.63-.66-1.25-1.31-1.87-1.97z" class="st15"/><path d="M1004.29 901.18c-27.13 18.55-56.03 34.09-84.55 50.28-10.46 5.94-20.67 12.33-30.95 18.58-5.9 3.59-11.71 3.89-17.76.33-37.85-22.22-75.72-44.4-113.59-66.59-.08-2.61-.15-5.22-.23-7.83-.07-2.47-.15-4.93-.21-7.4.25-1.02.49-2.03.73-3.05 19.97 11.85 39.81 23.95 59.98 35.45 11.31 6.45 22.71 15.18 34.94 17.02 18.98 2.85 38.74 2.59 58.11-.27 2.32-.77 4.99-1.03 6.9-2.37 27.64-19.41 59.68-31.51 86.43-52.38.12 4.36.23 8.73.35 13.09-.07 1.71-.11 3.43-.15 5.14z" class="st6"/><path d="M756.99 888.55c.07 2.47.15 4.93.22 7.4-2.45 1.06-3.97 2.96-4.79 5.46-18.88-11.33-39.2-20.23-56.67-33.91 11.98-12.86 27.28-19.93 43.59-25.22-1.96 11.39 6.18 16.94 13.25 23.11 1.25 7.76-3.17 16.61 4.4 23.16zM1004.42 896.04c-.12-4.36-.23-8.73-.35-13.09.11-.81.36-1.59.74-2.31l4.62-17.3c11.31-2.58 8.87-13.81 13.04-20.88 5.48-.25 9.36 3.31 13.61 5.89 9.3 5.65 18.15 12.19 29.01 14.74 1.01 1.48 2.03 2.95 3.04 4.43-17.13 6.37-30.87 18.94-47.56 26.17-3.72 1.61-6.8 4.69-11.14 5.01-1.67-.89-3.34-1.77-5.01-2.66z" class="st2"/><path d="M1068.12 867.52c-1.01-1.48-2.03-2.95-3.04-4.43 2.12-10.58-1.59-17.31-11.61-22.29-9.32-4.63-18.98-9.31-26.54-16.98.01-5.64.02-11.28.02-16.93 14.26 8.12 28.52 16.25 42.79 24.37.89 1.18 1.77 2.36 2.66 3.54 1.85 1.28 3.7 2.56 5.55 3.83 0 0-.38.37-.38.38-.12 2.74.63 5.12 2.83 6.89-.21.44-.25.89-.12 1.35.1.95.19 1.91.29 2.86 1.47 2.78 2.95 5.56 4.43 8.34.92.61 1.85 1.21 2.77 1.82 1.67 3.62 3.34 7.25 5.02 10.87.97 1.52 1.93 3.04 2.9 4.57l2.33 2.9c-.86 1.72-1.72 3.45-2.58 5.17-9.11-5.41-18.21-10.84-27.32-16.26z" class="st14"/><path d="M737.17 806.61c.13 1.77.26 3.54.4 5.32.01 3.06.01 6.12.01 9.19-.11.93-.23 1.86-.34 2.78-19.25 10.47-39.45 19.35-56.42 33.66-1.99-.6-4.16-.87-5.93-1.87-3.53-2.01-8.91-2.96-9.19-7.63-.29-4.85 5.02-6.46 8.51-8.24 21.15-10.77 39.15-27.57 62.96-33.21z" class="st5"/><path d="M680.82 857.56c16.97-14.32 37.17-23.2 56.42-33.66-.08 6.22 3.71 11.99 2.1 18.38-16.32 5.3-31.62 12.37-43.59 25.23-6.62-.85-9.86-6.78-14.93-9.95z" class="st6"/><path d="M752.42 901.41c.83-2.5 2.34-4.4 4.79-5.46.07 2.61.15 5.22.23 7.83-1.96-.18-4.02-.15-5.02-2.37zM1004.42 896.04c1.67.89 3.34 1.77 5.01 2.66-.9 2.53-3.11 2.33-5.14 2.48.04-1.71.08-3.43.13-5.14zM1189.82 107.82c6.76-.2 13.53-.39 20.29-.59-6.39 13.07-13.34 7.13-20.29.59z" class="st1"/><path d="M1263.54 173.73c.91.67 1.81 1.34 2.72 2.01-2.53 1.54-1.9-1.21-2.72-2.01.01 0 0 0 0 0z" class="st2"/><path d="M725.13 985.79c-8.11-2.17-19.65-1.71-20.04-12.91-.39-11.34 10.12-12.77 19.32-12.95 10.34-.2 23.83 7.98 22.29 13.89-2.84 10.85-12.77 10.31-21.57 11.97z" class="st9"/><path d="M791.21 1006.89c-11.65 7.41-11.65 7.41-23.68 1.32 9.99-6.29 10.51-6.33 23.68-1.32z" class="st15"/><path d="M607.48 868.6c7.56-5.55 10.72-3.87 14.76 7.86-5.31-1.87-10.44-4.09-14.76-7.86z" class="st17"/><path d="M819.47 1029.66c-2.07 2.05-4.38 4.62-7.4 3.08-4.18-2.13 0-5.92-.97-8.83 2.8 1.92 5.59 3.84 8.37 5.75z" class="st3"/><path d="M923.14 349.67c-4.39-3.13-8.77-6.26-13.16-9.39-3.45-10.03-4.68-21.16-14.04-28.23-.24-8.47-.68-16.94-.64-25.4.03-6.01 2.75-7.78 7.91-3.88.34.26.66.54 1.02.76 38.67 23.05 38.64 23.05 38.43 67.92-.03 5.72-1.62 8.36-7.44 5.12-4.06-2.25-8.05-4.6-12.08-6.9z" class="st4"/><path d="M887.9 334.8c-12.8-4.69-26.75-7.83-31.45-23.47-.88-6.88 4.12-15.1-4.6-20.17.94-8.81 8.69-11.98 14.74-13.89 12.33-3.9 14.9-11.71 13.38-22.9-.28-2.06.02-4.21.05-6.31 8.75 12.19 4.8 26.66 6.52 39.99 1.97 15.37 1.03 31.14 1.36 46.75z" class="st5"/><path d="M996.59 411.42c-4.57 2.63-8.5-.09-11.76-2.33-14.83-10.13-27.71-6.29-39.88 4.75-10.61-5.24-21.22-10.49-31.83-15.73 4.4-12.05 18.63-11.24 25.68-19.82 8.84.96 15.37 6.77 22.56 11.05 11.9 7.1 23.5 14.7 35.23 22.08z" class="st7"/><path d="M1022.16 294.09c3.55 3.69 19.22 3.23 4.33 13.47-1.8 1.24 4.96 5.51 2.97 9.89-17.02-3.9-20.58-8.02-18.43-21.28 3.72-.7 7.42-1.39 11.13-2.08z" class="st8"/><path d="M895.94 312.05c9.36 7.06 10.59 18.2 14.04 28.23-4.84-.64-9.29-2.18-12.93-5.62-2.77-7.42-1.05-15.06-1.11-22.61z" class="st5"/><path d="M961.42 346.08c-1.53 4.83 2.28 14.21-3.68 14.06-7.75-.19-3.84-9.54-4.04-14.78-.18-4.84-2.95-13.86 3.84-13.66 6.46.19 2.37 9.26 3.88 14.38zM992.07 363.8c-2.57 4.39 3.69 13.8-4.54 13.96-6.14.12-3.65-9-3.61-13.99.03-4.91-2.88-13.68 3.4-13.86 7-.2 3.23 8.66 4.75 13.89z" class="st8"/><path d="m1022.16 294.09-11.12 2.07 1.68-22.06c3.37 3.17 6.74 6.35 10.12 9.52.81 3.56 5.02 7.33-.68 10.47z" class="st7"/><path d="M1011.49 248.14c.16 8.41.31 16.82.47 25.23-3.86-8.33-3.46-16.76-.47-25.23z" class="st8"/><path d="M895.16 1021.23c1.8-2.73 4.23-4.39 7.58-4.51-1.58 3.12-4.29 4.3-7.58 4.51zM903.74 1016.24c-.22-.67-.51-1.31-.84-1.92l4.65-.48-3.81 2.4zM890.39 1023.87c1.5-.84 3-1.69 4.5-2.53-1.5.84-3 1.68-4.5 2.53z" class="st3"/><path d="M1141.53 1000.72c.31 2.87 4.04 5.43 1.9 8.21-2.44 3.16-6.31 1.68-9.42.58-5.16-1.83-10.17-4.13-15.24-6.23 6.56-10.05 14.54-7.36 22.76-2.56z" class="st0"/><path d="M1092.79 871.15c-1.67-3.62-3.34-7.25-5.01-10.87 3.6-.05 6.33-1.66 8.3-4.64 3.15-.28 6.3-.55 9.45-.83 0 0 .51.56.5.56-1.04 3.7-7.41 3.37-6.73 8.83 5.23-1.7 9.38-4.22 11.8-9.02l-.17.09 7.59-.21.7.69c-.2 1.55-.41 3.09-.62 4.62l.13-.12c-.9.9-1.79 1.8-2.69 2.7l.17-.12c-6.46-.06-11.63 2.47-15.43 7.75l.17-.1c-2.73.23-5.45.45-8.16.67z" class="st5"/><path d="M1156.66 868.3c-5.74 3.29-11.48 6.57-17.22 9.86-4.32-6 0-8.99 4.17-12 5.06-3.66 9.27-2.06 13.05 2.14z" class="st14"/><path d="M1118.59 860.37c2.99.76 8.34.71 2.81 5.39-3.49 2.95-7.86 4.95-12.73 5.01l-.29-.36c2.6-2.52 5.2-5.05 7.81-7.57l-.17.12c.9-.9 1.79-1.8 2.69-2.7l-.12.11zM1098.01 878.62l-2.33-2.9c1.75-1.74 3.5-3.49 5.24-5.23l-.17.1c2.54-.06 5.09-.12 7.63-.17 0 0 .28.35.29.36-1.95 4.79-6.33 6.28-10.66 7.84z" class="st5"/><path d="M735.36 285.97c-.04-7.22-.23-14.44-.05-21.65.07-2.56 1.3-5.45 4.23-5.49 3.69-.05 3.22 3.46 3.02 5.7-.76 8.69 2.63 17.78-2.4 26.05-1.6-1.53-3.2-3.07-4.8-4.61z" class="st7"/><path d="M735.36 285.97c1.6 1.54 3.2 3.08 4.81 4.62-6.11 3.17-5.19-1.01-4.81-4.62z" class="st7"/><path d="M1072.41 834.81c-.88-1.18-1.77-2.36-2.66-3.54 6.19-2.07 11.37-6.95 18.4-6.64l-.03-.05c-1.72 2.58-3.43 5.16-5.15 7.74l.17-.1c-1.75.88-3.51 1.76-5.26 2.65l.15-.11c-1.87.01-3.75.03-5.62.05zM1100.94 816.88c-1.78 2.97-4.49 4.56-7.81 5.23 1.56-3.31 4.31-4.85 7.81-5.23z" class="st8"/><path d="M1093.29 821.97c-.04.89-.09 1.78-.13 2.68l.13-.12c-1.72.01-3.44.03-5.16.04l.03.05c1.71-.88 3.42-1.76 5.13-2.65zM1085 858.46c-1.47-2.78-2.95-5.56-4.42-8.34 6.58.66 11.49-4.58 17.75-5.07l-.06-.08c0 1.74-.01 3.47-.01 5.21l.13-.12c-3.75 0-6.78 1.08-7.78 5.22l.17-.1c-1.68.84-3.37 1.67-5.05 2.51-.01 0-.73.77-.73.77zM1111.1 855.17c-2.42 4.81-6.57 7.33-11.8 9.02-.68-5.45 5.69-5.13 6.73-8.83 1.69-.06 3.38-.12 5.07-.19zM1077.58 839.01s.38-.37.38-.38c.02-1.3.05-2.59.07-3.89l-.15.11c1.75-.88 3.51-1.76 5.26-2.65l-.17.1c1.72-.01 3.45-.03 5.17-.04l-.04-.04-2.58 7.74.13-.11c-2.68-.28-5.38-.56-8.07-.84zM1105.53 854.81c-3.15.28-6.3.55-9.45.83l-.45-.6c.92-1.66 1.84-3.31 2.76-4.97l-.13.12c2.56-.02 5.12-.04 7.68-.07-.14 1.56-.28 3.13-.41 4.69zM1098.04 836.8c2.47-3.82 5.14-6.25 6.73-5.12 2.83 2-.77 2.9-2 3.88-.8.63-2.11.6-4.73 1.24z" class="st8"/><path d="M1093.15 824.65c2.57 0 5.15-.01 7.72-.01l-.09-.12c-.78 3.93-3.53 5.34-7.15 5.64l-.73-.78c.13-1.62.26-3.24.38-4.86 0 .01-.13.13-.13.13zM1103.07 842.12c1.87-2.71 4.05-4.92 8.69-4.94-1.52 4.38-4.94 4.84-8.17 5.55-.01-.01-.52-.61-.52-.61zM1118.51 855.06l-7.59.21c2.5-1.47 4.87-7.56 7.59-.21zM1080.29 847.26c-.12-.47-.08-.92.12-1.35 1.73-1.14 3.47-2.28 5.2-3.42l-.06-.06c-.46 3.02-2.36 4.48-5.26 4.83z" class="st8"/><path d="M1098.33 845.05c1.58-.97 3.17-1.95 4.74-2.93 0-.01.51.6.51.6-1.77.75-3.55 1.5-5.32 2.25l.07.08zM1085.53 839.97c.71.62 1.42 1.23 2.13 1.85-.7.2-1.4.41-2.1.61l.06.06c.01-.88.03-1.75.04-2.63 0-.01-.13.11-.13.11z" class="st8"/><path d="M1093.63 830.17c-1.84.69-3.67 1.37-5.51 2.06l.04.04c1.58-.96 3.17-1.92 4.75-2.88l.72.78zM1100.87 824.64l1.8-.9c-.22.26-.39.64-.67.74-.37.13-.82.05-1.23.05.01-.01.1.11.1.11zM1113.63 845.07l-.66.6.55-.71z" class="st12"/><path d="m1113.52 844.96.6-.45-.49.56z" class="st12"/><path d="M658.72 988.01c-.8.05-1.58.17-2.36.35.46-3.38-7.33-4.12-2.8-8.81 3.28 1.86 4.9 4.73 5.16 8.46z" class="st6"/><path d="M1131.89 1029.53c.09 2.65-1.62 3.62-3.83 3.8-2.99.24-6.12.02-6.83-3.64-.37-1.87 1.6-2.61 3.26-3.04 3.09-.8 6.97.7 7.4 2.88z" class="st0"/><path d="M678.83 1063.76c-2.35.28-4.7.57-7.04.84 2.09-2.5 4.49-2.31 7.04-.84z" class="st2"/><path d="M816.34 498.06c5.23-9.65 9.54-19.84 16.78-28.29 12.81 3.18 16.52 12.66 13.02 23.65-3.15 9.87-2.47 18.48 1.68 27.62 2.94.97-.59-6.35 3.71-3.61 1.33.85-1.46 5.8 3.67 3.77 2.75-1.09 4.39-2.43 4-5.45-.43-3.36-2.23-7.11-1.27-9.94 1.41-4.16-7.76-10.04 1.78-12.29 7.14-1.68 12.06 2.62 16.04 7.88.92 1.22 1.65 3.83 1 4.8-12.02 17.77 9.03 37.21-2.88 55.35-2.01 3.06 4.24 8.65 3.29 14.07-.43 2.47-.18 5.09-.07 7.63.38 8.81-11.04 17.42-.22 26.66 1.3 1.11.37 5.93-.72 8.53-2.29 5.42-7.65 9.17-12.61 9.44-6.5.36-5.55-7.49-5.18-10.9.87-8.09-1.99-14.03-5.46-20.94-3.9-7.76-.82-16.41 5.76-26.46-10.47 3.41-17.64 4.97-12.97 16 .8 1.88 1.24 4.29.83 6.24-4.02 19.11 4.98 39.54-5.85 57.97-.74 1.26-1.17 3.46-.59 4.66 10.14 20.83 10.08 21.44-6.17 39.99l.07-.05c-4.64-1.95-12.3 3.15-14.13-4.47-2.61-10.82-3.53-21.97 9.66-29.78-10.34 1.36-10.3-4.47-11.06-10.92-1.03-8.63 4.38-16.68 2.39-24.82-4.67-19.11 1.44-38.4-1.89-57.48-.84-4.81 3.3-8.55 4.8-12.91.54-.27 1.08-.53 1.62-.8-.53.27-1.07.55-1.6.82-9.09-7.13-5.46-17.17-4.34-25.56 1.42-10.68-.55-20.43-3.09-30.41zm22.67 48.33c11.56-1.81 5.51 8.65 9.88 14.21-1.54-12.01 6.64-18.46 10.53-26.91.54-.32 1.08-.65 1.62-.97-.58.28-1.16.55-1.74.83-4.23.88-8.45 1.75-12.68 2.63l.02-.02c-2.55 3.4-5.1 6.8-7.65 10.21-.54.28-1.08.57-1.63.85.56-.27 1.11-.55 1.65-.83zM827.24 707.76c-1.88-.02-3.77-.04-5.65-.05 1.4-7 8.37-8.76 12.39-13.31l-.07.05c2.52.8 5.05 1.59 7.57 2.39-4.1 4.49-10.91 5.42-14.24 10.92zM897.19 374.63c.12-8.59 5.3-11.65 12.98-11.98-.37 8.32-6.41 10.45-12.98 11.98z" class="st4"/><path d="M882.72 719.72c20.69 9.09 39.58 21.31 58.27 33.87v32.7c-17.02-5.86-34.45-10.79-40.76-31.21-3.08-9.98-8.12-19.29-16.32-26.35-3.06-2.63-5.92-5.34-1.19-9.01z" class="st7"/><path d="M910.74 937.7c-19.36 2.86-39.12 3.12-58.11.27-12.23-1.84-23.62-10.57-34.94-17.02-20.17-11.5-40.01-23.6-59.98-35.45-3.61-5.5-2.69-11.57-2.2-17.59 12.31 10.12 27.74 14.88 40.69 23.97 10.87 7.63 21.63 15.85 35.66 16.92 6.57.18 13.14.35 19.7.52 3.53 2.24 7.04 2.23 10.53-.11l9.98.18c8.12 5.66 16.8 3.7 25.47 1.91l12.87.36c.12 8.68.23 17.36.33 26.04z" class="st14"/><path d="M910.74 937.7c-.11-8.68-.21-17.37-.32-26.05 10.87 2.73 20.39-.55 29.85-5.86 21.57-12.1 41.02-27.78 63.71-37.96.27 4.27.54 8.53.82 12.8-.38.73-.62 1.5-.74 2.31-26.75 20.88-58.78 32.98-86.43 52.38-1.9 1.35-4.57 1.62-6.89 2.38z" class="st12"/><path d="M1026.94 823.82c7.56 7.67 17.22 12.35 26.54 16.98 10.02 4.98 13.72 11.71 11.61 22.29-10.86-2.56-19.7-9.09-29.01-14.74-4.25-2.58-8.13-6.14-13.61-5.89-5.34-4.74 1.36-10.27-1-15.2 1.09-2.32 3.32-2.81 5.47-3.44z" class="st6"/><path d="M1004.81 880.63c-.27-4.27-.54-8.53-.82-12.8 1.67-1.67 2.27-4.64 5.43-4.49-1.53 5.76-3.07 11.53-4.61 17.29z" class="st1"/><path d="M831.86 908.8c-14.03-1.07-24.78-9.28-35.66-16.92-12.95-9.09-28.38-13.85-40.69-23.97-.98-.84-1.95-1.68-2.93-2.53-7.07-6.17-15.21-11.71-13.25-23.11 1.62-6.4-2.17-12.17-2.1-18.38.11-.93.22-1.85.34-2.78 23.98 10.41 44.59 27.42 68.47 37.4 24.4 10.2 28.33 27.81 25.82 50.29zM874.55 891c3.85.54 8.93-.9 9.49 5.25.21 2.35-1.71 3.95-3.95 3.84-6.17-.3-5.31-5.1-5.44-9.18-.01 0-.1.09-.1.09zM862.1 909.21c-3.49 2.34-6.99 2.36-10.53.11 3.51-.03 7.02-.07 10.53-.11z" class="st18"/><path d="M1058.03 275.34c.49 2.01.99 4.02 1.48 6.03-1.28-1.27-2.55-2.55-3.82-3.83.78-.74 1.56-1.47 2.34-2.2z" class="st8"/><path d="M808.74 469.69c-.07-15.33-.13-30.66-.2-45.98.25-.74.23-1.47-.06-2.19.28-15.52.66-31.03.78-46.55.04-4.59-.25-9.32-4.3-12.6-1.72-11.09-7.35-11.43-15.43-5.79-7.09 4.95-14.97 8.94-19.52 16.85-7.43-9.99-3.36-26.35 8.6-34.29 2.41-1.6 5.01-2.93 7.51-4.38 5.54 3.41 11.09 6.82 16.64 10.23 6.28 8.87 11.55 18.11 10.8 29.57-1.45 12.51-.63 24.98.72 37.43-6.02 3.96-3.05 8.33-.58 12.68-.82 2.57.28 4.33 2.36 5.69-3.19 2.37-6.09 4.89-4.96 9.52-.03 1.07-.06 2.15-.08 3.23l.03 7.25c1.03 6.44 2.11 12.88-.59 19.21-.58 0-1.15.04-1.72.12z" class="st16"/><path d="m810.91 713.33.15.37 1.2-11.43c-.02-1.19-.04-2.38-.07-3.57.13-3.07.27-6.14.4-9.21 1.42-5.99 2.15-11.99-.02-17.98-.09-1.68-.19-3.37-.28-5.05 4-10.89 8.04-21.77-1.23-32.15.01-1.47.01-2.94.02-4.41 6.17-2.74 4.43-8.47 4.87-13.28.99-10.98-3.19-21.88-.61-32.91.33-7.64 4.45-15.99-4.1-21.96 4.67-20.45-1.31-41.15 1.39-61.65 1.24-.68 2.48-1.37 3.72-2.05 2.54 9.98 4.51 19.72 3.08 30.43-1.12 8.38-4.75 18.43 4.34 25.56l-.02-.03c-1.5 4.36-5.64 8.09-4.8 12.91 3.33 19.07-2.78 38.36 1.89 57.48 1.99 8.13-3.42 16.18-2.39 24.82.77 6.45.72 12.28 11.06 10.92-13.19 7.81-12.27 18.96-9.66 29.78 1.84 7.62 9.49 2.52 14.13 4.47-4.01 4.55-10.99 6.31-12.38 13.31-2.61 3.73-5.7 6.51-10.69 5.63z" class="st8"/><path d="M814.29 411.97c-1.35-12.45-2.17-24.92-.72-37.43 7.44 1.94 12.57-3.22 18.43-6.1 4.76-2.34 8.65-6.88 14.73-5.82l-.09 5.08c-3.27 2.8-8.4 5.14-2.57 10.24.14.75.43 1.44.85 2.08-.2 1.35-.4 2.7-.61 4.05-2.83-.7-5.71-4.91-8.44-.79-1.3 1.96-5.38 5.56.55 7.6l-.08-.2c1.05 2.3 2.89 3.01 5.27 2.65l-.18-.09c1 2.41 2.9 3.01 5.28 2.65l-.2-.15c2.22 12.69-7.54 1.75-10.04 5.14-.54-.89-.86-2.45-2.28-.78.75.27 1.51.54 2.26.8 2.82 3.99 8.61 4.91 10.33 10.05l-.18.21-4.9-.27-5.01-2.58c-2.62-3.08-5.33-5.99-10.76-5.55 2.56 4.43 6.26 5.54 10.25 6.18 1.53 1.05 3.06 2.1 4.59 3.16 2.1 3.7 7.24 4.66 8.29 9.3l.16-.17c-1.72-.01-3.43-.02-5.15-.04l.14.17c-2.1-2.44-4.67-3.47-7.86-2.63l.2.11c-.83-3.77-3.04-5.32-6.86-4.29l1.89 3.93-.18.25c-5.78.31-10.12-3.73-15.33-5.13-.57-.57-1.17-1.11-1.78-1.63z" class="st7"/><path d="m812.25 702.27-1.2 11.43c-.63-2.41-2.04-4.93-1.76-7.23 2.43-19.48-4.16-38.47-2.92-57.86.53-.77 1.06-1.55 1.6-2.32 2.48-32.54.51-65.13 1.13-97.7.42-22.01-.35-44.03-.58-66.05 1.36.21 2.72.41 4.08.62-2.62 5.65-3.53 11.3.03 16.95-2.7 20.5 3.28 41.19-1.39 61.64-.8 6.89-.73 13.74.9 20.52-2.44 15.83-1.74 31.73-1.05 47.63-.01 1.47-.01 2.94-.02 4.4-.99 10.77-1.84 21.54 1.23 32.16.09 1.68.19 3.37.28 5.05-2.35 5.99-2.71 11.99.02 17.98-.13 3.07-.27 6.14-.4 9.21.01 1.19.03 2.38.05 3.57z" class="st16"/><path d="M851.84 291.15c8.72 5.07 3.73 13.3 4.6 20.17-4.64.13-9.76 7.31-13.46 1.33-3.66-5.92-.85-12.19 5.13-16.5 1.61-1.15 2.51-3.31 3.73-5z" class="st7"/><path d="M802.77 344.97c-5.55-3.41-11.1-6.82-16.64-10.23 7.89-3.79 15.58-6.82 20.5 4.21 1.85 4.17-.73 5.21-3.86 6.02z" class="st8"/><path d="m846.64 367.71.09-5.08c9.18 4.69 18.57 9.03 26.8 16.25-2.92 3.97-6.34.96-9.14 1.57l.11.06c-1.75-.88-3.49-1.76-5.24-2.63l.16.11c-1.35-3.59-4.27-4.77-7.75-5.12-1.68-1.73-3.36-3.45-5.03-5.16z" class="st4"/><path d="M811.1 439.87c-1.13-4.64 1.77-7.16 4.96-9.52 6.72 1.7 7.03 8.89 11.01 12.94-.34.45-.68.89-1.03 1.33-5.23-.79-9.25-5.41-14.94-4.75z" class="st7"/><path d="m844.31 384.08.6-4.05c6.71 2.3 12.01 8.02 19.62 8.15l-.13-.09c.3 3.29 2.77 8.82-4.4 5.4-5.48-2.61-10.48-6.24-15.69-9.41zM853.47 396.68l-6.96-.93.2.15c-1.76-.88-3.52-1.76-5.28-2.65 0 0 .18.09.17.09-1.76-.88-3.52-1.77-5.27-2.65l.08.2c.62-4.81 3.48-5.33 7.05-3.3 3.95 2.25 7.67 4.93 11.49 7.42-.5.56-.99 1.11-1.48 1.67z" class="st4"/><path d="M844.07 421.19c1.21 11.04-7.21 2.76-10.3 5.18l.23.14c.03-.98.06-1.96.08-2.94-.89-1.61-1.78-3.22-2.67-4.84l.18-.25 4.96.36-.2-.11c2 2.74 4.63 3.59 7.86 2.63l-.14-.17zM813.71 424.65c-2.47-4.35-5.44-8.72.58-12.68.62.52 1.21 1.06 1.79 1.62.41 5.04 5.31 6.72 7.66 10.3l-.39.48c-3.22.1-6.43.19-9.64.28z" class="st7"/><path d="M812.6 483.17c-1.36-.21-2.72-.41-4.08-.62-3.08-4.34-2.95-8.63.22-12.86.57-.08 1.14-.12 1.72-.12 2.99 4.17.46 9.22 2.14 13.6z" class="st2"/><path d="M864.38 380.45c.27 2.55 7.37 5.08.02 7.64l.13.09c-4.24-3.4-8.49-6.8-12.73-10.2h7.62l-.16-.11c1.75.88 3.49 1.76 5.24 2.63l-.12-.05z" class="st4"/><path d="M841.63 433.95c-7.52-.45-13.24-4.35-18.27-9.59-.01.01.39-.48.39-.48 2.59.8 5.17 1.61 7.76 2.41.82.19 1.65.26 2.5.21l-.23-.14c2.56 2.58 5.13 5.16 7.69 7.74l.16-.15z" class="st7"/><path d="M780.09 445.17c.3 5.86 1.23 11.8-2.21 17.17l-1.23.05-1.23-.01c-.05-3.33-.1-6.65-.16-9.98.03-1.01.07-2.01.1-3.01l.02-.09c.53-.71 1.06-1.42 1.59-2.12 1.04-.66 2.08-1.34 3.12-2.01z" class="st2"/><path d="M821.94 448.52c3.73 1.44 7.78 2.48 9.78 7.22-5.87 1.34-8.39-2.43-11.43-5.09.56-.72 1.11-1.42 1.65-2.13z" class="st4"/><path d="m811.04 450.36-.03-7.25c4.16.74 7.98 2.18 10.92 5.42-.54.7-1.09 1.41-1.64 2.13-3.08-.11-6.16-.2-9.25-.3zM854.95 395.01c2.65 1.63 6.52 2.04 6.65 6.54-4.25.7-5.89-2.59-8.12-4.88.48-.55.97-1.1 1.47-1.66z" class="st4"/><path d="M827.07 443.29c2.33 1.11 5.82.74 6.1 4.75-3.49.97-5.27-1.31-7.13-3.43.35-.43.7-.88 1.03-1.32z" class="st7"/><path d="M846.78 410.95c1.6.94 3.2 1.89 4.8 2.83l.15-.18c-1.71-.81-3.42-1.63-5.12-2.44 0-.01.17-.21.17-.21zM856.9 405.87c-.7.03-1.4.05-2.1.08.1-.42.19-.84.29-1.26.55.44 1.09.88 1.64 1.32l.17-.14z" class="st17"/><path d="m851.58 413.78 2.03.45c-1.25 1.65-1.28-.35-1.88-.64 0 .01-.15.19-.15.19zM856.73 406.01l.34.54-.17-.68zM849.06 421.39l.5.23-.34-.4z" class="st17"/><path d="M774.58 444.19c-.24-.87-.48-1.75-.71-2.62.24.88.47 1.75.71 2.62zM776.97 447.19c-.53.71-1.06 1.42-1.59 2.12-.23-.63-.24-1.27-.02-1.9a2.26 2.26 0 0 1 1.61-.22z" class="st14"/><path d="m841.46 434.11.43.44-.27-.59z" class="st17"/><path d="M776.43 773.08c3.26-.62 6.51-.98 9.63.53-2.29 3.41-5.61 1.97-8.62 1.92-.69-.52-1.38-1.04-2.08-1.56.18-.51.54-.81 1.07-.89z" class="st12"/><path d="M811.28 739.68c-3.33-2.81-2.75-4.84 1.26-6.16 1.34 2.43 1.67 4.64-1.26 6.16zM810.48 721.83c-1.36-1.15-1.47-2.31 0-3.44v3.44z" class="st16"/><path d="M775.36 773.97c.7.52 1.39 1.04 2.08 1.56-1.08-.01-2.62.62-2.08-1.56zM770.53 741.3c.7-.6 1.46-.68 2.27-.24-.77.08-1.52.16-2.27.24z" class="st15"/><path d="M778.74 648.21c-1.22 3.72-1.14 7.4.26 11.05v6.56c-3.27 19.8.72 39.78-1.51 59.61-.55 4.91 1.1 10.43-4.37 13.74.11-17.48.22-34.97.34-52.45 1.63-2.49 1.68-4.97-.08-7.44-.25-15.33-.51-30.66-.76-46 .16-.83.23-1.66.21-2.51l7.17-2.55.39 17.12c-.55.97-1.1 1.92-1.65 2.87z" class="st12"/><path d="m779.99 628.23-7.17 2.55c-.93.73-1.86 1.45-2.78 2.18-5.19 1.92-10.38 3.85-15.57 5.77-.07-2.91-.13-5.83-.2-8.74 9.36-5.19 19.79-8.73 26.89-17.45 10.28 6.03 1.65 10.64-1.17 15.69z" class="st7"/><path d="M745.44 671.74c6.05-2.75 5.73-14.97 12.58-11.35 8.83 4.67-5.88 11.11-.76 18.43-4.76-2.37-6.87-6.49-11.82-7.08z" class="st5"/><path d="M732.24 650.74c1.87-13.53 11.91-12.68 21.64-12.38-5.23 7.63-12.99 10.8-21.64 12.38z" class="st7"/><path d="M773.38 679.28c1.76 2.46 1.71 4.94.08 7.44-.03-2.48-.05-4.96-.08-7.44z" class="st14"/><path d="M739.84 712.27c-.53.28-1.05.56-1.58.84.54-.26 1.08-.53 1.63-.79l-.05-.05z" class="st19"/><path d="m739.88 712.32-.04-.04c0-.01.04.04.04.04z" class="st19"/><path d="M770.04 632.96c.93-.73 1.86-1.45 2.78-2.18.02.84-.05 1.68-.21 2.51l-2.57-.33z" class="st14"/><path d="m745.81 456.18.29-.92.77.62z" class="st19"/><path d="M775.36 449.4c-.03 1-.07 2-.1 3.01.04-1 .07-2.01.1-3.01z" class="st14"/><path d="M773.12 521.94c1.98 7.48 6.78 15.75-5.33 19.3l.09.07c-3.09-4.58-7.71-6.61-12.86-7.76l.19.11c-1.81-.95-3.63-1.89-5.44-2.84 7.31-4.98 9.32-13.28 12.84-20.63 2.68-.15 5.96 3.28 7.65.25.84-1.51-1.76-4.96-2.8-7.54 1.97-5.9 3.94-11.81 5.9-17.71 3.47 11.11 3.04 22.23.05 33.34-1.77-.19-3.55-.38-5.32-.56-.88-.79-1.75-1.59-2.62-2.39l-.87-.34s.47.77.47.76c.82.84 1.64 1.69 2.46 2.55 1.87 1.13 3.73 2.26 5.59 3.39zM742.37 554c1.7 2.62 5.94 3.21 5.89 7.57-5.57 1.14-8.95-3.48-13.43-4.94 1.27-2.1 2.53-4.21 3.8-6.3.45.45.91.88 1.37 1.29.83.83 1.66 1.66 2.48 2.5l-.11-.12z" class="st4"/><path d="M747.66 536.43c.83-.12 1.65-.11 2.47.03 2.37 3.09 5.77 4.45 9.33 5.53l.78 4.35-.05.06c-2.51 0-5.03.01-7.54.01l-.13-.09c-.25-3.12-2.13-4.6-5.05-5.03a5.46 5.46 0 0 1-1.21-1.96c.47-.96.94-1.93 1.4-2.9z" class="st5"/><path d="M767.47 502.91c1.04 2.57 3.65 6.02 2.8 7.54-1.69 3.03-4.98-.4-7.65-.25.45-3.21 1.55-5.99 4.85-7.29z" class="st7"/><path d="M749.62 554.59c-2.42-.2-4.83-.39-7.25-.59l.12.12c-.83-.83-1.66-1.66-2.48-2.5-.47-.42-.92-.84-1.37-1.29.63-1.43 1.27-2.85 1.91-4.27 4.29 1.03 8.01 2.91 10.27 6.96-.4.54-.8 1.06-1.2 1.57zM759.46 542c-3.56-1.09-6.95-2.44-9.33-5.54.01-.97.02-1.94.02-2.91l5.06.12-.19-.11c1.95 2.25 3.9 4.5 5.84 6.75-.45.57-.92 1.13-1.4 1.69zM747.47 541.3c2.92.42 4.79 1.9 5.05 5.03-1.7-.9-3.4-1.79-5.1-2.69-.1-.78-.09-1.56.05-2.34z" class="st4"/><path d="M739.86 497.89c.55-.27 1.09-.54 1.64-.81-.55.27-1.09.54-1.64.81.01 0 0 0 0 0z" class="st17"/><path d="m755.22 533.67-5.06-.12c-.13-.9-.25-1.81-.38-2.71 1.81.94 3.63 1.88 5.44 2.83z" class="st5"/><path d="M747.66 536.43c-.46.97-.93 1.94-1.4 2.91-.78-1.57-.38-2.58 1.4-2.91z" class="st4"/><path d="M776.09 589.73c-.39 4.35-.79 8.7-1.18 13.05-5.78.42-10.99-.87-15.18-5.16 3.81-8.33 5.89-17.89 15.64-21.96l.72 14.07z" class="st8"/><path d="M776.09 589.73c-.24-4.69-.48-9.38-.73-14.07 1.62-1.74 3.25-3.48 4.87-5.23-.57 6.61 2.92 14.1-4.14 19.3z" class="st2"/><path d="M752.65 546.41c2.51 0 5.03-.01 7.54-.01 2.84 2.25 5.68 4.49 8.53 6.74-7.41.74-12.13-2.28-16.07-6.73zM764.82 562.26c-6.05-.59-10.44-4.49-15.2-7.67.4-.51.8-1.03 1.19-1.57 5.66 1.47 10.93 3.68 14.89 8.25-.29.33-.59.66-.88.99zM760.24 546.34c-.26-1.45-.51-2.9-.78-4.35.48-.55.95-1.12 1.4-1.68 2.34.34 4.68.67 7.03 1l-.09-.07c.26 1.42.51 2.85.77 4.27-.36.44-.72.89-1.08 1.33-2.42-.16-4.84-.33-7.25-.5z" class="st4"/><path d="m765.7 561.27 2.73 2.16c-1.95 1.91-2.5-.46-3.6-1.18.28-.32.58-.65.87-.98z" class="st4"/><path d="M778.42 556.75c.66 2.13 1.31 4.27 1.97 6.4-2.06-1.69-2.38-3.93-1.97-6.4z" class="st2"/><path d="M773.12 521.94c-1.86-1.13-3.73-2.25-5.59-3.38l.57-.58 5.32.57-.3 3.39z" class="st7"/><path d="M750.6 589.15c.56.48 1.65 1.29 1.59 1.39-.92 1.48-1.73.28-2.58-.21.32-.4.65-.79.99-1.18zM752.86 581.71c.63.34 1.26.68 1.89 1.03-1.05 1.58-1.69.11-2.46-.33l.57-.7z" class="st14"/><path d="M752.3 582.4c-1.62-.92-3.23-1.85-4.85-2.77 0 0 .17-.19.17-.2 1.75.76 3.49 1.52 5.24 2.28l-.56.69z" class="st14"/><path d="M768.56 545.51c.55.51 1.66 1.34 1.57 1.48-.89 1.56-1.77.29-2.65-.16.36-.43.72-.87 1.08-1.32z" class="st4"/><path d="M778.09 502.96c.07.84.14 1.68.22 2.52-.08-.84-.15-1.68-.22-2.52z" class="st2"/><path d="M752.59 865.39c.98.84 1.95 1.68 2.93 2.53-.48 6.02-1.41 12.09 2.2 17.59-.24 1.02-.48 2.03-.73 3.05-7.57-6.56-3.15-15.41-4.4-23.17z" class="st1"/><path d="M1096.08 855.64c-1.97 2.98-4.71 4.59-8.3 4.64-.92-.61-1.85-1.22-2.77-1.82l.72-.77c1.68-.84 3.37-1.67 5.05-2.51l-.17.1c1.67-.08 3.35-.17 5.02-.25l.45.61z" class="st8"/><path d="M1100.93 870.48c-1.75 1.74-3.5 3.49-5.24 5.23-.97-1.52-1.93-3.04-2.9-4.56 2.71-.22 5.43-.44 8.14-.67z" class="st12"/><path d="M1085.66 839.85c-.01.88-.03 1.75-.04 2.63-1.73 1.14-3.47 2.28-5.2 3.42-2.21-1.77-2.95-4.15-2.83-6.89 2.68.28 5.38.56 8.07.84zM1078.03 834.75c-.02 1.29-.05 2.59-.07 3.89-1.85-1.27-3.7-2.55-5.55-3.83l5.62-.06z" class="st5"/><path d="M1108.39 870.41c-2.54.06-5.09.12-7.63.17 3.8-5.28 8.97-7.81 15.43-7.75-2.6 2.53-5.2 5.06-7.8 7.58z" class="st8"/><path d="M1118.72 860.25c-.9.9-1.79 1.8-2.69 2.7.9-.89 1.79-1.79 2.69-2.7z" class="st12"/><path d="M1092.9 829.39c-1.58.96-3.17 1.92-4.75 2.88-1.72.01-3.45.03-5.17.04 1.72-2.58 3.43-5.16 5.15-7.74 1.72-.01 3.44-.03 5.16-.04l-.39 4.86z" class="st5"/><path d="M1083.15 832.21c-1.75.88-3.51 1.76-5.26 2.65 1.75-.89 3.5-1.77 5.26-2.65z" class="st15"/><path d="M1095.63 855.03c-1.67.08-3.35.17-5.02.25 1-4.14 4.03-5.22 7.78-5.22-.92 1.66-1.84 3.32-2.76 4.97z" class="st5"/><path d="M1090.77 855.18c-1.68.84-3.37 1.67-5.05 2.51 1.69-.84 3.37-1.67 5.05-2.51z" class="st15"/><path d="M859.43 533.7c-3.89 8.45-12.08 14.9-10.53 26.9-4.38-5.57 1.68-16.02-9.88-14.21l-.02-.02c2.55-3.4 5.1-6.8 7.65-10.21l-.02.02c4.23-.88 8.45-1.75 12.68-2.63l.12.15z" class="st5"/><path d="M823.76 554.05c.53-.27 1.07-.55 1.6-.82-.54.27-1.08.53-1.62.8l.02.02zM859.3 533.55c.58-.28 1.16-.55 1.74-.83-.54.32-1.08.65-1.62.98.01 0-.12-.15-.12-.15zM839.01 546.39c-.55.28-1.09.56-1.64.83.54-.28 1.08-.57 1.63-.85l.01.02zM846.65 536.17l-.02.02.02-.02z" class="st19"/><path d="M777.74 761.19c.2-1.12.38-2.25.64-3.35.04-.17.51-.23.78-.34-.45 1.31-.91 2.62-1.37 3.94 0 .01-.05-.25-.05-.25zM779.01 665.82v-6.56c1.27 2.19 1.23 4.38 0 6.56zM778.74 648.21c.55-.95 1.09-1.91 1.64-2.86-.54.95-1.09 1.91-1.64 2.86zM807.98 646.3c-.53.78-1.07 1.55-1.6 2.32.53-.78 1.07-1.55 1.6-2.32zM808.48 421.51c.29.72.31 1.46.06 2.19-.72-.71-.74-1.44-.06-2.19z" class="st2"/><path d="M811.08 629.91c-.68-15.9-1.39-31.8 1.05-47.63 1.07.48 2.14.96 3.2 1.44-2.58 11.03 1.6 21.93.61 32.91-.43 4.8 1.31 10.54-4.86 13.28zM812.29 666.47c-3.07-10.62-2.21-21.4-1.23-32.16 9.26 10.38 5.23 21.27 1.23 32.16zM815.34 583.72c-1.07-.48-2.14-.96-3.2-1.44-1.63-6.78-1.7-13.63-.9-20.52 8.54 5.97 4.43 14.32 4.1 21.96zM812.59 689.49c-2.73-5.99-2.37-11.98-.02-17.98 2.17 6 1.44 11.99.02 17.98z" class="st4"/><path d="m812.25 702.27-.06-3.57.06 3.57z" class="st14"/><path d="M831.5 426.3c-2.59-.8-5.17-1.61-7.76-2.41-2.36-3.58-7.25-5.26-7.66-10.3 5.21 1.4 9.55 5.44 15.33 5.13.89 1.61 1.78 3.22 2.67 4.84-.86.92-1.72 1.83-2.58 2.74z" class="st4"/><path d="M851.79 377.98c4.24 3.4 8.49 6.8 12.73 10.2-7.61-.13-12.91-5.85-19.62-8.15-.42-.64-.7-1.33-.85-2.08l-.03.02c2.54-.04 5.08-.08 7.61-.11l.16.12z" class="st5"/><path d="M846.64 367.71c1.68 1.72 3.36 3.44 5.03 5.16l.1-.1c-3.92-.28-7.04.65-7.73 5.2l.03-.02c-5.84-5.11-.71-7.44 2.57-10.24zM836.17 408.94c-3.99-.64-7.68-1.75-10.24-6.18 5.43-.44 8.14 2.48 10.76 5.56l-.52.62zM836.55 418.83l-4.96-.36-1.89-3.93c3.81-1.03 6.02.52 6.85 4.29z" class="st5"/><path d="M844.21 421.35c-3.23.96-5.86.11-7.86-2.63 3.19-.83 5.76.19 7.86 2.63zM840.77 412.09c-1.53-1.05-3.06-2.11-4.59-3.16 0 .01.51-.62.51-.62 1.67.86 3.34 1.72 5.02 2.57-.32.41-.63.81-.94 1.21zM836.46 400.9c-.75-.27-1.51-.54-2.26-.8 1.42-1.67 1.73-.11 2.28.78-.01 0-.02.02-.02.02zM841.43 393.25c1.76.88 3.52 1.77 5.28 2.65-2.38.36-4.28-.24-5.28-2.65z" class="st5"/><path d="M836.34 390.69c1.76.88 3.52 1.77 5.27 2.65-2.38.36-4.22-.35-5.27-2.65zM859.42 377.98h-7.62l-.14-.13.12-5.09-.1.1c3.46.35 6.38 1.54 7.74 5.12z" class="st5"/><path d="M864.49 380.51c-1.75-.88-3.49-1.76-5.24-2.63 1.75.88 3.49 1.75 5.24 2.63z" class="st12"/><path d="M831.5 426.3c.86-.91 1.72-1.82 2.58-2.74-.03.98-.06 1.96-.08 2.94a8.38 8.38 0 0 1-2.5-.2zM767.89 541.32c-2.34-.33-4.69-.66-7.03-1-1.94-2.26-3.89-4.51-5.84-6.76 5.16 1.14 9.78 3.17 12.87 7.76z" class="st5"/><path d="m765.07 516.02-.47-.77s.87.34.87.35l-.4.42z" class="st17"/><path d="M767.53 518.56c-.82-.85-1.63-1.7-2.46-2.55-.01.01.39-.41.4-.41l2.62 2.38-.56.58z" class="st7"/><path d="M740 551.62c.83.83 1.66 1.66 2.48 2.5-.82-.83-1.65-1.66-2.48-2.5z" class="st12"/><path d="m851.77 372.76-.12 5.09c-2.54.04-5.08.08-7.61.11.69-4.55 3.81-5.47 7.73-5.2z" class="st4"/></g></svg>