<svg xmlns="http://www.w3.org/2000/svg" xml:space="preserve" style="enable-background:new 0 0 1920 1080" viewBox="0 0 1920 1080"><style>.st0{fill:#fff}</style><path id="fond" d="M-28-30h1971v1125H-28z"/><g id="oeil_x5F_g"><path d="M501.94 690.58c-68.32.06-128.33-23.86-182.75-63.62-32.08-23.44-59.64-51.51-83.5-83.25-1.98-2.64-3.95-4.63-1.02-8.49 45.94-60.56 102.42-107.44 174.98-132.46 78.44-27.05 154.48-19.09 227.56 19.27 52.22 27.41 94.91 65.97 130.2 113 2.04 2.72 2.3 4.59.15 7.41-51.33 67.52-115.15 117.29-198.26 139.63-22.04 5.92-44.55 8.38-67.36 8.51zm-.69-249.85c-54.74.17-98.29 43.78-98.22 98.36.07 54.19 43.92 97.98 98 97.87 55.01-.11 98.35-43.78 98.22-98.97-.12-53.61-44.28-97.43-98-97.26zm-79.87 200.88c-31.9-26.98-49.3-60.95-49.39-102.66-.09-41.78 17.56-75.76 49.26-102.86-59.83 19.46-108.2 54.85-148.17 102.85 40.52 48.09 88.77 83.5 148.3 102.67zm159.65-.03c59.62-19.21 107.91-54.76 148.24-102.73-40.42-47.96-88.54-83.46-148.18-102.68 31.6 27.04 49.2 60.91 49.21 102.58.01 41.76-17.45 75.71-49.27 102.83z" class="st0"/><path d="M451.37 520.11c14.83 9.07 26.14 9.9 35.92 1.95 11.98-9.74 13.18-22.06 7.16-35.56 17.45-5.8 42.37 6.59 53.69 26.4 12.15 21.26 7.43 49.64-10.93 65.81-20.05 17.66-47.89 18.62-69.28 2.4-18.47-14.01-25.99-41.7-16.56-61z" class="st0"/></g><g id="oeil_x5F_d"><path d="M1365.62 690.58c-68.32.06-128.33-23.86-182.75-63.62-32.08-23.44-59.64-51.51-83.5-83.25-1.98-2.64-3.95-4.63-1.02-8.49 45.94-60.56 102.42-107.44 174.98-132.46 78.44-27.05 154.48-19.09 227.56 19.27 52.22 27.41 94.91 65.97 130.2 113 2.04 2.72 2.3 4.59.15 7.41-51.33 67.52-115.15 117.29-198.26 139.63-22.04 5.92-44.56 8.38-67.36 8.51zm-.69-249.85c-54.74.17-98.29 43.78-98.22 98.36.07 54.19 43.92 97.98 98 97.87 55.01-.11 98.35-43.78 98.22-98.97-.12-53.61-44.28-97.43-98-97.26zm-79.87 200.88c-31.9-26.98-49.3-60.95-49.39-102.66-.09-41.78 17.56-75.76 49.26-102.86-59.83 19.46-108.2 54.85-148.17 102.85 40.52 48.09 88.77 83.5 148.3 102.67zm159.65-.03c59.62-19.21 107.91-54.76 148.24-102.73-40.42-47.96-88.54-83.46-148.18-102.68 31.6 27.04 49.2 60.91 49.21 102.58.01 41.76-17.45 75.71-49.27 102.83z" class="st0"/><path d="M1315.05 520.11c14.83 9.07 26.14 9.9 35.92 1.95 11.98-9.74 13.18-22.06 7.16-35.56 17.45-5.8 42.37 6.59 53.69 26.4 12.15 21.26 7.43 49.64-10.93 65.81-20.05 17.66-47.89 18.62-69.28 2.4-18.48-14.01-25.99-41.7-16.56-61z" class="st0"/></g></svg>