<svg xmlns="http://www.w3.org/2000/svg" xml:space="preserve" id="ile" x="0" y="0" style="enable-background:new 0 0 1920 1080" version="1.1" viewBox="0 0 1920 1080"><style>.st0{fill:#c0fdff;stroke:#3fa9f5;stroke-width:.5616;stroke-miterlimit:10}.st1{fill:#deaaff}.st2{fill:#c8e7ff}.st3{fill:#8d71aa}</style><path d="M712.4 590.34c2.41-3.45 4.1-7.31 6.07-11 12.96-24.24 25.84-48.51 38.73-72.79.95-1.8 2.21-3.09 4.27-3.45.42.52 1.01.34 1.54.36 8.15.2 16.3-.06 24.46.35 8.69.44 17.41.13 26.12.41 9.87.32 19.77.11 29.64.5 1.13.04 1.73.02 1.42 1.6-.76 3.91-1.23 7.88-1.8 11.82-1.01 7.01-1.94 14.03-3.03 21.02-1.6 10.26-3.3 20.5-4.96 30.75-5.68.98-11.36 1.97-17.04 2.95-10.68 1.84-21.37 3.66-32.05 5.53-11.42 2-22.83 4.08-34.25 6.08-10.48 1.83-20.96 3.65-31.46 5.37-2.53.41-5.02 1.37-7.67.91.01-.14.01-.28.01-.41z" class="st0"/><path d="M712.4 590.75c2.64.46 5.13-.49 7.67-.91 10.5-1.71 20.98-3.53 31.46-5.37 11.42-2 22.83-4.08 34.25-6.08 10.68-1.87 21.37-3.69 32.05-5.53 5.68-.98 11.36-1.97 17.04-2.95l.16.04 4.74 43.18c-.54.1-1.09.17-1.62.31-20.53 5.18-41.07 10.38-61.6 15.56-9.47 2.39-18.94 4.74-28.42 7.1-1.7.42-2.86 1.23-3.67 2.94-2.84 6-5.87 11.9-8.84 17.84-2.91-7.11-5.25-14.43-7.84-21.65-5.03-14.03-9.99-28.08-14.98-42.12-.09-.24-.26-.46-.39-.69-.01-.56-.01-1.11-.01-1.67zM1195 1057c-.49-.88-1.37-.15-1.99-.48 2.07-3.45 4.13-6.9 6.2-10.35.28.12.56.24.83.36.39 3.34 1.27 6.61 1.18 10.01-.2.1-.56.06-.41.47-1.93-.01-3.87-.01-5.81-.01z" class="st0"/><path d="M769.31 290.75c-2.76-7.07-5.56-14.13-8.26-21.22-13.52-35.49-27.01-70.99-40.54-106.48-.47-1.22-.53-2.2.05-3.46 16.01-34.88 31.97-69.78 47.93-104.69.47-1.03.99-1.8 2.21-2.19 26.12-8.25 52.23-16.54 78.34-24.82.38-.12.8-.13 1.21-.2-.68 4.34-1.38 8.68-2.04 13.02-.99 6.45-1.94 12.9-2.93 19.35-.66 4.27-1.4 8.54-2.04 12.81-1.08 7.13-2.09 14.26-3.17 21.39-.85 5.63-1.79 11.26-2.64 16.89-.8 5.29-1.52 10.6-2.33 15.89-.65 4.28-1.46 8.53-1.84 12.84-.1 2.78.53 5.48.85 8.21.61 5.26 1.31 10.51 1.96 15.77.73 5.94 1.47 11.88 2.18 17.83.6 5.06 1.04 10.14 1.79 15.17 1.13 7.56 1.81 15.16 2.79 22.73.65 5.05 1.27 10.1 1.91 15.15.61 4.85 1.22 9.69 1.82 14.54.66 5.32 1.33 10.65 1.97 15.97.48 3.96.91 7.93 1.36 11.9.13 1.15-.02 1.88-1.53 2.05-3.34.38-6.64 1.06-9.97 1.54-7.95 1.16-15.91 2.26-23.86 3.42-8.15 1.19-16.3 2.43-24.45 3.66-6.52.98-13.03 1.99-19.55 2.99l-1.22-.06z" class="st1"/><path d="M833.26 139.88c.38-4.31 1.19-8.57 1.84-12.84.8-5.29 1.52-10.6 2.33-15.89.85-5.63 1.79-11.26 2.64-16.89 1.08-7.13 2.09-14.26 3.17-21.39.65-4.28 1.38-8.54 2.04-12.81.99-6.45 1.94-12.9 2.93-19.35.66-4.34 1.36-8.68 2.04-13.02l.06-.01c3.06.41 6.11.86 9.17 1.23 5.11.61 10.22 1.15 15.33 1.75 5.45.64 10.89 1.32 16.33 2 4.01.5 8.02 1.02 12.04 1.51 5.04.62 10.08 1.23 15.12 1.81 4.09.47 8.19.87 12.27 1.37 6.19.76 12.36 1.69 18.57 2.28 1.33.13 2.77 1.09 4.15.08.27.03.55.06.82.08.33.44.81.32 1.26.35 2.02.03 3.88.79 5.8 1.3.9 2.89 1.8 5.79 2.71 8.68 6.53 20.71 13.07 41.41 19.6 62.12 3.65 11.57 7.29 23.14 10.93 34.71l-.03-.02c-1.47.2-2.87-.37-4.3-.38-6.2-.05-12.38-.53-18.57-.79-6.33-.27-12.65-.56-18.98-.83-6.26-.27-12.52-.56-18.77-.83-6.33-.27-12.65-.57-18.98-.83-6.12-.26-12.24-.56-18.36-.83-6.53-.29-13.07-.56-19.6-.84-6.05-.26-12.1-.52-18.15-.84-8.47-.45-16.94-.6-25.41-.88z" class="st1"/><path d="M834.86 569.92c1.66-10.25 3.36-20.49 4.96-30.75 1.09-7 2.02-14.01 3.03-21.02.57-3.95 1.03-7.91 1.8-11.82.31-1.57-.29-1.55-1.42-1.6-9.88-.38-19.77-.17-29.64-.5-8.71-.29-17.43.02-26.12-.41-8.16-.41-16.31-.15-24.46-.35-.53-.01-1.12.17-1.54-.36 7.98-1.68 15.95-3.37 23.93-5.02 11.67-2.42 23.34-4.8 35.01-7.2l37.83-7.8c.4-.08.79-.24 1.18-.36.75-.1 1.5-.18 2.24-.3 3.05-.49 6.02-1.79 9.16-1.28 1.91.31 3.66.09 5.49-.34 4.16-.98 8.39-1.64 12.51-2.76 4.6-1.25 9.11-2.09 13.7-.16 1.32.59 2.56-.3 3.85-.2 5.89 1.32 11.78 2.61 17.66 3.96 17.76 4.08 35.52 8.18 53.27 12.29a5981.3 5981.3 0 0 1 29.45 6.87c19.54 4.62 39.07 9.28 58.61 13.92.6.14 1.18.36 1.77.54-.57.4-1.19.23-1.81.18-6.17-.52-12.34-1.06-18.52-1.54-6.04-.47-12.09-.86-18.14-1.34-8.31-.65-16.61-1.33-24.91-2.02-4.39-.36-8.78-.79-13.17-1.14-3.88-.31-7.77-.55-11.7-.83.13.82.76 1.07 1.23 1.43 3.21 2.39 6.45 4.75 9.66 7.15 7.63 5.69 15.25 11.39 22.88 17.09-4.21.07-8.41 0-12.62.35-5.22.43-10.48-.06-15.73.4-5.35.48-10.76-.05-16.15.42-5.29.47-10.62.11-15.94.39-9.31.48-18.65.39-27.98.53-.42.01-.83.02-1.25 0-1.26-.07-1.73.55-1.7 1.76.04 2.07-.23 4.13-.34 6.19-.42 7.99-.63 16-.92 24-3.65.12-7.29.17-10.94.35-8.2.4-16.41.05-24.62.39-9.44.39-18.9.08-28.35.49-7.03.3-14.07-.35-21.09.46l-.16-.06zM1097.38 640.27c2.05.98 1.96 2.6 1.27 4.36-3.41 8.69-6.84 17.38-10.25 26.07-.9 2.3-1.78 4.61-2.66 6.91-1.91 3.64-3.51 7.41-4.46 11.42-1.53 1.33-2.02 3.39-3.36 4.86-3.11-.1-6.21.18-9.3.24-11.6.23-23.21.4-34.8.89-5.59.24-11.18-.04-16.78.37-5.85.43-11.73-.01-17.61.42-5.57.41-11.18 0-16.78.41-5.85.43-11.73-.01-17.61.42-5.64.42-11.32-.01-16.99.41-5.78.43-11.6.21-17.4.37-8.15.22-16.3.53-24.46.56-1.59.01-3.18.04-4.77.07-4.68-1.42-8.91-3.88-13.41-5.73-1.04-.43-.82-1.37-.73-2.14.5-4.01.74-8.04.84-12.08-.22-1.46.38-2.83.47-4.26.08-1.45.72-2.27 2.27-2.71 28.83-8.22 57.64-16.51 86.46-24.78 1.77-.4 3.33-1.16 4.73-2.35 2.2-1.87 4.4-3.76 6.74-5.44 3.13-2.24 5.38-5.05 6.39-8.79l7.41-17.52c9.78 2.9 19.58 5.76 29.35 8.71 20.01 6.03 39.99 12.14 60.01 18.12 1.74.52 3.41 1.75 5.43 1.19z" class="st0"/><path d="M1057.07 176.03c.39.82-.15 1.48-.43 2.14-16.48 39.65-32.98 79.29-49.44 118.95-.49 1.19-1.25 1.83-2.4 2.31-32.59 13.57-65.18 27.16-97.76 40.75-.25.1-.47.27-.71.4-2.1.49-2.23-1.71-3.39-2.49-.14-2.38-1.82-1.73-3.22-1.63 4.66-4.19 9.31-8.4 13.98-12.58 3.75-3.35 7.52-6.69 11.29-10.02 5.58-4.92 11.17-9.83 16.76-14.74 3.11-2.73 6.29-5.36 9.3-8.19 3.06-2.88 6.5-5.34 9.28-8.52 1.52-2.46 1.65-5.34 2.32-8.04 10.59-42.48 21.15-84.96 31.71-127.44l.03.02c4.69 2.14 9.39 4.22 14.05 6.42 13.07 6.16 26.09 12.41 39.19 18.5 3.13 1.45 6.09 3.26 9.44 4.16z" class="st1"/><path d="M735.61 656.88c2.96-5.94 5.99-11.84 8.84-17.84.81-1.71 1.98-2.52 3.67-2.94 9.48-2.35 18.95-4.71 28.42-7.1 20.54-5.18 41.07-10.38 61.6-15.56.53-.13 1.08-.21 1.62-.31.18 1.57.38 3.14.55 4.72.59 5.4 1.16 10.81 1.78 16.21.78 6.9 1.6 13.8 2.41 20.7-9.02 7.29-18.02 14.61-27.07 21.85-15.52 12.43-31.1 24.78-46.6 37.23-3.92 3.15-8.09 6.01-11.7 9.54-1.59-2.19-2.04-4.85-2.91-7.32-6.88-19.44-13.67-38.91-20.48-58.37-.1-.25-.09-.54-.13-.81zM901.4 698.04c1.59-.02 3.18-.06 4.77-.07 8.16-.03 16.31-.34 24.46-.56 5.8-.16 11.62.06 17.4-.37 5.67-.42 11.34.01 16.99-.41 5.88-.44 11.76.01 17.61-.42 5.6-.41 11.21.01 16.78-.41 5.87-.44 11.76 0 17.61-.42 5.6-.41 11.19-.13 16.78-.37 11.6-.49 23.2-.66 34.8-.89 3.1-.06 6.2-.34 9.3-.24-1.23 1.38-2.96 1.99-4.49 2.89-11.63 6.86-23.08 14.01-34.91 20.54-2.99 1.65-6.22 2.96-8.8 5.3-1.97.33-3.43 1.66-5.05 2.64-2.91 1.78-6.11 3.09-8.65 5.46-15.21 8.55-30.4 17.13-45.63 25.64-4.66 2.61-9.19 5.47-14.04 7.73-.29-.17-.62-.3-.86-.53-8.27-7.7-16.48-15.48-24.83-23.09-3.1-2.82-5.88-6.01-9.34-8.44l.02.03c-.15-.14-.29-.28-.44-.42-1.98-2.61-4.64-4.5-7.06-6.65-2.92-3.62-6.7-6.34-9.92-9.66-1.21-1.25-1.22-1.87-.03-3.1 2.45-2.52 4.71-5.23 6.22-8.46.35-.75 1.06-1.69-.42-2.14-.43-.48-1.05-.57-1.59-.84-2.15-1.08-4.7-1.21-6.68-2.74z" class="st0"/><path d="M899.73 336.46c1.4-.1 3.08-.75 3.22 1.63-.62.8-.32 1.74-.33 2.61-.02 44.76-.01 89.51-.02 134.27 0 .97-.06 1.93-.09 2.9-4.59-1.93-9.1-1.09-13.7.16-4.12 1.12-8.35 1.78-12.51 2.76-1.83.43-3.58.66-5.49.34-3.14-.52-6.11.79-9.16 1.28-.74.12-1.5.2-2.24.3.01-10.66.03-21.32.03-31.98 0-37.11-.01-74.21-.02-111.32 1.51-.04 3.02-.07 4.53-.1 1.99.76 3.71.29 5.27-1.1 2.46-2.18 5.22-3.15 8.44-1.81 7.21.14 14.4.71 21.62.42l.43-.37.02.01z" class="st2"/><path d="M1057.07 176.03c-3.35-.9-6.31-2.72-9.42-4.16-13.1-6.1-26.12-12.35-39.19-18.5-4.66-2.19-9.37-4.28-14.05-6.42-3.64-11.57-7.28-23.14-10.93-34.71-6.53-20.71-13.07-41.41-19.6-62.12-.91-2.89-1.81-5.79-2.71-8.68 5.72 2.1 11.17 4.83 16.76 7.25 9 3.9 17.94 7.92 26.93 11.85 1.06.46 1.81 1.07 2.3 2.17 16.61 37.64 33.25 75.27 49.88 112.91.04.13.02.28.03.41z" class="st3"/><path d="M1012.65 534.23c-7.63-5.7-15.25-11.4-22.88-17.09-3.21-2.39-6.45-4.75-9.66-7.15-.47-.35-1.1-.6-1.23-1.43 3.94.28 7.82.52 11.7.83 4.39.35 8.78.78 13.17 1.14 8.3.69 16.61 1.37 24.91 2.02 6.04.47 12.09.86 18.14 1.34 6.18.48 12.35 1.03 18.52 1.54.61.05 1.24.22 1.81-.18 4.37 1.03 4.39 1.03 4.09 5.14-.82 11.35-1.67 22.69-2.48 34.04-.6 8.53-1.15 17.06-1.72 25.59-.04.55.01 1.11-.34 1.59-.28 0-.56.04-.83-.02-11.01-2.3-22.02-4.6-33.02-6.91-8.12-1.71-16.26-3.34-24.35-5.18-2.91-.66-5.96-.8-8.71-2.11-.02-.63.1-1.21.35-1.8 3.52-8.43 7.08-16.84 10.49-25.31.81-1.95 2.17-3.76 2.04-6.05zM759.12 723.38c3.62-3.53 7.78-6.39 11.7-9.54 15.5-12.45 31.08-24.8 46.6-37.23 9.05-7.25 18.05-14.57 27.07-21.85 6.39-.41 12.77-.91 19.16-1.22 6.26-.3 12.5-.76 18.75-1.25 8.3-.65 16.61-1.21 24.93-1.67 7.63-.43 15.24-1.15 22.86-1.59 8.93-.53 17.87-1.07 26.79-1.75 5.56-.42 11.11-.85 16.67-1.19 1.2-.07 2.47-.41 3.64.25-28.82 8.27-57.63 16.56-86.46 24.78-1.54.44-2.18 1.26-2.27 2.71-.08 1.43-.68 2.8-.47 4.26-4.49 0-8.98-.04-13.46.02-2.61.04-5.23-.3-7.83.21-.48 0-.96-.05-1.43.01-6.57.74-13.15 1.4-19.7 2.28-6.13.82-12.06 2.58-17.96 4.42-4.75 3.27-9.42 6.69-14.29 9.77-2.63 1.66-4.09 3.68-4 6.78-1.02 4.19-2.12 8.35-3 12.57-.3 1.46-.98 2.32-2.24 2.87-5.58.76-11.16 1.49-16.73 2.3-8.02 1.16-16.03 2.39-24.05 3.57-1.41.19-2.85.33-4.28.49zM999.78 567.4c2.75 1.31 5.8 1.45 8.71 2.11 8.09 1.84 16.23 3.47 24.35 5.18 11.01 2.31 22.01 4.61 33.02 6.91.27.06.55.02.83.02-1.23 5.64-3.22 11.06-4.79 16.61-1.57 5.55-3.26 11.06-4.89 16.59-.44-.18-.92-.29-1.33-.53-9.08-5.4-18.18-10.78-27.22-16.25-1.46-.88-2.6-1.21-4.04-.01-1.1.92-2.44 1.55-3.65 2.36-6.03 4.01-12.32 7.64-18.21 11.86l-7.41 17.52c-.74-1.96-.09-3.9.02-5.87.55-9.55 1.34-19.09 2.1-28.62.53-6.66.71-13.35 1.37-19.99.26-2.6-.05-5.25.71-7.8.15-.04.29-.06.43-.09zM1159.27 892.86c.7 1.35-.01 2.7-.01 4.05-.01 7.89.07 15.78-.2 23.66-.31 9.12-.05 18.25-.37 27.37-.07 2.07-.19 4.13-.22 6.2-.01.7-.21 1.28-.84 1.51-.65.23-.94-.39-1.26-.82-.19-.28-.34-.62-.59-.83-7.26-6.32-14.48-12.68-21.83-18.89-2.19-1.85-4.07-4.12-6.72-5.39.41-4.44-.57-8.78-.92-13.16-.63-7.89-1.53-15.76-2.34-23.63-.39-3.76-.82-7.52-1.24-11.28l.11.04c3.02.9 6.06 1.76 9.07 2.69 9.12 2.81 18.24 5.65 27.36 8.48zM913.83 724.98c2.42 2.15 5.08 4.04 7.06 6.65.15.14.29.28.44.42l-.02-.03c.31 3.2 1.73 6.08 2.7 9.09 3.77 11.68 7.89 23.25 11.4 35.02-8.33-.43-16.62-1.3-24.92-2.05-7.21-.65-14.42-1.17-21.63-1.74-5.22-.41-10.47-.61-15.65-1.31-2.98-.4-4.92-2.83-6.76-5.09 3.18-2.1 6.64-3.68 10.12-5.16 8.79-3.75 16.37-9.39 23.98-15 .35-.04.63-.17.84-.5 1.74-2.79 3.38-5.65 5.26-8.34 2.67-3.83 4.39-8.22 7.18-11.96z" class="st0"/><path d="M1122.73 881.64c.41 3.76.85 7.52 1.24 11.28.81 7.87 1.71 15.74 2.34 23.63.35 4.38 1.33 8.73.92 13.16l.05.07c-2.73.47-5.27 1.61-7.92 2.37-5.23 1.51-10.3 3.56-15.61 4.79-1.39-2.98-1.76-6.25-2.54-9.4-2.69-10.86-5.2-21.76-7.8-32.64-.13-.56-.19-1.07-.08-1.62 1.48-.55 2.98-1.07 4.45-1.66 8.31-3.31 16.63-6.65 24.95-9.98zM1081.29 833.76c.32 2.12-.88 3.9-1.44 5.79-1.58 5.38-3.46 10.67-5.09 16.03-.58 1.91-1.61 3.43-2.82 4.95a2447.96 2447.96 0 0 0-16.81 21.25c-.95 1.22-1.42 1.49-2.43.01-2.78-4.08-6.15-7.74-8.48-12.14-.01-.4-.05-.78-.59-.78v.03c.32-.84-.29-1.38-.62-2.03-.87-1.72-2.41-3.13-2.52-5.22.09-.26.13-.54.26-.77 6.69-12.06 13.69-23.92 22.65-34.49.11-.02.21-.05.32-.07 5.74 2.75 11.6 5.23 17.57 7.44zM1002.57 612.25c5.89-4.23 12.18-7.85 18.21-11.86 1.21-.8 2.55-1.43 3.65-2.36 1.44-1.2 2.58-.87 4.04.01 9.04 5.47 18.14 10.85 27.22 16.25.41.24.88.36 1.33.53 6.8 4.31 13.59 8.64 20.4 12.94 6.64 4.19 13.31 8.35 19.97 12.52-2.02.55-3.69-.68-5.46-1.2-20.02-5.98-40.01-12.08-60.01-18.12-9.78-2.95-19.57-5.81-29.35-8.71zM804.19 717.01c1.27-.55 1.94-1.41 2.24-2.87.88-4.21 1.98-8.38 3-12.57.04.9.12 1.79.12 2.69.01 7.12.05 14.25-.03 21.37-.02 1.61.43 1.81 1.87 1.38 9.49-2.85 18.98-5.7 28.5-8.41 4.29-1.22 8.49-2.81 12.91-3.57-.18.44-.3.92-.54 1.33-4.28 7.48-8.51 14.99-12.88 22.42-2.34 3.97-4.34 8.15-7.05 11.9-3.41 3.11-6.85 6.19-10.21 9.36-.96.91-2.31 1.57-2.59 3.07-1.12-.91-1.01-2.31-1.36-3.51-2.91-10.04-5.78-20.1-8.67-30.14-.62-2.16-1.38-4.28-1.97-6.45-.62-2.3-1.5-4.41-3.34-6z" class="st0"/><path d="M1063.4 826.41c-8.96 10.57-15.96 22.43-22.65 34.49-.13.23-.18.51-.26.77-.97.3-1.42-.58-2.1-.94-1.13-.59-1.82-1.95-3.31-1.92l.01.01c0-.99-.76-1.1-1.46-1.28-2.22-1.26-3.92-3.18-5.93-4.71-.5-.38-.56-.88-.34-1.48 4.69-12.94 9.48-25.83 17.82-37.02.8.07 1.39.55 2.02.99 5.38 3.7 10.79 7.39 16.2 11.09zM1029.71 722.61c2.59-2.34 5.81-3.65 8.8-5.3 11.83-6.52 23.28-13.68 34.91-20.54 1.53-.9 3.26-1.51 4.49-2.89 1.34-1.47 1.83-3.52 3.36-4.86l15.25-1.83c-.2.88-.97 1.31-1.54 1.88-12.99 12.88-26 25.74-38.98 38.63-1.23 1.22-2.71 1.76-4.3 2.19-.06-.47-.35-.64-.81-.77-6.4-1.78-12.79-3.58-19.18-5.41-.72-.2-1.7-.07-2-1.1zM1122.73 881.64c-8.32 3.33-16.63 6.66-24.95 9.98-1.47.59-2.97 1.11-4.45 1.66-.35-.54-.5-1.12-.5-1.76.05-5.09-.76-10.14-.89-15.23-.12-4.58-.73-9.15-1.16-13.71-.16-1.71-.1-3.09 1.77-4.12 3.84-2.13 7.12-5.16 11.06-7.18.15.01.29.01.44.02 1.45 3.2 2.66 6.48 3.8 9.8.8 2.32 1.46 4.72 2.8 6.83 2.03.95 4.13 1.79 6.08 2.89 2.06 1.16 4 1.49 6.01.05.04 3.6.07 7.2.11 10.81l-.12-.04z" class="st0"/><path d="M1122.83 881.68c-.04-3.6-.07-7.2-.11-10.81.38-.28.75-.59 1.16-.82 5.35-3.02 10.91-5.6 16.81-7.36 2.04-.61 3.47-1.72 4.56-3.56.94-1.57 1.8-3.26 3.23-4.5 2.49 8.66 5.02 17.32 7.46 26 1.14 4.07 2.55 8.07 3.32 12.24-9.12-2.83-18.24-5.68-27.37-8.49-3-.94-6.03-1.81-9.06-2.7z" class="st0"/><path d="M863.96 339.31c-1.51.03-3.02.07-4.53.1-9.44-3.67-18.9-7.32-28.33-11.02-16.51-6.47-33.01-12.98-49.53-19.44-1.28-.5-2.17-1.23-2.89-2.44-2.73-4.62-5.58-9.17-8.37-13.76-.39-.63-.95-1.2-1-2l1.2.06c.48 1.11 1.54 1.5 2.51 1.99 14.09 7.19 28.17 14.4 42.27 21.57 11.33 5.76 22.7 11.46 34.02 17.24 4.92 2.5 9.77 5.13 14.65 7.7z" class="st1"/><path d="M1107.46 833.5c.13-2.7 1.76-4.14 4.05-5.28 2.86-1.42 5.58-3.12 8.36-4.69 5.07 6.09 10.18 12.15 15.18 18.3 1.5 1.84 3.45 3.37 4.3 5.72l-11.49 4.23c-2.76.4-5.54.69-8.27 1.21-3.52.68-7.11.99-10.56 2.05-.13.01-.27 0-.4-.03-.15-.13-.29-.26-.44-.38-.03-.12-.05-.23-.06-.35-.43-6.74-.3-13.5-.38-20.25-.01-.17-.19-.35-.29-.53zM819.54 763.11c.29-1.51 1.63-2.16 2.59-3.07 3.35-3.17 6.8-6.25 10.21-9.36 1.02.18 2.04.08 3.07.27 4.5.83 9.03 1.52 13.55 2.29 5.59.96 11.18 1.97 16.76 2.96-.15.3-.23.68-.46.89-6.17 5.43-12.35 10.85-18.55 16.25-.34.29-.54.6-.54 1.05-8.68-3.69-17.37-7.39-26.05-11.08-.19-.08-.38-.14-.58-.2zM935.41 776.13c-3.51-11.77-7.64-23.33-11.4-35.02-.97-3.01-2.39-5.88-2.7-9.09 3.45 2.44 6.23 5.62 9.34 8.44 8.36 7.61 16.56 15.39 24.83 23.09.24.22.57.35.86.53-6.88 4.19-13.72 8.43-20.93 12.05z" class="st0"/><path d="M902.52 477.87c.03-.97.09-1.93.09-2.9 0-44.76 0-89.51.02-134.27 0-.87-.29-1.8.33-2.61 1.16.79 1.29 2.98 3.39 2.49.01 45 .01 90.01.02 135.01 0 .69.01 1.38.01 2.08-1.3-.1-2.54.79-3.86.2z" class="st2"/><path d="M953.3 39.71c-1.38 1.01-2.82.05-4.15-.08-6.21-.59-12.38-1.52-18.57-2.28-4.09-.5-8.18-.9-12.27-1.37-5.04-.59-10.08-1.2-15.12-1.81-4.01-.49-8.03-1.01-12.04-1.51-5.44-.67-10.88-1.35-16.33-2-5.11-.6-10.23-1.14-15.33-1.75-3.06-.37-6.11-.82-9.17-1.23 3.59-.55 7.17-1.13 10.76-1.64 6.66-.95 13.36-1.72 19.99-2.84 3.18-.54 6.1.12 9.07.84 18.69 4.54 37.37 9.09 56.04 13.67 2.39.58 4.75 1.33 7.12 2z" class="st3"/><path d="m1127.85 851.78 11.49-4.23c3.16-.55 6.31-1.16 9.49-1.61 1.7-.24 3.35-1.13 5.13-.46-1.83 3.05-3.66 6.1-5.48 9.16-1.43 1.24-2.29 2.92-3.23 4.5-1.09 1.84-2.53 2.95-4.56 3.56-5.9 1.76-11.46 4.34-16.81 7.36-.41.23-.77.55-1.16.82-2.02 1.44-3.95 1.11-6.01-.05-1.95-1.1-4.05-1.93-6.08-2.89 1.93-1.91 4.68-2.46 6.79-4.08 3.86-3.7 7.07-7.96 10.43-12.08zM1153.97 845.47c-1.78-.67-3.44.22-5.13.46-3.17.45-6.33 1.07-9.49 1.61-.84-2.34-2.8-3.87-4.3-5.72-5-6.14-10.11-12.21-15.18-18.3 4.76.47 9.54 1.41 14.29 1.29 5.23-.14 6.83 3.89 9.38 6.85 3.59 4.17 6.94 8.55 10.4 12.83.26.34.58.64.03.98zM846.18 774.39c0-.44.21-.76.54-1.05 6.19-5.41 12.38-10.82 18.55-16.25.23-.21.31-.59.46-.89 9.29-2.86 18.56-5.77 27.87-8.56 2.3-.69 4.51-1.74 6.96-1.87-7.61 5.61-15.18 11.26-23.98 15-3.48 1.48-6.94 3.06-10.12 5.16-6.02 2.44-11.74 5.53-17.65 8.2-.85.39-1.67 1.09-2.63.26zM1029.71 722.61c.3 1.03 1.28.9 2.01 1.11 6.39 1.83 12.78 3.63 19.18 5.41.46.13.74.3.81.77-5.75 2.04-11.49 4.09-17.24 6.14-.83.3-1.58.13-2.41-.14-5.34-1.76-10.69-3.46-16.05-5.18 2.53-2.37 5.74-3.68 8.65-5.46 1.62-.99 3.08-2.32 5.05-2.65zM1127.23 929.72c2.65 1.28 4.53 3.54 6.72 5.39 7.35 6.21 14.57 12.57 21.83 18.89.25.22.39.55.59.83l-4.56-1.35c-3.52-1.64-7.11-3.06-10.82-4.21-.76-.7-1.78-.79-2.68-1.17-3.71-1.6-7.34-3.39-11.33-4.21l-1.95-1.02c.17-.2.47-.38.51-.61.6-4.15 1.17-8.31 1.74-12.47l-.05-.07zM1199.21 1046.16c-2.07 3.45-4.13 6.9-6.2 10.35-3.43-2.59-6.23-5.74-8.46-9.41-.25-.41-.25-.73.05-1.11 2.88-3.58 5.76-7.17 8.65-10.74.11-.14.36-.17.54-.25 2.01 3.62 4.12 7.2 5.42 11.16zM1168.27 996.8c-3.22-2.48-6.17-5.21-8.19-8.81-.3-.53-.42-.97-.02-1.5 2.88-3.81 5.54-7.81 8.83-11.3.34.68.69 1.35 1.01 2.04 1.47 3.19 3.47 6.13 4.48 9.53-2.01 3.37-3.78 6.87-6.11 10.04z" class="st0"/><path d="M1127.28 929.79c-.58 4.16-1.14 8.31-1.74 12.47-.03.22-.33.41-.51.61-6.78-1.73-13.56-3.46-20.33-5.2-.4-.1-.78-.28-.95-.71 5.32-1.23 10.38-3.28 15.61-4.79 2.65-.77 5.18-1.91 7.92-2.38zM1199.21 1046.16c-1.3-3.97-3.41-7.54-5.42-11.15 1.25.3 2.49.72 3.76.89 4.35.58 7.61 3.21 10.95 5.7.29.21.51.41.62.76 1.1 3.64 2.2 7.28 3.31 10.92-.71-.06-1.25-.51-1.85-.83-3.54-1.93-6.86-4.24-10.53-5.92-.28-.13-.56-.25-.84-.37zM1174.38 986.76c-1.01-3.41-3.01-6.35-4.48-9.53-.32-.69-.67-1.36-1.01-2.04 5.38.97 10.07 3.48 14.51 6.54.76.53.99 1.26 1.22 2.06.92 3.22 1.86 6.44 2.79 9.66-1.18-.56-2.39-1.07-3.54-1.68-3.1-1.65-6.02-3.61-9.28-4.96-.07-.02-.14-.03-.21-.05zM1063.4 826.41c-5.41-3.7-10.82-7.39-16.22-11.09-.63-.43-1.22-.92-2.02-.99 1.3-.87 2.62-.05 3.86.1 7.7.99 15.38 2.16 23.07 3.27-.19 1.05-1.04 1.6-1.77 2.18-2.42 1.93-4.52 4.17-6.6 6.44-.11.04-.22.06-.32.09zM1087.53 804.86c.19-3.66 2.98-4.74 5.78-5.8 3.14 3.49 6.78 6.51 9.55 10.35-2.09.81-4.18 1.62-6.28 2.43-2.57.16-5.07.73-7.57 1.32-1.15.02-1.22-.71-1.26-1.62-.09-2.23.33-4.47-.22-6.68z" class="st0"/><path d="M1096.58 811.83c2.09-.81 4.18-1.62 6.28-2.43l6.98-.9c-1.13 2.73-2.91 5.09-4.29 7.69-.3.57-.87.66-1.37.79-2.53.67-4.87 1.79-7.09 3.12-1.91 1.15-3.72 1.45-5.67.18-.61-.39-1.45-.36-1.96-.98.86-.64 1.73-1.28 2.59-1.92 2.06-1.4 3.09-3.64 4.53-5.55zM1063.71 826.33c2.07-2.28 4.18-4.52 6.6-6.44.73-.58 1.58-1.14 1.77-2.18.93.37 1.52 1.11 2.09 1.88.14.18.28.37.42.55l-.01-.04c1.24 4.43 3.87 8.18 6.04 12.59.11-.9.17-1.36.22-1.82.59.89.28 1.93.45 2.89-5.97-2.21-11.83-4.69-17.58-7.43zM1096.53 687.2l-15.25 1.83c.95-4.02 2.54-7.78 4.46-11.42.52 1.94 2.47 2.46 3.72 3.66 2.22 2.13 4.99 3.62 7.07 5.93zM1109.84 808.5l-6.98.9c-2.77-3.84-6.41-6.86-9.55-10.35 2.81-.08 5.62-.37 8.4.31.39.09.82-.02 1.12.37 2.29 2.96 5.08 5.52 7.01 8.77zM1126.97 943.88c3.99.82 7.62 2.62 11.33 4.21-1.43 2.72-2.87 5.45-4.71 7.93-2.73-2.13-4.99-4.74-7.39-7.2-.74-.75-.69-1.57-.25-2.47.39-.8.96-1.53 1.02-2.47zM1174.59 986.81c3.26 1.35 6.19 3.31 9.28 4.96 1.15.61 2.36 1.12 3.54 1.68-2.3 1.89-5.15 2.48-7.91 3.2-1.01.26-2.08.77-3.2.44-.23-3.48-1.13-6.85-1.71-10.28zM1200.04 1046.53c3.67 1.68 6.99 4 10.53 5.92.6.33 1.14.77 1.85.83-.05.19-.07.52-.17.55-3.67.94-7.25 2.25-11.03 2.7.09-3.39-.78-6.67-1.18-10zM1107.46 833.5c.1.18.28.35.28.53.08 6.75-.05 13.5.38 20.25-.79-.14-1.18-.84-1.74-1.29-.75-.6-1.12-1.74-2.34-1.68-.01-.17-.01-.35-.02-.52-.82-1.52-.92-3.01-.36-4.72 1.37-4.16 2.55-8.38 3.8-12.57z" class="st0"/><path d="M1174.59 986.81c.58 3.43 1.48 6.8 1.71 10.29-2.68-.09-5.38.49-8.03-.3 2.33-3.16 4.1-6.67 6.11-10.03.07.01.14.02.21.04zM1140.98 949.27c3.71 1.15 7.3 2.57 10.82 4.21-3.45 1.01-6.67 2.85-10.39 2.89-.14-2.37-.29-4.74-.43-7.1z" class="st0"/><path d="M1140.98 949.27c.14 2.37.29 4.73.43 7.1-2.61-.12-5.25.54-7.83-.34 1.84-2.48 3.28-5.2 4.71-7.93.91.38 1.93.47 2.69 1.17zM1080.84 830.87c-.06.46-.11.92-.22 1.82-2.17-4.41-4.8-8.16-6.04-12.59 1.9 1.98 3.89 3.89 5.66 5.98 1.16 1.36.3 3.2.6 4.79zM1092.04 817.38c-.86.64-1.73 1.28-2.59 1.92-1.18-2.93-3.09-5.65-2.78-9 .17-1.82.56-3.63.86-5.44.55 2.21.14 4.45.23 6.67.04.91.11 1.64 1.26 1.62.21 1.98 2.36 2.57 3.02 4.23zM1035.07 858.81c1.49-.03 2.18 1.33 3.31 1.92.68.36 1.13 1.23 2.1.94.12 2.09 1.65 3.49 2.52 5.22.33.65.94 1.19.62 2.03-2.58-3.6-5.3-7.08-8.55-10.11z" class="st0"/><path d="M1033.62 857.53c.71.18 1.47.29 1.46 1.28-.65-.24-1.09-.72-1.46-1.28z" class="st0"/><path d="M955.38 40.14c-.44-.03-.93.09-1.26-.35.47-.06.93-.08 1.26.35z" style="fill:#006e02"/><path d="M1043.63 868.88c.54.01.58.38.59.78-.2-.25-.39-.52-.59-.78zM1104.02 850.78c.01.17.01.35.02.52-.15-.01-.29-.01-.44-.02.14-.16.28-.33.42-.5zM1074.59 820.14c-.14-.18-.28-.37-.42-.55.14.18.28.36.42.55zM999.36 567.48c-.75 2.55-.45 5.2-.71 7.8-.66 6.64-.84 13.33-1.37 19.99-.76 9.54-1.55 19.07-2.1 28.62-.11 1.97-.76 3.91-.02 5.87-1.02 3.74-3.26 6.54-6.39 8.79-2.34 1.68-4.54 3.57-6.74 5.44-1.4 1.18-2.96 1.95-4.73 2.35-1.17-.66-2.44-.33-3.64-.25-5.56.34-11.12.77-16.67 1.19-8.92.68-17.86 1.23-26.79 1.75-7.62.45-15.23 1.17-22.86 1.59-8.31.46-16.62 1.03-24.93 1.67-6.25.49-12.49.95-18.75 1.25-6.39.31-12.78.8-19.16 1.22-.8-6.9-1.62-13.8-2.41-20.7-.61-5.4-1.18-10.81-1.78-16.21-.17-1.57-.37-3.14-.55-4.72l-4.74-43.18c7.02-.8 14.07-.15 21.09-.46 9.45-.41 18.91-.09 28.35-.49 8.21-.34 16.42.01 24.62-.39 3.65-.18 7.3-.23 10.94-.35 7.73-.13 15.45.08 23.19-.28 12-.55 24.02.18 36.04-.44 6.68-.34 13.41-.06 20.11-.06z" class="st0"/><path d="M863.96 339.31c-4.88-2.57-9.73-5.2-14.65-7.7-11.33-5.78-22.69-11.48-34.02-17.24-14.1-7.17-28.18-14.37-42.27-21.57-.96-.49-2.02-.89-2.51-1.99 6.52-1 13.03-2 19.55-2.99 8.15-1.23 16.29-2.46 24.45-3.66 7.95-1.16 15.91-2.26 23.86-3.42 3.33-.49 6.63-1.17 9.97-1.54 1.5-.17 1.66-.9 1.53-2.05-.45-3.97-.89-7.93-1.36-11.9-.64-5.33-1.31-10.65-1.97-15.97-.6-4.85-1.21-9.69-1.82-14.54-.63-5.05-1.25-10.1-1.91-15.15-.98-7.57-1.66-15.18-2.79-22.73-.75-5.03-1.19-10.11-1.79-15.17-.71-5.94-1.44-11.89-2.18-17.83-.65-5.26-1.34-10.51-1.96-15.77-.32-2.73-.94-5.44-.85-8.21 8.47.28 16.95.43 25.41.88 6.05.32 12.1.58 18.15.84 6.53.28 13.07.55 19.6.84 6.12.27 12.24.57 18.36.83 6.33.27 12.65.56 18.98.83 6.26.27 12.51.56 18.77.83 6.33.27 12.65.56 18.98.83 6.19.26 12.37.74 18.57.79 1.43.01 2.84.58 4.3.38-10.57 42.48-21.12 84.97-31.71 127.44-.67 2.71-.8 5.58-2.32 8.04-1.26.16-2.46-.39-3.68-.39-9.73-.04-19.45-.34-29.16-.85-4.13-.22-8.27-.16-12.4-.31-9.79-.35-19.58-.68-29.37-.87-7.73-.15-15.45-.79-23.19-.51-.41.01-.83-.05-1.23-.12-3.55-.61-7.11-.12-11.07-.32 9.26 19.36 18.35 38.36 27.44 57.35-3.23-1.34-5.98-.37-8.44 1.81-1.56 1.39-3.28 1.87-5.27 1.11z" class="st3"/><path d="M999.36 567.48c-6.71 0-13.43-.28-20.12.07-12.02.63-24.04-.11-36.04.44-7.74.36-15.46.15-23.19.28.29-8 .5-16.01.92-24 .11-2.06.38-4.12.34-6.19-.02-1.21.44-1.84 1.7-1.76.41.02.83.01 1.25 0 9.33-.15 18.67-.05 27.98-.53 5.32-.27 10.65.08 15.94-.39 5.39-.48 10.79.05 16.15-.42 5.26-.47 10.51.03 15.73-.4 4.21-.35 8.41-.27 12.62-.35.13 2.28-1.24 4.09-2.03 6.06-3.42 8.47-6.97 16.89-10.49 25.31-.25.59-.37 1.17-.35 1.8-.13.03-.27.05-.41.08zM866.81 678.32c2.6-.51 5.22-.17 7.83-.21 4.49-.07 8.97-.02 13.46-.02-.1 4.04-.33 8.07-.84 12.08-.1.77-.32 1.71.73 2.14 4.5 1.84 8.73 4.3 13.41 5.73 1.98 1.53 4.52 1.66 6.68 2.74.54.27 1.16.36 1.59.84-7.74.74-15.49 1.48-23.23 2.23-.11-.32-.15-.7-.34-.95-4.58-5.74-9.2-11.45-13.76-17.21-1.91-2.4-4.02-4.66-5.53-7.37z" class="st0"/><path d="M877.68 336.4c-9.09-18.99-18.18-37.99-27.44-57.35 3.96.2 7.52-.29 11.07.32.41.07.82.14 1.23.12 7.74-.28 15.46.36 23.19.51 9.79.19 19.58.52 29.37.87 4.13.15 8.27.09 12.4.31 9.71.51 19.43.81 29.16.85 1.23 0 2.42.56 3.68.39-2.78 3.18-6.22 5.64-9.28 8.52-3.01 2.83-6.2 5.47-9.3 8.19-5.59 4.91-11.18 9.82-16.76 14.74-3.77 3.33-7.54 6.66-11.29 10.02-4.67 4.18-9.32 8.38-13.98 12.58v-.02l-.43.37c-7.22.29-14.41-.28-21.62-.42z" class="st3"/><path d="M886.44 703.85c7.74-.74 15.49-1.48 23.23-2.23 1.48.44.77 1.39.42 2.14-1.51 3.23-3.77 5.94-6.22 8.46-1.19 1.23-1.18 1.85.03 3.1 3.22 3.31 7 6.04 9.92 9.66-2.79 3.74-4.51 8.13-7.18 11.95-1.88 2.69-3.52 5.55-5.26 8.34-.21.33-.49.45-.84.5-2.45.13-4.66 1.18-6.96 1.87-9.31 2.79-18.58 5.7-27.87 8.56-5.59-.99-11.17-1.99-16.76-2.96-4.51-.78-9.04-1.46-13.55-2.29-1.03-.19-2.06-.09-3.07-.27 2.72-3.75 4.72-7.93 7.05-11.9 4.37-7.43 8.6-14.93 12.88-22.42.23-.41.36-.88.54-1.33.05-.07.07-.16.06-.25 11.2-3.64 22.39-7.28 33.58-10.93zM921.32 732.04c-.15-.14-.29-.28-.44-.42.15.15.3.29.44.42z" class="st0"/><path d="m899.3 336.82.43-.37c-.15.12-.29.25-.43.37z" style="fill:#003301"/><path d="M886.44 703.85c-11.19 3.64-22.38 7.28-33.57 10.93-2.41-2.92-4.8-5.84-7.22-8.75-4.05-4.86-8.03-9.78-12.19-14.54-1.89-2.16-3.5-4.6-5.73-6.46 5.9-1.84 11.83-3.59 17.96-4.42 6.55-.88 13.13-1.54 19.7-2.28.47-.05.95-.01 1.43-.01 1.5 2.71 3.62 4.97 5.53 7.38 4.56 5.76 9.18 11.46 13.76 17.21.19.25.22.63.33.94z" class="st0"/><path d="M827.73 685.03c2.23 1.87 3.83 4.3 5.73 6.46 4.16 4.76 8.15 9.68 12.19 14.54 2.42 2.91 4.81 5.83 7.22 8.75.01.09-.01.17-.06.25-4.42.77-8.62 2.35-12.91 3.57-9.53 2.71-19.02 5.56-28.5 8.41-1.44.43-1.89.23-1.87-1.38.08-7.12.04-14.25.03-21.37 0-.9-.08-1.79-.12-2.69-.08-3.1 1.37-5.12 4-6.78 4.87-3.08 9.54-6.49 14.29-9.76zM1104.04 851.31c1.22-.05 1.59 1.09 2.34 1.68.57.45.95 1.14 1.74 1.29.01.12.04.24.06.35.15.13.29.26.44.38.13.02.26.03.4.03.17.36.26.8.53 1.06 2.61 2.6 5.25 5.17 7.88 7.75-2.11 1.61-4.86 2.16-6.79 4.08-1.34-2.11-2-4.51-2.8-6.83-1.15-3.31-2.35-6.59-3.8-9.79z" class="st0"/><path d="M1117.43 863.86c-2.63-2.58-5.27-5.15-7.88-7.75-.27-.27-.36-.71-.53-1.06 3.44-1.06 7.04-1.37 10.56-2.05 2.73-.53 5.51-.82 8.27-1.21-3.36 4.11-6.57 8.37-10.42 12.07zM1108.63 855.02c-.15-.13-.29-.26-.44-.38l.44.38zM1092.04 817.38c-.67-1.66-2.81-2.25-3.03-4.22 2.5-.6 5-1.17 7.57-1.32-1.44 1.9-2.47 4.14-4.54 5.54z" class="st0"/></svg>